<?xml version="1.0" standalone="no"?>
<!DOCTYPE svg PUBLIC "-//W3C//DTD SVG 20010904//EN"
 "http://www.w3.org/TR/2001/REC-SVG-20010904/DTD/svg10.dtd">
<svg version="1.0" xmlns="http://www.w3.org/2000/svg"
 width="580.000000pt" height="400.000000pt" viewBox="0 0 580.000000 400.000000"
 preserveAspectRatio="xMidYMid meet">
<metadata>
Created by potrace 1.16, written by Peter Selinger 2001-2019
</metadata>
<g transform="translate(0.000000,400.000000) scale(0.100000,-0.100000)"
fill="#000000" stroke="none">
<path d="M605 2919 c-6 -28 -9 -30 -38 -24 l-32 6 24 -21 24 -21 -21 -6 c-29
-7 -28 -17 3 -33 29 -15 31 -23 11 -39 -10 -8 -16 -9 -21 -1 -11 17 -23 11
-27 -12 -2 -16 -12 -24 -31 -28 l-29 -5 26 -24 c24 -23 25 -26 9 -43 -9 -10
-29 -18 -44 -18 l-27 0 15 -40 c19 -48 13 -59 -21 -37 -23 16 -25 15 -31 -2
-3 -11 -18 -22 -33 -27 -22 -6 -23 -8 -9 -12 13 -2 17 -10 14 -23 -5 -20 1
-23 42 -19 30 2 71 -19 71 -37 0 -12 -27 -19 -60 -14 -8 1 -33 3 -55 5 -22 2
-46 5 -53 7 -9 3 -14 -7 -16 -32 -2 -32 0 -37 28 -45 21 -6 37 -21 49 -46 16
-33 22 -37 46 -32 37 8 50 -13 17 -27 -17 -8 -37 -9 -63 -2 -45 11 -168 1
-141 -11 23 -10 23 -36 1 -37 -32 -1 61 -37 98 -38 40 -1 63 -20 53 -44 -4
-11 -15 -15 -32 -12 -84 13 -111 14 -117 5 -3 -5 -17 -10 -30 -10 -29 0 -41
-16 -19 -24 11 -4 15 -14 12 -31 -5 -22 -2 -24 19 -19 17 5 28 1 38 -12 12
-17 12 -21 -6 -34 -18 -14 -18 -17 -4 -37 12 -17 22 -21 43 -17 20 4 33 0 46
-15 18 -20 18 -21 -9 -31 -20 -7 -37 -8 -58 -1 -19 7 -35 7 -47 1 -10 -5 -32
-7 -49 -4 -31 6 -31 6 -21 -20 7 -19 7 -33 0 -47 -9 -16 -7 -19 15 -19 14 0
25 -4 25 -10 0 -5 16 -10 36 -10 19 0 45 -5 56 -11 21 -11 21 -12 -3 -25 -13
-7 -38 -13 -56 -14 -17 0 -35 -4 -38 -10 -3 -5 -14 -10 -23 -10 -32 0 -45 -15
-33 -38 8 -16 20 -20 60 -19 28 0 53 -2 57 -5 3 -4 -2 -18 -11 -32 -13 -20
-26 -26 -51 -26 -23 0 -34 -5 -34 -15 0 -7 -8 -18 -17 -24 -15 -8 -15 -11 -3
-26 8 -9 22 -14 33 -11 25 6 77 -4 77 -15 0 -5 -12 -11 -27 -15 -64 -14 -65
-15 -58 -41 5 -20 1 -26 -16 -30 -20 -6 -21 -7 -5 -19 14 -10 16 -16 6 -34 -7
-12 -18 -19 -26 -16 -24 9 -15 -11 13 -30 19 -12 45 -17 85 -16 31 1 60 -3 63
-8 10 -16 61 -12 76 6 7 9 21 13 32 10 11 -3 29 0 39 5 13 7 23 7 31 1 7 -6
28 -12 47 -14 l35 -3 3 -96 c3 -94 2 -96 -23 -107 -17 -8 -93 -12 -220 -12
l-195 0 0 -110 0 -110 2770 0 2770 0 0 110 0 110 -219 0 c-190 0 -220 2 -225
16 -3 9 -6 49 -6 89 0 67 2 74 25 89 19 13 30 14 45 6 15 -8 27 -7 49 5 27 14
33 13 85 -10 l56 -25 0 25 c0 14 5 25 11 25 6 0 9 6 6 14 -3 8 2 17 11 20 9 3
25 11 34 18 13 10 24 10 50 0 38 -13 79 -6 72 13 -3 7 5 15 18 19 l23 7 -22 9
c-13 5 -23 18 -23 29 0 11 -9 25 -21 31 -16 9 -18 14 -8 26 6 8 9 17 6 21 -4
3 -2 12 4 19 9 11 5 16 -14 23 -32 12 -41 27 -21 35 29 11 5 23 -71 36 -42 7
-78 17 -81 22 -10 16 12 30 48 32 28 2 33 5 30 24 -3 20 1 22 51 22 48 0 55 2
51 18 -4 12 4 21 27 29 39 15 36 21 -14 25 -20 1 -39 8 -41 15 -4 10 -12 10
-32 3 -18 -7 -30 -7 -38 0 -9 6 -23 6 -44 -2 -26 -10 -37 -9 -67 5 -34 16 -35
18 -20 41 8 13 13 31 9 40 -5 13 0 16 25 16 28 0 31 2 25 25 -5 22 -3 25 18
25 23 0 58 27 58 44 0 4 -14 5 -30 1 -22 -5 -32 -3 -36 9 -4 11 -19 16 -51 16
-24 0 -42 4 -39 8 3 5 -8 16 -25 26 -38 22 -29 36 25 36 24 0 58 8 77 18 l34
17 -32 3 c-23 2 -30 7 -26 18 3 9 -2 14 -17 14 -33 0 -18 25 18 28 19 2 29 8
26 15 -2 7 8 20 23 29 l28 17 -32 1 c-28 0 -34 4 -41 32 l-8 32 -23 -37 c-21
-34 -24 -36 -42 -23 -17 12 -28 12 -72 0 -28 -7 -52 -12 -53 -11 -1 1 -7 12
-13 25 -10 19 -9 22 9 22 11 0 23 7 27 16 4 11 13 13 33 9 22 -5 30 -2 35 13
3 11 12 23 20 26 8 3 15 12 15 20 0 8 8 16 18 18 12 2 7 8 -19 21 -30 14 -43
15 -68 6 -39 -14 -50 -6 -28 19 10 10 14 21 11 25 -4 3 6 9 20 13 26 6 26 7
10 26 -16 17 -16 20 -2 35 13 13 22 14 48 4 28 -9 31 -9 20 4 -7 9 -11 17 -9
19 2 1 15 10 29 19 l24 17 -36 0 c-22 0 -40 6 -45 15 -7 12 -14 12 -48 0 -39
-13 -40 -13 -47 13 -5 19 -3 29 7 35 8 4 12 14 9 21 -4 9 3 16 18 19 21 3 21
5 -9 16 -33 13 -45 43 -23 56 21 13 9 24 -17 14 -40 -15 -56 6 -23 31 20 16
22 20 8 20 -10 0 -18 4 -18 10 0 5 8 14 18 20 14 9 13 10 -8 4 -42 -11 -43
-10 -53 24 -13 41 -27 41 -27 1 0 -31 -1 -31 -37 -25 l-38 6 28 -23 29 -24
-29 -8 -28 -7 28 -15 c19 -9 27 -20 23 -30 -3 -8 -6 -17 -6 -19 0 -3 -8 0 -19
5 -15 8 -20 6 -29 -14 -7 -16 -20 -25 -34 -25 -21 0 -21 -1 5 -28 27 -28 27
-29 9 -45 -10 -9 -31 -17 -47 -17 -20 0 -25 -3 -18 -12 20 -27 31 -65 23 -79
-7 -11 -14 -9 -34 10 -24 23 -24 23 -31 2 -3 -12 -15 -21 -25 -21 -25 0 -34
-16 -14 -24 10 -4 14 -14 11 -25 -4 -16 1 -17 33 -14 26 3 47 -1 65 -13 34
-22 19 -37 -37 -35 -24 0 -54 1 -68 1 -14 1 -34 5 -45 9 -11 5 -51 22 -90 39
-128 56 -271 111 -335 131 -280 85 -387 109 -755 170 -330 55 -957 74 -1220
38 -65 -10 -139 -17 -163 -17 -24 0 -96 -9 -161 -20 -459 -80 -448 -77 -651
-136 -30 -8 -80 -22 -110 -30 -48 -13 -178 -59 -235 -83 -11 -5 -36 -15 -55
-22 -19 -7 -74 -31 -122 -54 -74 -36 -88 -40 -101 -28 -10 11 -20 11 -41 3
-36 -13 -52 -3 -32 19 9 10 13 20 10 24 -4 3 5 9 20 13 30 7 30 8 14 34 -11
17 -10 22 2 30 8 5 25 7 37 3 16 -3 23 -1 23 10 0 8 10 22 23 30 22 16 22 16
-14 16 -23 1 -39 7 -43 16 -4 13 -10 13 -47 0 -23 -8 -42 -15 -44 -15 -1 0 -2
14 -2 30 0 17 4 30 9 30 4 0 8 9 8 19 0 11 8 21 18 23 13 3 9 8 -15 21 -37 20
-39 24 -18 54 15 21 15 21 -17 12 -41 -11 -38 -12 -38 5 0 7 7 19 15 26 13 11
13 15 3 21 -11 7 -11 12 0 29 12 20 11 20 -8 10 -28 -15 -50 -6 -50 19 0 33
-18 33 -25 0z m2485 -279 c258 -17 371 -27 460 -43 107 -19 229 -39 255 -42
12 -2 50 -10 85 -20 36 -9 101 -26 145 -37 139 -36 397 -118 485 -155 241 -99
256 -108 208 -121 -18 -4 -13 -9 31 -29 33 -14 62 -21 77 -17 32 8 57 -12 44
-35 -8 -15 -18 -16 -72 -10 -37 4 -67 4 -72 -2 -6 -5 -25 -9 -43 -9 -37 0 -45
-15 -13 -23 17 -4 20 -11 14 -32 -6 -24 -4 -25 19 -20 20 5 28 2 37 -15 9 -18
9 -24 -5 -34 -15 -10 -16 -16 -6 -35 10 -17 18 -21 39 -16 34 7 73 -18 56 -35
-11 -11 -26 -13 -84 -12 -97 2 -100 2 -100 -24 0 -14 -5 -34 -10 -45 -9 -16
-7 -19 13 -19 14 0 30 -7 37 -15 8 -9 29 -15 56 -15 23 0 45 -4 48 -9 7 -10
-46 -31 -77 -31 -26 0 -97 -31 -97 -43 0 -4 5 -17 10 -27 8 -16 15 -18 35 -10
15 6 35 5 54 -1 l30 -10 -22 -25 c-11 -13 -31 -24 -44 -24 -14 0 -34 -12 -48
-27 -21 -26 -22 -30 -8 -45 12 -13 20 -15 34 -7 20 10 95 2 84 -10 -4 -3 -25
-10 -48 -16 -34 -8 -43 -15 -45 -35 -2 -14 -10 -30 -18 -36 -12 -10 -12 -13 1
-24 12 -10 12 -14 0 -26 -7 -8 -21 -14 -29 -14 -24 0 -19 -16 12 -36 27 -19
92 -26 197 -22 28 1 86 2 130 3 l80 0 3 -99 c2 -85 0 -100 -15 -112 -15 -11
-391 -13 -2159 -13 -1944 -1 -2142 0 -2148 15 -3 9 -6 51 -6 94 0 101 11 110
131 105 46 -1 91 -5 99 -8 8 -4 24 0 34 8 16 12 17 17 6 30 -10 12 -9 15 5 15
10 0 27 7 37 17 15 14 24 14 57 4 42 -12 71 -7 71 14 0 7 10 16 23 19 22 6 22
7 -5 22 -16 8 -28 23 -28 33 0 11 -10 21 -22 25 -21 6 -22 7 -6 20 10 7 15 16
11 19 -3 4 0 14 7 22 11 13 8 17 -19 28 -34 13 -39 22 -15 31 29 11 4 25 -70
36 -86 14 -101 22 -92 45 5 14 14 16 47 11 41 -7 41 -6 35 20 l-7 27 55 -6
c54 -5 56 -5 56 19 0 17 7 25 25 30 37 9 31 21 -15 28 -26 4 -40 11 -40 21 0
14 -3 14 -28 1 -17 -9 -33 -11 -43 -6 -9 6 -30 5 -51 -2 -29 -9 -40 -7 -62 7
-25 16 -25 19 -12 40 10 16 12 25 4 33 -16 16 0 32 33 32 31 0 36 9 17 28 -9
9 -5 12 19 12 22 0 35 7 47 25 l16 25 -34 0 c-19 0 -38 5 -41 10 -3 6 -24 10
-46 10 -22 0 -38 4 -35 8 3 5 -9 17 -27 28 l-32 19 50 5 c28 3 63 14 80 25
l29 20 -31 3 c-23 2 -30 7 -26 18 3 9 -1 14 -12 14 -30 0 -9 25 26 31 19 3 66
20 104 38 39 18 84 39 100 47 64 29 284 105 445 154 58 17 128 38 155 46 182
56 469 107 735 129 308 26 407 28 630 15z"/>
</g>
</svg>
