<?xml version="1.0" standalone="no"?>
<!DOCTYPE svg PUBLIC "-//W3C//DTD SVG 20010904//EN"
 "http://www.w3.org/TR/2001/REC-SVG-20010904/DTD/svg10.dtd">
<svg version="1.0" xmlns="http://www.w3.org/2000/svg"
 width="580.000000pt" height="400.000000pt" viewBox="0 0 580.000000 400.000000"
 preserveAspectRatio="xMidYMid meet">
<metadata>
Created by potrace 1.16, written by Peter Selinger 2001-2019
</metadata>
<g transform="translate(0.000000,400.000000) scale(0.100000,-0.100000)"
fill="#000000" stroke="none">
<path d="M2678 3258 l-3 -53 -272 -3 -273 -2 0 -50 0 -50 -275 0 -274 0 -3
-57 -3 -58 -220 0 -220 0 -3 58 -3 57 -79 0 c-43 0 -86 -3 -95 -6 -29 -12 -45
-60 -45 -138 l0 -75 58 -3 57 -3 0 -165 c0 -140 -2 -165 -15 -166 -8 -1 -34
-2 -57 -2 l-43 -2 0 -110 0 -110 -50 0 -49 0 -3 -107 -3 -108 -52 -3 -53 -3 0
-104 0 -104 53 -3 52 -3 3 -107 3 -108 49 0 49 0 3 -112 3 -113 58 -3 57 -3
-2 -162 -3 -162 -57 -3 -58 -3 0 -75 c0 -78 16 -126 45 -138 9 -3 52 -6 95 -6
l79 0 3 58 3 57 220 0 220 0 3 -57 3 -58 274 0 275 0 0 -50 0 -50 273 -2 272
-3 3 -52 3 -53 220 0 219 0 0 55 0 55 275 0 275 0 0 50 0 50 273 2 272 3 3 58
3 57 217 -2 217 -3 3 -57 3 -58 83 0 c69 0 88 4 110 21 25 19 26 25 26 110 l0
89 -55 0 -55 0 0 165 0 165 55 0 54 0 3 113 3 112 53 3 52 3 0 109 0 109 53 3
52 3 0 100 0 100 -52 3 -53 3 0 109 0 109 -52 3 -53 3 -5 110 -5 110 -50 0
-50 0 -3 168 -2 167 55 0 55 0 0 89 c0 85 -1 91 -26 110 -22 17 -41 21 -110
21 l-83 0 -3 -57 -3 -58 -217 -3 -217 -2 -3 57 -3 58 -272 3 -273 2 0 50 0 50
-275 0 -275 0 0 55 0 55 -219 0 -220 0 -3 -52z m462 -669 c278 -33 457 -84
680 -195 223 -111 400 -236 558 -393 93 -94 127 -160 119 -232 -9 -71 -47
-131 -106 -162 l-48 -27 -1429 0 c-1060 0 -1439 2 -1464 11 -95 32 -155 151
-128 256 9 37 27 64 87 126 69 73 182 172 286 253 50 39 256 156 341 194 199
90 365 135 624 170 164 22 291 22 480 -1z"/>
</g>
</svg>
