<?xml version="1.0" standalone="no"?>
<!DOCTYPE svg PUBLIC "-//W3C//DTD SVG 20010904//EN"
 "http://www.w3.org/TR/2001/REC-SVG-20010904/DTD/svg10.dtd">
<svg version="1.0" xmlns="http://www.w3.org/2000/svg"
 width="580.000000pt" height="400.000000pt" viewBox="0 0 580.000000 400.000000"
 preserveAspectRatio="xMidYMid meet">
<metadata>
Created by potrace 1.16, written by Peter Selinger 2001-2019
</metadata>
<g transform="translate(0.000000,400.000000) scale(0.100000,-0.100000)"
fill="#000000" stroke="none">
<path d="M2690 3344 c-19 -2 -80 -9 -135 -15 -115 -12 -312 -50 -435 -84 -218
-61 -400 -136 -599 -248 -69 -38 -134 -74 -145 -81 -11 -6 -26 -17 -32 -25 -7
-9 -19 -11 -33 -6 -22 7 -23 11 -19 88 2 66 8 92 31 135 15 28 23 52 18 52 -5
0 -32 -25 -59 -55 -28 -30 -53 -55 -56 -55 -4 0 -20 15 -36 33 -25 27 -31 30
-40 17 -5 -8 -10 -30 -10 -47 0 -41 -13 -42 -80 -8 -27 14 -60 25 -72 25 -21
0 -21 -1 7 -18 66 -41 145 -152 132 -186 -13 -33 -42 -17 -70 38 -34 64 -76
110 -143 154 -89 59 -166 65 -185 15 -8 -22 -4 -40 22 -100 37 -86 104 -158
178 -193 56 -26 66 -40 47 -65 -12 -17 -16 -16 -66 11 -49 27 -89 61 -124 109
l-15 20 0 -20 c0 -11 11 -42 24 -70 14 -27 25 -53 25 -56 0 -4 -18 -9 -39 -13
-54 -8 -61 -24 -23 -56 31 -26 42 -50 22 -50 -14 0 -79 -59 -92 -84 -10 -19
-9 -20 5 -8 45 38 251 58 263 27 4 -8 0 -23 -7 -31 -12 -14 -11 -19 9 -32 68
-45 117 -173 110 -286 -6 -86 -32 -149 -88 -210 l-42 -46 42 -47 c70 -78 85
-122 85 -238 -1 -88 -4 -107 -27 -155 -15 -31 -43 -70 -62 -89 -30 -29 -33
-36 -23 -53 10 -16 9 -22 -7 -34 -11 -8 -34 -14 -51 -14 -55 0 -149 21 -182
40 -50 29 -39 7 24 -49 l57 -51 -34 -30 c-34 -29 -34 -30 -16 -45 11 -8 32
-15 46 -15 37 0 42 -9 21 -39 -18 -26 -41 -84 -41 -104 0 -5 18 11 40 36 23
25 66 60 97 78 53 31 57 31 69 14 17 -24 8 -35 -60 -74 -72 -40 -138 -117
-170 -196 -20 -49 -23 -70 -16 -89 35 -94 260 25 330 173 16 35 29 51 42 51
27 0 33 -27 14 -66 -20 -43 -101 -131 -127 -139 -10 -4 -19 -11 -19 -16 0 -13
46 0 94 27 58 34 76 31 77 -8 0 -18 4 -41 8 -52 6 -16 10 -14 39 18 17 20 34
36 37 36 4 0 29 -25 57 -55 27 -30 53 -55 57 -55 5 0 -4 23 -18 52 -26 53 -39
153 -27 203 5 20 12 25 28 23 17 -2 24 -14 33 -58 20 -106 80 -180 180 -227
l60 -28 1305 0 1305 0 63 29 c99 46 151 115 178 241 7 30 15 41 30 43 19 3 22
-3 28 -47 8 -64 -1 -124 -29 -183 -12 -27 -19 -48 -14 -48 4 0 30 26 58 57
l51 57 30 -32 c35 -39 48 -40 55 -7 3 14 7 37 10 51 l6 25 52 -29 c29 -16 68
-33 87 -36 l35 -7 -31 19 c-48 31 -104 92 -130 144 -20 40 -21 48 -9 58 23 19
43 5 67 -46 57 -122 257 -243 311 -189 26 25 21 65 -19 143 -36 72 -102 141
-170 175 -47 24 -61 45 -42 63 14 14 20 14 57 -6 42 -21 125 -97 148 -135 8
-14 8 -5 -1 28 -8 26 -23 62 -34 81 -23 39 -20 46 18 46 14 0 35 7 46 15 18
15 18 16 -15 45 l-35 30 60 56 c32 30 50 52 39 48 -11 -3 -37 -13 -58 -21 -21
-7 -71 -16 -110 -19 -61 -6 -75 -4 -87 11 -10 13 -11 21 -3 35 10 14 6 23 -22
50 -18 17 -48 62 -67 98 -30 60 -33 74 -33 152 1 78 4 91 34 146 18 32 49 76
69 96 l35 37 -41 45 c-22 24 -53 68 -68 98 -24 45 -28 65 -28 138 0 74 4 93
30 145 16 33 46 77 67 98 31 31 36 41 27 53 -7 7 -10 21 -6 29 12 31 218 11
263 -27 14 -12 15 -11 5 8 -13 25 -78 84 -92 84 -20 0 -9 24 22 50 38 32 31
48 -23 56 -21 4 -39 11 -39 16 0 5 11 30 24 56 13 26 26 61 30 77 l7 30 -19
-30 c-45 -72 -170 -157 -198 -134 -26 21 -15 37 46 70 74 39 127 90 163 157
57 104 43 180 -30 169 -96 -16 -207 -102 -261 -202 -27 -50 -58 -68 -73 -44
-17 28 71 150 136 191 28 17 28 18 7 18 -12 0 -49 -13 -81 -30 -32 -16 -61
-26 -65 -23 -3 4 -6 20 -6 37 0 17 -5 38 -10 46 -9 12 -17 8 -46 -25 -33 -37
-36 -39 -46 -21 -16 28 -89 106 -99 106 -5 0 3 -24 17 -52 22 -43 27 -67 28
-130 1 -85 -11 -112 -42 -90 -73 51 -291 171 -407 224 -204 92 -546 186 -800
218 -90 12 -499 22 -565 14z m542 -699 c207 -35 226 -40 393 -97 261 -90 479
-214 701 -399 237 -196 295 -308 230 -444 -29 -61 -67 -97 -126 -119 -41 -15
-169 -16 -1550 -14 -1381 3 -1507 4 -1535 20 -95 52 -145 177 -115 287 9 35
31 63 103 136 238 238 491 402 797 517 183 68 206 74 485 122 48 9 158 15 276
15 164 1 218 -3 341 -24z"/>
</g>
</svg>
