<?xml version="1.0" standalone="no"?>
<!DOCTYPE svg PUBLIC "-//W3C//DTD SVG 20010904//EN"
 "http://www.w3.org/TR/2001/REC-SVG-20010904/DTD/svg10.dtd">
<svg version="1.0" xmlns="http://www.w3.org/2000/svg"
 width="580.000000pt" height="400.000000pt" viewBox="0 0 580.000000 400.000000"
 preserveAspectRatio="xMidYMid meet">
<metadata>
Created by potrace 1.16, written by Peter Selinger 2001-2019
</metadata>
<g transform="translate(0.000000,400.000000) scale(0.100000,-0.100000)"
fill="#000000" stroke="none">
<path d="M2425 3394 c-55 -7 -122 -14 -150 -15 -27 0 -84 -9 -127 -20 -42 -10
-88 -19 -103 -19 -25 0 -111 -19 -280 -61 -182 -46 -273 -72 -410 -119 -108
-37 -165 -50 -192 -44 -56 12 -105 35 -156 73 -29 21 -66 42 -84 46 -51 10
-114 -12 -155 -57 -62 -67 -60 -137 7 -234 53 -76 57 -148 16 -272 -68 -201
-76 -302 -35 -444 31 -107 57 -168 95 -225 33 -47 36 -65 13 -83 -23 -20 -83
-153 -110 -245 -39 -134 -27 -263 46 -475 26 -76 23 -164 -6 -208 -64 -95 -85
-171 -61 -219 20 -38 75 -87 113 -102 35 -14 106 -1 135 25 31 28 132 55 178
49 61 -9 87 -22 158 -77 46 -36 75 -51 115 -58 35 -7 564 -9 1494 -8 1401 3
1441 4 1469 22 17 11 50 36 75 56 102 84 199 87 328 12 84 -48 181 -24 228 55
35 61 30 118 -17 193 -67 104 -73 152 -33 270 36 109 64 245 64 313 0 106 -55
278 -121 375 -16 24 -29 47 -29 52 0 5 18 37 40 71 22 34 40 66 40 71 0 4 8
27 18 51 28 63 52 175 52 238 0 72 -24 190 -61 302 -16 49 -29 102 -29 119 0
43 20 109 41 133 35 41 57 100 55 146 -3 68 -57 132 -125 149 -61 15 -100 4
-164 -45 -44 -34 -95 -57 -151 -70 -27 -6 -102 15 -331 90 -67 22 -108 33
-275 75 -140 35 -215 52 -255 56 -22 3 -69 12 -105 20 -36 8 -92 17 -125 20
-33 3 -112 12 -175 20 -151 19 -770 17 -915 -2z m925 -675 c396 -55 483 -77
660 -164 159 -78 358 -258 438 -395 14 -25 29 -47 32 -50 3 -3 15 -27 28 -55
13 -27 30 -63 39 -80 74 -145 39 -284 -87 -351 -34 -18 -91 -19 -1570 -19
-1479 0 -1536 1 -1570 19 -73 38 -121 102 -135 178 -10 51 16 133 81 257 75
142 158 247 264 332 30 24 61 50 70 57 64 57 260 159 365 190 134 39 499 91
700 99 77 3 142 8 145 10 12 11 406 -9 540 -28z"/>
</g>
</svg>
