<?xml version="1.0" standalone="no"?>
<!DOCTYPE svg PUBLIC "-//W3C//DTD SVG 20010904//EN"
 "http://www.w3.org/TR/2001/REC-SVG-20010904/DTD/svg10.dtd">
<svg version="1.0" xmlns="http://www.w3.org/2000/svg"
 width="580.000000pt" height="400.000000pt" viewBox="0 0 580.000000 400.000000"
 preserveAspectRatio="xMidYMid meet">
<metadata>
Created by potrace 1.16, written by Peter Selinger 2001-2019
</metadata>
<g transform="translate(0.000000,400.000000) scale(0.100000,-0.100000)"
fill="#000000" stroke="none">
<path d="M2545 3640 c-140 -8 -175 -11 -335 -31 -324 -40 -843 -167 -1188
-290 -31 -11 -79 -19 -116 -19 -60 0 -68 3 -141 53 -161 108 -165 109 -248 81
-125 -43 -167 -188 -85 -300 91 -125 96 -182 33 -349 -43 -113 -57 -189 -57
-330 -1 -107 3 -143 22 -205 29 -96 68 -183 113 -250 33 -49 35 -56 22 -75
-38 -54 -83 -135 -102 -185 -47 -120 -56 -170 -56 -305 1 -144 15 -220 66
-350 24 -62 31 -95 31 -145 -1 -70 -14 -103 -79 -194 -30 -41 -35 -56 -35
-102 0 -59 20 -119 48 -141 9 -8 37 -23 61 -35 54 -25 127 -19 186 17 84 51
108 59 180 59 81 -1 110 -13 201 -84 79 -62 106 -76 179 -90 44 -8 501 -10
1710 -8 l1650 3 55 26 c30 14 82 46 115 71 92 69 121 81 200 82 65 0 76 -3
150 -44 70 -39 88 -45 140 -45 99 0 165 55 179 149 9 60 -6 113 -49 167 -65
84 -85 201 -46 277 48 96 84 264 84 392 0 150 -57 336 -137 447 -20 28 -36 54
-36 58 0 4 16 30 36 58 79 110 138 306 138 457 -1 107 -20 204 -66 330 -55
150 -51 215 19 317 55 81 66 113 57 175 -8 66 -39 108 -103 141 -85 42 -121
36 -226 -43 -133 -99 -177 -102 -402 -29 -87 27 -176 56 -198 64 -181 64 -717
178 -935 200 -36 3 -78 8 -95 10 -160 22 -661 29 -940 15z m448 -165 c38 -11
52 -12 67 -3 11 7 22 9 26 5 4 -4 9 -40 12 -82 4 -62 2 -75 -10 -75 -8 0 -22
18 -30 39 -11 27 -30 48 -58 66 -58 37 -116 29 -171 -23 -43 -42 -57 -86 -54
-172 4 -102 64 -174 158 -186 35 -5 52 0 101 25 69 37 97 28 44 -13 -71 -54
-147 -69 -232 -45 -61 17 -96 49 -127 114 -98 204 66 413 274 350z m-618 -25
c3 -6 -5 -14 -18 -19 -14 -6 -28 -14 -31 -20 -10 -15 21 -357 34 -382 11 -19
17 -20 83 -14 83 8 125 28 147 71 35 68 56 49 33 -31 -9 -33 -17 -61 -19 -63
-1 -2 -46 -8 -100 -13 -55 -6 -139 -14 -189 -19 -95 -9 -129 0 -82 21 24 11
27 18 27 61 0 27 -5 93 -10 146 -6 53 -13 121 -16 150 -5 50 -8 55 -40 68 -47
20 -43 32 14 39 26 4 52 8 57 10 23 8 104 4 110 -5z m1005 -8 c0 -10 -13 -25
-29 -35 -43 -25 -71 -107 -71 -208 0 -90 15 -136 54 -166 22 -18 24 -22 11
-33 -36 -30 -135 72 -154 159 -19 91 26 220 91 260 72 45 98 51 98 23z m193
-41 c15 -14 40 -50 54 -80 44 -89 32 -181 -34 -267 -28 -37 -106 -79 -130 -70
-21 8 -15 32 11 44 14 6 37 36 55 73 25 49 31 75 31 123 0 82 -16 133 -52 169
-37 37 -32 62 9 45 15 -6 41 -23 56 -37z m314 -4 c6 -7 21 -52 33 -102 46
-199 64 -265 72 -263 4 2 37 44 72 93 168 232 145 208 190 201 67 -11 116 -26
116 -36 0 -6 -13 -10 -29 -10 -16 0 -34 -7 -41 -15 -16 -19 -92 -364 -85 -386
3 -9 17 -21 31 -28 50 -22 13 -27 -76 -9 -51 10 -96 20 -101 23 -16 10 -10 25
10 25 30 0 46 23 60 86 7 33 22 99 33 147 11 48 19 90 17 92 -2 2 -54 -63
-114 -143 -127 -170 -141 -186 -148 -175 -7 12 -43 166 -62 263 -9 47 -19 92
-22 100 -6 17 -62 -219 -62 -268 -1 -25 5 -35 24 -44 14 -6 25 -15 25 -20 0
-10 9 -11 -83 7 -98 19 -108 24 -69 41 35 14 49 36 61 96 5 24 16 75 24 113 8
39 21 97 28 129 l12 59 -31 27 c-18 15 -30 29 -27 32 8 8 128 -22 142 -35z
m-1853 -39 c10 -51 2 -73 -17 -47 -7 9 -26 23 -43 32 -27 14 -40 15 -90 4 -33
-7 -65 -16 -71 -20 -16 -10 -16 -51 -1 -117 l12 -52 45 7 c77 11 111 30 117
65 10 46 30 36 42 -22 24 -117 24 -118 9 -118 -8 0 -20 7 -27 16 -26 31 -48
35 -110 23 -37 -7 -60 -17 -60 -25 0 -27 31 -159 40 -168 13 -13 136 13 173
38 18 12 37 37 43 56 6 19 19 36 28 38 14 3 15 -5 10 -60 -4 -35 -9 -66 -13
-70 -3 -3 -62 -18 -131 -33 -251 -53 -296 -56 -237 -13 35 25 35 35 -8 237
-37 170 -50 197 -87 185 -12 -3 -18 0 -18 10 0 9 10 18 23 20 385 79 359 78
371 14z m-462 -66 c-17 -17 -21 -39 -26 -153 -13 -271 -18 -349 -25 -349 -3 0
-28 28 -56 63 -82 103 -130 157 -137 157 -5 0 -8 -35 -8 -77 0 -125 -11 -214
-26 -211 -7 2 -76 87 -154 191 -127 168 -144 187 -171 187 -49 0 -33 14 49 43
88 31 102 33 102 12 0 -8 -7 -15 -15 -15 -8 0 -15 -6 -15 -14 0 -12 171 -229
175 -223 1 1 5 43 9 94 l7 92 -37 41 c-26 29 -44 40 -65 40 -51 0 -31 15 59
44 48 16 93 31 100 33 6 3 12 -2 12 -12 0 -9 -9 -19 -19 -22 -11 -3 -22 -10
-24 -16 -4 -12 173 -240 180 -233 2 2 9 63 14 136 11 144 6 166 -38 157 -18
-3 -23 0 -21 11 3 18 129 64 142 52 4 -5 -1 -17 -12 -28z m3098 -92 c90 -32
167 -63 172 -68 9 -9 -20 -102 -33 -102 -4 0 -13 18 -19 40 -12 43 -28 55
-114 84 -36 12 -52 14 -62 6 -13 -11 -60 -139 -53 -144 2 -2 23 -10 47 -19 61
-24 107 -22 126 5 11 16 19 19 26 12 13 -13 -39 -176 -55 -171 -5 2 -13 19
-16 37 -4 19 -15 40 -25 47 -22 16 -114 47 -120 40 -12 -12 -63 -161 -57 -170
12 -20 115 -57 158 -57 32 0 51 7 74 26 31 26 70 27 54 1 -37 -58 -67 -97 -77
-97 -10 0 -216 71 -316 109 -51 20 -61 46 -18 46 16 1 32 5 36 10 18 21 122
324 122 354 0 10 -9 26 -20 36 -18 17 -19 35 -1 35 5 0 82 -27 171 -60z
m-1339 -334 c612 -62 852 -136 1134 -350 189 -144 396 -442 454 -657 22 -82
-25 -213 -97 -266 -76 -56 -84 -58 -304 -61 l-207 -4 -20 39 c-10 22 -23 71
-26 111 -8 81 -3 86 50 54 17 -10 43 -22 58 -26 18 -4 37 -22 54 -51 15 -24
36 -46 47 -49 21 -5 36 0 36 14 0 8 -64 97 -100 138 -11 13 -20 30 -20 38 0 9
-11 14 -34 14 -37 0 -46 12 -46 60 0 51 19 79 59 85 20 3 59 11 86 18 70 17
73 45 10 107 -26 26 -45 53 -45 66 0 27 -28 36 -51 17 -9 -7 -39 -14 -67 -14
-33 -1 -53 -6 -56 -15 -3 -8 -14 -14 -25 -14 -11 0 -22 -9 -26 -20 -3 -11 -15
-20 -26 -20 -10 0 -19 -6 -19 -13 0 -7 -10 -17 -22 -22 -15 -7 -22 -18 -21
-32 2 -18 -4 -22 -43 -25 -25 -2 -76 3 -112 10 -52 11 -78 11 -115 3 -70 -16
-86 -14 -119 14 -36 31 -43 31 -71 2 -12 -13 -30 -27 -40 -30 -11 -4 -21 -16
-24 -27 -3 -11 -13 -20 -23 -20 -10 0 -32 -3 -49 -6 -26 -6 -30 -4 -25 10 7
18 -33 77 -105 157 -44 49 -71 62 -71 34 0 -8 -8 -15 -17 -15 -9 0 -24 -7 -34
-16 -9 -8 -24 -16 -32 -18 -8 -1 -32 -16 -53 -34 -22 -18 -45 -37 -51 -43 -9
-6 -20 -6 -34 2 -16 8 -23 8 -29 -1 -6 -9 -34 -3 -111 23 -204 70 -432 191
-427 226 2 10 -4 16 -17 17 -32 1 -56 15 -65 40 -8 20 -14 23 -40 18 -55 -12
-49 53 12 118 26 28 27 32 13 48 -8 9 -15 24 -15 33 0 29 -38 19 -76 -18 -25
-26 -33 -41 -29 -55 4 -11 2 -20 -3 -20 -11 0 -52 -91 -52 -114 0 -9 -7 -16
-15 -16 -8 0 -18 -1 -22 -2 -4 -2 -8 17 -9 41 -1 24 -6 47 -11 52 -5 5 -156 8
-349 7 l-339 -3 -5 -51 c-7 -71 -91 -204 -226 -357 -55 -61 -78 -131 -71 -205
8 -77 52 -158 107 -200 78 -60 71 -65 -78 -60 -118 4 -133 7 -176 32 -59 34
-119 110 -136 171 -20 70 -3 149 59 280 74 156 151 265 271 386 123 124 290
240 420 292 88 36 277 96 320 103 14 2 59 11 100 19 71 13 172 27 455 60 148
17 571 12 786 -9z m-1542 -495 c8 -5 11 -16 8 -25 -5 -13 -25 -16 -116 -16
-60 0 -116 3 -125 6 -19 7 -21 30 -3 37 21 9 221 7 236 -2z m350 0 c8 -5 11
-16 8 -25 -6 -14 -23 -16 -129 -14 -105 3 -123 5 -126 20 -2 9 5 18 15 21 33
9 218 7 232 -2z m-481 -172 l3 -66 -41 -7 c-23 -3 -45 -4 -51 -1 -11 7 -12
128 -2 139 4 4 25 6 48 4 l40 -3 3 -66z m250 -7 l3 -73 -63 3 -63 3 -3 59 c-4
85 -2 88 65 84 l58 -3 3 -73z m200 72 c20 -4 22 -10 22 -75 0 -82 -8 -102 -51
-119 -26 -11 -32 -11 -40 1 -10 16 -12 182 -3 192 7 6 39 7 72 1z m460 -81
c84 -54 219 -123 282 -144 30 -10 73 -25 95 -34 33 -14 36 -18 22 -26 -11 -7
-37 -6 -75 1 -45 9 -75 8 -141 -3 -87 -16 -127 -37 -148 -78 -7 -13 -26 -36
-43 -50 -20 -17 -28 -29 -21 -34 8 -4 3 -13 -11 -25 -29 -23 -35 -19 -48 31
-16 58 -76 115 -145 134 -30 9 -53 20 -50 25 4 7 172 110 241 148 30 17 31 32
2 32 -38 0 -52 14 -39 39 7 11 14 21 17 21 3 0 31 -17 62 -37z m831 -264 c80
-14 105 -25 97 -46 -10 -24 3 -34 27 -21 12 6 49 13 82 15 33 1 62 8 63 13 4
12 42 13 59 2 7 -5 10 -22 6 -49 l-5 -41 -79 -6 c-43 -4 -129 -7 -191 -6 -62
1 -123 -1 -135 -4 -13 -3 -32 3 -45 14 -22 18 -23 19 -5 48 9 17 17 41 17 54
0 43 7 44 109 27z m-1066 -19 c4 -4 0 -24 -10 -44 -23 -50 -59 -47 -88 7 -17
33 -18 39 -5 47 16 11 89 4 103 -10z m-979 -15 c11 -8 17 -18 13 -21 -10 -10
-100 10 -105 24 -5 17 68 15 92 -3z m740 -32 c-4 -16 -10 -32 -14 -36 -3 -4
-69 -6 -146 -5 -123 3 -139 5 -142 21 -3 15 7 17 105 18 65 0 122 6 143 14 54
21 61 19 54 -12z m106 7 c15 -27 5 -40 -31 -40 -33 0 -37 15 -12 42 21 23 30
23 43 -2z m203 2 c9 -10 23 -34 32 -55 l15 -37 -25 0 c-31 0 -85 26 -85 41 0
16 30 69 39 69 4 0 15 -8 24 -18z m-1064 -37 c19 -6 38 -21 42 -33 7 -19 0
-28 -44 -63 l-52 -41 -17 38 c-10 22 -18 58 -18 82 0 41 1 42 28 36 15 -4 42
-12 61 -19z m355 10 c4 -12 -3 -15 -34 -15 -43 0 -55 16 -17 23 40 8 45 7 51
-8z m983 -52 c-16 -17 -37 -10 -37 12 0 8 8 18 17 24 25 14 41 -15 20 -36z
m-602 -53 c11 -59 45 -117 88 -150 15 -12 27 -28 27 -36 0 -12 -47 -14 -305
-14 -286 0 -305 1 -305 18 0 10 13 25 29 35 15 9 45 36 64 59 20 24 46 52 57
64 11 12 20 24 20 27 0 3 10 17 23 31 22 26 23 26 156 24 l134 -3 12 -55z
m-402 20 c13 -12 -2 -50 -19 -50 -19 0 -84 49 -84 62 0 12 90 1 103 -12z
m2440 3 c38 -3 70 -11 71 -17 2 -6 12 -40 23 -76 12 -36 24 -80 27 -97 l6 -33
-196 0 c-124 0 -193 4 -189 10 3 5 -1 20 -9 32 -8 13 -17 38 -21 56 -6 30 -3
36 41 75 26 23 57 45 68 49 29 8 98 9 179 1z m-2679 -19 c13 -5 16 -22 16 -76
l0 -70 -32 7 c-34 7 -108 52 -108 66 0 11 83 79 97 79 6 0 18 -3 27 -6z m156
-34 l45 -39 -30 -25 c-32 -27 -99 -51 -115 -41 -6 3 -10 33 -10 65 0 46 4 61
18 69 29 17 45 12 92 -29z m622 16 c12 -17 10 -28 -12 -64 -17 -27 -24 -31
-35 -22 -19 16 -55 92 -49 102 8 12 87 -1 96 -16z m228 10 c0 -29 -23 -76 -44
-90 -23 -14 -24 -13 -41 23 -24 54 -9 81 45 81 27 0 40 -4 40 -14z m649 5 c10
-6 15 -38 18 -105 l5 -96 -235 0 -235 0 -7 39 c-4 22 -3 46 2 54 14 24 80 94
100 106 22 13 332 15 352 2z m581 -4 c0 -25 -54 -84 -92 -101 -39 -16 -55 -56
-23 -56 24 0 77 30 110 62 28 28 84 63 89 56 12 -19 26 -64 26 -83 0 -13 5
-27 10 -30 6 -3 10 -15 10 -26 0 -18 -10 -19 -319 -19 l-319 0 -7 29 c-8 38
-4 132 7 154 12 23 41 22 63 -3 10 -11 27 -22 39 -26 11 -4 39 -21 61 -38 70
-57 101 -71 119 -57 20 17 21 31 2 31 -20 0 -116 78 -116 94 0 20 4 21 180 24
130 2 160 0 160 -11z m-1157 -28 c-5 -27 -4 -31 13 -26 10 3 31 9 47 13 17 4
27 13 27 25 0 13 7 19 21 19 11 0 19 -3 17 -7 -27 -57 -33 -63 -65 -69 -52
-10 -60 -45 -11 -48 13 0 22 -3 20 -6 -1 -3 2 -20 7 -37 l10 -33 -115 0 c-65
0 -114 4 -114 10 0 5 22 31 49 58 33 33 53 64 61 91 13 50 43 59 33 10z m-199
-41 c8 -13 17 -33 21 -45 6 -22 4 -23 -54 -23 -68 0 -73 6 -41 58 23 38 53 42
74 10z"/>
</g>
</svg>
