<?xml version="1.0" standalone="no"?>
<!DOCTYPE svg PUBLIC "-//W3C//DTD SVG 20010904//EN"
 "http://www.w3.org/TR/2001/REC-SVG-20010904/DTD/svg10.dtd">
<svg version="1.0" xmlns="http://www.w3.org/2000/svg"
 width="580.000000pt" height="400.000000pt" viewBox="0 0 580.000000 400.000000"
 preserveAspectRatio="xMidYMid meet">
<metadata>
Created by potrace 1.16, written by Peter Selinger 2001-2019
</metadata>
<g transform="translate(0.000000,400.000000) scale(0.100000,-0.100000)"
fill="#000000" stroke="none">
<path d="M2380 3153 c-24 -2 -49 -8 -55 -13 -5 -4 -48 -11 -95 -15 -47 -4 -89
-11 -95 -15 -5 -4 -43 -11 -84 -14 -40 -4 -81 -11 -90 -16 -33 -16 -91 -31
-100 -25 -5 3 -12 1 -16 -5 -3 -5 -19 -10 -35 -10 -16 0 -31 -4 -35 -9 -3 -5
-30 -13 -60 -16 -31 -4 -57 -11 -60 -15 -3 -5 -32 -11 -65 -15 -33 -4 -60 -11
-60 -15 0 -5 -14 -12 -32 -15 -18 -4 -39 -11 -48 -16 -42 -22 -85 -39 -99 -39
-9 0 -25 -7 -35 -15 -11 -8 -30 -15 -43 -15 -13 0 -23 -4 -23 -9 0 -5 -14 -12
-31 -16 -17 -4 -42 -13 -57 -21 -15 -8 -32 -14 -38 -14 -10 0 -42 -16 -119
-58 -103 -56 -330 -160 -337 -155 -17 10 -2 134 21 177 11 22 18 42 16 45 -10
10 -61 -36 -79 -73 -14 -30 -21 -35 -32 -25 -8 6 -14 17 -14 24 0 6 -9 20 -20
30 -18 16 -20 16 -20 2 0 -10 -4 -17 -10 -17 -5 0 -10 -11 -10 -25 0 -29 -15
-32 -56 -10 -16 8 -49 15 -74 15 -43 0 -99 15 -128 34 -17 10 -62 -12 -62 -31
0 -7 -4 -13 -10 -13 -13 0 -13 -33 0 -46 6 -6 12 -43 15 -84 2 -41 9 -76 16
-80 6 -4 12 -25 13 -46 1 -35 -2 -39 -32 -47 l-33 -10 32 -33 32 -33 -24 -11
c-22 -10 -92 -91 -85 -97 2 -2 29 10 62 27 87 44 174 41 180 -5 3 -24 17 -55
25 -55 5 0 22 -27 39 -61 54 -110 33 -235 -54 -319 l-36 -34 39 -41 c34 -34
62 -80 65 -107 1 -3 4 -10 8 -14 5 -4 8 -36 8 -71 0 -51 -6 -74 -32 -123 -17
-33 -35 -60 -40 -60 -4 0 -8 -6 -8 -14 0 -7 -7 -19 -15 -26 -9 -7 -13 -21 -10
-31 6 -17 0 -19 -52 -19 -44 0 -72 7 -117 30 -33 17 -61 28 -63 26 -6 -6 68
-81 92 -94 19 -10 19 -12 -14 -46 l-34 -35 37 -6 c31 -6 36 -11 36 -34 0 -15
-7 -37 -16 -49 -9 -14 -17 -51 -20 -94 -2 -39 -8 -76 -14 -82 -16 -16 -12 -76
5 -76 8 0 15 -7 15 -16 0 -14 2 -14 22 0 12 9 34 16 48 16 14 0 31 5 37 11 8
8 13 8 17 0 9 -14 46 -14 46 -1 0 6 12 10 28 10 15 0 40 7 57 16 27 14 30 14
42 -2 7 -10 13 -28 13 -41 0 -13 4 -23 9 -23 5 0 12 -8 14 -18 4 -13 5 -12 6
5 0 12 13 34 28 48 31 28 43 31 43 12 0 -16 58 -72 83 -80 9 -4 17 -2 17 3 0
6 -4 10 -9 10 -5 0 -12 12 -16 27 -3 15 -12 31 -18 35 -6 4 -13 40 -15 82 -4
65 -2 76 12 76 10 0 16 -9 16 -24 0 -14 4 -28 10 -31 5 -3 10 -14 10 -24 0
-10 10 -38 23 -62 18 -34 37 -52 88 -79 l64 -35 2048 0 c1447 0 2050 3 2055
11 4 6 14 14 22 18 59 28 87 54 96 90 3 14 10 26 14 26 4 0 11 12 14 28 11 42
30 82 40 82 16 0 0 -175 -18 -201 -32 -46 -15 -41 36 10 29 28 56 51 59 51 4
0 19 -14 33 -31 l26 -31 0 31 c0 17 5 31 10 31 6 0 10 7 10 16 0 11 6 14 23 8
12 -3 24 -11 25 -15 2 -5 21 -12 43 -15 21 -4 39 -10 39 -15 0 -14 38 -11 43
4 4 12 11 10 77 -23 8 -4 29 -2 46 3 42 13 51 45 25 93 -13 23 -18 47 -14 64
3 15 0 31 -6 34 -6 4 -11 20 -11 36 0 16 -5 41 -10 56 -13 33 -1 49 41 58 24
4 28 9 21 22 -5 8 -19 21 -32 27 -36 18 -33 30 13 53 23 12 44 30 46 40 2 11
8 22 14 26 6 4 8 10 4 14 -4 4 -15 1 -24 -7 -39 -31 -71 -42 -133 -47 -53 -3
-68 -1 -80 13 -11 13 -11 18 -1 24 8 6 1 18 -24 43 -27 26 -38 46 -42 77 -3
22 -10 41 -14 41 -12 0 -11 157 1 165 6 3 10 15 10 26 0 11 20 41 44 67 l44
47 -44 47 c-28 30 -44 56 -44 72 0 14 -4 26 -10 26 -6 0 -10 33 -10 80 0 44 4
80 9 80 4 0 11 19 14 41 4 31 16 52 47 84 26 27 37 44 29 47 -8 3 -9 9 -4 17
13 22 131 8 188 -22 51 -28 53 -27 35 6 -24 41 -40 56 -70 62 -32 7 -33 22 -3
39 35 20 45 39 27 52 -9 7 -20 10 -25 7 -5 -3 -17 3 -27 12 -17 16 -18 20 -5
38 8 12 15 36 15 54 0 17 5 35 11 39 6 3 9 18 6 33 -3 15 3 44 14 68 22 47 18
65 -18 88 -26 17 -29 17 -94 -15 -8 -4 -41 -8 -73 -9 -32 0 -71 -7 -88 -16
-29 -14 -33 -14 -50 2 -12 11 -18 26 -15 41 6 31 -7 24 -35 -18 -22 -32 -42
-42 -44 -22 -4 31 -49 90 -61 78 -3 -3 -12 -1 -20 5 -18 16 -16 -2 3 -30 18
-25 34 -197 18 -190 -5 2 -88 43 -185 92 -97 48 -181 87 -187 87 -7 0 -12 3
-12 8 0 8 -43 28 -82 38 -16 3 -28 10 -28 15 0 5 -10 9 -23 9 -13 0 -32 7 -43
15 -10 8 -25 15 -32 15 -13 0 -68 22 -104 41 -10 5 -23 9 -29 9 -10 0 -48 15
-114 45 -16 8 -52 17 -80 21 -27 4 -54 10 -60 14 -5 5 -32 11 -60 15 -27 4
-54 11 -60 15 -5 4 -34 11 -62 15 -29 4 -55 11 -59 16 -3 5 -18 9 -34 9 -16 0
-32 5 -36 11 -3 6 -20 9 -36 7 -16 -3 -31 -1 -34 4 -3 4 -25 8 -49 8 -24 0
-46 4 -49 9 -3 5 -45 12 -93 16 -49 4 -91 12 -95 19 -5 8 -156 11 -555 12
-301 1 -568 -1 -593 -3z m734 -611 c3 -5 78 -11 166 -15 88 -3 166 -10 173
-15 7 -6 51 -13 100 -17 48 -4 87 -11 87 -15 0 -4 33 -10 72 -14 40 -4 77 -11
82 -16 6 -6 22 -10 37 -10 15 0 30 -4 33 -9 4 -5 30 -12 59 -16 28 -4 57 -11
62 -15 6 -4 31 -11 58 -14 26 -4 59 -14 75 -22 15 -7 32 -14 38 -14 7 0 25 -7
40 -15 16 -8 37 -15 47 -15 9 0 17 -4 17 -10 0 -5 9 -10 19 -10 11 0 32 -6 48
-14 15 -8 43 -20 61 -27 29 -10 46 -39 22 -39 -5 0 -10 -11 -10 -25 0 -17 -6
-25 -17 -25 -17 -1 -17 -1 0 -11 22 -13 22 -29 -1 -29 -9 0 -22 -10 -27 -22
-6 -13 -20 -27 -32 -33 -27 -11 -29 -21 -7 -29 22 -8 8 -25 -16 -19 -11 3 -20
0 -20 -6 0 -6 5 -11 12 -11 9 0 9 -3 0 -12 -19 -19 -14 -28 13 -28 14 0 25 -4
25 -8 0 -16 -25 -32 -51 -32 -15 0 -31 -6 -37 -13 -8 -10 -4 -16 19 -26 39
-17 37 -29 -8 -37 -30 -6 -34 -9 -21 -18 8 -6 13 -17 11 -23 -3 -7 0 -13 6
-13 6 0 8 -6 5 -14 -3 -8 3 -16 15 -19 34 -8 24 -27 -14 -27 -24 0 -35 -5 -35
-15 0 -8 -4 -15 -10 -15 -5 0 -10 -7 -10 -15 0 -10 10 -15 26 -15 22 0 25 -2
14 -15 -7 -8 -19 -15 -26 -15 -8 0 -14 -6 -14 -12 -1 -8 -6 -6 -14 5 -7 9 -22
17 -32 18 -10 0 -32 8 -49 18 -29 17 -30 20 -33 106 -3 93 -16 125 -52 125 -9
0 -21 5 -28 12 -8 8 -66 14 -180 16 -92 2 -171 8 -177 13 -5 5 -18 9 -30 9
-11 0 -33 7 -49 15 -32 17 -112 20 -121 5 -3 -5 -16 -10 -29 -10 -12 0 -35
-13 -51 -30 -16 -16 -34 -30 -40 -30 -6 0 -24 -13 -39 -29 -32 -33 -143 -91
-175 -91 -13 0 -21 6 -21 17 0 14 -2 14 -20 -2 -11 -10 -20 -26 -20 -36 0 -25
-14 -31 -44 -18 -24 12 -37 39 -17 39 5 0 11 8 14 19 4 18 31 37 90 63 15 7
27 16 27 20 0 4 7 8 15 8 8 0 15 4 15 10 0 5 7 7 15 4 8 -4 15 -1 15 5 0 6 12
11 26 11 22 0 25 2 14 15 -13 16 -40 20 -40 6 0 -4 -20 -11 -44 -13 -44 -5
-82 -29 -68 -43 4 -4 -2 -5 -13 -3 -16 3 -19 10 -17 38 2 19 8 40 14 47 5 7 7
16 4 22 -4 5 4 13 16 17 26 8 48 28 48 43 0 14 -2 14 -36 -4 -16 -8 -24 -15
-19 -16 6 0 -3 -5 -20 -10 -26 -7 -33 -5 -52 19 -13 15 -27 32 -33 39 -5 7
-10 21 -10 33 0 11 -7 20 -15 20 -9 0 -15 -9 -15 -25 0 -14 4 -25 10 -25 5 0
12 -11 16 -25 3 -14 10 -25 15 -25 5 0 9 -4 9 -10 0 -5 -7 -10 -15 -10 -8 0
-15 -7 -15 -15 0 -8 -4 -15 -10 -15 -5 0 -10 15 -10 33 0 32 -14 57 -33 57 -5
0 -6 -13 -2 -29 5 -24 1 -34 -27 -60 -18 -17 -44 -31 -58 -31 -19 0 -21 3 -12
12 7 7 12 33 12 59 0 29 6 53 15 63 8 8 15 32 15 55 0 30 -4 41 -15 41 -8 0
-15 -6 -15 -14 0 -15 -17 -50 -40 -82 -19 -25 -52 -40 -43 -18 3 7 0 14 -5 14
-6 0 -12 27 -14 62 -2 50 -6 63 -20 66 -13 2 -18 -3 -18 -17 0 -12 3 -21 8
-21 4 0 6 -18 4 -40 -3 -24 3 -54 13 -76 19 -40 16 -144 -5 -169 -7 -8 -28
-15 -46 -15 -24 0 -34 -5 -34 -15 0 -8 9 -15 19 -15 11 0 23 -5 26 -11 4 -6
13 -8 20 -5 18 6 35 -14 35 -41 0 -27 -30 -32 -50 -8 -7 8 -19 15 -26 15 -21
0 -52 19 -111 68 -28 23 -56 42 -61 42 -5 0 -15 7 -22 15 -7 8 -25 15 -40 15
-16 0 -30 5 -32 12 -5 15 -132 15 -150 1 -7 -6 -73 -13 -147 -16 -74 -4 -139
-11 -145 -17 -5 -5 -22 -10 -36 -10 -26 0 -71 -40 -97 -87 -18 -31 -16 -79 3
-108 23 -35 15 -124 -14 -155 -24 -26 -52 -21 -52 10 0 13 -7 20 -19 20 -14 0
-18 5 -14 20 3 11 9 20 14 20 5 0 9 5 9 10 0 6 -11 10 -25 10 -16 0 -25 6 -25
15 0 8 7 15 15 15 10 0 15 10 15 31 0 26 -3 29 -20 24 -28 -9 -44 3 -29 21 8
10 8 14 0 14 -6 0 -11 7 -11 16 0 10 6 14 15 10 10 -4 15 1 15 14 0 11 7 20
15 20 32 0 13 19 -25 25 -38 6 -47 25 -12 25 11 0 18 9 18 26 2 25 0 26 -42
22 -49 -4 -55 4 -20 27 30 20 42 79 15 72 -10 -3 -23 1 -30 9 -9 11 -8 14 5
14 10 0 14 5 11 10 -3 6 -15 10 -26 10 -10 0 -19 7 -19 15 0 8 -10 25 -22 37
-20 20 -20 22 -3 35 18 12 18 13 -2 13 -27 0 -31 7 -37 57 -5 39 1 48 34 50 3
0 22 10 43 22 21 11 43 21 50 21 7 0 25 7 42 16 16 8 48 18 72 21 24 3 43 9
43 13 0 5 27 11 60 15 33 4 62 10 65 15 3 4 29 11 60 15 30 3 57 11 60 16 4 5
19 9 35 9 16 0 31 4 34 9 3 5 35 12 71 16 36 3 67 10 70 15 3 4 47 11 97 15
51 4 98 11 104 16 7 6 80 13 163 16 84 3 154 10 157 15 7 11 371 11 378 0z
m1574 -423 c116 -58 143 -82 108 -95 -8 -3 -12 -12 -9 -20 3 -8 -1 -14 -11
-14 -9 0 -16 -7 -16 -15 0 -8 -9 -20 -19 -27 -10 -6 -17 -18 -14 -25 3 -7 -2
-13 -11 -13 -9 0 -16 -7 -16 -16 0 -8 5 -12 10 -9 14 9 13 -8 -2 -23 -9 -9 -8
-12 5 -12 9 0 17 -4 17 -10 0 -5 -6 -10 -12 -10 -7 0 -26 -7 -42 -15 -20 -11
-33 -12 -40 -5 -5 5 -23 10 -39 10 -38 0 -26 16 19 25 33 6 35 7 18 20 -18 14
-18 14 0 15 15 0 16 3 6 15 -10 12 -10 15 4 15 9 0 16 5 16 10 0 6 -9 10 -20
10 -13 0 -20 7 -20 20 0 11 -5 20 -11 20 -6 0 -13 -9 -16 -20 -7 -27 -25 -25
-21 2 2 12 13 27 24 33 21 11 21 11 -4 23 -14 7 -34 12 -44 12 -10 0 -18 5
-18 10 0 6 9 10 20 10 14 0 18 5 13 17 -5 13 -2 15 14 11 16 -4 19 -2 16 12
-3 12 2 20 14 23 12 3 9 5 -9 6 -16 0 -28 6 -28 11 0 6 -6 10 -14 10 -22 0
-29 18 -14 34 7 9 15 15 18 16 3 0 60 -27 128 -61z m-1704 -151 c8 -13 8 -23
-2 -38 -6 -11 -12 -31 -12 -45 0 -13 -13 -39 -29 -57 -25 -28 -31 -30 -45 -19
-9 7 -16 20 -16 27 0 8 -4 14 -10 14 -5 0 -10 16 -10 35 0 29 5 38 28 48 33
14 52 32 52 47 0 17 31 8 44 -12z m-2044 -27 c0 -11 5 -23 11 -26 7 -5 5 -13
-6 -25 -15 -16 -15 -19 0 -34 9 -9 25 -16 36 -16 10 0 19 -4 19 -10 0 -16 -52
-11 -72 7 -17 15 -18 15 -18 0 0 -10 -8 -17 -17 -17 -15 0 -15 -1 2 -13 12
-10 14 -16 7 -21 -9 -5 -7 -14 4 -31 18 -28 12 -45 -17 -45 -27 0 -24 -14 12
-50 17 -17 29 -34 26 -37 -11 -10 -57 -12 -63 -2 -3 6 -11 5 -20 -2 -11 -9
-18 -9 -27 0 -15 15 -16 189 0 199 5 4 14 18 18 32 4 14 11 27 14 30 4 3 15
22 24 43 14 28 24 37 42 37 18 0 25 -5 25 -19z m3111 -418 c15 -15 30 -43 34
-60 4 -18 11 -33 16 -33 13 0 11 -52 -3 -83 l-13 -27 -357 0 c-227 0 -359 4
-363 10 -3 6 -2 10 4 10 5 0 12 14 16 30 4 17 10 30 15 30 5 0 11 13 15 28 3
16 19 43 36 62 34 37 49 69 49 106 0 24 1 24 99 24 56 0 103 -4 106 -10 3 -5
30 -10 60 -10 30 0 57 5 60 10 3 6 19 10 34 10 16 0 34 7 41 15 11 13 20 8 69
-34 31 -27 68 -62 82 -78z m-669 47 c-2 -16 -8 -30 -13 -30 -5 0 -9 -18 -9
-41 0 -25 -13 -67 -32 -109 l-33 -70 -179 0 c-163 0 -178 1 -172 17 6 15 4 15
-14 -2 -14 -13 -20 -14 -20 -5 0 11 -3 11 -12 2 -8 -8 -62 -12 -175 -12 l-163
0 -20 43 c-26 53 -42 167 -24 167 7 0 16 -5 19 -10 4 -6 11 -8 16 -4 5 3 23
-2 41 -10 17 -9 37 -16 45 -16 7 0 13 -8 13 -18 0 -24 19 -42 45 -42 28 0 45
19 45 51 0 30 34 79 56 79 8 0 17 7 20 15 7 16 34 21 34 6 0 -5 14 -12 30 -16
17 -4 30 -13 30 -21 0 -8 7 -14 15 -14 8 0 15 -4 15 -10 0 -5 -7 -10 -15 -10
-8 0 -15 -7 -15 -15 0 -9 9 -15 24 -15 13 0 27 -6 30 -12 3 -9 10 -7 23 8 10
11 24 19 31 16 6 -2 12 2 12 10 1 16 45 68 59 68 5 0 12 -13 16 -30 4 -16 10
-30 15 -30 4 0 10 -9 13 -20 3 -11 12 -23 21 -26 21 -8 59 25 52 43 -6 14 31
33 65 33 20 0 59 33 59 50 0 6 7 10 15 10 8 0 15 5 15 11 0 8 4 8 13 0 8 -6
12 -23 9 -41z m-1085 17 c6 -4 14 -25 18 -47 4 -22 11 -42 16 -46 5 -3 9 -26
9 -52 0 -26 7 -60 15 -76 8 -15 12 -32 9 -37 -8 -13 -444 -12 -444 2 0 6 -11
25 -25 43 -17 23 -25 46 -25 75 0 37 4 44 39 69 22 15 44 37 50 49 5 12 20 23
33 25 46 6 293 3 305 -5z m-597 -126 c22 -18 23 -21 10 -45 -11 -22 -11 -30 0
-51 21 -40 5 -46 -116 -43 l-109 3 0 45 0 45 43 3 c24 2 49 -2 57 -8 9 -8 15
-8 20 0 3 5 19 10 36 10 32 0 37 11 14 30 -38 32 4 42 45 11z m121 -39 c9 -20
19 -52 23 -70 l6 -33 -43 3 -42 3 -3 49 c-2 35 2 53 14 67 23 26 26 24 45 -19z
m2597 -45 l-3 -52 -66 -3 c-73 -3 -77 0 -84 73 l-3 30 79 2 80 3 -3 -53z m126
34 c4 -5 30 -12 59 -16 28 -4 58 -12 65 -18 10 -8 16 -7 21 2 4 7 33 15 64 18
53 5 57 4 57 -15 0 -24 -27 -42 -64 -42 -14 0 -28 -4 -31 -10 -3 -6 -50 -10
-106 -10 l-99 0 0 50 c0 37 4 50 14 50 8 0 17 -4 20 -9z m-3331 -28 c-6 -16 9
-17 24 -2 6 6 43 14 82 17 l71 5 0 -42 0 -41 -124 0 c-73 0 -127 4 -131 10 -3
6 -15 10 -26 10 -14 0 -19 7 -19 30 l0 30 64 -2 c47 -2 62 -6 59 -15z"/>
<path d="M2810 1555 c-17 -20 -5 -33 25 -27 30 5 32 13 6 29 -15 10 -22 9 -31
-2z"/>
</g>
</svg>
