<?xml version="1.0" standalone="no"?>
<!DOCTYPE svg PUBLIC "-//W3C//DTD SVG 20010904//EN"
 "http://www.w3.org/TR/2001/REC-SVG-20010904/DTD/svg10.dtd">
<svg version="1.0" xmlns="http://www.w3.org/2000/svg"
 width="580.000000pt" height="400.000000pt" viewBox="0 0 580.000000 400.000000"
 preserveAspectRatio="xMidYMid meet">
<metadata>
Created by potrace 1.16, written by Peter Selinger 2001-2019
</metadata>
<g transform="translate(0.000000,400.000000) scale(0.100000,-0.100000)"
fill="#000000" stroke="none">
<path d="M2520 3319 c-80 -4 -179 -15 -220 -24 -41 -9 -111 -20 -155 -26 -44
-5 -116 -19 -160 -30 -44 -11 -116 -30 -160 -40 -77 -20 -166 -46 -361 -108
-126 -41 -170 -46 -224 -26 -25 9 -56 27 -70 40 -94 90 -233 76 -280 -28 -29
-64 -25 -96 23 -179 39 -67 42 -79 42 -143 0 -52 -7 -89 -26 -140 -82 -214
-62 -398 66 -609 21 -36 22 -42 10 -67 -8 -15 -21 -33 -28 -41 -23 -23 -74
-150 -86 -214 -21 -116 -10 -235 35 -352 13 -34 27 -93 30 -131 7 -69 6 -70
-40 -152 -52 -93 -57 -128 -25 -192 36 -69 96 -103 157 -88 51 12 112 39 112
50 0 15 90 41 141 41 43 0 56 -6 129 -63 45 -34 96 -71 113 -82 32 -20 52 -20
1307 -23 1469 -3 1373 -8 1470 83 86 81 95 85 178 85 71 0 77 -2 141 -44 81
-53 129 -63 181 -36 45 23 100 104 100 147 0 18 -20 67 -50 119 -57 102 -61
133 -30 222 72 202 85 310 51 437 -25 93 -33 112 -82 192 -41 68 -41 68 -24
98 91 158 125 258 125 371 0 63 -29 184 -70 299 -31 85 -24 131 35 232 43 75
47 86 41 126 -10 62 -76 131 -135 141 -50 8 -113 -16 -166 -63 -22 -19 -54
-34 -89 -41 -59 -12 -73 -9 -241 45 -186 61 -405 117 -585 151 -47 8 -134 25
-195 36 -186 34 -620 46 -985 27z m425 -144 c28 -10 43 -11 52 -3 20 16 24 5
21 -53 -3 -49 -4 -52 -15 -29 -14 32 -51 66 -81 75 -36 11 -110 -21 -127 -56
-22 -41 -30 -139 -15 -183 17 -53 88 -100 141 -93 39 5 53 -5 23 -17 -31 -12
-86 -6 -134 15 -41 18 -53 30 -75 72 -56 113 -8 244 103 277 39 12 62 11 107
-5z m305 -19 c0 -7 -11 -21 -24 -30 -14 -8 -27 -25 -31 -36 -4 -11 -10 -18
-14 -16 -4 3 -8 -3 -9 -12 -1 -9 -4 -35 -8 -56 -9 -52 13 -140 42 -167 31 -29
21 -43 -17 -24 -81 42 -111 181 -56 263 15 23 44 53 65 66 43 29 52 31 52 12z
m-840 -23 c-10 -15 -9 -47 4 -144 9 -69 16 -130 16 -136 0 -22 32 -43 66 -43
61 0 36 -17 -34 -23 -38 -4 -84 -9 -103 -13 l-34 -6 24 20 c21 17 24 28 23 76
-2 95 -22 230 -38 253 -7 12 -14 24 -14 27 0 4 91 13 98 9 2 0 -2 -10 -8 -20z
m992 -7 c10 -11 18 -34 18 -51 0 -22 3 -26 10 -15 15 23 25 -15 24 -92 0 -79
-27 -127 -86 -154 -48 -21 -59 -12 -25 20 30 28 52 75 62 134 8 50 -18 137
-46 155 -10 6 -19 18 -19 25 0 19 41 5 62 -22z m226 3 c24 -8 34 -20 46 -57 9
-25 16 -54 16 -65 0 -10 12 -57 26 -104 l26 -84 46 64 c26 35 65 90 87 120 41
58 58 65 113 51 25 -7 30 -24 7 -24 -18 0 -38 -66 -75 -250 -10 -49 -9 -57 10
-82 l21 -29 -28 7 c-104 26 -118 32 -95 39 13 5 24 18 28 34 3 14 16 71 29
126 24 97 21 144 -6 94 -7 -13 -18 -28 -24 -34 -7 -5 -40 -49 -74 -97 -83
-116 -87 -119 -100 -71 -6 21 -11 49 -11 63 -1 14 -11 68 -24 120 -22 89 -25
93 -35 67 -6 -16 -11 -36 -11 -45 0 -10 -9 -50 -20 -90 -24 -87 -24 -86 -4
-107 25 -25 9 -29 -48 -12 -45 13 -49 17 -30 22 17 6 27 23 42 74 25 83 43
184 44 239 1 47 0 46 44 31z m-1454 -15 c3 -9 6 -24 6 -34 0 -17 -2 -17 -29
-4 -21 11 -44 13 -81 8 -62 -8 -84 -27 -76 -63 4 -14 9 -43 12 -63 6 -34 9
-37 33 -32 66 15 92 27 105 51 15 30 23 22 32 -37 l7 -42 -24 15 c-21 14 -30
14 -78 2 -30 -8 -55 -16 -57 -17 -1 -2 4 -34 12 -73 14 -68 28 -89 51 -80 32
11 87 17 78 7 -11 -11 -184 -56 -191 -49 -3 2 0 16 5 30 12 30 2 97 -31 232
-20 78 -26 90 -48 96 -18 4 -21 8 -10 12 15 6 125 29 215 45 28 5 53 10 56 11
4 0 10 -6 13 -15z m-378 -91 c-3 -16 -8 -106 -12 -200 -4 -95 -9 -173 -13
-173 -3 1 -37 41 -76 91 l-70 89 -7 -52 c-4 -29 -10 -83 -13 -121 -4 -37 -11
-65 -16 -62 -5 4 -40 47 -77 98 -74 99 -102 133 -144 179 -24 25 -25 30 -10
34 9 3 35 13 57 21 29 11 37 11 28 2 -19 -19 -16 -46 6 -66 48 -45 121 -148
122 -172 1 -14 7 21 15 78 l13 104 -32 33 c-17 19 -37 34 -44 34 -30 0 -10 17
37 31 46 14 49 14 47 -2 -1 -10 32 -61 73 -114 l75 -95 8 105 c11 131 6 159
-29 152 -32 -6 -22 5 19 20 46 17 49 16 43 -14z m2484 -75 c0 -4 -12 -8 -27
-10 -23 -2 -31 -12 -49 -60 l-22 -56 48 -21 c60 -26 75 -26 100 -1 10 10 21
16 23 12 5 -8 -35 -102 -44 -102 -3 0 -11 11 -16 23 -17 37 -123 78 -123 47 0
-5 -11 -34 -25 -64 -14 -30 -25 -59 -25 -65 0 -12 22 -25 81 -45 59 -21 75
-20 111 5 16 12 31 19 34 16 8 -7 -40 -76 -53 -77 -7 0 -38 11 -69 25 -31 14
-62 25 -69 25 -14 0 -97 35 -108 46 -4 4 2 13 13 21 10 7 28 42 39 76 11 34
32 96 46 137 14 41 23 85 20 97 l-5 22 60 -22 c33 -12 60 -25 60 -29z m-1015
-299 c110 -11 259 -31 330 -45 72 -13 143 -24 158 -24 41 0 253 -109 339 -174
69 -53 178 -172 178 -195 0 -6 4 -11 8 -11 13 0 87 -156 110 -230 11 -36 28
-116 37 -178 16 -106 16 -115 -1 -165 -21 -64 -58 -111 -110 -139 -41 -22
-197 -38 -294 -30 l-45 4 3 41 c4 58 3 76 -4 126 -4 25 -1 67 6 95 11 48 10
55 -19 129 -35 88 -37 104 -15 135 23 33 34 27 34 -19 0 -22 5 -50 11 -61 7
-12 15 -63 19 -113 6 -80 10 -96 33 -120 30 -33 46 -26 68 26 10 25 10 49 -1
127 -7 54 -14 156 -15 227 -1 72 -7 141 -13 155 -24 55 -97 117 -198 167 -51
26 -75 32 -155 35 -87 4 -94 6 -97 26 -5 33 -24 27 -63 -19 -31 -37 -37 -40
-69 -34 -62 11 -68 15 -89 60 -19 40 -25 45 -55 45 -41 0 -56 -18 -32 -36 17
-12 17 -14 0 -41 -10 -15 -19 -29 -20 -31 -1 -1 -26 6 -55 17 -164 60 -311 73
-449 41 -132 -31 -158 -34 -175 -20 -15 13 -39 4 -29 -11 3 -5 2 -9 -3 -8 -22
4 -23 -3 -5 -28 22 -32 36 -128 33 -225 -2 -60 0 -70 22 -90 29 -28 42 -86 26
-121 -14 -31 -102 -93 -145 -102 -30 -6 -34 -3 -67 52 -19 32 -44 77 -56 100
-16 32 -28 43 -53 48 -49 9 -78 26 -78 45 0 9 -11 27 -25 40 -20 18 -31 22
-62 17 -62 -10 -104 -75 -63 -97 11 -6 20 -18 20 -28 1 -18 45 -56 58 -48 4 2
5 -21 2 -52 -4 -47 -8 -57 -25 -60 -11 -1 -27 2 -35 8 -13 8 -12 13 4 41 20
34 10 33 -31 -4 -12 -10 -26 -16 -33 -12 -12 7 -70 -50 -70 -70 0 -6 9 -20 19
-29 10 -10 22 -33 25 -52 9 -47 24 -43 37 12 13 52 24 59 64 44 26 -10 27 -11
10 -30 -15 -16 -16 -33 -10 -138 l7 -120 -41 -20 c-60 -29 -91 -34 -142 -23
-24 5 -92 11 -151 13 l-108 3 0 123 0 122 50 0 50 0 0 45 0 45 -50 0 -50 0 0
60 0 60 -45 0 -45 0 0 -60 0 -60 -56 0 -55 0 3 -42 3 -43 53 -3 52 -3 0 -124
c0 -117 -1 -124 -21 -130 -27 -9 -84 2 -130 25 -47 24 -82 67 -105 125 -15 41
-16 58 -6 148 18 161 33 218 95 347 57 119 147 228 250 305 66 50 295 165 328
165 12 0 83 11 158 25 359 65 718 80 1066 44z m-351 -441 c67 -33 86 -58 101
-135 4 -18 20 -49 36 -69 16 -20 29 -45 29 -56 0 -10 7 -32 15 -49 12 -22 16
-65 17 -172 l1 -143 -38 -55 c-21 -29 -39 -56 -41 -58 -2 -2 -79 -4 -171 -4
l-167 -1 -11 41 c-5 23 -13 45 -17 49 -4 4 -3 13 2 20 15 17 -50 86 -70 74 -8
-5 -11 -12 -7 -16 10 -11 -41 -34 -75 -34 -16 0 -38 -5 -49 -10 -18 -10 -19
-7 -19 37 0 26 7 61 15 76 8 15 17 43 21 63 5 26 12 36 33 41 46 11 115 50
149 85 29 31 32 41 33 96 1 34 5 62 9 62 5 0 16 20 25 45 10 24 26 52 36 61
10 9 23 32 29 50 15 43 31 43 114 2z m809 -202 c9 -7 17 -16 17 -19 0 -3 11
-22 23 -41 30 -43 61 -194 52 -250 -5 -38 -19 -68 -84 -190 l-24 -44 -178 1
c-97 1 -181 5 -185 9 -11 12 -11 71 0 90 6 10 6 34 -2 70 -17 79 -27 308 -14
308 6 0 12 -17 14 -37 3 -37 4 -38 45 -41 45 -3 45 -3 55 63 3 17 11 20 49 20
31 1 68 12 119 37 85 42 88 42 113 24z m-474 -294 c6 -11 11 -50 11 -86 0 -55
-4 -72 -27 -105 -30 -43 -58 -57 -67 -34 -10 24 -7 44 9 59 9 10 15 34 15 67
0 28 5 100 12 161 l12 109 12 -75 c6 -41 17 -84 23 -96z m-923 -53 c4 -7 8
-44 10 -83 2 -39 6 -81 9 -93 5 -21 2 -23 -35 -23 -44 0 -48 4 -25 27 17 16
11 33 -11 33 -8 0 -13 4 -10 8 3 5 0 27 -6 50 -15 61 -5 92 32 92 16 0 32 -5
36 -11z m312 -163 l10 -23 -75 -2 c-68 -2 -75 0 -63 14 13 16 60 33 96 34 13
1 25 -8 32 -23z"/>
</g>
</svg>
