<?xml version="1.0" standalone="no"?>
<!DOCTYPE svg PUBLIC "-//W3C//DTD SVG 20010904//EN"
 "http://www.w3.org/TR/2001/REC-SVG-20010904/DTD/svg10.dtd">
<svg version="1.0" xmlns="http://www.w3.org/2000/svg"
 width="580.000000pt" height="400.000000pt" viewBox="0 0 580.000000 400.000000"
 preserveAspectRatio="xMidYMid meet">
<metadata>
Created by potrace 1.16, written by Peter Selinger 2001-2019
</metadata>
<g transform="translate(0.000000,400.000000) scale(0.100000,-0.100000)"
fill="#000000" stroke="none">
<path d="M2559 3883 c-10 -2 -46 -73 -94 -186 -42 -100 -85 -200 -95 -222 -9
-22 -41 -96 -70 -165 -28 -69 -67 -159 -86 -201 -19 -42 -34 -80 -34 -83 0 -4
-14 -37 -31 -74 -17 -36 -37 -82 -44 -102 -7 -19 -22 -55 -33 -80 -11 -25 -64
-148 -117 -275 -54 -126 -100 -234 -104 -240 -4 -5 -20 -41 -36 -80 -16 -38
-39 -92 -51 -120 -12 -27 -52 -120 -89 -205 -37 -85 -82 -188 -101 -228 -19
-40 -34 -77 -34 -82 0 -6 -5 -10 -11 -10 -7 0 -9 12 -5 33 18 90 16 122 -6
167 -22 43 -25 45 -67 45 -40 0 -47 -4 -63 -32 -27 -45 -33 -131 -14 -178 26
-60 23 -65 -39 -65 -49 0 -55 2 -55 21 0 19 -5 20 -70 17 -86 -4 -90 10 -15
60 27 18 60 49 73 68 l23 35 -21 33 c-24 40 -37 46 -95 46 -50 0 -75 -24 -75
-72 0 -35 25 -38 34 -3 13 50 88 57 100 9 9 -34 -8 -59 -59 -90 -58 -33 -85
-68 -85 -109 0 -18 -7 -46 -15 -61 -13 -25 -15 -118 -15 -646 l0 -617 24 -28
24 -28 1796 0 1795 0 23 23 23 23 3 619 c3 684 4 670 -59 692 -29 10 -37 26
-20 44 24 26 31 78 19 138 -19 98 -75 133 -133 83 -42 -36 -46 -150 -10 -240
7 -16 2 -18 -56 -15 l-64 3 -3 138 c-2 132 -10 159 -31 118 -6 -10 -22 -22
-36 -25 -36 -9 -32 -36 5 -36 l31 0 -3 -97 -3 -98 -275 -3 c-151 -1 -281 0
-288 3 -8 3 1 18 28 45 40 40 41 40 115 40 l75 0 -6 39 c-6 39 -5 40 27 48 27
8 35 15 41 44 4 19 5 45 2 58 -4 20 -9 22 -37 17 -93 -20 -125 -19 -156 3 -42
30 -40 51 14 171 25 55 45 102 45 105 0 2 13 32 29 67 41 89 57 126 79 183 11
28 34 80 50 115 17 36 58 130 92 210 35 80 91 212 126 293 35 82 64 152 64
156 0 13 -117 124 -146 139 -41 21 -130 42 -182 42 -26 0 -90 -10 -142 -21
-212 -46 -244 -47 -305 -16 -65 33 -93 63 -153 167 -91 157 -105 178 -146 204
-73 47 -127 58 -261 50 -145 -8 -264 10 -381 57 -44 17 -81 33 -83 35 -2 2 2
18 10 36 16 38 14 56 -8 81 -16 17 -24 19 -54 10z m139 -220 c47 -16 87 -34
90 -41 2 -7 -15 -56 -39 -108 l-43 -96 -39 6 c-61 10 -151 57 -155 81 -3 24
53 166 71 177 18 11 23 10 115 -19z m560 -69 c12 -8 22 -21 22 -28 0 -8 -18
-53 -40 -101 -40 -87 -40 -87 -73 -81 -17 3 -69 9 -113 12 l-81 7 44 103 c44
101 46 103 82 107 55 6 133 -3 159 -19z m-301 -214 c-1 -3 -21 -45 -45 -95
-24 -49 -51 -96 -60 -102 -10 -9 -53 -13 -125 -13 -83 0 -108 3 -104 13 3 6
24 56 47 109 l42 97 124 -2 c68 -1 123 -4 121 -7z m298 -87 c37 -41 33 -57
-12 -49 -21 3 -46 6 -55 6 -24 0 -23 25 2 50 26 26 34 25 65 -7z m237 10 c7
-9 37 -40 66 -70 28 -30 52 -61 52 -68 0 -8 -9 -32 -21 -55 l-21 -40 -60 60
c-33 33 -71 63 -84 66 -30 8 -30 13 1 74 26 52 45 61 67 33z m-987 -102 c42
-17 83 -27 91 -24 8 3 14 3 14 -1 0 -3 -22 -53 -49 -111 -40 -85 -54 -105 -71
-105 -29 0 -171 60 -176 75 -5 12 51 161 68 183 15 18 39 15 123 -17z m1620 9
c18 -20 17 -22 -26 -108 l-44 -87 -80 -1 c-44 0 -97 -6 -118 -13 -21 -7 -40
-11 -43 -8 -3 2 8 33 24 68 16 35 34 78 41 96 17 43 28 50 81 58 25 4 47 9 49
11 2 2 25 4 51 4 34 0 52 -5 65 -20z m-905 -16 c0 -4 -16 -29 -35 -55 -39 -55
-41 -65 -20 -95 9 -14 12 -34 8 -58 -3 -20 -7 -36 -9 -36 -24 0 -54 23 -54 43
0 38 -23 61 -53 53 -34 -8 -56 -42 -61 -93 -2 -22 -6 -46 -11 -52 -4 -8 1 -14
14 -18 28 -7 28 -50 -1 -80 l-22 -24 26 -22 c14 -12 38 -43 52 -68 14 -25 35
-54 46 -64 17 -15 20 -16 25 -3 4 9 5 26 4 39 -4 43 1 55 22 56 12 1 19 0 16
-3 -3 -3 -1 -20 4 -37 5 -18 11 -61 14 -96 l4 -63 -32 6 c-58 12 -155 64 -195
105 -55 57 -82 133 -82 232 0 69 4 88 31 141 43 86 114 150 186 171 90 26 123
31 123 21z m152 -35 c56 -29 126 -103 154 -165 19 -42 24 -69 24 -136 0 -74
-4 -91 -34 -154 -38 -79 -96 -131 -186 -165 -66 -25 -90 -25 -90 1 0 17 4 19
25 14 18 -4 37 1 65 20 22 14 46 26 55 26 10 0 14 8 11 30 -2 16 -1 32 2 35
15 15 7 56 -14 76 -12 12 -20 27 -18 34 3 7 -4 16 -16 20 -11 4 -20 12 -19 18
1 7 -1 19 -4 27 -38 87 -47 163 -23 177 18 11 28 45 16 63 -5 8 -23 14 -44 13
-20 -1 -36 3 -36 7 0 7 80 79 88 80 1 0 21 -9 44 -21z m-432 -5 c0 -3 -10 -20
-22 -36 -13 -17 -39 -63 -58 -102 -31 -61 -40 -71 -65 -74 -23 -3 -27 -1 -18
10 5 7 24 49 42 93 18 44 42 88 53 98 19 16 68 24 68 11z m1183 -189 c20 -8
40 -20 44 -27 4 -7 21 -20 36 -28 48 -24 50 -39 11 -131 -47 -111 -58 -118
-117 -71 -19 15 -54 34 -78 42 -24 7 -45 15 -47 16 -7 4 98 214 107 214 5 0
25 -7 44 -15z m-359 -51 c-55 -125 -72 -151 -105 -163 -47 -16 -62 -14 -54 7
3 9 6 54 6 98 l-1 82 78 15 c42 8 82 15 89 16 7 1 3 -20 -13 -55z m-1047 -79
c-21 -49 -44 -96 -51 -103 -23 -24 -92 -33 -160 -22 -35 6 -71 8 -79 4 -8 -3
-36 -50 -61 -105 -25 -55 -52 -102 -60 -105 -19 -7 -178 50 -190 69 -7 11 0
38 28 101 21 47 45 91 52 97 11 9 28 5 76 -16 75 -34 139 -43 155 -23 7 8 28
52 48 98 20 47 41 87 47 91 5 4 60 6 122 5 l111 -1 -38 -90z m1243 -69 c0 -2
-22 -51 -49 -108 l-48 -104 -99 -1 c-59 0 -109 -5 -123 -12 -30 -16 -36 -9
-17 21 8 12 24 48 36 78 30 76 52 102 96 116 36 11 204 19 204 10z m-1117 -81
c20 -8 38 -19 41 -24 3 -4 -10 -49 -30 -100 -39 -98 -58 -115 -106 -90 -12 7
-50 15 -83 18 -57 6 -60 7 -58 32 2 31 60 160 77 171 19 13 122 9 159 -7z
m749 -182 c-5 -10 -16 -34 -25 -53 -44 -102 -57 -127 -71 -139 -19 -16 -145
-41 -207 -41 -57 0 -69 -12 -109 -110 -17 -41 -36 -78 -43 -82 -38 -24 -91 19
-135 110 l-24 52 38 86 c42 94 53 107 68 78 6 -10 34 -43 63 -72 74 -76 86
-72 145 51 l48 97 72 1 c44 0 93 8 123 19 64 23 68 24 57 3z m341 6 c12 -7 24
-15 27 -19 3 -3 22 -19 42 -34 21 -15 40 -36 43 -46 3 -10 -11 -54 -34 -103
-35 -78 -41 -85 -63 -80 -12 3 -32 14 -43 23 -27 24 -100 60 -121 60 -16 0
-16 1 -1 18 10 10 17 23 17 29 0 14 50 136 62 151 13 15 43 16 71 1z m-1762
-25 c35 -14 75 -27 89 -30 14 -3 41 -10 60 -17 22 -7 105 -12 220 -12 252 -1
238 8 405 -242 97 -144 123 -171 184 -191 56 -19 119 -12 277 33 68 20 210 19
271 -1 61 -20 139 -71 152 -100 13 -30 -7 -48 -40 -35 -13 4 -84 12 -156 16
-97 5 -133 11 -133 20 0 17 -46 25 -141 25 -64 0 -79 -3 -79 -15 0 -19 -74
-21 -110 -2 -14 7 -54 24 -90 37 -36 13 -69 26 -75 30 -5 4 -32 15 -60 25 -27
10 -68 26 -90 35 -28 13 -90 21 -205 29 -276 18 -344 16 -452 -19 -51 -16
-111 -35 -133 -41 -22 -6 -61 -18 -87 -26 -63 -19 -102 -14 -106 13 -2 11 13
56 33 100 20 43 51 115 70 159 66 157 105 235 118 235 7 0 42 -12 78 -26z
m1589 -181 c0 -2 -8 -20 -19 -41 -10 -20 -26 -61 -36 -90 -23 -71 -40 -79
-150 -77 -49 1 -93 3 -97 4 -37 7 31 177 80 198 24 10 222 16 222 6z m-910
-286 c79 -30 81 -33 62 -68 -20 -34 -53 -40 -49 -8 3 32 -21 35 -33 5 -9 -25
-13 -26 -87 -26 -71 0 -79 2 -88 22 -6 12 -28 27 -50 35 -22 7 -47 23 -56 35
-9 11 -21 18 -28 14 -6 -4 -11 -1 -11 7 0 25 268 12 340 -16z m-1353 -314 c28
-68 -2 -163 -52 -163 -32 0 -45 27 -45 94 0 80 12 106 50 106 26 0 33 -6 47
-37z m3149 2 c18 -44 18 -86 -1 -130 -18 -45 -41 -54 -67 -27 -17 17 -21 33
-21 91 0 77 12 101 50 101 18 0 28 -9 39 -35z m-2883 -27 c2 -29 1 -63 -4 -75
-6 -16 -5 -23 4 -23 37 0 285 -21 298 -26 12 -3 16 1 15 13 -2 35 43 28 80
-12 19 -21 34 -41 34 -46 0 -5 -121 -9 -270 -9 -148 0 -270 2 -270 4 0 6 30
76 61 144 16 35 29 68 29 73 0 5 4 9 9 9 5 0 11 -24 14 -52z m707 -118 l0 -30
390 0 390 0 -6 26 -7 26 164 -7 c156 -7 165 -9 196 -34 18 -14 33 -29 33 -33
0 -5 -281 -8 -625 -8 -344 0 -625 2 -625 5 0 8 74 84 83 85 4 0 7 -13 7 -30z"/>
</g>
</svg>
