<?xml version="1.0" standalone="no"?>
<!DOCTYPE svg PUBLIC "-//W3C//DTD SVG 20010904//EN"
 "http://www.w3.org/TR/2001/REC-SVG-20010904/DTD/svg10.dtd">
<svg version="1.0" xmlns="http://www.w3.org/2000/svg"
 width="580.000000pt" height="400.000000pt" viewBox="0 0 580.000000 400.000000"
 preserveAspectRatio="xMidYMid meet">
<metadata>
Created by potrace 1.16, written by Peter Selinger 2001-2019
</metadata>
<g transform="translate(0.000000,400.000000) scale(0.100000,-0.100000)"
fill="#000000" stroke="none">
<path d="M2585 3600 c-33 -4 -87 -8 -120 -9 -133 -2 -600 -118 -750 -186 -27
-12 -61 -26 -75 -30 -14 -4 -41 -16 -60 -26 -19 -11 -39 -19 -45 -19 -12 0
-240 -115 -300 -151 -22 -13 -68 -43 -103 -66 -34 -24 -65 -43 -69 -43 -3 0
-21 -12 -40 -26 -22 -17 -40 -23 -53 -19 -20 6 -28 -9 -10 -20 16 -10 12 -25
-7 -25 -14 0 -13 -4 6 -24 27 -28 20 -52 -9 -36 -16 9 -21 6 -26 -14 -4 -17
-14 -26 -31 -28 l-25 -3 22 -28 c27 -34 14 -57 -31 -57 -29 0 -29 0 -14 -30
15 -28 20 -70 10 -70 -3 0 -17 7 -30 16 -23 15 -25 15 -25 0 0 -10 -9 -16 -24
-16 -33 0 -42 -16 -14 -24 18 -4 20 -8 10 -18 -22 -22 -13 -28 31 -22 33 5 47
2 66 -14 l25 -19 -36 -12 c-24 -8 -43 -9 -61 -2 -15 6 -33 8 -40 5 -8 -3 -24
-1 -38 4 -23 9 -24 8 -24 -32 0 -38 2 -42 21 -38 23 4 64 -38 64 -66 0 -11 7
-13 29 -9 19 4 33 1 41 -8 9 -11 5 -17 -18 -29 -26 -14 -35 -14 -64 -2 -21 9
-54 12 -91 9 -55 -5 -57 -7 -42 -23 12 -13 13 -20 5 -25 -17 -10 68 -57 91
-50 22 7 59 -14 53 -30 -3 -8 -28 -11 -74 -9 -39 1 -72 -2 -76 -7 -3 -5 -19
-9 -37 -9 l-31 0 22 -16 c15 -10 21 -22 17 -34 -4 -14 -2 -17 12 -14 11 3 26
-3 37 -14 17 -19 16 -21 -3 -34 -19 -13 -19 -16 -5 -36 10 -15 26 -22 48 -22
19 0 39 -6 45 -14 18 -21 -38 -50 -71 -37 -15 6 -31 5 -41 -1 -10 -5 -32 -6
-48 -3 -28 6 -30 5 -24 -14 3 -11 1 -29 -5 -41 -9 -18 -8 -20 15 -20 14 0 25
-4 25 -10 0 -5 17 -10 38 -10 37 0 83 -22 71 -34 -4 -4 -29 -9 -58 -13 -28 -3
-56 -12 -62 -19 -6 -8 -20 -14 -31 -14 -14 0 -18 -5 -14 -16 3 -9 6 -20 6 -26
0 -5 12 -7 28 -3 16 3 41 1 55 -4 24 -9 26 -13 15 -36 -9 -20 -18 -25 -50 -25
-32 0 -38 -3 -38 -20 0 -12 -9 -24 -22 -29 l-22 -8 22 -12 c13 -7 31 -9 42 -6
22 7 70 -4 70 -15 0 -5 -19 -15 -42 -23 -32 -10 -42 -19 -40 -32 2 -9 -4 -25
-13 -35 -15 -16 -15 -18 0 -24 15 -5 15 -8 1 -21 -8 -8 -22 -15 -30 -15 -22 0
-20 -8 7 -31 16 -14 38 -18 89 -19 37 0 70 -5 73 -10 6 -10 52 -3 70 10 6 5
21 9 35 9 14 0 34 1 45 1 11 1 38 -3 60 -7 l40 -8 3 -89 c3 -87 2 -90 -25
-112 -15 -13 -35 -23 -44 -24 -8 0 -35 -12 -60 -28 -24 -15 -57 -34 -72 -42
-27 -13 -75 -66 -124 -136 -31 -45 -63 -158 -63 -225 0 -35 10 -91 26 -141 25
-78 30 -86 109 -164 66 -64 97 -87 149 -108 l66 -26 1999 0 1999 0 70 34 c38
19 72 42 75 51 4 8 12 15 19 15 21 0 108 116 130 172 29 77 36 210 13 279 -29
88 -73 165 -120 208 -46 43 -145 97 -191 105 -46 9 -61 34 -67 111 -2 39 -2
76 0 83 8 21 51 33 72 21 13 -9 24 -8 46 3 26 14 33 14 82 -8 l53 -24 6 25 c3
14 10 25 14 25 5 0 6 9 3 20 -4 15 0 20 15 20 12 0 24 5 27 10 4 6 29 8 66 4
49 -5 58 -4 54 8 -4 9 3 19 17 25 l23 10 -22 7 c-14 4 -23 15 -23 27 0 11 -11
24 -25 31 -22 10 -23 13 -10 20 8 5 15 18 15 28 0 11 6 20 13 20 6 1 -3 7 -20
15 -36 15 -42 29 -17 43 13 7 7 11 -27 20 -24 6 -65 14 -91 17 -27 4 -48 12
-48 19 1 33 51 62 80 46 17 -9 20 -8 20 12 0 13 9 37 19 55 l20 32 -31 -11
c-28 -10 -33 -9 -46 10 -10 16 -19 19 -31 13 -10 -6 -28 -4 -49 5 -32 13 -32
14 -17 38 13 19 14 29 5 45 -10 19 -8 21 25 21 33 0 35 2 25 20 -10 18 -8 20
18 20 21 0 32 7 40 25 16 35 16 36 -13 29 -14 -3 -32 -1 -39 5 -9 8 -28 10
-50 5 -29 -5 -36 -3 -36 10 0 8 -11 23 -25 32 -38 25 -30 34 28 34 57 1 109
25 65 32 -15 2 -22 9 -20 21 2 12 -4 17 -19 17 -18 0 -19 2 -9 15 7 8 21 15
32 15 10 0 16 4 13 10 -3 5 5 15 19 22 33 14 33 28 1 28 -18 0 -25 5 -25 20 0
27 -16 25 -36 -5 -13 -20 -20 -23 -35 -15 -12 7 -33 7 -61 0 -60 -13 -66 -13
-78 10 -9 17 -7 22 15 30 14 5 25 15 25 21 0 7 10 9 25 7 18 -4 26 0 30 13 3
10 15 21 26 24 10 4 17 10 14 15 -3 4 2 10 10 14 24 9 17 23 -16 35 -24 8 -39
7 -66 -4 -46 -19 -47 -19 -29 6 8 12 12 28 9 35 -3 9 2 14 15 14 27 0 35 15
22 39 -8 16 -7 22 8 30 11 6 24 6 35 0 13 -8 17 -6 17 5 0 9 12 22 28 30 l27
15 -38 1 c-24 0 -40 5 -43 15 -4 9 -14 14 -23 11 -9 -2 -31 -8 -49 -11 -31 -6
-33 -5 -27 14 4 14 2 21 -7 21 -8 1 -6 6 6 15 11 8 21 28 23 45 2 27 -1 31
-27 37 -17 3 -30 12 -30 20 0 11 -4 11 -21 2 -33 -17 -44 9 -17 38 18 20 19
23 5 23 -22 0 -21 9 4 36 l20 22 -46 -9 c-44 -8 -80 0 -95 21 -3 4 -36 24 -75
45 -38 21 -79 45 -90 54 -24 19 -53 36 -120 69 -27 14 -63 34 -80 46 -16 11
-30 20 -30 18 0 -2 -34 12 -75 31 -126 58 -148 67 -162 67 -7 0 -26 7 -41 15
-15 8 -85 33 -155 56 -70 22 -160 52 -200 65 -40 13 -87 24 -106 24 -19 0 -78
9 -132 21 -55 11 -146 25 -204 30 -137 13 -538 19 -615 9z m199 -166 c23 -9
19 -51 -8 -87 -35 -46 -51 -135 -36 -198 7 -28 18 -53 25 -55 7 -3 19 -19 26
-36 14 -34 3 -48 -41 -48 -45 0 -53 12 -42 64 8 40 7 46 -7 46 -9 0 -25 -15
-35 -34 -20 -38 -47 -52 -116 -61 -71 -10 -79 1 -90 130 -5 61 -12 133 -16
161 -6 47 -5 52 15 59 11 3 21 15 21 25 0 16 11 19 88 25 48 3 96 7 107 9 38
6 93 6 109 0z m430 -30 c23 -23 20 -37 -17 -70 -72 -63 -93 -189 -45 -271 31
-51 19 -67 -45 -59 -66 9 -77 20 -49 46 24 23 27 35 12 45 -5 3 -10 2 -10 -4
0 -19 -88 -44 -135 -38 -62 9 -91 31 -111 83 -43 112 22 254 115 254 66 0 104
-29 125 -92 3 -10 12 -18 21 -18 13 0 14 9 9 55 -5 38 -3 59 6 70 17 21 103
20 124 -1z m-914 -28 c0 -7 13 -16 29 -19 16 -3 32 -14 35 -24 7 -18 29 -230
30 -292 1 -23 -5 -37 -19 -45 -10 -6 -25 -17 -33 -23 -7 -7 -24 -13 -38 -13
-22 0 -24 3 -24 55 0 30 -4 55 -10 55 -5 0 -20 -21 -33 -47 -22 -45 -28 -49
-96 -72 -49 -17 -75 -21 -82 -14 -7 7 -39 129 -39 150 0 5 77 23 98 23 12 0
31 -9 42 -20 21 -21 40 -20 36 3 -8 49 -41 127 -53 127 -10 0 -13 -6 -9 -16
11 -29 -20 -61 -70 -73 -57 -15 -69 -5 -80 65 -9 60 -3 69 54 88 53 18 74 14
109 -17 28 -25 37 -18 23 17 -22 58 -7 79 65 97 48 11 65 10 65 -5z m1286 -26
c8 0 14 -7 14 -15 0 -8 9 -19 21 -26 28 -14 23 -54 -25 -183 -47 -130 -66
-161 -97 -162 -13 0 -30 -3 -37 -7 -6 -5 -21 -3 -32 3 -20 11 -19 13 25 58 78
79 88 149 39 277 -14 36 -14 40 3 53 10 8 30 11 47 8 16 -3 35 -6 42 -6z
m-183 -20 c66 -52 54 -236 -19 -301 -47 -41 -118 -30 -156 24 -34 47 -31 153
5 224 15 29 35 56 44 62 31 18 98 13 126 -9z m462 -70 c87 -29 109 -47 96 -81
-14 -36 -179 -195 -190 -184 -8 9 -31 192 -31 246 0 22 29 52 44 46 6 -2 43
-15 81 -27z m-2035 -9 c0 -6 15 -11 32 -13 25 -2 34 -9 39 -28 4 -14 18 -63
32 -110 49 -168 52 -185 26 -219 -23 -32 -130 -84 -153 -75 -14 6 -25 60 -31
154 -2 27 -9 90 -15 139 -11 79 -11 94 2 109 9 9 13 22 11 29 -4 10 5 14 50
22 4 0 7 -3 7 -8z m-166 -92 c8 12 46 15 46 4 0 -5 7 -48 14 -96 15 -90 13
-117 -8 -117 -12 0 -159 124 -164 139 -2 5 6 15 18 21 14 8 19 17 15 30 -4 14
2 23 22 34 26 13 29 13 39 -6 7 -14 14 -17 18 -9z m2523 -29 c31 -14 41 -23
37 -35 -4 -9 1 -24 11 -35 21 -23 24 -15 -73 -175 l-79 -130 -47 -2 c-41 -1
-48 2 -56 21 -5 13 -16 26 -24 29 -21 8 -20 33 4 82 11 22 19 45 20 51 0 12
55 157 69 184 7 13 39 23 86 28 6 1 29 -7 52 -18z m-505 -46 c10 -59 9 -194
-2 -194 -5 0 -28 9 -50 21 -27 14 -40 28 -40 41 0 19 43 149 56 170 12 19 29
0 36 -38z m-2256 -28 c4 -12 11 -12 29 -4 20 9 28 6 53 -18 25 -24 31 -40 36
-89 11 -100 -2 -102 -91 -13 -63 63 -74 79 -65 91 7 8 10 22 6 31 -4 11 -1 16
10 16 9 0 19 -6 22 -14z m2500 -28 c-4 -13 -14 -50 -22 -83 -24 -90 -28 -95
-77 -95 -52 0 -87 9 -87 22 0 21 153 178 172 178 16 0 19 -5 14 -22z m456 -63
c45 -25 68 -58 68 -98 0 -19 4 -17 39 17 47 46 60 44 121 -19 37 -37 41 -46
30 -60 -7 -8 -25 -15 -41 -15 l-28 0 15 -36 c21 -50 13 -70 -21 -48 -22 15
-25 15 -25 1 0 -11 -13 -19 -36 -23 -36 -7 -36 -7 -14 -19 15 -8 19 -15 11
-19 -24 -15 -10 -26 27 -20 27 4 49 1 73 -11 l34 -18 -40 -14 c-22 -7 -46 -11
-55 -7 -8 4 -36 8 -62 9 -44 3 -48 1 -48 -20 0 -13 -7 -25 -15 -29 -8 -3 -15
-12 -15 -21 0 -12 -9 -10 -40 11 -22 15 -40 32 -40 40 0 7 17 26 38 44 29 24
34 32 23 40 -10 5 -25 3 -44 -7 -41 -21 -91 -9 -149 34 -53 39 -53 34 3 118
33 48 39 51 72 34 42 -22 67 -52 67 -81 0 -38 24 -36 40 2 7 17 15 30 19 30 9
0 30 57 24 64 -3 3 -16 -2 -29 -10 -21 -15 -27 -14 -79 10 -30 13 -55 31 -55
39 0 15 68 107 80 107 4 0 28 -11 52 -25z m-3022 -48 c51 -48 90 -85 190 -181
25 -24 37 -43 32 -48 -15 -15 -100 -72 -201 -134 -85 -53 -94 -57 -106 -41 -7
9 -20 17 -29 17 -13 0 -15 4 -6 19 15 29 13 34 -15 27 -14 -4 -25 -2 -25 3 0
6 -12 6 -32 0 -46 -13 -47 -12 -35 20 9 25 8 33 -6 49 -16 18 -16 20 3 37 15
13 24 15 31 8 16 -16 46 17 41 44 -3 18 -10 21 -46 20 -37 -2 -41 0 -39 21 2
12 -3 22 -10 22 -6 0 -1 9 13 20 14 11 21 20 16 20 -6 0 -1 6 9 14 19 13 18
15 -15 28 l-35 14 50 29 c28 16 56 35 64 43 27 26 91 5 151 -51z m336 -61 c39
-38 63 -69 59 -76 -10 -17 -117 -61 -133 -55 -7 2 -11 9 -8 13 3 5 0 41 -5 81
-11 75 -8 101 11 101 5 0 40 -29 76 -64z m1569 8 c50 -8 133 -26 185 -40 52
-13 121 -31 152 -39 31 -8 78 -24 105 -36 26 -11 59 -23 72 -25 13 -3 43 -13
65 -23 23 -10 51 -22 64 -25 12 -4 58 -27 102 -51 43 -25 94 -51 112 -60 37
-17 163 -101 254 -169 23 -17 23 -19 8 -31 -15 -11 -14 -13 13 -23 41 -14 78
-53 61 -64 -7 -4 -27 -5 -44 -2 -18 3 -35 1 -38 -5 -4 -6 -22 -11 -39 -11 -28
-1 -29 -2 -14 -11 13 -8 17 -18 13 -35 -6 -22 -4 -24 17 -19 15 4 29 0 41 -13
17 -19 16 -21 -5 -36 -22 -15 -22 -16 -4 -36 11 -12 31 -20 50 -20 18 0 38 -6
44 -14 19 -22 -38 -50 -74 -36 -18 7 -33 7 -45 0 -12 -7 -27 -7 -45 0 -36 14
-36 13 -25 -16 7 -17 7 -32 0 -45 -9 -16 -7 -19 8 -19 10 0 24 -6 30 -12 7 -7
27 -11 45 -10 31 3 78 -20 66 -32 -4 -4 -29 -9 -58 -13 -28 -3 -56 -12 -62
-19 -6 -8 -20 -14 -31 -14 -14 0 -19 -6 -16 -22 2 -19 9 -23 43 -24 22 0 48
-5 58 -10 16 -9 16 -11 -3 -32 -13 -13 -33 -22 -51 -22 -22 0 -32 -6 -39 -25
-5 -14 -15 -25 -22 -25 -8 -1 -5 -7 7 -16 11 -8 26 -12 34 -9 17 7 81 -5 81
-14 0 -4 -19 -14 -42 -22 -35 -13 -42 -20 -40 -38 2 -13 -2 -21 -11 -21 -7 0
-23 -10 -35 -23 l-22 -24 23 -34 c22 -33 26 -34 85 -34 33 0 66 -5 73 -12 8
-8 20 -8 38 -2 15 5 72 8 127 7 l99 -3 3 -90 c3 -83 1 -91 -20 -107 -29 -22
-106 -24 -136 -3 -19 14 -24 14 -46 0 -14 -10 -27 -12 -30 -6 -3 5 -15 7 -25
4 -10 -3 -22 0 -25 6 -5 8 -13 8 -28 0 -12 -7 -44 -13 -72 -15 -41 -2 -56 2
-74 19 -29 27 -90 27 -109 0 -16 -20 -64 -26 -106 -11 -17 7 -31 7 -40 1 -7
-6 -24 -7 -44 -1 -32 8 -33 11 -33 59 0 44 -4 55 -31 80 -30 28 -31 29 -8 29
13 0 33 7 44 16 17 13 18 16 5 25 -36 24 -47 27 -60 19 -8 -5 -22 -5 -32 1
-10 5 -28 7 -42 3 -18 -4 -28 1 -44 24 l-21 29 35 16 c19 10 41 17 48 17 26 0
146 59 147 72 1 7 1 29 0 49 -2 33 2 39 48 72 52 38 71 76 71 145 0 40 20 42
73 6 24 -16 40 -36 44 -54 8 -41 26 -54 45 -32 28 32 28 55 0 112 -34 69 -93
104 -158 95 -32 -4 -46 -1 -66 15 -25 19 -38 20 -185 17 -142 -2 -163 -5 -208
-26 -39 -19 -72 -25 -150 -28 l-100 -5 -55 57 c-53 54 -54 57 -36 71 11 8 25
14 32 14 14 0 26 42 18 63 -3 9 -1 24 5 36 15 27 -4 163 -29 211 l-19 35 6
-50 c10 -74 9 -88 -4 -92 -7 -3 -17 13 -23 39 -12 41 -53 102 -63 92 -3 -3 5
-27 16 -55 19 -45 20 -51 5 -65 -14 -15 -17 -13 -34 15 -23 40 -35 40 -27 0 6
-29 5 -31 -15 -20 -25 13 -32 14 -32 2 0 -15 83 -51 116 -51 17 0 38 -6 48
-13 16 -12 17 -16 5 -38 l-14 -24 -3 23 c-4 27 -28 29 -37 2 -8 -24 -45 -27
-45 -4 0 12 -7 14 -28 10 -17 -4 -35 -1 -47 8 -18 13 -20 26 -19 115 1 56 0
101 -3 101 -10 0 -26 -62 -31 -125 -4 -38 -11 -69 -17 -68 -12 2 -25 49 -32
113 -3 25 -10 50 -15 55 -7 7 -9 -17 -5 -75 l6 -85 -19 24 c-11 13 -20 31 -20
42 0 10 -4 21 -10 24 -21 13 -9 -61 15 -97 30 -45 78 -75 133 -84 23 -4 42
-10 42 -13 0 -15 -71 -74 -131 -109 -102 -59 -92 -94 30 -108 61 -7 62 -7 86
-53 13 -25 38 -59 55 -76 17 -16 42 -40 55 -53 13 -13 21 -30 18 -38 -16 -43
39 -98 165 -164 34 -18 62 -36 62 -40 0 -3 -16 -14 -36 -24 -52 -24 -32 -40
34 -28 66 12 86 2 70 -36 -7 -15 -20 -38 -30 -51 -22 -29 -23 -61 -4 -61 8 0
34 22 57 49 42 48 43 49 73 36 17 -8 47 -16 67 -20 52 -8 100 -44 127 -93 20
-36 22 -45 11 -58 -10 -13 -25 -15 -66 -10 -36 4 -53 3 -53 -5 0 -6 -9 -9 -20
-6 -11 3 -33 0 -50 -6 -24 -9 -32 -8 -49 7 -11 10 -25 15 -31 11 -6 -4 -17 -2
-25 5 -10 9 -19 9 -35 0 -12 -6 -24 -9 -28 -6 -3 3 -16 -1 -29 -9 -20 -13 -27
-14 -51 -2 -31 16 -55 16 -94 -3 -16 -7 -34 -9 -45 -5 -18 8 -28 11 -51 13 -8
1 -10 10 -6 26 5 20 1 24 -24 28 -22 3 -29 1 -25 -9 4 -10 -3 -13 -27 -11 -17
1 -34 6 -36 10 -8 12 16 50 29 45 18 -6 32 15 33 48 0 35 -13 47 -36 35 -15
-8 -60 -3 -60 7 0 2 7 15 16 28 15 24 15 25 -3 25 -10 0 -24 5 -30 11 -6 6
-20 8 -32 4 -22 -7 -28 -29 -11 -40 14 -9 12 -22 -4 -28 -7 -3 -23 1 -35 9
-19 14 -20 17 -7 36 8 11 12 27 9 34 -7 19 -43 18 -57 -2 -9 -12 -17 -13 -38
-5 -31 12 -78 -13 -59 -32 12 -12 15 -50 5 -60 -4 -3 -16 0 -28 8 -11 8 -23
15 -27 15 -6 0 -32 -51 -27 -54 2 -1 15 -8 31 -16 31 -16 34 -26 10 -52 -22
-25 -30 -23 -38 11 -5 24 -11 28 -35 27 -39 -2 -44 -9 -30 -51 10 -29 9 -40
-3 -58 -12 -18 -22 -21 -63 -18 -27 1 -53 7 -59 12 -5 5 -22 9 -37 9 -17 0
-31 7 -35 16 -3 8 -12 13 -21 9 -8 -3 -26 2 -39 11 -24 15 -26 14 -51 -8 -15
-12 -31 -29 -35 -36 -6 -9 -13 -9 -27 -2 -14 7 -31 6 -60 -4 -38 -13 -42 -13
-59 5 -15 16 -20 17 -36 5 -13 -9 -27 -11 -41 -6 -12 5 -24 6 -28 3 -3 -3 -32
-6 -66 -7 -51 -1 -60 1 -60 16 0 9 5 20 10 23 6 4 22 30 36 58 15 29 47 75 73
103 25 27 54 62 65 77 34 48 40 53 106 81 36 15 98 49 138 76 l72 48 0 -41 c1
-53 41 -111 57 -82 6 10 8 37 5 61 -6 59 24 107 85 134 25 11 47 20 50 20 2 0
-3 -13 -12 -30 -9 -17 -20 -30 -25 -30 -5 0 -17 -11 -26 -25 -16 -24 -16 -28
1 -65 10 -22 24 -40 32 -40 7 0 16 -7 19 -15 8 -21 34 -19 34 3 0 9 -7 26 -15
36 -24 31 -18 45 37 100 62 60 128 145 128 163 0 13 -12 17 -38 14 -11 -2 -12
7 -8 36 5 26 1 59 -13 102 -17 56 -18 67 -6 91 13 26 13 110 -1 201 -3 20 -2
51 4 70 9 35 6 59 -8 59 -4 0 -26 -28 -49 -63 -36 -56 -42 -72 -47 -143 -4
-43 -11 -84 -16 -91 -5 -7 -35 -17 -66 -24 -69 -14 -159 -60 -217 -111 -30
-26 -73 -49 -145 -74 -127 -45 -169 -48 -202 -14 -14 14 -33 30 -44 36 -18 11
-17 13 13 30 33 20 53 51 53 85 0 29 -23 33 -69 10 -46 -24 -63 -26 -59 -8 5
20 -5 22 -39 8 -17 -7 -36 -25 -43 -40 -6 -15 -45 -54 -86 -86 -53 -42 -74
-65 -74 -81 0 -29 9 -34 74 -41 49 -5 55 -9 70 -40 9 -18 16 -38 16 -44 0 -25
65 -97 120 -133 33 -22 67 -50 75 -63 15 -22 15 -24 -14 -29 -21 -4 -50 -30
-101 -91 -40 -47 -80 -88 -90 -90 -10 -3 -23 -16 -29 -30 -11 -24 -10 -25 11
-19 13 3 34 6 46 6 15 0 43 20 78 55 30 31 54 51 54 46 0 -19 -72 -161 -81
-161 -5 0 -14 -11 -19 -24 -8 -22 -13 -23 -79 -21 -43 1 -77 8 -87 16 -9 8
-20 13 -23 13 -3 -1 -11 0 -17 3 -6 2 -28 -7 -48 -20 -31 -22 -41 -24 -78 -15
-23 5 -48 14 -55 20 -9 7 -17 7 -28 -2 -8 -6 -19 -9 -24 -6 -5 4 -29 2 -52 -3
-35 -8 -50 -6 -82 10 -29 14 -44 16 -53 8 -7 -6 -18 -8 -23 -5 -5 4 -29 2 -53
-3 -31 -7 -45 -7 -50 2 -4 7 -8 49 -8 94 0 74 2 83 21 94 27 14 188 20 212 7
20 -10 66 15 48 27 -6 3 -11 10 -11 14 0 10 55 24 93 24 22 0 27 4 27 23 0 13
8 28 18 33 15 10 14 13 -12 33 l-29 22 34 11 c50 17 52 51 5 70 -39 17 -45 29
-20 43 12 7 -7 15 -75 32 -50 12 -91 25 -91 29 1 22 21 33 56 29 36 -3 39 -1
36 20 -3 24 0 25 62 22 31 -1 38 1 33 14 -4 10 1 16 15 18 36 5 32 26 -6 34
-20 3 -36 10 -36 14 0 9 -115 5 -130 -5 -6 -4 -26 3 -46 15 -33 21 -34 23 -19
40 13 15 14 23 5 39 -10 19 -8 21 25 21 33 0 35 2 25 20 -10 18 -8 20 18 20
21 0 32 7 40 25 16 34 16 33 -12 28 -13 -3 -27 0 -30 6 -4 6 -27 11 -52 11
-31 0 -44 4 -44 14 0 8 -12 24 -27 35 l-28 20 48 1 c33 0 57 6 74 20 25 19 25
20 4 20 -12 0 -21 6 -21 15 0 9 -9 15 -21 15 -31 0 -6 27 33 35 28 7 191 115
213 142 11 14 435 222 464 228 11 2 32 10 48 17 15 8 46 19 68 25 22 7 78 22
125 36 139 40 308 71 430 78 165 10 500 1 605 -17z m495 -1190 c0 -8 -25 -25
-55 -40 -45 -21 -59 -23 -70 -14 -23 19 -18 38 13 54 15 8 36 23 46 35 l19 21
24 -22 c13 -12 23 -27 23 -34z m-2445 -728 c-18 -13 -17 -15 14 -65 18 -28 36
-51 40 -51 5 0 20 23 35 50 22 41 25 54 16 65 -11 13 -4 15 46 15 l59 0 -36
-29 c-49 -41 -109 -141 -109 -183 0 -51 11 -78 30 -78 10 0 20 -7 24 -15 4
-13 -8 -15 -74 -15 -61 0 -80 3 -80 14 0 7 9 16 20 19 17 4 20 14 20 60 0 46
-6 63 -36 108 -20 30 -50 69 -67 87 l-31 32 74 0 c65 0 72 -2 55 -14z m405 -2
c61 -25 85 -65 84 -145 0 -70 -10 -93 -58 -130 -39 -30 -121 -30 -170 0 -54
33 -66 57 -66 126 0 126 96 194 210 149z m300 6 c0 -5 -7 -10 -15 -10 -24 0
-35 -35 -35 -116 0 -67 3 -81 26 -111 33 -43 82 -46 113 -7 18 23 21 41 21
120 0 83 -2 95 -20 106 -33 21 -23 28 40 28 58 0 80 -12 40 -23 -18 -5 -20
-14 -20 -94 0 -83 -2 -93 -31 -137 -36 -54 -55 -66 -103 -66 -27 0 -46 9 -73
34 l-37 34 -4 103 c-3 98 -5 105 -30 126 l-27 23 78 0 c45 0 77 -4 77 -10z
m460 -8 c71 -35 62 -119 -18 -159 -11 -5 77 -104 100 -112 47 -16 34 -32 -24
-29 -50 3 -52 4 -97 65 -25 34 -52 62 -58 62 -9 1 -13 -14 -13 -45 0 -37 4
-47 20 -51 11 -3 20 -12 20 -19 0 -11 -18 -14 -75 -14 -72 0 -98 12 -57 27 29
11 32 24 32 135 0 120 -4 138 -31 138 -10 0 -19 5 -19 10 0 18 180 11 220 -8z
m416 -19 c16 -21 36 -45 45 -53 9 -8 35 -39 58 -68 l40 -53 -2 88 c-2 81 -4
89 -24 98 -38 17 -26 25 37 25 63 0 73 -7 40 -28 -18 -11 -20 -23 -20 -153 0
-77 -4 -139 -8 -137 -11 4 -114 125 -165 192 l-37 49 0 -102 c0 -99 1 -102 25
-111 46 -17 27 -30 -45 -30 -74 0 -88 10 -42 32 27 13 27 14 28 123 1 118 -6
145 -36 145 -11 0 -20 5 -20 10 0 6 22 10 49 10 44 0 51 -3 77 -37z m462 -25
c15 -35 44 -99 63 -142 20 -47 41 -81 52 -84 9 -2 17 -11 17 -18 0 -11 -17
-14 -70 -14 -44 0 -70 4 -70 11 0 6 9 13 20 16 24 6 25 16 4 48 -14 21 -24 25
-64 25 -40 0 -50 -4 -65 -26 -16 -25 -16 -27 4 -41 35 -24 24 -33 -39 -33 -47
0 -60 3 -60 15 0 8 6 15 14 15 19 0 47 48 81 140 16 41 34 86 42 100 7 14 13
31 13 38 0 33 32 5 58 -50z m375 -38 c27 -55 52 -100 56 -100 8 0 12 8 62 122
l34 77 58 1 c31 0 57 -4 57 -10 0 -5 -9 -10 -19 -10 -27 0 -31 -18 -31 -141 0
-105 1 -109 25 -125 14 -9 25 -20 25 -25 0 -5 -34 -9 -75 -9 -57 0 -75 3 -75
14 0 7 9 16 20 19 18 5 20 13 19 99 l-1 93 -21 -46 c-12 -25 -35 -76 -51 -113
-17 -36 -34 -65 -39 -63 -9 3 -36 53 -86 157 l-31 65 0 -93 c0 -86 2 -94 20
-99 11 -3 20 -12 20 -19 0 -11 -16 -14 -65 -14 -68 0 -85 13 -40 30 l26 10 -3
127 c-3 124 -4 128 -25 131 -46 7 -21 22 35 22 l57 0 48 -100z m607 60 c0 -46
-11 -51 -34 -15 -13 20 -25 25 -55 25 -63 0 -71 -7 -71 -56 l0 -44 50 0 c39 0
52 4 60 20 19 35 30 22 30 -34 0 -63 -11 -76 -34 -41 -14 21 -25 25 -62 25
l-45 0 3 -62 3 -63 52 -3 c48 -3 56 -1 84 27 34 35 53 40 46 14 -3 -10 -8 -30
-11 -45 l-6 -28 -130 0 c-104 0 -130 3 -130 14 0 7 9 16 20 19 19 5 20 14 20
126 0 110 -2 122 -20 133 -11 7 -20 16 -20 20 0 5 56 8 125 8 l125 0 0 -40z"/>
<path d="M1613 915 c-34 -24 -46 -93 -28 -162 18 -68 33 -83 83 -78 40 4 57
22 72 75 14 51 12 76 -10 120 -30 59 -73 76 -117 45z"/>
<path d="M2370 870 c0 -54 2 -60 20 -60 38 0 70 29 70 65 0 28 -5 35 -31 44
-56 19 -59 16 -59 -49z"/>
<path d="M3287 820 l-15 -40 40 0 c22 0 38 3 36 8 -3 4 -10 22 -17 40 -7 17
-16 32 -20 32 -5 0 -15 -18 -24 -40z"/>
</g>
</svg>
