<?xml version="1.0" standalone="no"?>
<!DOCTYPE svg PUBLIC "-//W3C//DTD SVG 20010904//EN"
 "http://www.w3.org/TR/2001/REC-SVG-20010904/DTD/svg10.dtd">
<svg version="1.0" xmlns="http://www.w3.org/2000/svg"
 width="580.000000pt" height="400.000000pt" viewBox="0 0 580.000000 400.000000"
 preserveAspectRatio="xMidYMid meet">
<metadata>
Created by potrace 1.16, written by Peter Selinger 2001-2019
</metadata>
<g transform="translate(0.000000,400.000000) scale(0.100000,-0.100000)"
fill="#000000" stroke="none">
<path d="M2571 3883 c-74 -2 -139 -8 -145 -12 -6 -5 -58 -12 -116 -16 -58 -4
-109 -11 -115 -15 -10 -7 -106 -21 -155 -21 -14 -1 -29 -4 -35 -9 -5 -5 -43
-12 -82 -15 -40 -4 -73 -11 -73 -15 0 -5 -28 -11 -62 -15 -35 -4 -67 -11 -73
-15 -5 -4 -38 -11 -73 -15 -34 -4 -65 -11 -68 -16 -3 -5 -16 -9 -29 -9 -13 0
-27 -5 -30 -11 -4 -6 -13 -8 -21 -5 -7 3 -16 1 -19 -4 -4 -6 -19 -10 -35 -10
-16 0 -32 -4 -35 -10 -3 -5 -28 -12 -55 -16 -28 -4 -50 -10 -50 -15 0 -4 -21
-11 -47 -15 -27 -3 -53 -11 -60 -16 -7 -5 -47 -10 -90 -11 -83 -2 -134 14
-183 58 -25 22 -103 55 -131 55 -8 0 -34 -9 -57 -20 -41 -20 -52 -36 -88 -125
-11 -26 -12 -75 -2 -75 4 0 8 -5 8 -11 0 -6 19 -39 41 -73 37 -54 42 -68 43
-122 0 -33 -4 -72 -10 -85 -6 -13 -21 -45 -33 -70 -11 -25 -21 -51 -21 -57 0
-6 -9 -27 -20 -46 -10 -19 -17 -45 -15 -57 3 -13 -1 -26 -7 -30 -14 -9 -16
-298 -2 -320 4 -8 7 -24 5 -36 -1 -13 6 -35 17 -50 11 -16 23 -43 27 -61 4
-18 13 -45 21 -60 14 -27 10 -105 -6 -127 -4 -5 -11 -34 -15 -62 -4 -29 -11
-55 -16 -59 -5 -3 -9 -25 -9 -49 0 -24 -4 -46 -8 -49 -5 -3 -8 -28 -7 -56 1
-28 -2 -53 -7 -56 -11 -7 -10 -371 1 -378 4 -3 7 -31 6 -61 -1 -31 2 -58 7
-61 12 -8 10 -92 -3 -99 -6 -4 -7 -19 -4 -35 3 -16 2 -31 -4 -35 -6 -3 -11
-32 -11 -64 0 -32 -3 -61 -6 -64 -9 -8 -9 -106 0 -114 3 -3 6 -26 6 -49 0 -24
4 -45 10 -49 5 -3 7 -12 4 -19 -3 -7 4 -30 16 -51 12 -20 19 -40 16 -43 -3 -2
3 -17 14 -32 11 -15 22 -46 26 -69 4 -22 10 -41 15 -41 5 0 9 -25 9 -57 0 -44
-5 -63 -25 -89 -14 -18 -25 -35 -25 -39 0 -3 -10 -20 -23 -36 -16 -23 -22 -45
-23 -85 0 -30 3 -54 8 -54 4 0 8 -6 8 -13 0 -34 102 -97 156 -97 17 0 45 7 60
15 16 8 44 15 62 15 22 0 32 5 32 15 0 10 10 15 29 15 17 0 33 4 36 10 8 13
65 13 65 1 0 -5 13 -12 30 -16 16 -4 30 -10 30 -15 0 -4 12 -11 27 -15 15 -3
30 -10 33 -14 3 -3 25 -22 50 -41 l44 -35 1612 0 c1521 0 1613 1 1631 18 11 9
24 17 30 17 5 0 18 9 29 21 10 11 50 36 88 55 69 34 116 43 116 24 0 -5 12
-10 26 -10 25 0 68 -15 127 -46 16 -8 43 -14 61 -14 47 0 146 53 146 77 0 6 7
16 15 23 17 14 22 110 6 110 -5 0 -12 13 -16 30 -4 16 -11 30 -16 30 -5 0 -14
10 -19 23 -6 12 -14 29 -18 37 -26 45 -32 62 -32 89 0 17 4 32 9 35 5 3 12 23
15 43 6 36 20 71 53 135 7 14 13 37 13 50 0 13 6 30 13 37 9 9 12 64 12 206 0
142 -3 197 -12 206 -7 7 -13 34 -13 59 0 25 6 52 13 59 16 16 18 561 1 582 -6
8 -14 43 -18 78 -3 35 -10 69 -15 75 -5 6 -12 37 -16 69 -4 31 -11 57 -16 57
-14 0 -10 53 6 74 8 11 15 30 15 43 0 13 5 23 10 23 6 0 10 10 10 23 0 12 7
32 15 44 8 12 18 57 21 107 4 47 11 86 15 86 12 0 12 87 1 94 -5 3 -12 44 -16
92 -3 50 -13 95 -21 107 -8 12 -15 32 -15 44 0 13 -4 23 -10 23 -5 0 -10 8
-10 18 0 9 -6 29 -14 44 -8 15 -17 40 -21 57 -4 17 -11 31 -16 31 -5 0 -9 18
-9 40 0 22 5 40 10 40 6 0 10 9 10 21 0 11 12 36 26 54 53 70 77 136 54 150
-5 3 -10 17 -10 30 0 13 -6 30 -12 37 -7 8 -18 22 -24 33 -12 22 -88 65 -115
65 -10 0 -20 -4 -23 -9 -3 -5 -21 -12 -40 -15 -18 -4 -42 -16 -52 -27 -39 -43
-103 -64 -188 -62 -43 1 -82 6 -85 11 -3 5 -27 12 -53 16 -26 4 -50 11 -53 15
-2 5 -27 11 -54 15 -28 4 -53 11 -56 16 -3 6 -18 10 -33 10 -15 0 -40 7 -56
15 -15 8 -38 15 -50 15 -12 0 -26 4 -32 10 -5 5 -38 13 -72 16 -34 4 -62 11
-62 16 0 5 -8 8 -17 7 -24 -3 -105 11 -118 21 -5 4 -39 11 -75 15 -36 4 -70
12 -77 17 -7 5 -28 8 -47 7 -19 -2 -38 0 -42 4 -4 4 -29 7 -55 7 -26 0 -50 4
-53 9 -3 4 -54 11 -113 15 -59 4 -113 12 -119 16 -11 10 -620 19 -833 13z
m743 -964 c6 -5 54 -9 108 -9 54 0 98 -4 98 -9 0 -5 55 -12 123 -16 67 -4 127
-10 132 -15 6 -4 57 -10 115 -14 57 -4 109 -11 115 -16 5 -4 27 -11 48 -15 20
-4 39 -11 42 -15 3 -5 23 -11 45 -15 22 -4 42 -11 46 -16 3 -5 12 -9 21 -9 9
0 58 -21 109 -46 79 -39 94 -51 94 -70 0 -13 -6 -24 -13 -24 -24 0 -59 -47
-52 -69 5 -18 2 -21 -25 -21 -22 0 -30 -4 -26 -12 3 -7 9 -21 12 -30 4 -10 13
-18 20 -18 19 0 17 -10 -6 -39 -16 -19 -23 -21 -34 -12 -12 10 -17 8 -25 -8
-15 -27 -14 -34 4 -27 8 3 15 4 15 2 0 -3 3 -11 6 -19 3 -9 -3 -17 -18 -20
-13 -4 -42 -25 -66 -48 -38 -39 -40 -43 -24 -55 24 -19 106 -18 122 1 7 8 19
15 26 15 22 0 16 -27 -7 -33 -11 -3 -23 -15 -26 -26 -5 -21 -33 -30 -33 -11 0
6 -7 10 -15 10 -8 0 -15 -7 -15 -16 0 -11 -6 -13 -19 -9 -11 3 -30 3 -43 0
-22 -6 -25 -12 -26 -55 0 -31 4 -53 14 -60 19 -17 18 -30 -4 -30 -10 0 -22
-12 -29 -30 -8 -22 -18 -30 -36 -30 -16 0 -26 -7 -30 -20 -7 -28 17 -43 63
-38 35 3 40 1 40 -18 0 -33 -24 -47 -65 -40 -29 6 -36 4 -42 -11 -3 -10 -12
-25 -20 -34 -22 -26 13 -49 80 -52 32 -1 57 -7 57 -12 0 -16 -22 -35 -41 -35
-9 0 -22 -6 -29 -14 -6 -8 -26 -16 -43 -18 -27 -2 -33 -8 -35 -31 -2 -18 2
-29 12 -33 20 -8 20 -43 1 -68 -8 -11 -15 -28 -15 -39 0 -16 5 -18 30 -12 22
5 42 1 71 -14 47 -25 49 -25 49 -6 0 8 7 15 15 15 8 0 15 7 15 15 0 11 11 15
39 15 22 0 46 3 55 6 10 4 16 1 16 -8 0 -7 14 -19 30 -25 29 -11 30 -13 30
-80 0 -40 -5 -74 -12 -81 -9 -9 -87 -12 -289 -12 l-276 0 -1 61 c-1 60 0 61
18 44 11 -10 26 -15 35 -11 14 5 15 26 11 162 -5 154 -6 158 -33 186 -15 15
-31 28 -35 28 -5 0 -22 10 -38 21 -25 19 -38 21 -110 17 -44 -3 -86 -10 -92
-16 -15 -15 -78 -16 -78 -2 0 6 -12 10 -26 10 -15 0 -48 13 -74 29 -25 16 -61
32 -78 36 -18 3 -32 10 -32 14 0 4 -20 18 -45 30 -24 12 -47 26 -50 32 -4 5
-14 9 -24 9 -14 0 -20 -10 -24 -41 -3 -24 -15 -49 -29 -62 -30 -28 -40 -52
-32 -83 5 -18 13 -24 34 -24 16 0 31 4 34 9 3 5 22 12 41 15 31 6 39 3 65 -26
22 -23 30 -42 30 -68 0 -20 7 -45 15 -56 8 -10 15 -33 15 -51 0 -17 4 -34 9
-37 5 -4 8 -21 7 -39 -1 -17 2 -37 7 -44 5 -7 5 -18 1 -25 -5 -7 -7 -24 -6
-38 1 -15 -8 -36 -23 -52 l-24 -28 -189 0 c-133 0 -192 4 -200 12 -14 14 -17
194 -3 202 4 3 11 24 15 47 6 39 8 41 35 36 20 -4 34 -1 45 12 14 16 14 20 -4
54 -11 20 -20 43 -20 51 0 19 -23 33 -28 18 -2 -7 -14 -12 -26 -12 -22 0 -52
-28 -71 -65 -11 -21 -75 -35 -75 -16 0 5 -13 12 -29 16 -30 6 -78 -12 -113
-43 -22 -19 -24 -75 -3 -96 17 -17 20 -36 5 -36 -5 0 -10 -9 -10 -19 0 -11 5
-23 10 -26 14 -9 13 -78 -2 -93 -8 -8 -8 -15 2 -27 11 -13 5 -15 -52 -15 l-65
0 -7 51 c-8 61 2 158 18 178 6 8 11 54 11 109 0 73 3 96 14 100 8 3 20 -3 27
-13 7 -9 21 -15 31 -13 16 3 18 12 15 73 -2 39 -7 72 -12 75 -5 3 -10 23 -12
44 -2 33 -7 40 -26 41 -21 2 -62 -39 -62 -61 0 -11 -42 -54 -52 -54 -5 0 -25
-12 -45 -27 -27 -21 -48 -28 -89 -29 -63 -2 -81 -14 -90 -60 -3 -19 -10 -37
-15 -40 -13 -8 -11 -108 3 -122 6 -6 13 -55 15 -114 3 -57 9 -104 14 -106 5
-2 9 -10 9 -18 0 -11 -25 -14 -130 -14 l-130 0 0 65 c0 55 -3 65 -17 66 -10 0
-84 0 -165 -1 -94 -1 -148 3 -153 9 -4 7 5 11 24 11 21 0 31 5 31 15 0 8 -9
15 -19 15 -29 0 -51 38 -51 87 0 24 -4 43 -10 43 -5 0 -10 20 -10 45 0 25 -3
45 -8 45 -4 0 -6 18 -4 40 2 22 0 40 -6 40 -5 0 -13 38 -17 85 -4 47 -11 85
-16 85 -5 0 -9 20 -9 45 0 25 -3 45 -8 45 -4 0 -6 20 -4 45 3 28 0 45 -7 45
-6 0 -11 11 -11 25 0 23 4 25 45 25 38 0 45 3 45 20 0 15 -7 20 -24 20 -14 0
-28 5 -31 10 -3 6 0 10 8 10 7 0 26 14 42 30 16 17 24 30 17 30 -7 0 -1 19 13
46 29 55 30 61 10 80 -8 9 -15 26 -15 38 0 13 -7 29 -15 36 -8 7 -15 19 -15
26 0 8 -8 14 -19 14 -10 0 -24 7 -31 15 -14 17 -85 21 -95 5 -4 -6 -14 -9 -23
-6 -18 5 -62 -25 -62 -43 0 -6 -11 -18 -25 -27 -42 -27 -130 1 -104 32 6 8 17
14 24 14 7 0 21 11 31 25 10 14 24 25 30 25 6 0 19 9 29 20 10 11 24 20 31 20
7 0 14 4 16 9 3 10 237 131 253 131 5 0 22 6 37 14 15 8 42 17 60 21 18 4 38
11 44 16 6 5 57 12 113 15 56 4 104 11 107 16 3 4 36 8 74 8 38 0 71 4 74 8 2
4 32 7 65 5 33 -1 63 2 66 7 3 6 52 10 109 10 56 0 106 4 112 10 5 5 68 11
139 13 200 6 659 -4 669 -14z m1279 -403 c43 -46 77 -87 77 -91 0 -4 20 -31
45 -59 25 -29 45 -58 45 -63 0 -5 9 -18 20 -28 24 -22 130 -232 130 -258 0 -9
4 -25 9 -35 33 -66 36 -80 36 -203 0 -89 -4 -132 -12 -140 -7 -7 -13 -25 -13
-41 0 -32 -107 -153 -155 -175 -37 -17 -68 -35 -76 -46 -3 -4 -31 -11 -62 -14
-32 -3 -57 -10 -57 -14 0 -5 -27 -9 -60 -9 l-60 0 0 84 c0 63 4 87 15 96 13
10 19 10 34 -4 16 -15 19 -15 31 -1 14 17 70 21 70 5 0 -5 7 -10 15 -10 8 0
15 -6 15 -14 0 -34 124 -30 133 4 5 20 -10 40 -30 40 -7 0 -13 7 -13 15 0 9
-9 15 -25 15 -16 0 -25 6 -25 15 0 8 -8 15 -19 15 -10 0 -21 9 -24 20 -3 11
-17 24 -31 30 -35 13 -34 34 1 27 15 -3 35 0 45 6 14 9 23 9 39 -1 17 -11 25
-11 45 3 34 22 31 52 -6 60 -16 4 -30 13 -30 21 0 8 -6 14 -14 14 -7 0 -16 9
-19 21 -3 11 -15 23 -26 26 -12 3 -21 10 -21 15 0 13 26 38 39 38 8 0 7 7 -1
20 -7 11 -19 20 -26 20 -17 0 -72 32 -72 41 0 4 13 10 29 14 16 3 35 13 41 20
9 10 24 13 54 9 38 -6 44 -4 48 14 7 26 -6 38 -52 46 -36 7 -73 21 -100 37 -8
5 -23 12 -32 15 -18 6 -26 34 -10 34 5 0 26 -9 49 -19 42 -21 83 -18 83 5 0 7
6 11 13 9 6 -3 17 3 24 14 10 15 7 23 -17 49 -23 26 -39 33 -84 38 -50 6 -56
9 -56 30 0 17 6 24 19 24 11 0 21 9 24 22 7 26 1 38 -19 38 -15 0 -16 0 -20
49 -1 19 -8 38 -16 42 -9 6 -10 11 -2 17 20 14 22 38 3 50 -11 7 -16 18 -13
27 4 10 0 15 -10 15 -9 0 -16 8 -16 20 0 11 4 20 8 20 5 0 43 -38 85 -84z
m-3411 -83 l3 -48 58 3 c49 2 57 0 57 -16 0 -10 14 -31 30 -47 34 -33 36 -42
14 -67 -22 -24 -3 -48 37 -48 25 0 29 -4 29 -28 0 -15 -4 -32 -9 -37 -5 -6
-12 -39 -15 -74 -3 -35 -11 -70 -17 -77 -9 -11 -8 -18 1 -29 7 -9 8 -15 2 -15
-5 0 -13 -36 -17 -80 -4 -44 -11 -82 -15 -85 -4 -3 -11 -33 -15 -67 -4 -35
-11 -67 -15 -73 -4 -5 -11 -39 -15 -75 -4 -36 -12 -71 -17 -77 -7 -9 -7 -18 2
-28 9 -10 9 -15 1 -15 -6 0 -11 -18 -11 -43 0 -24 -5 -48 -12 -55 -14 -14 -68
-16 -68 -3 0 5 -26 11 -57 13 -31 3 -59 10 -61 16 -2 7 -20 20 -40 29 -42 19
-102 72 -102 89 0 6 -9 19 -20 29 -11 10 -20 24 -20 32 0 7 -4 13 -9 13 -5 0
-12 22 -16 50 -4 27 -11 53 -17 56 -11 7 -8 193 3 200 4 2 10 22 14 44 4 22
11 42 15 45 5 3 12 26 16 50 3 25 10 45 15 45 5 0 9 7 9 16 0 19 87 202 106
224 43 49 74 89 74 94 0 4 10 17 23 29 13 12 26 30 30 40 12 32 26 17 29 -30z
m2472 -844 c23 -27 26 -39 26 -109 0 -71 -3 -81 -27 -109 -27 -30 -30 -31
-110 -31 -48 0 -85 4 -89 11 -3 6 -8 61 -11 123 l-5 113 62 6 c34 3 67 10 73
16 20 20 55 12 81 -20z m-906 -72 c14 -11 16 -93 2 -102 -5 -3 -10 -22 -10
-41 0 -34 -1 -35 -22 -20 -18 13 -22 27 -26 86 -2 39 -1 77 2 85 5 15 29 11
54 -8z m-1325 -59 c17 -19 21 -77 6 -105 -11 -20 -20 -23 -71 -23 l-58 0 6 43
c11 78 24 97 67 97 21 0 44 -6 50 -12z m122 2 c3 -5 15 -10 26 -10 17 0 19 -7
19 -60 l0 -60 -42 0 c-37 0 -45 4 -55 26 -7 15 -9 32 -5 38 4 6 7 18 8 26 1 8
2 23 3 33 1 18 36 24 46 7z"/>
<path d="M983 243 c9 -2 23 -2 30 0 6 3 -1 5 -18 5 -16 0 -22 -2 -12 -5z"/>
</g>
</svg>
