<?xml version="1.0" standalone="no"?>
<!DOCTYPE svg PUBLIC "-//W3C//DTD SVG 20010904//EN"
 "http://www.w3.org/TR/2001/REC-SVG-20010904/DTD/svg10.dtd">
<svg version="1.0" xmlns="http://www.w3.org/2000/svg"
 width="580.000000pt" height="400.000000pt" viewBox="0 0 580.000000 400.000000"
 preserveAspectRatio="xMidYMid meet">
<metadata>
Created by potrace 1.16, written by Peter Selinger 2001-2019
</metadata>
<g transform="translate(0.000000,400.000000) scale(0.100000,-0.100000)"
fill="#000000" stroke="none">
<path d="M2848 3605 c-59 -22 -83 -42 -112 -94 -42 -79 -33 -171 24 -244 31
-39 20 -57 -35 -57 -42 0 -50 6 -46 33 11 64 11 77 2 77 -5 0 -16 -12 -23 -27
-21 -43 -62 -66 -126 -71 -43 -3 -61 0 -70 11 -7 9 -20 82 -29 163 l-16 148
22 17 c11 9 21 20 21 24 0 7 -119 -2 -152 -11 -25 -7 -23 -24 2 -24 28 0 35
-24 57 -190 21 -162 23 -156 -50 -195 -46 -24 -57 -14 -57 53 0 47 -22 56 -28
11 -8 -53 -85 -99 -166 -99 -26 0 -38 25 -52 112 -6 34 -4 38 22 49 40 16 97
13 110 -6 20 -28 36 -18 29 18 -22 98 -47 132 -59 77 -6 -33 -51 -60 -101 -60
-28 0 -43 26 -52 91 -5 36 -4 37 43 53 64 22 100 20 125 -5 11 -11 23 -18 26
-15 7 6 -17 85 -27 91 -3 2 -49 -9 -101 -25 -51 -16 -120 -36 -151 -45 -62
-17 -77 -35 -29 -35 29 0 30 -2 71 -132 58 -184 59 -191 22 -227 -33 -33 -139
-78 -152 -65 -5 5 -18 90 -31 188 -17 138 -19 183 -10 197 21 35 11 37 -49 11
-61 -27 -75 -50 -27 -44 21 3 27 -2 32 -20 10 -44 10 -191 0 -194 -14 -5 -172
146 -160 152 26 12 39 24 32 30 -10 10 -157 -57 -157 -72 0 -9 8 -12 28 -8 42
8 88 -45 95 -111 9 -96 -4 -97 -103 -5 -59 55 -72 72 -62 82 6 6 12 18 12 25
0 9 -23 1 -70 -22 -73 -37 -88 -55 -44 -55 20 0 59 -31 160 -126 74 -70 134
-132 134 -139 0 -7 -66 -57 -147 -111 -81 -54 -176 -125 -212 -157 -78 -69
-107 -79 -132 -48 -9 11 -31 24 -49 27 -21 5 -30 12 -28 22 4 18 68 25 106 11
17 -7 24 -5 29 7 4 11 13 14 32 10 25 -6 25 -6 7 9 -11 8 -26 15 -34 15 -9 0
-12 6 -8 17 5 11 -2 24 -20 38 -34 27 -25 49 13 34 15 -5 44 -7 64 -4 36 6 37
7 27 36 -9 27 -14 29 -58 29 -29 0 -50 5 -52 12 -3 7 -27 17 -54 23 -48 10
-49 11 -51 48 -1 37 -1 37 40 39 23 0 50 0 61 -1 33 -3 -2 28 -44 39 -44 12
-60 38 -34 57 10 7 16 14 13 16 -2 2 -21 16 -41 31 -37 28 -49 58 -27 71 6 4
20 -2 32 -12 33 -30 57 -36 57 -15 0 10 5 23 11 29 9 9 3 20 -25 46 -20 19
-36 38 -36 43 0 5 -13 17 -30 26 -16 9 -32 28 -36 42 -8 32 -20 33 -35 4 -21
-41 -52 -68 -91 -78 -42 -12 -51 -30 -15 -30 49 0 66 -11 73 -47 8 -41 -4 -53
-53 -53 -41 0 -63 -9 -63 -26 0 -8 -9 -23 -21 -35 -25 -25 -19 -35 10 -19 17
9 22 8 28 -6 4 -12 -4 -26 -26 -46 -42 -37 -33 -47 15 -19 39 23 64 22 64 -4
0 -13 7 -15 35 -9 29 5 35 3 35 -11 0 -9 -14 -30 -32 -47 -28 -26 -36 -28 -72
-22 -23 4 -54 8 -71 8 -27 1 -30 -2 -27 -25 3 -23 -1 -27 -33 -33 -31 -6 -34
-10 -24 -22 9 -11 8 -18 -4 -32 -12 -13 -14 -21 -6 -29 6 -6 16 -21 23 -34 17
-35 31 -33 75 7 32 28 44 34 55 25 10 -9 16 -8 25 3 7 8 18 13 25 10 8 -3 16
2 19 10 7 18 47 22 47 5 0 -24 -42 -79 -77 -101 l-37 -22 32 -8 c41 -11 47
-23 28 -53 -20 -30 -52 -32 -80 -6 -12 10 -33 21 -48 25 -23 5 -25 3 -21 -15
5 -19 3 -20 -33 -14 -22 4 -46 9 -54 11 -23 6 -44 -12 -45 -38 0 -20 10 -26
70 -45 39 -13 96 -23 128 -23 56 0 64 -4 49 -26 -13 -19 -97 -54 -130 -54 -17
0 -41 -4 -54 -10 -13 -5 -42 -14 -65 -20 -22 -6 -52 -19 -65 -31 l-23 -20 42
6 c58 9 86 -1 73 -25 -16 -29 -13 -30 44 -26 36 2 64 11 82 25 15 11 34 21 42
21 8 0 29 10 46 23 55 42 56 41 56 -1 0 -49 -26 -83 -65 -88 -16 -1 -31 -8
-33 -13 -2 -6 -12 -11 -21 -11 -10 0 -25 -8 -35 -18 -9 -11 -34 -24 -55 -31
-21 -6 -43 -17 -49 -24 -13 -15 -8 -16 91 -20 72 -4 87 4 101 51 9 27 36 29
43 2 3 -11 12 -20 19 -20 8 0 14 -6 14 -13 0 -25 -25 -45 -78 -62 -44 -14 -52
-20 -47 -36 10 -29 -35 -25 -105 11 -80 41 -94 39 -89 -7 0 -5 17 -13 37 -18
23 -7 38 -18 40 -29 4 -17 -1 -18 -43 -12 -26 4 -65 14 -87 22 -51 18 -61 10
-26 -19 14 -12 29 -31 32 -42 13 -45 93 -66 157 -40 22 8 35 -26 14 -37 -24
-14 -18 -25 20 -32 28 -6 45 -2 78 18 23 14 54 31 70 38 17 8 27 20 27 34 0
19 28 54 43 54 10 0 9 -110 0 -110 -13 -1 -75 -61 -70 -67 3 -3 16 2 29 11 46
33 48 27 47 -141 0 -87 -3 -176 -7 -198 l-7 -40 -90 -13 c-197 -27 -338 -102
-363 -190 -4 -15 -7 -157 -7 -317 l0 -290 25 -43 c14 -24 37 -50 52 -58 23
-12 380 -14 2375 -14 2337 0 2348 0 2381 20 19 12 41 38 52 63 18 39 20 69 20
395 0 327 -1 356 -19 390 -10 20 -28 45 -38 54 -28 26 -159 56 -292 69 -63 6
-119 13 -123 15 -4 3 -8 75 -8 160 0 137 2 154 17 154 9 0 25 -7 35 -17 38
-34 28 -3 -11 35 -36 35 -41 45 -41 86 0 25 4 46 8 46 16 0 42 -36 42 -58 0
-15 6 -22 19 -22 10 0 25 -7 32 -17 23 -27 95 -54 126 -47 43 10 46 15 23 31
-30 21 -9 46 26 32 54 -20 127 3 140 43 3 10 17 30 32 43 34 32 25 39 -26 21
-22 -8 -61 -18 -86 -21 -38 -6 -46 -4 -46 8 0 10 19 22 51 32 33 11 47 20 39
25 -7 4 -9 13 -6 19 13 20 -28 11 -103 -24 -78 -35 -91 -36 -91 -5 0 13 -14
23 -50 35 -28 9 -57 23 -65 32 -19 18 -19 43 -1 43 8 0 17 11 20 25 9 35 22
31 46 -15 20 -39 27 -44 62 -41 9 1 19 -2 22 -7 4 -6 20 -6 43 0 21 5 44 10
51 10 26 3 10 19 -43 43 -30 13 -55 29 -55 34 0 6 -11 11 -24 11 -14 0 -28 5
-31 10 -3 6 -14 10 -24 10 -31 0 -71 49 -71 86 0 41 11 42 54 9 18 -14 41 -25
51 -25 10 0 29 -9 41 -21 29 -27 156 -41 134 -15 -7 9 -9 23 -6 32 5 14 15 15
56 10 28 -4 50 -3 50 1 0 21 -145 73 -202 73 -46 0 -138 48 -138 71 0 5 26 9
58 9 31 0 89 9 127 21 64 19 70 23 69 46 -1 27 -21 45 -44 39 -8 -2 -32 -7
-53 -11 -36 -6 -38 -5 -32 15 6 19 4 21 -17 15 -12 -4 -35 -15 -50 -26 -38
-27 -63 -24 -87 10 -12 16 -21 31 -21 34 0 3 21 9 46 13 l46 7 -44 27 c-41 26
-68 63 -68 95 0 19 24 19 40 0 7 -8 17 -12 23 -8 5 3 17 -3 25 -13 10 -13 16
-15 19 -6 8 20 28 14 51 -18 28 -38 68 -41 81 -6 5 13 18 26 28 30 16 7 16 9
-7 26 -20 15 -23 21 -12 32 10 10 7 15 -20 24 -28 9 -32 15 -30 37 4 31 -2 32
-77 16 -61 -13 -102 4 -121 51 -16 38 -11 44 25 30 28 -11 36 -7 49 25 2 6 22
0 46 -13 23 -13 44 -21 47 -18 3 3 -9 22 -26 42 -35 40 -31 65 8 45 27 -15 27
0 1 24 -11 10 -17 21 -14 26 7 13 -31 29 -70 29 -39 0 -52 13 -47 50 3 31 27
50 62 50 40 0 45 17 7 25 -45 10 -85 40 -105 78 l-16 32 -14 -32 c-7 -18 -17
-33 -23 -33 -5 0 -35 -25 -66 -57 -47 -46 -54 -58 -43 -67 8 -6 13 -19 11 -28
-4 -21 19 -15 57 14 32 24 41 23 41 -7 0 -17 -12 -33 -39 -53 -36 -26 -38 -30
-24 -45 23 -23 9 -44 -35 -57 -22 -5 -42 -17 -45 -25 -4 -9 -1 -12 8 -9 8 3
20 2 27 -2 7 -5 25 -7 39 -6 22 3 27 -2 32 -25 7 -36 -9 -52 -59 -60 -21 -3
-43 -12 -47 -20 -5 -8 -26 -13 -55 -13 -43 0 -49 -3 -59 -29 -10 -27 -9 -29
19 -35 17 -3 48 -3 69 0 46 8 52 -7 14 -32 -18 -11 -24 -22 -20 -35 5 -14 0
-20 -19 -25 -14 -3 -26 -10 -26 -14 0 -5 9 -6 20 -3 11 3 20 0 20 -5 0 -7 25
-10 67 -9 56 2 68 -1 71 -14 2 -12 -7 -18 -34 -23 -24 -5 -38 -14 -41 -27 -7
-26 -77 -26 -116 0 -23 15 -34 17 -56 8 -26 -10 -36 -4 -140 78 -61 49 -111
94 -111 100 0 6 14 24 30 40 17 16 30 32 30 37 0 11 -37 10 -44 -1 -14 -22
-62 -18 -116 9 -85 43 -87 47 -44 119 20 33 43 61 51 61 7 0 31 -9 52 -20 39
-19 57 -53 45 -84 -3 -9 -1 -16 5 -16 11 0 81 103 81 120 0 13 -17 13 -25 0
-17 -28 -135 16 -135 50 0 17 21 52 53 87 l20 23 49 -27 c49 -27 84 -73 74
-98 -2 -7 -2 -16 1 -19 6 -5 53 56 53 68 0 6 -114 80 -185 121 -27 15 -58 35
-68 43 -12 11 -21 12 -28 5 -7 -7 -5 -14 6 -23 8 -7 15 -19 15 -26 0 -17 -158
-284 -168 -285 -81 -6 -84 -6 -92 16 -5 12 -16 25 -24 28 -9 4 -16 14 -16 24
0 21 99 294 113 311 6 8 20 11 34 7 13 -3 23 -1 23 5 0 13 -48 37 -91 45 -34
6 -38 4 -131 -94 -53 -56 -103 -101 -111 -101 -17 0 -19 12 -38 190 -6 58 -13
107 -15 110 -8 7 -98 40 -111 40 -7 0 -13 -4 -13 -10 0 -5 7 -10 15 -10 8 0
19 -9 25 -20 9 -16 2 -46 -35 -148 -59 -164 -78 -196 -110 -188 -13 3 -27 2
-30 -4 -9 -15 -35 -12 -41 5 -4 9 12 35 39 65 25 28 51 67 58 87 23 70 -7 171
-68 225 -53 48 -139 55 -213 18 -97 -49 -133 -177 -80 -289 20 -44 22 -54 10
-62 -8 -5 -21 -7 -28 -4 -8 3 -29 5 -48 5 -45 0 -57 26 -24 52 17 14 20 22 12
30 -9 9 -18 6 -35 -10 -101 -95 -256 13 -233 163 16 100 55 145 127 145 47 0
108 -43 116 -81 3 -16 12 -29 20 -29 13 0 14 11 8 68 -8 76 -9 79 -28 63 -11
-8 -24 -7 -57 4 -51 18 -73 18 -122 0z m531 -84 c49 -49 53 -187 7 -259 -31
-49 -52 -62 -101 -62 -45 0 -91 44 -101 97 -15 79 17 192 64 231 25 20 109 15
131 -7z m266 -213 c3 -7 9 -56 14 -108 12 -128 -1 -142 -75 -77 -29 25 -30 34
-2 111 23 65 35 86 50 86 5 0 11 -6 13 -12z m255 -81 c0 -7 -15 -50 -33 -97
l-33 -85 -43 -1 c-26 0 -50 6 -62 15 -18 15 -16 19 65 105 76 81 106 99 106
63z m-2163 -225 c17 -20 10 -28 -47 -57 -82 -42 -85 -39 -96 84 -9 99 3 106
76 39 30 -28 60 -58 67 -66z m1443 62 c315 -48 523 -112 792 -243 133 -65 338
-196 458 -294 41 -33 80 -65 87 -70 7 -5 31 -5 60 1 30 7 54 7 65 1 12 -7 25
-6 40 2 45 24 127 18 88 -6 -6 -4 -8 -15 -5 -24 4 -13 -4 -22 -34 -35 -31 -14
-52 -16 -107 -11 -38 4 -75 11 -83 15 -14 8 -111 -28 -111 -42 0 -11 39 -30
50 -23 16 10 80 -6 80 -20 0 -14 -22 -25 -50 -25 -11 0 -32 -12 -47 -26 -26
-24 -27 -25 -5 -21 12 3 22 1 22 -4 0 -6 15 -7 35 -3 28 5 35 3 35 -10 0 -13
5 -14 27 -5 18 6 30 6 36 0 7 -7 16 -6 28 5 14 13 20 13 38 3 17 -12 23 -10
44 9 13 12 28 22 34 22 12 0 23 -58 15 -78 -6 -16 -44 -32 -78 -32 -14 0 -36
-12 -49 -26 -24 -26 -26 -27 -84 -14 -66 14 -115 4 -146 -30 -20 -22 -7 -27
25 -10 13 7 21 7 25 0 3 -5 1 -10 -4 -10 -6 0 -11 -7 -11 -15 0 -8 6 -12 13
-10 6 2 43 1 81 -3 78 -8 98 -27 39 -37 -39 -7 -119 -52 -110 -62 3 -3 22 0
42 7 41 14 165 22 165 11 0 -13 -54 -47 -92 -60 -21 -7 -40 -16 -43 -20 -7
-12 138 -21 149 -10 6 5 16 9 24 9 8 0 31 14 51 32 l36 32 3 -100 c2 -54 0
-145 -3 -201 l-7 -103 -36 -9 c-89 -23 -241 -43 -287 -37 -104 12 -208 63
-226 111 -24 64 -55 118 -79 137 -27 21 -50 83 -50 136 0 57 1 56 138 -167 11
-18 16 -20 22 -10 5 8 3 17 -5 23 -16 13 -125 193 -125 206 0 6 5 10 10 10 6
0 15 11 20 25 14 38 -14 88 -64 115 -49 27 -75 57 -76 87 0 13 -8 24 -22 29
-29 9 -60 -28 -52 -61 4 -18 -1 -28 -22 -42 -71 -45 -104 -106 -104 -189 0
-38 -46 -192 -72 -241 -12 -24 -4 -43 11 -27 5 5 26 61 46 124 23 73 47 127
66 149 16 19 31 32 34 29 4 -3 8 -23 11 -44 3 -22 15 -50 29 -64 14 -15 25
-31 25 -37 0 -6 11 -34 25 -62 36 -71 55 -130 45 -136 -5 -3 -11 -1 -15 5 -11
18 -25 0 -19 -24 5 -22 2 -24 -51 -31 -110 -13 -206 17 -236 77 -20 39 -102
128 -118 128 -14 0 -61 97 -61 127 0 13 4 23 8 21 10 -4 127 -132 155 -170 21
-29 37 -36 37 -17 0 6 -40 55 -90 111 -85 95 -89 101 -75 121 35 50 -2 109
-86 136 -43 14 -58 24 -71 51 -21 41 -37 51 -59 39 -24 -12 -32 -44 -19 -68 9
-17 6 -24 -18 -41 -16 -12 -42 -48 -57 -80 -24 -51 -27 -63 -19 -106 9 -49 -7
-219 -26 -278 -6 -17 -6 -35 0 -45 12 -22 15 -12 35 129 16 114 51 222 70 217
6 -2 16 -21 23 -43 7 -21 27 -53 45 -70 36 -36 56 -62 109 -149 43 -69 46 -79
18 -72 -25 7 -36 -9 -19 -30 11 -13 10 -17 -6 -29 -39 -29 -148 -30 -310 -4
-33 5 -105 10 -160 10 -92 1 -198 13 -235 26 -12 5 -12 8 4 20 29 21 15 25
-44 14 -73 -14 -80 -13 -80 10 0 17 7 20 43 21 23 0 65 2 92 3 28 2 68 4 89 4
22 1 36 5 32 9 -4 4 -43 6 -86 4 -69 -2 -79 0 -74 13 3 9 2 29 -4 45 -7 19 -7
53 1 104 l11 75 35 7 c20 4 46 13 58 21 21 13 23 21 21 109 -3 118 5 129 58
79 22 -20 53 -43 70 -50 l31 -13 8 -170 c4 -93 4 -178 1 -189 -6 -19 18 -51
27 -35 2 4 0 91 -6 192 -8 137 -7 191 1 215 12 30 10 32 -52 96 -34 36 -73 79
-84 96 -12 18 -33 35 -47 38 -27 7 -35 36 -10 36 24 0 -4 38 -36 49 -14 5 -38
21 -52 35 -31 31 -33 31 -76 5 -31 -18 -33 -23 -26 -57 3 -20 8 -45 11 -54 4
-13 -4 -18 -33 -24 -21 -4 -42 -10 -48 -14 -31 -25 -146 -52 -217 -52 -68 -1
-78 -3 -84 -20 -3 -10 2 -30 10 -44 16 -24 96 -335 96 -373 0 -10 7 -24 15
-31 12 -10 16 -9 21 4 3 9 2 22 -3 29 -17 21 -96 358 -87 367 5 5 36 -1 71
-13 62 -22 63 -22 133 -3 74 19 100 13 100 -21 0 -8 7 -27 15 -43 14 -28 14
-29 -20 -49 -25 -14 -35 -27 -35 -45 0 -14 -11 -37 -24 -51 -28 -30 -38 -76
-41 -185 l-2 -75 -104 0 c-57 0 -114 4 -126 8 -19 7 -22 5 -17 -7 8 -21 37
-28 136 -29 77 -2 83 -3 80 -22 -7 -37 -47 -64 -136 -90 -49 -14 -101 -25
-118 -25 -17 0 -27 -4 -23 -10 9 -14 59 -12 130 5 70 17 85 18 85 6 0 -5 -24
-19 -52 -31 -74 -33 -231 -38 -418 -15 -130 16 -220 16 -264 -1 -10 -4 -16 -1
-16 8 0 17 309 201 327 194 7 -3 17 -16 22 -29 5 -13 26 -34 46 -46 31 -18 36
-19 31 -5 -3 9 -9 26 -12 39 -3 13 -17 31 -30 40 -13 8 -24 20 -24 25 0 5 36
28 80 52 81 44 96 58 60 58 -30 0 -24 26 10 40 16 7 27 16 24 21 -11 18 -52 8
-115 -26 -35 -20 -79 -43 -97 -52 l-32 -17 -45 44 c-45 44 -49 60 -15 60 10 0
30 10 44 23 21 18 26 36 34 107 9 88 6 111 -29 186 -11 22 -19 45 -19 50 -1
14 -31 47 -62 67 -16 9 -28 24 -28 32 0 8 -5 15 -11 15 -5 0 -15 13 -20 29
-21 60 -99 78 -133 30 -21 -30 -10 -90 21 -115 l26 -22 -22 -30 c-11 -17 -21
-35 -21 -40 0 -19 -94 -107 -114 -107 -30 0 -40 -51 -15 -76 10 -10 23 -19 29
-19 5 0 22 -19 39 -43 20 -30 27 -48 20 -58 -21 -33 -9 -62 50 -120 72 -70 82
-93 50 -125 -13 -12 -101 -61 -196 -108 -152 -77 -174 -85 -198 -76 -15 6 -30
8 -32 6 -10 -9 46 -56 67 -56 11 0 73 27 137 60 64 33 120 60 125 60 28 0 -6
-27 -111 -84 l-118 -66 -104 0 c-112 1 -191 15 -254 47 -22 12 -59 27 -83 34
-23 7 -46 17 -52 23 -12 16 -26 496 -13 496 5 0 22 -13 38 -30 16 -16 39 -30
51 -30 12 0 24 -4 26 -9 2 -6 35 -8 80 -4 43 3 75 9 73 13 -3 5 -26 15 -52 24
-44 15 -83 41 -83 56 0 11 135 3 158 -9 38 -21 47 -11 16 18 -20 18 -48 31
-78 35 -44 7 -60 22 -34 31 7 2 47 7 88 9 41 3 77 5 80 6 3 0 -3 7 -13 14 -23
18 -5 31 23 16 34 -18 23 8 -12 31 -33 20 -39 20 -151 3 -33 -6 -39 -3 -44 15
-4 14 -16 22 -42 27 -81 13 -86 17 -89 67 -4 55 7 59 53 23 27 -21 31 -22 41
-7 11 14 14 14 31 -1 15 -14 22 -15 31 -6 9 9 18 9 37 0 34 -16 38 -15 31 4
-5 14 -1 16 29 11 19 -3 37 -2 40 3 3 5 12 7 20 3 8 -3 15 -1 15 4 0 12 -55
40 -92 48 -16 3 -28 12 -28 19 0 15 63 31 80 21 13 -8 52 14 48 27 -4 10 -75
40 -93 39 -5 -1 -45 -6 -87 -13 -69 -10 -82 -9 -118 7 -27 12 -39 23 -35 32 3
8 0 23 -5 33 -9 17 -6 18 35 16 25 -2 51 -9 59 -15 10 -9 20 -9 33 -3 12 7 36
7 68 1 27 -5 55 -7 62 -4 15 5 17 35 3 35 -39 0 39 67 221 189 122 82 363 206
477 246 37 13 93 33 126 45 129 47 446 103 636 114 110 6 340 -4 440 -20z
m1964 -1874 c49 -18 56 -52 56 -255 0 -203 -7 -237 -56 -255 -30 -12 -784 -14
-784 -2 0 4 -13 12 -28 18 -32 12 -142 142 -142 168 0 9 10 20 23 25 36 14 59
47 64 94 4 36 1 48 -20 73 -14 17 -43 36 -65 42 -46 14 -269 16 -235 2 12 -5
26 -18 32 -29 14 -25 15 -326 1 -351 -14 -26 -66 -50 -110 -50 -49 0 -60 13
-49 58 13 54 11 57 -12 28 -11 -14 -34 -33 -49 -41 -38 -20 -153 -20 -169 -1
-8 9 -11 45 -9 98 l3 83 49 3 c68 4 93 -4 110 -36 15 -26 15 -24 15 48 0 53
-3 69 -9 53 -13 -33 -44 -44 -108 -41 l-57 3 -3 68 c-4 89 3 97 87 97 59 0 70
-3 91 -25 32 -34 40 -32 40 10 l0 35 -172 -1 c-95 -1 -164 -3 -153 -6 41 -10
45 -29 45 -203 0 -177 -1 -182 -52 -213 -21 -13 -51 -17 -127 -17 -56 0 -103
4 -106 10 -3 5 -15 10 -25 10 -34 0 -50 38 -50 120 l1 75 67 100 c37 55 78
105 92 112 23 12 21 13 -26 13 -48 0 -51 -2 -47 -22 3 -24 -72 -158 -93 -165
-12 -4 -114 139 -114 160 0 9 6 18 13 20 6 3 -24 6 -68 6 -70 1 -77 -1 -56
-12 13 -6 57 -61 97 -121 74 -108 74 -109 74 -175 0 -72 -17 -111 -50 -111
-10 0 -22 -4 -25 -10 -8 -13 -315 -13 -349 0 -44 16 -41 46 17 216 70 202 64
190 90 202 18 9 10 11 -43 10 -36 0 -55 -3 -43 -5 12 -2 24 -10 26 -17 5 -12
-60 -207 -78 -236 -17 -27 -36 -3 -74 97 -53 137 -54 145 -16 154 18 4 -6 7
-60 7 -49 0 -83 -2 -75 -5 28 -10 49 -35 61 -70 10 -30 7 -44 -18 -109 -31
-83 -53 -95 -73 -41 -20 53 -70 200 -70 204 0 2 10 8 23 13 16 6 0 9 -58 9
-63 0 -75 -3 -58 -11 12 -6 25 -18 28 -27 39 -95 115 -319 115 -337 0 -40 -33
-64 -89 -64 -75 0 -93 24 -190 248 -46 105 -88 192 -93 192 -5 0 -11 -8 -15
-17 -13 -38 -132 -320 -149 -356 -21 -44 -61 -67 -118 -67 -64 0 -74 12 -43
50 21 24 27 42 27 79 0 40 -5 52 -32 78 -18 17 -59 47 -90 66 -75 47 -94 76
-76 114 11 23 21 29 54 31 45 3 83 -20 116 -72 l20 -31 -7 60 c-8 67 -11 73
-26 58 -8 -8 -20 -8 -41 -1 -16 6 -50 8 -76 5 -75 -8 -107 -63 -86 -144 4 -13
43 -49 89 -83 46 -33 87 -70 90 -81 11 -34 -3 -68 -36 -84 -28 -15 -33 -15
-76 6 -27 13 -53 36 -65 55 -11 19 -22 34 -24 34 -3 0 -2 -27 2 -61 5 -47 4
-63 -7 -70 -8 -5 -182 -9 -387 -9 -416 0 -430 2 -451 60 -14 41 -15 378 -1
415 22 58 -119 54 2297 55 1391 0 2231 -4 2247 -10z m-978 -117 c48 -22 66
-75 43 -127 -13 -29 -82 -60 -120 -54 -23 3 -24 7 -27 92 -2 49 -1 95 2 103 6
15 53 9 102 -14z m-2128 -149 c18 -36 30 -69 27 -75 -4 -5 -33 -9 -66 -9 -45
0 -61 4 -66 16 -7 19 46 134 62 134 6 0 25 -30 43 -66z m523 -79 c35 -88 37
-138 7 -159 -41 -29 -106 -17 -128 24 -8 15 -5 38 16 97 34 101 42 115 61 111
8 -2 28 -34 44 -73z m1545 17 c25 -17 125 -156 122 -171 -5 -25 -87 -27 -129
-3 -33 18 -34 21 -37 87 -2 37 -1 74 2 82 6 14 25 17 42 5z m-2006 -82 c28
-55 26 -76 -12 -94 -33 -17 -168 -23 -168 -7 0 5 -10 11 -21 14 -19 5 -21 11
-16 42 3 21 13 48 22 61 14 22 22 24 95 24 l80 0 20 -40z"/>
</g>
</svg>
