<?xml version="1.0" standalone="no"?>
<!DOCTYPE svg PUBLIC "-//W3C//DTD SVG 20010904//EN"
 "http://www.w3.org/TR/2001/REC-SVG-20010904/DTD/svg10.dtd">
<svg version="1.0" xmlns="http://www.w3.org/2000/svg"
 width="580.000000pt" height="400.000000pt" viewBox="0 0 580.000000 400.000000"
 preserveAspectRatio="xMidYMid meet">
<metadata>
Created by potrace 1.16, written by Peter Selinger 2001-2019
</metadata>
<g transform="translate(0.000000,400.000000) scale(0.100000,-0.100000)"
fill="#000000" stroke="none">
<path d="M2565 3698 c-110 -6 -202 -13 -205 -18 -3 -4 -47 -11 -98 -15 -50 -4
-94 -11 -97 -15 -3 -5 -43 -11 -90 -15 -47 -4 -87 -11 -90 -15 -3 -5 -14 -6
-26 -3 -11 3 -30 1 -42 -5 -12 -6 -42 -15 -67 -21 -102 -23 -176 -43 -191 -51
-9 -5 -45 -14 -80 -21 -35 -6 -68 -15 -74 -19 -5 -4 -26 -11 -45 -15 -19 -4
-44 -13 -55 -20 -11 -7 -36 -16 -55 -20 -19 -4 -44 -14 -55 -21 -11 -8 -26
-14 -35 -14 -8 -1 -33 -9 -55 -20 -22 -11 -47 -19 -56 -20 -8 0 -19 -4 -25 -9
-5 -5 -27 -14 -49 -21 -47 -14 -189 -82 -193 -92 -2 -5 -9 -8 -15 -8 -16 0
-201 -93 -205 -102 -2 -5 -9 -8 -15 -8 -7 0 -25 -7 -40 -15 -25 -13 -29 -13
-34 1 -11 31 5 133 26 163 12 16 21 34 21 40 0 6 5 11 10 11 6 0 10 4 10 9 0
6 -12 6 -30 0 -29 -11 -90 -76 -90 -98 0 -17 -20 -13 -27 7 -4 9 -15 25 -24
36 -17 18 -18 17 -24 -18 -8 -41 -33 -48 -72 -21 -12 9 -50 17 -85 19 -73 4
-118 14 -118 27 0 15 -34 10 -57 -9 -31 -25 -37 -61 -15 -103 13 -26 15 -40 8
-52 -8 -12 -7 -23 2 -37 6 -11 12 -32 12 -48 0 -15 7 -38 16 -50 19 -27 12
-52 -15 -52 -20 0 -35 -25 -25 -41 3 -5 11 -9 18 -9 6 0 17 -5 24 -12 8 -8 0
-18 -35 -40 -25 -16 -47 -38 -50 -48 -3 -11 -10 -20 -15 -20 -5 0 -6 -4 -3
-10 3 -5 11 -10 16 -10 6 0 8 4 5 8 -2 4 16 14 42 21 26 8 52 18 59 23 6 5 33
8 60 6 44 -3 48 -5 48 -29 0 -16 14 -42 37 -67 21 -23 38 -50 38 -60 0 -9 7
-30 15 -46 9 -16 15 -55 15 -90 0 -71 -26 -131 -78 -184 -37 -36 -38 -31 19
-99 15 -17 30 -45 34 -62 4 -17 11 -31 16 -31 12 0 12 -147 -1 -155 -5 -3 -14
-24 -20 -47 -6 -22 -27 -56 -46 -76 -37 -38 -37 -36 12 -92 12 -14 28 -42 35
-62 7 -21 17 -38 21 -38 12 0 10 -148 -2 -155 -6 -3 -15 -26 -21 -49 -6 -27
-24 -55 -45 -75 -30 -28 -32 -35 -21 -53 6 -12 21 -31 33 -42 12 -12 27 -38
35 -58 7 -21 17 -38 21 -38 11 0 10 -137 -1 -144 -5 -3 -12 -25 -15 -49 -5
-32 -16 -53 -41 -77 -19 -19 -35 -42 -35 -52 0 -15 -9 -18 -65 -18 -41 0 -65
4 -65 11 0 6 -7 8 -16 5 -9 -3 -31 3 -50 15 -22 13 -34 16 -34 8 0 -17 80 -89
99 -89 10 0 1 -14 -24 -40 -39 -40 -39 -40 -13 -40 38 0 54 -23 34 -52 -9 -12
-16 -39 -16 -60 0 -21 -4 -38 -10 -38 -13 0 -13 -37 0 -45 6 -4 5 -14 -4 -28
-21 -33 -28 -80 -17 -110 9 -22 17 -27 44 -27 18 0 43 7 55 16 14 9 50 18 86
19 42 3 75 11 100 26 41 24 66 15 66 -25 0 -44 16 -50 43 -15 l26 34 36 -43
c20 -23 42 -42 50 -42 7 0 15 -7 19 -15 3 -8 11 -15 17 -15 7 0 3 10 -9 23
-12 13 -22 28 -22 34 0 6 -7 24 -15 39 -18 35 -21 154 -4 154 16 0 38 -31 39
-55 0 -11 12 -42 26 -70 25 -50 63 -81 146 -118 33 -16 190 -17 2090 -14 1129
1 2060 5 2068 8 49 19 90 40 90 47 0 4 10 12 23 17 24 11 65 86 82 150 16 63
39 53 43 -18 2 -32 -1 -64 -6 -70 -5 -7 -13 -27 -17 -45 -4 -18 -13 -36 -20
-38 -15 -6 -28 -44 -15 -44 5 0 12 9 15 20 4 11 11 18 16 14 12 -7 59 34 59
52 0 14 28 27 41 18 5 -3 9 -12 9 -19 0 -8 9 -19 19 -24 21 -12 31 2 31 44 0
35 16 39 64 15 25 -12 71 -23 107 -25 34 -2 65 -9 69 -15 4 -6 25 -14 47 -17
38 -5 40 -3 57 32 16 33 16 38 2 61 -10 14 -18 54 -21 94 -3 39 -11 80 -19 93
-8 12 -17 32 -21 44 -6 20 -2 23 35 29 l41 7 -35 33 c-40 37 -43 44 -22 44 8
0 16 7 20 15 3 8 12 15 19 15 19 0 50 36 42 49 -9 15 -24 13 -70 -9 -47 -23
-137 -27 -154 -7 -6 8 -8 17 -5 20 4 3 -11 27 -33 51 -44 50 -53 81 -53 183 0
45 6 75 22 105 28 55 59 101 76 111 10 7 3 20 -27 53 -23 24 -41 50 -41 58 0
8 -6 16 -12 18 -9 3 -13 35 -13 113 0 78 4 109 13 112 6 3 12 10 12 16 0 14
51 90 68 101 11 6 6 16 -21 45 -59 61 -79 120 -75 218 1 46 8 87 13 91 6 4 16
18 23 32 27 54 41 74 57 83 15 8 13 14 -18 46 -19 20 -44 57 -57 83 -20 40
-22 57 -18 134 3 54 9 89 16 92 7 2 12 10 12 18 0 8 19 35 42 60 30 32 38 48
30 56 -6 6 -8 17 -5 24 6 16 103 20 119 5 5 -5 26 -14 47 -21 50 -16 68 -1 38
29 -12 12 -24 21 -27 21 -3 0 -17 9 -30 19 l-25 19 31 22 c25 18 28 25 19 36
-6 8 -20 14 -30 14 -29 0 -32 18 -9 64 12 25 23 71 25 107 2 34 8 65 13 68 14
10 22 41 16 65 -3 12 -20 30 -38 40 -32 17 -35 17 -59 1 -15 -10 -53 -18 -96
-20 -42 -3 -81 -11 -94 -20 -38 -27 -64 -20 -72 21 -6 35 -7 35 -26 18 -10 -9
-19 -23 -19 -30 0 -24 -21 -25 -40 -2 -11 13 -19 28 -20 33 0 14 -28 37 -63
53 -41 18 -42 16 -13 -23 14 -19 29 -48 32 -65 4 -16 10 -30 15 -30 12 0 12
-107 0 -114 -10 -6 -74 23 -79 37 -2 4 -9 7 -15 7 -15 0 -121 53 -125 63 -2 4
-9 7 -15 7 -13 0 -199 91 -207 101 -3 3 -29 12 -57 19 -29 8 -53 17 -53 22 0
4 -8 8 -17 8 -10 1 -36 9 -58 20 -22 11 -46 19 -53 20 -7 0 -32 8 -55 19 -23
10 -57 22 -74 26 -18 3 -33 11 -33 16 0 5 -9 9 -21 9 -12 0 -35 7 -52 14 -18
8 -58 20 -91 25 -32 6 -64 15 -70 20 -6 5 -31 12 -56 16 -25 3 -58 12 -75 20
-16 7 -52 16 -80 20 -27 4 -52 11 -55 15 -3 4 -57 13 -120 20 -63 7 -119 16
-125 20 -5 4 -50 11 -100 15 -49 4 -94 11 -100 15 -11 8 -459 31 -566 28 -35
0 -154 -5 -264 -10z m343 -640 c-3 -7 -14 -14 -26 -16 -12 -2 -22 -7 -22 -12
0 -4 -12 -11 -27 -15 -28 -7 -56 -32 -86 -78 l-18 -28 -29 21 c-15 11 -33 20
-39 20 -6 0 -11 4 -11 9 0 5 -14 12 -30 16 -17 4 -44 13 -61 22 -22 11 -45 13
-86 8 -62 -8 -79 -15 -140 -63 -40 -31 -44 -32 -65 -18 -12 9 -29 16 -38 16
-8 0 -28 7 -44 15 -15 8 -46 15 -68 15 -73 0 -29 18 74 30 57 6 112 15 123 20
34 15 216 33 315 31 52 -1 102 3 110 9 23 15 173 13 168 -2z m547 -38 c11 -4
66 -14 123 -20 56 -7 104 -16 107 -20 3 -5 31 -12 63 -16 31 -3 62 -10 67 -14
6 -4 35 -11 65 -15 30 -4 67 -13 82 -20 15 -7 42 -17 60 -20 18 -4 38 -11 43
-15 6 -4 38 -13 73 -20 34 -7 62 -16 62 -20 0 -3 24 -12 53 -18 28 -7 80 -26
115 -42 112 -54 186 -87 222 -101 19 -7 37 -16 40 -19 3 -3 21 -12 40 -20 19
-7 67 -41 107 -74 40 -34 84 -70 97 -81 14 -11 26 -24 26 -29 0 -4 11 -21 25
-38 14 -16 25 -34 25 -39 0 -12 -77 -12 -85 1 -8 13 -98 13 -111 0 -15 -15
-482 -22 -491 -7 -4 7 -15 37 -23 67 -12 43 -21 58 -45 70 -16 8 -31 18 -33
22 -2 4 -19 10 -38 14 -19 3 -37 10 -40 15 -3 5 -24 9 -48 9 -32 0 -48 6 -66
25 -13 14 -29 25 -37 25 -17 0 -17 19 2 40 13 14 13 19 -1 38 -8 12 -21 22
-28 22 -7 0 -61 24 -119 54 -59 29 -128 57 -154 61 -27 4 -54 12 -62 18 -8 7
-53 12 -105 13 -123 2 -126 2 -126 19 0 20 -114 135 -134 135 -9 0 -16 5 -16
11 0 13 232 4 265 -11z m-637 -292 c8 -8 68 -11 213 -10 154 1 200 -1 197 -10
-3 -7 -21 -17 -41 -21 -20 -5 -37 -13 -37 -18 0 -5 -6 -9 -14 -9 -15 0 -56
-75 -56 -102 0 -29 -25 -40 -56 -24 -28 14 -51 23 -84 34 -37 11 -103 13 -112
4 -12 -12 -58 5 -58 21 0 15 -41 57 -56 57 -7 0 -17 6 -21 14 -4 7 -25 19 -45
25 -45 15 -50 31 -9 31 17 0 33 5 36 10 9 14 128 13 143 -2z m-339 -24 c3 -2
-8 -17 -23 -33 -15 -15 -29 -44 -33 -64 -4 -27 -11 -37 -24 -37 -10 0 -20 -4
-23 -9 -3 -4 -23 -11 -45 -15 -22 -3 -44 -12 -48 -19 -4 -6 -17 -17 -28 -23
-34 -18 -63 -84 -64 -141 l-1 -53 70 0 c39 0 70 -4 70 -8 0 -5 133 -13 295
-18 208 -7 298 -13 307 -22 14 -14 124 -16 133 -2 9 14 109 12 124 -2 9 -10
87 -12 339 -10 181 2 331 8 336 13 33 31 134 -12 107 -45 -16 -19 -132 -76
-154 -76 -9 0 -17 -4 -17 -8 0 -6 -46 -28 -70 -33 -3 -1 -14 -8 -25 -15 -11
-8 -29 -14 -41 -14 -11 0 -24 -3 -28 -7 -12 -13 -81 -33 -113 -33 -17 0 -35
-4 -38 -10 -3 -5 -24 -10 -45 -10 -21 0 -42 5 -45 10 -3 6 -30 10 -60 10 -30
0 -57 -4 -60 -10 -9 -15 -109 -12 -142 4 -185 91 -243 116 -271 116 -18 0 -32
-4 -32 -9 0 -5 -39 -12 -87 -16 -68 -6 -93 -12 -110 -28 -13 -11 -23 -24 -23
-29 0 -19 -68 -98 -100 -115 -19 -10 -56 -35 -81 -55 -26 -21 -52 -38 -58 -38
-6 0 -11 -4 -11 -8 0 -4 -12 -13 -27 -19 -16 -7 -59 -30 -98 -52 -38 -23 -81
-46 -95 -53 -14 -7 -28 -18 -33 -25 -4 -7 -24 -15 -45 -19 -20 -4 -43 -11 -50
-17 -8 -7 -16 -7 -23 0 -5 5 -12 97 -15 204 -3 107 -10 203 -15 214 -6 12 -9
45 -7 75 3 48 6 55 26 58 16 3 22 10 22 28 0 15 -6 24 -15 24 -19 0 -19 14 -2
32 8 7 12 20 9 28 -3 8 -2 12 2 9 11 -10 59 38 51 50 -3 7 0 8 9 5 9 -3 16 -1
16 5 0 6 9 20 20 31 14 14 16 20 6 20 -15 0 -76 -65 -76 -81 0 -6 -5 -7 -12
-3 -6 4 -8 3 -4 -4 3 -6 -3 -14 -14 -17 -12 -4 -26 -17 -32 -31 -6 -13 -15
-21 -19 -18 -5 3 -9 -2 -9 -10 0 -24 -22 -18 -54 14 -23 24 -32 27 -43 18 -13
-10 -13 -14 -1 -22 7 -6 24 -24 36 -40 21 -28 22 -35 16 -150 -4 -73 -11 -124
-18 -128 -18 -10 -7 -88 11 -88 11 0 14 8 11 29 -2 17 -1 28 3 25 4 -2 9 2 12
8 13 37 22 -19 25 -146 l3 -143 -83 -6 c-46 -4 -111 -7 -146 -7 -36 0 -72 -6
-85 -14 -12 -8 -37 -17 -54 -21 l-33 -7 0 69 c0 38 -4 73 -9 78 -5 6 -11 112
-15 238 -6 224 -6 227 14 227 26 0 35 22 20 50 -9 16 -15 19 -24 10 -10 -8
-15 -6 -19 10 -3 11 -11 20 -17 20 -7 0 -10 -7 -6 -15 3 -8 2 -14 -2 -14 -42
7 -73 -20 -53 -45 12 -15 20 -76 9 -76 -4 0 -8 -27 -8 -60 0 -34 -4 -60 -10
-60 -16 0 -8 -113 9 -118 10 -3 12 5 9 37 -2 29 1 42 11 46 7 3 16 3 19 1 7
-8 15 -361 8 -389 -4 -18 -15 -27 -38 -33 -18 -3 -42 -12 -53 -20 -11 -7 -38
-16 -60 -20 -22 -3 -44 -10 -50 -14 -5 -4 -28 -11 -50 -14 -22 -4 -49 -13 -60
-20 -11 -7 -35 -16 -52 -19 l-33 -6 0 72 c0 40 -4 77 -9 82 -5 6 -11 119 -15
253 l-6 242 25 0 c27 0 48 31 27 38 -7 2 -12 10 -12 19 0 10 -6 12 -20 8 -31
-10 -25 14 12 47 17 15 29 31 26 34 -9 8 25 42 37 36 6 -3 7 -2 3 3 -5 5 1 14
12 22 11 8 25 24 31 36 11 21 10 20 -16 -3 -63 -56 -136 -132 -131 -137 9 -9
-22 -33 -42 -33 -11 0 -22 9 -25 20 -3 11 -13 23 -24 27 -10 3 -36 21 -59 40
-38 31 -74 43 -74 26 0 -5 32 -37 71 -73 l72 -66 6 -72 c4 -40 3 -72 -1 -72
-4 0 -8 -45 -8 -101 0 -64 -4 -98 -10 -94 -6 4 -10 -15 -10 -48 0 -41 4 -56
16 -61 13 -5 16 0 12 29 -3 24 1 36 10 40 8 3 18 3 21 -1 3 -3 7 -84 9 -180 3
-168 3 -174 -16 -174 -39 0 -197 201 -232 295 -8 22 -18 45 -21 50 -4 6 -10
29 -14 52 -4 24 -11 45 -16 49 -12 7 -12 221 0 229 5 3 13 30 16 60 4 30 11
55 16 55 5 0 9 7 9 16 0 26 66 157 89 178 12 11 21 25 21 32 0 7 8 19 18 26 9
7 25 26 35 41 10 15 25 31 34 34 9 4 24 13 32 20 50 44 104 83 114 83 7 0 26
8 42 17 24 13 75 18 270 25 132 4 254 8 272 8 17 0 34 4 38 10 8 13 192 13
200 0 8 -13 215 -12 215 1 0 4 19 10 43 12 48 5 309 -2 316 -9z m1220 -46 c32
-23 8 -36 -77 -44 -40 -4 -72 -10 -72 -14 0 -4 -9 -10 -21 -13 -11 -3 -23 -15
-26 -26 -8 -32 -19 -25 -44 25 -12 26 -35 54 -50 63 -16 9 -29 20 -29 25 0 16
295 0 319 -16z m601 -385 c0 -9 53 -9 133 1 31 4 62 4 69 0 7 -4 31 -7 54 -5
23 1 45 -2 49 -8 8 -14 112 -14 120 0 8 12 233 10 241 -3 3 -4 16 -8 29 -8 20
0 25 -6 31 -37 4 -21 12 -44 18 -52 15 -19 15 -303 0 -322 -7 -8 -15 -29 -19
-48 -14 -66 -109 -234 -163 -288 -55 -56 -72 -64 -72 -35 0 9 -5 123 -10 252
-6 129 -7 242 -4 252 3 10 13 18 23 18 14 0 17 6 13 25 -2 14 -8 25 -13 25 -5
0 -9 9 -9 21 0 13 4 18 13 13 6 -4 9 -4 5 0 -8 10 23 47 34 40 4 -3 8 1 8 8 0
8 16 29 35 48 19 19 35 39 35 44 0 6 -41 -31 -90 -81 -50 -51 -96 -93 -104
-93 -7 0 -16 9 -19 20 -3 12 -14 20 -25 20 -12 0 -24 5 -28 12 -5 7 -2 8 7 3
11 -6 11 -5 3 5 -7 6 -23 13 -37 13 -13 1 -23 7 -20 13 2 6 -3 14 -11 17 -9 4
-16 2 -16 -3 0 -13 37 -50 51 -50 5 0 7 -4 4 -10 -3 -5 1 -10 9 -10 32 0 53
-35 55 -90 1 -29 4 -57 7 -61 3 -5 0 -9 -5 -9 -7 0 -11 -32 -11 -86 0 -54 -4
-83 -10 -79 -6 4 -10 -12 -10 -39 0 -34 4 -46 15 -46 9 0 15 9 15 24 0 29 19
44 31 25 5 -8 9 -80 9 -161 0 -116 -3 -150 -15 -161 -33 -33 -102 -55 -214
-65 -62 -7 -118 -16 -125 -21 -6 -5 -22 -11 -36 -13 -25 -3 -25 -2 -31 92 -4
52 -10 188 -13 303 -7 202 -6 207 13 207 11 0 22 4 25 9 9 14 -12 63 -24 56
-18 -11 -10 11 10 30 11 10 20 27 20 37 0 11 4 17 9 13 5 -3 12 -1 15 4 4 5 1
13 -5 16 -13 9 -101 -75 -95 -91 7 -20 -41 -3 -65 22 -22 23 -59 33 -59 16 0
-5 11 -19 25 -32 14 -13 25 -31 25 -41 0 -10 5 -21 10 -24 14 -8 13 -105 -1
-105 -7 0 -9 -31 -7 -90 2 -50 0 -90 -4 -90 -12 0 -10 -88 2 -95 6 -4 10 8 10
29 0 20 5 36 11 36 7 0 10 23 7 64 -1 35 0 62 5 59 4 -2 7 -31 7 -63 0 -32 5
-62 10 -65 6 -4 10 -66 10 -153 l0 -147 -30 -13 c-35 -16 -96 -12 -93 5 4 18
-21 11 -29 -8 -6 -15 -102 -29 -205 -29 l-33 0 0 55 c0 30 -3 55 -7 55 -5 0
-14 12 -20 27 -12 24 -10 30 12 53 45 47 24 131 -35 138 -79 10 -106 15 -114
23 -14 12 -156 12 -156 -1 0 -14 -26 -13 -49 2 -15 9 -23 9 -36 -2 -24 -20
-51 -22 -65 -5 -7 8 -19 15 -27 15 -12 0 -14 -7 -8 -32 4 -18 8 -44 9 -58 3
-39 16 -59 52 -84 18 -12 43 -34 54 -49 18 -22 19 -29 8 -46 -10 -16 -10 -23
0 -33 6 -6 12 -22 12 -35 0 -21 -5 -23 -47 -23 -72 0 -75 4 -77 114 -1 111 -5
116 -78 116 -37 0 -50 4 -58 20 -6 11 -8 24 -5 29 10 17 -7 41 -30 41 -14 0
-25 -7 -28 -20 -3 -11 -17 -24 -31 -30 -31 -11 -33 -25 -6 -42 15 -10 20 -24
20 -54 0 -25 6 -47 15 -54 8 -7 15 -19 15 -26 0 -8 5 -14 11 -14 6 0 9 -16 7
-37 l-3 -38 -62 -3 c-35 -2 -63 -7 -63 -12 0 -12 -47 -13 -54 -1 -9 14 -196
13 -196 -1 0 -9 -3 -9 -12 0 -7 7 -41 12 -80 12 -38 0 -74 5 -81 11 -9 9 -10
31 -3 91 8 70 12 81 33 89 13 5 28 20 33 34 5 14 17 28 25 31 8 4 15 11 15 18
1 20 38 56 59 56 11 0 34 8 51 18 l30 19 -30 28 c-33 32 -38 45 -15 45 8 0 15
5 15 10 0 6 6 10 14 10 9 0 13 12 12 37 -1 51 -27 55 -72 12 -29 -28 -34 -30
-34 -13 -1 17 -2 17 -20 -5 -11 -13 -20 -29 -20 -36 0 -7 -7 -15 -15 -19 -8
-3 -15 -12 -15 -21 0 -8 -7 -15 -15 -15 -8 0 -15 -7 -15 -16 0 -13 -17 -15
-122 -14 -123 1 -168 -4 -168 -21 0 -5 -12 -14 -26 -19 -25 -10 -26 -13 -24
-78 4 -93 3 -100 -20 -107 -15 -5 -18 -12 -13 -36 3 -19 1 -29 -6 -29 -8 0
-11 -12 -9 -32 l3 -33 -50 2 c-81 2 -146 23 -174 56 -7 10 -20 17 -27 17 -8 0
-14 5 -14 10 0 6 -7 10 -15 10 -12 0 -15 13 -15 55 0 46 4 59 31 89 20 23 40
36 62 38 23 2 35 11 47 33 8 17 18 31 22 33 4 2 10 19 14 39 4 19 14 37 23 40
9 4 31 19 49 35 18 16 37 26 42 23 6 -3 20 3 32 14 12 12 30 21 40 21 11 0 44
24 75 52 30 29 73 62 96 73 28 15 48 35 66 69 14 26 35 52 46 58 11 6 25 16
30 22 25 28 82 46 140 44 72 -1 131 -21 290 -99 l60 -29 174 5 c96 3 179 9
185 14 6 5 32 12 58 15 26 4 50 11 53 17 4 5 16 9 29 9 12 0 53 16 90 35 38
19 72 33 76 30 5 -3 20 0 35 7 19 9 31 9 44 1 15 -9 24 -3 60 38 23 27 49 49
57 49 7 0 14 4 14 8 0 5 17 14 38 21 23 8 44 24 54 42 16 28 20 29 88 29 38 0
70 -3 70 -7z m-2200 -658 c0 -9 -13 -24 -30 -33 -16 -9 -30 -20 -30 -24 0 -5
-7 -8 -15 -8 -9 0 -36 -19 -60 -41 -33 -30 -45 -49 -45 -70 0 -15 -4 -31 -10
-34 -5 -3 -10 -17 -10 -31 0 -20 -5 -24 -29 -24 -17 0 -33 -4 -36 -10 -3 -5
-17 -10 -30 -10 -13 0 -27 5 -30 10 -4 6 -53 10 -115 10 -62 0 -111 -4 -115
-10 -9 -14 -48 -13 -63 2 -7 7 -48 12 -109 13 -78 1 -107 6 -145 23 -26 12
-56 22 -66 22 -11 0 -25 7 -32 15 -15 17 -12 18 75 35 33 7 65 15 70 19 6 4
36 13 67 20 32 7 78 23 103 37 25 13 62 24 81 24 43 0 124 20 124 30 0 4 82
11 183 15 100 4 187 11 192 15 6 5 21 10 35 13 14 2 28 5 33 6 4 0 7 -6 7 -14z
m516 -255 c6 -30 7 -56 2 -58 -12 -5 -10 -42 3 -42 5 0 7 -4 4 -10 -7 -11
-203 -14 -229 -4 -18 7 -23 64 -6 64 6 0 10 8 10 17 0 9 17 34 37 55 37 38 39
39 103 36 l65 -3 11 -55z m1127 -5 c9 -20 17 -53 17 -75 l0 -39 -69 3 c-38 2
-74 6 -80 10 -14 9 -15 73 -1 81 6 3 10 15 10 25 0 15 9 20 43 23 23 2 47 4
53 5 6 1 18 -14 27 -33z"/>
<path d="M1606 2431 c-31 -31 -46 -54 -41 -62 5 -8 4 -10 -4 -5 -16 10 -77
-52 -63 -66 7 -7 12 -3 17 11 3 12 11 18 17 15 6 -4 8 -3 5 3 -4 6 5 15 18 21
14 7 25 17 25 23 0 6 18 29 40 51 34 34 49 58 37 58 -1 0 -24 -22 -51 -49z"/>
<path d="M1280 2394 c0 -8 69 -74 77 -74 3 0 17 -12 30 -26 17 -19 28 -23 35
-16 12 12 -9 39 -33 44 -20 5 -38 22 -32 32 3 5 0 7 -8 4 -7 -2 -24 6 -37 19
-23 23 -32 28 -32 17z"/>
<path d="M1764 2355 c11 -8 24 -15 29 -15 4 0 5 -5 1 -12 -4 -6 -3 -8 4 -4 5
3 12 0 15 -6 2 -7 8 -10 12 -6 10 9 -44 58 -64 58 -13 -1 -13 -3 3 -15z"/>
<path d="M1390 1880 c0 -16 5 -30 10 -30 6 0 10 14 10 30 0 17 -4 30 -10 30
-5 0 -10 -13 -10 -30z"/>
<path d="M4406 2109 c-20 -23 -34 -44 -30 -48 4 -3 9 0 11 7 3 6 9 10 14 6 5
-3 12 3 16 13 3 10 15 28 26 41 11 12 16 22 10 22 -5 0 -26 -19 -47 -41z"/>
<path d="M4083 2060 c-2 -26 44 -67 59 -52 15 15 -9 45 -33 39 -11 -3 -16 0
-13 8 3 7 1 15 -3 18 -5 3 -9 -3 -10 -13z"/>
<path d="M2310 1680 c-9 -6 -10 -10 -3 -10 6 0 15 5 18 10 8 12 4 12 -15 0z"/>
<path d="M3866 1598 c3 -5 10 -6 15 -3 13 9 11 12 -6 12 -8 0 -12 -4 -9 -9z"/>
<path d="M5700 2760 c0 -5 5 -10 10 -10 6 0 10 5 10 10 0 6 -4 10 -10 10 -5 0
-10 -4 -10 -10z"/>
<path d="M5700 910 c0 -5 5 -10 10 -10 6 0 10 5 10 10 0 6 -4 10 -10 10 -5 0
-10 -4 -10 -10z"/>
</g>
</svg>
