<?xml version="1.0" standalone="no"?>
<!DOCTYPE svg PUBLIC "-//W3C//DTD SVG 20010904//EN"
 "http://www.w3.org/TR/2001/REC-SVG-20010904/DTD/svg10.dtd">
<svg version="1.0" xmlns="http://www.w3.org/2000/svg"
 width="580.000000pt" height="400.000000pt" viewBox="0 0 580.000000 400.000000"
 preserveAspectRatio="xMidYMid meet">
<metadata>
Created by potrace 1.16, written by Peter Selinger 2001-2019
</metadata>
<g transform="translate(0.000000,400.000000) scale(0.100000,-0.100000)"
fill="#000000" stroke="none">
<path d="M2635 3625 c-36 -6 -229 -26 -290 -29 -75 -5 -327 -51 -530 -98 -88
-20 -340 -99 -380 -119 -11 -5 -33 -13 -50 -18 -30 -9 -114 -41 -210 -79 -27
-11 -66 -26 -85 -33 -19 -7 -57 -20 -85 -30 -27 -10 -87 -26 -132 -34 -77 -15
-88 -15 -208 5 -123 20 -157 31 -312 108 -28 14 -35 14 -77 -2 -36 -14 -50
-26 -61 -53 -22 -52 -19 -80 17 -142 28 -48 32 -66 32 -121 0 -43 -9 -87 -24
-130 -20 -56 -24 -83 -24 -190 0 -118 2 -129 31 -191 17 -37 42 -83 56 -104
l25 -36 -34 -65 c-19 -36 -34 -70 -34 -75 0 -5 -9 -28 -19 -52 -25 -55 -51
-196 -51 -273 0 -62 23 -201 40 -239 5 -11 21 -49 36 -85 16 -36 36 -78 45
-94 17 -29 17 -30 -17 -83 -19 -29 -34 -56 -34 -59 0 -3 -10 -26 -22 -52 -19
-41 -22 -64 -22 -177 0 -129 12 -187 56 -281 12 -26 -1 -71 -46 -159 -17 -33
-30 -76 -30 -96 -1 -52 32 -117 68 -137 29 -16 215 -17 2601 -20 2891 -3 2643
-9 2683 73 32 66 29 115 -12 188 -51 94 -53 112 -15 230 28 87 33 117 34 202
0 55 -6 120 -13 145 -19 64 -60 150 -71 150 -11 0 -26 39 -22 58 1 7 17 39 36
71 19 32 39 76 44 97 6 21 17 66 25 99 21 82 21 272 0 350 -9 33 -20 76 -25
95 -8 36 -39 101 -58 123 -32 40 -31 64 8 123 56 88 76 160 76 279 -1 85 -6
116 -34 203 -39 120 -37 146 15 235 19 32 34 70 34 85 0 30 -27 76 -56 96 -45
31 -69 28 -183 -24 -60 -28 -127 -53 -148 -56 -21 -2 -45 -6 -53 -9 -8 -2 -47
-9 -86 -15 -59 -8 -88 -6 -170 10 -55 10 -113 26 -129 34 -17 9 -36 16 -43 16
-7 0 -32 9 -54 20 -23 11 -49 20 -58 20 -9 0 -20 4 -26 9 -5 5 -36 19 -69 31
-156 59 -192 72 -220 80 -16 5 -76 25 -133 44 -57 20 -111 36 -119 36 -9 0
-46 8 -82 19 -61 17 -150 36 -362 75 -47 9 -119 19 -160 22 -41 3 -105 10
-144 15 -66 10 -598 21 -640 14z m410 -181 c44 -16 48 -16 57 0 14 24 38 20
38 -7 0 -13 3 -58 6 -100 6 -71 6 -77 -12 -77 -13 0 -28 19 -49 63 -28 59 -33
63 -85 81 -47 16 -61 17 -98 7 -51 -14 -78 -43 -109 -114 -38 -89 -24 -213 31
-275 28 -32 84 -60 133 -65 43 -5 124 26 146 57 11 14 15 15 31 3 18 -13 17
-15 -15 -37 -19 -13 -36 -27 -39 -31 -10 -14 -95 -39 -133 -39 -194 -1 -316
178 -252 370 25 77 57 114 128 149 73 36 146 40 222 15z m-715 -34 c0 -5 -6
-10 -14 -10 -8 0 -24 -13 -35 -29 -19 -27 -20 -35 -10 -107 5 -44 14 -128 18
-187 8 -93 12 -112 32 -134 22 -23 28 -24 87 -18 35 4 79 13 97 21 35 14 85
67 85 89 0 12 29 30 36 22 5 -5 -16 -116 -27 -144 -7 -18 -17 -23 -43 -23 -18
0 -101 -9 -182 -20 -82 -11 -166 -20 -186 -20 -47 0 -51 21 -7 37 l30 12 -6
98 c-9 142 -33 320 -45 344 -6 11 -24 22 -41 26 -46 9 -36 31 19 38 26 3 54 8
62 9 37 8 130 5 130 -4z m1202 4 c3 -3 4 -14 1 -24 -3 -13 -18 -21 -46 -25
-23 -4 -53 -17 -65 -29 -60 -54 -90 -173 -76 -298 6 -53 12 -68 40 -95 17 -18
42 -33 54 -33 18 0 20 -4 14 -22 -3 -13 -7 -24 -9 -26 -1 -1 -26 9 -56 22 -88
39 -139 109 -154 210 -10 65 25 175 72 227 57 62 198 121 225 93z m75 -19 c72
-30 123 -96 147 -192 13 -50 14 -71 5 -115 -23 -107 -69 -167 -158 -203 -57
-24 -141 -34 -141 -17 1 17 17 30 52 40 109 30 161 142 143 307 -8 75 -36 125
-80 139 -39 13 -38 11 -30 35 8 25 14 26 62 6z m433 -78 c30 -12 56 -22 57
-22 4 -1 43 -363 43 -405 l1 -45 152 158 152 157 35 -8 c19 -5 49 -16 67 -25
18 -10 39 -17 48 -17 9 0 15 -9 15 -21 0 -13 -5 -19 -12 -16 -51 18 -56 18
-77 -12 -12 -16 -21 -32 -21 -36 0 -4 -12 -37 -26 -73 -14 -37 -35 -92 -46
-122 -11 -30 -29 -77 -40 -104 -23 -56 -19 -85 16 -106 17 -10 22 -20 17 -29
-7 -10 -15 -10 -42 5 -19 9 -47 21 -64 25 -74 19 -125 42 -125 56 0 11 7 13
24 9 38 -9 51 1 76 57 12 29 31 71 41 95 10 23 19 47 19 53 0 5 8 29 19 52 50
112 54 115 -216 -147 -51 -50 -95 -87 -98 -84 -3 3 -8 39 -11 79 -13 202 -28
349 -35 349 -5 0 -15 -21 -23 -47 -8 -27 -29 -86 -47 -133 -45 -121 -48 -147
-15 -161 14 -7 26 -16 26 -20 0 -20 -25 -18 -87 6 -38 15 -81 31 -96 37 -30
12 -31 34 -1 31 10 -2 30 0 44 3 28 5 29 7 90 174 21 58 50 136 64 173 25 66
25 70 8 92 -9 13 -25 26 -36 29 -28 7 -8 27 22 20 15 -3 52 -15 82 -27z
m-2139 -17 c3 -19 9 -45 13 -56 5 -15 2 -23 -10 -28 -10 -4 -18 0 -21 13 -4
18 -25 32 -67 45 -29 10 -154 -32 -167 -55 -7 -15 -6 -33 4 -67 9 -26 18 -59
21 -74 7 -32 18 -33 90 -14 57 15 96 48 96 81 0 23 16 42 26 32 2 -2 11 -28
20 -58 8 -30 20 -71 26 -92 16 -57 -2 -69 -42 -27 -33 35 -30 35 -145 12 -46
-9 -47 -13 -14 -123 10 -36 19 -74 19 -83 0 -22 35 -21 127 6 63 18 78 27 99
57 13 20 24 48 24 63 0 16 2 28 4 28 2 0 11 3 20 6 14 5 16 -5 16 -75 l0 -80
-67 -20 c-38 -11 -106 -29 -153 -42 -47 -12 -112 -30 -145 -39 -55 -16 -61
-16 -69 -2 -6 11 -5 17 3 20 45 15 51 63 22 156 -11 34 -29 99 -41 146 -40
156 -46 168 -87 172 -20 2 -38 8 -40 15 -4 11 75 42 120 47 23 3 82 20 197 55
92 28 113 25 121 -19z m-526 -120 c3 -5 -4 -19 -15 -30 -18 -18 -20 -28 -14
-103 3 -45 14 -149 25 -231 22 -176 24 -236 7 -236 -7 1 -67 52 -133 115 -66
62 -120 113 -122 112 -1 -2 5 -74 13 -162 8 -88 12 -166 9 -174 -4 -10 -69 48
-205 183 -186 185 -201 198 -230 194 -17 -3 -33 -1 -36 3 -8 13 176 101 195
94 14 -6 13 -8 -5 -23 -11 -9 -20 -23 -20 -29 1 -11 227 -235 232 -230 2 1 -2
52 -7 112 l-9 110 -43 37 c-40 36 -52 39 -96 27 -7 -2 -15 1 -18 7 -6 18 205
120 219 106 8 -8 4 -14 -15 -23 -50 -23 -36 -48 94 -170 108 -101 121 -110
116 -84 -3 17 -9 68 -12 115 -8 113 -16 183 -22 193 -3 4 -19 7 -35 5 -57 -6
-42 20 34 57 80 38 84 39 93 25z m3570 -255 c33 -20 76 -46 95 -58 20 -12 55
-33 78 -47 23 -14 42 -29 42 -34 0 -4 -14 -30 -31 -57 -32 -49 -55 -56 -45
-13 11 41 -23 88 -92 127 -78 45 -93 40 -146 -50 -43 -74 -46 -66 48 -114 58
-30 60 -31 93 -15 19 9 38 16 43 16 16 0 11 -25 -9 -51 -10 -13 -31 -47 -45
-76 -19 -36 -32 -50 -42 -46 -10 4 -14 13 -10 29 10 37 -14 72 -73 109 -30 19
-58 35 -62 35 -3 0 -24 -28 -46 -62 -75 -117 -75 -119 -15 -157 20 -13 49 -32
64 -43 38 -26 124 -25 153 2 18 17 24 18 39 7 17 -12 13 -17 -40 -64 l-59 -51
-110 68 c-60 38 -128 78 -150 90 -125 68 -151 98 -82 92 30 -3 41 2 62 25 13
15 25 32 25 37 0 5 16 31 35 57 19 27 35 52 35 56 0 3 11 21 25 39 14 18 25
35 25 39 0 3 5 11 10 18 27 32 60 90 60 104 0 9 -9 27 -21 39 -35 38 -13 46
39 14 26 -16 74 -45 107 -65z m-1865 -195 c360 -26 569 -65 909 -171 69 -22
129 -39 134 -39 5 0 28 -9 51 -19 23 -10 86 -38 141 -61 161 -68 360 -171 453
-234 93 -63 147 -175 146 -301 -1 -104 -31 -172 -114 -255 -64 -64 -99 -83
-174 -94 -27 -4 -54 -10 -61 -12 -29 -11 -43 204 -14 221 4 3 11 -15 15 -40 4
-30 13 -49 26 -56 27 -15 31 -8 14 32 -7 19 -14 69 -15 112 -2 64 -6 86 -26
117 -29 46 -39 49 -133 47 -71 -2 -75 -4 -103 -37 -43 -51 -56 -79 -64 -140
-4 -30 -12 -61 -18 -68 -7 -8 -7 -16 -1 -20 5 -4 9 -20 10 -37 0 -16 3 -53 8
-82 l8 -51 -32 2 c-17 1 -33 -1 -35 -5 -3 -3 -15 -4 -29 -2 -23 5 -24 8 -22
71 1 37 -2 73 -7 80 -6 7 -6 17 0 25 22 27 22 58 0 78 -22 21 -28 21 -112 4
-26 -5 -33 -2 -54 29 -21 32 -56 54 -67 43 -3 -2 -9 -19 -14 -36 -8 -29 -7
-32 11 -29 22 3 38 -20 58 -83 12 -40 15 -148 3 -165 -4 -7 -33 -14 -65 -16
-50 -4 -57 -2 -52 12 6 19 -16 42 -36 38 -7 -2 -16 10 -20 27 -5 25 -7 26 -8
7 0 -13 -5 -20 -11 -17 -6 4 -7 -1 -3 -12 5 -14 3 -15 -7 -7 -16 15 -48 -13
-42 -38 3 -15 -9 -16 -130 -13 -73 2 -137 4 -143 5 -5 1 -12 1 -15 0 -41 -15
-42 -12 -35 83 4 51 13 107 21 125 18 44 -5 184 -35 216 -24 26 -28 74 -6 82
31 12 6 104 -28 104 -7 0 -18 10 -26 22 -12 19 -11 23 5 35 17 13 17 15 -10
39 l-27 26 -21 -21 c-14 -16 -18 -30 -14 -47 5 -20 -1 -32 -30 -59 -20 -19
-40 -32 -45 -29 -11 6 -12 -10 -2 -20 4 -4 6 -28 5 -54 -7 -120 -52 -131 -52
-12 0 59 -3 69 -22 82 -21 14 -22 17 -9 41 13 24 12 28 -10 46 -21 17 -26 18
-35 6 -6 -8 -19 -15 -28 -15 -20 0 -20 -9 -1 -37 14 -19 13 -22 -10 -37 -14
-9 -25 -25 -25 -36 0 -12 -5 -17 -13 -14 -10 3 -12 -11 -9 -66 4 -57 1 -71
-12 -76 -21 -8 -30 -62 -21 -129 6 -51 8 -55 29 -49 25 6 24 8 46 -91 5 -22 6
-59 3 -81 -4 -34 -9 -41 -24 -37 -11 3 -19 10 -19 15 0 6 -6 5 -15 -2 -8 -7
-19 -8 -27 -3 -7 4 -78 8 -158 8 l-145 0 -3 63 -3 62 -144 0 c-127 0 -145 2
-145 16 0 10 6 14 15 11 8 -4 17 -2 20 3 4 6 -5 10 -19 10 -21 0 -26 6 -35 50
-6 28 -11 61 -11 73 0 12 -9 69 -19 127 -20 110 -46 265 -56 338 l-5 42 37 0
c43 0 34 17 -11 22 -16 2 -32 9 -34 17 -3 9 0 12 10 9 17 -7 78 20 78 34 0 5
-7 11 -15 14 -8 4 -15 11 -15 16 0 6 7 7 16 4 11 -4 19 4 30 29 18 44 18 45
-5 45 -16 0 -18 5 -14 40 5 38 4 40 -23 46 -22 4 -29 12 -30 30 -2 19 4 24 30
29 17 2 58 9 91 15 32 6 98 13 145 16 47 3 135 9 195 13 163 12 206 12 365 1z
m-940 -75 c0 -3 -9 -14 -21 -26 -11 -11 -18 -27 -15 -37 5 -15 -1 -17 -37 -16
-24 1 -57 9 -74 17 -17 9 -33 13 -37 10 -3 -4 -6 -33 -6 -66 0 -57 1 -59 23
-53 52 14 127 19 127 7 0 -6 -9 -11 -20 -11 -11 0 -20 -6 -20 -14 0 -16 48
-58 59 -52 3 2 11 -7 18 -20 10 -22 9 -24 -18 -24 -16 0 -29 -4 -29 -10 0 -5
16 -10 36 -10 35 0 35 -1 29 -31 -4 -17 -10 -54 -15 -82 -4 -29 -15 -92 -25
-142 -9 -49 -26 -137 -36 -195 -11 -58 -29 -148 -40 -200 -10 -52 -19 -104
-19 -116 0 -26 -63 -49 -124 -46 -78 4 -112 8 -124 16 -19 11 -10 205 9 217
12 7 12 9 -1 10 -8 1 -27 3 -42 5 -16 1 -28 -1 -28 -7 0 -5 5 -9 11 -9 8 0 8
-4 1 -13 -14 -16 -82 -10 -82 7 0 6 7 22 16 34 12 18 25 22 65 22 54 0 64 16
33 51 -13 14 -13 21 -4 40 11 19 10 21 -5 15 -9 -3 -22 -3 -28 1 -19 12 -41
13 -48 2 -9 -15 -252 -31 -366 -24 -120 8 -123 5 -123 -96 0 -34 -5 -77 -12
-95 -9 -24 -9 -39 0 -56 11 -23 11 -23 11 -1 1 29 11 53 23 53 5 0 7 -4 4 -8
-3 -5 -6 -38 -7 -75 -1 -39 -7 -68 -14 -71 -20 -7 -89 10 -146 37 -65 30 -113
84 -155 172 -25 53 -28 71 -27 150 1 131 34 197 149 295 24 21 364 195 479
245 17 8 46 20 65 29 49 22 298 106 340 115 19 5 62 15 95 24 63 16 135 34
148 36 4 0 7 -1 7 -4z m94 -481 c22 -128 22 -146 -6 -142 -22 3 -23 7 -26 128
-3 144 8 148 32 14z m-54 -24 l0 -120 -25 0 c-29 0 -29 3 -10 90 8 36 14 81
15 101 0 31 6 49 17 49 2 0 3 -54 3 -120z m0 -166 c0 -28 -15 -25 -23 6 -3 13
0 20 9 20 8 0 14 -10 14 -26z m60 12 c0 -8 -7 -17 -16 -20 -23 -9 -24 -8 -24
14 0 13 7 20 20 20 11 0 20 -6 20 -14z m-87 -41 c22 -46 22 -46 -15 -102 -40
-61 -37 -57 -44 -50 -7 7 28 187 36 187 4 0 14 -16 23 -35z m131 -69 c9 -43
16 -82 16 -87 0 -23 -22 -4 -58 52 l-40 61 26 39 c31 47 34 43 56 -65z m-35
-87 l34 -62 -29 7 c-16 4 -35 14 -41 23 -14 18 -18 93 -5 93 4 0 23 -28 41
-61z m-69 -13 l0 -64 -45 -4 c-25 -2 -45 0 -45 4 0 13 78 128 87 128 2 0 3
-29 3 -64z m2239 -9 c16 -20 35 -157 27 -199 -5 -30 -10 -35 -35 -36 -35 -1
-41 16 -30 84 4 27 8 75 8 107 1 57 9 69 30 44z m72 -28 c18 -35 5 -230 -15
-208 -2 2 -6 55 -9 117 -6 110 1 134 24 91z m-1261 -56 c9 -73 -2 -158 -20
-158 -8 0 -19 9 -23 20 -8 19 -1 150 10 189 8 30 26 2 33 -51z m69 -1 c15 -72
14 -149 -1 -154 -33 -12 -38 3 -38 106 0 135 17 155 39 48z m1066 2 c0 -27 -4
-67 -8 -89 -4 -22 -8 -46 -9 -52 -1 -7 -10 -13 -21 -13 -17 0 -18 5 -12 38 3
20 7 62 8 92 1 30 6 61 11 68 16 26 31 5 31 -44z m-1261 -1 c3 -21 6 -65 6
-98 0 -57 -1 -60 -24 -61 -31 -2 -41 32 -30 103 14 95 37 122 48 56z m996 16
c8 -13 9 -46 5 -95 l-7 -74 -32 0 -31 0 -3 80 c-3 77 -2 79 25 94 15 8 29 15
30 16 1 0 7 -9 13 -21z m-2661 -10 l84 2 -7 -73 c-4 -40 -9 -74 -11 -76 -2 -3
-163 -5 -212 -3 -45 2 -58 141 -13 141 10 0 22 5 25 10 4 6 16 8 28 4 12 -4
60 -7 106 -5z m185 -16 c-4 -16 -8 -45 -7 -65 1 -21 -3 -35 -8 -32 -5 3 -9 -4
-9 -15 0 -23 -10 -27 -27 -10 -16 16 -5 122 15 137 29 22 45 15 36 -15z m549
-22 c5 -19 6 -50 2 -68 l-6 -33 -65 0 c-57 0 -65 2 -61 18 3 9 11 41 17 70
l12 53 46 -3 c43 -3 46 -5 55 -37z m96 33 c31 -6 31 -7 31 -70 l0 -64 -45 0
c-39 0 -45 3 -51 25 -6 23 2 90 12 107 6 10 13 10 53 2z m891 -89 c0 -43 -4
-75 -10 -75 -6 0 -10 32 -10 75 0 43 4 75 10 75 6 0 10 -32 10 -75z m-1444 -9
l7 -48 -29 4 c-25 3 -29 8 -32 36 -4 35 24 80 40 64 4 -4 11 -29 14 -56z
m-166 -6 c0 -22 -4 -40 -9 -40 -9 0 -20 67 -12 75 13 14 21 1 21 -35z m2470
-5 c4 -35 0 -45 -16 -45 -13 0 -15 7 -10 31 3 17 6 39 6 48 1 14 2 14 9 1 5
-8 10 -24 11 -35z m120 -5 c0 -28 -4 -40 -14 -40 -10 0 -14 12 -13 40 3 54 27
54 27 0z"/>
<path d="M3781 1759 c1 -8 4 -25 8 -39 l7 -25 6 27 c3 17 0 32 -8 39 -11 9
-14 8 -13 -2z"/>
<path d="M3710 1741 c0 -6 5 -13 10 -16 6 -3 10 1 10 9 0 9 -4 16 -10 16 -5 0
-10 -4 -10 -9z"/>
</g>
</svg>
