<?xml version="1.0" standalone="no"?>
<!DOCTYPE svg PUBLIC "-//W3C//DTD SVG 20010904//EN"
 "http://www.w3.org/TR/2001/REC-SVG-20010904/DTD/svg10.dtd">
<svg version="1.0" xmlns="http://www.w3.org/2000/svg"
 width="580.000000pt" height="400.000000pt" viewBox="0 0 580.000000 400.000000"
 preserveAspectRatio="xMidYMid meet">
<metadata>
Created by potrace 1.16, written by Peter Selinger 2001-2019
</metadata>
<g transform="translate(0.000000,400.000000) scale(0.100000,-0.100000)"
fill="#000000" stroke="none">
<path d="M2775 3624 c-435 -25 -796 -105 -1185 -261 -194 -78 -492 -236 -556
-295 -29 -27 -32 -28 -48 -13 -40 41 -18 210 42 314 l25 44 -32 -22 c-17 -12
-54 -49 -83 -81 l-51 -58 -35 41 c-19 23 -38 43 -43 45 -11 4 -29 -41 -29 -71
0 -12 -4 -29 -10 -37 -8 -12 -14 -11 -48 8 -37 21 -152 56 -159 48 -2 -2 21
-20 51 -40 108 -71 197 -236 128 -236 -14 0 -28 17 -48 56 -46 92 -133 177
-227 224 -96 49 -148 51 -179 10 -17 -24 -18 -28 -2 -80 37 -124 103 -212 209
-279 35 -23 69 -41 74 -41 16 0 32 -27 25 -44 -20 -51 -175 44 -242 147 l-34
52 7 -45 c3 -25 19 -72 36 -104 16 -32 29 -63 29 -67 0 -5 -15 -9 -32 -10 -18
0 -48 -6 -67 -13 l-34 -12 50 -44 50 -45 -55 -42 c-48 -37 -102 -100 -102
-118 0 -3 15 5 32 18 18 14 56 33 83 42 64 22 194 31 223 16 26 -14 29 -46 5
-60 -17 -9 -16 -11 5 -26 116 -83 174 -248 142 -407 -15 -81 -52 -149 -114
-211 l-49 -49 35 -32 c46 -39 104 -126 118 -174 6 -20 14 -69 17 -108 10 -127
-25 -220 -120 -321 -28 -29 -45 -53 -39 -53 21 0 26 -43 6 -57 -43 -31 -219
-4 -302 47 -18 11 -35 20 -38 20 -10 0 41 -65 70 -90 17 -14 42 -35 56 -47
l25 -21 -45 -40 c-25 -22 -42 -43 -38 -47 4 -4 31 -13 60 -20 29 -6 53 -16 52
-21 0 -5 -12 -34 -26 -64 -15 -30 -29 -75 -32 -100 l-7 -45 23 40 c34 58 109
128 173 161 54 27 58 27 70 10 20 -27 9 -43 -50 -70 -106 -48 -199 -157 -240
-280 -24 -72 -25 -80 -10 -102 30 -46 91 -42 200 13 65 33 172 144 209 216 20
39 34 57 48 57 69 0 -19 -165 -127 -236 -30 -21 -54 -39 -52 -40 6 -7 111 28
158 52 l47 23 11 -59 c7 -33 16 -62 21 -65 4 -3 27 16 50 42 40 45 43 47 54
28 16 -29 136 -148 143 -142 3 3 -4 18 -15 32 -32 40 -64 150 -65 219 0 82 8
106 38 106 26 0 25 2 45 -100 20 -104 116 -215 220 -257 42 -17 137 -18 1624
-21 1720 -3 1650 -5 1737 52 79 53 150 157 164 241 13 86 14 86 42 83 66 -7
55 -174 -20 -306 -25 -45 -27 -53 -11 -44 22 12 113 108 130 137 11 19 14 17
55 -29 39 -44 44 -47 56 -30 7 9 16 39 19 65 l6 48 47 -23 c47 -24 152 -59
158 -52 2 1 -15 15 -37 31 -78 54 -170 172 -170 219 0 13 20 26 41 26 5 0 22
-27 39 -61 64 -127 231 -252 337 -253 38 -1 49 4 65 25 l20 27 -21 68 c-38
119 -139 241 -239 287 -67 32 -71 35 -65 56 9 33 33 33 97 -3 68 -38 113 -83
152 -148 l26 -43 -6 45 c-4 25 -20 73 -36 106 -17 34 -30 64 -30 67 0 3 22 8
48 12 79 11 84 20 35 64 -47 42 -52 57 -25 65 30 10 150 136 129 136 -3 0 -24
-11 -48 -24 -88 -50 -252 -73 -293 -43 -19 14 -15 57 6 57 5 0 -13 25 -42 56
-97 107 -132 219 -110 356 15 98 46 162 110 226 l53 52 -50 50 c-63 63 -100
136 -114 228 -20 136 14 251 105 349 45 49 51 60 40 71 -20 18 -17 40 5 52 52
27 276 -12 311 -55 22 -27 31 -16 13 16 -10 17 -45 52 -79 78 l-61 47 43 38
c24 20 44 41 44 46 0 10 -56 30 -86 30 -30 0 -30 14 1 81 13 30 27 74 30 99
l7 45 -31 -51 c-16 -29 -47 -66 -68 -83 -53 -44 -137 -86 -156 -78 -22 8 -22
46 1 54 9 4 48 26 85 49 102 63 169 155 203 279 13 46 12 52 -5 75 -64 88
-312 -54 -401 -230 -22 -43 -36 -60 -50 -60 -12 0 -23 7 -27 16 -15 39 80 173
157 223 27 18 50 34 50 37 0 14 -143 -33 -174 -57 -28 -22 -31 -19 -41 38 -3
22 -12 49 -19 58 -11 15 -16 13 -49 -24 -20 -23 -42 -41 -47 -41 -6 0 -19 15
-30 33 -17 29 -81 89 -119 112 -8 5 0 -17 17 -48 54 -95 76 -218 52 -281 -10
-28 -44 -35 -57 -12 -13 23 -202 132 -368 214 -322 158 -770 287 -1135 326
-140 15 -431 26 -535 20z m435 -849 c504 -62 928 -231 1319 -523 169 -128 258
-216 311 -308 l45 -79 0 -115 c0 -110 -1 -118 -33 -183 -45 -91 -114 -159
-205 -203 -76 -36 -169 -55 -181 -36 -3 6 5 23 20 39 75 80 59 176 -39 246
-20 14 -14 47 9 47 8 0 14 6 14 14 0 7 18 17 43 22 l42 9 -1 95 c-2 79 -5 96
-20 107 -66 45 -54 52 77 46 l106 -6 17 -33 c12 -26 22 -34 41 -34 24 0 26 2
19 38 -16 89 -9 85 -204 102 -291 25 -261 19 -276 56 -9 20 -23 36 -37 39
-215 46 -321 54 -777 59 -113 1 -115 1 -118 -22 -2 -13 1 -28 6 -35 5 -7 12
-69 16 -139 6 -111 5 -128 -9 -136 -25 -14 -15 -55 15 -62 14 -3 26 -13 28
-23 4 -17 -50 -77 -88 -97 -25 -13 -179 -7 -288 12 l-64 11 -101 -69 c-56 -38
-122 -76 -147 -85 -160 -57 -255 -112 -165 -95 22 4 35 3 35 -4 0 -5 20 -10
45 -10 25 0 45 -5 45 -10 0 -7 13 -8 35 -4 23 4 35 2 35 -5 0 -7 20 -11 49
-11 35 0 51 -4 55 -15 4 -13 16 -14 56 -9 42 6 50 4 50 -10 0 -13 8 -16 38
-14 20 2 39 -1 42 -7 5 -10 -772 -20 -798 -10 -10 4 -6 15 17 40 33 38 47 87
37 138 -6 34 -46 87 -65 87 -14 0 -14 5 0 90 16 93 12 96 -106 105 l-95 7 0
72 c-1 108 -16 217 -31 227 -10 6 -15 2 -17 -14 -2 -12 -12 -33 -22 -47 l-20
-25 0 36 c0 41 -5 48 -28 42 -15 -4 -17 -19 -14 -143 l4 -140 -46 0 c-34 0
-46 4 -50 18 -14 47 -27 148 -22 168 10 37 -19 44 -177 44 -116 0 -147 -3
-157 -15 -9 -11 -9 -19 -2 -28 7 -8 9 -41 5 -89 -5 -68 -8 -77 -27 -80 -29 -4
-34 -38 -7 -45 31 -8 27 -46 -8 -73 -39 -29 -71 -99 -71 -152 0 -72 19 -119
66 -166 25 -24 42 -48 39 -53 -9 -14 -142 -11 -207 5 -142 33 -266 155 -304
298 -31 116 -9 255 53 346 84 122 426 386 648 500 424 217 793 308 1260 311
94 0 222 -6 285 -14z m-1317 -1289 c3 -8 3 -24 0 -35 -5 -18 -1 -21 26 -21 28
0 31 2 21 19 -18 35 -12 41 44 41 l53 0 6 -41 c3 -25 16 -52 31 -68 14 -15 26
-35 26 -44 0 -15 -19 -17 -199 -17 -134 0 -202 4 -207 11 -3 6 9 24 29 40 19
15 44 48 55 73 21 44 33 51 88 55 12 0 24 -5 27 -13z m1862 -51 c5 -16 25 -43
43 -60 59 -54 56 -55 -215 -54 l-248 0 55 25 c40 19 65 24 92 20 29 -5 48 1
100 29 34 20 69 45 77 56 11 15 23 19 50 17 29 -2 37 -8 46 -33z m515 25 c8
-5 15 -13 15 -17 2 -22 20 -60 37 -80 11 -12 17 -26 13 -32 -9 -15 -315 -15
-315 -1 0 6 15 27 34 46 19 20 36 46 38 57 3 19 12 23 58 28 88 9 104 9 120
-1z"/>
</g>
</svg>
