<?xml version="1.0" standalone="no"?>
<!DOCTYPE svg PUBLIC "-//W3C//DTD SVG 20010904//EN"
 "http://www.w3.org/TR/2001/REC-SVG-20010904/DTD/svg10.dtd">
<svg version="1.0" xmlns="http://www.w3.org/2000/svg"
 width="580.000000pt" height="400.000000pt" viewBox="0 0 580.000000 400.000000"
 preserveAspectRatio="xMidYMid meet">
<metadata>
Created by potrace 1.16, written by Peter Selinger 2001-2019
</metadata>
<g transform="translate(0.000000,400.000000) scale(0.100000,-0.100000)"
fill="#000000" stroke="none">
<path d="M2680 3703 c-52 -2 -99 -8 -104 -13 -6 -6 -34 -10 -64 -10 -71 0
-242 -19 -267 -30 -11 -4 -67 -14 -125 -20 -58 -6 -107 -15 -110 -19 -3 -5
-27 -12 -55 -16 -27 -4 -54 -10 -60 -15 -5 -4 -43 -13 -83 -21 -40 -7 -75 -16
-78 -21 -3 -4 -12 -8 -19 -8 -13 0 -41 -11 -160 -65 -16 -7 -42 -17 -57 -20
-16 -4 -28 -11 -28 -16 0 -5 -7 -9 -17 -9 -18 0 -126 -51 -131 -62 -2 -5 -8
-8 -13 -8 -12 0 -122 -52 -129 -61 -3 -3 -22 -12 -42 -20 -21 -7 -38 -17 -38
-21 0 -4 -6 -8 -13 -8 -7 0 -30 -9 -52 -20 -22 -11 -43 -20 -47 -20 -12 0 -48
38 -48 50 0 6 -11 22 -25 35 -24 25 -64 32 -112 19 -29 -8 -58 -59 -67 -117
-8 -50 -21 -66 -39 -48 -6 6 -20 11 -30 11 -19 0 -18 -1 1 -33 19 -33 19 -33
-2 -51 l-21 -17 23 -5 c12 -4 22 -13 22 -21 0 -9 -6 -13 -14 -10 -8 3 -19 -5
-26 -19 -11 -19 -21 -24 -53 -24 -39 0 -40 0 -22 -20 10 -11 24 -20 31 -20 7
0 18 -9 24 -21 16 -28 -4 -49 -46 -49 -37 0 -37 1 -25 -52 10 -42 6 -46 -20
-22 -17 15 -19 14 -25 -10 -3 -14 -12 -26 -19 -26 -7 0 -25 -6 -40 -14 l-27
-14 22 -12 c15 -8 20 -18 17 -31 -5 -18 -1 -19 44 -13 50 7 79 -5 79 -31 0
-20 -48 -27 -80 -11 -21 10 -30 11 -33 2 -3 -8 -11 -7 -28 3 -12 7 -36 17 -52
22 -24 7 -27 6 -17 -6 7 -8 9 -15 4 -15 -4 0 -3 -5 4 -12 15 -15 16 -48 2 -48
-5 0 -10 -8 -10 -19 0 -14 10 -19 45 -24 26 -2 48 -6 50 -9 2 -2 7 -23 11 -46
l7 -42 -34 2 c-19 1 -63 1 -98 0 -63 -2 -64 -2 -46 -22 17 -19 17 -21 1 -39
-16 -18 -15 -19 21 -26 21 -3 47 -13 59 -20 12 -7 36 -15 54 -17 19 -2 36 -9
38 -17 4 -12 -9 -13 -71 -8 -59 4 -79 2 -88 -9 -6 -8 -24 -14 -39 -14 -38 0
-45 -11 -18 -32 18 -13 21 -19 11 -29 -25 -25 -15 -42 21 -35 23 5 37 2 45 -8
15 -17 7 -36 -15 -36 -19 0 -18 -9 7 -49 22 -36 21 -36 -24 -62 -9 -5 -33 -7
-52 -3 -28 5 -35 3 -35 -9 0 -9 4 -18 9 -22 6 -3 4 -17 -5 -33 -19 -36 -18
-42 6 -42 12 0 30 -9 42 -20 20 -19 21 -21 4 -39 -9 -10 -33 -22 -52 -25 -27
-6 -34 -12 -34 -30 0 -31 36 -64 52 -48 17 17 47 15 65 -4 25 -25 4 -48 -46
-52 -36 -3 -41 -6 -41 -28 0 -15 -6 -24 -15 -24 -8 0 -15 -6 -15 -13 0 -16 32
-47 48 -47 18 0 15 -20 -4 -27 -10 -4 -14 -13 -10 -28 4 -17 -1 -27 -21 -40
-24 -16 -25 -19 -10 -30 28 -20 19 -35 -20 -35 l-38 -1 45 -39 c42 -37 86 -51
104 -33 13 13 65 11 77 -3 15 -18 62 -18 97 0 38 19 122 31 122 17 0 -6 7 -8
15 -5 8 3 24 -1 36 -10 20 -14 23 -25 25 -115 2 -115 4 -112 -110 -130 -38 -5
-72 -14 -75 -19 -3 -5 -17 -13 -30 -17 -13 -4 -34 -19 -47 -34 -48 -54 -74
-89 -74 -100 0 -6 -4 -11 -8 -11 -4 0 -14 -17 -21 -37 -8 -21 -19 -41 -24 -45
-7 -4 -12 -65 -13 -155 -2 -86 1 -131 5 -108 7 39 8 39 18 15 6 -14 14 -40 17
-57 11 -47 88 -127 154 -160 31 -15 60 -32 64 -38 5 -7 795 -10 2335 -10
l2328 0 65 36 c84 46 146 108 160 159 6 21 15 42 20 45 5 3 12 30 15 60 4 30
11 55 15 55 5 0 8 23 8 50 1 28 -3 50 -9 50 -5 0 -9 15 -9 33 0 31 -41 122
-65 142 -6 6 -23 27 -39 48 -15 20 -34 37 -42 37 -7 0 -14 4 -14 9 0 5 -13 12
-30 16 -16 4 -30 10 -30 15 0 5 -26 14 -57 20 -31 7 -62 18 -69 24 -18 18 -22
169 -5 189 16 20 34 21 61 4 17 -10 22 -9 30 3 13 22 86 17 135 -9 l40 -22 5
28 c4 19 12 29 27 31 13 2 20 9 17 16 -2 6 7 23 21 36 23 22 29 23 58 12 19
-7 50 -12 70 -12 32 0 36 3 34 22 -1 16 5 23 23 28 l25 7 -28 8 c-20 5 -30 16
-34 36 -3 16 -14 31 -24 34 -20 7 -26 25 -9 25 5 0 7 7 3 16 -4 10 1 20 11 26
13 8 15 13 5 24 -6 8 -20 14 -30 14 -21 0 -25 20 -9 36 18 18 -13 34 -81 40
-110 12 -131 31 -73 69 22 14 26 14 49 -1 l25 -16 0 41 c0 22 3 41 8 41 4 0
15 14 24 31 l18 30 -45 -7 c-38 -5 -45 -4 -45 10 0 24 -27 31 -53 13 -18 -11
-25 -12 -34 -2 -7 7 -18 15 -25 17 -10 4 -10 13 1 46 13 38 17 42 47 42 32 0
33 1 24 26 -13 34 -13 34 13 34 26 1 47 16 65 48 12 21 11 22 -37 22 -28 0
-53 5 -56 10 -3 6 -18 10 -33 10 -29 0 -92 34 -92 49 0 4 22 11 48 13 30 3 61
14 81 29 l33 24 -32 3 c-23 3 -30 7 -26 19 3 8 6 19 6 24 0 5 10 9 21 9 19 0
20 2 8 16 -11 14 -10 18 9 33 18 13 20 19 10 29 -6 6 -20 12 -30 12 -14 0 -18
8 -18 42 l0 42 -39 -38 c-34 -33 -46 -38 -96 -42 -32 -2 -63 -8 -69 -13 -7 -6
-18 -5 -29 3 -23 17 -22 36 2 36 10 0 22 7 25 16 5 12 14 15 34 11 22 -5 30
-1 37 16 6 13 21 23 36 25 21 2 26 7 22 23 -4 14 0 19 15 19 20 0 38 25 24 34
-4 2 -23 7 -42 11 -19 4 -41 12 -48 18 -9 7 -16 7 -24 -1 -20 -20 -35 -14 -35
13 0 22 4 25 35 25 31 0 33 2 20 13 -21 16 -32 53 -19 62 6 3 26 2 44 -3 32
-9 34 -8 29 14 -3 17 0 24 11 24 8 0 25 9 38 20 15 12 17 18 8 14 -10 -3 -20
-1 -24 5 -3 6 -21 11 -40 11 -21 0 -35 6 -39 16 -4 11 -10 13 -19 7 -6 -6 -27
-13 -44 -16 -28 -6 -33 -4 -33 13 0 11 9 25 19 32 10 6 17 17 15 23 -3 6 8 16
23 21 l28 11 -27 8 c-16 4 -28 11 -28 16 0 5 -7 9 -15 9 -19 0 -19 30 1 58 8
12 14 22 12 22 -2 0 -18 -4 -36 -9 -39 -12 -45 8 -9 32 l22 16 -22 0 c-23 1
-32 25 -13 36 6 3 10 11 10 17 0 7 -4 7 -12 0 -7 -5 -27 -13 -44 -16 -29 -7
-32 -5 -38 26 -11 57 -58 139 -86 150 -30 12 -95 5 -116 -13 -8 -7 -21 -27
-29 -46 -8 -18 -21 -36 -30 -39 -10 -4 -99 35 -228 99 -221 110 -321 157 -336
157 -5 0 -22 7 -38 15 -61 31 -120 55 -136 55 -9 0 -17 4 -17 8 0 5 -36 14
-80 21 -44 8 -82 17 -85 21 -3 4 -26 11 -52 15 -27 4 -53 11 -58 15 -6 5 -53
14 -105 20 -52 7 -102 15 -111 20 -8 4 -83 13 -165 20 -82 6 -156 15 -165 20
-18 9 -356 19 -489 13z m20 -169 c0 -9 -16 -35 -35 -58 -19 -24 -35 -52 -35
-62 0 -10 -4 -25 -8 -32 -12 -17 11 -160 31 -197 30 -55 24 -65 -39 -65 l-57
0 7 55 c6 53 5 55 -18 55 -18 0 -28 -10 -41 -37 -23 -48 -39 -59 -98 -73 -73
-15 -94 -7 -101 43 -3 23 -6 57 -6 76 1 18 -3 38 -8 45 -5 6 -13 53 -17 104
-6 91 -6 92 16 92 12 0 30 7 39 15 9 8 47 17 91 21 40 3 83 10 94 15 11 5 45
10 75 12 30 2 67 4 83 5 19 1 27 -3 27 -14z m443 10 c20 -4 37 -11 37 -16 0
-6 -20 -29 -44 -52 -64 -59 -96 -125 -96 -197 0 -31 3 -59 8 -61 14 -6 44 -76
38 -87 -9 -13 -85 -14 -106 -1 -12 8 -11 13 8 33 20 22 21 25 7 37 -13 11 -20
9 -46 -16 -27 -26 -37 -29 -94 -29 -53 0 -67 4 -89 24 -14 14 -26 30 -26 38 0
7 -4 13 -10 13 -5 0 -13 18 -16 40 -4 22 -11 43 -15 46 -12 7 -12 54 0 54 5 0
12 17 16 38 12 71 61 108 130 98 25 -4 45 -11 45 -17 0 -5 7 -9 16 -9 9 0 18
-9 21 -20 3 -11 9 -20 13 -20 4 0 11 -11 14 -25 4 -17 13 -25 29 -25 21 0 22
3 19 80 l-4 80 54 0 c29 0 70 -3 91 -6z m367 -53 c0 -6 14 -11 32 -13 38 -4
49 -25 16 -31 -15 -3 -10 -5 15 -6 24 -1 40 -7 44 -17 7 -19 -13 -115 -33
-152 -8 -15 -14 -39 -14 -54 0 -16 -4 -28 -9 -28 -5 0 -12 -19 -16 -42 -9 -50
-75 -119 -75 -77 0 8 -4 8 -14 0 -12 -10 -20 -9 -40 4 -14 10 -26 20 -26 24 0
3 19 26 43 50 l42 45 0 86 c0 79 -2 90 -27 122 -15 20 -24 38 -21 42 4 3 1 6
-5 6 -13 0 -16 32 -5 43 10 11 93 8 93 -2z m-196 -21 c33 -12 67 -77 47 -89
-10 -7 -9 -10 8 -16 19 -6 21 -14 21 -71 0 -35 -4 -64 -8 -64 -4 0 -14 -17
-21 -37 -18 -48 -39 -69 -79 -78 -34 -7 -85 8 -110 32 -19 18 -35 126 -27 176
10 61 55 140 85 148 37 10 56 10 84 -1z m-1156 -23 c6 -5 12 -20 12 -33 0 -12
4 -25 9 -28 5 -3 12 -53 16 -111 4 -58 11 -108 16 -111 5 -3 9 -18 9 -33 0
-21 -10 -36 -34 -55 -19 -14 -42 -26 -50 -26 -17 0 -32 57 -23 90 3 11 1 20
-5 20 -24 0 -47 -23 -53 -52 -9 -40 -32 -68 -56 -68 -9 0 -19 -4 -21 -9 -1 -4
-24 -11 -50 -15 -46 -7 -46 -7 -53 26 -4 18 -11 35 -15 38 -5 3 -11 22 -15 42
-6 34 -5 38 24 52 42 22 94 20 116 -4 28 -31 48 -26 40 11 -4 17 -13 42 -21
57 -8 15 -14 33 -14 40 0 7 -5 22 -11 33 -8 16 -13 18 -25 8 -8 -6 -14 -22
-14 -35 0 -28 -30 -50 -84 -60 -42 -7 -56 3 -56 44 0 12 -5 31 -12 41 -14 23
-4 51 19 51 10 0 31 7 47 15 37 20 56 19 86 -5 14 -11 35 -20 47 -20 21 0 21
1 7 28 -20 39 -18 49 19 66 56 26 114 27 145 3z m1613 -54 c1 -16 2 -16 6 -1
6 23 61 14 132 -21 87 -42 87 -45 -14 -155 -48 -53 -96 -96 -105 -96 -18 0
-30 58 -30 152 0 26 -4 50 -10 53 -17 10 -12 85 5 85 8 0 16 -8 16 -17z
m-2151 -77 c0 -8 -6 -17 -12 -19 -8 -4 -9 -6 -2 -6 6 -1 17 6 24 14 7 8 22 15
34 15 25 0 53 -56 63 -126 3 -24 9 -44 13 -44 4 0 13 -27 20 -60 7 -33 17 -63
21 -66 36 -22 -28 -104 -96 -123 -22 -6 -49 -18 -59 -26 -11 -8 -32 -15 -47
-15 -26 0 -27 3 -34 68 -4 37 -10 72 -15 77 -4 6 -11 49 -15 97 -4 49 -11 90
-16 94 -18 11 -9 57 16 80 14 13 25 27 25 33 0 8 18 14 68 20 6 0 12 -5 12
-13z m2510 -47 c0 -8 4 -8 13 0 17 13 123 -37 149 -72 25 -31 22 -54 -16 -122
-19 -33 -46 -85 -62 -115 -35 -69 -72 -120 -86 -120 -6 0 -20 8 -31 18 -13 10
-17 11 -12 3 6 -11 4 -13 -11 -7 -10 5 -27 11 -36 13 -10 3 -18 11 -18 18 0 7
-9 15 -20 18 -12 3 -20 14 -20 27 0 27 21 112 30 125 4 6 11 29 15 52 4 24 10
45 15 48 4 3 13 26 19 53 8 32 19 51 34 59 30 15 37 15 37 2z m-2677 -36 c3
-5 8 -56 12 -115 7 -102 6 -108 -12 -108 -10 0 -34 16 -53 35 -19 19 -38 35
-44 35 -18 0 -66 53 -66 73 0 10 9 21 20 24 11 3 20 12 20 19 0 13 17 19 52
16 9 -1 22 5 28 13 13 16 36 20 43 8z m2207 -18 c0 -8 -1 -17 -2 -20 -2 -3 2
-9 8 -13 6 -4 14 -46 18 -94 8 -99 7 -100 -59 -72 l-37 15 6 52 c4 29 11 56
17 62 5 5 9 19 9 31 0 33 10 54 26 54 8 0 14 -7 14 -15z m273 -101 c-2 -17 -9
-44 -18 -60 -8 -16 -15 -36 -15 -45 0 -32 -34 -58 -71 -55 -75 6 -86 26 -39
71 17 16 30 32 30 37 0 5 17 26 38 48 46 50 78 51 75 4z m-2783 -16 c0 -9 3
-9 12 0 16 16 45 15 55 -1 4 -7 20 -20 36 -30 24 -16 27 -23 27 -77 0 -63 -4
-67 -42 -47 -71 37 -157 137 -118 137 6 0 10 7 10 15 0 8 5 15 10 15 6 0 10
-5 10 -12z m3300 -8 c0 -5 7 -10 15 -10 29 0 65 -47 65 -83 0 -26 5 -36 19
-40 14 -3 23 5 37 34 17 34 44 53 44 31 0 -4 17 -14 37 -21 42 -16 42 -15 106
-72 54 -47 58 -59 21 -59 -22 0 -24 -3 -19 -22 4 -13 11 -27 16 -32 5 -6 9
-16 9 -23 0 -16 -30 -6 -47 15 -12 14 -13 14 -13 -1 0 -24 -36 -57 -62 -57
-13 0 -32 -7 -42 -15 -19 -14 -18 -15 12 -21 25 -5 32 -12 32 -29 0 -23 32
-45 38 -26 5 15 65 14 80 -1 8 -8 9 -15 1 -25 -13 -15 -49 -18 -49 -3 0 6 -20
10 -45 10 -24 0 -56 5 -70 12 -31 14 -43 4 -27 -22 16 -25 15 -30 -3 -30 -8 0
-15 -7 -15 -15 0 -22 -19 -19 -90 18 -38 19 -66 40 -68 51 -2 11 11 34 33 56
l37 37 -26 7 c-32 8 -35 45 -7 96 42 74 52 103 43 112 -7 7 -17 3 -31 -11 -12
-12 -25 -21 -31 -21 -11 0 -63 22 -70 31 -3 3 -13 9 -24 12 -23 9 -15 46 21
93 24 32 73 48 73 24z m-3490 -92 c0 -9 3 -9 12 0 20 20 53 13 83 -18 16 -16
33 -30 38 -30 5 0 37 -29 72 -65 35 -36 68 -65 72 -65 5 0 24 -15 42 -34 32
-33 33 -36 20 -65 -8 -17 -17 -31 -21 -31 -7 0 -73 -42 -95 -60 -7 -5 -15 -10
-18 -10 -4 0 -25 -15 -48 -34 -37 -30 -44 -33 -61 -21 -14 11 -17 21 -11 42 3
15 12 31 18 35 8 5 7 8 -3 8 -9 0 -26 -7 -38 -16 -20 -14 -22 -14 -22 2 0 16
-18 16 -62 -1 -11 -5 -14 1 -10 23 3 22 -2 33 -19 46 l-23 16 31 0 c18 0 36 6
40 14 4 8 22 16 38 18 l30 3 -22 23 c-24 23 -30 42 -14 42 5 0 11 9 14 20 6
24 3 25 -29 4 -13 -9 -26 -15 -27 -13 -24 43 -28 53 -20 58 4 3 8 13 8 21 0 8
11 17 25 21 l25 6 -27 8 c-16 4 -28 11 -28 16 0 5 -8 9 -17 9 -15 1 -14 4 6
20 27 23 41 25 41 8z m413 -45 c4 -3 2 -12 -4 -20 -9 -9 -8 -13 0 -13 6 0 11
5 11 10 0 17 14 11 45 -17 43 -40 76 -84 69 -94 -7 -12 -103 -59 -120 -59 -10
0 -14 13 -14 44 0 25 -4 48 -10 51 -11 7 -14 88 -3 98 8 9 18 9 26 0z m1661
-2 c3 -5 43 -9 88 -10 96 -1 254 -19 283 -31 11 -5 56 -14 100 -21 44 -6 85
-15 90 -19 6 -5 27 -11 48 -15 20 -4 37 -11 37 -15 0 -4 17 -11 38 -15 20 -3
46 -12 57 -19 11 -7 42 -18 70 -25 27 -7 54 -16 60 -21 5 -4 25 -11 43 -15 17
-3 32 -11 32 -16 0 -5 4 -9 10 -9 28 0 335 -152 351 -173 7 -9 35 -27 84 -52
17 -8 51 -31 77 -49 26 -19 53 -37 60 -40 10 -3 8 -8 -4 -16 -28 -17 -22 -28
26 -51 24 -11 52 -30 63 -41 l18 -21 -51 7 c-40 5 -54 3 -64 -9 -7 -8 -23 -15
-36 -15 -31 0 -40 -19 -16 -35 13 -10 18 -22 15 -40 -5 -23 -3 -25 24 -19 20
4 33 1 42 -10 9 -10 9 -16 3 -16 -6 0 -16 -9 -22 -19 -8 -16 -5 -26 16 -51 15
-17 23 -34 20 -38 -4 -3 -38 -6 -77 -6 -66 1 -69 0 -63 -20 4 -12 11 -27 17
-34 7 -9 3 -19 -13 -37 l-23 -25 30 0 c17 0 36 -7 43 -15 7 -9 29 -15 51 -15
61 0 51 -26 -12 -32 -28 -3 -54 -10 -58 -15 -3 -6 -21 -14 -38 -18 -18 -3 -33
-8 -33 -10 0 -2 9 -20 21 -39 20 -34 23 -35 63 -30 49 7 63 -4 46 -36 -8 -15
-21 -20 -50 -20 -33 0 -41 -4 -46 -24 -3 -13 -14 -26 -25 -29 -11 -3 -17 -11
-14 -19 7 -18 53 -38 71 -31 22 8 17 -15 -6 -27 -25 -13 -29 -80 -5 -80 8 0
15 -7 15 -15 0 -8 -9 -15 -20 -15 -11 0 -20 -4 -20 -9 0 -5 -10 -12 -22 -15
-23 -6 -23 -7 5 -22 19 -10 27 -23 27 -41 0 -25 0 -26 61 -19 40 5 65 3 74 -4
11 -9 32 -9 84 -1 38 6 102 11 140 11 64 0 71 -2 71 -19 0 -11 5 -23 11 -27 8
-4 8 -9 0 -17 -14 -14 -14 -84 -1 -92 24 -15 9 -35 -24 -35 -19 0 -38 -5 -41
-11 -5 -7 -15 -3 -30 11 -13 12 -26 17 -29 12 -10 -16 -63 -8 -86 13 -21 19
-21 19 -27 -3 -6 -23 -18 -28 -28 -12 -7 12 -56 2 -70 -14 -14 -15 -44 -14
-54 3 -5 7 -14 10 -20 6 -20 -12 -58 3 -64 25 -5 19 -13 20 -131 20 -69 0
-126 4 -126 9 0 5 -9 11 -20 14 -12 3 -20 14 -20 25 0 12 -4 24 -10 27 -5 3
-10 15 -10 26 0 10 -14 49 -32 86 -23 51 -56 94 -133 174 -58 61 -112 127
-126 155 -13 27 -26 51 -29 54 -12 11 -30 62 -25 70 3 5 -29 44 -70 86 -41 43
-75 86 -75 95 0 10 -14 31 -31 48 -31 32 -65 39 -97 22 -9 -6 -29 -12 -44 -16
-15 -3 -45 -23 -67 -45 -35 -36 -45 -40 -88 -40 -56 0 -73 -12 -73 -51 0 -45
48 -84 122 -98 64 -13 98 -33 98 -58 0 -7 5 -13 10 -13 6 0 10 -24 10 -54 0
-30 -4 -58 -10 -61 -17 -11 -11 -97 11 -141 18 -38 19 -49 10 -100 -6 -32 -11
-86 -11 -121 0 -35 -4 -63 -10 -63 -5 0 -10 -6 -10 -12 -1 -19 -59 -80 -70
-73 -6 3 -10 1 -10 -4 0 -15 -43 -14 -58 1 -9 9 -16 7 -31 -6 -14 -12 -20 -14
-23 -5 -3 8 -9 9 -19 4 -23 -15 -43 -11 -61 10 -18 20 -18 20 -24 -2 -7 -27
-17 -29 -34 -8 -10 12 -16 13 -26 4 -11 -9 -14 -8 -14 4 0 21 -29 30 -37 11
-3 -8 -12 -13 -21 -9 -8 3 -21 0 -28 -6 -11 -9 -18 -9 -28 0 -10 9 -16 9 -21
1 -5 -8 -12 -7 -24 4 -15 14 -20 14 -37 2 -16 -13 -21 -12 -36 1 -16 15 -20
15 -38 -2 -19 -17 -20 -17 -20 -1 0 9 -5 14 -10 11 -6 -4 -17 -1 -25 5 -8 6
-19 9 -25 5 -6 -4 -17 -1 -25 5 -12 10 -16 9 -21 -4 -4 -11 -13 -14 -33 -10
-14 4 -28 8 -30 10 -2 2 -8 48 -12 101 -4 54 -11 115 -15 136 -4 23 -2 43 6
52 8 9 12 69 14 178 2 169 8 197 44 197 9 0 29 12 44 27 37 36 39 89 3 123
-14 13 -25 29 -25 37 0 7 -4 13 -10 13 -5 0 -10 4 -10 10 0 5 -10 21 -22 35
-19 22 -30 25 -83 25 -34 0 -65 -3 -69 -7 -3 -4 -13 -8 -21 -9 -22 -3 -113
-65 -119 -81 -7 -16 10 -53 23 -53 13 0 -59 -140 -72 -140 -7 -1 -28 -14 -47
-30 -30 -26 -42 -30 -95 -30 -34 0 -65 4 -71 8 -16 15 -139 34 -170 26 -85
-21 -132 -65 -186 -174 -38 -76 -128 -189 -151 -190 -16 0 -87 -64 -87 -78 0
-11 8 -13 32 -8 18 3 34 10 38 15 3 5 21 12 40 16 19 4 44 14 55 21 11 8 23
14 27 14 12 0 10 -78 -2 -85 -5 -3 -10 -14 -10 -24 0 -10 -11 -28 -25 -41 -14
-13 -25 -29 -25 -37 0 -7 -4 -13 -9 -13 -5 0 -7 -10 -3 -22 4 -17 2 -20 -11
-15 -10 4 -17 2 -17 -4 0 -7 -13 -9 -30 -7 -25 4 -36 -1 -60 -29 -32 -36 -40
-40 -40 -19 0 15 -45 17 -67 3 -7 -4 -23 -1 -37 8 -27 18 -46 13 -46 -12 0
-14 -2 -14 -19 1 -10 9 -25 14 -35 10 -9 -3 -16 -1 -16 4 0 7 -10 8 -30 2 -16
-5 -38 -6 -50 -3 -11 3 -26 0 -34 -6 -10 -8 -16 -8 -25 3 -15 18 -41 10 -41
-12 0 -13 -2 -13 -19 2 -10 9 -25 14 -34 11 -8 -4 -18 -2 -21 4 -5 7 -15 7
-33 0 -17 -6 -30 -6 -36 0 -5 5 -16 7 -23 4 -11 -4 -14 12 -14 85 0 99 4 106
63 117 21 4 37 13 37 21 0 16 16 19 25 4 8 -13 55 -13 55 0 0 6 9 10 20 10 17
0 19 5 14 25 -7 27 4 32 37 15 15 -8 24 -6 41 10 29 27 42 25 63 -6 11 -17 23
-24 34 -21 10 2 26 0 35 -5 23 -13 20 5 -4 20 -25 16 -26 44 -1 59 16 10 19
20 14 48 -6 40 7 46 29 14 12 -19 17 -20 36 -10 12 6 22 18 22 26 0 17 16 20
25 5 15 -25 25 -5 25 51 0 54 -2 60 -17 54 -33 -14 -57 -10 -67 10 -6 12 -19
19 -28 17 -11 -2 -18 3 -18 12 0 17 -15 22 -24 7 -3 -5 -20 -11 -37 -13 -22
-4 -34 0 -42 14 -7 10 -21 18 -32 18 -30 1 -59 26 -51 45 5 14 15 16 56 10 32
-4 50 -3 50 3 0 6 -4 14 -10 17 -5 3 -10 11 -10 17 0 7 22 9 70 4 l70 -6 -10
26 c-12 30 -6 44 20 44 10 0 21 4 24 8 6 10 -6 30 -19 32 -48 8 -64 14 -69 26
-5 13 -9 13 -28 1 -29 -17 -170 -16 -176 1 -2 7 -11 12 -19 12 -14 0 -13 3 3
21 10 12 18 30 16 40 -3 16 3 19 31 19 31 0 34 2 29 25 -3 20 0 25 15 25 19 0
53 37 66 73 5 13 1 17 -18 17 -14 0 -25 -4 -25 -10 0 -5 -9 -10 -20 -10 -11 0
-20 7 -20 15 0 11 -12 15 -50 15 -27 0 -50 4 -50 9 0 5 -9 13 -20 16 -34 11
-22 22 29 27 33 3 59 14 85 34 44 35 45 44 6 44 -18 0 -30 5 -30 13 0 12 34
47 47 47 3 0 21 11 39 25 18 14 37 25 43 25 6 0 15 9 21 20 6 11 16 20 21 20
6 0 28 14 49 30 21 17 41 30 45 30 5 0 23 11 41 25 18 14 37 25 43 25 6 0 11
4 11 8 0 4 17 14 38 21 20 8 39 17 42 20 9 10 42 29 150 81 58 29 112 55 120
60 9 4 43 13 75 20 33 8 65 16 70 20 6 4 34 13 63 20 28 6 54 16 57 20 3 5 30
12 60 15 30 4 55 11 55 14 0 4 37 13 83 20 45 7 87 17 93 22 11 9 158 25 304
33 34 2 64 6 67 10 10 10 281 7 287 -3z m1363 -53 c19 -18 23 -29 18 -54 -4
-23 -1 -33 10 -38 19 -7 20 -60 0 -76 -8 -7 -26 -9 -44 -5 -48 10 -135 59
-139 77 -2 9 9 42 24 73 l27 57 39 -5 c22 -3 51 -16 65 -29z m-3507 -2043 c0
-25 3 -45 6 -45 9 0 34 28 34 38 0 13 45 34 66 30 17 -3 19 -15 22 -146 l3
-142 -28 -26 -28 -26 -174 4 c-126 2 -176 7 -179 16 -2 6 -9 12 -16 12 -21 0
-55 44 -62 80 -4 19 -12 41 -18 49 -8 11 -8 15 2 18 6 3 10 8 7 12 -7 13 16
85 31 94 8 4 14 14 14 21 0 38 58 53 213 55 l107 1 0 -45z m395 31 c0 0 6 -11
13 -23 8 -15 12 -66 12 -147 l0 -124 -32 -27 c-29 -25 -38 -27 -97 -23 -38 2
-66 9 -69 16 -2 7 -10 12 -18 12 -11 0 -14 27 -14 150 l0 150 29 0 c39 0 61
-9 61 -25 0 -18 29 -47 41 -40 5 4 9 27 9 51 l0 46 33 -7 c17 -4 32 -8 32 -9z
m200 8 c27 -7 45 -48 45 -101 l0 -43 -80 0 -80 0 0 59 c0 51 3 62 22 75 23 16
57 20 93 10z m241 -10 l34 -16 0 -143 c0 -132 -2 -143 -21 -161 -25 -22 -110
-27 -116 -6 -3 6 -11 12 -19 12 -19 0 -21 292 -1 308 29 24 80 26 123 6z m850
-8 c10 -15 14 -54 14 -156 0 -189 25 -174 -307 -178 l-263 -3 6 33 c3 18 7 39
10 46 5 18 0 15 -34 -18 -29 -28 -37 -30 -105 -30 l-73 0 0 68 1 67 46 3 c35
2 49 -2 64 -18 34 -37 45 -26 45 45 0 49 -3 65 -14 65 -7 0 -16 -9 -19 -20 -7
-26 -53 -43 -94 -35 -32 6 -33 8 -33 54 0 58 15 74 74 78 45 4 86 -13 86 -34
0 -7 5 -13 10 -13 6 0 10 13 10 28 0 16 3 32 7 36 4 4 131 6 281 4 257 -3 274
-4 288 -22z m214 2 c15 -16 20 -35 20 -75 l0 -53 -80 0 -81 0 3 62 c3 55 6 64
28 75 39 20 86 16 110 -9z m214 12 l26 -10 0 -154 c0 -149 -1 -155 -22 -170
-12 -9 -33 -16 -46 -16 -28 0 -82 29 -82 45 -5 131 -4 250 2 273 8 30 21 37
75 41 12 0 33 -3 47 -9z m258 -6 c4 -3 8 -74 8 -158 0 -128 -3 -156 -16 -167
-23 -19 -122 -18 -134 1 -5 8 -10 86 -10 172 0 154 0 157 23 161 24 6 116 -1
129 -9z m217 10 c17 -4 31 -13 31 -20 0 -8 5 -14 10 -14 6 0 10 -38 10 -94 0
-53 -4 -98 -10 -101 -5 -3 -10 -1 -10 6 0 6 -31 46 -70 89 -38 43 -70 83 -70
89 0 6 -7 14 -15 17 -8 4 -15 12 -15 20 0 15 80 20 139 8z m181 -3 c0 -5 3
-17 7 -27 4 -12 3 -15 -5 -10 -8 5 -12 -1 -12 -18 0 -14 5 -26 10 -26 6 0 10
5 10 11 0 16 28 40 55 47 42 12 145 2 145 -13 0 -8 -6 -18 -13 -22 -6 -4 -26
-28 -42 -53 -16 -25 -36 -49 -42 -53 -7 -4 -13 -13 -13 -18 0 -6 -11 -25 -25
-43 -14 -18 -25 -36 -25 -41 0 -4 -10 -17 -23 -29 -13 -12 -26 -29 -30 -39 -5
-13 -18 -17 -52 -17 l-45 0 0 164 c0 119 3 166 13 174 23 19 87 28 87 13z
m397 -3 l33 -12 0 -147 c0 -147 0 -148 -26 -168 -15 -12 -40 -21 -56 -21 -30
0 -30 0 -24 45 8 48 -5 61 -24 25 -16 -30 -69 -48 -144 -48 -73 -1 -90 12 -62
45 50 56 116 144 116 152 0 6 9 16 20 23 11 7 20 17 20 21 0 8 16 30 61 85 12
15 43 15 86 0z m403 -9 c0 -11 9 -33 21 -47 12 -16 16 -28 10 -30 -16 -5 -13
-22 4 -22 8 0 15 5 15 11 0 5 4 8 9 5 9 -6 21 40 21 80 0 23 4 24 60 24 47 0
60 -3 60 -15 0 -8 -4 -15 -10 -15 -5 0 -12 -15 -15 -34 -9 -47 24 -102 87
-145 27 -19 53 -42 58 -51 15 -29 1 -57 -32 -64 -41 -8 -80 12 -97 52 -9 19
-22 32 -33 32 -19 0 -24 -19 -9 -35 5 -6 12 -27 15 -47 l7 -38 -140 0 -140 0
6 33 c3 17 10 34 15 35 15 6 8 22 -10 22 -10 0 -28 -13 -40 -30 -21 -28 -27
-30 -91 -30 l-68 0 -2 70 -2 70 48 0 c37 0 51 -5 61 -20 7 -11 19 -20 27 -20
12 0 15 14 15 65 0 36 -3 65 -6 65 -3 0 -17 -14 -31 -30 -23 -27 -31 -31 -71
-28 l-45 3 0 65 0 65 58 3 c59 3 95 -14 95 -45 0 -23 20 -14 22 10 0 12 2 27
3 32 2 6 3 13 4 18 0 4 28 7 61 7 54 0 60 -2 60 -21z m619 15 c18 -4 53 -26
79 -49 l46 -42 0 -80 c1 -77 -15 -133 -37 -133 -5 0 -23 -10 -40 -22 -29 -21
-46 -23 -169 -26 -115 -3 -138 -2 -138 10 0 8 9 23 20 33 34 31 27 80 -20 126
-21 21 -42 39 -46 39 -3 0 -19 11 -36 25 -16 14 -36 25 -44 25 -11 0 -14 9
-12 33 3 29 6 32 40 35 49 4 74 -11 89 -53 7 -19 19 -35 26 -35 15 0 18 56 3
65 -5 3 -10 17 -10 31 0 24 0 24 109 24 60 0 123 -3 140 -6z m-1705 -158 c31
-35 56 -67 56 -71 0 -4 9 -17 19 -29 11 -11 34 -38 52 -60 l33 -38 -99 3 c-67
3 -100 8 -103 17 -2 6 -10 12 -18 12 -11 0 -14 22 -14 115 0 63 4 115 9 115 5
0 34 -29 65 -64z m-1851 -90 c-1 -48 -6 -63 -26 -84 -21 -21 -31 -23 -61 -18
-20 4 -36 11 -36 16 0 6 -7 10 -15 10 -12 0 -15 14 -15 63 0 35 3 67 7 71 4 4
39 5 77 4 l71 -3 -2 -59z m1285 2 c3 -49 0 -59 -23 -82 -30 -31 -51 -32 -99
-8 -35 17 -36 18 -36 78 0 33 3 64 7 68 4 4 39 5 78 4 l70 -3 3 -57z"/>
</g>
</svg>
