<?xml version="1.0" standalone="no"?>
<!DOCTYPE svg PUBLIC "-//W3C//DTD SVG 20010904//EN"
 "http://www.w3.org/TR/2001/REC-SVG-20010904/DTD/svg10.dtd">
<svg version="1.0" xmlns="http://www.w3.org/2000/svg"
 width="580.000000pt" height="400.000000pt" viewBox="0 0 580.000000 400.000000"
 preserveAspectRatio="xMidYMid meet">
<metadata>
Created by potrace 1.16, written by Peter Selinger 2001-2019
</metadata>
<g transform="translate(0.000000,400.000000) scale(0.100000,-0.100000)"
fill="#000000" stroke="none">
<path d="M2460 3609 c-556 -45 -1028 -135 -1545 -295 -244 -75 -289 -71 -434
41 -123 96 -255 58 -317 -90 -21 -51 -6 -112 52 -205 47 -76 68 -148 57 -203
-3 -17 -21 -71 -39 -119 -87 -225 -81 -455 16 -663 21 -44 51 -100 68 -125
l31 -44 -35 -47 c-153 -208 -183 -536 -74 -804 16 -38 31 -83 34 -100 10 -47
-11 -133 -44 -182 -89 -132 -93 -202 -17 -305 52 -71 175 -76 279 -13 52 32
74 39 130 43 93 6 148 -15 232 -88 38 -33 86 -65 105 -70 23 -6 712 -10 1939
-10 2135 0 1932 -8 2032 79 87 76 112 86 215 86 87 0 92 -1 153 -39 138 -86
278 -45 318 92 20 69 7 127 -47 207 -69 101 -75 177 -24 295 50 117 66 217 62
375 -4 109 -9 156 -27 210 -27 85 -72 177 -111 226 -16 20 -29 41 -29 46 0 5
12 25 26 44 44 57 113 211 129 288 19 92 19 275 0 365 -8 39 -29 103 -46 144
-54 130 -50 219 15 304 37 47 66 122 66 166 0 50 -48 130 -93 156 -87 51 -162
43 -244 -24 -65 -54 -126 -83 -187 -88 -41 -3 -89 8 -236 53 -512 157 -991
249 -1515 290 -205 16 -714 18 -895 4z m745 -789 c324 -12 815 -73 965 -119
70 -22 86 -30 88 -49 2 -12 -2 -22 -9 -22 -7 0 -5 -8 7 -22 l19 -21 -32 6
c-31 6 -45 -5 -23 -18 20 -12 9 -36 -21 -47 l-32 -11 24 -13 c13 -7 20 -13 14
-14 -5 0 -4 -5 3 -12 7 -7 12 -20 12 -30 0 -14 -8 -17 -42 -16 -24 0 -59 -4
-78 -9 -34 -9 -35 -9 -12 -21 12 -7 22 -19 22 -28 0 -10 7 -13 24 -8 27 6 44
-12 27 -29 -16 -16 -13 -27 8 -27 18 0 31 -18 31 -42 0 -6 -10 -8 -22 -5 -13
3 -41 -1 -63 -8 -36 -12 -38 -14 -17 -20 12 -4 22 -13 22 -20 0 -7 7 -15 15
-19 8 -3 15 -13 15 -22 0 -12 6 -15 22 -11 27 7 70 -24 58 -43 -6 -10 -17 -11
-51 -2 -30 8 -47 8 -56 1 -9 -8 -19 -3 -38 18 -25 28 -25 28 -31 6 -4 -16 -14
-23 -30 -23 -30 0 -31 -13 -1 -33 19 -14 20 -18 7 -26 -12 -9 -11 -11 8 -11
30 0 30 -36 0 -43 -22 -6 -22 -6 4 -27 17 -13 41 -20 68 -20 l42 0 -30 -25
c-18 -15 -42 -25 -60 -25 -17 0 -34 -5 -38 -11 -3 -6 -17 -8 -30 -5 -16 4 -24
2 -24 -6 1 -21 26 -48 44 -48 9 0 16 -8 16 -20 0 -15 7 -20 26 -20 20 0 25 -4
20 -16 -4 -9 -1 -23 6 -31 23 -28 -17 -44 -99 -39 -42 3 -73 1 -73 -5 0 -5
-10 -9 -22 -9 -13 0 -29 -4 -37 -9 -11 -7 -9 -10 8 -16 12 -4 21 -15 21 -26 0
-18 6 -20 43 -17 37 3 42 0 45 -19 3 -17 11 -23 40 -25 49 -4 47 -20 -3 -30
-22 -5 -57 -13 -79 -19 -35 -9 -37 -11 -20 -24 18 -13 17 -14 -8 -25 -23 -11
-25 -15 -17 -43 7 -24 5 -33 -6 -40 -8 -4 -15 -16 -15 -26 0 -11 -8 -22 -17
-26 -17 -6 -17 -7 0 -16 9 -6 15 -14 12 -19 -9 -15 38 -22 69 -11 22 9 32 8
51 -7 31 -22 31 -26 0 -46 -57 -37 -6 -67 67 -40 57 20 168 34 191 22 13 -7
17 -22 17 -71 0 -72 -8 -89 -41 -89 -33 -1 -296 1 -399 2 -47 0 -93 1 -102 0
-10 0 -30 0 -45 0 -16 0 -53 0 -83 -1 -57 -1 -260 0 -295 2 -11 0 -27 -1 -35
-2 -42 -6 -190 2 -190 11 0 6 -11 28 -25 50 -24 38 -25 47 -25 184 l0 144 52
62 c65 76 90 89 168 91 58 2 63 4 81 33 11 17 24 48 29 68 6 21 21 49 34 63
13 14 29 39 36 55 7 16 20 32 30 35 11 4 25 27 35 60 10 32 38 79 66 115 46
56 63 100 39 100 -5 0 -10 14 -10 30 0 41 -18 46 -87 22 -59 -20 -133 -36
-133 -29 0 2 8 19 17 38 28 56 29 140 3 193 -22 46 -40 60 -40 30 0 -8 5 -24
11 -35 5 -11 9 -34 7 -52 l-3 -32 -29 53 c-16 28 -35 52 -43 52 -18 0 -16 -14
7 -57 11 -21 20 -51 20 -68 0 -31 -33 -95 -49 -95 -5 0 -14 27 -19 59 -12 64
-46 141 -63 141 -7 0 -9 -9 -5 -22 4 -13 9 -48 12 -78 l5 -55 -21 51 c-11 27
-33 63 -50 79 -25 24 -30 26 -36 11 -4 -10 4 -29 20 -50 14 -19 26 -42 26 -50
0 -20 -24 -21 -39 -2 -7 8 -36 25 -65 39 -30 14 -64 39 -76 56 -24 35 -55 55
-70 46 -11 -7 63 -110 86 -119 16 -6 19 -26 4 -26 -6 0 -28 11 -50 25 -45 28
-50 30 -50 13 0 -7 19 -29 42 -48 25 -22 39 -41 34 -48 -14 -22 -35 -12 -85
41 -56 59 -131 107 -131 84 0 -7 18 -32 40 -55 22 -22 40 -44 40 -49 0 -4 -20
-7 -45 -5 -36 3 -45 1 -45 -12 0 -9 5 -16 10 -16 6 0 10 -4 10 -10 0 -5 -25
-10 -55 -10 -69 0 -76 -22 -12 -39 72 -19 76 -25 39 -64 -17 -18 -32 -36 -32
-40 0 -20 44 -2 85 33 50 44 105 57 85 21 -5 -11 -19 -23 -30 -26 -20 -6 -26
-20 -12 -28 16 -9 71 15 98 42 l29 30 65 -14 c36 -8 79 -15 95 -15 37 0 103
-71 82 -88 -37 -30 -86 -34 -188 -16 l-101 18 -93 -24 c-87 -22 -100 -23 -215
-13 -73 7 -135 7 -153 2 -47 -13 -152 -115 -173 -167 -20 -51 -15 -119 17
-227 16 -53 20 -83 14 -125 -3 -30 -6 -66 -7 -80 0 -23 17 -212 24 -270 2 -20
-1 -25 -17 -23 -28 3 -275 3 -360 0 -38 -2 -83 1 -99 5 -16 4 -37 3 -48 -3
-14 -7 -29 -7 -50 0 -22 8 -49 8 -95 0 -35 -6 -67 -8 -71 -4 -4 3 -8 39 -10
80 -4 63 -2 74 14 83 24 12 136 -1 186 -22 41 -17 98 -12 98 10 0 7 -12 22
-27 34 l-28 21 24 18 c20 15 31 16 63 8 35 -9 41 -7 61 15 22 24 23 26 6 37
-10 6 -16 17 -13 25 3 9 -3 17 -16 21 -14 5 -18 10 -12 18 24 31 23 54 -5 66
-26 12 -27 14 -9 26 17 13 15 14 -20 24 -22 5 -58 12 -81 16 -57 9 -59 35 -3
35 32 0 38 3 33 16 -8 23 13 33 58 27 33 -5 38 -3 33 10 -4 10 4 20 23 30 l28
15 -38 7 c-20 4 -37 11 -37 16 0 8 -114 4 -128 -5 -4 -2 -18 4 -31 13 -19 14
-21 22 -14 37 6 10 8 25 6 32 -3 7 5 12 21 12 19 0 26 5 26 20 0 11 5 20 12
20 14 0 48 30 48 42 0 4 -13 8 -30 8 -16 0 -30 5 -30 10 0 6 -15 10 -32 10
-20 1 -45 11 -63 25 l-30 25 40 0 c40 0 85 22 85 41 0 5 -7 9 -15 9 -8 0 -15
9 -15 20 0 14 7 20 23 20 18 0 19 2 7 10 -13 9 -12 13 8 29 28 25 28 31 -3 31
-21 0 -25 5 -25 28 l-1 27 -30 -33 c-22 -24 -33 -31 -42 -23 -9 7 -26 7 -56
-1 -29 -7 -45 -8 -53 0 -14 14 28 56 49 48 15 -6 63 35 63 54 0 5 10 12 23 16
20 6 19 8 -16 20 -21 7 -51 11 -68 7 -16 -3 -29 -2 -29 1 0 20 23 46 41 46 17
0 18 3 9 20 -15 27 -4 41 26 34 18 -5 24 -2 24 10 0 8 10 21 23 28 22 12 21
12 -13 21 -19 6 -55 10 -80 9 -38 0 -46 3 -47 18 -1 10 5 21 13 24 9 3 13 10
9 15 -3 6 3 14 12 20 16 9 15 11 -11 20 -16 7 -26 17 -23 24 20 49 21 47 -14
40 -34 -6 -34 -6 -16 14 15 17 16 21 3 26 -22 9 -12 40 15 48 154 46 191 53
619 109 86 12 246 24 360 27 113 3 207 7 209 9 7 7 214 4 466 -6z m-1785 -207
c0 -5 3 -18 6 -31 6 -21 4 -22 -20 -16 -22 5 -26 3 -26 -15 0 -16 -6 -21 -27
-21 l-27 0 28 -29 c27 -29 28 -29 8 -40 -12 -6 -30 -11 -41 -11 -20 0 -20 -1
-4 -35 18 -39 12 -55 -13 -34 -14 11 -18 11 -28 -2 -6 -9 -22 -20 -35 -24 -21
-6 -22 -9 -8 -16 10 -6 14 -16 10 -26 -5 -13 0 -15 28 -11 40 6 69 -6 69 -29
0 -13 -9 -15 -62 -9 -35 4 -74 10 -87 13 -21 5 -22 4 -13 -14 6 -11 8 -30 5
-43 -5 -19 -3 -22 11 -17 20 8 66 -33 66 -59 0 -12 6 -15 23 -11 12 4 28 2 36
-2 11 -7 9 -11 -9 -21 -17 -9 -32 -9 -64 -1 -22 6 -54 9 -71 7 -16 -2 -35 -4
-42 -5 -6 0 -9 -10 -6 -21 4 -15 0 -20 -13 -21 -31 -1 68 -41 106 -42 25 -2
36 -7 38 -21 4 -17 -1 -18 -62 -14 -36 3 -66 2 -66 -3 0 -5 -13 -9 -30 -9 -32
0 -40 -14 -15 -24 8 -3 15 -15 15 -26 0 -16 4 -20 19 -15 26 8 36 -12 20 -42
-11 -20 -11 -26 1 -33 8 -6 25 -10 36 -10 12 0 27 -7 35 -16 17 -21 -5 -36
-46 -30 -16 2 -39 -1 -50 -6 -23 -12 -65 -49 -65 -57 0 -9 50 -28 93 -35 58
-11 42 -36 -23 -36 -16 0 -32 -4 -35 -10 -3 -5 -15 -10 -26 -10 -23 0 -36 -27
-20 -43 6 -6 29 -12 51 -12 22 -1 42 -4 46 -8 13 -12 -18 -37 -46 -37 -22 0
-32 -7 -44 -32 -20 -39 -9 -54 39 -49 43 3 46 -15 5 -24 -20 -4 -30 -13 -30
-25 0 -9 -7 -23 -15 -30 -10 -9 -12 -17 -6 -23 12 -12 3 -37 -15 -37 -20 0
-17 -14 7 -36 15 -14 34 -18 67 -17 25 1 53 -2 62 -7 9 -5 37 -4 65 2 50 11
155 12 165 2 3 -3 7 -43 9 -90 l3 -83 -28 0 c-419 0 -412 0 -496 41 -94 47
-149 102 -193 193 -41 85 -52 164 -36 266 69 440 321 804 696 1006 62 34 75
38 75 26z m3003 -14 c153 -78 348 -245 463 -398 162 -216 260 -499 252 -727
-3 -88 -7 -108 -35 -165 -43 -87 -97 -140 -190 -186 -70 -35 -85 -38 -164 -39
-47 -1 -95 -5 -106 -8 -11 -4 -33 -2 -48 4 -19 7 -46 7 -89 -1 -43 -7 -70 -7
-89 0 -28 11 -28 11 -25 93 l3 83 75 0 c41 -1 91 -2 110 -3 65 -4 165 10 183
26 21 18 22 32 3 32 -18 0 -29 27 -14 36 8 5 6 11 -4 18 -9 6 -17 20 -19 31
-3 12 -17 24 -37 30 -55 16 -35 31 35 26 30 -3 36 13 16 48 -13 22 -25 31 -44
31 -34 0 -59 27 -38 41 8 5 29 8 46 5 26 -4 35 0 43 15 13 24 5 39 -20 39 -10
0 -22 5 -25 10 -3 6 -21 10 -38 10 -18 0 -39 5 -47 10 -13 9 -13 11 0 20 8 5
26 10 41 10 28 0 79 21 79 32 0 5 -18 21 -41 38 -29 21 -48 28 -67 24 -15 -3
-38 -1 -51 3 -22 9 -22 10 -6 26 9 9 27 17 39 17 13 0 30 7 37 16 11 14 11 18
-3 28 -22 16 -4 49 23 41 14 -5 19 -2 19 14 0 11 10 27 22 35 22 16 22 16 -14
16 -20 0 -39 4 -42 9 -3 4 -28 6 -55 3 -64 -6 -88 2 -70 24 7 8 22 14 33 13
23 -3 95 18 111 32 5 6 2 9 -8 9 -19 0 -23 15 -7 25 37 23 -52 32 -121 13 -41
-12 -94 6 -68 23 8 4 24 6 36 2 18 -4 23 -1 23 15 0 23 45 63 63 56 9 -3 12 9
12 36 0 38 -1 40 -25 36 -115 -23 -154 -18 -124 15 13 15 25 17 56 13 33 -6
37 -4 32 10 -4 10 0 18 10 22 20 8 11 24 -14 24 -10 0 -22 9 -25 21 -6 19 -8
19 -24 5 -31 -29 -43 -20 -26 20 19 46 19 44 -10 44 -37 0 -49 30 -23 58 l21
22 -21 0 c-15 0 -24 8 -28 25 -5 20 -9 23 -24 15 -25 -13 -34 3 -18 30 16 24
10 24 61 -1z m-1575 -1095 c17 -3 33 -12 35 -18 6 -14 -16 -137 -43 -243 -14
-58 -16 -81 -8 -114 13 -47 0 -63 -42 -52 -14 4 -34 6 -45 5 -19 -3 -47 -2
-105 1 -14 0 -47 -2 -75 -6 l-50 -8 -23 53 c-17 38 -23 71 -23 120 0 63 3 72
40 124 22 31 43 72 47 90 7 36 28 48 66 39 13 -3 35 -2 48 4 28 11 132 14 178
5z m-444 -289 c4 -33 14 -75 22 -93 18 -38 18 -38 -16 -47 -22 -5 -27 -1 -44
40 -14 36 -18 63 -14 124 6 95 17 119 33 70 7 -19 15 -61 19 -94z m546 -12 c6
-27 18 -64 25 -84 l14 -37 -35 -4 c-31 -4 -37 -1 -45 20 -19 49 -4 172 20 158
4 -3 14 -27 21 -53z"/>
</g>
</svg>
