<?xml version="1.0" standalone="no"?>
<!DOCTYPE svg PUBLIC "-//W3C//DTD SVG 20010904//EN"
 "http://www.w3.org/TR/2001/REC-SVG-20010904/DTD/svg10.dtd">
<svg version="1.0" xmlns="http://www.w3.org/2000/svg"
 width="580.000000pt" height="400.000000pt" viewBox="0 0 580.000000 400.000000"
 preserveAspectRatio="xMidYMid meet">
<metadata>
Created by potrace 1.16, written by Peter Selinger 2001-2019
</metadata>
<g transform="translate(0.000000,400.000000) scale(0.100000,-0.100000)"
fill="#000000" stroke="none">
<path d="M2675 3651 c-77 -4 -185 -14 -240 -23 -55 -9 -129 -21 -165 -27 -115
-18 -278 -49 -312 -60 -18 -6 -94 -29 -168 -53 -174 -54 -379 -128 -455 -165
-33 -16 -100 -49 -150 -73 -156 -76 -222 -131 -337 -283 l-28 -36 0 -1266 0
-1267 29 -29 29 -29 2009 0 2008 1 30 24 30 25 3 1268 2 1269 -65 84 c-36 46
-87 101 -113 122 -26 21 -55 45 -65 53 -20 16 -120 67 -222 114 -38 17 -83 38
-100 45 -53 25 -161 65 -176 65 -8 0 -19 4 -24 9 -11 10 -150 59 -205 72 -19
4 -89 24 -155 44 -65 19 -131 35 -145 35 -14 0 -68 9 -120 19 -262 54 -585 76
-895 62z m265 -85 c0 -2 -26 -16 -57 -31 -32 -16 -77 -48 -99 -73 l-42 -44
-41 30 c-22 16 -70 38 -105 47 -77 21 -125 13 -204 -34 l-50 -29 -68 20 c-38
11 -89 23 -114 27 l-45 6 80 14 c44 7 112 19 152 27 99 19 593 53 593 40z
m435 -32 c184 -28 210 -33 325 -59 178 -39 330 -81 435 -120 39 -15 95 -35
125 -46 72 -25 121 -47 290 -128 58 -28 131 -71 163 -97 l58 -46 -3 -62 c-4
-74 -21 -83 -77 -38 -36 29 -129 58 -201 63 -19 2 -48 12 -65 24 -31 22 -106
45 -148 45 -13 0 -41 11 -62 25 -88 60 -172 76 -240 46 -26 -12 -65 -21 -87
-21 -49 0 -107 -30 -132 -68 l-19 -29 -64 34 c-68 35 -127 42 -178 23 -24 -9
-28 -6 -56 40 -17 28 -43 57 -57 66 -25 14 -10 14 163 9 105 -4 221 -10 259
-15 66 -8 96 -5 96 9 0 18 -44 51 -79 61 -21 5 -53 21 -72 35 -77 56 -203 90
-325 87 l-92 -2 -13 33 c-15 37 -97 127 -115 127 -7 0 -16 5 -19 10 -9 15 74
12 190 -6z m-501 -291 c88 -13 118 -14 153 -5 54 15 126 15 176 1 38 -10 42
-29 6 -29 -56 0 -119 -58 -119 -110 0 -26 -10 -50 -21 -50 -6 0 -22 9 -37 19
-32 22 -122 34 -173 22 -35 -8 -38 -7 -92 54 -44 49 -65 65 -104 76 l-48 13
50 12 c69 17 85 16 209 -3z m-426 -10 c39 -3 72 -7 72 -9 0 -2 -13 -16 -29
-32 -17 -16 -32 -43 -36 -65 -6 -31 -11 -37 -31 -37 -14 0 -46 -11 -72 -24
-47 -24 -49 -24 -112 -9 -73 17 -142 7 -192 -28 -19 -14 -44 -19 -90 -19 -37
0 -90 -8 -125 -20 -33 -11 -82 -21 -109 -23 -60 -5 -148 -56 -170 -99 -9 -16
-13 -32 -10 -35 3 -3 76 -1 163 6 242 17 1128 0 1208 -24 55 -15 108 -17 590
-15 370 2 486 5 548 15 54 8 220 -22 214 -39 -3 -9 -108 -36 -188 -50 -15 -2
-42 -11 -60 -19 -19 -9 -51 -18 -73 -22 -21 -3 -42 -8 -47 -11 -5 -3 -13 6
-19 20 -13 35 -36 33 -43 -4 -4 -18 -13 -30 -22 -30 -9 0 -13 -4 -10 -10 3 -5
3 -10 -2 -10 -4 0 -39 -7 -78 -15 -38 -8 -86 -16 -105 -19 -19 -2 -48 -9 -64
-15 -24 -10 -27 -9 -23 3 3 8 1 17 -6 20 -9 3 -9 7 1 14 14 9 6 42 -10 42 -5
0 -7 4 -4 9 4 5 0 11 -6 14 -10 3 -10 7 1 20 8 11 9 17 2 17 -6 0 -13 11 -17
25 -3 14 -13 25 -21 25 -18 0 -44 -25 -36 -34 4 -3 -1 -12 -10 -19 -9 -6 -18
-22 -20 -35 -2 -13 -8 -27 -13 -30 -11 -9 -17 -55 -6 -48 5 3 9 -1 9 -9 0 -8
-7 -15 -15 -15 -11 0 -12 -3 -3 -14 9 -10 8 -15 -3 -19 -9 -4 -12 -14 -9 -25
3 -15 -7 -29 -43 -56 -26 -20 -54 -36 -63 -36 -8 0 -53 -16 -99 -36 -76 -33
-86 -35 -114 -23 -46 19 -210 -15 -253 -52 -27 -24 -96 -60 -135 -71 -8 -3
-29 1 -46 8 -17 7 -41 10 -52 7 -28 -7 -28 4 -2 27 20 18 20 18 -3 24 -19 4
-24 13 -25 39 -2 42 56 114 88 109 13 -2 20 2 20 12 0 21 32 20 72 0 31 -16
32 -16 54 10 l23 26 -25 25 c-14 14 -36 28 -49 31 -33 8 -33 45 0 70 29 22 31
31 8 36 -10 2 -35 -10 -56 -29 -35 -31 -77 -44 -77 -23 0 17 -81 33 -107 21
-31 -14 -29 -26 12 -68 19 -20 35 -40 35 -46 0 -5 -12 -18 -26 -30 -15 -11
-33 -36 -41 -55 -8 -19 -25 -51 -38 -72 -13 -21 -21 -41 -17 -45 4 -4 -2 -13
-12 -21 -11 -7 -17 -17 -13 -20 4 -4 2 -13 -4 -21 -14 -16 -144 -18 -183 -3
-15 5 -41 12 -59 14 -156 23 -179 29 -220 64 -23 19 -51 47 -61 61 -33 46 -87
78 -145 84 -82 10 -202 72 -180 94 7 7 5 16 -6 27 -9 9 -13 16 -9 16 3 0 1 7
-6 15 -10 12 -9 16 5 21 16 7 16 8 2 19 -9 6 -21 24 -26 38 -6 15 -15 27 -20
27 -10 0 -27 -39 -23 -52 1 -5 -2 -8 -8 -8 -5 0 -16 -13 -25 -30 -10 -19 -11
-30 -5 -30 6 0 8 -4 5 -10 -9 -14 -39 -12 -114 6 -90 23 -209 71 -235 96 -11
11 -31 27 -44 35 -21 14 -22 22 -22 133 0 65 3 125 6 134 3 9 29 33 58 53 28
21 53 40 56 43 13 15 119 68 150 75 38 8 342 21 747 33 138 4 255 11 260 15 4
5 28 6 53 3 25 -4 78 -9 118 -13z m2132 -426 c36 -1 93 3 128 7 l62 9 0 -29 0
-30 -192 4 c-106 2 -194 5 -194 6 -1 0 -5 12 -9 25 l-7 24 73 -8 c41 -4 103
-8 139 -8z m47 -76 c26 -6 69 -13 96 -16 l47 -6 0 -675 0 -674 -60 2 c-43 2
-60 7 -60 17 0 11 -3 11 -15 1 -8 -7 -15 -8 -15 -2 0 5 -9 12 -20 15 -11 3
-20 1 -20 -4 0 -8 -31 3 -47 15 -2 1 11 29 28 61 25 49 30 68 27 110 -3 27 -7
57 -11 65 -5 10 11 35 48 75 58 62 90 117 101 174 10 48 -8 33 -39 -31 -29
-62 -68 -107 -117 -137 -45 -27 -58 -27 -133 7 -34 16 -83 34 -110 41 -26 8
-50 18 -53 22 -3 5 -13 9 -23 9 -23 0 -110 109 -122 153 -11 40 -17 48 -51 70
-33 21 -96 22 -122 2 -11 -9 -42 -15 -70 -15 -28 0 -57 -4 -65 -9 -30 -19 19
-101 61 -101 83 0 143 -125 114 -239 -3 -14 1 -38 10 -55 9 -17 18 -61 21 -98
l6 -68 -33 4 c-19 2 -39 11 -46 20 -8 11 -14 13 -19 7 -7 -13 -55 -11 -73 3
-18 13 -84 16 -99 4 -7 -5 -16 -7 -21 -4 -4 3 -31 -6 -59 -19 -28 -13 -53 -22
-55 -19 -3 2 -19 0 -36 -5 -20 -6 -32 -6 -32 0 0 6 -7 6 -19 -1 -12 -6 -22 -6
-26 -1 -7 12 -2 11 -187 12 -106 0 -148 4 -148 12 0 9 -2 9 -8 0 -4 -6 -30
-13 -57 -15 -28 -2 -54 -6 -60 -10 -14 -8 -55 9 -55 24 0 9 -3 9 -12 0 -16
-16 -49 -15 -70 2 -13 10 -18 27 -18 65 0 62 13 71 72 48 48 -19 62 -14 54 19
-5 20 -3 24 15 24 20 0 48 24 49 42 0 4 -9 10 -20 13 -16 5 -18 10 -10 25 9
17 6 20 -25 26 -44 8 -45 21 -2 29 30 6 33 10 29 32 -4 22 -8 24 -36 19 -40
-7 -63 6 -41 24 8 7 15 18 15 25 0 7 8 16 18 20 15 6 14 8 -7 16 -13 5 -32 7
-41 4 -10 -3 -20 1 -23 9 -4 10 2 16 21 18 19 2 26 8 24 21 -2 9 1 17 7 17 10
0 9 14 -4 44 -7 16 -10 16 -19 5 -13 -16 -76 -24 -76 -9 0 10 13 14 37 11 6
-1 14 8 18 19 3 11 12 20 18 20 7 1 1 7 -13 15 -14 8 -21 14 -16 15 5 0 2 8
-5 17 -13 15 -12 16 9 10 13 -3 21 -3 18 0 -3 4 -1 12 5 20 12 13 -2 18 -43
15 -21 -2 -22 2 -8 28 7 13 7 21 0 25 -6 4 -8 11 -5 16 4 5 1 9 -4 9 -6 0 -11
7 -11 15 0 8 -7 15 -15 15 -8 0 -15 8 -15 17 0 15 -2 14 -19 -3 -10 -10 -18
-21 -18 -24 2 -14 -16 -50 -25 -50 -6 0 -5 -6 2 -16 11 -13 10 -16 -8 -20 -12
-4 -18 -12 -16 -19 3 -7 -4 -16 -15 -20 -12 -3 -21 -15 -21 -25 0 -13 -5 -17
-14 -14 -19 7 -9 -37 11 -49 22 -14 14 -27 -17 -27 -23 0 -28 -4 -23 -16 5
-14 -1 -15 -48 -9 -30 4 -57 9 -61 12 -16 9 -7 23 15 23 12 0 31 7 41 15 19
15 19 15 -5 15 -23 1 -23 1 -5 15 14 11 16 15 5 15 -8 1 -3 7 11 15 25 14 25
14 3 15 -15 0 -23 6 -23 18 -1 16 -2 16 -13 0 -14 -18 -78 -29 -81 -13 0 6 8
11 19 13 11 1 28 16 37 32 16 28 16 29 -3 35 -10 4 -23 4 -28 0 -5 -3 -12 -1
-15 3 -3 5 34 17 82 27 89 19 143 42 203 88 38 28 144 52 193 43 54 -10 157
26 287 100 71 40 124 44 124 9 0 -12 -8 -21 -20 -24 -11 -2 -31 -8 -45 -13
-19 -7 -21 -11 -10 -18 8 -5 21 -5 30 0 8 5 48 12 88 15 72 8 91 25 26 25 -24
0 -34 5 -34 15 0 11 11 15 36 15 21 0 33 4 29 10 -3 6 1 10 9 10 12 0 15 8 10
34 -6 39 -17 33 141 70 88 20 94 20 91 -1 -2 -10 2 -21 8 -25 8 -6 7 -11 -3
-17 -8 -5 -11 -16 -8 -25 5 -11 1 -16 -13 -16 -11 0 -20 -4 -20 -10 0 -5 5
-10 10 -10 6 0 10 -7 10 -15 0 -8 -4 -15 -10 -15 -5 0 -10 -9 -10 -20 0 -11 5
-20 10 -20 6 0 9 -5 8 -12 -2 -8 9 -11 35 -9 28 2 37 -1 37 -13 0 -17 -6 -19
-61 -16 -39 1 -62 -15 -32 -23 35 -10 222 -7 228 3 4 6 -9 10 -32 11 -56 1
-81 11 -74 29 4 9 19 15 41 15 l35 0 -2 59 c-2 35 -8 63 -15 68 -10 6 -10 10
1 17 12 8 12 12 2 24 -9 12 -9 16 1 20 7 3 3 6 -9 6 -26 1 -29 11 -11 29 9 9
9 12 -1 12 -33 0 5 19 61 30 35 7 97 21 140 31 109 27 159 25 129 -6 -12 -12
-18 -102 -8 -112 4 -4 24 -6 43 -5 31 2 35 0 32 -19 -2 -17 -11 -22 -48 -25
-94 -9 -54 -20 72 -21 118 -1 130 0 103 12 -16 7 -34 11 -38 8 -16 -9 -57 7
-57 23 0 13 7 15 36 9 31 -5 36 -4 31 9 -4 10 -1 16 7 16 15 0 11 35 -7 58 -7
8 -5 12 8 12 9 0 15 6 12 13 -2 6 -14 12 -26 11 -24 -1 -27 6 -9 24 9 9 9 12
0 12 -24 0 -11 19 16 23 53 8 162 7 209 -2z m-3479 -96 c63 -26 130 -48 150
-49 66 -5 70 -6 87 -22 12 -12 13 -19 5 -24 -6 -4 -13 -32 -15 -63 l-4 -56 42
-3 c29 -2 43 -8 45 -19 2 -13 -8 -17 -43 -21 -45 -6 -63 -13 -53 -23 3 -3 45
-1 94 4 81 9 173 39 247 81 24 14 81 -11 104 -46 10 -16 41 -51 68 -79 41 -40
64 -54 118 -70 37 -11 67 -23 67 -26 0 -3 -18 -14 -40 -24 -24 -11 -40 -25
-40 -35 0 -42 -66 -42 -77 -1 -6 25 -27 33 -58 21 -27 -10 -34 -30 -10 -30 16
0 42 -35 47 -64 2 -14 -5 -21 -27 -27 -16 -5 -35 -19 -41 -31 -6 -13 -19 -37
-28 -55 -14 -26 -15 -39 -6 -72 8 -29 15 -39 25 -35 8 4 15 1 15 -5 0 -19 15
-12 60 29 25 23 56 44 70 47 14 3 28 10 31 15 3 5 21 -14 40 -42 19 -27 39
-50 45 -50 6 0 17 -6 23 -14 17 -20 88 -56 111 -56 26 0 40 -28 29 -57 -6 -16
-5 -23 3 -23 6 0 1 -8 -11 -19 -18 -16 -19 -20 -5 -25 8 -3 29 -6 45 -6 33 0
37 -7 12 -26 -22 -15 -14 -24 24 -30 37 -6 40 -6 95 2 55 8 55 9 62 -88 3 -56
1 -70 -12 -77 -11 -6 -20 -4 -28 7 -12 16 -14 15 -28 -3 -9 -12 -15 -15 -16
-7 0 9 -7 11 -20 7 -15 -5 -20 -2 -20 12 -1 17 -1 17 -11 1 -5 -10 -17 -18
-26 -18 -9 0 -22 8 -29 18 -13 16 -14 16 -8 0 8 -23 -28 -25 -50 -3 -19 19
-26 19 -26 0 0 -24 -20 -17 -21 8 l0 22 -16 -22 c-19 -28 -59 -32 -49 -6 6 16
6 16 -12 0 -23 -21 -52 -22 -52 -3 0 8 -5 18 -11 22 -8 4 -9 0 -4 -15 5 -16 2
-21 -13 -21 -11 0 -25 7 -32 15 -17 21 -30 19 -30 -6 0 -11 -4 -17 -10 -14 -5
3 -10 15 -10 26 0 25 -17 24 -25 -2 -6 -19 -8 -19 -19 -3 -12 15 -13 15 -19 0
-10 -27 -30 -19 -24 10 l5 26 -29 -32 c-22 -24 -33 -29 -46 -22 -10 5 -24 7
-31 5 -7 -3 -22 3 -33 13 -17 16 -19 16 -19 1 0 -10 -7 -17 -15 -17 -10 0 -15
10 -15 28 l-1 27 -20 -24 c-17 -21 -22 -22 -30 -10 -5 7 -9 10 -9 4 -1 -33
-50 -43 -50 -10 0 7 -7 16 -16 19 -12 4 -14 1 -9 -14 5 -15 2 -20 -13 -20 -12
0 -23 9 -27 23 l-7 22 -7 -25 c-9 -31 -25 -33 -29 -3 -2 14 -8 20 -18 16 -9
-3 -14 2 -14 17 0 21 3 22 46 15 43 -6 45 -5 39 14 -5 18 -2 21 24 21 27 0 30
3 22 18 -5 9 -12 25 -15 35 -3 11 -15 21 -25 24 -12 3 -17 11 -14 20 3 8 11
12 17 10 6 -3 17 1 23 9 10 10 9 14 -7 19 -11 4 -29 4 -39 0 -23 -7 -39 13
-16 21 16 7 42 45 28 43 -4 -1 -17 -1 -28 0 -17 1 -18 3 -5 14 9 7 15 19 15
27 0 8 3 18 8 21 6 4 0 10 -12 14 -12 3 -21 15 -21 26 0 11 -7 19 -17 20 -11
0 -13 3 -5 6 6 2 10 8 7 13 -3 5 4 12 16 15 20 7 19 8 -10 26 -18 11 -31 27
-31 39 0 11 0 23 0 28 -1 10 -33 20 -47 15 -7 -3 -13 -16 -13 -29 0 -13 -5
-24 -11 -24 -5 0 -7 -4 -4 -10 3 -5 -6 -21 -22 -35 -15 -13 -22 -25 -15 -25 7
0 11 -4 7 -10 -3 -5 -11 -7 -18 -4 -8 3 -13 -4 -13 -16 0 -11 6 -20 13 -20 7
0 13 -4 13 -10 0 -5 -9 -10 -19 -10 -23 0 -37 -16 -19 -23 10 -3 10 -7 0 -20
-10 -12 -11 -21 -2 -37 13 -24 5 -41 -16 -33 -19 7 -15 -17 6 -34 13 -10 13
-12 -1 -18 -11 -4 -15 -19 -15 -55 1 -28 -3 -50 -8 -50 -6 0 -5 -5 2 -12 6 -6
36 -11 67 -10 43 1 55 -2 55 -14 0 -8 -8 -18 -17 -21 -10 -4 -21 -11 -25 -17
-11 -16 -48 -16 -48 0 0 8 -6 14 -14 14 -10 0 -12 -7 -8 -22 5 -22 -5 -20 -39
9 -14 12 -17 11 -22 -7 -7 -29 -25 -25 -29 7 l-3 28 -22 -25 c-19 -19 -23 -21
-23 -7 0 9 -4 17 -10 17 -5 0 -10 -7 -10 -15 0 -8 -5 -15 -10 -15 -6 0 -13 7
-16 15 -4 8 -10 15 -15 15 -5 0 -9 -7 -9 -15 0 -8 -4 -15 -10 -15 -7 0 -10
214 -10 621 0 587 1 621 18 616 9 -3 68 -27 130 -52z m1180 -473 c2 -12 7 -22
12 -22 13 0 40 -30 40 -44 0 -10 -12 -12 -43 -9 -37 5 -43 3 -44 -15 -2 -20
34 -38 65 -33 6 1 12 -3 12 -10 0 -7 -12 -10 -32 -7 -17 3 -43 -1 -57 -8 -14
-8 -20 -14 -13 -14 6 0 12 -7 12 -15 0 -8 6 -14 13 -12 7 1 11 -7 9 -21 -3
-17 2 -25 17 -29 36 -9 23 -21 -19 -17 -34 3 -40 1 -41 -16 -1 -11 -2 -26 -3
-32 0 -7 -10 -14 -20 -16 -14 -3 -17 0 -13 11 4 10 -7 27 -29 46 -18 17 -34
37 -34 45 0 8 -10 18 -22 21 -13 4 -37 16 -55 26 l-31 19 69 70 c38 38 69 76
69 84 0 11 13 16 48 18 78 5 87 3 90 -20z m267 -573 c22 -6 84 -10 138 -9 l97
1 0 -70 c0 -63 -2 -71 -19 -71 -10 0 -21 7 -25 15 -3 8 -10 15 -15 15 -6 0 -8
-7 -5 -15 8 -21 -24 -20 -48 2 -17 15 -18 15 -18 -1 0 -10 -6 -16 -12 -13 -7
2 -12 12 -12 21 1 9 -2 16 -7 16 -5 0 -9 -6 -9 -14 0 -24 -20 -29 -35 -10 -13
18 -14 18 -15 2 0 -26 -18 -22 -23 5 -3 21 -4 21 -15 -6 -7 -16 -16 -26 -21
-23 -11 7 -24 127 -15 149 7 20 7 20 59 6z m1763 -95 c12 -2 31 -19 42 -36 17
-29 18 -33 3 -44 -13 -9 -20 -9 -31 3 -12 12 -16 12 -23 1 -8 -13 -16 -13 -34
2 -11 8 -51 7 -60 -2 -9 -8 -45 3 -45 14 0 5 -6 6 -12 2 -19 -12 -48 -12 -55
-1 -7 11 29 42 72 62 28 13 78 12 143 -1z"/>
<path d="M2002 2758 c-6 -6 -8 -18 -3 -27 5 -9 11 -32 15 -52 6 -36 6 -36 -33
-42 -22 -3 -47 -11 -56 -18 -9 -8 -24 -21 -34 -29 -27 -23 -59 -40 -76 -40 -9
0 -12 -6 -9 -15 5 -11 -1 -15 -21 -15 -16 0 -25 -5 -23 -12 6 -17 57 -29 77
-18 9 5 48 18 86 31 39 12 81 27 94 33 18 8 25 8 28 -1 3 -8 15 -10 34 -6 26
5 35 1 60 -31 34 -41 49 -44 73 -17 16 17 15 21 -10 69 -24 46 -25 53 -11 67
9 8 27 15 41 15 28 0 33 11 13 29 -9 7 -24 8 -47 1 -49 -14 -74 -4 -108 46
-32 45 -65 57 -90 32z"/>
</g>
</svg>
