<?xml version="1.0" standalone="no"?>
<!DOCTYPE svg PUBLIC "-//W3C//DTD SVG 20010904//EN"
 "http://www.w3.org/TR/2001/REC-SVG-20010904/DTD/svg10.dtd">
<svg version="1.0" xmlns="http://www.w3.org/2000/svg"
 width="580.000000pt" height="400.000000pt" viewBox="0 0 580.000000 400.000000"
 preserveAspectRatio="xMidYMid meet">
<metadata>
Created by potrace 1.16, written by Peter Selinger 2001-2019
</metadata>
<g transform="translate(0.000000,400.000000) scale(0.100000,-0.100000)"
fill="#000000" stroke="none">
<path d="M2445 3150 c-167 -20 -371 -51 -490 -76 -38 -8 -81 -16 -95 -19 -61
-11 -210 -49 -260 -65 -30 -10 -107 -35 -170 -55 -113 -36 -235 -82 -255 -96
-5 -4 -45 -21 -87 -38 -96 -38 -442 -210 -446 -222 -2 -5 -12 -9 -23 -9 -17 0
-19 8 -19 73 0 50 6 85 20 116 11 24 19 46 16 48 -5 5 -76 -78 -76 -89 0 -17
-23 -7 -48 23 -23 29 -27 30 -33 13 -4 -11 -8 -31 -8 -46 -1 -16 -2 -28 -3
-28 -2 0 -25 11 -52 25 -71 36 -82 31 -32 -15 47 -43 82 -109 72 -135 -10 -26
-29 -13 -58 41 -36 66 -111 131 -172 149 -66 20 -73 19 -91 -9 -15 -22 -13
-28 20 -94 27 -52 50 -81 89 -111 29 -23 57 -41 63 -41 5 0 18 -9 28 -20 17
-19 17 -22 3 -36 -14 -15 -20 -14 -61 11 -26 14 -60 42 -76 61 -17 19 -32 34
-35 34 -8 0 7 -45 26 -77 21 -35 19 -37 -37 -48 l-40 -7 39 -32 38 -33 -34
-21 c-32 -20 -87 -72 -76 -72 3 0 26 9 52 21 40 17 102 25 174 20 15 -1 16
-41 0 -41 -7 0 2 -15 18 -33 66 -70 98 -153 92 -233 -5 -60 -50 -155 -89 -188
l-26 -22 37 -40 c50 -54 83 -143 78 -210 -5 -63 -58 -177 -92 -199 -21 -14
-23 -20 -13 -36 19 -30 -4 -43 -74 -41 -45 1 -76 8 -111 26 -26 14 -48 23 -48
21 0 -6 44 -49 80 -77 l33 -26 -30 -16 c-47 -24 -49 -44 -5 -51 20 -4 40 -7
45 -8 4 -1 -1 -19 -12 -39 -22 -44 -32 -78 -23 -78 4 0 20 19 36 41 16 23 47
50 72 62 43 20 45 20 62 3 13 -15 14 -19 3 -23 -7 -3 -41 -24 -75 -47 -52 -36
-67 -53 -103 -121 -23 -44 -42 -83 -43 -86 0 -4 8 -17 18 -30 18 -21 21 -22
68 -9 78 21 156 85 194 160 24 47 36 56 55 40 13 -10 12 -16 -2 -44 -24 -46
-75 -106 -103 -122 -44 -23 2 -15 58 11 30 14 56 25 58 25 2 0 4 -12 4 -27 0
-47 13 -56 40 -28 23 25 50 33 50 16 0 -11 72 -82 78 -77 2 2 -6 22 -17 45
-15 29 -21 59 -21 111 0 68 1 71 22 68 19 -2 26 -14 38 -59 20 -77 67 -139
126 -169 l49 -25 2048 -3 c2203 -2 2082 -5 2166 46 46 28 93 96 106 156 9 40
16 51 31 51 16 0 19 -9 22 -65 2 -53 -2 -74 -21 -113 -13 -26 -20 -47 -16 -47
5 0 29 21 54 47 l46 47 25 -29 c26 -30 35 -29 39 7 1 13 3 29 4 36 2 18 17 15
73 -13 71 -36 74 -31 17 22 -64 60 -95 116 -74 133 20 16 31 6 60 -51 32 -63
117 -131 185 -148 68 -17 85 -5 76 58 -11 81 -88 177 -174 215 -43 19 -54 42
-26 53 26 10 87 -27 132 -78 47 -56 55 -44 16 28 -23 44 -24 48 -7 51 73 11
84 31 33 57 l-30 16 57 54 58 55 -52 -26 c-38 -19 -67 -26 -111 -26 -71 -1
-85 6 -79 38 3 15 -4 30 -18 44 -33 31 -78 137 -83 195 -5 66 28 155 80 211
l39 42 -30 21 c-16 12 -42 47 -58 79 -52 106 -34 233 46 324 20 23 29 42 25
52 -11 29 11 41 78 40 43 -1 76 -8 105 -22 23 -12 45 -22 49 -22 14 0 -51 62
-80 77 l-30 15 35 29 c28 24 31 30 19 39 -8 5 -24 10 -36 10 -33 0 -35 10 -9
59 37 69 31 73 -28 17 -69 -66 -101 -84 -122 -66 -14 12 -14 15 2 32 10 11 34
28 53 38 48 25 83 64 119 134 65 123 28 154 -107 91 -61 -28 -95 -62 -128
-127 -28 -56 -41 -65 -61 -45 -14 14 -13 20 11 61 15 25 48 62 74 82 43 33 44
36 18 30 -16 -4 -48 -16 -70 -27 -22 -10 -41 -17 -43 -15 -2 2 -5 18 -8 36 -6
46 -14 49 -41 15 l-24 -30 -46 53 c-46 53 -77 71 -50 29 31 -47 47 -111 40
-160 -7 -53 -25 -68 -52 -44 -28 24 -342 183 -432 218 -47 18 -89 36 -95 40
-18 13 -138 57 -255 94 -63 20 -133 43 -156 51 -41 14 -216 59 -271 68 -15 3
-57 12 -93 20 -99 23 -305 54 -505 76 -241 27 -675 27 -910 0z m865 -620 c157
-14 424 -62 531 -96 25 -8 57 -17 70 -19 160 -31 572 -193 819 -323 203 -106
243 -151 275 -308 8 -43 -18 -130 -57 -189 -32 -48 -101 -100 -118 -90 -18 11
-11 47 10 52 13 4 20 14 20 30 0 16 7 27 20 30 24 6 27 31 3 29 -10 0 -18 6
-18 14 0 10 -12 16 -37 18 l-38 3 0 130 0 129 35 0 c19 0 35 4 35 9 0 5 -62 8
-137 7 l-138 -1 0 98 c0 90 -1 97 -19 97 -16 0 -17 -3 -8 -12 7 -7 12 -44 12
-95 l0 -83 -35 0 -35 0 0 65 c0 50 4 66 18 74 12 7 -33 10 -153 10 -93 -1
-162 -3 -152 -6 14 -4 17 -16 17 -74 l0 -69 -185 0 c-117 0 -185 -4 -185 -10
0 -5 20 -10 45 -10 l45 0 0 -130 0 -130 -44 0 c-33 0 -45 -4 -48 -16 -2 -12
-15 -17 -50 -18 l-46 -1 -7 143 c-4 78 -11 142 -16 142 -5 0 -9 14 -9 30 0 42
-28 40 -32 -2 l-3 -33 -101 -3 c-101 -3 -102 -3 -108 22 -3 14 -15 30 -26 36
-11 6 -20 21 -20 33 0 17 -7 23 -33 26 -76 9 -244 -5 -282 -23 -16 -8 -55 -19
-85 -26 -85 -18 -88 -19 -94 -44 -3 -13 -15 -26 -26 -29 -19 -5 -20 -13 -20
-116 l0 -111 -55 0 c-51 0 -55 -2 -55 -23 0 -22 -4 -23 -72 -24 -68 -1 -98 7
-98 28 0 5 29 9 64 9 95 0 98 8 94 213 l-3 162 83 3 83 3 -3 37 -3 37 -145 5
c-127 4 -142 7 -122 18 39 22 18 24 -39 3 -30 -11 -84 -21 -120 -23 -57 -3
-66 -1 -62 12 3 11 1 10 -10 -3 -9 -10 -13 -29 -11 -42 3 -17 -2 -27 -16 -35
-15 -8 -19 -17 -15 -31 4 -10 2 -19 -4 -19 -6 0 -13 11 -17 25 -8 32 -20 32
-28 -1 -9 -34 -29 -54 -54 -54 -23 0 -32 18 -32 64 0 23 -9 41 -30 61 l-30 29
-28 -21 c-19 -14 -28 -30 -30 -54 -6 -74 -9 -79 -55 -79 -53 0 -67 13 -67 62
0 29 -7 45 -26 63 -33 31 -35 31 -68 0 -18 -17 -26 -34 -26 -59 0 -57 -7 -66
-56 -66 -31 0 -44 4 -44 14 0 8 4 16 8 18 13 5 -7 70 -21 65 -6 -2 -17 -18
-24 -35 -11 -28 -11 -32 2 -32 8 0 15 -7 15 -16 0 -12 -10 -14 -47 -12 l-48 3
-3 45 c-4 55 -25 80 -67 80 -42 0 -63 -25 -67 -80 l-3 -45 -55 0 -55 0 -3 73
-3 73 -37 -3 -37 -3 -3 -72 -3 -71 -69 -4 c-61 -3 -70 -1 -70 15 0 12 -8 17
-25 17 -14 0 -28 1 -32 3 -5 1 -9 -8 -11 -19 -2 -14 9 -33 33 -56 33 -31 35
-35 24 -66 -8 -23 -8 -40 0 -63 19 -56 13 -104 -19 -152 -16 -25 -36 -45 -42
-44 -34 1 -48 -4 -48 -18 0 -8 5 -15 10 -15 6 0 -1 -17 -15 -37 l-25 -38 41
-3 c22 -2 46 2 54 8 9 8 14 6 19 -6 12 -33 6 -36 -66 -33 -135 5 -243 82 -278
197 -25 79 -25 119 -3 191 29 92 97 149 294 248 163 82 300 142 434 189 39 14
84 31 100 39 56 24 178 62 235 71 14 3 45 11 70 18 43 13 160 38 340 71 73 14
153 21 400 39 87 6 483 -3 610 -14z m-680 -570 l0 -60 -50 0 -50 0 0 53 c0 30
3 57 7 60 3 4 26 7 50 7 l43 0 0 -60z m120 0 l0 -60 -45 0 -45 0 0 60 0 60 45
0 45 0 0 -60z m1358 -122 l-3 -73 -50 0 -50 0 -3 73 -3 72 56 0 56 0 -3 -72z
m620 0 l-3 -73 -47 -3 -48 -3 0 75 0 76 50 0 51 0 -3 -72z m-888 -248 c4 -17
13 -26 30 -28 18 -2 29 -13 41 -42 10 -21 14 -41 11 -44 -7 -8 -196 -8 -216 0
-14 5 -14 8 -1 27 8 12 15 29 15 39 0 10 9 18 23 20 12 2 21 9 19 17 -4 21 16
38 46 37 20 -1 28 -7 32 -26z m-430 11 c0 -6 -4 -13 -10 -16 -14 -9 -12 -35 5
-69 8 -15 12 -32 9 -37 -7 -12 -181 -12 -188 0 -3 5 1 25 9 45 11 26 13 42 5
56 -5 10 -10 21 -10 24 0 3 41 6 90 6 50 0 90 -4 90 -9z m1095 -8 c-17 -40
-17 -64 0 -83 31 -34 11 -40 -140 -40 -114 0 -144 3 -148 14 -3 8 1 20 9 26
16 14 18 48 5 70 -6 8 -7 18 -5 22 3 4 68 8 146 8 130 0 140 -1 133 -17z
m-2395 -68 c36 -33 26 -45 -40 -45 -64 0 -72 6 -40 35 11 10 20 24 20 32 0 8
5 24 12 36 11 21 12 21 20 -9 4 -17 17 -39 28 -49z m341 44 c11 -11 19 -25 19
-33 0 -8 5 -18 10 -21 6 -3 10 -13 10 -21 0 -11 -23 -14 -130 -14 -138 0 -153
6 -111 44 11 10 22 30 26 45 6 26 6 26 81 23 58 -3 81 -9 95 -23z m227 3 c15
-10 22 -11 22 -3 0 7 12 3 28 -8 40 -29 95 -37 115 -16 10 9 17 25 17 36 0 15
7 19 30 19 30 0 31 -1 24 -35 -5 -27 -2 -41 12 -56 34 -37 9 -42 -185 -34
-100 4 -181 9 -181 12 0 7 34 58 44 65 6 4 7 10 3 14 -4 4 -2 13 4 20 11 14
30 10 67 -14z m-1028 4 c0 -8 11 -28 25 -44 37 -45 32 -52 -35 -52 -64 0 -72
6 -41 34 11 10 23 31 26 47 7 30 25 40 25 15z m225 -15 c3 -16 15 -37 26 -47
31 -28 23 -34 -41 -34 -65 0 -76 12 -41 44 11 10 22 28 25 42 9 33 23 30 31
-5z m-579 -26 c9 -23 120 -21 133 3 9 15 13 14 35 -13 14 -16 24 -34 22 -40
-4 -13 -216 -19 -229 -6 -6 6 -5 20 3 40 14 34 27 40 36 16z m1838 -24 c9 -16
12 -31 9 -35 -9 -9 -116 -7 -132 3 -11 7 -10 13 4 35 14 21 25 26 61 26 38 0
45 -4 58 -29z m484 4 c7 -14 12 -30 12 -35 0 -13 -127 -13 -135 0 -4 6 1 22 9
35 13 20 25 25 60 25 36 0 45 -4 54 -25z m506 0 c26 -40 20 -45 -49 -45 -73 0
-91 15 -60 50 27 30 88 27 109 -5z m596 6 c23 -44 14 -51 -60 -51 -38 0 -70 2
-70 5 0 4 7 19 15 35 14 26 21 30 60 30 34 0 47 -5 55 -19z"/>
</g>
</svg>
