<?xml version="1.0" standalone="no"?>
<!DOCTYPE svg PUBLIC "-//W3C//DTD SVG 20010904//EN"
 "http://www.w3.org/TR/2001/REC-SVG-20010904/DTD/svg10.dtd">
<svg version="1.0" xmlns="http://www.w3.org/2000/svg"
 width="580.000000pt" height="400.000000pt" viewBox="0 0 580.000000 400.000000"
 preserveAspectRatio="xMidYMid meet">
<metadata>
Created by potrace 1.16, written by Peter Selinger 2001-2019
</metadata>
<g transform="translate(0.000000,400.000000) scale(0.100000,-0.100000)"
fill="#000000" stroke="none">
<path d="M2910 3796 c-6 -6 -10 -15 -10 -22 0 -6 -7 -14 -15 -18 -8 -3 -15
-11 -15 -19 0 -7 -13 -26 -29 -41 l-29 -28 23 -41 c18 -33 22 -55 20 -107 -2
-36 -3 -68 -4 -71 -1 -4 -26 3 -57 15 -53 20 -55 22 -50 52 5 36 -25 94 -49
94 -14 0 -74 -26 -76 -33 0 -1 -3 -33 -6 -72 -3 -38 -9 -78 -14 -87 -13 -25
-11 -31 10 -25 16 4 20 -3 26 -40 6 -42 4 -48 -24 -77 -17 -18 -31 -35 -31
-38 0 -4 16 -16 34 -28 22 -13 33 -26 29 -35 -3 -9 8 -27 25 -43 17 -16 34
-42 38 -58 8 -29 43 -66 56 -57 12 7 9 58 -3 70 -8 8 -7 17 2 31 12 18 10 25
-10 52 -18 25 -20 34 -11 46 18 21 25 18 43 -22 11 -23 23 -34 32 -31 19 8 31
-11 33 -52 2 -18 7 -41 12 -51 12 -22 17 -181 7 -197 -5 -8 -29 -13 -59 -13
-56 0 -143 -23 -202 -52 -42 -21 -50 -18 -62 29 -7 25 -27 35 -50 26 -12 -5
-15 -14 -10 -43 5 -35 4 -38 -32 -53 -79 -33 -121 -41 -237 -42 -170 -2 -202
-22 -280 -179 -12 -23 -39 -51 -65 -68 -50 -33 -53 -33 -212 -3 -79 14 -94 14
-145 1 -62 -16 -96 -37 -126 -78 l-19 -26 52 -123 c29 -68 59 -137 67 -154 8
-16 35 -79 59 -139 25 -59 58 -137 75 -172 16 -36 29 -66 29 -68 0 -2 11 -28
24 -59 l25 -55 43 42 c70 67 172 84 293 48 l60 -18 -109 -73 c-129 -86 -215
-154 -312 -247 -57 -55 -76 -81 -93 -128 -13 -35 -19 -70 -16 -90 3 -17 7 -44
10 -60 7 -46 46 -94 110 -136 61 -40 82 -69 110 -149 16 -48 13 -90 -12 -156
-27 -73 -71 -105 -198 -144 -76 -24 -90 -32 -123 -75 -18 -23 -22 -42 -22 -97
0 -58 4 -72 26 -99 60 -70 -59 -65 1429 -65 l1340 0 41 22 c77 41 104 140 62
227 -23 48 -35 56 -148 93 -93 30 -132 59 -170 126 -69 121 -16 271 118 336
48 22 92 111 92 183 0 88 -36 144 -170 263 -133 120 -178 155 -277 215 -40 25
-73 47 -73 51 0 11 120 39 168 39 69 0 137 -26 183 -70 l40 -38 25 55 c13 31
24 57 24 59 0 2 14 34 31 71 17 38 44 101 60 142 17 40 43 101 58 135 16 33
52 116 81 184 l53 123 -20 27 c-26 36 -82 66 -146 81 -42 9 -68 8 -137 -4 -47
-9 -100 -19 -118 -22 -23 -4 -45 1 -78 18 -39 20 -51 35 -84 99 -65 129 -126
167 -253 155 -125 -11 -289 34 -285 80 3 38 -2 53 -18 59 -22 8 -41 -9 -49
-45 -8 -34 -6 -34 -53 -10 -57 28 -145 51 -200 51 -53 0 -76 16 -70 47 2 11
12 17 23 16 10 -1 46 12 79 29 34 17 72 34 86 38 14 3 25 11 25 16 0 5 4 15 9
22 4 7 3 18 -2 25 -6 7 -8 33 -6 60 3 27 0 47 -6 47 -5 0 -10 7 -10 15 0 8 -5
15 -11 15 -5 0 -7 5 -4 10 3 6 -1 13 -9 16 -9 3 -14 10 -11 14 3 4 -4 18 -14
31 -10 13 -21 41 -25 62 -4 20 -12 37 -17 37 -6 0 -8 9 -4 20 4 13 1 22 -9 26
-16 6 -22 33 -29 121 -3 46 -1 52 19 62 13 5 30 23 38 40 13 24 13 31 2 40
-19 16 -136 10 -136 -7 0 -7 -4 -10 -10 -7 -12 7 -14 45 -2 45 4 0 23 14 42
31 19 17 45 37 58 46 39 27 28 43 -28 41 -28 -2 -55 -7 -60 -12z m-20 -1300
c52 0 123 6 158 13 34 8 64 12 66 10 5 -5 -207 -499 -214 -499 -4 0 -191 427
-215 492 -6 15 -3 15 52 1 32 -9 100 -16 153 -17z m-44 -543 c11 -30 10 -41
-2 -64 -7 -15 -18 -30 -22 -33 -5 -3 -49 -7 -98 -10 -81 -4 -156 -21 -408 -91
-32 -9 -60 -15 -62 -13 -2 2 7 20 20 39 12 18 33 50 46 70 47 72 76 83 239 90
126 5 154 9 206 31 33 14 62 23 64 21 3 -2 10 -20 17 -40z m394 -12 c169 -7
190 -15 236 -93 46 -78 56 -99 51 -104 -2 -2 -34 5 -70 16 -156 48 -307 82
-391 86 -49 3 -94 7 -98 10 -19 12 -29 57 -19 83 5 14 12 34 15 43 4 15 11 15
68 -9 55 -23 82 -27 208 -32z m-255 -391 c234 -28 285 -38 370 -75 17 -7 41
-16 55 -20 46 -14 214 -101 288 -149 95 -62 113 -98 85 -164 -27 -67 -63 -82
-190 -82 -57 0 -103 3 -103 7 0 4 10 17 22 30 17 18 32 23 70 23 47 0 48 1 42
25 -5 20 -3 25 14 25 15 0 21 8 25 33 7 43 -2 50 -50 39 -39 -9 -45 -7 -104
34 -62 43 -64 44 -146 44 -46 0 -83 4 -83 9 0 16 -63 21 -121 9 -57 -12 -57
-12 -193 41 l-136 53 -148 6 c-133 4 -156 3 -218 -17 -116 -36 -157 -49 -208
-63 -60 -16 -66 -30 -66 -148 l0 -88 38 -6 c104 -15 162 -18 162 -7 0 29 68
-12 70 -41 0 -5 -79 -8 -176 -8 -209 0 -235 8 -266 77 -22 51 -14 95 25 131
58 54 310 180 452 227 44 14 143 34 220 44 171 23 171 23 270 11z m-92 -172
c29 -11 31 -16 17 -38 -8 -13 -11 -12 -23 4 -12 17 -14 17 -20 2 -8 -21 -117
-24 -117 -3 0 7 -13 18 -30 24 -16 6 -30 16 -30 23 0 13 160 4 203 -12z m-253
-278 c0 -19 7 -20 245 -20 213 0 244 2 239 15 -9 23 192 22 218 -2 10 -9 18
-20 18 -25 0 -4 -175 -8 -390 -8 -214 0 -390 2 -390 4 0 8 45 56 53 56 4 0 7
-9 7 -20z"/>
</g>
</svg>
