<?xml version="1.0" standalone="no"?>
<!DOCTYPE svg PUBLIC "-//W3C//DTD SVG 20010904//EN"
 "http://www.w3.org/TR/2001/REC-SVG-20010904/DTD/svg10.dtd">
<svg version="1.0" xmlns="http://www.w3.org/2000/svg"
 width="580.000000pt" height="400.000000pt" viewBox="0 0 580.000000 400.000000"
 preserveAspectRatio="xMidYMid meet">
<metadata>
Created by potrace 1.16, written by Peter Selinger 2001-2019
</metadata>
<g transform="translate(0.000000,400.000000) scale(0.100000,-0.100000)"
fill="#000000" stroke="none">
<path d="M2820 3160 c0 -6 -46 -10 -119 -10 -69 0 -122 -4 -126 -10 -3 -5 -44
-10 -90 -10 -46 0 -87 -4 -90 -10 -3 -5 -39 -10 -80 -10 -41 0 -77 -4 -80 -10
-3 -5 -37 -10 -76 -10 -39 0 -69 -4 -69 -10 0 -5 -22 -10 -50 -10 -27 0 -50
-4 -50 -10 0 -5 -18 -10 -40 -10 -22 0 -40 -4 -40 -10 0 -5 -18 -10 -39 -10
-22 0 -43 -4 -46 -10 -3 -5 -21 -10 -39 -10 -19 0 -39 -7 -46 -15 -7 -9 -21
-13 -30 -10 -9 3 -22 -1 -29 -8 -6 -8 -22 -12 -35 -10 -13 3 -35 -3 -49 -12
-15 -9 -30 -14 -35 -11 -6 3 -15 -1 -22 -9 -7 -8 -21 -15 -31 -15 -10 0 -34
-9 -54 -20 -20 -11 -44 -20 -55 -20 -10 0 -22 -4 -25 -10 -3 -5 -17 -10 -30
-10 -13 0 -27 -4 -30 -10 -3 -5 -15 -10 -25 -10 -11 0 -35 -9 -55 -20 -20 -11
-44 -20 -55 -20 -10 0 -22 -4 -25 -10 -3 -5 -17 -10 -30 -10 -13 0 -27 -4 -30
-10 -3 -5 -15 -10 -26 -10 -10 0 -19 -4 -19 -10 0 -5 -9 -10 -20 -10 -11 0
-20 -4 -20 -10 0 -5 -9 -10 -20 -10 -11 0 -20 -4 -20 -10 0 -5 -9 -10 -20 -10
-11 0 -20 -4 -20 -10 0 -5 -9 -10 -20 -10 -11 0 -20 -4 -20 -10 0 -5 -9 -10
-20 -10 -11 0 -20 -4 -20 -10 0 -5 -9 -10 -20 -10 -11 0 -20 -4 -20 -10 0 -5
-9 -10 -20 -10 -11 0 -20 -4 -20 -10 0 -5 -8 -10 -18 -10 -10 0 -24 -9 -32
-20 -29 -40 -40 -24 -40 55 0 43 4 75 10 75 6 0 10 8 10 18 0 10 9 24 20 32
22 16 27 40 9 40 -7 0 -19 -8 -28 -17 -9 -10 -33 -33 -53 -51 l-36 -34 -31 33
c-20 20 -31 27 -31 17 0 -8 -8 -22 -18 -31 -20 -19 -52 -23 -52 -7 0 6 -30 10
-70 10 -40 0 -70 4 -70 10 0 6 -9 10 -19 10 -11 0 -23 5 -26 10 -3 6 -17 10
-31 10 -13 0 -24 -4 -24 -10 0 -5 -9 -10 -20 -10 -16 0 -20 -7 -20 -35 0 -19
5 -35 10 -35 6 0 10 -9 10 -20 0 -11 5 -20 10 -20 6 0 10 -7 10 -15 0 -8 -4
-15 -10 -15 -5 0 -10 -11 -10 -25 0 -14 5 -25 10 -25 6 0 10 -18 10 -40 0 -22
5 -40 10 -40 14 0 13 -43 -2 -58 -7 -7 -22 -12 -35 -12 -31 0 -29 -18 2 -30
32 -12 33 -47 3 -59 -24 -9 -44 -30 -66 -68 -18 -34 -15 -42 13 -30 14 7 25
15 25 20 0 4 9 7 19 7 11 0 23 5 26 10 3 6 38 10 77 10 65 0 70 -2 65 -19 -3
-12 3 -27 14 -37 10 -9 19 -23 19 -29 0 -7 7 -18 15 -25 19 -16 45 -68 45 -91
0 -10 5 -21 10 -24 6 -3 10 -17 10 -30 0 -13 -4 -27 -10 -30 -5 -3 -10 -19
-10 -36 0 -37 -14 -63 -64 -116 l-40 -43 22 -23 c12 -13 22 -28 22 -34 0 -6 7
-16 15 -23 22 -18 45 -70 45 -101 0 -15 5 -31 10 -34 6 -3 10 -17 10 -30 0
-13 -4 -27 -10 -30 -5 -3 -10 -14 -10 -24 0 -23 -26 -75 -45 -91 -8 -7 -15
-18 -15 -25 0 -6 -9 -20 -19 -29 -11 -10 -17 -25 -14 -37 5 -18 0 -19 -71 -19
-44 0 -76 4 -76 10 0 6 -9 10 -20 10 -11 0 -20 5 -20 10 0 6 -7 10 -15 10 -8
0 -15 -5 -15 -11 0 -13 50 -59 63 -59 12 0 37 -27 37 -39 0 -6 -6 -11 -13 -11
-14 0 -57 -41 -57 -54 0 -5 7 -5 16 -2 10 4 25 -1 35 -10 20 -18 26 -64 9 -64
-5 0 -10 -13 -10 -30 0 -16 -4 -30 -10 -30 -14 0 -13 -33 2 -48 9 -9 9 -15 0
-24 -7 -7 -12 -20 -12 -30 0 -10 -4 -18 -10 -18 -5 0 -10 -20 -10 -45 0 -38 3
-45 19 -45 11 0 21 -6 24 -12 3 -10 15 -7 46 10 31 16 60 22 105 22 50 0 64 4
76 20 8 11 22 20 31 20 22 0 49 -32 49 -59 0 -22 2 -21 30 9 l31 33 27 -24
c14 -13 33 -31 42 -39 8 -8 25 -21 38 -28 18 -10 22 -10 22 3 0 8 -9 20 -20
27 -11 7 -20 20 -20 30 0 9 -5 20 -10 23 -6 3 -10 37 -10 76 0 55 3 69 15 69
8 0 15 -9 15 -20 0 -11 5 -20 10 -20 6 0 10 -13 10 -30 0 -16 5 -30 10 -30 6
0 10 -7 10 -15 0 -20 85 -105 105 -105 8 0 15 -4 15 -10 0 -5 9 -10 20 -10 11
0 20 -4 20 -10 0 -7 676 -10 2008 -10 l2009 0 48 24 c74 38 145 116 145 161 0
19 30 75 41 75 5 0 9 -34 9 -75 0 -43 -4 -75 -10 -75 -5 0 -10 -8 -10 -18 0
-10 -9 -24 -20 -32 -21 -15 -27 -40 -10 -40 6 0 10 5 10 10 0 6 6 10 13 10 6
0 31 19 55 41 l43 42 35 -34 34 -33 0 32 c0 18 5 32 10 32 6 0 10 9 10 20 0
11 7 20 15 20 8 0 15 -3 15 -7 0 -11 50 -33 71 -33 10 0 21 -4 24 -10 3 -5 24
-10 46 -10 21 0 39 -4 39 -10 0 -5 25 -10 55 -10 54 0 55 0 55 30 0 16 -9 45
-20 65 -23 41 -25 61 -7 68 10 3 10 9 0 26 -7 11 -13 27 -13 34 0 18 -23 67
-32 67 -5 0 -8 6 -8 13 1 13 62 47 86 47 11 0 8 7 -10 25 -14 14 -32 25 -41
25 -8 0 -15 4 -15 8 0 10 33 42 44 42 11 0 56 48 56 60 0 5 -7 10 -15 10 -8 0
-15 -4 -15 -10 0 -5 -9 -10 -20 -10 -11 0 -20 -4 -20 -10 0 -6 -32 -10 -75
-10 -69 0 -91 9 -65 25 7 4 3 14 -10 25 -11 9 -20 24 -20 31 0 8 -9 21 -20 29
-11 8 -20 22 -20 32 0 10 -4 18 -10 18 -5 0 -10 14 -10 30 0 17 -4 30 -10 30
-5 0 -10 15 -10 34 0 19 5 38 10 41 6 3 10 19 10 34 0 31 23 83 45 101 8 7 15
18 15 25 0 7 7 18 15 25 21 17 20 21 -17 61 -45 48 -58 73 -58 108 0 17 -4 33
-10 36 -5 3 -10 22 -10 41 0 19 5 34 10 34 6 0 10 14 10 30 0 17 5 30 10 30 6
0 10 8 10 18 0 10 9 24 20 32 11 8 20 20 20 28 0 7 7 20 15 29 9 9 13 23 10
34 -6 18 0 19 69 19 44 0 76 -4 76 -10 0 -5 9 -10 19 -10 11 0 23 -4 26 -10 9
-15 25 -12 25 5 0 8 -4 15 -9 15 -5 0 -11 10 -13 22 -2 13 -15 29 -30 36 -37
17 -36 46 2 62 17 7 30 16 30 21 0 5 -13 9 -30 9 -16 0 -30 5 -30 10 0 6 -9
10 -20 10 -21 0 -27 15 -10 25 6 3 10 15 10 26 0 10 5 19 10 19 6 0 10 11 10
24 0 14 5 28 10 31 14 8 13 52 -1 57 -7 2 -3 17 10 41 30 53 28 89 -6 105 -36
16 -46 15 -88 -8 -24 -14 -54 -20 -95 -20 -32 0 -62 -4 -65 -10 -3 -5 -19 -10
-36 -10 -24 0 -29 4 -29 25 0 32 -7 31 -42 -2 l-28 -26 -52 51 c-29 29 -58 52
-65 52 -20 0 -15 -24 7 -40 11 -8 20 -22 20 -32 0 -10 5 -18 10 -18 6 0 10
-32 10 -75 0 -74 -7 -88 -29 -61 -14 17 -350 186 -369 186 -6 0 -12 5 -12 10
0 6 -13 10 -30 10 -16 0 -30 5 -30 10 0 6 -13 10 -30 10 -16 0 -30 3 -30 8 0
10 -50 32 -71 32 -10 0 -21 5 -24 10 -3 6 -19 10 -36 10 -16 0 -29 5 -29 10 0
6 -11 10 -25 10 -13 0 -40 9 -60 20 -20 11 -42 20 -50 20 -7 0 -20 6 -27 13
-12 13 -66 27 -114 30 -11 1 -28 8 -36 14 -8 7 -18 10 -21 7 -4 -4 -18 1 -31
10 -14 9 -39 16 -55 16 -16 0 -33 5 -36 10 -3 6 -21 10 -40 10 -19 0 -37 5
-40 10 -3 6 -21 10 -40 10 -19 0 -37 5 -40 10 -3 6 -26 10 -50 10 -24 0 -47 5
-50 10 -3 6 -35 10 -70 10 -35 0 -67 5 -70 10 -3 6 -42 10 -86 10 -46 0 -79 4
-79 10 0 6 -36 10 -89 10 -50 0 -93 5 -96 10 -4 6 -55 10 -120 10 -65 0 -116
4 -120 10 -3 6 -52 10 -111 10 -63 0 -104 -4 -104 -10z m40 -687 c-125 -130
-168 -170 -188 -175 -17 -5 -22 -2 -22 14 0 23 -23 48 -44 48 -9 0 -16 5 -16
11 0 5 -4 7 -10 4 -5 -3 -10 1 -10 9 0 9 -9 16 -20 16 -11 0 -20 5 -20 10 0 6
-9 10 -20 10 -11 0 -20 5 -20 10 0 6 -10 10 -22 10 -19 0 -16 -7 27 -50 27
-27 55 -50 61 -50 7 0 24 -13 37 -30 14 -16 31 -30 37 -30 6 0 8 -5 5 -10 -4
-6 -2 -16 3 -23 16 -19 20 -137 5 -137 -10 0 -13 -30 -13 -118 0 -70 -4 -122
-11 -129 -5 -5 -9 -32 -7 -59 2 -37 7 -50 21 -52 15 -3 17 5 17 57 0 64 7 73
32 44 13 -14 16 -50 17 -175 2 -108 -1 -158 -9 -163 -21 -13 -1570 -9 -1583 4
-6 6 -25 11 -42 11 -23 0 -41 10 -69 39 -40 40 -86 123 -86 152 0 10 -4 21
-10 24 -5 3 -10 25 -10 49 0 53 37 130 88 179 35 34 240 147 268 147 6 0 55
23 109 50 54 28 106 50 116 50 10 0 21 5 24 10 3 6 17 10 30 10 13 0 27 5 30
10 3 6 19 10 36 10 16 0 29 5 29 10 0 6 14 10 30 10 17 0 30 5 30 10 0 6 9 10
20 10 11 0 20 5 20 10 0 6 14 10 30 10 17 0 30 5 30 10 0 6 14 10 30 10 17 0
30 5 30 10 0 6 14 10 30 10 17 0 30 5 30 10 0 6 18 10 40 10 22 0 40 5 40 10
0 6 22 10 49 10 28 0 53 5 56 10 3 6 21 10 40 10 19 0 37 5 40 10 3 6 26 10
50 10 24 0 47 5 50 10 3 6 26 10 50 10 24 0 47 5 50 10 3 6 42 10 86 10 46 0
79 4 79 10 0 6 47 10 120 10 73 0 120 4 120 10 0 6 29 10 67 10 l67 0 -44 -47z
m205 37 c3 -6 52 -10 110 -10 58 0 107 -4 110 -10 3 -5 26 -10 51 -10 24 0 44
-3 44 -8 0 -4 -36 -43 -80 -87 -44 -44 -80 -85 -80 -92 0 -8 -12 -13 -30 -13
-16 0 -30 4 -30 10 0 15 -33 50 -46 50 -7 0 -22 13 -35 30 -13 16 -30 30 -37
30 -7 0 -21 5 -32 12 -10 7 -22 9 -26 6 -3 -4 30 -43 75 -87 45 -44 81 -87 81
-96 0 -8 5 -15 10 -15 6 0 10 -26 10 -59 0 -33 -4 -63 -10 -66 -6 -3 -10 -50
-10 -106 0 -62 -4 -99 -10 -99 -7 0 -10 -22 -8 -57 2 -44 7 -58 18 -58 11 0
16 14 18 58 3 64 11 71 30 28 9 -20 12 -76 10 -191 l-3 -162 -182 -3 c-100 -1
-196 0 -212 3 l-31 4 0 79 c0 43 -4 81 -10 84 -6 4 -10 75 -10 180 0 105 -4
176 -10 180 -5 3 -10 38 -10 77 0 79 15 108 57 108 24 0 31 14 13 25 -5 3 -10
18 -10 32 0 20 -4 24 -20 20 -31 -8 -24 11 23 56 23 22 41 45 39 50 -1 4 2 6
8 2 5 -3 13 2 16 12 4 10 25 37 47 61 39 40 44 42 98 42 32 0 61 -4 64 -10z
m420 -40 c3 -5 33 -10 66 -10 33 0 59 -4 59 -10 0 -6 27 -10 60 -10 33 0 60
-4 60 -10 0 -6 27 -10 60 -10 33 0 60 -4 60 -10 0 -5 9 -10 20 -10 11 0 20 -2
20 -5 0 -3 -36 -41 -80 -85 -44 -44 -80 -86 -80 -95 0 -8 -9 -15 -20 -15 -11
0 -20 6 -20 13 0 21 -37 50 -55 44 -8 -4 -14 -1 -12 6 1 7 -4 11 -11 9 -8 -1
-11 2 -8 6 3 5 -2 16 -12 23 -82 66 -83 26 -2 -52 33 -31 60 -64 60 -72 0 -9
5 -19 10 -22 6 -3 10 -48 10 -100 0 -52 -4 -97 -10 -100 -6 -3 -10 -50 -10
-106 0 -64 4 -98 10 -94 6 3 10 21 10 40 0 19 5 37 10 40 6 3 10 31 10 61 0
30 5 54 10 54 6 0 10 -80 10 -220 l0 -220 -215 0 -215 0 0 80 c0 47 -4 80 -10
80 -6 0 -10 66 -10 178 0 111 -4 182 -10 188 -6 6 -10 43 -8 85 3 72 4 74 31
77 24 3 27 7 27 43 0 32 -3 39 -20 39 -28 0 -25 6 20 50 22 21 40 43 40 49 0
5 21 30 48 55 45 43 84 58 97 36z m470 -100 c3 -5 17 -10 30 -10 13 0 27 -4
30 -10 3 -5 17 -10 30 -10 13 0 27 -4 30 -10 3 -5 15 -10 25 -10 11 0 35 -9
55 -20 20 -11 44 -20 55 -20 10 0 22 -4 25 -10 3 -5 17 -10 30 -10 13 0 27 -4
30 -10 3 -5 17 -10 30 -10 13 0 27 -4 30 -10 3 -5 17 -10 30 -10 13 0 27 -4
30 -10 3 -5 15 -10 26 -10 10 0 19 -4 19 -10 0 -5 9 -10 20 -10 11 0 20 -4 20
-10 0 -5 9 -10 20 -10 11 0 20 -4 20 -10 0 -5 9 -10 20 -10 11 0 20 -4 20 -10
0 -5 14 -10 30 -10 17 0 30 -4 30 -10 0 -5 9 -10 20 -10 11 0 20 -4 20 -10 0
-5 9 -10 20 -10 11 0 20 -4 20 -10 0 -5 6 -10 13 -10 18 0 67 -24 67 -32 0 -5
8 -8 17 -8 23 0 93 -69 93 -92 0 -10 5 -18 10 -18 6 0 10 -13 10 -30 0 -16 5
-30 10 -30 6 0 10 -31 10 -74 0 -41 -4 -78 -10 -81 -5 -3 -10 -15 -10 -26 0
-10 -4 -19 -10 -19 -5 0 -10 -6 -10 -14 0 -7 -21 -34 -46 -60 -36 -35 -54 -46
-78 -46 -18 0 -37 -5 -43 -11 -8 -8 -151 -11 -480 -11 l-468 0 -3 63 c-2 35
-7 68 -13 73 -5 6 -9 81 -9 168 0 99 -4 158 -10 158 -6 0 -10 35 -10 85 l0 85
30 0 c35 0 38 15 9 46 l-22 23 42 40 c22 22 41 44 41 51 0 6 15 26 33 45 32
34 60 44 72 25z"/>
<path d="M571 754 c0 -11 3 -14 6 -6 3 7 2 16 -1 19 -3 4 -6 -2 -5 -13z"/>
</g>
</svg>
