<?xml version="1.0" standalone="no"?>
<!DOCTYPE svg PUBLIC "-//W3C//DTD SVG 20010904//EN"
 "http://www.w3.org/TR/2001/REC-SVG-20010904/DTD/svg10.dtd">
<svg version="1.0" xmlns="http://www.w3.org/2000/svg"
 width="580.000000pt" height="400.000000pt" viewBox="0 0 580.000000 400.000000"
 preserveAspectRatio="xMidYMid meet">
<metadata>
Created by potrace 1.16, written by Peter Selinger 2001-2019
</metadata>
<g transform="translate(0.000000,400.000000) scale(0.100000,-0.100000)"
fill="#000000" stroke="none">
<path d="M2705 3629 c-60 -5 -156 -16 -213 -24 -56 -8 -121 -15 -143 -15 -22
0 -85 -11 -141 -25 -56 -14 -111 -25 -123 -25 -12 0 -48 -9 -81 -20 -32 -11
-68 -22 -81 -24 -59 -11 -243 -77 -340 -122 -28 -13 -56 -24 -62 -24 -10 0
-312 -147 -369 -179 -19 -11 -41 -26 -50 -34 -9 -7 -43 -28 -74 -46 -60 -34
-88 -32 -102 4 -3 9 -10 14 -16 10 -5 -3 -18 -1 -29 4 -16 9 -19 6 -25 -19 -5
-27 -9 -30 -42 -30 l-37 0 22 -24 22 -23 -22 -6 c-21 -6 -21 -6 6 -30 22 -18
26 -27 18 -41 -9 -16 -11 -16 -22 -2 -19 23 -31 20 -31 -9 0 -22 -4 -25 -37
-25 l-37 0 34 -29 c35 -29 35 -29 16 -50 -11 -12 -30 -21 -43 -21 -27 0 -29
-10 -8 -50 8 -16 12 -36 9 -44 -5 -14 -9 -13 -31 4 -28 22 -43 18 -43 -11 0
-15 -7 -19 -32 -19 l-33 0 23 -18 c18 -14 20 -20 10 -30 -10 -10 -3 -11 32 -7
38 5 50 2 75 -18 l30 -25 -39 -11 c-22 -5 -43 -8 -49 -4 -5 3 -35 8 -66 12
l-56 7 0 -38 c0 -25 4 -38 13 -38 24 0 65 -34 78 -66 10 -23 19 -31 31 -28 10
3 29 1 43 -4 l25 -9 -32 -16 c-23 -13 -38 -14 -64 -7 -19 6 -67 10 -108 10
l-74 0 23 -25 23 -25 -21 0 c-12 0 -22 -4 -22 -10 0 -5 6 -10 13 -10 7 0 30
-9 51 -19 30 -16 44 -18 64 -10 21 8 29 7 39 -7 29 -40 18 -47 -67 -41 -44 3
-82 1 -85 -3 -3 -5 -19 -11 -36 -15 -30 -7 -30 -7 -9 -22 15 -10 19 -21 14
-35 -5 -18 -3 -20 19 -14 20 5 29 1 38 -15 9 -18 8 -25 -9 -41 -19 -20 -19
-21 -1 -39 11 -11 28 -19 38 -19 26 0 71 -17 71 -28 0 -16 -61 -31 -86 -21
-17 6 -32 5 -45 -2 -11 -6 -33 -7 -50 -4 -28 6 -29 5 -20 -18 7 -18 6 -30 -5
-46 -14 -20 -14 -21 10 -21 14 0 28 -4 31 -10 3 -5 23 -10 44 -10 23 0 48 -8
62 -19 l23 -19 -39 -11 c-22 -6 -50 -11 -61 -11 -18 0 -92 -25 -102 -35 -1 -1
2 -13 7 -27 9 -23 14 -25 58 -21 65 5 82 -6 57 -41 -15 -19 -28 -25 -56 -26
-31 0 -38 -4 -38 -20 0 -10 -8 -23 -17 -29 -14 -8 -15 -12 -4 -25 10 -12 18
-13 32 -5 21 11 81 -1 86 -18 2 -5 -17 -16 -42 -23 -37 -10 -45 -17 -45 -36 0
-14 -8 -25 -20 -29 -24 -8 -26 -21 -3 -33 15 -9 15 -11 1 -26 -9 -9 -26 -16
-38 -16 -20 0 -20 -2 7 -24 23 -20 43 -25 103 -29 41 -2 88 -8 103 -12 20 -5
33 -3 47 10 12 11 28 15 42 12 12 -4 28 -1 35 5 10 8 20 8 39 -1 14 -6 36 -11
49 -11 35 0 45 -27 45 -123 0 -99 -9 -111 -85 -121 -67 -9 -101 -23 -157 -66
-97 -73 -141 -165 -142 -295 -2 -147 59 -263 173 -332 43 -26 67 -32 134 -38
45 -3 1054 -5 2242 -3 l2160 3 59 34 c110 64 159 134 190 273 7 31 -9 155 -28
208 -20 59 -65 116 -119 151 -73 46 -97 56 -161 64 -82 11 -83 13 -77 135 l6
105 30 3 c17 2 42 8 58 14 20 8 31 7 42 -2 8 -6 19 -9 25 -5 7 4 27 -1 46 -11
29 -16 38 -17 69 -5 19 7 62 11 95 10 53 -2 62 0 84 24 24 26 24 27 4 27 -11
0 -27 8 -34 18 -11 14 -9 19 9 29 22 11 22 11 -6 24 -22 10 -27 18 -23 35 5
19 0 23 -39 34 -25 7 -48 16 -51 21 -8 14 67 29 88 18 14 -7 23 -7 34 2 18 15
18 29 0 29 -8 0 -17 11 -20 25 -5 20 -12 25 -40 25 -25 0 -38 7 -50 25 -23 35
-12 47 43 44 53 -3 66 2 74 30 4 16 -4 22 -44 35 -26 9 -54 16 -61 16 -7 0
-31 5 -53 11 l-39 11 23 19 c14 11 39 19 62 19 21 0 41 4 44 10 3 5 17 10 31
10 24 0 24 1 9 24 -13 20 -14 29 -5 46 11 21 10 22 -19 15 -16 -3 -39 -2 -50
4 -14 8 -28 8 -47 1 -27 -11 -94 5 -94 22 0 11 45 28 73 28 13 0 31 10 41 22
18 21 18 21 -4 38 -19 14 -21 20 -11 39 9 16 17 20 38 15 22 -6 24 -4 19 14
-5 16 -1 24 21 36 19 10 22 15 11 16 -9 0 -29 5 -45 12 -15 6 -60 10 -99 9
-80 -3 -99 9 -66 41 16 16 23 18 41 9 14 -8 26 -8 38 -1 10 5 36 17 58 26 37
16 38 17 16 23 -21 6 -22 8 -7 20 9 7 16 17 16 22 0 12 -127 11 -168 0 -29 -9
-67 -2 -92 17 -9 6 25 22 50 22 17 0 32 11 48 36 13 19 35 41 50 47 22 10 27
19 28 47 l1 36 -51 -6 c-28 -3 -57 -9 -63 -13 -7 -4 -32 -3 -55 4 l-43 11 30
25 c26 21 37 23 80 18 44 -5 48 -4 32 7 -18 13 -17 15 10 28 l28 14 -32 4
c-25 2 -34 9 -39 28 -8 29 -14 30 -48 3 -24 -19 -26 -19 -26 -2 1 10 7 29 15
43 20 35 18 50 -6 50 -11 0 -31 8 -44 18 l-23 17 31 33 31 32 -37 0 c-33 0
-37 3 -37 25 0 23 -2 25 -21 14 -35 -18 -45 11 -13 39 l25 22 -22 8 c-22 8
-22 9 6 30 l28 22 -41 0 c-34 0 -41 3 -44 22 -4 30 -64 36 -73 7 -9 -28 -47
-24 -113 13 -31 18 -61 36 -67 40 -49 40 -496 258 -528 258 -5 0 -35 11 -66
24 -56 24 -183 64 -224 72 -13 2 -49 13 -81 24 -33 11 -69 20 -80 20 -12 0
-68 11 -126 24 -58 13 -154 29 -215 36 -60 6 -144 15 -185 20 -133 14 -332 19
-445 9z m89 -145 c9 -8 16 -18 16 -20 0 -13 -32 -64 -39 -64 -5 0 -17 -23 -26
-50 -25 -76 -10 -175 38 -246 15 -21 23 -41 19 -45 -4 -4 -25 -10 -48 -14 -54
-8 -70 9 -55 62 14 50 14 53 -7 53 -10 0 -22 -12 -29 -30 -18 -48 -67 -71
-143 -68 l-64 3 -7 35 c-4 19 -10 66 -13 105 -4 38 -11 98 -17 133 -10 56 -9
65 6 82 10 11 24 20 31 20 7 0 10 8 7 19 -5 20 -13 19 182 34 102 9 134 7 149
-9z m456 -14 c30 -16 24 -46 -16 -82 -55 -50 -68 -83 -68 -168 -1 -59 4 -84
22 -118 38 -73 33 -79 -62 -66 -57 8 -68 27 -32 55 22 17 24 24 15 35 -10 13
-15 12 -33 -5 -53 -50 -131 -54 -199 -12 -55 35 -72 82 -64 173 11 124 112
203 195 151 37 -23 71 -64 72 -85 0 -10 7 -18 15 -18 12 0 15 14 15 70 0 55 4
71 18 80 19 12 92 6 122 -10z m-984 -34 c3 -8 16 -17 29 -20 28 -7 40 -39 54
-156 24 -193 24 -207 2 -227 -42 -38 -52 -44 -79 -46 -26 -2 -27 -1 -30 61 -3
54 -5 62 -17 52 -8 -7 -15 -21 -15 -31 0 -11 -15 -35 -32 -55 -27 -29 -45 -37
-102 -49 -38 -8 -70 -14 -71 -12 -10 13 -45 153 -41 163 3 8 16 14 29 14 13 0
38 5 55 11 35 12 72 -2 72 -26 0 -8 5 -15 10 -15 21 0 21 30 -2 98 -25 75 -40
82 -53 25 -6 -29 -13 -35 -61 -49 -29 -8 -58 -13 -64 -9 -10 6 -40 98 -40 122
0 22 42 41 105 48 52 6 63 4 82 -14 27 -26 39 -11 23 29 -21 50 -11 63 60 81
81 22 80 22 86 5z m1168 -32 c41 -20 79 -93 80 -156 1 -60 -42 -165 -78 -191
-34 -24 -78 -27 -125 -8 -47 20 -59 52 -57 156 1 80 4 95 29 133 27 41 79 82
104 82 7 0 28 -7 47 -16z m192 7 c16 -5 45 -22 64 -39 33 -30 33 -33 23 -74
-14 -59 -83 -251 -103 -288 -4 -9 -21 -15 -41 -14 -19 0 -38 -6 -42 -13 -11
-18 -46 -16 -54 3 -4 11 4 26 25 43 17 14 44 50 61 79 41 70 43 153 6 226 -37
73 -16 99 61 77z m348 -105 c34 -13 69 -27 79 -30 40 -13 21 -46 -103 -184
-78 -87 -98 -92 -106 -23 -30 260 -27 277 34 267 20 -3 63 -16 96 -30z m-2211
-6 c3 -13 14 -20 30 -20 22 0 28 -9 56 -92 17 -51 41 -120 52 -153 12 -33 23
-67 26 -77 11 -38 -136 -144 -190 -136 -17 2 -23 11 -25 38 -2 19 -14 109 -28
199 l-24 164 22 24 c12 12 18 26 15 30 -7 6 40 43 54 43 4 0 9 -9 12 -20z
m-206 -86 c4 -11 13 -13 33 -9 17 4 31 1 35 -5 9 -15 25 -199 18 -217 -8 -19
-11 -17 -107 66 l-86 75 20 21 c12 13 18 29 14 38 -4 10 4 21 23 31 36 19 42
19 50 0z m2755 -55 c25 -13 36 -24 32 -34 -4 -9 3 -23 17 -33 l22 -19 -34 -57
c-37 -62 -59 -97 -118 -191 l-38 -60 -51 -2 c-36 -1 -52 2 -52 11 0 7 -11 23
-25 36 -14 13 -25 28 -25 34 0 10 28 86 56 151 7 17 20 53 29 80 39 114 85
135 187 84z m-558 -11 c11 -60 26 -221 20 -229 -11 -18 -45 -8 -82 25 l-37 34
17 54 c9 29 19 65 23 80 5 27 29 58 46 58 5 0 11 -10 13 -22z m-2440 -54 c4
-11 13 -14 31 -10 20 5 33 -1 65 -31 38 -36 40 -41 40 -100 0 -34 -5 -65 -10
-68 -13 -8 -170 133 -170 152 0 7 7 16 15 19 12 5 13 10 4 20 -11 13 -5 34 11
34 4 0 11 -7 14 -16z m2719 -18 c3 -8 -3 -39 -15 -68 -58 -149 -60 -150 -126
-144 -85 8 -83 23 24 135 87 91 107 104 117 77z m474 -81 c82 -53 83 -54 83
-95 0 -22 4 -40 9 -40 4 0 20 18 35 40 35 53 58 51 126 -9 54 -49 55 -49 36
-70 -11 -12 -30 -21 -43 -21 -27 0 -29 -10 -8 -50 8 -16 12 -36 9 -44 -5 -14
-9 -13 -31 4 -27 21 -43 19 -43 -5 0 -8 -15 -18 -32 -23 -33 -8 -33 -8 -10
-21 19 -10 21 -15 11 -27 -10 -12 -5 -13 32 -8 37 4 49 1 73 -19 l30 -24 -37
-12 c-25 -9 -42 -9 -50 -3 -7 5 -38 12 -69 14 l-57 5 6 -29 c5 -23 2 -28 -15
-28 -13 0 -22 -8 -24 -20 -3 -20 -5 -19 -40 6 -48 34 -49 60 -2 97 29 23 33
31 23 43 -10 13 -15 12 -34 -6 -34 -32 -87 -26 -156 16 -32 20 -59 43 -59 50
0 26 65 124 87 130 45 12 107 -42 107 -92 0 -48 22 -50 46 -6 12 20 28 49 37
63 10 15 13 33 9 44 -6 17 -8 17 -27 -3 -11 -12 -24 -22 -30 -22 -18 0 -111
53 -116 66 -8 23 57 120 84 124 1 0 19 -11 40 -25z m-3345 -7 c30 2 46 -11
183 -143 l150 -145 -35 -30 c-19 -16 -43 -32 -54 -36 -10 -3 -65 -37 -122 -75
-57 -38 -108 -69 -115 -69 -6 0 -21 8 -34 18 -16 13 -21 23 -14 33 15 24 10
31 -15 25 -15 -4 -26 -1 -28 6 -4 10 -13 10 -43 1 -47 -15 -53 -11 -32 21 16
24 15 26 -9 55 -25 30 -25 30 -4 41 11 6 28 9 38 6 9 -3 28 3 42 14 14 11 19
20 12 20 -9 0 -11 7 -7 21 6 18 4 20 -13 15 -11 -4 -23 -2 -27 5 -6 8 -9 8
-15 0 -11 -18 -42 -1 -37 20 3 10 0 20 -7 22 -6 2 -1 9 12 16 18 10 21 15 12
26 -9 10 -6 15 11 20 22 7 21 8 -10 24 l-32 17 72 47 c53 34 75 44 80 35 5 -7
23 -11 41 -10z m443 -108 c39 -33 70 -67 70 -77 0 -22 -124 -86 -141 -72 -6 5
-14 36 -17 68 -4 33 -9 78 -13 100 -6 36 -4 41 12 41 11 0 51 -27 89 -60z
m1560 15 c17 -2 59 -7 95 -10 114 -11 371 -71 478 -111 34 -13 69 -24 78 -24
14 0 83 -28 204 -82 119 -54 281 -143 365 -202 28 -20 71 -49 98 -67 51 -33
60 -55 25 -61 -18 -3 -15 -7 17 -16 46 -13 85 -45 85 -69 0 -13 -8 -15 -45
-11 -25 3 -48 2 -51 -3 -3 -5 -22 -9 -42 -9 l-37 0 22 -18 c17 -13 21 -23 16
-41 -6 -22 -4 -23 22 -17 20 5 31 2 41 -11 19 -25 17 -32 -10 -45 -24 -10 -24
-12 -8 -34 13 -18 23 -22 44 -18 25 5 78 -19 78 -35 0 -16 -68 -31 -94 -21
-19 7 -33 7 -47 -1 -14 -7 -29 -7 -49 -1 -27 10 -28 10 -20 -18 6 -20 4 -35
-7 -49 -13 -20 -12 -21 11 -21 14 0 28 -4 31 -10 3 -5 25 -10 49 -10 23 0 51
-6 61 -14 18 -13 17 -15 -19 -30 -22 -9 -46 -14 -55 -11 -9 2 -37 -5 -62 -18
-42 -20 -45 -24 -38 -46 8 -20 14 -22 39 -18 31 7 90 -9 90 -24 0 -5 -4 -9 -9
-9 -5 0 -13 -9 -16 -20 -5 -16 -15 -20 -46 -20 -33 0 -39 -3 -39 -20 0 -12 -9
-24 -21 -28 -20 -8 -20 -8 0 -26 15 -14 23 -15 40 -6 21 11 91 4 91 -9 0 -4
-22 -15 -50 -25 -41 -15 -50 -22 -50 -41 0 -15 -8 -26 -20 -30 -24 -8 -26 -21
-3 -33 15 -9 13 -13 -13 -37 l-29 -27 21 -17 c18 -14 33 -16 80 -11 46 6 63 4
77 -8 15 -13 24 -14 47 -5 17 6 78 10 137 10 l108 -2 3 -99 c2 -72 -1 -102
-10 -107 -14 -9 -131 -4 -147 5 -6 4 -19 3 -28 -2 -11 -6 -40 -6 -76 -1 -36 6
-64 6 -75 0 -11 -6 -35 -6 -66 1 -34 7 -51 7 -59 -1 -11 -11 -197 -16 -197 -6
0 13 70 76 78 71 11 -6 52 47 52 68 0 9 8 20 19 25 20 11 33 55 20 68 -4 4 -2
25 6 45 11 34 10 42 -7 74 -11 20 -17 43 -14 50 3 8 -10 30 -29 49 -37 36 -45
65 -19 65 27 0 -21 51 -67 72 -38 16 -40 20 -34 48 8 35 -7 40 -28 9 -14 -19
-19 -20 -73 -10 -32 6 -59 11 -61 11 -2 0 -3 47 -3 104 0 94 2 105 19 108 15
2 17 8 10 26 -8 22 -10 22 -217 22 -168 0 -212 -3 -221 -14 -8 -10 -9 -16 -1
-21 6 -4 10 -49 10 -111 l0 -104 -25 0 c-14 0 -25 5 -25 10 0 6 -9 10 -20 10
-11 0 -20 -6 -20 -14 0 -10 -25 -15 -102 -20 -131 -8 -241 -22 -348 -46 -47
-10 -102 -21 -122 -25 -51 -8 -70 -28 -58 -61 13 -34 13 -124 0 -124 -6 0 -16
11 -22 25 -9 19 -18 25 -37 23 -26 -3 -43 -28 -18 -28 8 0 18 -7 21 -16 5 -13
1 -16 -22 -12 l-28 4 8 -64 c13 -110 12 -108 126 -102 31 1 43 -12 21 -25 -6
-4 0 -19 15 -40 15 -19 26 -40 26 -48 0 -18 18 -32 50 -40 22 -6 56 -54 46
-65 -5 -4 -104 -5 -299 -3 l-127 1 0 28 c0 60 -13 168 -22 179 -11 14 -2 70
14 79 6 4 9 -5 7 -22 -3 -42 12 -134 22 -134 5 0 9 5 9 11 0 5 5 7 10 4 12 -7
3 69 -11 97 -5 9 -9 64 -9 122 0 93 -2 106 -19 115 -13 7 -69 8 -171 1 -84 -5
-162 -7 -174 -4 -11 2 -61 6 -111 8 -111 4 -167 14 -182 33 -8 10 -13 11 -18
3 -6 -9 -10 -9 -15 1 -7 10 -11 10 -25 -1 -12 -10 -21 -10 -40 -2 -33 15 -43
-3 -16 -27 20 -18 20 -51 0 -51 -5 0 -9 -7 -9 -15 0 -8 -4 -15 -10 -15 -14 0
-12 -38 3 -43 6 -2 40 -2 74 1 l61 5 21 -43 c12 -24 19 -46 16 -48 -9 -9 -115
-15 -115 -7 0 5 7 17 17 27 18 20 10 39 -9 20 -8 -8 -15 -8 -24 -1 -7 6 -19 7
-26 3 -7 -5 -21 -7 -30 -6 -10 2 -18 -2 -18 -7 0 -6 7 -11 15 -11 8 0 15 -8
16 -17 0 -10 2 -45 3 -78 2 -33 6 -72 11 -87 4 -17 2 -46 -6 -73 l-14 -46 -85
3 -85 3 -3 188 c-2 157 -5 187 -17 187 -8 0 -15 -7 -15 -15 0 -23 -248 -22
-257 1 -3 8 -17 20 -32 26 -24 9 -25 10 -8 22 9 7 17 20 17 29 0 9 5 19 11 23
6 4 -5 13 -26 23 -34 15 -36 18 -21 30 9 7 16 17 16 21 0 9 -119 40 -153 40
-32 0 -38 9 -26 32 9 17 17 19 50 14 38 -6 39 -5 33 18 -7 31 16 39 80 27 34
-6 45 -6 37 2 -17 17 -14 23 20 45 l32 20 -42 7 c-25 4 -41 12 -41 21 0 8 3
14 8 14 4 0 16 14 27 30 11 17 28 33 38 36 9 3 17 12 17 20 0 8 6 14 14 14 8
0 21 8 28 18 29 42 93 54 143 28 58 -30 81 16 29 58 -18 14 -38 26 -43 26 -20
0 -11 37 15 64 21 21 23 26 10 26 -9 0 -26 -9 -38 -20 -12 -11 -35 -20 -50
-20 -16 0 -46 9 -68 20 -48 24 -76 25 -84 3 -6 -15 8 -32 26 -33 4 0 8 -10 10
-22 2 -14 12 -24 28 -28 24 -6 23 -7 -22 -40 -42 -32 -74 -74 -70 -92 1 -5 -3
-8 -9 -8 -5 0 -7 -5 -3 -11 4 -7 -4 -20 -17 -31 -13 -11 -17 -16 -9 -12 8 3 5
-4 -7 -17 -17 -17 -32 -22 -58 -21 -19 2 -44 -2 -55 -8 -17 -9 -28 -7 -55 10
-33 21 -34 22 -19 45 12 18 13 28 4 44 -10 20 -8 21 30 21 37 0 40 2 30 19
-15 28 -13 31 18 31 20 0 32 8 44 30 l18 31 -34 -6 c-26 -5 -35 -3 -40 10 -5
14 -14 16 -57 10 -36 -5 -50 -4 -45 3 4 6 -7 21 -24 33 -16 13 -30 26 -30 31
0 4 25 8 56 8 41 0 63 5 81 20 l26 20 -27 0 c-15 0 -26 6 -26 14 0 7 -10 17
-22 20 l-23 6 25 15 c14 8 30 14 37 15 6 0 65 37 130 83 134 94 138 96 363
210 319 162 652 255 970 272 74 4 137 9 140 12 5 5 307 -5 365 -12z m505 -985
c0 -91 -3 -110 -15 -110 -12 0 -15 19 -15 110 0 91 3 110 15 110 12 0 15 -19
15 -110z m328 -7 l3 -113 -39 0 c-63 0 -142 -66 -182 -152 -22 -47 -23 -48
-66 -48 l-44 0 0 70 c0 51 4 72 14 76 11 4 13 29 8 129 -2 68 -2 130 1 139 6
14 26 16 154 14 l148 -3 3 -112z m137 -157 c62 -16 117 -44 113 -57 -2 -5 -6
-9 -10 -9 -5 0 -17 0 -27 0 -11 0 -26 7 -34 15 -25 25 -144 27 -193 4 -23 -11
-47 -18 -54 -17 -7 2 -27 -16 -44 -39 -17 -23 -36 -42 -42 -42 -14 -1 -34 -45
-34 -75 0 -13 -7 -27 -16 -30 -17 -6 -16 -45 1 -88 6 -14 2 -18 -15 -18 -22 0
-22 3 -18 68 7 86 52 189 99 224 50 38 78 50 139 64 73 16 77 16 135 0z m-754
-87 c80 -52 142 -157 137 -230 -4 -55 -23 -61 -32 -9 -7 45 -47 133 -75 168
-31 36 -139 82 -193 82 -52 0 -65 16 -20 23 61 11 134 -3 183 -34z m-1703
-241 l-3 -33 -209 -3 c-133 -1 -213 1 -220 8 -7 7 -4 10 7 10 10 0 29 7 42 16
20 13 31 14 56 5 46 -16 82 -14 76 3 -3 8 -3 17 0 20 4 3 62 6 130 6 l124 0
-3 -32z m-310 -72 l307 -1 3 -32 3 -33 -365 0 c-351 0 -366 1 -366 19 0 10 6
24 14 30 19 16 68 29 84 23 7 -2 151 -5 320 -6z m955 -6 c47 -9 66 -9 112 5
45 13 59 13 78 3 12 -7 26 -12 30 -13 26 -1 38 -116 17 -169 l-10 -26 -152 2
-153 3 -13 94 c-15 102 -11 125 15 117 10 -2 44 -10 76 -16z m1279 3 c10 -9
18 -29 18 -45 0 -27 2 -28 50 -28 40 0 50 3 50 17 0 13 -3 14 -12 5 -7 -7 -27
-12 -46 -12 -32 0 -33 1 -30 38 3 36 4 37 38 35 19 -2 42 -3 50 -4 8 0 25 2
36 6 13 4 26 2 33 -7 43 -52 58 -74 54 -83 -6 -18 36 -55 62 -55 16 0 25 -6
25 -15 0 -9 11 -21 25 -27 14 -6 25 -15 25 -20 0 -4 -53 -9 -117 -9 -361 -5
-542 -5 -570 -1 l-32 4 33 33 c18 18 42 35 52 37 21 4 72 83 73 114 1 31 8 34
89 34 56 0 80 -4 94 -17z m-1924 -150 l-3 -48 -360 0 -360 0 -3 48 -3 47 366
0 366 0 -3 -47z m-541 -220 c2 -6 -12 -19 -31 -28 -20 -10 -49 -37 -66 -64
-30 -45 -31 -49 -28 -141 4 -110 23 -150 90 -189 21 -12 36 -26 33 -31 -4 -6
-98 -10 -228 -10 l-222 0 -52 35 c-29 19 -60 49 -68 65 -14 28 -14 30 8 45 36
23 53 83 36 128 -7 19 -23 41 -36 48 -32 17 -29 33 18 80 74 74 95 79 333 76
150 -1 210 -5 213 -14z m503 2 c0 -9 -8 -19 -17 -22 -57 -21 -123 -137 -123
-215 0 -55 50 -146 100 -181 22 -16 40 -33 40 -38 0 -12 -337 -12 -345 1 -3 5
12 18 33 29 39 20 72 51 55 51 -6 0 -21 -8 -34 -18 -58 -43 -127 -54 -178 -28
-104 54 -138 209 -75 337 18 37 104 72 154 64 44 -7 110 -63 110 -93 0 -12 5
-24 10 -27 6 -4 10 6 9 22 -1 33 -16 123 -18 106 -1 -16 -25 -17 -52 -2 -42
22 -3 29 162 29 145 0 169 -2 169 -15z m575 5 c3 -5 -13 -21 -35 -36 -125 -83
-133 -300 -14 -386 24 -17 44 -35 44 -40 0 -4 -92 -8 -205 -8 -126 0 -205 4
-205 10 0 5 13 16 29 25 59 30 111 127 111 206 0 60 -41 140 -93 184 -25 21
-44 42 -41 47 7 12 401 10 409 -2z m345 0 c0 -5 11 -10 24 -10 49 0 56 -28 56
-218 0 -105 -4 -181 -11 -194 -18 -33 -71 -48 -169 -48 -52 0 -90 4 -90 10 0
5 17 18 38 29 39 20 72 51 55 51 -6 0 -22 -9 -36 -20 -14 -11 -32 -20 -40 -20
-9 0 -19 -4 -22 -10 -8 -14 -78 -13 -112 2 -41 18 -92 76 -100 117 -15 71 -7
174 15 210 68 111 226 98 272 -23 17 -45 22 -24 14 51 -4 37 -9 62 -11 56 -3
-7 -11 -13 -19 -13 -24 0 -55 20 -49 31 8 12 185 12 185 -1z m290 0 c0 -5 9
-10 19 -10 34 0 51 -38 51 -115 0 -42 -5 -76 -12 -83 -15 -15 -171 -16 -199
-2 -16 9 -19 22 -19 83 0 75 16 117 46 117 8 0 14 5 14 10 0 6 23 10 50 10 28
0 50 -4 50 -10z m349 -6 c17 -8 36 -24 41 -34 16 -29 12 -371 -4 -392 -43 -57
-213 -49 -246 11 -6 12 -10 93 -10 193 0 141 3 178 16 196 8 12 22 22 30 22 8
0 14 5 14 10 0 16 123 12 159 -6z m725 0 c24 -24 22 -33 -45 -181 -10 -24 -19
-45 -19 -49 0 -3 -11 -29 -24 -57 -13 -29 -29 -67 -36 -85 -22 -56 -65 -92
-111 -92 -65 0 -109 33 -206 155 -37 45 -41 61 -15 70 41 14 75 56 80 101 4
36 0 51 -22 85 -45 68 -43 69 183 69 168 0 202 -2 215 -16z m396 6 c0 -5 10
-10 23 -10 44 0 47 -12 47 -222 l0 -198 -26 -17 c-37 -24 -133 -29 -170 -10
-28 14 -40 34 -90 152 -63 150 -87 204 -99 227 -19 34 -19 53 1 72 13 13 42
16 165 16 93 0 149 -4 149 -10z m320 0 c0 -5 11 -10 24 -10 45 0 56 -32 56
-160 0 -63 -4 -121 -8 -128 -15 -22 -39 -3 -104 81 -34 45 -68 87 -75 92 -30
25 -73 90 -73 111 0 23 2 24 90 24 53 0 90 -4 90 -10z m439 -5 c56 -19 106
-59 122 -96 11 -29 10 -32 -17 -54 -26 -21 -29 -29 -29 -80 0 -50 3 -60 28
-79 15 -12 27 -26 27 -32 0 -20 -63 -85 -101 -104 -33 -17 -59 -20 -193 -20
-143 0 -156 1 -166 19 -6 12 -10 97 -10 208 0 154 3 193 16 211 8 12 22 22 30
22 8 0 14 5 14 10 0 16 230 13 279 -5z m-3312 -21 c82 -40 132 -188 97 -293
-21 -66 -59 -106 -115 -121 -38 -10 -48 -10 -78 6 -72 39 -107 119 -98 225 7
77 33 138 74 165 57 39 71 41 120 18z m1664 -14 c55 -29 73 -84 44 -140 -12
-23 -28 -33 -72 -46 -81 -23 -87 -17 -91 89 -3 108 6 131 51 121 18 -3 48 -15
68 -24z m1090 -163 c34 -45 72 -91 84 -102 44 -42 107 -135 101 -150 -4 -12
-26 -15 -111 -15 -112 0 -155 12 -175 49 -5 11 -10 80 -10 153 0 189 11 195
111 65z m-547 48 c9 -13 23 -45 32 -71 20 -58 12 -65 -66 -62 -45 3 -55 6 -58
22 -5 24 48 136 64 136 6 0 19 -11 28 -25z m-1070 -91 c13 -5 16 -23 16 -88 0
-75 -2 -85 -25 -106 -49 -46 -166 -34 -195 19 -14 27 -13 154 2 169 13 13 173
17 202 6z m483 -40 c42 -45 123 -166 117 -175 -3 -5 -34 -9 -69 -9 -56 0 -66
3 -94 29 -29 27 -31 34 -31 98 0 38 3 73 7 76 14 15 47 6 70 -19z m680 -78
c29 -60 26 -81 -12 -96 -41 -16 -172 -12 -205 5 -34 18 -38 41 -14 88 29 56
31 57 120 57 l84 0 27 -54z"/>
<path d="M3737 1841 c-3 -14 0 -17 14 -14 15 4 17 8 8 19 -15 18 -16 18 -22
-5z"/>
</g>
</svg>
