<?xml version="1.0" standalone="no"?>
<!DOCTYPE svg PUBLIC "-//W3C//DTD SVG 20010904//EN"
 "http://www.w3.org/TR/2001/REC-SVG-20010904/DTD/svg10.dtd">
<svg version="1.0" xmlns="http://www.w3.org/2000/svg"
 width="580.000000pt" height="400.000000pt" viewBox="0 0 580.000000 400.000000"
 preserveAspectRatio="xMidYMid meet">
<metadata>
Created by potrace 1.16, written by Peter Selinger 2001-2019
</metadata>
<g transform="translate(0.000000,400.000000) scale(0.100000,-0.100000)"
fill="#000000" stroke="none">
<path d="M2650 3362 c0 -4 5 -13 12 -20 7 -7 14 -51 16 -101 4 -86 3 -91 -21
-115 -33 -33 -76 -34 -106 -2 -18 20 -23 39 -28 116 -6 84 -4 94 13 108 18 14
18 14 1 8 -10 -3 -35 -6 -54 -6 -34 0 -35 -1 -21 -17 10 -11 19 -49 23 -98 7
-80 24 -129 47 -138 10 -4 8 -9 -4 -20 -18 -15 -133 -31 -149 -22 -5 3 0 23
11 43 40 74 12 170 -60 207 -33 17 -76 20 -85 5 -4 -6 6 -10 23 -10 50 0 94
-64 95 -140 2 -116 -105 -150 -155 -50 -30 58 -21 158 16 182 6 4 8 9 5 13
-12 12 -58 -38 -75 -80 -22 -59 -9 -108 43 -159 l37 -35 -30 -12 c-16 -6 -46
-13 -68 -17 l-39 -5 5 34 c6 42 -7 74 -37 87 -20 9 -23 16 -18 49 9 75 -32 92
-150 63 -53 -12 -70 -24 -48 -32 5 -1 23 -54 39 -116 l30 -113 -25 -23 c-15
-15 -33 -21 -47 -19 -13 3 -68 49 -122 104 -54 54 -102 99 -106 99 -5 0 -8
-59 -8 -131 0 -192 -22 -219 -139 -170 -54 22 -61 28 -56 46 18 54 17 83 -4
104 -30 30 -74 26 -155 -13 -55 -28 -64 -35 -45 -38 19 -2 35 -24 77 -105 l53
-103 -22 -29 c-11 -15 -40 -39 -62 -51 -23 -13 -77 -47 -119 -76 -89 -61 -113
-70 -125 -51 -4 7 -16 17 -26 20 -13 5 -16 13 -12 27 5 15 2 20 -14 20 -11 0
-22 4 -26 9 -3 6 -17 6 -36 -1 -34 -12 -47 -5 -30 15 13 16 6 43 -18 70 -13
16 -13 19 -1 27 8 5 25 7 37 4 16 -4 25 -1 29 10 3 9 16 16 27 16 20 0 20 1 4
18 -10 9 -29 17 -44 17 -32 0 -55 32 -33 45 8 5 24 16 35 25 20 15 20 16 -4
13 -21 -3 -25 1 -25 22 0 14 3 31 8 38 5 8 -3 16 -24 23 -25 9 -29 15 -24 33
8 26 4 23 44 40 l35 15 -32 7 c-33 6 -46 35 -23 49 19 12 10 24 -22 27 -29 3
-33 7 -33 32 -1 30 -48 81 -66 71 -5 -4 -9 -26 -9 -50 0 -51 -17 -61 -78 -50
l-37 7 24 -26 c14 -14 23 -28 20 -29 -2 -2 -13 -9 -23 -14 -18 -10 -18 -11 7
-28 15 -9 27 -24 27 -31 0 -16 -26 -19 -35 -4 -11 18 -24 10 -27 -17 -3 -24
-8 -29 -37 -31 l-34 -3 33 -34 c28 -29 31 -37 20 -50 -7 -8 -28 -15 -46 -15
-39 0 -40 -4 -18 -60 20 -50 14 -58 -24 -31 l-30 21 -6 -24 c-5 -19 -15 -26
-48 -31 l-42 -7 28 -15 c19 -10 26 -20 23 -32 -4 -15 2 -17 47 -13 42 3 54 1
70 -17 24 -26 16 -35 -32 -34 -20 1 -55 2 -77 3 -22 1 -52 8 -67 16 -38 20
-41 18 -23 -16 12 -22 13 -35 5 -49 -14 -28 -13 -31 14 -31 33 0 73 -35 81
-70 6 -28 9 -30 40 -24 41 7 56 -12 21 -27 -18 -8 -37 -9 -68 -1 -24 5 -74 7
-112 3 -61 -5 -67 -8 -53 -20 21 -17 22 -31 1 -31 -29 0 -9 -23 36 -41 25 -10
64 -18 86 -18 46 -1 73 -21 52 -39 -13 -10 -128 -9 -146 2 -5 3 -15 -1 -22 -9
-7 -8 -25 -15 -41 -15 -34 0 -38 -15 -9 -30 15 -8 19 -17 14 -36 -6 -23 -4
-25 21 -22 18 2 31 -3 39 -14 9 -15 6 -21 -12 -34 l-23 -16 22 -24 c14 -15 34
-24 53 -24 28 -1 66 -19 66 -32 0 -16 -58 -27 -89 -18 -22 6 -40 6 -52 -1 -11
-5 -35 -7 -54 -3 -34 6 -35 6 -29 -24 3 -16 1 -39 -5 -51 -10 -19 -9 -21 12
-21 14 0 30 -7 37 -15 6 -8 34 -15 63 -17 28 -2 52 -8 54 -14 5 -16 -46 -32
-83 -27 -20 3 -35 -1 -43 -11 -8 -9 -24 -16 -37 -16 -31 0 -38 -14 -22 -47 12
-24 18 -27 58 -25 58 3 76 -8 61 -36 -8 -15 -23 -22 -53 -24 -34 -2 -44 -7
-46 -23 -2 -11 -11 -26 -20 -33 -15 -11 -14 -14 5 -33 16 -16 25 -19 39 -11
21 11 74 5 74 -8 0 -5 -19 -15 -42 -22 -34 -12 -44 -20 -46 -41 -2 -15 -11
-29 -23 -32 -24 -8 -24 -21 -2 -34 14 -8 15 -12 4 -25 -7 -9 -22 -16 -32 -16
-28 0 -23 -15 16 -45 33 -24 40 -26 98 -20 51 6 65 4 76 -9 17 -21 40 -20 71
1 14 10 41 18 60 20 19 1 42 2 50 3 20 1 99 -16 107 -23 13 -13 16 -196 4
-211 -7 -8 -41 -24 -76 -36 -214 -71 -364 -276 -365 -497 l0 -53 2686 0 2687
0 -6 85 c-8 111 -58 222 -140 311 -73 79 -119 110 -208 140 -40 13 -79 30 -86
36 -9 7 -13 39 -13 104 0 103 -1 102 75 104 17 0 55 1 86 1 33 1 67 -5 87 -15
31 -16 32 -16 38 8 3 14 12 27 20 30 8 3 14 11 14 19 0 7 13 23 29 35 28 20
31 21 67 6 44 -18 84 -11 84 15 0 11 10 21 23 25 22 6 22 7 -5 22 -18 9 -28
23 -28 38 0 15 -7 26 -20 29 -20 5 -28 27 -10 27 6 0 10 8 10 18 0 10 5 23 12
30 9 9 3 15 -26 27 -37 16 -38 17 -20 36 9 10 15 21 13 23 -9 8 -138 36 -168
36 -26 0 -32 3 -27 16 3 9 6 19 6 24 0 4 13 13 29 20 22 9 34 9 50 0 16 -8 21
-8 22 2 3 43 7 60 21 75 33 39 32 44 -10 37 -34 -5 -42 -3 -56 17 -12 18 -18
21 -28 11 -17 -17 -42 -15 -68 6 -22 18 -22 19 -6 44 11 17 13 28 7 33 -23 14
-9 25 31 25 33 0 39 3 30 12 -21 21 -14 38 16 38 28 0 32 4 60 63 2 4 -14 7
-37 7 -22 0 -43 5 -47 11 -4 7 -21 9 -40 6 -28 -5 -39 -1 -64 24 -16 17 -30
35 -30 40 0 5 21 9 48 9 35 1 55 7 77 25 l30 25 -29 0 c-23 0 -27 3 -23 20 4
15 0 20 -14 20 -10 0 -19 5 -19 10 0 6 19 10 43 10 33 1 38 3 25 11 -25 14
-22 27 7 41 34 15 32 28 -5 28 -23 0 -30 5 -30 19 0 49 -11 53 -44 15 -26 -30
-35 -35 -50 -27 -13 7 -37 6 -77 -2 -32 -7 -61 -10 -64 -7 -11 12 -4 42 10 42
9 0 18 7 21 15 5 11 15 14 39 9 29 -5 33 -3 39 20 4 17 13 26 27 26 15 0 19 5
14 18 -4 15 2 21 27 29 l33 9 -53 18 c-34 12 -65 16 -88 12 -36 -7 -42 1 -24
35 6 10 19 19 29 19 28 0 31 10 14 37 -14 21 -14 26 -2 34 14 9 28 8 63 -7 17
-6 18 -4 12 19 -5 23 -2 29 19 39 36 16 31 28 -14 28 -26 0 -41 5 -45 16 -4
11 -13 14 -31 10 -14 -3 -36 -9 -50 -12 -22 -5 -25 -3 -25 20 0 15 7 29 15 32
11 5 13 10 5 19 -6 7 -8 25 -4 39 5 23 3 27 -26 32 -19 4 -35 15 -39 27 -5 14
-10 17 -15 9 -10 -17 -46 -15 -46 2 0 7 12 21 26 31 24 16 25 17 7 30 -17 13
-17 15 7 41 l25 27 -35 -6 c-39 -7 -76 13 -67 36 6 16 -10 37 -29 37 -18 0
-59 -61 -47 -69 25 -16 22 -41 -7 -56 -16 -8 -36 -15 -45 -15 -8 0 -15 -9 -15
-20 0 -13 7 -20 19 -20 26 0 34 -15 27 -46 -6 -21 -12 -25 -39 -22 -47 4 -49
-26 -3 -53 31 -18 35 -25 30 -47 -4 -15 -15 -36 -25 -46 -18 -19 -19 -19 -39
-1 -17 15 -20 16 -20 3 0 -9 -9 -18 -19 -21 -11 -2 -21 -15 -23 -28 -2 -18
-13 -25 -47 -34 l-44 -10 28 -13 c19 -9 26 -18 22 -31 -4 -16 1 -17 42 -13 36
3 52 0 71 -16 42 -34 19 -40 -110 -29 -25 2 -53 7 -62 11 -15 7 -18 3 -18 -22
0 -50 -28 -49 -112 4 -91 58 -118 82 -118 107 0 10 24 61 53 113 44 80 56 94
77 94 23 0 21 2 -15 25 -50 30 -52 31 -53 1 0 -14 -10 -41 -22 -61 l-22 -36
-47 27 c-25 15 -50 30 -54 34 -11 10 19 70 46 91 20 17 20 17 -22 38 -39 20
-42 21 -32 3 8 -15 -2 -40 -47 -123 -62 -112 -61 -111 -138 -94 -32 7 -38 34
-11 46 l22 10 -23 -5 c-36 -7 -89 12 -112 41 -25 32 -26 82 -1 131 35 69 81
93 130 67 35 -18 51 -42 52 -82 0 -27 1 -26 18 12 15 34 16 41 4 43 -8 2 -31
15 -50 28 -42 28 -85 31 -132 6 -59 -30 -76 -63 -75 -148 1 -82 1 -83 -68 -47
-36 17 -35 34 5 158 28 84 36 100 57 106 l25 6 -28 12 c-45 18 -53 14 -50 -21
3 -38 -26 -130 -44 -135 -7 -3 -28 41 -53 105 -40 103 -44 110 -77 120 -34 10
-34 10 -18 -8 16 -18 15 -24 -10 -112 -35 -121 -46 -138 -90 -138 -48 0 -58
20 -91 178 -15 72 -30 132 -34 132 -3 0 -40 -50 -80 -111 -80 -119 -106 -145
-140 -134 -20 7 -100 105 -100 124 0 6 13 17 29 26 19 9 32 26 36 44 13 62
-30 94 -144 107 l-63 7 15 -24 c13 -21 13 -38 1 -134 -7 -60 -13 -111 -14
-111 -4 -13 -321 -29 -342 -17 -5 2 0 19 9 36 13 25 16 54 14 129 -1 84 1 98
16 107 15 9 11 10 -19 11 -21 0 -38 -4 -38 -8z m477 -22 c80 -28 50 -134 -34
-118 -22 4 -29 60 -14 101 12 31 9 30 48 17z m-1129 -132 c30 -30 1 -85 -47
-90 -20 -3 -26 4 -39 41 -12 36 -12 45 -1 52 20 13 73 11 87 -3z m1131 -56
c50 -78 39 -98 -35 -67 -33 13 -35 17 -33 57 1 24 4 46 6 51 10 18 33 3 62
-41z m325 12 c24 -9 19 -24 -8 -24 -31 0 -56 10 -56 21 0 10 40 12 64 3z m315
-80 c34 -93 37 -114 20 -131 -15 -15 -83 4 -108 31 l-21 22 27 82 c15 45 32
82 39 82 6 0 25 -39 43 -86z m-291 18 c6 -9 12 -28 12 -44 0 -26 -3 -28 -40
-28 -49 0 -110 24 -110 42 0 8 7 24 16 37 15 20 22 22 63 16 25 -3 52 -14 59
-23z m-1434 -18 c23 -23 20 -48 -11 -78 -41 -41 -73 -33 -89 24 -9 32 -10 48
-2 57 15 18 83 16 102 -3z m-367 -56 c30 -28 29 -46 -3 -58 -40 -16 -44 -13
-44 35 0 51 11 56 47 23z m-309 -64 c31 -22 29 -67 -4 -93 -15 -12 -31 -21
-35 -21 -8 0 -59 91 -59 105 0 7 40 24 60 24 9 1 26 -6 38 -15z m391 -21 l21
-26 -20 -23 c-23 -24 -102 -50 -119 -39 -6 3 -11 22 -11 41 0 31 4 37 43 54
55 25 62 25 86 -7z m1266 -13 c549 -36 1030 -205 1497 -526 59 -40 73 -64 38
-64 -36 0 -21 -16 40 -43 54 -23 71 -42 54 -59 -3 -3 -21 -2 -41 4 -28 7 -38
6 -52 -6 -10 -9 -30 -16 -44 -16 -30 0 -35 -14 -11 -28 12 -7 15 -18 12 -36
-5 -25 -3 -27 25 -24 41 4 58 -23 33 -51 -18 -20 -18 -22 -1 -41 10 -12 31
-20 49 -20 17 0 39 -7 49 -15 18 -13 18 -14 -5 -29 -19 -12 -31 -13 -61 -5
-23 6 -43 6 -53 1 -10 -5 -32 -6 -53 -1 -43 9 -44 9 -32 -22 6 -17 4 -33 -5
-51 -14 -27 -13 -28 10 -28 13 0 29 -7 36 -15 8 -9 30 -15 59 -15 25 0 52 -4
60 -9 20 -13 -24 -34 -68 -33 -20 1 -45 -5 -58 -13 -12 -8 -34 -15 -48 -15
-19 0 -25 5 -25 23 0 42 -47 123 -91 159 -24 20 -76 52 -115 72 -59 31 -86 39
-164 46 -52 5 -98 8 -104 7 -6 -1 -12 8 -14 21 -5 34 -32 27 -72 -19 -34 -40
-37 -41 -77 -34 -53 8 -90 37 -98 74 -5 22 -13 30 -36 33 -41 6 -65 -12 -49
-38 14 -23 -2 -74 -23 -74 -8 0 -40 9 -73 20 -80 28 -125 38 -235 50 -98 11
-163 6 -302 -27 -64 -15 -80 -14 -119 2 -13 5 -18 2 -18 -9 0 -9 -7 -16 -15
-16 -20 0 -19 -13 4 -34 20 -18 35 -132 32 -247 -2 -61 0 -68 24 -87 15 -12
28 -32 30 -44 2 -13 7 -33 10 -45 11 -34 -64 -107 -140 -138 -43 -17 -61 -21
-64 -12 -6 19 -102 180 -119 200 -8 9 -29 17 -46 17 -35 1 -66 20 -66 42 0 23
-54 68 -82 68 -38 0 -88 -45 -88 -80 0 -16 7 -30 15 -34 8 -3 15 -13 15 -23 0
-17 40 -43 67 -43 10 0 11 -5 5 -17 -5 -10 -7 -24 -5 -31 3 -7 2 -29 -1 -48
-6 -27 -12 -34 -29 -34 -42 0 -49 13 -32 53 18 43 8 47 -25 12 -13 -14 -33
-25 -44 -25 -26 0 -78 -63 -70 -85 4 -8 15 -20 25 -26 11 -6 21 -25 25 -49 4
-22 10 -40 14 -40 9 0 20 35 20 65 1 40 14 48 54 35 40 -13 44 -21 20 -41 -14
-11 -15 -24 -9 -79 5 -36 9 -92 9 -125 1 -58 0 -61 -31 -76 -18 -9 -38 -21
-45 -26 -10 -7 -172 -10 -265 -4 -14 1 -18 169 -7 280 l7 62 44 -7 c43 -6 45
-6 41 17 -2 15 -11 25 -23 27 -62 9 -64 11 -67 55 -2 35 -7 43 -25 45 -21 3
-23 -1 -23 -39 l0 -42 -55 6 c-53 5 -55 5 -55 -18 0 -20 6 -24 50 -30 40 -6
51 -11 56 -29 3 -12 2 -89 -3 -172 l-8 -149 -90 -5 c-104 -6 -155 3 -162 30
-3 11 -13 22 -23 25 -38 12 -34 89 7 136 18 22 43 113 36 138 -3 10 0 28 6 39
8 15 7 23 -3 31 -7 6 -16 8 -19 5 -4 -4 -11 5 -16 20 -12 31 -18 32 -51 9 -13
-10 -34 -17 -45 -18 -15 0 -20 -7 -20 -30 0 -33 -15 -58 -72 -119 -74 -79
-105 -126 -122 -188 l-18 -63 -114 3 c-63 2 -125 3 -139 3 -14 -1 -86 -2 -160
-4 l-135 -2 -9 78 c-9 86 -4 101 49 123 22 9 57 10 135 4 90 -7 108 -6 123 7
10 10 15 24 11 35 -3 11 0 18 7 18 7 0 30 12 52 27 l39 27 -44 21 c-34 16 -44
26 -46 49 l-4 29 46 -7 c45 -7 46 -7 46 21 0 21 8 33 30 46 37 22 38 33 4 41
-24 6 -25 8 -10 25 9 10 16 20 16 23 0 5 -88 28 -168 43 -48 10 -34 29 22 33
45 3 48 5 44 27 -6 29 12 35 76 25 45 -7 47 -6 42 14 -4 16 1 24 17 31 39 17
33 42 -12 50 -22 3 -42 13 -45 21 -4 11 -11 12 -33 3 -15 -5 -38 -7 -51 -4
-13 3 -38 0 -57 -6 -29 -11 -36 -10 -64 11 -30 21 -31 23 -16 40 11 12 14 26
10 39 -6 19 -2 21 30 21 32 0 35 2 29 24 -5 19 -1 24 23 29 17 3 35 17 46 35
24 42 22 45 -22 37 -24 -4 -42 -2 -46 4 -3 6 -22 11 -41 11 -33 0 -104 43
-104 63 0 4 22 7 48 7 38 0 54 6 82 30 l35 29 -27 1 c-18 0 -28 5 -28 15 0 8
-7 15 -15 15 -25 0 -17 17 13 25 15 3 59 31 99 61 250 188 591 353 926 448
207 59 341 84 542 100 223 18 215 18 400 6z m1329 -86 c25 -14 48 -29 50 -33
3 -4 -9 -28 -25 -54 -26 -42 -32 -47 -57 -41 -71 17 -86 51 -51 113 12 23 26
41 30 41 3 0 27 -12 53 -26z m-2934 -34 c33 -17 60 -34 60 -39 0 -13 -55 -33
-81 -29 -26 3 -64 60 -55 83 7 20 7 20 76 -15z m1747 -946 c77 -38 103 -64
103 -99 0 -38 31 -115 55 -133 33 -26 64 -156 66 -278 3 -124 -4 -155 -50
-226 l-36 -57 -90 -2 c-49 -1 -133 -2 -185 -2 l-95 0 -8 39 c-5 21 -10 51 -11
67 -2 15 -4 31 -5 36 0 5 -10 11 -21 14 -12 3 -20 14 -20 26 0 28 -18 27 -29
-2 -9 -24 -46 -39 -127 -52 l-41 -6 5 58 c3 32 13 74 23 93 11 19 19 45 19 57
0 17 7 23 35 29 45 8 146 73 172 110 23 31 31 87 18 118 -6 13 -2 23 13 35 12
9 24 30 28 48 3 18 22 50 40 72 19 21 34 48 34 58 0 43 14 43 107 -3z m869
-226 c64 -74 83 -115 94 -201 15 -117 1 -182 -61 -285 -53 -89 -67 -105 -81
-96 -5 3 -91 6 -193 6 -182 1 -183 1 -177 22 10 29 7 144 -7 320 -9 105 -9
152 -2 159 8 8 11 3 11 -15 0 -14 8 -36 18 -48 15 -18 24 -21 54 -15 34 6 38
11 45 49 9 41 9 41 53 42 31 0 71 13 130 41 47 23 88 42 91 42 3 1 14 -9 25
-21z m274 -21 c0 -24 7 -66 15 -93 8 -27 15 -83 15 -124 0 -59 4 -79 18 -91 9
-9 22 -25 28 -35 11 -18 12 -18 31 -1 25 22 157 31 191 13 17 -9 37 -10 75 -3
53 10 190 12 214 3 9 -4 13 -32 13 -105 0 -121 0 -121 -121 -117 -48 2 -99 -2
-119 -9 -27 -9 -41 -9 -65 0 -30 12 -53 12 -228 1 -60 -4 -86 -3 -82 4 4 6 8
30 10 53 1 23 4 47 6 52 1 6 -3 29 -10 52 -9 34 -9 54 3 103 15 69 11 98 -29
183 -29 62 -28 90 3 133 25 34 32 29 32 -19z"/>
</g>
</svg>
