<?xml version="1.0" standalone="no"?>
<!DOCTYPE svg PUBLIC "-//W3C//DTD SVG 20010904//EN"
 "http://www.w3.org/TR/2001/REC-SVG-20010904/DTD/svg10.dtd">
<svg version="1.0" xmlns="http://www.w3.org/2000/svg"
 width="580.000000pt" height="400.000000pt" viewBox="0 0 580.000000 400.000000"
 preserveAspectRatio="xMidYMid meet">
<metadata>
Created by potrace 1.16, written by Peter Selinger 2001-2019
</metadata>
<g transform="translate(0.000000,400.000000) scale(0.100000,-0.100000)"
fill="#000000" stroke="none">
<path d="M2575 3624 c-228 -17 -680 -88 -925 -144 -69 -16 -141 -31 -160 -34
-37 -6 -179 -50 -315 -96 -172 -59 -225 -72 -268 -65 -55 10 -123 40 -160 71
-16 14 -52 36 -79 50 -41 21 -58 24 -92 19 -106 -18 -158 -74 -164 -177 -5
-87 0 -105 46 -164 75 -94 79 -175 18 -329 -50 -128 -69 -223 -61 -315 8 -102
23 -184 46 -252 19 -57 96 -196 124 -224 16 -16 13 -26 -15 -59 -57 -66 -117
-207 -139 -325 -31 -175 -21 -272 49 -468 22 -63 40 -131 40 -152 0 -47 -23
-114 -54 -154 -45 -59 -56 -93 -56 -165 0 -68 1 -70 43 -114 59 -62 120 -77
202 -48 32 12 76 32 96 46 69 45 186 58 269 29 28 -10 68 -38 107 -75 34 -33
85 -70 115 -84 l53 -25 1609 0 1609 0 56 28 c31 15 82 54 116 89 49 50 73 65
125 83 46 15 77 20 105 16 70 -11 133 -36 162 -65 59 -59 155 -72 234 -33 39
19 51 32 70 75 33 75 30 121 -16 203 -70 126 -68 119 -63 217 4 67 11 106 28
142 30 65 59 220 60 315 1 161 -41 301 -132 444 -41 64 -41 62 12 141 75 110
120 266 120 417 0 86 -32 253 -61 315 -17 36 -23 72 -26 148 l-4 100 52 90
c44 77 51 98 52 145 2 98 -58 167 -161 185 -48 8 -108 -16 -177 -70 -42 -33
-104 -59 -167 -70 -43 -7 -86 5 -377 101 -106 35 -202 64 -213 64 -11 0 -67
13 -126 29 -125 34 -361 78 -494 92 -51 5 -163 19 -248 30 -126 17 -216 22
-485 24 -181 1 -352 1 -380 -1z m403 -168 c35 -13 42 -13 53 0 22 26 37 15 43
-33 4 -27 9 -65 12 -85 5 -33 3 -38 -14 -38 -13 0 -24 12 -34 38 -12 30 -27
44 -69 66 -49 26 -58 27 -94 17 -56 -15 -81 -41 -99 -105 -32 -111 -11 -210
57 -260 23 -17 43 -21 103 -20 67 0 77 3 102 28 24 22 31 25 41 13 26 -32 -99
-91 -193 -91 -68 0 -129 34 -173 98 -32 46 -33 52 -33 141 0 86 2 95 30 133
16 23 53 57 82 77 60 40 115 46 186 21z m-618 -31 c0 -8 -7 -15 -15 -15 -33 0
-37 -41 -21 -205 9 -87 16 -164 16 -172 0 -7 13 -19 28 -27 25 -13 37 -13 101
1 67 15 74 19 94 55 20 34 44 54 54 44 2 -2 -4 -33 -13 -69 -18 -74 -11 -71
-179 -82 -49 -3 -120 -8 -157 -11 -72 -5 -85 3 -42 27 l26 14 -6 100 c-14 228
-33 305 -76 305 -11 0 -20 6 -20 14 0 10 16 16 53 20 28 3 66 8 82 9 65 8 75
7 75 -8z m990 -10 c0 -18 -7 -28 -24 -34 -26 -11 -48 -57 -66 -145 -19 -92 4
-187 51 -212 25 -12 28 -18 19 -34 -11 -20 -11 -20 -49 0 -48 24 -98 83 -111
130 -14 51 -12 132 4 171 20 47 84 116 126 133 47 20 50 20 50 -9z m150 5 c22
0 74 -59 97 -109 31 -68 33 -128 8 -196 -28 -73 -53 -102 -113 -132 -45 -22
-55 -24 -63 -12 -13 21 -12 25 26 53 44 34 75 104 75 170 0 71 -26 153 -57
182 -27 25 -25 61 3 50 9 -3 19 -6 24 -6z m289 -15 l68 -16 22 -74 c11 -40 21
-80 21 -89 0 -9 12 -59 27 -111 29 -103 28 -103 75 -38 13 18 50 70 82 115 33
46 69 93 81 105 l22 23 71 -18 c74 -18 98 -42 41 -42 -43 0 -48 -12 -105 -302
-14 -71 -15 -90 -4 -103 7 -8 19 -15 26 -15 8 0 14 -7 14 -15 0 -18 -15 -16
-148 11 -46 10 -72 20 -69 27 2 7 13 11 25 9 29 -4 56 42 71 121 7 34 18 91
26 127 7 36 12 66 11 67 -1 2 -16 -16 -32 -38 -16 -23 -36 -49 -44 -58 -9 -9
-44 -56 -79 -103 -34 -48 -69 -92 -77 -99 -21 -17 -29 -2 -44 80 -7 36 -23
107 -36 156 -13 50 -24 101 -25 115 -1 34 -27 -60 -34 -125 -3 -28 -10 -66
-15 -85 -16 -55 -12 -75 15 -90 14 -7 25 -19 25 -27 0 -17 21 -20 -167 22 -35
8 -28 32 8 32 17 0 35 6 39 13 12 19 55 206 70 301 13 82 10 99 -20 99 -21 0
-34 15 -25 30 8 13 3 13 84 -5z m-1765 -37 c9 -34 7 -88 -3 -88 -5 0 -15 10
-24 23 -13 19 -23 22 -78 21 -127 -1 -142 -17 -111 -119 21 -67 16 -65 110
-38 46 13 54 19 59 44 3 16 12 29 19 29 14 0 28 -44 39 -122 5 -41 4 -48 -10
-48 -9 0 -19 9 -22 20 -7 27 -41 34 -111 23 -48 -7 -57 -11 -55 -28 1 -11 5
-44 8 -73 9 -88 17 -96 85 -89 84 9 126 32 151 84 29 60 54 58 45 -3 -3 -26
-6 -55 -6 -64 0 -14 -16 -22 -67 -34 -38 -8 -86 -18 -108 -20 -22 -3 -77 -15
-123 -26 -46 -11 -85 -20 -88 -20 -12 0 -1 24 21 46 30 29 29 19 9 119 -53
278 -56 285 -95 285 -26 0 -47 15 -36 26 2 3 44 12 93 21 49 8 130 23 179 33
117 23 112 23 119 -2z m-434 -75 c0 -4 -9 -16 -19 -27 -18 -19 -21 -46 -31
-251 -10 -215 -20 -276 -36 -229 -4 10 -16 28 -29 39 -12 11 -48 53 -80 94
-70 87 -68 89 -79 -93 -3 -66 -9 -122 -12 -125 -4 -3 -15 5 -25 19 -10 14 -53
70 -94 125 -42 55 -97 128 -122 163 -37 49 -52 62 -74 62 -31 0 -60 27 -38 34
8 2 47 16 88 30 57 20 77 23 82 14 5 -8 2 -16 -6 -21 -26 -14 -17 -34 45 -106
33 -39 60 -74 60 -79 0 -5 11 -17 24 -26 l24 -15 7 84 c7 81 6 85 -20 119 -27
36 -64 54 -84 42 -5 -4 -13 -1 -17 5 -3 6 0 15 7 20 29 18 170 61 184 55 23
-8 18 -23 -10 -30 -29 -7 -31 -18 -10 -43 8 -10 48 -62 89 -115 l73 -97 7 46
c3 25 6 93 6 151 l0 105 -30 -6 c-32 -7 -47 5 -27 22 13 10 108 39 135 40 6 1
12 -2 12 -6z m2980 -90 c36 -13 99 -35 140 -49 107 -34 105 -31 76 -95 l-24
-54 -12 30 c-7 17 -16 37 -20 45 -12 24 -63 49 -113 56 l-47 7 -21 -49 c-33
-79 -35 -101 -8 -108 13 -4 41 -12 62 -18 38 -11 56 -7 99 24 23 16 31 6 19
-23 -5 -13 -19 -50 -31 -81 -24 -62 -50 -77 -50 -29 0 40 -26 66 -84 85 -59
19 -56 19 -56 5 0 -5 -8 -29 -19 -52 -10 -23 -22 -61 -26 -83 -6 -42 -6 -42
32 -54 21 -7 43 -16 48 -20 6 -4 35 -8 66 -9 51 -2 60 1 83 26 17 18 29 24 36
17 7 -7 -2 -29 -26 -68 -28 -44 -40 -56 -53 -50 -19 9 -178 66 -278 101 -56
19 -73 29 -73 44 0 15 5 17 28 13 31 -6 28 -11 81 115 17 40 31 79 31 86 0 7
13 45 30 83 29 69 31 102 5 102 -16 0 -37 25 -28 34 9 9 55 -1 133 -31z
m-1375 -393 c232 -13 365 -27 495 -50 63 -11 149 -25 190 -30 72 -8 266 -55
339 -81 76 -27 216 -105 219 -121 2 -13 -3 -18 -17 -18 -18 0 -20 -5 -16 -30
4 -23 2 -30 -11 -30 -8 0 -14 -6 -11 -12 2 -7 -5 -18 -17 -25 -12 -7 -15 -12
-8 -13 7 0 11 -4 8 -9 -3 -5 1 -12 9 -15 26 -10 -1 -49 -28 -42 -12 3 -32 3
-44 0 -18 -5 -20 -9 -10 -18 7 -7 20 -15 30 -19 9 -3 17 -16 17 -27 0 -11 4
-20 8 -20 5 0 14 -12 21 -26 11 -26 11 -26 -21 -20 -18 3 -40 1 -48 -4 -12 -8
-12 -10 -1 -10 8 0 12 -3 8 -6 -9 -9 19 -34 37 -34 9 0 16 -4 16 -10 0 -5 9
-10 20 -10 23 0 26 -13 7 -29 -9 -7 -24 -8 -47 -1 -23 7 -38 6 -44 0 -7 -7
-16 -3 -28 12 -15 19 -18 20 -18 6 0 -10 -8 -18 -17 -18 -17 -1 -17 -1 0 -11
9 -6 15 -14 12 -20 -4 -5 3 -9 14 -9 12 0 21 -4 21 -10 0 -5 -5 -10 -11 -10
-5 0 -7 -4 -4 -10 3 -5 -2 -10 -12 -10 -15 0 -16 -2 -3 -10 8 -5 33 -10 54
-10 l39 0 -27 -25 c-16 -15 -39 -25 -57 -25 -16 0 -29 -5 -29 -11 0 -6 -9 -9
-19 -6 -14 3 -18 1 -14 -9 3 -8 16 -14 29 -14 17 0 22 -4 18 -15 -4 -10 0 -15
12 -15 15 0 19 -8 20 -34 0 -38 -26 -62 -54 -48 -19 10 -68 9 -79 -1 -3 -4
-16 -7 -27 -7 -17 0 -18 -2 -6 -10 8 -6 32 -15 53 -20 20 -6 37 -15 37 -20 0
-6 9 -10 20 -10 11 0 20 -2 20 -4 0 -2 2 -11 5 -18 4 -11 -9 -18 -50 -27 -33
-8 -53 -17 -49 -23 4 -6 1 -14 -7 -18 -15 -10 -21 -40 -8 -40 5 0 9 -4 9 -10
0 -5 -7 -10 -15 -10 -8 0 -15 -9 -15 -20 0 -11 -6 -20 -12 -21 -10 0 -10 -2 0
-6 6 -2 9 -10 6 -15 -5 -8 5 -9 29 -5 23 3 47 1 63 -8 l25 -13 -27 -25 -26
-25 30 -7 c20 -4 39 -1 54 8 32 20 117 30 134 16 9 -8 14 -35 14 -81 l0 -69
-322 3 -323 3 -2 79 c-1 44 2 87 7 97 7 12 4 34 -12 74 -20 54 -21 57 -4 92
20 41 28 38 32 -15 8 -128 24 -182 53 -182 13 0 32 35 24 44 -7 6 -17 148 -15
216 1 25 -1 55 -3 67 -10 43 -162 125 -225 121 -39 -3 -60 3 -60 17 0 23 -16
18 -34 -10 -24 -36 -67 -34 -99 5 -14 17 -34 30 -44 30 -11 0 -14 -3 -7 -8 7
-4 8 -15 3 -29 -9 -25 -10 -25 -234 -2 -55 6 -116 11 -135 12 -19 2 -41 6 -47
10 -8 5 -13 3 -13 -3 0 -7 -6 -10 -14 -7 -11 4 -12 -2 -5 -31 4 -19 4 -43 0
-51 -5 -9 -12 -34 -15 -57 -6 -31 -3 -44 8 -54 9 -7 16 -9 16 -5 0 4 7 2 15
-5 12 -10 15 -9 15 6 0 11 18 34 40 52 l40 33 49 -21 c72 -32 99 -65 127 -161
27 -95 33 -219 11 -241 -8 -7 -18 -27 -24 -43 -9 -27 -14 -30 -49 -28 -21 0
-64 1 -94 2 -30 0 -84 1 -120 2 -86 2 -130 2 -160 0 -14 -1 -47 0 -75 2 -27 2
-58 0 -67 -5 -29 -14 -48 1 -48 38 0 33 1 34 41 34 l42 0 -7 211 c-4 116 -4
272 0 347 6 123 9 134 20 107 11 -27 13 -28 19 -10 4 11 11 28 16 38 10 19 -2
52 -22 59 -20 7 -69 -4 -63 -13 3 -5 -6 -9 -20 -9 -25 0 -26 3 -26 54 0 53 1
55 35 66 19 6 35 15 35 20 0 19 -139 -12 -319 -70 -68 -22 -149 -44 -180 -50
-31 -6 -83 -18 -116 -28 l-60 -18 0 -355 c-1 -195 -2 -371 -3 -391 l-2 -38
-243 0 c-176 0 -246 3 -255 12 -7 7 -12 38 -12 70 0 45 4 59 18 67 23 12 100
3 127 -15 22 -16 44 -18 64 -5 11 7 8 14 -15 35 -27 24 -28 25 -7 26 12 0 25
5 28 10 4 6 21 8 39 4 25 -4 35 -2 39 10 3 8 2 18 -4 21 -5 4 -7 10 -4 15 3 5
-2 13 -11 18 -13 7 -14 13 -5 30 9 18 8 23 -9 32 -11 6 -18 15 -15 20 3 4 -18
13 -46 20 -37 9 -49 16 -47 29 2 8 12 17 22 19 11 2 26 11 34 19 10 10 25 13
44 9 20 -4 27 -2 22 5 -4 6 0 15 7 20 10 6 8 9 -8 9 -13 0 -23 3 -23 8 0 11
-53 12 -67 0 -8 -6 -22 -4 -43 7 -25 13 -29 19 -20 30 7 8 10 22 6 30 -4 10 1
15 14 15 11 0 20 7 20 15 0 8 9 15 19 15 19 0 38 17 29 25 -2 3 -26 7 -52 10
-33 4 -54 13 -67 28 -17 22 -17 22 19 25 20 2 42 8 47 14 7 8 6 9 -2 4 -8 -4
-13 -1 -13 8 0 8 -8 17 -17 19 -16 4 -16 6 2 12 23 7 52 45 35 45 -5 0 -10 10
-10 23 l0 22 -18 -23 c-11 -14 -24 -21 -33 -17 -9 3 -28 1 -44 -5 -22 -8 -30
-8 -37 2 -12 21 -10 25 25 41 17 9 40 25 50 37 15 18 15 21 2 26 -8 4 -26 3
-40 0 -22 -6 -25 -3 -23 18 1 15 10 27 23 30 17 5 18 8 5 16 -13 9 -13 11 0
20 8 5 21 8 28 5 6 -2 12 2 12 10 0 8 6 15 13 16 6 0 1 5 -13 11 -28 13 -28
13 -57 4 -27 -9 -35 19 -15 51 12 20 12 24 -1 29 -9 3 -13 12 -10 20 3 9 -2
14 -16 14 -22 0 -30 19 -8 21 9 0 9 2 -1 6 -6 2 -9 9 -6 15 3 5 -2 15 -11 22
-28 20 -15 59 25 78 86 41 178 78 194 78 10 0 55 11 100 25 44 13 122 29 173
35 50 5 97 12 105 15 31 11 202 36 313 46 307 28 581 34 840 19z m-1809 -301
c16 -17 16 -22 4 -29 -10 -7 -11 -10 -2 -10 6 0 12 -9 12 -21 0 -15 -5 -19
-15 -15 -9 3 -15 0 -15 -9 0 -8 -7 -15 -15 -15 -12 0 -14 -4 -5 -19 8 -16 6
-23 -10 -34 -16 -11 -19 -21 -14 -46 7 -31 6 -32 -14 -20 -17 10 -23 10 -36
-4 -15 -14 -14 -16 6 -22 25 -8 58 -34 58 -45 0 -13 -37 -18 -79 -10 -35 6
-41 5 -41 -10 0 -9 11 -22 25 -28 14 -6 25 -18 25 -27 0 -8 8 -15 19 -15 10 0
24 -6 30 -13 16 -20 -32 -41 -59 -27 -10 5 -35 10 -56 10 -31 0 -35 -2 -24
-15 7 -8 9 -15 4 -15 -22 -1 24 -20 46 -20 26 0 50 -16 50 -33 0 -5 -21 -8
-47 -6 -27 1 -55 -2 -64 -5 -19 -8 -21 -36 -3 -36 20 0 35 -35 22 -48 -8 -8
-6 -13 8 -17 10 -4 30 -11 44 -17 l25 -10 -25 -13 c-14 -8 -35 -11 -47 -9 -20
6 -73 -21 -73 -36 0 -4 20 -13 44 -19 25 -6 47 -15 51 -20 7 -12 -31 -34 -44
-27 -13 8 -61 -17 -61 -33 0 -8 6 -11 15 -7 8 3 26 1 39 -6 21 -9 23 -13 13
-29 -7 -11 -21 -19 -33 -19 -21 0 -33 -14 -30 -35 0 -5 11 -8 23 -7 12 2 30
-1 40 -7 16 -9 15 -11 -10 -20 -16 -6 -32 -11 -37 -11 -5 0 -7 -7 -4 -15 4 -9
1 -15 -7 -15 -10 0 -10 -3 -1 -12 8 -8 6 -16 -9 -29 l-21 -18 25 -6 c14 -4 33
-6 43 -5 11 1 24 1 29 0 6 -1 51 -3 100 -4 l90 -1 3 -82 3 -83 -237 0 -237 0
-64 32 c-113 56 -183 158 -183 268 0 61 20 125 75 242 110 237 290 454 490
590 33 23 73 52 88 65 35 28 49 29 73 2z m3155 -31 c22 -12 39 -25 39 -29 0
-4 19 -18 43 -32 42 -25 162 -144 272 -272 59 -68 185 -262 185 -285 0 -6 14
-41 32 -78 40 -84 51 -206 23 -274 -23 -59 -87 -131 -137 -156 -80 -39 -116
-43 -318 -40 l-194 3 2 69 c1 38 7 75 13 83 14 16 98 17 133 2 20 -9 29 -9 42
2 9 7 33 12 54 10 21 -1 41 2 45 8 3 6 -1 11 -9 11 -9 0 -17 6 -17 13 -1 6 -2
17 -4 22 -1 6 -3 17 -3 27 -1 9 -17 21 -34 28 -29 10 -31 12 -15 21 10 6 29 9
42 7 13 -2 24 2 23 7 -2 24 -12 35 -33 35 -30 0 -53 26 -36 43 6 6 24 12 39
13 15 1 29 3 31 3 2 1 -4 10 -14 21 -12 13 -25 18 -40 14 -13 -3 -33 0 -46 6
-22 12 -22 13 -4 26 10 8 31 14 46 14 38 0 47 19 19 42 -15 12 -32 17 -49 13
-37 -7 -59 8 -42 29 8 9 21 16 31 16 24 0 32 11 19 26 -8 10 -3 20 21 42 l31
29 -32 7 c-17 3 -49 6 -70 6 -42 0 -42 0 -33 24 4 10 18 16 38 16 36 0 50 8
54 33 2 13 -4 17 -27 17 -16 0 -40 -4 -53 -9 -16 -6 -32 -5 -47 3 -20 11 -20
14 -7 25 8 7 20 10 25 7 6 -4 17 7 26 24 8 16 21 30 28 30 7 0 13 8 13 18 0
16 -5 18 -41 11 -36 -7 -85 -3 -85 7 0 2 9 13 21 25 15 15 28 19 46 14 15 -3
22 -2 19 4 -3 5 0 12 6 14 8 4 7 6 -4 6 -9 1 -18 7 -21 14 -3 9 -7 9 -19 -1
-21 -17 -31 -1 -19 30 7 20 4 25 -22 36 -29 12 -29 13 -12 32 15 17 16 20 3
20 -9 0 -19 7 -22 16 -3 8 -10 13 -15 9 -19 -11 -24 18 -6 32 11 7 13 13 6 13
-7 0 -9 5 -6 10 9 15 23 12 66 -12z m-917 -823 c27 -28 46 -94 46 -153 0 -46
-24 -120 -44 -136 -8 -6 -16 -20 -18 -31 -3 -19 -11 -20 -122 -20 l-119 0 -4
100 c-9 208 -9 210 7 210 10 0 14 -8 12 -22 -3 -19 2 -23 22 -23 21 0 26 5 26
25 0 21 5 25 28 25 15 0 49 11 76 25 61 31 62 31 90 0z m-314 -98 c0 -23 8
-64 17 -90 17 -47 17 -48 -7 -93 -29 -52 -45 -68 -60 -59 -12 8 -14 62 -1 69
4 3 11 47 15 98 4 51 9 101 12 111 9 30 24 8 24 -36z m402 -209 c-6 -23 -14
-33 -28 -33 -24 0 -22 30 9 104 l22 55 3 -46 c2 -26 -1 -61 -6 -80z"/>
</g>
</svg>
