<?xml version="1.0" standalone="no"?>
<!DOCTYPE svg PUBLIC "-//W3C//DTD SVG 20010904//EN"
 "http://www.w3.org/TR/2001/REC-SVG-20010904/DTD/svg10.dtd">
<svg version="1.0" xmlns="http://www.w3.org/2000/svg"
 width="580.000000pt" height="400.000000pt" viewBox="0 0 580.000000 400.000000"
 preserveAspectRatio="xMidYMid meet">
<metadata>
Created by potrace 1.16, written by Peter Selinger 2001-2019
</metadata>
<g transform="translate(0.000000,400.000000) scale(0.100000,-0.100000)"
fill="#000000" stroke="none">
<path d="M2865 3489 c-45 -17 -81 -55 -106 -112 -18 -43 -21 -63 -16 -119 5
-59 4 -67 -11 -66 -38 3 -52 -3 -52 -21 0 -35 -53 -68 -120 -76 -35 -4 -66 -3
-71 2 -16 16 -54 281 -45 317 3 14 15 28 26 31 24 8 27 35 3 35 -9 0 -54 -5
-99 -12 -60 -9 -81 -15 -77 -25 3 -7 11 -13 19 -13 25 0 42 -44 54 -145 7 -55
15 -121 20 -147 4 -25 3 -53 -1 -61 -11 -19 -88 -59 -100 -52 -5 4 -9 29 -9
56 0 46 -2 50 -22 47 -16 -2 -24 -12 -29 -37 -4 -19 -17 -42 -30 -52 -25 -18
-129 -50 -141 -43 -11 7 -49 135 -43 145 7 10 72 29 103 29 14 0 26 -9 33 -24
7 -15 17 -22 29 -19 16 4 16 9 -3 84 -16 64 -23 79 -38 79 -14 0 -19 -7 -19
-25 0 -30 -35 -55 -87 -62 l-39 -5 -16 51 c-18 58 -12 72 41 90 53 17 98 14
114 -9 17 -24 52 -17 42 9 -4 9 -9 28 -12 44 -3 15 -9 30 -14 32 -6 4 -129
-27 -322 -82 -24 -7 -17 -38 8 -39 39 -2 43 -4 48 -26 3 -13 21 -77 41 -143
41 -139 45 -175 17 -182 -11 -3 -21 -13 -24 -22 -5 -20 -117 -65 -130 -52 -4
4 -20 92 -35 194 -25 182 -25 187 -7 207 13 15 15 24 8 31 -8 8 -28 2 -72 -21
-65 -35 -74 -55 -25 -55 28 0 29 -2 35 -60 11 -104 10 -155 -3 -155 -17 1
-158 132 -158 147 0 6 9 15 20 18 23 7 26 23 6 31 -15 6 -176 -75 -176 -88 0
-5 -4 -7 -10 -3 -15 9 -169 -76 -163 -91 3 -9 15 -11 34 -7 27 5 41 -6 170
-134 l142 -140 -146 -96 c-81 -54 -151 -97 -157 -97 -6 0 -20 9 -31 19 -17 16
-19 23 -9 41 10 19 9 21 -12 19 -30 -3 -86 21 -93 40 -7 18 34 79 58 87 14 4
16 9 7 19 -7 8 -9 22 -6 32 5 15 1 19 -21 18 -23 0 -28 5 -35 40 -7 32 -6 42
8 52 16 12 14 14 -14 24 -18 6 -32 13 -32 16 0 3 12 28 27 55 27 50 26 58 -11
71 -5 2 -3 13 3 26 11 20 10 26 -8 45 -14 15 -19 29 -15 41 7 16 3 17 -29 12
-33 -5 -39 -2 -59 26 -12 18 -23 34 -24 36 -2 2 -15 -11 -29 -28 -20 -24 -35
-31 -61 -31 -35 0 -38 -4 -34 -53 1 -24 -2 -28 -17 -23 -10 2 -36 8 -58 12
l-40 6 37 -39 c38 -39 46 -53 29 -53 -5 0 -22 -5 -38 -11 l-28 -11 47 -24 c27
-13 48 -27 48 -30 0 -20 -26 -43 -65 -58 -25 -10 -45 -19 -45 -21 0 -2 5 -16
12 -31 11 -23 10 -28 -7 -40 -10 -8 -17 -15 -14 -16 2 -2 13 -8 24 -14 13 -8
19 -19 16 -35 -4 -28 -17 -38 -51 -40 l-25 0 23 -11 c12 -6 22 -19 22 -30 0
-14 8 -18 40 -18 42 0 48 -6 27 -32 -10 -13 -22 -14 -62 -8 -27 4 -59 11 -69
15 -16 7 -18 5 -12 -11 9 -20 9 -26 4 -59 -2 -13 4 -20 17 -23 38 -6 63 -25
70 -50 8 -32 -7 -41 -65 -43 -25 -1 -58 -4 -74 -8 -26 -5 -28 -7 -12 -20 15
-13 15 -15 -1 -27 -17 -12 -17 -13 2 -20 11 -4 35 -13 54 -20 18 -8 46 -14 61
-14 23 0 40 -15 40 -36 0 -8 -85 -4 -117 5 -23 7 -33 6 -37 -4 -2 -7 -19 -16
-36 -20 -29 -6 -30 -8 -16 -24 9 -10 16 -25 16 -34 0 -12 8 -17 25 -17 33 0
45 -28 20 -46 -18 -13 -18 -14 0 -34 10 -11 28 -20 40 -20 11 0 30 -7 41 -15
19 -15 19 -15 0 -30 -12 -9 -28 -12 -40 -8 -12 4 -30 6 -41 5 -11 -1 -37 -2
-57 -2 -34 0 -37 -2 -36 -27 1 -16 -2 -36 -6 -45 -6 -14 -3 -18 12 -18 11 0
25 -7 32 -15 8 -9 30 -15 56 -15 32 0 44 -4 44 -15 0 -8 -8 -16 -17 -17 -10 0
-31 -2 -48 -3 -16 -2 -47 -9 -67 -16 -33 -12 -36 -17 -31 -39 9 -39 13 -42 44
-36 16 3 40 1 54 -4 22 -9 24 -12 13 -30 -9 -14 -24 -20 -50 -20 -31 0 -38 -4
-38 -20 0 -10 -9 -24 -21 -30 -19 -11 -20 -13 -4 -30 14 -15 21 -17 40 -8 25
11 55 5 55 -12 0 -5 -16 -16 -35 -24 -23 -10 -33 -20 -29 -29 3 -9 -4 -22 -18
-31 -17 -12 -20 -19 -10 -25 17 -10 5 -39 -19 -46 -23 -8 -17 -21 23 -45 24
-14 37 -16 70 -9 30 7 47 6 70 -6 39 -19 72 -19 88 0 9 10 31 13 89 11 42 -1
82 -5 89 -10 8 -5 12 -37 12 -98 0 -75 -3 -93 -17 -104 -13 -10 -64 -13 -196
-14 -196 0 -223 -6 -246 -57 -20 -44 -16 -564 5 -604 33 -65 -147 -60 2438
-66 1763 -4 2361 -3 2393 6 23 6 56 25 72 42 l31 31 0 283 c0 187 -4 292 -11
308 -19 41 -48 47 -233 47 -127 0 -176 3 -184 13 -5 6 -13 49 -16 94 -7 74 -6
83 12 92 11 6 35 8 54 5 19 -4 44 -1 56 5 19 10 63 2 125 -24 13 -5 17 -2 17
14 0 12 7 24 15 27 8 4 15 14 15 23 0 26 54 45 91 32 39 -13 80 -5 72 15 -3 8
4 17 18 22 l23 9 -22 12 c-12 6 -22 20 -22 31 0 10 -9 22 -20 25 -21 7 -28 25
-9 25 6 0 8 7 5 16 -4 9 -1 23 5 30 9 11 5 16 -15 25 -28 13 -34 34 -13 42 16
6 -34 26 -86 33 -74 10 -87 14 -87 29 0 8 11 22 25 31 21 14 31 15 50 6 24
-11 25 -10 25 21 0 18 7 42 15 53 22 29 18 37 -14 31 -19 -4 -33 -1 -41 8 -7
8 -23 12 -43 9 -42 -6 -73 17 -58 44 5 10 7 28 4 40 -5 20 -1 22 30 22 30 0
34 3 30 20 -4 13 0 20 9 20 14 0 68 50 68 64 0 4 -16 4 -36 0 -27 -5 -38 -3
-48 11 -9 12 -20 16 -36 12 -24 -6 -80 25 -80 44 0 5 17 9 38 9 25 0 49 10 76
30 l40 30 -32 0 c-25 0 -30 4 -29 20 1 13 8 20 21 20 18 0 18 1 2 19 -17 18
-16 20 3 26 27 8 27 35 1 35 -16 0 -20 7 -20 38 l-1 37 -34 -37 c-41 -44 -61
-48 -76 -14 -14 30 -4 76 16 76 8 0 15 9 15 19 0 14 8 21 28 23 23 3 20 6 -25
20 -93 30 -117 52 -68 64 21 5 23 9 14 26 -17 32 -5 50 26 38 35 -13 35 -13
35 14 0 16 7 27 21 31 17 6 19 9 8 16 -8 5 -23 9 -34 9 -28 1 -71 40 -79 71
-5 22 -2 28 17 34 21 6 20 7 -10 21 -39 17 -40 26 -11 81 l23 43 -23 16 c-21
15 -22 18 -8 38 13 20 12 24 -6 35 -14 9 -19 20 -15 38 4 24 3 25 -34 19 -37
-6 -41 -4 -61 30 l-21 37 -26 -32 c-21 -25 -33 -31 -65 -31 l-39 0 7 -41 c5
-33 4 -40 -7 -36 -8 3 -36 9 -63 12 l-49 7 40 -41 c33 -35 37 -43 25 -51 -8
-5 -23 -10 -32 -10 -30 0 -20 -16 22 -35 60 -27 54 -62 -18 -90 -45 -18 -48
-25 -31 -57 10 -18 8 -24 -7 -35 -15 -11 -16 -15 -5 -22 9 -6 11 -18 6 -39 -5
-26 -13 -33 -42 -38 -35 -7 -35 -7 -16 -23 13 -10 21 -28 21 -48 1 -36 -9 -40
-52 -23 -24 9 -26 8 -26 -20 0 -17 -4 -30 -9 -30 -5 0 -11 -9 -14 -21 -6 -21
-6 -21 -41 6 -20 15 -36 33 -36 39 0 6 18 26 40 43 34 25 38 32 26 42 -11 10
-21 9 -45 -3 -41 -22 -64 -20 -119 8 -91 47 -90 44 -46 112 21 32 39 61 41 63
7 10 59 -14 85 -39 21 -22 27 -35 23 -53 -4 -16 -2 -26 8 -30 9 -3 26 15 50
57 21 35 37 68 37 74 0 15 -26 16 -35 2 -11 -18 -60 -10 -98 15 -20 14 -37 29
-37 32 0 19 65 103 79 103 9 0 38 -13 64 -30 40 -25 48 -35 53 -70 4 -22 10
-43 14 -45 7 -4 60 75 60 89 0 3 -33 24 -72 47 -40 23 -106 62 -145 86 -80 47
-88 50 -97 28 -3 -8 -1 -15 4 -15 5 0 14 -8 19 -18 8 -15 -7 -47 -72 -158
l-82 -139 -43 -3 c-36 -3 -47 1 -74 29 l-32 31 34 96 c18 53 45 126 60 162 25
61 29 65 58 64 46 -2 49 23 5 41 -19 8 -41 15 -49 15 -7 0 -16 5 -19 10 -15
25 -48 3 -145 -95 -57 -58 -106 -105 -110 -105 -12 0 -21 53 -46 276 l-5 41
-69 20 c-59 18 -70 18 -70 6 0 -8 10 -23 22 -33 l23 -18 -39 -114 c-65 -190
-74 -208 -107 -208 -16 0 -38 -6 -49 -12 -14 -9 -23 -9 -30 -2 -8 8 0 23 28
52 50 52 83 119 84 169 0 53 -37 137 -77 172 -69 60 -164 65 -249 14 -95 -57
-130 -197 -74 -294 35 -60 27 -73 -41 -64 -28 4 -54 11 -57 17 -3 5 4 20 17
34 16 17 20 27 12 35 -8 8 -20 5 -41 -11 -41 -30 -115 -36 -162 -13 -19 10
-45 36 -58 58 -19 34 -22 50 -19 107 8 120 76 183 169 157 40 -11 78 -54 78
-88 0 -14 6 -21 20 -21 19 0 21 5 18 75 l-3 74 -35 -1 c-19 0 -66 2 -105 6
-42 3 -82 1 -100 -5z m553 -85 c41 -28 65 -91 59 -154 -10 -115 -73 -191 -146
-175 -68 15 -102 89 -86 188 9 52 49 132 72 146 27 15 76 13 101 -5z m304
-305 c4 -41 9 -85 12 -99 9 -48 -8 -57 -53 -27 -47 31 -51 51 -23 124 11 26
22 56 25 66 14 39 32 9 39 -64z m-2245 -16 c26 -23 33 -38 38 -86 10 -86 -10
-87 -96 -1 -38 38 -69 71 -69 75 0 9 61 38 80 39 9 0 30 -12 47 -27z m2515 2
c8 -8 -32 -148 -47 -165 -12 -13 -26 -15 -92 -11 -24 2 -13 23 50 102 57 72
76 87 89 74z m-2330 -170 c35 -30 63 -61 63 -68 0 -10 -115 -80 -122 -73 -6 6
-31 182 -26 189 9 14 22 6 85 -48z m1553 4 c198 -26 483 -97 638 -160 144 -57
374 -179 495 -262 99 -68 118 -87 87 -87 -32 0 -13 -28 29 -44 25 -9 50 -24
58 -33 12 -15 8 -16 -32 -11 -31 3 -50 1 -58 -8 -7 -8 -24 -14 -37 -14 -28 0
-32 -12 -11 -29 7 -6 11 -22 8 -36 -4 -23 -2 -25 27 -19 24 5 32 2 37 -11 5
-11 1 -21 -9 -27 -10 -5 -17 -12 -17 -17 0 -14 41 -51 51 -45 17 10 59 -5 59
-21 0 -18 4 -18 -104 -20 l-88 -2 -2 -46 c-1 -38 1 -47 15 -47 9 0 22 -7 29
-15 8 -9 30 -15 56 -15 24 0 44 -5 44 -10 0 -13 -48 -32 -61 -24 -11 7 -101
-26 -112 -40 -5 -7 -11 -5 -18 7 -21 36 -108 116 -131 121 -13 2 -70 9 -128
15 -127 12 -287 31 -317 37 -15 3 -29 19 -42 50 -24 53 -14 82 30 91 68 13
125 121 85 161 -14 14 -19 14 -55 -2 -21 -10 -54 -33 -72 -52 -31 -32 -37 -34
-99 -34 -61 0 -69 3 -119 41 -41 30 -62 39 -85 37 -25 -2 -32 -8 -34 -30 -2
-15 6 -47 16 -72 16 -36 27 -46 55 -54 50 -14 73 -42 80 -98 4 -27 10 -65 13
-84 7 -36 66 -133 114 -185 15 -16 31 -43 34 -60 8 -33 57 -115 68 -115 20 0
43 -74 60 -190 15 -106 14 -151 -3 -185 l-14 -30 -562 -3 -562 -2 -15 22 c-19
29 -32 92 -41 193 -7 75 -9 82 -46 118 -46 46 -49 64 -12 78 16 6 35 16 43 24
8 7 40 18 71 24 45 10 64 20 99 56 24 25 53 45 64 45 11 0 53 -16 94 -37 61
-30 78 -35 100 -27 21 7 26 16 25 34 -2 14 -7 63 -12 110 -5 47 -8 87 -6 88 2
2 41 5 87 6 93 3 136 20 180 70 30 34 35 58 15 75 -11 8 -19 5 -37 -14 -13
-14 -32 -25 -43 -25 -10 0 -32 -11 -49 -25 -32 -27 -45 -30 -67 -16 -12 8 -9
21 20 77 30 61 39 69 79 83 33 12 46 23 48 39 3 18 -1 22 -22 22 -29 0 -32 11
-15 59 13 37 5 81 -15 81 -24 0 -44 -28 -61 -86 -21 -72 -71 -153 -103 -165
-37 -14 -39 -3 -4 26 38 32 33 55 -12 55 -22 0 -46 -12 -80 -40 -68 -57 -91
-52 -66 15 9 24 49 65 133 136 19 16 26 30 22 41 -9 22 -42 29 -56 11 -7 -8
-29 -23 -48 -33 l-36 -18 4 44 c4 51 -17 68 -49 39 -15 -13 -20 -31 -20 -69
-1 -28 -7 -77 -15 -109 -8 -34 -11 -80 -8 -112 6 -52 5 -55 -21 -65 -44 -16
-138 -12 -202 11 -32 11 -74 25 -92 31 -24 9 -52 8 -113 -1 -47 -8 -101 -11
-132 -6 -165 22 -399 -5 -504 -59 -114 -58 -157 -156 -117 -272 19 -55 15 -68
-28 -94 -39 -24 -71 -26 -88 -5 -11 13 -10 18 5 29 18 13 17 14 -13 21 -31 6
-44 29 -20 37 25 9 -4 26 -64 37 -35 7 -73 14 -85 17 -15 3 -20 9 -16 20 4 12
14 14 46 9 39 -7 40 -7 33 18 -7 31 9 39 69 30 41 -5 43 -4 38 15 -3 14 2 24
16 31 32 17 27 41 -9 41 -16 0 -33 7 -38 15 -7 13 -14 14 -36 5 -16 -6 -36 -8
-46 -5 -10 3 -30 1 -45 -5 -21 -8 -33 -6 -56 7 -33 20 -35 26 -14 43 11 9 12
17 4 31 -9 17 -6 19 26 19 33 0 35 2 29 25 -5 21 -3 25 16 25 23 0 59 35 60
58 0 10 -8 12 -31 7 -22 -5 -36 -2 -49 10 -13 11 -28 15 -43 11 -17 -4 -33 1
-51 15 -35 28 -33 39 9 39 33 0 105 36 105 53 0 4 -11 7 -25 7 -43 0 -28 32
33 73 31 21 89 59 127 86 232 162 506 282 855 374 101 27 297 55 420 61 116 5
396 -3 485 -15z m1130 -1099 c4 -6 12 -6 24 2 10 6 30 8 44 4 49 -12 26 -56
-29 -56 -49 0 -53 -28 -10 -66 20 -17 36 -34 36 -37 0 -3 -13 -10 -30 -16 -22
-7 -30 -16 -30 -34 0 -20 -32 -47 -55 -47 -10 0 -4 80 12 167 17 89 24 105 38
83z m-2193 -213 c4 -6 8 -26 8 -43 0 -18 9 -51 20 -75 11 -24 20 -63 20 -86 0
-23 5 -65 11 -94 9 -42 9 -53 -2 -60 -8 -5 -87 -9 -176 -9 -134 0 -164 3 -177
16 -9 8 -16 22 -16 30 0 8 -4 14 -10 14 -5 0 -14 19 -21 43 -6 23 -20 58 -31
77 -13 25 -18 50 -16 80 3 44 4 45 43 53 22 5 66 21 98 36 48 22 75 27 150 29
63 1 93 -2 99 -11z m1949 -24 c10 -19 14 -63 14 -152 0 -116 -2 -129 -23 -158
-19 -28 -30 -33 -62 -33 -51 0 -90 37 -59 56 7 4 9 26 5 63 -4 32 -3 61 1 65
4 4 9 23 9 43 3 56 14 116 26 130 6 7 25 13 43 13 24 0 35 -6 46 -27z m-1771
-4 c17 -30 70 -75 112 -95 32 -14 39 -24 58 -83 11 -36 22 -86 23 -111 l2 -45
-100 -3 c-70 -2 -106 1 -118 10 -19 15 -22 47 -19 226 2 99 5 122 17 122 8 0
19 -9 25 -21z m1573 -17 c8 -39 -4 -274 -15 -294 -16 -32 -46 -19 -38 17 1 5
4 75 6 154 3 80 8 149 10 153 9 14 32 -4 37 -30z m-2236 -94 c23 -46 45 -100
48 -120 4 -21 13 -42 21 -49 22 -18 17 -48 -8 -54 -13 -3 -79 -4 -148 -3
l-125 3 0 60 c1 49 8 73 39 135 41 81 66 104 121 109 6 1 30 -36 52 -81z
m-257 42 c0 -5 -6 -27 -14 -47 -34 -94 -39 -120 -27 -154 14 -39 14 -35 -5
-53 -12 -13 -41 -16 -153 -16 -93 0 -141 4 -149 12 -7 7 -12 44 -12 94 0 80 1
82 28 93 27 11 207 10 218 -2 9 -9 53 34 48 47 -3 7 5 18 18 24 29 14 48 15
48 2z m2963 -58 c20 -2 43 1 50 7 10 8 19 6 36 -5 19 -14 31 -14 84 -4 79 14
172 19 189 9 8 -5 13 -38 14 -99 1 -74 -2 -93 -15 -99 -9 -5 -98 -12 -198 -16
-201 -7 -223 -3 -222 43 1 15 -2 63 -7 106 -7 76 -6 79 12 71 10 -5 36 -10 57
-13z m-144 -54 c6 -18 13 -56 17 -85 6 -50 5 -53 -21 -65 -36 -16 -61 0 -58
38 4 42 35 144 44 144 4 0 12 -15 18 -32z"/>
</g>
</svg>
