<?xml version="1.0" standalone="no"?>
<!DOCTYPE svg PUBLIC "-//W3C//DTD SVG 20010904//EN"
 "http://www.w3.org/TR/2001/REC-SVG-20010904/DTD/svg10.dtd">
<svg version="1.0" xmlns="http://www.w3.org/2000/svg"
 width="580.000000pt" height="400.000000pt" viewBox="0 0 580.000000 400.000000"
 preserveAspectRatio="xMidYMid meet">
<metadata>
Created by potrace 1.16, written by Peter Selinger 2001-2019
</metadata>
<g transform="translate(0.000000,400.000000) scale(0.100000,-0.100000)"
fill="#000000" stroke="none">
<path d="M2745 3310 c-3 -6 -46 -10 -98 -10 -139 0 -459 -20 -482 -30 -11 -5
-74 -14 -140 -20 -66 -6 -129 -15 -140 -19 -16 -7 -129 -31 -205 -44 -9 -2
-20 -6 -25 -9 -6 -3 -41 -11 -80 -18 -38 -7 -74 -16 -80 -20 -5 -4 -39 -13
-75 -19 -36 -7 -78 -18 -95 -26 -16 -7 -47 -16 -67 -20 -21 -4 -38 -11 -38
-15 0 -4 -15 -11 -32 -14 -18 -3 -45 -12 -59 -20 -15 -7 -51 -19 -80 -27 -30
-7 -58 -16 -64 -19 -5 -4 -29 -12 -53 -20 -37 -12 -44 -18 -54 -54 -7 -23 -16
-44 -21 -47 -5 -3 -1 -13 7 -22 9 -8 16 -23 16 -31 0 -9 4 -16 8 -16 5 0 16
-6 25 -13 19 -13 20 -10 -86 -213 -18 -33 -38 -76 -46 -95 -8 -19 -25 -47 -38
-62 -12 -16 -23 -36 -23 -44 0 -19 -39 -83 -50 -83 -5 0 -12 20 -16 45 -3 25
-10 48 -15 51 -12 7 -12 49 0 72 5 9 15 42 21 72 7 30 19 64 26 75 7 11 16 38
20 60 3 22 10 45 14 50 4 6 10 25 14 44 3 19 18 59 32 90 37 77 36 75 67 120
32 43 50 127 27 119 -8 -2 -18 -13 -24 -23 -6 -10 -25 -39 -41 -65 -17 -25
-40 -67 -53 -95 -13 -27 -34 -71 -47 -96 -14 -26 -25 -58 -25 -72 0 -14 -5
-29 -10 -32 -6 -4 -8 -10 -5 -15 3 -5 1 -11 -4 -14 -5 -3 -12 -21 -15 -40 -4
-19 -14 -48 -22 -66 -9 -18 -19 -61 -22 -96 -2 -36 -11 -69 -18 -75 -8 -6 -14
-18 -14 -25 0 -8 -7 -14 -16 -14 -14 0 -15 12 -9 98 4 53 11 101 16 107 5 5 9
23 9 40 0 16 7 53 16 80 9 28 17 57 19 65 1 8 8 28 15 43 12 24 11 30 -2 43
-14 14 -17 12 -36 -18 -11 -18 -23 -54 -27 -80 -4 -27 -11 -48 -15 -48 -5 0
-14 -32 -21 -70 -7 -39 -16 -73 -21 -76 -4 -3 -8 -49 -8 -102 0 -77 -2 -93
-12 -83 -10 9 -13 61 -13 192 0 135 -3 179 -12 179 -7 0 -15 -12 -19 -27 -3
-16 -8 -35 -12 -43 -9 -24 -10 -54 -2 -65 4 -5 10 -68 13 -140 4 -71 10 -181
13 -244 5 -84 4 -112 -4 -107 -6 4 -17 34 -24 66 -6 33 -15 60 -19 60 -4 0
-11 21 -15 48 -3 26 -11 53 -16 60 -6 6 -7 12 -2 12 5 0 2 5 -6 10 -12 7 -15
32 -16 114 0 58 -3 109 -7 113 -4 3 -7 19 -7 35 0 18 -5 28 -15 28 -11 0 -15
-11 -15 -42 0 -76 20 -233 30 -236 5 -2 6 -10 3 -18 -3 -8 -1 -14 5 -14 6 0
13 -18 17 -40 4 -22 11 -40 16 -40 5 0 6 -13 2 -30 -3 -19 -1 -30 6 -30 6 0
11 -13 11 -30 0 -16 -3 -30 -7 -30 -19 1 -35 19 -30 34 3 8 2 18 -2 21 -5 2
-12 17 -16 32 -3 15 -15 46 -26 70 -10 23 -19 47 -19 52 0 6 -6 11 -14 11 -9
0 -12 -8 -8 -25 2 -14 7 -25 11 -25 4 0 5 -15 3 -34 -3 -26 3 -43 23 -70 16
-21 28 -50 29 -71 2 -41 -13 -41 -34 1 -36 71 -62 106 -72 96 -7 -7 5 -40 36
-102 43 -87 56 -130 38 -130 -10 0 -36 31 -45 53 -3 9 -11 17 -17 17 -6 0 -8
4 -5 10 9 14 -53 78 -63 64 -4 -6 -15 -13 -24 -17 -16 -5 -16 -10 -6 -34 7
-15 19 -34 26 -42 7 -7 16 -26 19 -42 3 -16 10 -29 15 -29 6 0 8 -9 5 -20 -3
-11 -1 -20 4 -20 5 0 9 -13 9 -30 0 -52 -28 -34 -49 33 -10 28 -18 37 -34 37
-13 0 -17 -4 -11 -8 5 -4 15 -32 21 -62 17 -86 52 -171 89 -217 19 -23 34 -45
34 -49 0 -4 6 -15 14 -23 20 -24 61 -101 75 -142 6 -20 21 -45 31 -54 26 -24
25 -35 -3 -35 -24 0 -57 27 -57 47 0 6 -6 13 -14 16 -8 3 -17 19 -21 36 -4 17
-11 31 -16 31 -6 0 -8 4 -5 9 3 5 -1 11 -9 15 -8 3 -15 14 -15 24 0 10 -11 33
-25 52 -14 19 -25 37 -25 42 0 4 -18 34 -40 65 -22 32 -40 66 -40 76 0 9 -4
17 -9 17 -5 0 -12 8 -15 18 -3 9 -3 -1 0 -23 3 -22 16 -63 30 -92 13 -28 24
-56 24 -61 0 -5 9 -17 20 -27 11 -10 20 -23 20 -29 0 -6 18 -30 40 -54 24 -26
40 -53 40 -67 0 -14 5 -25 12 -25 6 0 8 -3 5 -6 -3 -4 5 -15 18 -26 14 -11 23
-24 19 -29 -3 -5 4 -22 15 -38 12 -16 21 -36 21 -44 0 -8 7 -17 15 -21 8 -3
15 -11 15 -19 0 -16 41 -57 57 -57 6 0 22 -12 37 -26 19 -20 26 -37 26 -65 0
-39 -2 -46 -33 -104 l-16 -30 -188 -1 c-130 -1 -188 -5 -187 -13 1 -6 2 -159
2 -341 l2 -330 2815 0 2815 0 0 340 0 340 -187 2 -187 3 -15 30 c-8 17 -18 38
-23 47 -17 37 1 128 26 128 13 0 76 49 76 60 0 5 18 36 40 69 22 33 40 63 40
66 0 4 8 19 19 33 10 15 24 44 30 65 7 20 17 37 22 37 6 0 8 4 5 9 -3 5 5 16
18 25 26 16 29 21 88 136 38 74 59 160 39 160 -6 0 -8 -7 -5 -15 4 -8 1 -15
-5 -15 -6 0 -11 -6 -11 -12 0 -19 -53 -122 -67 -131 -7 -4 -13 -14 -13 -21 0
-6 -11 -27 -25 -46 -14 -19 -25 -42 -25 -52 0 -10 -7 -21 -15 -24 -8 -4 -12
-10 -9 -15 3 -5 0 -9 -5 -9 -6 0 -11 -5 -11 -12 0 -6 -16 -35 -37 -65 -26 -38
-43 -53 -60 -53 -29 0 -29 4 2 44 14 18 28 48 31 67 4 19 13 41 21 49 21 23
63 90 63 100 0 5 6 13 13 17 18 12 67 87 67 104 0 8 7 25 16 37 8 12 13 26 9
31 -3 5 -1 12 4 15 5 3 12 27 16 53 4 27 11 53 16 60 14 16 -9 28 -26 13 -8
-7 -15 -20 -15 -29 0 -9 -6 -28 -14 -43 -8 -15 -17 -41 -21 -58 -9 -40 -55
-130 -66 -130 -5 0 -9 -6 -9 -14 0 -8 -11 -28 -25 -44 -14 -17 -25 -33 -25
-37 0 -12 -41 -65 -51 -65 -18 0 -5 40 31 95 11 17 25 41 32 55 7 14 18 30 24
35 6 6 17 26 24 45 8 19 16 37 19 40 9 8 31 74 31 93 0 9 5 17 11 17 7 0 9 10
7 25 -3 14 -2 25 3 25 4 0 11 10 15 23 4 12 18 39 31 60 17 28 21 42 14 55 -9
16 -10 16 -16 0 -10 -25 -29 -23 -22 2 14 53 -54 -2 -74 -60 -13 -35 -38 -70
-51 -70 -18 0 -5 43 37 128 46 92 52 112 35 112 -10 0 -60 -69 -60 -83 0 -12
-43 -67 -53 -67 -10 0 1 82 12 90 25 18 52 74 50 103 -1 17 2 40 6 49 4 10 5
23 2 30 -3 7 -10 0 -16 -17 -6 -16 -17 -41 -25 -55 -8 -14 -17 -42 -21 -62 -4
-21 -11 -38 -17 -38 -5 0 -6 -5 -2 -11 6 -11 -12 -29 -30 -29 -10 0 2 90 14
105 4 6 11 26 15 45 4 19 13 44 20 55 7 12 18 67 24 123 15 141 14 172 -4 172
-10 0 -15 -10 -15 -28 0 -16 -3 -32 -7 -36 -4 -4 -7 -47 -8 -95 0 -57 -5 -93
-13 -103 -7 -9 -17 -44 -23 -79 -6 -35 -15 -67 -21 -70 -6 -4 -8 -16 -5 -28 3
-12 1 -21 -4 -21 -5 0 -9 -10 -9 -23 0 -13 -7 -32 -16 -43 -14 -17 -15 -10 -9
91 3 61 8 166 11 235 3 69 10 135 16 148 8 16 8 28 0 45 -6 12 -14 37 -17 55
-4 17 -12 32 -18 32 -9 0 -12 -49 -12 -179 0 -131 -3 -183 -12 -192 -11 -11
-13 5 -13 77 0 49 -4 94 -8 99 -5 6 -15 43 -21 83 -7 39 -16 72 -21 72 -4 0
-11 21 -15 48 -9 63 -42 117 -61 101 -14 -11 -10 -52 6 -74 4 -5 14 -37 21
-70 7 -33 16 -65 20 -71 5 -6 6 -21 4 -34 -2 -13 -1 -28 4 -34 14 -17 25 -206
13 -206 -21 0 -50 67 -56 129 -3 35 -13 77 -21 93 -8 17 -17 45 -21 64 -3 19
-10 37 -15 40 -5 3 -7 9 -4 14 3 5 1 11 -5 15 -5 3 -10 18 -10 33 0 15 -14 47
-30 71 -17 24 -30 52 -30 62 0 10 -4 20 -9 23 -5 3 -12 17 -15 31 -4 15 -20
45 -36 67 -17 23 -30 46 -30 53 0 13 -32 45 -45 45 -4 0 -5 -21 -1 -46 4 -31
17 -59 41 -88 19 -24 35 -49 35 -57 0 -8 9 -29 20 -47 11 -18 25 -57 31 -85 6
-29 17 -66 25 -84 8 -17 14 -37 14 -45 0 -7 6 -23 14 -34 8 -11 20 -49 26 -84
7 -36 17 -69 21 -75 12 -12 11 -52 0 -60 -6 -3 -13 -26 -17 -50 -3 -25 -10
-45 -14 -45 -16 0 -50 53 -50 76 0 12 -10 35 -23 51 -27 34 -41 63 -63 127
-17 51 -36 83 -92 151 -18 22 -38 46 -44 54 -8 10 -8 18 0 30 7 9 15 23 18 31
3 8 10 25 16 37 15 30 -9 82 -41 90 -14 3 -36 12 -50 19 -14 8 -33 14 -41 14
-8 0 -33 9 -55 20 -22 11 -47 20 -55 20 -8 0 -26 6 -40 13 -14 7 -47 19 -75
27 -27 8 -61 20 -75 27 -14 7 -36 13 -50 13 -14 0 -36 6 -50 13 -14 7 -54 19
-90 27 -36 7 -70 17 -76 22 -7 5 -16 8 -20 7 -11 -3 -92 19 -115 31 -9 4 -69
16 -135 25 -65 10 -123 21 -129 25 -5 4 -68 13 -140 20 -71 6 -139 16 -150 20
-21 9 -302 30 -397 30 -31 0 -59 4 -62 9 -8 13 -283 14 -291 1z m87 -202 c-41
-50 -65 -116 -65 -179 -1 -37 4 -73 10 -80 22 -28 52 -88 45 -93 -4 -2 -45 -5
-92 -7 -94 -4 -94 -4 -77 64 10 38 -15 36 -43 -3 -12 -16 -27 -30 -35 -30 -7
0 -15 -5 -17 -10 -3 -11 -112 -19 -122 -9 -3 3 -6 36 -7 72 -1 37 -6 70 -10
73 -14 8 -11 182 3 190 19 12 136 21 287 23 106 1 131 -2 123 -11z m473 -9 c5
-6 -7 -26 -33 -52 -23 -24 -47 -59 -52 -78 -14 -46 -2 -136 23 -180 11 -20 18
-43 14 -52 -7 -18 -52 -23 -62 -7 -3 6 -35 10 -70 10 -67 0 -91 14 -62 35 21
15 22 25 3 25 -8 0 -16 -6 -19 -13 -4 -10 -21 -12 -76 -6 -110 12 -147 50
-144 148 1 65 29 125 70 153 36 23 54 23 107 -2 37 -16 45 -25 50 -55 5 -27
12 -35 24 -33 20 4 29 45 13 61 -6 6 -11 24 -11 39 l0 29 108 -7 c59 -4 111
-10 117 -15z m-1018 -14 c17 -9 36 -21 42 -28 5 -7 15 -75 22 -150 11 -142 7
-167 -27 -167 -8 0 -14 -7 -14 -15 0 -9 -9 -15 -24 -15 -12 0 -50 -3 -83 -6
l-60 -7 -5 32 c-2 17 -1 31 4 31 4 0 8 7 8 15 0 8 -4 15 -10 15 -5 0 -10 -5
-10 -11 0 -5 -4 -7 -10 -4 -5 3 -10 -1 -10 -10 0 -25 -50 -65 -81 -65 -15 0
-31 -4 -34 -10 -7 -11 -33 -9 -52 3 -7 5 -13 19 -13 32 0 13 -4 27 -10 30 -5
3 -10 22 -10 41 0 27 4 34 19 34 11 0 23 5 26 10 11 18 68 11 92 -12 13 -12
25 -19 28 -16 9 9 -16 138 -26 138 -5 0 -14 -11 -20 -24 -14 -30 -46 -47 -89
-49 -38 -2 -47 15 -49 89 l-1 41 51 11 c70 17 77 16 105 -15 20 -21 27 -24 37
-13 9 10 9 13 0 17 -7 3 -13 15 -13 28 0 21 7 25 58 36 31 7 64 12 74 10 9 -1
19 3 23 9 9 14 27 13 62 -5z m1178 -51 c51 -56 56 -128 15 -220 -22 -48 -35
-59 -77 -68 -43 -10 -91 16 -98 52 -4 15 -10 35 -16 44 -11 21 -12 91 -2 102
4 3 8 12 9 19 5 35 36 88 56 97 48 19 79 12 113 -26z m195 26 c95 -13 105 -22
96 -94 -4 -31 -11 -56 -15 -56 -4 0 -14 -33 -21 -72 -7 -40 -16 -79 -21 -88
-4 -8 -10 -23 -13 -32 -3 -11 -15 -18 -30 -18 -14 0 -28 -5 -32 -11 -4 -8 -9
-8 -17 0 -6 6 -37 11 -69 11 -71 0 -74 11 -18 65 24 23 45 55 51 79 14 53 2
128 -27 167 -46 62 -32 68 116 49z m318 -61 c2 -5 16 -9 32 -9 77 0 79 -33 8
-120 -29 -36 -58 -74 -63 -84 -6 -11 -21 -23 -32 -27 -19 -7 -22 -3 -28 34 -4
23 -11 48 -16 57 -8 17 -29 123 -29 152 0 17 6 18 63 12 34 -4 64 -11 65 -15z
m-2223 1 c3 -5 17 -10 31 -10 17 0 24 -5 24 -19 0 -11 4 -22 8 -25 5 -3 15
-51 22 -108 7 -57 17 -109 23 -116 14 -18 -39 -91 -72 -98 -14 -3 -37 -10 -50
-15 -13 -5 -26 -7 -29 -4 -3 2 -10 1 -16 -4 -6 -6 -35 -13 -64 -17 l-52 -7 0
91 c0 52 4 94 10 97 6 4 10 41 9 88 0 45 2 89 5 97 9 21 53 40 93 40 18 0 33
5 33 10 0 6 4 10 9 10 6 0 13 -4 16 -10z m-199 -71 c9 -15 -7 -219 -18 -219
-11 0 -88 83 -88 96 0 3 -11 19 -25 36 -14 16 -25 36 -25 44 0 8 10 14 25 14
14 0 25 5 25 10 0 22 93 39 106 19z m2730 -10 c3 -5 14 -9 24 -9 41 0 85 -69
61 -95 -5 -6 -16 -37 -26 -70 -10 -33 -21 -64 -25 -70 -4 -5 -13 -31 -20 -57
-14 -54 -31 -73 -60 -65 -11 3 -20 1 -20 -4 0 -16 -65 5 -83 27 -9 13 -26 26
-37 29 -20 6 -28 49 -11 59 4 3 11 25 15 48 7 48 43 175 55 198 14 25 112 32
127 9z m-472 -60 c3 -17 6 -44 6 -59 0 -16 4 -30 8 -32 5 -1 12 -29 16 -62 l6
-59 -32 7 c-51 10 -78 33 -78 66 0 16 4 31 9 34 5 3 12 27 16 53 12 82 37 109
49 52z m-2471 -6 c4 -2 7 -10 7 -17 0 -8 7 -19 15 -26 16 -13 21 -61 8 -74 -5
-4 -9 -16 -9 -27 -3 -35 -4 -39 -13 -39 -4 0 -25 21 -44 48 -20 26 -43 54 -50
62 -45 48 -25 93 38 84 22 -4 43 -8 48 -11z m2713 -55 c-4 -18 -9 -52 -13 -76
-3 -23 -10 -45 -14 -48 -5 -3 -9 -14 -9 -24 0 -26 -60 -43 -100 -28 -36 12
-36 13 -7 48 12 15 29 37 37 50 37 55 86 110 99 110 10 0 12 -8 7 -32z m503 4
c14 -10 29 -34 34 -52 l8 -33 25 41 c14 23 27 42 28 42 17 0 149 -76 153 -89
4 -9 24 -37 45 -62 21 -26 38 -51 38 -57 0 -5 6 -12 13 -15 19 -7 180 -334
172 -347 -5 -9 -10 -9 -19 0 -6 6 -11 14 -11 18 -1 19 -109 220 -131 243 -13
14 -24 30 -24 35 0 17 -38 47 -49 39 -19 -11 -12 -45 15 -72 30 -30 90 -140
81 -150 -4 -3 -16 2 -27 12 -16 14 -22 15 -35 5 -13 -11 -12 -16 6 -42 29 -40
16 -47 -34 -20 -23 12 -46 22 -51 22 -5 0 -36 13 -70 29 -33 15 -91 42 -128
60 -38 17 -68 34 -68 38 0 3 8 15 17 25 13 14 14 21 5 30 -9 9 -15 9 -24 0
-25 -25 -130 -5 -166 31 -12 13 -13 20 -5 28 6 6 9 17 7 24 -8 21 29 95 48 95
9 0 20 5 23 10 3 6 -1 10 -9 10 -18 0 -22 35 -6 45 6 3 10 17 10 30 0 37 28
58 69 51 20 -3 47 -14 60 -24z m-3372 -31 c18 -20 35 -44 38 -53 4 -10 11 -18
16 -18 5 0 9 -6 9 -12 1 -7 14 -29 30 -48 17 -19 30 -38 30 -43 0 -5 9 -16 20
-25 10 -10 22 -29 26 -44 5 -24 2 -28 -23 -34 -15 -4 -32 -10 -38 -14 -5 -4
-28 -13 -50 -19 -22 -7 -49 -17 -60 -22 -11 -5 -40 -16 -65 -23 -93 -30 -165
-58 -179 -69 -10 -9 -16 -7 -27 8 -13 18 -14 18 -34 0 -11 -10 -23 -16 -26
-12 -10 10 46 110 83 148 30 32 33 40 24 58 -7 12 -15 21 -18 21 -12 0 -53
-43 -53 -55 0 -16 -58 -70 -67 -62 -4 4 7 33 25 65 17 31 55 103 84 160 40 79
59 104 77 109 14 3 36 12 50 19 41 21 91 8 128 -35z m309 -123 c53 -76 56 -82
38 -95 -10 -7 -25 -13 -33 -13 -9 0 -29 -7 -45 -15 -50 -26 -59 -7 -51 99 11
135 13 135 91 24z m1835 -94 c8 -6 70 -17 139 -24 68 -7 131 -16 140 -21 8 -4
62 -15 120 -23 110 -15 271 -50 305 -65 11 -5 45 -15 75 -22 30 -6 60 -15 65
-19 6 -4 28 -11 50 -14 22 -4 49 -13 60 -20 11 -7 40 -18 65 -26 25 -7 50 -17
55 -20 6 -4 28 -13 50 -20 22 -6 60 -21 85 -32 25 -11 54 -23 65 -28 11 -4 91
-42 178 -85 129 -63 157 -81 157 -99 0 -11 7 -30 15 -40 22 -30 18 -46 -11
-46 -21 0 -25 -4 -21 -20 3 -10 -1 -24 -8 -30 -10 -9 -4 -29 31 -98 63 -123
84 -155 177 -261 41 -47 61 -91 41 -91 -4 0 -31 21 -61 46 -53 45 -88 91 -126
164 -43 84 -48 90 -73 90 -22 0 -24 -3 -18 -27 11 -45 86 -173 106 -181 4 -2
8 -9 8 -16 0 -17 101 -113 128 -121 16 -5 22 -14 22 -35 0 -16 4 -31 9 -34 5
-4 19 -26 31 -51 18 -36 20 -48 10 -60 -7 -8 -11 -34 -8 -60 2 -25 0 -45 -4
-45 -5 0 -8 -24 -8 -52 0 -29 -4 -59 -8 -66 -6 -9 -79 -12 -303 -14 -162 0
-296 1 -299 4 -3 3 9 21 27 39 83 88 86 92 86 133 1 23 5 44 10 47 16 12 -37
153 -61 164 -25 11 -30 35 -7 35 8 0 15 4 15 9 0 13 -41 41 -51 35 -4 -2 -10
5 -14 16 -3 11 -13 20 -22 20 -10 0 -13 6 -9 16 10 25 -12 46 -33 32 -11 -7
-36 -8 -64 -4 l-47 7 0 80 c0 64 3 79 15 79 20 0 19 19 -2 42 -14 16 -34 18
-188 18 -156 0 -173 -2 -189 -19 -11 -12 -14 -21 -7 -26 13 -8 15 -161 2 -169
-5 -3 -11 1 -15 9 -7 19 -46 20 -46 1 0 -15 -61 -26 -141 -26 -26 0 -51 -5
-54 -10 -3 -6 -28 -10 -56 -10 -27 0 -49 -4 -49 -8 0 -4 -16 -6 -36 -4 -24 3
-35 1 -30 -6 4 -7 -5 -9 -29 -5 -20 3 -35 1 -35 -4 0 -6 -23 -13 -50 -16 -28
-3 -55 -9 -60 -12 -6 -4 -8 -26 -4 -56 l7 -49 -43 0 c-38 0 -42 -2 -37 -21 4
-15 2 -19 -9 -15 -20 8 -29 -20 -16 -47 6 -12 13 -43 17 -69 l6 -48 48 0 c44
0 51 -3 77 -37 16 -21 29 -43 29 -50 0 -7 15 -26 33 -42 17 -16 32 -35 32 -40
0 -12 -522 -16 -533 -4 -4 3 -2 12 4 20 9 9 8 13 0 13 -6 0 -11 15 -11 34 0
28 4 35 25 40 23 6 24 10 19 54 -3 26 -11 65 -19 87 -14 43 -15 112 -1 134 13
21 -14 92 -41 104 -16 7 -66 6 -168 -2 -80 -7 -150 -9 -156 -5 -7 4 -67 8
-135 9 -68 1 -130 7 -136 12 -28 21 -95 35 -114 25 -11 -6 -32 -8 -48 -5 -22
5 -27 3 -22 -8 3 -8 9 -22 12 -31 4 -10 10 -18 15 -18 16 0 10 -18 -16 -48
-31 -37 -32 -60 -3 -64 34 -5 34 -27 -1 -34 -37 -8 -41 -33 -10 -52 16 -10 18
-17 10 -25 -14 -14 -15 -114 -1 -122 13 -8 13 -72 0 -80 -5 -3 -10 -15 -10
-26 0 -19 -7 -19 -177 -17 l-178 3 -3 62 -3 62 -141 3 c-102 2 -143 6 -146 16
-2 7 6 12 22 12 14 0 26 2 26 4 0 16 -14 36 -26 36 -20 0 -31 28 -39 105 -4
39 -10 75 -14 80 -5 6 -16 73 -26 150 -10 77 -21 145 -25 150 -7 9 -24 133
-25 175 0 8 9 15 20 15 44 1 58 35 14 35 -10 0 -19 7 -19 15 0 8 6 15 13 15
15 0 53 41 49 53 -1 4 4 18 13 30 17 24 21 87 5 87 -5 0 -10 11 -10 25 0 33
-70 101 -113 109 -44 8 -105 -15 -136 -52 -36 -41 -55 -45 -107 -21 -44 21
-45 21 -59 3 -9 -12 -14 -43 -15 -81 l0 -63 33 0 c18 0 38 5 44 11 18 18 46 6
50 -21 2 -13 17 -39 34 -56 l31 -32 -27 -18 -27 -18 23 -9 c13 -6 31 -9 41 -8
9 1 19 -2 22 -7 7 -11 -12 -131 -23 -153 -5 -8 -14 -57 -21 -107 -7 -51 -17
-95 -21 -98 -4 -2 -5 -12 -2 -20 3 -8 1 -25 -5 -37 -5 -12 -16 -62 -22 -112
-7 -49 -16 -94 -20 -100 -4 -5 -13 -50 -20 -100 -7 -49 -18 -98 -25 -108 -11
-16 -35 -18 -289 -18 -152 0 -280 3 -285 5 -4 3 -11 52 -15 108 -4 57 -11 107
-17 113 -5 5 -9 17 -9 27 0 17 33 84 51 103 5 5 9 19 9 32 0 14 6 23 16 23 19
0 124 98 124 116 0 7 9 18 20 24 11 6 20 17 20 25 0 7 11 27 25 43 14 17 25
35 25 41 0 6 4 11 9 11 5 0 11 12 14 28 3 15 9 35 12 45 12 29 -41 22 -57 -7
-7 -14 -30 -54 -50 -89 -21 -36 -38 -68 -38 -71 0 -15 -128 -121 -137 -112 -8
7 23 70 43 87 55 46 192 268 178 291 -3 4 2 11 10 14 11 4 15 19 14 56 -1 47
-2 50 -24 45 -29 -5 -32 17 -8 51 9 14 13 33 10 46 -8 32 9 45 139 106 61 28
142 66 180 85 39 18 88 39 110 45 22 6 49 15 60 20 11 5 37 14 58 20 22 7 51
18 65 26 15 8 34 14 42 14 8 0 28 7 43 15 15 8 56 19 90 26 34 7 67 15 72 19
6 4 47 13 93 20 45 7 85 16 88 21 3 5 16 6 30 3 13 -3 30 -2 37 3 6 6 48 16
92 23 44 7 85 17 90 21 12 9 195 29 269 29 29 0 56 4 62 10 13 13 165 17 540
16 205 -1 316 -5 325 -12z m1029 -929 c0 -82 -1 -85 -23 -85 -43 0 -144 -92
-161 -148 -5 -16 -15 -22 -37 -22 -28 0 -29 1 -29 50 0 37 4 52 16 57 11 4 14
16 12 42 -3 33 0 36 27 42 17 4 23 7 14 8 -9 0 -19 8 -23 16 -3 8 -12 12 -21
9 -12 -5 -15 4 -15 55 l0 61 120 0 120 0 0 -85z m-1675 -466 c50 -7 84 -6 118
2 41 10 51 9 66 -5 10 -9 23 -16 30 -16 31 0 37 -104 8 -150 -11 -18 -24 -20
-157 -20 l-145 0 -2 61 c-1 34 -6 66 -12 72 -6 6 -11 24 -11 39 0 32 2 32 105
17z m1347 -41 c3 -33 4 -33 60 -36 l57 -3 3 33 c4 44 35 45 59 1 10 -18 15
-33 11 -33 -4 0 14 -20 41 -44 26 -24 47 -49 47 -55 0 -8 -79 -11 -270 -11
-148 0 -270 4 -270 8 0 14 24 32 43 32 11 0 24 13 34 38 8 20 21 41 29 45 8 4
14 19 14 32 0 24 2 25 69 25 l70 0 3 -32z m-3560 -339 c32 -17 52 -75 38 -113
-32 -84 -44 -94 -55 -44 -4 18 -16 48 -26 68 -30 58 -34 87 -12 93 30 8 33 7
55 -4z m226 -11 c15 -13 16 -38 1 -38 -6 0 -8 -7 -5 -16 3 -8 2 -12 -4 -9 -6
3 -10 -5 -10 -19 0 -13 -6 -31 -13 -38 -8 -7 -17 -26 -21 -41 -9 -39 -24 -33
-36 16 -6 23 -17 53 -24 67 -8 14 -17 39 -20 57 -7 29 -5 32 21 36 37 6 95 -2
111 -15z m136 7 c20 -9 40 -23 43 -33 4 -9 19 -36 35 -59 15 -23 28 -46 28
-52 0 -6 5 -11 10 -11 6 0 10 -28 10 -64 0 -92 -8 -96 -175 -96 -81 0 -135 4
-142 11 -10 10 -3 35 28 92 5 10 7 22 4 27 -4 6 0 17 8 25 8 8 18 35 21 60 4
25 11 43 16 40 5 -3 12 10 16 29 5 32 16 41 50 45 6 0 28 -6 48 -14z m230 5
c26 -10 35 -35 15 -42 -7 -2 -3 -10 7 -18 11 -8 16 -11 12 -6 -4 4 -2 13 3 20
5 6 15 19 22 28 7 9 28 18 47 20 35 3 35 3 38 -39 4 -51 22 -57 39 -13 9 24
17 30 42 30 l31 0 0 -140 c0 -127 -2 -140 -19 -150 -31 -16 -207 -13 -241 5
-29 15 -30 18 -30 89 0 64 3 76 25 100 26 28 34 61 13 53 -7 -2 -13 -14 -12
-26 1 -19 -8 -26 -30 -22 -5 1 -6 -5 -2 -14 11 -30 -17 -10 -35 25 -10 18 -22
36 -26 39 -8 6 -33 47 -33 55 0 14 101 19 134 6z m576 -8 c0 -10 -9 -35 -20
-57 -11 -22 -20 -43 -20 -47 0 -4 -13 -37 -30 -73 -16 -36 -30 -71 -30 -77 0
-21 -43 -58 -67 -58 -13 0 -38 6 -56 13 l-32 14 3 142 3 142 37 -3 c32 -3 38
-7 47 -35 6 -22 15 -33 27 -33 15 0 18 8 18 45 l0 45 60 0 c51 0 60 -3 60 -18z
m287 5 c13 -13 16 -262 4 -285 -6 -11 -24 -23 -39 -27 -34 -7 -82 9 -82 27 0
7 -15 45 -34 83 -76 157 -86 181 -86 199 0 17 9 18 114 15 63 -2 118 -8 123
-12z m194 -8 c16 -16 19 -30 17 -72 l-3 -52 -62 -3 -63 -3 0 70 c0 64 2 70 23
74 48 9 68 6 88 -14z m397 5 c21 -14 22 -22 22 -141 0 -116 -2 -129 -22 -150
-20 -22 -29 -23 -140 -23 -88 0 -127 4 -149 15 l-30 16 3 137 c3 134 3 137 28
149 38 20 259 17 288 -3z m372 2 c0 -8 -5 -18 -10 -21 -6 -4 -8 -15 -5 -26 4
-13 2 -19 -6 -17 -7 2 -16 -14 -21 -37 -13 -66 -79 -190 -107 -203 -32 -15
-66 -15 -108 0 -33 12 -33 12 -33 80 l0 68 44 0 c36 0 49 -5 64 -25 11 -14 23
-25 26 -25 3 0 6 27 6 60 0 33 -3 60 -6 60 -3 0 -19 -9 -34 -20 -18 -13 -40
-19 -61 -17 l-34 3 0 59 0 60 47 3 c41 3 52 -1 72 -22 31 -34 46 -33 46 4 l0
30 60 0 c46 0 60 -3 60 -14z m259 8 l31 -6 0 -149 0 -149 -27 -11 c-34 -13
-83 -2 -90 19 -5 16 -38 88 -97 212 -42 88 -41 90 63 90 49 0 103 -3 120 -6z
m399 -8 c4 -4 7 -69 7 -143 0 -135 0 -136 -27 -156 -23 -18 -29 -18 -57 -6
-17 8 -31 17 -31 21 0 5 -7 8 -15 8 -9 0 -20 11 -24 24 -5 13 -16 26 -24 29
-8 3 -17 17 -21 32 -5 21 -1 31 25 52 33 28 34 36 13 127 l-7 29 77 -5 c42 -3
80 -8 84 -12z m292 -11 c0 -14 -5 -25 -11 -25 -5 0 -7 -4 -4 -10 3 -5 1 -10
-5 -10 -7 0 -10 -7 -6 -15 3 -8 1 -15 -4 -15 -6 0 -10 -6 -10 -14 0 -8 -6 -21
-14 -29 -8 -8 -22 -32 -31 -53 l-16 -39 -50 99 c-69 140 -70 136 51 136 l100
0 0 -25z m210 14 c0 -6 -8 -24 -17 -40 -25 -42 -3 -79 83 -142 29 -20 55 -44
58 -52 8 -23 -4 -45 -24 -45 -11 0 -21 -4 -25 -9 -9 -16 -77 31 -89 61 -18 48
-29 32 -22 -32 7 -56 6 -60 -14 -60 -11 0 -36 7 -55 14 l-35 15 0 134 c0 140
3 149 45 160 38 9 95 7 95 -4z m457 -2 c4 -5 9 -68 11 -140 4 -179 12 -171
-167 -175 -82 -2 -141 0 -141 6 0 5 6 22 14 38 14 28 11 84 -4 84 -4 0 -10 9
-13 20 -3 11 -18 25 -34 30 -40 16 -93 70 -93 97 0 26 32 47 61 38 11 -4 31
-24 45 -46 13 -21 29 -39 34 -39 13 0 13 37 0 45 -5 3 -10 18 -10 32 l0 25
144 -4 c79 -1 148 -7 153 -11z m330 0 c9 -10 11 -292 2 -302 -4 -3 -22 -8 -42
-12 -35 -5 -35 -5 -34 28 1 19 6 37 12 41 5 4 6 11 1 15 -5 4 -11 2 -13 -5 -9
-24 -82 -62 -119 -62 -60 0 -65 12 -62 162 3 131 3 132 28 140 33 9 216 5 227
-5z m373 -1 c0 -8 -13 -35 -29 -58 -43 -63 -46 -87 -21 -147 12 -27 28 -56 36
-62 8 -6 14 -20 14 -30 0 -16 -8 -19 -54 -19 l-53 0 7 43 c8 43 5 60 -8 41
-13 -20 -92 -64 -115 -64 -13 0 -35 6 -50 13 l-27 12 0 126 c0 131 3 141 45
152 11 2 73 5 138 6 96 1 117 -2 117 -13z m-1905 -16 c22 -11 43 -29 47 -41
15 -39 -33 -89 -84 -89 -28 0 -28 0 -28 68 0 91 3 94 65 62z m2171 -2 c16 -13
37 -32 46 -43 20 -24 34 -97 22 -122 -4 -10 -8 -20 -9 -23 -22 -59 -30 -70
-60 -84 -44 -21 -48 -20 -43 8 4 20 1 23 -19 21 -13 -1 -32 -10 -43 -20 -16
-14 -25 -16 -43 -8 -12 6 -39 18 -60 27 -28 12 -39 23 -43 46 -4 16 -10 30
-15 30 -12 0 -12 57 0 64 4 3 11 24 15 46 4 26 13 43 24 46 9 3 24 9 32 13 8
4 34 3 58 -3 33 -9 46 -18 60 -45 9 -19 23 -37 31 -39 11 -4 12 6 7 52 -8 62
-3 67 40 34z m-5125 -35 c6 -21 15 -42 19 -48 4 -5 10 -22 14 -37 3 -16 11
-28 17 -28 6 0 7 -5 4 -11 -4 -5 1 -26 10 -45 9 -19 17 -47 18 -62 2 -26 0
-27 -38 -25 -61 4 -87 20 -119 71 -43 69 -40 145 7 210 5 6 20 12 32 12 18 0
26 -9 36 -37z m2582 -83 l24 -50 -55 0 c-48 0 -53 2 -47 18 4 9 10 29 13 44 2
15 8 25 13 22 5 -3 9 2 9 11 0 26 18 7 43 -45z m917 -38 c0 -114 -14 -142 -69
-142 -43 0 -47 17 -16 77 14 28 25 60 25 72 0 12 4 21 8 21 4 0 8 9 9 20 2 20
22 49 36 50 4 0 7 -44 7 -98z m-190 -18 c41 -84 49 -108 39 -115 -18 -11 -30
-11 -68 2 l-31 11 0 104 c0 57 2 104 4 104 2 0 28 -48 56 -106z m-3100 -6 c7
-24 16 -45 21 -48 5 -4 12 -20 15 -38 l7 -32 -63 0 -62 0 7 38 c8 45 42 122
54 122 4 0 14 -19 21 -42z m1580 -16 c0 -49 -4 -62 -25 -82 -22 -21 -30 -22
-63 -14 l-37 9 -3 73 -3 72 66 0 65 0 0 -58z m1150 16 c1 -7 14 -29 30 -48 38
-43 39 -70 5 -70 -15 0 -39 7 -55 15 -27 14 -30 20 -30 65 0 47 2 50 25 50 14
0 25 -6 25 -12z m-1555 -55 c17 -26 17 -27 -5 -45 -30 -24 -110 -24 -140 0
-18 14 -22 25 -16 45 6 26 9 27 75 27 63 0 70 -2 86 -27z"/>
<path d="M4535 2689 c-21 -14 -40 -18 -62 -15 -18 3 -36 0 -39 -6 -5 -7 -1 -9
9 -5 10 3 17 2 17 -3 0 -5 11 -12 25 -16 21 -5 25 -12 25 -40 0 -19 4 -34 8
-34 12 0 54 101 48 116 -3 7 0 15 7 18 7 2 8 5 2 5 -5 1 -23 -8 -40 -20z"/>
<path d="M4550 2520 c0 -5 4 -10 9 -10 6 0 13 5 16 10 3 6 -1 10 -9 10 -9 0
-16 -4 -16 -10z"/>
</g>
</svg>
