<?xml version="1.0" standalone="no"?>
<!DOCTYPE svg PUBLIC "-//W3C//DTD SVG 20010904//EN"
 "http://www.w3.org/TR/2001/REC-SVG-20010904/DTD/svg10.dtd">
<svg version="1.0" xmlns="http://www.w3.org/2000/svg"
 width="580.000000pt" height="400.000000pt" viewBox="0 0 580.000000 400.000000"
 preserveAspectRatio="xMidYMid meet">
<metadata>
Created by potrace 1.16, written by Peter Selinger 2001-2019
</metadata>
<g transform="translate(0.000000,400.000000) scale(0.100000,-0.100000)"
fill="#000000" stroke="none">
<path d="M2600 3664 c-145 -17 -415 -58 -487 -73 -393 -84 -801 -257 -1157
-489 -51 -34 -89 -52 -109 -52 -30 0 -30 0 -12 -20 18 -20 18 -21 0 -34 -18
-13 -18 -14 3 -25 24 -13 29 -36 11 -47 -6 -3 -16 -1 -22 5 -18 18 -27 13 -27
-14 0 -21 -5 -25 -32 -25 l-32 0 29 -30 c28 -29 28 -30 10 -50 -10 -11 -29
-20 -42 -20 -27 0 -27 0 -8 -47 8 -19 15 -37 15 -39 0 -11 -39 -2 -51 12 -12
14 -14 14 -20 -5 -5 -11 -22 -24 -41 -29 -31 -8 -31 -9 -10 -16 13 -4 22 -15
22 -27 0 -17 5 -18 38 -13 31 5 41 2 61 -20 22 -24 23 -26 6 -33 -34 -12 -139
-3 -174 16 -22 12 -23 12 -16 -5 10 -24 10 -44 0 -67 -6 -13 -4 -16 9 -11 22
8 62 -20 82 -57 11 -22 21 -30 34 -26 11 3 27 -1 36 -8 16 -11 15 -14 -13 -28
-23 -13 -38 -14 -64 -7 -69 20 -188 8 -136 -14 9 -3 7 -9 -6 -19 -16 -13 -13
-16 32 -35 26 -11 59 -18 73 -15 27 5 53 -18 45 -40 -4 -11 -23 -13 -81 -11
-43 2 -77 0 -81 -6 -3 -6 -18 -10 -33 -10 -25 -1 -26 -1 -8 -15 12 -9 17 -22
14 -38 -4 -20 -1 -23 23 -19 39 6 57 -28 29 -53 -19 -17 -19 -19 -3 -37 9 -10
24 -16 34 -13 21 7 69 -14 69 -30 0 -21 -44 -32 -122 -30 l-78 1 0 -27 c0 -15
-3 -34 -6 -43 -5 -12 0 -16 20 -16 14 0 26 -4 26 -10 0 -5 17 -10 38 -10 39 0
83 -22 70 -35 -4 -4 -29 -10 -55 -13 -26 -2 -57 -11 -68 -18 -11 -8 -27 -14
-37 -14 -20 0 -23 -13 -8 -39 7 -15 18 -18 52 -14 59 5 75 -7 53 -41 -13 -20
-26 -26 -51 -26 -23 0 -34 -5 -34 -15 0 -8 -9 -23 -21 -34 -28 -26 -9 -37 59
-32 41 2 52 0 52 -12 0 -9 -17 -19 -46 -26 -39 -10 -45 -15 -41 -31 3 -13 -2
-26 -16 -36 -20 -14 -21 -16 -5 -25 26 -15 22 -28 -12 -43 l-31 -12 21 -19
c17 -16 34 -19 89 -17 51 3 71 -1 81 -12 16 -20 27 -20 65 0 43 22 155 23 189
1 25 -17 26 -21 26 -106 0 -106 -6 -114 -99 -131 -114 -20 -163 -45 -228 -113
-83 -86 -108 -150 -108 -277 0 -109 22 -178 80 -251 37 -48 127 -112 183 -131
51 -18 4368 -25 4452 -8 71 15 172 80 221 142 92 117 112 294 47 422 -11 21
-48 67 -81 101 -70 70 -140 103 -240 112 -77 8 -87 23 -87 128 0 51 5 88 13
99 27 36 164 41 215 8 20 -13 26 -13 56 3 25 14 46 17 89 12 49 -5 57 -3 78
19 12 13 18 24 13 24 -6 0 -19 6 -29 14 -19 14 -19 15 -2 34 18 20 18 20 -2
27 -14 4 -21 15 -21 31 0 20 -7 26 -45 35 -28 7 -45 17 -45 26 0 13 11 15 55
11 40 -3 59 -1 67 10 10 11 9 16 -5 23 -9 6 -17 19 -17 29 0 16 -7 20 -38 20
-31 0 -41 5 -52 26 -19 34 -1 46 57 41 30 -3 43 0 47 10 10 26 6 43 -9 43 -9
0 -27 7 -40 16 -14 9 -32 13 -40 10 -9 -3 -32 1 -52 9 -46 19 -34 35 31 42 26
3 49 10 52 14 3 5 13 9 23 9 15 0 18 8 17 43 l-1 42 -75 -1 c-74 -2 -130 10
-130 27 0 16 49 41 68 34 12 -3 26 1 36 10 20 21 20 32 0 43 -11 6 -14 16 -9
32 6 17 13 21 36 18 25 -4 28 -2 23 18 -4 15 1 26 17 38 l23 16 -31 0 c-18 0
-34 4 -38 9 -3 6 -40 9 -81 7 -57 -2 -77 0 -81 11 -9 23 16 42 55 41 20 -1 55
6 77 16 35 15 38 18 22 28 -18 9 -18 11 -1 29 17 19 15 19 -47 19 -35 0 -79
-4 -97 -9 -37 -11 -82 3 -82 26 0 13 10 16 46 14 15 -2 25 7 34 28 13 33 55
65 73 58 8 -3 12 10 12 39 0 36 -3 43 -15 38 -15 -7 -70 -14 -128 -16 -47 -2
-61 16 -31 41 18 15 33 19 62 14 32 -5 37 -3 37 14 0 11 10 24 22 30 21 9 20
10 -15 17 -22 4 -37 13 -37 21 0 20 -19 19 -42 -2 -27 -25 -34 -7 -17 42 l16
44 -30 3 c-16 2 -35 11 -41 20 -8 14 -5 23 18 47 l28 30 -33 3 c-26 2 -35 8
-37 25 -3 20 -6 21 -23 10 -16 -10 -21 -9 -29 3 -7 11 -3 21 15 37 23 20 24
23 7 32 -14 8 -15 13 -4 30 11 19 10 21 -16 21 -16 0 -55 19 -94 45 -167 112
-280 173 -533 290 -145 67 -411 155 -590 196 -44 11 -172 33 -285 50 -190 29
-226 32 -500 34 -162 2 -311 1 -330 -1z m215 -204 c4 -14 -3 -35 -24 -66 -60
-91 -60 -194 0 -289 35 -56 29 -68 -32 -63 -48 3 -47 1 -33 80 6 33 4 36 -13
32 -10 -3 -24 -18 -30 -34 -14 -38 -47 -57 -116 -68 -88 -14 -92 -8 -111 168
-20 184 -21 178 9 192 14 6 25 19 25 29 0 15 14 18 98 24 53 3 102 8 107 10 6
2 33 4 62 4 43 1 53 -2 58 -19z m447 -18 c20 -17 10 -45 -28 -74 -37 -29 -67
-104 -68 -168 -1 -43 6 -69 27 -109 15 -29 24 -57 21 -62 -6 -11 -115 0 -128
12 -6 5 -1 18 12 32 41 43 22 64 -25 27 -56 -44 -130 -44 -187 1 -106 84 -68
301 57 324 54 10 107 -19 132 -72 29 -64 45 -56 45 21 0 83 13 98 78 89 26 -3
55 -12 64 -21z m-972 -31 c0 -5 13 -11 29 -14 35 -7 34 -6 57 -206 l17 -154
-34 -28 c-19 -16 -46 -29 -61 -29 -27 0 -28 2 -28 56 0 47 -3 55 -17 52 -10
-2 -20 -17 -24 -38 -9 -43 -35 -65 -103 -84 -89 -26 -90 -26 -111 59 -13 51
-16 78 -9 85 6 6 34 13 63 17 45 5 55 3 76 -17 21 -19 25 -21 30 -8 10 25 -30
142 -49 146 -10 2 -16 -3 -16 -16 0 -11 -3 -27 -6 -36 -7 -17 -98 -50 -118
-43 -8 3 -22 31 -31 62 -19 67 -13 79 49 96 59 16 84 14 116 -10 35 -25 46
-14 30 33 -14 42 -5 65 29 72 14 3 31 7 36 9 22 7 75 5 75 -4z m1336 -20 c16
-5 45 -23 64 -40 l35 -31 -24 -68 c-13 -37 -42 -113 -64 -169 -39 -100 -41
-103 -72 -103 -17 0 -36 -5 -42 -11 -8 -8 -17 -8 -32 0 -23 13 -19 37 9 46 25
8 78 89 91 139 13 48 5 104 -21 157 -23 44 -25 60 -8 77 14 14 23 15 64 3z
m-171 -17 c57 -37 73 -170 31 -261 -37 -80 -96 -108 -161 -77 -54 25 -69 55
-69 133 0 133 54 221 135 221 22 0 50 -7 64 -16z m492 -78 c96 -33 113 -43
113 -69 0 -31 -186 -225 -201 -210 -13 13 -44 265 -36 287 9 22 42 20 124 -8z
m-2151 -21 c4 -10 14 -13 30 -9 21 5 26 1 39 -30 15 -37 85 -286 85 -304 0
-24 -59 -72 -118 -98 -34 -15 -65 -24 -69 -21 -3 4 -17 97 -31 207 -24 187
-24 201 -9 218 10 10 14 22 10 26 -9 9 16 26 40 26 10 0 20 -7 23 -15z m-200
-76 c3 -6 19 -9 35 -5 34 7 35 3 44 -125 5 -64 4 -99 -3 -103 -12 -7 -172 133
-172 151 0 7 9 17 19 23 12 6 17 17 14 28 -3 12 3 22 19 29 30 15 35 15 44 2z
m2693 -44 c40 -20 48 -28 44 -45 -3 -11 -1 -20 5 -20 6 0 13 -9 17 -19 4 -14
-20 -62 -80 -163 -84 -138 -88 -143 -121 -144 -18 0 -37 -3 -40 -7 -9 -9 -34
3 -34 17 0 6 -9 19 -20 29 -11 9 -20 23 -20 30 0 34 107 319 123 329 7 4 22 5
33 2 12 -3 25 -1 28 5 9 15 10 15 65 -14z m-534 -37 c3 -18 6 -73 8 -123 2
-76 0 -90 -15 -93 -9 -2 -24 5 -35 16 -10 10 -26 22 -35 25 -24 8 -23 34 3
104 12 32 26 68 30 81 13 33 37 27 44 -10z m-2399 -39 c3 -6 18 -9 33 -6 19 4
35 -3 60 -24 30 -25 36 -37 41 -86 7 -62 4 -83 -12 -83 -6 0 -46 32 -89 71
-68 61 -78 74 -67 87 7 8 12 23 10 34 -4 20 13 25 24 7z m2667 -21 c2 -7 -12
-53 -32 -103 l-36 -90 -47 -3 c-48 -3 -92 12 -86 29 6 17 172 179 184 179 6 0
14 -6 17 -12z m482 -78 c56 -32 65 -44 65 -90 0 -44 15 -44 44 0 16 25 34 40
47 40 11 0 43 -22 71 -48 45 -43 49 -51 39 -70 -7 -14 -21 -22 -36 -22 -27 0
-31 -11 -14 -41 5 -11 9 -29 7 -41 -3 -20 -3 -20 -30 2 -16 12 -28 17 -28 11
0 -18 -31 -41 -58 -41 l-27 -1 27 -15 c19 -10 25 -19 21 -31 -5 -14 -1 -15 34
-10 32 6 46 3 64 -12 29 -24 17 -41 -27 -42 -40 0 -126 15 -143 25 -11 7 -13
3 -8 -20 4 -23 0 -35 -18 -52 l-24 -23 -36 26 c-19 15 -35 30 -35 33 0 4 17
23 37 44 31 32 35 40 23 48 -10 6 -23 4 -39 -6 -39 -26 -82 -21 -144 17 -31
19 -56 41 -57 49 0 19 77 140 89 140 5 0 29 -15 53 -33 36 -28 43 -39 44 -68
0 -22 5 -34 14 -34 16 0 79 101 80 128 0 21 -13 22 -30 2 -7 -8 -19 -15 -27
-15 -25 0 -113 50 -113 65 0 27 59 113 79 115 2 0 27 -14 56 -30z m-3291 -2
c21 2 47 -19 206 -171 129 -124 132 -101 -27 -207 -159 -106 -176 -115 -193
-94 -7 7 -19 14 -26 14 -17 0 -17 5 -3 32 10 19 9 20 -14 14 -14 -3 -29 -1
-32 4 -4 6 -15 8 -26 5 -10 -3 -28 -8 -40 -11 -19 -5 -20 -4 -8 18 16 27 13
46 -9 71 -14 16 -14 19 -2 28 8 5 23 7 32 5 10 -2 22 2 29 10 6 8 18 14 26 14
12 0 13 3 4 14 -6 7 -8 21 -5 31 5 13 3 16 -7 13 -8 -3 -22 -1 -31 4 -12 5
-18 5 -18 -2 0 -5 -9 -10 -19 -10 -15 0 -19 7 -19 31 1 17 7 33 14 36 7 2 10
11 7 19 -3 8 4 17 17 22 22 8 22 9 -9 21 -17 8 -31 17 -31 22 0 4 30 26 67 48
54 32 70 38 81 28 8 -6 24 -11 36 -9z m431 -109 c36 -34 65 -67 65 -74 0 -16
-126 -82 -136 -72 -10 10 -23 93 -23 155 -1 69 11 68 94 -9z m1520 16 c406
-42 739 -148 1086 -347 92 -52 249 -160 249 -171 0 -4 -12 -12 -27 -18 -30
-11 -24 -20 27 -39 45 -17 60 -29 60 -48 0 -12 -9 -14 -45 -9 -27 4 -45 3 -45
-3 0 -6 -16 -10 -35 -10 -37 0 -46 -13 -19 -28 11 -6 15 -17 11 -31 -4 -18 -1
-21 23 -21 37 0 55 -28 33 -52 -22 -25 0 -62 33 -55 15 3 34 -3 47 -14 19 -16
20 -20 7 -29 -8 -5 -35 -10 -60 -10 -133 1 -129 2 -128 -28 1 -15 -2 -35 -6
-44 -7 -15 -3 -18 18 -18 14 0 26 -4 26 -10 0 -5 17 -10 38 -10 20 -1 48 -7
62 -15 l25 -13 -28 -11 c-16 -6 -41 -11 -56 -11 -15 0 -42 -7 -59 -16 -40 -19
-48 -14 -56 37 -10 64 -88 141 -166 162 -33 9 -85 17 -117 17 -31 0 -85 9
-120 21 -61 21 -64 21 -110 4 -61 -22 -123 -30 -123 -17 0 6 15 14 33 17 44
10 57 22 57 55 0 26 3 28 58 34 31 3 99 18 149 32 51 15 103 24 116 20 39 -9
90 -49 127 -99 l35 -47 3 31 c2 21 -5 43 -22 68 -14 20 -26 40 -26 44 0 4 11
24 24 45 25 39 42 102 27 102 -5 0 -21 -20 -36 -46 -31 -53 -68 -75 -90 -53
-12 12 -13 35 -5 138 6 69 8 127 5 129 -9 9 -46 -87 -57 -146 -6 -31 -15 -66
-20 -78 -10 -21 -66 -60 -74 -51 -3 3 -1 22 5 44 26 91 8 96 -38 11 -37 -69
-65 -97 -97 -98 -31 0 -35 9 -18 42 8 16 14 41 12 55 -3 24 -6 22 -37 -27 -36
-56 -84 -92 -116 -88 -17 3 -21 13 -26 62 -7 58 -6 58 32 93 41 37 51 60 22
48 -45 -18 -52 -18 -46 4 9 36 -15 23 -37 -19 -22 -43 -45 -60 -84 -60 -32 0
-35 28 -10 91 14 33 15 42 4 49 -11 7 -4 24 27 79 37 63 39 86 8 63 -31 -22
-79 -100 -100 -163 -14 -40 -27 -74 -29 -76 -2 -3 -14 5 -25 16 -18 18 -19 25
-10 42 11 22 7 35 -9 25 -17 -10 -42 -73 -42 -105 0 -42 38 -100 89 -135 28
-20 38 -33 32 -39 -7 -7 -19 -7 -36 1 -40 19 -73 15 -80 -9 -4 -11 -4 -23 -1
-26 3 -4 -1 -15 -11 -25 -15 -17 -15 -19 2 -38 10 -11 24 -20 32 -20 7 0 14
-6 14 -12 1 -7 2 -17 3 -23 0 -5 23 -41 49 -80 27 -38 63 -92 82 -120 18 -27
48 -67 66 -88 27 -31 31 -43 26 -73 -3 -20 -20 -58 -38 -85 l-31 -49 20 -67
c11 -38 23 -85 27 -106 4 -23 20 -54 42 -78 40 -44 69 -52 59 -16 -3 12 -6 27
-6 32 0 6 -12 23 -27 39 -30 33 -55 124 -46 168 7 35 113 118 149 118 71 0 98
-50 69 -132 -8 -24 -15 -78 -15 -123 0 -94 -12 -145 -40 -170 -19 -17 -45 -19
-388 -18 l-367 1 -3 67 c-4 89 4 97 82 89 34 -3 74 -14 90 -24 23 -14 34 -15
57 -7 35 14 36 17 4 47 l-25 23 28 17 c18 12 33 14 44 9 44 -23 83 6 64 47 -6
13 -19 25 -28 28 -16 4 -17 7 -3 33 14 26 13 29 -5 37 -13 6 -18 15 -15 26 4
14 -6 20 -55 30 -47 10 -60 17 -58 29 3 11 12 15 31 13 21 -2 27 1 27 18 0 17
6 20 40 20 23 0 40 5 40 11 0 7 8 18 18 25 15 12 14 13 -10 14 -16 0 -28 4
-28 9 0 6 -27 8 -63 5 -75 -5 -106 10 -89 43 8 14 8 23 0 31 -9 9 -5 12 15 12
21 0 27 4 25 17 -2 11 6 19 21 23 54 13 21 39 -53 41 -11 0 -31 13 -44 30
l-24 29 32 0 c17 0 40 5 51 10 17 10 18 13 5 25 -8 8 -20 15 -26 15 -21 0 -4
24 21 31 13 4 20 8 14 8 -5 1 -2 8 8 15 17 13 16 14 -3 19 -11 3 -20 12 -20
21 0 20 -10 20 -24 0 -15 -20 -132 -28 -140 -9 -5 15 34 45 59 45 15 0 62 40
48 40 -5 0 -1 5 7 10 24 16 -8 32 -52 25 -21 -3 -38 -3 -38 1 0 15 22 44 35
44 9 0 13 10 12 28 -2 23 2 27 21 25 14 -2 22 3 22 12 0 8 5 15 10 15 6 0 10
5 10 10 0 6 -9 10 -20 10 -11 0 -20 5 -20 11 0 6 -7 8 -16 5 -53 -20 -64 -19
-64 8 0 14 5 26 11 26 5 0 7 5 4 10 -3 6 1 13 11 17 15 6 14 7 -5 15 -18 6
-22 13 -17 32 5 20 3 23 -19 18 -24 -4 -33 7 -18 22 15 14 10 46 -7 46 -10 0
-25 10 -33 23 l-16 22 0 -22 c-1 -16 -7 -23 -21 -23 -18 0 -19 -3 -10 -20 9
-17 8 -20 -7 -20 -17 -1 -17 -1 0 -14 23 -18 22 -36 -3 -36 -11 0 -20 -7 -20
-15 0 -9 -9 -15 -22 -15 -20 0 -21 -1 -3 -20 15 -16 15 -22 5 -35 -7 -8 -19
-15 -27 -15 -11 0 -12 -8 -7 -35 6 -34 -2 -44 -21 -26 -6 6 -19 3 -33 -9 -30
-25 -19 -50 23 -50 32 0 64 -24 51 -38 -9 -8 -82 -8 -117 1 -23 6 -26 4 -26
-23 0 -23 5 -30 19 -30 11 0 27 -13 36 -30 11 -19 25 -30 39 -30 30 0 38 -17
13 -30 -15 -8 -30 -8 -53 -1 -19 6 -46 7 -67 2 -19 -5 -31 -9 -26 -10 5 -1 3
-8 -4 -16 -10 -12 -5 -17 24 -29 20 -8 43 -13 51 -9 18 6 47 -15 39 -29 -3 -5
-30 -8 -60 -7 -29 2 -57 0 -61 -4 -3 -4 -15 -7 -27 -7 -15 0 -17 -3 -8 -12 7
-7 12 -20 12 -30 0 -10 5 -15 13 -12 8 3 19 -1 26 -9 9 -11 8 -17 -4 -27 -18
-15 -3 -40 25 -40 29 0 50 -11 50 -25 0 -19 -25 -24 -93 -21 -46 2 -57 0 -52
-11 3 -8 1 -23 -5 -33 -8 -15 -5 -19 23 -24 72 -14 80 -16 85 -21 10 -10 -17
-29 -45 -31 -77 -6 -109 -46 -42 -52 58 -5 64 -10 44 -32 -10 -11 -26 -20 -36
-20 -10 0 -23 -9 -29 -20 -12 -23 -35 -27 -26 -5 5 14 -11 21 -38 16 -11 -2
-36 19 -36 30 0 5 9 9 21 9 16 0 19 4 14 20 -4 11 -2 20 4 20 6 0 11 7 11 15
0 13 -9 14 -45 9 -37 -5 -45 -3 -45 10 0 9 12 21 26 26 27 11 28 37 0 32 -9
-2 -16 0 -16 3 0 13 24 50 37 58 20 12 4 29 -22 23 -21 -5 -23 -3 -22 31 1 21
-4 38 -11 41 -7 2 -10 7 -7 12 2 4 -4 15 -14 24 -18 17 -20 16 -26 -4 -4 -12
-4 -24 -1 -27 3 -4 -3 -12 -14 -20 -10 -7 -17 -20 -14 -27 3 -7 -2 -16 -10
-19 -9 -4 -13 -13 -10 -20 3 -9 -3 -16 -15 -20 -27 -7 -27 -27 -1 -27 11 0 20
-7 20 -15 0 -13 -7 -15 -35 -9 -28 5 -35 3 -35 -10 0 -9 7 -16 15 -16 8 0 15
-4 15 -9 0 -5 3 -16 6 -25 5 -13 -1 -16 -31 -16 -31 0 -36 -2 -25 -14 6 -8 21
-16 33 -18 34 -5 23 -23 -11 -20 -34 4 -49 -12 -33 -32 7 -8 10 -20 9 -27 -2
-8 7 -15 20 -17 19 -3 21 -6 11 -18 -6 -7 -15 -11 -20 -8 -13 7 -49 -5 -49
-17 0 -6 13 -15 30 -20 32 -12 31 -34 -1 -26 -10 3 -23 -1 -29 -8 -9 -10 -6
-14 12 -17 29 -4 30 -20 1 -33 -13 -5 -23 -16 -23 -23 0 -7 5 -10 10 -7 18 11
32 -6 15 -19 -9 -6 -17 -18 -18 -26 -2 -8 -6 -20 -10 -26 -7 -12 78 -28 95
-18 5 3 25 3 44 0 33 -7 34 -8 34 -55 l0 -47 -221 2 c-121 1 -223 5 -226 8
-10 10 -12 229 -2 280 5 29 21 65 38 86 41 52 51 74 51 120 0 22 6 54 14 69 8
15 18 63 21 107 3 43 8 98 11 122 5 43 6 44 42 41 58 -3 67 -1 96 26 29 27 36
75 11 75 -26 0 -17 14 43 71 57 54 152 205 152 242 0 24 -27 21 -41 -5 l-12
-22 -15 22 c-23 34 -29 27 -28 -35 0 -44 -6 -69 -24 -100 -28 -50 -38 -53 -45
-15 -23 113 -43 135 -41 46 1 -36 -3 -59 -11 -61 -6 -2 -13 6 -15 19 -2 13
-10 23 -18 23 -11 0 -14 -9 -12 -35 2 -19 8 -39 13 -44 31 -33 -18 -79 -60
-56 -19 10 -26 7 -50 -19 -26 -28 -32 -30 -59 -20 -19 6 -32 19 -36 35 -6 22
-11 25 -34 19 -20 -4 -34 0 -50 15 -25 24 -25 27 14 130 17 43 24 80 22 109
-4 61 -24 63 -32 4 -9 -62 -26 -105 -40 -100 -6 2 -12 33 -14 70 -2 49 -7 67
-17 67 -18 0 -28 -49 -20 -105 7 -41 6 -45 -14 -45 -26 0 -26 -9 1 -72 17 -40
19 -51 8 -58 -12 -7 -12 -15 0 -49 17 -52 39 -71 89 -78 53 -7 58 -17 27 -47
-14 -13 -26 -32 -26 -42 -1 -66 -113 -91 -265 -59 -85 18 -128 18 -178 0 -44
-15 -97 -3 -97 22 0 11 -6 13 -22 8 -21 -6 -35 -7 -70 -5 -7 1 -29 -1 -48 -5
-46 -8 -92 24 -71 49 8 9 11 26 7 41 -6 23 -4 25 27 25 31 0 34 2 29 25 -4 21
-1 25 21 25 15 0 31 9 41 25 23 34 20 38 -18 31 -20 -4 -37 -2 -41 4 -3 5 -24
10 -46 10 -31 0 -45 6 -64 28 -13 15 -25 30 -25 35 0 4 19 7 43 7 49 0 113 34
84 46 -46 17 8 66 243 217 330 212 744 358 1140 401 167 18 375 19 545 1z
m-1712 -1310 c4 -22 5 -59 2 -82 -3 -23 -2 -59 4 -80 5 -21 11 -87 13 -147 l3
-109 -95 2 c-52 1 -160 2 -240 2 -102 0 -147 3 -152 12 -4 7 -8 47 -8 89 0 72
2 79 25 94 26 17 43 18 175 11 83 -4 103 4 94 38 -5 19 0 25 29 34 51 17 63
35 32 49 -14 6 -25 18 -25 26 0 9 -6 13 -14 10 -14 -5 -46 20 -46 36 0 5 12
17 26 26 22 15 31 16 60 5 24 -9 39 -9 51 -2 10 6 14 11 8 11 -5 0 -3 5 5 10
27 18 44 6 53 -35z m2623 8 c9 -20 28 -52 44 -72 49 -62 59 -139 28 -226 -9
-25 -47 -111 -55 -123 -4 -7 -88 -9 -141 -4 -44 4 -52 8 -46 21 3 9 6 48 6 86
0 40 6 85 15 105 8 19 28 80 45 135 35 119 33 115 64 115 19 0 29 -8 40 -37z
m-2320 -73 c6 -6 15 -47 19 -93 4 -45 13 -120 20 -167 10 -61 11 -86 3 -91
-19 -12 -237 -4 -251 10 -17 17 -16 208 2 241 8 14 30 47 49 74 l35 48 56 -6
c30 -4 60 -11 67 -16z m134 -9 c5 -11 15 -62 21 -113 6 -51 13 -111 16 -133
12 -93 11 -98 -22 -100 -53 -3 -55 3 -55 185 0 91 3 170 7 173 11 12 22 8 33
-12z m2536 -117 c16 -11 28 -12 53 -3 25 9 46 9 86 0 46 -10 58 -10 84 3 44
23 92 20 119 -8 19 -21 22 -34 22 -110 0 -76 -2 -86 -21 -97 -29 -15 -589 -20
-595 -4 -5 12 23 85 31 85 3 0 10 -11 15 -25 12 -31 24 -32 44 -3 12 17 15 37
10 84 -9 89 1 102 73 96 32 -3 67 -11 79 -18z m-1597 -54 c110 14 117 10 126
-84 3 -42 4 -79 1 -84 -3 -5 -104 -9 -228 -8 l-223 1 0 45 c0 45 0 45 32 42
18 -1 50 7 70 18 21 11 48 20 61 20 19 0 21 4 16 24 -6 27 17 39 48 24 9 -4
53 -3 97 2z m-1924 -379 c16 -9 32 -28 36 -42 9 -30 11 -306 3 -336 -9 -31
-70 -47 -160 -40 -87 6 -136 31 -183 89 -11 15 -10 24 9 63 24 49 21 113 -6
136 -8 6 -14 17 -14 24 0 20 48 74 81 90 69 36 186 44 234 16z m1842 4 c53
-26 54 -30 51 -216 l-3 -174 -35 -17 c-47 -23 -204 -25 -248 -3 -29 15 -142
138 -142 155 0 5 16 18 35 30 72 44 66 144 -10 176 -22 9 -70 14 -130 14 -88
0 -95 -1 -81 -16 13 -13 16 -43 16 -172 0 -86 -4 -162 -8 -167 -12 -17 -61
-35 -94 -35 l-30 0 7 47 7 47 -30 -32 c-29 -31 -33 -32 -111 -32 l-81 0 0 85
0 85 60 0 c47 0 64 -4 80 -20 20 -20 20 -20 20 35 l0 54 -25 -24 c-20 -21 -34
-25 -80 -25 l-55 0 0 68 c0 40 5 73 12 80 15 15 103 16 131 0 12 -6 27 -18 34
-27 11 -14 12 -11 13 17 l0 32 -137 0 c-107 0 -134 -3 -125 -12 15 -15 17
-310 2 -339 -6 -10 -17 -19 -25 -19 -8 0 -15 -4 -15 -10 0 -5 -22 -10 -50 -10
-27 0 -50 1 -50 3 0 1 7 23 15 50 16 54 9 60 -20 14 -20 -32 -21 -32 -107 -35
-101 -3 -102 -3 -96 103 l3 60 49 3 c66 4 91 -3 104 -30 9 -19 11 -13 11 41
l1 64 -21 -27 c-18 -23 -28 -26 -80 -26 -55 0 -59 2 -65 26 -9 37 2 115 17
125 8 5 37 9 66 9 41 0 58 -5 82 -26 l31 -26 0 31 0 31 -142 0 c-116 0 -139
-2 -125 -13 16 -11 17 -31 15 -176 l-3 -164 -30 -18 c-32 -19 -149 -26 -159
-10 -4 5 13 24 35 42 102 80 107 232 12 320 -27 24 -42 46 -39 55 8 22 1499
21 1543 -1z m280 -11 l34 -26 -3 -76 -3 -77 -95 0 -95 0 -3 74 c-3 71 -1 76
25 102 38 38 93 39 140 3z m1863 18 l196 -7 44 -33 c62 -46 72 -68 49 -106
-25 -41 -24 -100 2 -143 l21 -34 -45 -44 c-52 -50 -104 -65 -222 -65 -61 0
-76 3 -83 18 -5 9 -9 90 -8 180 1 150 3 165 20 178 18 13 16 14 -29 14 -45 0
-47 -1 -29 -14 16 -12 20 -29 23 -100 3 -95 -3 -136 -22 -136 -6 0 -57 56
-112 125 -97 120 -101 124 -139 125 -37 0 -38 -1 -23 -18 14 -16 17 -43 17
-175 l0 -157 -27 -17 c-16 -11 -46 -17 -77 -18 -56 0 -58 4 -42 70 l7 30 -31
-38 -32 -38 -82 3 -81 3 -3 83 -3 82 61 0 c47 0 64 -4 80 -20 11 -11 20 -19
21 -17 5 15 8 85 4 96 -4 10 -11 6 -26 -13 -19 -24 -27 -27 -78 -24 l-56 3 -3
57 c-4 85 6 98 77 98 48 0 63 -4 85 -25 34 -32 36 -31 36 5 l0 30 -140 0 -140
0 14 -22 c10 -17 14 -58 15 -155 1 -142 -8 -182 -39 -190 -11 -3 -20 -9 -20
-14 0 -12 -162 -11 -194 1 -51 19 -53 48 -11 160 53 147 73 187 98 205 21 14
20 15 -21 15 -37 0 -42 -2 -34 -16 11 -19 -75 -235 -96 -242 -7 -2 -19 12 -28
35 -9 21 -31 73 -51 116 -19 43 -32 85 -29 93 4 11 -6 14 -51 14 l-56 0 26
-20 c14 -11 39 -55 57 -97 18 -43 43 -99 56 -125 42 -83 28 -131 -41 -144 -54
-10 -83 19 -130 126 -99 229 -111 255 -124 255 -7 0 -42 -73 -81 -170 -51
-125 -76 -176 -97 -192 -28 -23 -83 -31 -83 -13 0 6 -9 10 -20 10 -34 0 -40
32 -40 201 0 137 3 165 17 181 9 10 22 18 30 18 7 0 13 5 13 10 0 11 1383 12
1710 2z m-3732 -54 c111 -52 124 -252 20 -316 -18 -11 -55 -26 -82 -32 -40 -9
-53 -8 -72 5 -24 15 -24 18 -24 186 0 167 0 170 23 179 29 11 81 3 135 -22z
m1207 -22 c60 -40 44 -130 -28 -153 -21 -7 -49 -10 -63 -7 -23 6 -24 10 -24
83 0 48 5 82 13 90 15 15 69 8 102 -13z m2340 -187 c59 -72 108 -138 109 -147
1 -14 -12 -17 -83 -20 -89 -3 -143 12 -155 44 -8 21 -8 239 1 247 3 4 9 7 13
7 4 0 55 -59 115 -131z m-1241 62 c16 -32 25 -64 22 -70 -11 -17 -105 -14
-112 4 -7 16 40 125 54 125 4 0 21 -26 36 -59z m-409 -110 c0 -83 0 -85 -30
-102 -51 -30 -130 -18 -156 23 -10 16 -12 152 -2 162 4 4 48 5 98 4 l90 -3 0
-84z m-695 -22 c33 -44 58 -85 54 -90 -9 -15 -88 -10 -122 7 -22 11 -33 24
-37 47 -11 64 6 116 38 117 4 0 34 -36 67 -81z m1163 -4 c24 -49 21 -68 -10
-82 -32 -15 -153 -17 -153 -3 0 6 -6 10 -14 10 -8 0 -16 7 -20 15 -5 14 14 72
30 88 4 4 39 7 79 7 l71 0 17 -35z"/>
</g>
</svg>
