<?xml version="1.0" standalone="no"?>
<!DOCTYPE svg PUBLIC "-//W3C//DTD SVG 20010904//EN"
 "http://www.w3.org/TR/2001/REC-SVG-20010904/DTD/svg10.dtd">
<svg version="1.0" xmlns="http://www.w3.org/2000/svg"
 width="580.000000pt" height="400.000000pt" viewBox="0 0 580.000000 400.000000"
 preserveAspectRatio="xMidYMid meet">
<metadata>
Created by potrace 1.16, written by Peter Selinger 2001-2019
</metadata>
<g transform="translate(0.000000,400.000000) scale(0.100000,-0.100000)"
fill="#000000" stroke="none">
<path d="M2597 3594 c-4 -4 -58 -11 -119 -16 -163 -12 -260 -24 -443 -57 -97
-17 -236 -48 -295 -66 -30 -9 -73 -20 -95 -25 -22 -5 -60 -15 -85 -23 -25 -8
-79 -24 -120 -37 -41 -12 -83 -26 -92 -31 -10 -5 -23 -9 -28 -9 -6 0 -30 -9
-52 -20 -23 -11 -50 -20 -59 -20 -10 0 -21 -4 -24 -10 -3 -5 -40 -10 -81 -10
-86 0 -138 22 -199 83 -36 36 -40 37 -107 37 -65 0 -72 -2 -114 -36 -24 -20
-44 -45 -44 -55 0 -10 -4 -21 -10 -24 -25 -16 2 -175 29 -175 17 0 51 -109 51
-161 0 -34 -14 -86 -44 -167 -49 -130 -59 -185 -59 -317 1 -149 22 -244 84
-367 45 -90 47 -113 16 -160 -32 -46 -78 -145 -88 -188 -4 -19 -13 -53 -20
-75 -17 -55 -23 -299 -9 -350 6 -22 23 -74 37 -115 16 -46 28 -106 30 -155 5
-87 1 -99 -64 -200 -18 -27 -33 -57 -33 -67 0 -9 -4 -20 -10 -23 -13 -8 -13
-62 0 -70 6 -3 10 -13 10 -21 0 -24 41 -79 77 -102 25 -17 48 -22 97 -22 59 0
68 3 113 39 64 50 109 64 193 59 53 -3 74 -9 101 -29 19 -14 42 -28 52 -32 9
-4 22 -18 27 -32 l10 -25 170 0 c163 0 170 -1 170 -20 0 -19 7 -20 155 -20 97
0 155 -4 155 -10 0 -7 318 -10 934 -10 613 0 937 -3 941 -10 3 -6 21 -10 40
-10 19 0 37 -4 40 -10 8 -13 102 -13 110 0 8 13 102 13 110 0 3 -5 33 -10 66
-10 33 0 59 4 59 10 0 14 83 13 114 -1 20 -9 29 -9 41 1 14 12 18 11 25 -1 8
-11 13 -12 30 -1 11 6 30 12 43 12 13 0 33 9 45 20 12 11 25 20 29 20 4 0 17
12 28 27 46 61 108 111 144 117 61 10 145 7 171 -7 54 -29 76 -43 105 -68 43
-38 100 -57 125 -41 11 7 28 12 38 12 10 0 39 22 65 48 l47 48 0 87 c0 51 -4
87 -10 87 -5 0 -10 6 -10 14 0 8 -7 16 -15 20 -8 3 -26 29 -40 57 -41 85 -33
207 20 310 8 15 15 46 15 69 0 22 4 40 9 40 8 0 21 95 21 160 0 53 -12 145
-21 155 -5 5 -9 24 -9 42 0 19 -9 53 -20 75 -11 23 -20 47 -20 54 0 6 -20 48
-45 93 -25 45 -45 90 -45 100 0 10 11 35 25 55 14 20 25 44 25 52 0 9 9 27 20
41 11 14 20 36 20 49 0 12 5 26 10 29 6 3 10 17 10 30 0 13 5 27 10 30 6 4 10
73 10 175 0 102 -4 171 -10 175 -5 3 -10 17 -10 30 0 13 -4 27 -10 30 -5 3
-10 15 -10 26 0 10 -8 38 -19 62 -37 86 -41 99 -41 149 0 61 17 126 41 153 63
74 73 133 35 218 -20 47 -31 58 -77 81 -29 14 -65 26 -80 26 -36 0 -97 -33
-149 -81 -24 -22 -53 -39 -66 -39 -12 0 -26 -4 -29 -10 -3 -5 -28 -10 -55 -10
-27 0 -52 5 -55 10 -3 6 -17 10 -30 10 -14 0 -40 9 -60 20 -20 11 -44 20 -55
20 -10 0 -22 5 -25 10 -3 6 -17 10 -30 10 -13 0 -27 5 -30 10 -3 6 -17 10 -30
10 -13 0 -27 5 -30 10 -3 6 -17 10 -30 10 -13 0 -26 4 -29 9 -3 5 -18 11 -33
14 -29 6 -59 14 -153 42 -30 9 -73 21 -95 25 -22 5 -58 13 -80 19 -135 37
-417 82 -650 103 -135 12 -688 21 -698 12z m543 -785 c80 -6 168 -13 195 -14
59 -4 190 -22 225 -30 14 -4 79 -15 145 -26 156 -24 272 -51 314 -72 19 -9 43
-17 55 -17 17 0 101 -35 169 -71 99 -53 153 -83 157 -88 3 -4 39 -34 80 -68
125 -102 255 -238 287 -301 8 -15 23 -36 33 -47 10 -11 33 -49 51 -85 19 -36
36 -67 39 -70 12 -10 60 -128 60 -146 1 -11 7 -30 15 -44 32 -56 6 -186 -54
-271 -33 -47 -107 -88 -171 -96 l-50 -6 0 57 c0 31 5 56 10 56 6 0 10 9 10 19
0 11 -4 23 -10 26 -5 3 -10 28 -10 55 0 60 -21 78 -73 61 -43 -14 -182 -13
-214 2 -22 10 -27 8 -44 -13 -25 -33 -20 -63 10 -70 14 -3 33 -20 43 -38 17
-31 17 -36 1 -85 -9 -29 -21 -55 -27 -59 -19 -13 -274 -9 -278 4 -2 6 -1 32 4
57 4 25 11 63 14 84 7 39 34 53 34 17 0 -30 29 -82 43 -77 7 2 10 13 9 23 -2
10 -4 32 -3 48 0 30 -20 83 -50 126 -10 15 -19 53 -22 99 -3 40 -10 78 -15 83
-11 11 -95 22 -152 21 -19 0 -107 -2 -195 -3 -137 -2 -170 -6 -234 -26 -42
-14 -97 -24 -131 -24 -50 0 -60 -3 -74 -25 -9 -13 -16 -33 -16 -43 0 -10 -11
-29 -25 -42 -31 -29 -31 -41 0 -70 22 -21 29 -22 45 -12 11 7 45 12 75 12 63
0 80 -11 113 -74 23 -43 21 -117 -4 -147 -8 -8 -14 -20 -14 -26 0 -13 -47 -19
-166 -22 -112 -3 -124 5 -123 84 1 29 -2 58 -6 64 -4 7 -54 11 -134 11 -71 0
-149 3 -175 6 -48 7 -64 24 -21 24 14 0 25 5 25 10 0 6 -10 10 -23 10 -28 0
-44 27 -52 90 -11 90 -24 176 -35 235 -6 33 -15 89 -21 125 -5 36 -14 92 -19
125 -27 156 -30 215 -14 241 10 15 26 24 42 24 38 0 15 18 -28 22 l-35 3 38
19 c43 21 58 44 51 73 -4 14 0 22 14 25 27 7 39 73 18 97 -8 9 -13 26 -10 37
7 26 -37 90 -59 86 -12 -2 -17 4 -17 22 0 19 6 25 28 28 65 8 218 7 352 -3z
m-537 -5 c4 -4 -5 -20 -18 -36 -14 -16 -25 -38 -25 -49 0 -12 -7 -19 -18 -19
-10 0 -23 -5 -29 -11 -9 -9 -21 -6 -48 10 -20 11 -49 21 -66 21 l-29 0 0 -69
c0 -39 4 -72 9 -75 4 -3 33 -6 64 -7 52 -2 57 -4 71 -33 8 -17 31 -47 50 -65
42 -41 45 -51 12 -51 -14 0 -28 -4 -31 -10 -3 -5 3 -10 14 -10 11 0 30 -10 42
-22 22 -24 22 -36 -1 -178 -10 -56 -13 -75 -50 -265 -12 -60 -25 -135 -30
-165 -5 -30 -16 -100 -25 -155 -9 -55 -20 -114 -26 -131 -5 -17 -9 -41 -9 -53
0 -12 -5 -31 -10 -42 -10 -17 -23 -19 -158 -19 -81 0 -154 5 -162 10 -23 14
-20 157 5 245 22 75 43 105 76 105 22 0 23 3 3 98 -9 48 -36 41 -106 -28 -33
-33 -64 -60 -69 -60 -8 0 -46 14 -85 32 -16 7 -31 4 -65 -15 -41 -23 -44 -28
-47 -71 -2 -28 1 -46 8 -46 7 0 10 -42 8 -132 l-3 -133 -122 -3 c-137 -3 -135
-4 -146 74 -6 39 11 161 33 234 5 19 10 69 10 111 0 74 1 77 28 87 15 7 36 10
47 9 18 -2 20 3 18 48 -2 80 -24 185 -37 177 -6 -3 -18 -5 -27 -4 -11 2 -20
-8 -27 -25 -6 -18 -41 -53 -92 -92 l-83 -63 -61 4 -61 3 -21 -40 c-29 -53 -39
-148 -24 -205 12 -43 32 -301 24 -309 -2 -2 -70 -3 -150 -2 -132 2 -151 4
-193 25 -65 34 -86 55 -121 120 -39 76 -41 151 -4 251 14 39 28 79 31 90 4 10
17 35 30 53 13 19 23 39 23 45 0 13 72 131 82 135 5 2 15 18 22 35 7 18 39 60
70 94 31 33 56 66 56 72 0 6 3 11 8 11 4 0 32 23 62 51 128 117 369 269 426
269 13 0 24 4 24 8 0 13 183 70 275 86 255 45 295 51 515 75 102 11 126 12
133 5z m21 -937 c14 -30 26 -57 26 -60 0 -4 -16 -29 -36 -57 -47 -65 -66 -66
-57 -2 3 26 10 55 14 64 5 9 9 34 9 56 0 33 6 52 15 52 2 0 14 -24 29 -53z
m140 47 c12 -5 16 -20 16 -58 0 -29 4 -56 9 -61 5 -6 12 -37 14 -70 3 -33 7
-69 9 -80 5 -32 -15 -27 -37 9 -11 18 -35 57 -53 87 -34 56 -37 102 -8 124 7
6 16 20 20 33 8 25 8 24 30 16z m-749 -336 c3 -13 5 -63 3 -113 -3 -90 -3 -90
-30 -93 -38 -4 -50 29 -46 132 3 76 4 81 28 87 38 11 39 10 45 -13z m1935 -38
c0 -5 11 -10 24 -10 29 0 39 -21 26 -56 -6 -14 -10 -45 -10 -68 0 -53 1 -52
-137 -48 l-103 3 0 69 c0 91 4 100 49 101 20 0 54 4 76 8 57 12 75 12 75 1z
m-240 -97 c0 -23 -4 -53 -10 -68 -9 -24 -13 -26 -67 -23 -63 3 -76 18 -55 62
6 11 15 34 19 51 7 21 18 31 41 37 17 5 34 13 38 20 11 18 33 -33 34 -79z
m-1075 2 l0 -70 -65 0 -65 0 -3 45 c-2 37 2 50 24 73 22 23 33 28 67 25 l42
-3 0 -70z m127 42 c5 -8 8 -6 8 6 0 18 15 23 25 8 3 -5 7 -34 10 -64 5 -64 -2
-73 -62 -76 -50 -2 -58 13 -47 95 6 54 7 55 33 49 14 -4 29 -12 33 -18z"/>
</g>
</svg>
