<?xml version="1.0" standalone="no"?>
<!DOCTYPE svg PUBLIC "-//W3C//DTD SVG 20010904//EN"
 "http://www.w3.org/TR/2001/REC-SVG-20010904/DTD/svg10.dtd">
<svg version="1.0" xmlns="http://www.w3.org/2000/svg"
 width="580.000000pt" height="400.000000pt" viewBox="0 0 580.000000 400.000000"
 preserveAspectRatio="xMidYMid meet">
<metadata>
Created by potrace 1.16, written by Peter Selinger 2001-2019
</metadata>
<g transform="translate(0.000000,400.000000) scale(0.100000,-0.100000)"
fill="#000000" stroke="none">
<path d="M2605 3629 c-82 -4 -206 -17 -275 -28 -69 -12 -152 -26 -185 -31 -33
-6 -94 -19 -135 -31 -41 -11 -93 -24 -115 -29 -22 -5 -60 -16 -85 -25 -25 -10
-65 -23 -90 -30 -142 -41 -526 -222 -653 -308 -36 -24 -85 -54 -111 -67 -41
-22 -45 -28 -48 -65 -3 -39 -4 -40 -38 -37 l-35 4 24 -26 24 -26 -24 0 -24 -1
28 -22 c24 -20 26 -25 14 -41 -10 -13 -16 -15 -21 -8 -12 19 -26 14 -36 -13
-6 -16 -17 -25 -32 -25 -21 0 -21 -1 6 -29 l27 -28 -25 -17 c-14 -9 -32 -16
-41 -16 -19 0 -19 -13 1 -52 20 -39 6 -56 -29 -33 -24 15 -26 15 -32 -4 -4
-14 -15 -21 -31 -21 -27 0 -32 -15 -8 -24 9 -4 14 -13 10 -22 -5 -12 0 -14 29
-8 26 5 41 1 65 -16 16 -12 30 -25 30 -29 0 -21 -143 -18 -194 4 -16 7 -17 6
-7 -13 7 -14 8 -29 2 -45 -9 -22 -7 -24 10 -20 24 7 53 -18 70 -58 9 -24 17
-29 34 -25 12 3 30 -1 41 -8 18 -14 18 -15 -11 -26 -20 -8 -42 -8 -70 -1 -22
5 -64 7 -93 4 -43 -5 -50 -8 -41 -19 9 -10 9 -17 0 -28 -9 -11 -2 -17 36 -32
27 -10 56 -17 65 -16 28 5 61 -17 49 -32 -8 -9 -33 -12 -81 -10 -38 1 -72 -2
-76 -7 -3 -5 -20 -9 -37 -9 l-32 0 23 -18 c15 -12 21 -24 16 -35 -5 -13 -1
-17 18 -17 13 0 29 -9 35 -19 10 -16 8 -22 -8 -37 -18 -16 -18 -18 -3 -35 12
-13 25 -17 41 -13 22 6 63 -17 63 -36 0 -16 -51 -26 -123 -24 -75 2 -79 2 -74
-18 3 -11 -1 -31 -10 -44 -15 -23 -15 -24 16 -24 17 0 31 -4 31 -10 0 -5 19
-10 43 -10 45 0 89 -21 69 -34 -6 -3 -32 -9 -59 -13 -75 -10 -115 -30 -111
-55 3 -18 10 -22 51 -24 62 -2 75 -15 53 -48 -12 -20 -25 -26 -51 -26 -26 0
-35 -4 -35 -16 0 -9 -7 -22 -17 -29 -24 -18 -7 -37 28 -30 33 7 92 -3 84 -14
-2 -5 -25 -14 -50 -21 -39 -11 -44 -15 -39 -34 4 -17 -1 -25 -18 -33 l-23 -10
22 -12 c22 -11 22 -12 3 -31 -11 -11 -25 -20 -31 -20 -7 0 0 -9 15 -21 28 -22
46 -24 107 -14 26 5 39 2 48 -9 17 -20 67 -21 75 -1 4 12 23 15 84 15 110 0
115 -5 117 -118 2 -105 -3 -113 -92 -132 -47 -11 -154 -59 -183 -82 -51 -41
-88 -141 -96 -260 l-7 -90 43 -84 c39 -76 48 -87 106 -124 37 -23 86 -45 116
-50 75 -15 4166 -13 4243 1 59 11 133 52 168 93 10 12 32 48 49 81 31 57 32
66 32 170 1 120 -3 131 -91 241 -34 43 -124 94 -166 94 -13 0 -35 9 -49 20
-21 16 -26 31 -32 90 -4 42 -2 79 4 90 13 25 44 34 67 19 15 -9 26 -8 50 4 30
16 62 12 115 -14 25 -13 28 -11 28 10 0 10 7 22 16 25 13 5 14 9 4 21 -10 12
-9 15 6 15 10 0 28 9 40 21 21 20 23 20 54 4 32 -17 86 -13 75 5 -3 5 4 15 15
23 21 14 21 15 -5 21 -20 5 -25 12 -23 29 2 16 -3 23 -19 25 -25 4 -31 20 -10
27 6 3 12 18 13 34 1 21 -6 33 -22 42 -21 11 -22 14 -9 29 13 14 10 17 -28 27
-23 7 -66 15 -95 19 -55 7 -58 10 -39 35 21 28 55 41 76 30 16 -9 19 -6 23 22
3 17 9 40 13 51 7 15 5 17 -13 12 -14 -5 -25 -1 -36 15 -13 19 -19 21 -38 12
-20 -9 -29 -6 -57 17 -33 28 -33 28 -11 40 20 11 20 13 6 29 -24 26 -20 31 24
31 37 0 40 2 30 19 -15 28 -13 31 19 31 19 0 34 8 45 24 l15 24 -84 7 c-62 5
-85 11 -85 21 0 7 -11 21 -25 30 -38 25 -30 34 28 34 31 0 61 6 73 15 18 14
18 14 -4 15 -19 0 -22 4 -17 20 5 16 2 20 -15 20 -31 0 -19 24 13 28 15 2 25
8 22 13 -4 5 5 14 19 21 34 15 33 26 -1 30 -22 2 -29 9 -33 33 l-5 30 -24 -33
c-18 -26 -29 -32 -45 -28 -12 3 -46 2 -74 -3 -46 -7 -54 -6 -62 10 -13 24 -13
29 5 29 8 0 19 9 26 21 8 17 17 20 39 15 23 -4 30 -1 35 14 4 11 13 20 21 20
11 0 13 6 9 20 -5 17 -2 20 22 20 l28 1 -29 16 c-20 10 -45 14 -78 11 -44 -5
-61 3 -38 17 5 3 7 12 3 20 -3 10 1 15 15 15 27 0 35 15 23 39 -15 28 8 45 43
31 24 -9 26 -7 26 15 0 15 7 26 21 30 17 6 19 9 8 16 -8 5 -26 9 -41 9 -16 0
-28 4 -28 9 0 6 -12 6 -32 0 -55 -15 -69 -12 -65 15 1 13 8 30 14 37 6 8 11
19 12 24 0 6 10 13 23 16 20 5 17 8 -19 18 -24 6 -43 14 -43 17 0 2 7 16 17
30 l16 26 -36 -7 c-30 -6 -37 -4 -37 8 0 9 10 23 22 31 l22 16 -23 0 c-24 0
-24 0 -5 21 l19 21 -32 -6 c-26 -6 -32 -4 -38 13 -3 11 -15 23 -26 26 -10 4
-31 17 -47 29 -29 24 -151 98 -259 158 -171 95 -245 131 -368 180 -27 10 -73
30 -102 44 -28 13 -60 24 -70 24 -10 0 -58 13 -108 29 -137 44 -331 88 -530
120 -205 33 -452 44 -710 30z m575 -240 c232 -31 388 -67 595 -135 84 -28 274
-104 322 -129 15 -8 31 -15 35 -15 7 0 93 -46 264 -140 73 -40 290 -186 300
-201 10 -17 -17 -39 -48 -39 -23 0 -28 -3 -21 -12 14 -18 25 -67 18 -79 -4 -5
-15 -3 -28 6 -27 19 -37 19 -37 1 0 -8 -14 -18 -32 -22 -32 -7 -32 -7 -10 -17
22 -10 30 -27 12 -27 -5 0 -10 -5 -10 -10 0 -6 15 -8 39 -4 32 5 46 2 71 -16
18 -13 28 -26 23 -31 -17 -17 -154 -10 -190 9 -21 12 -21 11 -12 -20 11 -41
12 -38 -6 -38 -8 0 -15 -7 -15 -16 0 -22 -15 -15 -114 49 -125 82 -141 91
-291 166 -253 126 -438 186 -770 250 -156 30 -168 31 -442 31 -258 0 -293 -2
-420 -25 -198 -36 -344 -77 -578 -159 -109 -39 -389 -174 -426 -207 -13 -11
-65 -45 -116 -76 -82 -49 -94 -53 -108 -40 -8 8 -20 17 -27 20 -10 3 -7 10 7
27 l20 23 -32 -6 c-18 -4 -33 -3 -33 2 0 5 -18 5 -41 1 -35 -7 -39 -5 -33 9
17 43 16 54 -6 71 l-23 18 22 12 c12 6 29 9 36 6 7 -2 16 2 19 10 3 8 13 14
22 14 11 0 14 5 10 16 -3 9 -6 21 -6 28 0 10 -14 12 -51 9 -47 -4 -50 -2 -44
17 4 13 2 20 -7 20 -8 1 -5 7 7 16 11 8 20 20 20 25 0 6 11 16 24 23 24 13 24
13 -13 20 -20 4 -36 11 -36 15 0 5 30 28 68 51 37 24 78 50 91 59 63 42 107
66 242 134 80 41 170 82 200 92 30 10 59 21 64 25 13 9 378 123 460 144 11 3
45 7 75 10 30 4 89 13 130 21 231 47 551 52 830 14z m52 -579 c62 -11 127 -20
143 -20 17 -1 68 -14 115 -30 47 -17 93 -30 103 -30 35 0 303 -108 451 -183
96 -48 276 -152 286 -166 3 -4 26 -19 51 -34 57 -33 70 -57 31 -58 -22 0 -17
-5 30 -26 81 -36 89 -78 13 -66 -19 3 -35 0 -39 -6 -4 -6 -21 -11 -39 -11 -31
0 -31 0 -10 -15 14 -10 19 -22 16 -35 -4 -16 0 -20 20 -20 13 0 30 -6 36 -14
10 -11 7 -17 -10 -30 -21 -14 -21 -16 -5 -41 13 -19 22 -24 40 -19 25 6 66
-10 66 -25 0 -16 -55 -29 -124 -30 -38 0 -70 -2 -71 -3 -1 -2 -5 -20 -8 -40
-5 -33 -3 -38 13 -38 10 0 22 -4 25 -10 3 -5 24 -10 46 -10 22 0 50 -5 61 -11
20 -11 20 -12 -8 -30 -20 -14 -39 -18 -60 -14 -21 4 -35 0 -44 -10 -7 -8 -23
-15 -36 -15 -27 0 -27 0 -14 -34 8 -22 13 -24 34 -16 15 5 38 5 60 -1 l37 -10
-23 -29 c-17 -21 -32 -29 -55 -29 -26 -1 -33 -5 -33 -20 0 -11 -9 -23 -21 -26
-19 -6 -19 -8 -4 -25 13 -14 21 -16 43 -8 20 8 36 7 62 -4 l35 -14 -54 -20
c-58 -20 -74 -40 -48 -59 10 -7 17 -24 17 -39 0 -23 -3 -26 -25 -20 -14 3 -25
2 -25 -4 0 -5 -10 -13 -22 -17 -21 -6 -21 -7 10 -16 17 -5 32 -15 32 -21 0 -7
16 -8 49 -4 37 5 51 3 61 -9 10 -12 24 -14 59 -9 25 3 50 10 55 15 15 14 150
11 164 -3 8 -8 12 -46 12 -106 0 -79 -3 -97 -17 -108 -14 -10 -69 -13 -229
-14 -180 0 -213 2 -225 16 -17 21 -24 115 -10 156 7 21 8 51 3 78 -11 62 -5
90 19 90 10 0 19 5 19 10 0 10 -6 11 -93 15 l-48 3 20 -22 c31 -33 14 -47 -49
-41 -30 3 -58 9 -62 13 -4 4 8 30 25 59 l31 52 73 -5 c87 -6 101 7 59 57 -31
37 -32 43 -7 78 l19 27 -74 1 c-40 1 -76 -3 -79 -8 -4 -5 -20 -9 -36 -9 -16 0
-46 -7 -66 -15 -27 -11 -44 -13 -71 -5 -26 7 -56 5 -109 -6 -72 -15 -165 -11
-369 12 -74 9 -84 -8 -84 -146 0 -78 -4 -111 -15 -126 -15 -19 -19 -95 -7
-126 5 -13 11 -15 22 -8 8 5 18 10 23 10 11 0 9 -98 -3 -105 -5 -3 -7 -12 -4
-19 12 -32 -21 -36 -237 -34 -205 3 -214 4 -218 23 -2 11 -16 36 -32 57 -33
41 -49 108 -49 202 0 74 25 134 70 166 l30 22 77 -47 c51 -30 79 -42 83 -34 4
6 16 8 27 5 34 -11 44 14 33 80 -18 111 -22 129 -35 144 -7 8 -15 26 -17 39
-4 34 -28 40 -28 7 0 -24 -3 -26 -47 -27 -27 0 -95 -2 -153 -4 -114 -4 -127 1
-149 54 -7 15 -24 32 -39 39 -30 14 -69 36 -78 45 -3 3 -1 15 5 26 9 16 7 29
-8 61 -10 22 -15 40 -10 40 5 0 9 12 9 26 0 17 6 28 20 31 20 5 28 23 10 23
-5 0 -19 9 -30 20 -16 16 -24 18 -50 9 -16 -6 -30 -18 -30 -26 0 -9 -8 -22
-17 -30 -13 -10 -15 -16 -5 -19 15 -7 16 -53 2 -90 -6 -15 -7 -30 -2 -33 29
-21 34 -151 6 -151 -8 0 -14 -4 -14 -10 0 -5 -13 -10 -30 -10 -16 0 -30 -5
-30 -11 0 -8 -21 -9 -67 -5 -52 5 -75 3 -97 -9 -15 -8 -30 -15 -31 -15 -2 0
-10 17 -18 38 -10 25 -14 54 -10 83 6 40 5 43 -11 30 -9 -8 -42 -15 -72 -16
-31 -2 -66 -8 -78 -14 -11 -5 -40 -15 -62 -21 -23 -5 -45 -17 -48 -25 -7 -19
-35 -19 -42 0 -4 8 -11 12 -17 8 -5 -3 -7 -1 -3 5 3 6 -1 27 -11 46 -15 33
-20 36 -59 36 -41 0 -42 0 -53 47 -11 44 -11 48 10 63 12 10 22 28 22 43 0 15
3 27 8 27 17 0 9 22 -10 27 -10 2 -23 15 -29 28 -9 19 -15 22 -44 16 -25 -5
-34 -13 -36 -31 -2 -14 -10 -29 -18 -33 -16 -9 -19 -37 -4 -37 6 0 10 -7 10
-15 0 -8 -6 -15 -13 -15 -20 0 -37 -59 -37 -126 0 -111 -9 -120 -149 -140 -53
-8 -110 -17 -127 -20 -28 -5 -32 -3 -38 21 -10 41 1 48 61 42 49 -5 53 -4 48
13 -4 12 1 23 15 33 23 16 17 27 -17 27 -12 0 -23 4 -23 10 0 11 -120 7 -138
-4 -11 -7 -82 23 -82 34 0 3 6 15 14 26 10 13 11 23 4 31 -16 20 0 33 33 26
28 -5 30 -4 23 21 -6 24 -3 26 22 26 21 0 32 7 41 25 11 24 10 25 -23 25 -19
0 -34 5 -34 10 0 6 -22 10 -50 10 -36 0 -48 3 -44 13 2 7 -9 20 -26 30 -16 10
-30 21 -30 25 0 4 24 6 53 4 42 -3 58 1 77 17 l25 20 -27 1 c-16 0 -28 2 -28
4 0 23 53 82 108 120 37 25 90 62 117 82 43 31 298 162 424 217 81 36 208 82
266 95 22 5 78 21 125 35 47 13 110 27 140 31 30 3 80 11 110 16 180 34 537
33 732 0z m-1149 -1265 c-2 -83 -8 -114 -21 -127 -15 -15 -16 -38 -2 -38 7 0
7 -6 0 -19 -7 -15 -7 -22 3 -28 8 -4 17 -15 20 -23 4 -11 6 -9 6 5 1 24 28 65
42 65 14 0 11 -62 -6 -94 -9 -16 -13 -38 -9 -48 3 -10 0 -25 -6 -33 -9 -11 -7
-18 10 -35 30 -30 40 -17 40 54 0 34 4 66 8 71 5 6 14 28 20 50 8 28 21 45 43
58 44 25 49 22 49 -27 0 -25 5 -48 10 -51 23 -14 48 -83 51 -140 l4 -60 -212
-3 -211 -2 -21 29 c-25 35 -27 56 -4 47 24 -10 103 26 103 46 0 10 8 33 17 53
17 35 17 36 -12 89 -23 42 -27 57 -18 68 7 7 15 38 19 68 7 62 28 92 58 88 19
-3 21 -9 19 -63z m475 -71 c18 -7 55 -16 83 -20 53 -7 56 -10 35 -39 -7 -11
-28 -62 -46 -114 l-32 -94 21 -28 c38 -52 27 -59 -94 -59 -91 0 -115 5 -115
25 0 7 -11 38 -25 69 -29 67 -35 165 -10 186 8 7 15 17 15 23 0 5 12 25 26 44
24 32 29 34 68 28 22 -4 56 -13 74 -21z m-964 -9 c12 -9 42 -15 72 -15 29 0
56 -5 59 -10 4 -6 31 -10 63 -8 l57 3 -2 -155 -2 -155 -104 -3 -105 -3 -34 43
c-85 106 -104 178 -72 267 19 54 34 62 68 36z m1186 -52 c0 -20 6 -44 14 -52
18 -21 46 -108 46 -143 0 -15 5 -28 10 -28 6 0 15 -12 21 -27 14 -36 0 -43
-91 -43 -81 0 -100 9 -100 47 0 13 -4 23 -10 23 -28 0 7 144 40 165 6 4 20 27
30 51 23 54 40 57 40 7z m-1332 -39 c2 -32 6 -61 11 -64 4 -3 20 -27 36 -55
17 -27 35 -59 42 -70 37 -61 28 -66 -112 -63 l-110 3 -14 30 c-8 16 -20 36
-28 43 -18 19 -16 62 5 95 27 39 144 148 157 144 5 -2 11 -30 13 -63z m2211
-24 c42 -10 64 -10 105 0 28 6 67 10 86 8 l35 -3 -2 -50 c-3 -59 -22 -155 -36
-172 -7 -10 -53 -13 -167 -13 -134 0 -160 2 -171 17 -9 10 -15 49 -17 104 -3
76 -2 90 13 95 10 4 21 1 26 -7 7 -11 9 -11 9 3 0 20 28 39 50 33 8 -2 39 -9
69 -15z m360 -72 c-18 -150 -33 -177 -57 -104 -9 28 -9 48 -2 75 5 20 10 50
10 68 0 25 5 33 28 41 15 5 28 8 29 7 2 -1 -2 -40 -8 -87z m-2874 58 c11 0 34
3 51 6 l31 7 -1 -85 c-1 -61 3 -87 12 -93 8 -5 12 -17 10 -27 -3 -17 -15 -19
-120 -22 -138 -3 -131 -10 -126 123 l3 80 35 12 c19 7 46 9 60 6 14 -4 34 -7
45 -7z m3024 -108 c18 -75 13 -102 -21 -106 -22 -3 -30 2 -38 23 -20 52 -5
145 21 130 5 -4 9 -1 9 5 0 28 18 -4 29 -52z m774 -312 c15 -10 39 -38 52 -61
52 -89 19 -191 -77 -239 l-52 -26 -2016 0 -2016 0 -52 26 c-67 33 -95 77 -96
153 -1 72 30 126 88 152 40 18 109 19 2091 16 1992 -2 2051 -3 2078 -21z"/>
</g>
</svg>
