<?xml version="1.0" standalone="no"?>
<!DOCTYPE svg PUBLIC "-//W3C//DTD SVG 20010904//EN"
 "http://www.w3.org/TR/2001/REC-SVG-20010904/DTD/svg10.dtd">
<svg version="1.0" xmlns="http://www.w3.org/2000/svg"
 width="580.000000pt" height="400.000000pt" viewBox="0 0 580.000000 400.000000"
 preserveAspectRatio="xMidYMid meet">
<metadata>
Created by potrace 1.16, written by Peter Selinger 2001-2019
</metadata>
<g transform="translate(0.000000,400.000000) scale(0.100000,-0.100000)"
fill="#000000" stroke="none">
<path d="M2775 3222 c-47 -34 -72 -68 -75 -103 -5 -57 1 -88 25 -123 29 -43
32 -65 8 -65 -10 0 -55 -3 -100 -7 -115 -9 -130 -4 -137 48 -19 152 -25 211
-20 219 3 5 21 9 39 9 27 0 38 -6 50 -27 l15 -28 -2 40 c-3 40 -3 40 -43 38
-22 -1 -84 -7 -138 -14 l-98 -12 7 -31 c8 -39 24 -58 24 -29 0 26 18 41 55 45
l30 3 11 -85 c6 -47 14 -103 18 -125 4 -22 3 -46 -2 -53 -16 -24 -166 -55
-209 -43 -24 6 -30 15 -39 57 -6 27 -19 83 -28 124 l-17 75 23 19 c13 11 16
17 7 13 -9 -3 -37 -9 -63 -12 -47 -7 -74 -25 -37 -25 22 0 24 -5 47 -115 31
-148 30 -151 -7 -170 -18 -10 -55 -19 -82 -20 -49 -3 -49 -2 -67 39 -9 23 -21
57 -25 75 -4 18 -13 44 -21 59 -17 33 -18 84 -2 100 16 16 8 15 -35 -3 -20 -8
-48 -15 -62 -15 -14 0 -25 -4 -25 -10 0 -5 13 -10 28 -10 25 0 29 -5 40 -45
16 -61 15 -75 -6 -75 -10 0 -22 -4 -27 -9 -6 -5 -26 -12 -46 -16 -34 -6 -36
-5 -47 33 -15 51 -15 79 1 85 6 2 9 8 5 12 -4 4 -13 3 -20 -1 -7 -5 -17 -9
-23 -9 -5 -1 -17 -4 -25 -7 -8 -3 -24 -10 -35 -14 -18 -7 -17 -8 7 -12 21 -2
30 -10 34 -30 3 -15 20 -71 37 -126 29 -91 30 -99 14 -111 -9 -7 -17 -17 -17
-24 0 -6 -9 -11 -19 -11 -11 0 -22 -4 -25 -9 -3 -5 -17 -12 -30 -15 -40 -10
-311 -142 -373 -182 -60 -38 -188 -163 -204 -198 -5 -12 -23 -43 -40 -71 -76
-122 -117 -297 -104 -440 7 -75 37 -199 61 -252 8 -17 14 -36 14 -42 0 -6 4
-11 9 -11 5 0 13 -10 17 -22 11 -36 57 -98 128 -172 62 -65 66 -73 66 -115 -1
-64 -44 -111 -102 -111 -29 0 -38 -14 -14 -23 10 -4 15 -39 21 -128 7 -121 7
-123 -17 -140 -23 -18 -23 -19 45 -19 64 0 89 12 47 23 -17 4 -20 14 -20 66 0
34 3 62 8 62 58 10 102 -1 102 -26 0 -8 5 -15 10 -15 6 0 10 25 10 55 0 30 -4
55 -10 55 -5 0 -10 -6 -10 -14 0 -18 -22 -26 -71 -26 l-40 0 3 53 3 52 53 0
c40 0 56 -5 63 -18 14 -25 29 -21 29 8 0 23 3 25 53 25 28 0 62 3 75 6 31 9
28 -11 -8 -53 -26 -29 -30 -42 -30 -91 0 -71 24 -113 79 -142 52 -26 94 -25
142 2 83 46 102 166 38 230 -16 16 -29 33 -29 38 0 4 26 10 58 13 43 4 65 1
87 -12 l30 -17 3 -127 c2 -122 2 -127 -18 -127 -11 0 -20 -4 -20 -10 0 -6 28
-10 65 -10 37 0 65 4 65 10 0 6 -9 10 -20 10 -18 0 -20 7 -20 55 0 39 4 55 13
55 7 0 37 -29 67 -65 52 -63 55 -65 99 -64 l46 1 -32 14 c-18 8 -33 17 -33 22
0 4 -16 25 -35 47 -19 22 -35 42 -34 45 0 3 14 14 32 25 37 24 47 63 23 97
-33 47 -28 48 164 48 200 0 194 2 165 -67 -8 -19 -15 -37 -15 -38 0 -1 19 -8
43 -13 49 -13 74 -35 86 -80 8 -26 5 -35 -14 -56 -27 -29 -56 -33 -75 -11 -15
18 -50 20 -50 2 0 -24 24 -37 67 -37 58 0 102 39 109 95 8 55 -38 121 -91 131
-26 5 -35 11 -31 21 3 8 6 17 6 19 0 2 23 4 50 4 36 0 52 4 56 15 5 11 22 15
65 15 67 0 73 -10 43 -69 -25 -50 -15 -168 16 -204 23 -27 59 -34 95 -21 28
11 55 79 55 138 0 39 -7 66 -24 97 -14 24 -23 46 -20 51 3 4 72 8 153 8 169 0
161 3 231 -100 36 -52 40 -65 40 -118 0 -51 -3 -60 -22 -70 -19 -9 -8 -11 57
-11 76 0 79 0 53 15 -26 13 -28 19 -28 75 0 52 4 66 33 105 70 98 69 97 134
102 87 6 93 -3 93 -138 0 -117 -4 -140 -26 -140 -8 0 -14 -4 -14 -10 0 -6 48
-10 123 -10 l122 0 13 30 c8 16 12 38 10 47 -4 14 -9 11 -24 -15 -19 -32 -20
-32 -84 -30 l-65 3 0 55 0 55 44 3 c37 3 48 -1 63 -20 17 -23 18 -23 18 35 0
36 -4 56 -10 52 -5 -3 -10 -12 -10 -19 0 -16 -23 -23 -70 -22 -31 1 -35 4 -38
30 -2 15 -1 39 2 52 6 21 12 24 54 24 27 0 57 -7 68 -15 27 -20 34 -19 34 10
l0 25 116 0 117 0 -6 -29 c-9 -42 -96 -234 -113 -247 -23 -18 -16 -24 31 -24
25 0 45 5 45 10 0 6 -4 10 -10 10 -14 0 -12 42 4 63 10 12 27 17 65 17 49 0
53 -2 66 -32 12 -29 12 -35 -1 -44 -7 -6 -14 -14 -14 -18 0 -8 48 -8 89 0 l31
6 -25 20 c-14 11 -25 25 -25 31 0 7 -18 52 -40 102 -38 84 -50 134 -32 136 51
7 184 5 210 -4 l32 -11 0 -114 c0 -117 -8 -151 -38 -153 -9 -1 -4 -4 13 -8 16
-3 47 -4 68 -2 35 3 37 4 23 20 -20 22 -22 101 -2 101 11 0 71 -63 98 -104 8
-12 86 -17 94 -5 3 5 -3 9 -13 9 -10 0 -37 22 -60 49 -41 47 -53 71 -35 71 5
0 18 9 30 20 23 22 31 93 12 105 -5 3 -10 13 -10 21 0 11 18 14 86 14 84 0 85
0 78 -22 -11 -35 -5 -80 14 -101 9 -11 38 -29 64 -40 49 -21 64 -43 53 -76
-12 -40 -82 -33 -117 12 -22 29 -30 18 -20 -29 l8 -39 68 0 c62 1 71 3 92 28
27 31 31 82 10 109 -7 10 -39 32 -72 51 -69 39 -82 69 -38 89 22 10 28 10 32
0 2 -7 8 -10 12 -7 5 3 19 -8 31 -25 25 -34 39 -39 34 -12 -14 70 -14 69 -57
80 -64 16 -94 78 -69 144 5 13 31 46 57 73 76 79 92 102 155 228 11 20 22 52
26 70 3 17 10 37 15 44 5 6 14 54 19 107 13 119 -1 262 -35 358 -58 162 -189
330 -316 403 -74 43 -306 155 -372 180 -43 17 -78 36 -78 42 0 7 13 19 29 28
93 48 106 187 23 255 -20 17 -55 36 -77 42 -22 7 -42 15 -45 19 -3 3 -21 10
-40 14 -29 6 -33 5 -22 -6 19 -20 15 -43 -25 -161 l-38 -108 -52 0 c-28 0 -55
5 -58 10 -4 6 -11 8 -16 5 -17 -11 -21 24 -6 55 18 35 9 39 -17 9 -16 -19 -25
-21 -78 -15 -33 3 -64 8 -69 12 -12 7 -11 40 2 87 10 38 11 39 47 32 50 -9 72
-22 72 -43 1 -31 29 30 29 63 0 27 -1 28 -13 13 -15 -20 -42 -23 -80 -8 -23 8
-26 15 -26 61 l0 52 52 -7 c54 -7 88 -28 88 -53 0 -7 5 -13 10 -13 6 0 10 13
10 30 0 34 -15 44 -80 55 -25 4 -49 11 -55 15 -16 12 -95 21 -95 11 0 -5 6
-11 14 -14 11 -4 10 -21 -5 -99 -11 -51 -22 -107 -25 -123 -8 -40 -55 -57
-119 -43 -65 14 -70 24 -56 121 6 45 11 101 11 124 0 33 4 43 20 48 40 13 19
25 -42 25 -55 -1 -61 -2 -45 -14 12 -10 17 -27 17 -65 l0 -52 -67 3 -68 3 -3
58 c-3 52 -1 58 20 66 23 8 13 12 -84 28 -32 5 -38 -12 -7 -20 19 -5 20 -10
13 -119 -4 -62 -10 -122 -15 -134 -8 -24 -45 -34 -120 -34 -50 0 -62 13 -37
38 17 17 8 15 -41 -9 -41 -19 -44 -20 -87 -3 -54 21 -74 56 -74 133 0 44 5 62
24 86 21 26 30 30 76 30 47 0 55 -3 81 -34 16 -19 31 -33 33 -30 3 3 0 23 -5
44 -8 30 -16 41 -32 42 -12 2 -42 5 -67 9 -39 5 -50 2 -85 -24z m494 -168 c32
-7 32 -7 29 -63 -3 -54 -4 -56 -32 -59 -16 -2 -44 -1 -63 3 l-33 6 0 59 0 60
34 0 c18 0 48 -3 65 -6z m817 -49 c64 -49 67 -157 6 -205 -22 -18 -37 -21 -84
-18 -32 2 -61 7 -64 11 -4 4 5 42 20 85 15 42 32 94 38 115 13 45 36 48 84 12z
m-2181 -125 c4 -16 11 -32 16 -35 16 -10 10 -36 -13 -56 -14 -11 -39 -18 -63
-19 -40 0 -41 1 -55 48 -8 26 -15 51 -15 56 0 9 106 45 117 39 3 -2 9 -17 13
-33z m1365 -125 c230 -28 528 -97 675 -155 11 -4 43 -16 70 -25 28 -10 75 -29
105 -42 30 -14 71 -32 90 -40 154 -67 310 -161 355 -214 81 -96 110 -146 146
-250 29 -82 32 -264 6 -350 -44 -147 -120 -263 -226 -343 -106 -79 -229 -129
-305 -124 l-48 3 2 228 c0 166 5 244 15 285 23 89 20 129 -15 169 -34 38 -42
99 -15 109 8 4 15 12 15 20 0 7 6 17 13 21 20 13 47 81 47 119 0 19 -9 52 -20
74 -11 22 -20 48 -20 60 0 11 -4 20 -9 20 -5 0 -12 17 -16 39 -8 46 -35 79
-73 86 -49 11 -92 37 -92 58 0 18 -5 19 -52 15 -45 -5 -56 -11 -83 -42 -16
-20 -34 -36 -39 -36 -12 0 -56 -41 -56 -52 0 -5 11 -13 25 -18 32 -12 32 -43
0 -84 -14 -17 -29 -36 -34 -42 -23 -29 -33 -91 -27 -170 3 -48 2 -85 -3 -89
-13 -7 -60 44 -67 73 -8 28 -44 30 -44 2 0 -26 -35 -27 -71 -2 -15 9 -63 59
-108 110 -78 88 -82 94 -75 128 l7 36 -34 -7 c-19 -4 -42 -16 -52 -27 -16 -19
-23 -20 -120 -12 -56 4 -167 8 -247 9 -93 0 -153 5 -167 13 -12 7 -32 12 -45
12 -13 0 -32 6 -42 13 -24 17 -49 88 -36 101 19 19 10 26 -30 26 -33 0 -40 -3
-40 -19 0 -34 -39 -89 -73 -101 -89 -33 -85 -33 -134 20 -25 28 -50 50 -54 50
-4 0 -9 -12 -11 -27 -3 -23 -9 -29 -43 -35 -22 -4 -57 -14 -79 -21 -28 -10
-50 -12 -79 -5 -35 8 -58 4 -142 -22 -153 -48 -181 -63 -216 -117 l-31 -48 7
-200 c3 -110 6 -229 6 -265 1 -49 7 -76 25 -109 24 -44 41 -102 50 -171 6 -46
12 -49 36 -20 18 22 19 34 13 130 -5 96 -5 103 9 80 8 -14 25 -56 37 -95 11
-38 30 -97 40 -131 10 -33 19 -78 19 -100 l0 -39 -177 -2 c-190 -2 -177 -4
-311 59 -70 33 -198 151 -244 224 -110 174 -128 409 -45 594 36 80 88 154 146
207 109 102 445 263 711 342 41 12 86 26 100 31 27 9 180 41 305 64 69 13 169
24 355 40 88 8 397 -3 520 -19z m700 -490 c12 -15 5 -55 -10 -55 -5 0 -12 -9
-15 -21 -12 -38 -27 -4 -20 45 7 47 23 58 45 31z m-701 -239 c31 -19 76 -40
101 -46 25 -7 57 -21 72 -31 l27 -19 -2 -153 c-2 -150 -1 -153 27 -210 35 -69
79 -117 107 -117 11 0 33 7 49 15 l30 16 1 142 c1 232 3 260 17 264 8 3 12 -5
12 -24 0 -15 11 -47 24 -70 21 -36 24 -57 27 -150 2 -59 -1 -181 -6 -270 l-8
-162 -56 0 c-31 1 -139 1 -241 0 -228 0 -220 -5 -220 129 0 94 10 130 36 130
20 0 30 30 13 41 -8 5 -26 9 -41 9 -17 0 -33 8 -40 20 -14 23 -28 26 -28 8 0
-7 -18 -41 -40 -75 -30 -48 -52 -70 -95 -94 -66 -37 -78 -56 -76 -121 1 -59
-5 -62 -155 -54 l-109 5 -43 63 c-40 58 -42 67 -37 108 4 25 15 65 26 89 10
24 19 54 19 66 0 35 21 87 50 125 15 19 33 59 40 88 8 28 17 52 22 52 25 0 80
50 99 90 28 61 60 85 176 132 28 11 127 35 152 37 7 1 39 -14 70 -33z m335
-120 c-4 -18 -1 -25 15 -29 12 -3 21 -1 21 4 0 5 5 9 10 9 6 0 10 -68 10 -183
0 -149 -3 -187 -16 -205 -27 -38 -56 -28 -99 36 l-40 57 -1 163 c-2 126 1 162
11 162 7 0 15 -9 18 -20 7 -28 25 -25 45 9 19 33 35 31 26 -3z m316 -45 c0
-47 17 -79 42 -83 19 -2 25 -12 35 -58 6 -30 18 -84 25 -120 14 -65 15 -108 2
-253 -6 -70 -9 -80 -30 -89 -13 -6 -24 -15 -24 -20 0 -4 -7 -8 -15 -8 -8 0
-15 4 -15 9 0 5 -14 14 -31 21 l-30 13 5 131 c3 72 8 156 10 186 3 30 6 110 6
178 0 73 4 122 10 122 6 0 10 -13 10 -29z m-2096 -23 c18 -26 21 -96 5 -150
-16 -59 -29 -45 -29 30 0 37 -3 84 -6 105 -8 42 6 49 30 15z m357 -40 c81 -40
87 -41 185 -42 91 -1 102 -3 110 -21 5 -11 22 -22 39 -25 l30 -5 0 -130 c-1
-74 -6 -150 -14 -176 -11 -41 -11 -54 8 -115 11 -38 17 -71 13 -75 -4 -3 -43
-3 -87 1 -91 9 -266 6 -341 -5 -50 -7 -51 -7 -64 24 -7 17 -16 31 -21 31 -14
0 -57 83 -79 152 -24 80 -21 145 10 215 12 26 30 82 39 123 13 61 20 74 34 72
9 -2 25 2 35 7 9 6 17 11 18 11 0 0 39 -19 85 -42z m1076 -762 c8 -8 -39 -105
-52 -105 -10 0 -24 17 -59 71 -18 27 -18 28 5 36 25 10 96 8 106 -2z m-1641
-28 c33 -39 44 -66 44 -107 0 -68 -39 -130 -83 -131 -26 0 -66 29 -83 61 -31
60 -9 181 35 192 40 11 69 6 87 -15z m335 5 c41 -24 49 -61 19 -85 -28 -22
-76 -24 -84 -2 -3 9 -6 36 -6 60 0 38 3 44 21 44 11 0 34 -8 50 -17z m2403 1
c28 -27 18 -68 -23 -88 -41 -21 -51 -11 -51 50 0 53 1 54 29 54 16 0 37 -7 45
-16z m-1636 -39 c18 -38 15 -156 -3 -182 -17 -24 -41 -22 -62 5 -15 19 -17
139 -3 176 13 35 53 35 68 1z m1231 -49 c16 -30 7 -46 -25 -46 -27 0 -29 8
-12 45 14 31 21 31 37 1z"/>
</g>
</svg>
