<?xml version="1.0" standalone="no"?>
<!DOCTYPE svg PUBLIC "-//W3C//DTD SVG 20010904//EN"
 "http://www.w3.org/TR/2001/REC-SVG-20010904/DTD/svg10.dtd">
<svg version="1.0" xmlns="http://www.w3.org/2000/svg"
 width="580.000000pt" height="400.000000pt" viewBox="0 0 580.000000 400.000000"
 preserveAspectRatio="xMidYMid meet">
<metadata>
Created by potrace 1.16, written by Peter Selinger 2001-2019
</metadata>
<g transform="translate(0.000000,400.000000) scale(0.100000,-0.100000)"
fill="#000000" stroke="none">
<path d="M2770 3424 c-633 -32 -1160 -178 -1712 -475 -190 -102 -267 -124
-418 -116 -87 4 -119 10 -184 36 -44 18 -102 47 -131 66 -69 46 -123 68 -151
61 -46 -12 -92 -63 -103 -117 -14 -62 -9 -85 36 -176 46 -92 48 -168 10 -288
-38 -119 -51 -207 -44 -310 7 -104 44 -244 87 -329 35 -69 36 -81 11 -122 -31
-51 -70 -170 -86 -261 -26 -150 -19 -236 32 -398 17 -54 26 -104 26 -152 0
-64 -4 -80 -35 -140 -44 -84 -52 -118 -39 -174 7 -31 22 -55 50 -81 55 -51 90
-51 172 2 99 64 168 55 245 -30 21 -23 55 -50 75 -61 37 -19 86 -19 2280 -19
l2243 0 42 21 c24 11 59 38 79 61 76 83 146 91 244 28 75 -48 115 -52 161 -14
74 63 82 143 25 259 -32 64 -38 86 -38 143 -1 37 7 89 16 117 56 169 65 358
24 516 -14 52 -41 126 -60 164 l-34 69 34 66 c86 167 110 402 58 595 -53 200
-52 246 6 362 48 95 40 182 -23 239 -42 39 -77 39 -149 0 -221 -121 -285 -141
-439 -133 -129 7 -170 20 -360 122 -506 269 -953 404 -1505 454 -130 12 -353
19 -445 15z m-70 -721 c-1 -19 -18 -33 -33 -28 -18 7 -37 -21 -37 -55 0 -15
-5 -20 -14 -17 -8 3 -20 0 -26 -8 -9 -11 -18 -9 -52 10 -23 13 -45 22 -50 19
-4 -3 -8 -36 -8 -74 l0 -69 33 5 c17 3 42 7 55 10 18 4 23 1 22 -13 -4 -32 -1
-38 35 -76 41 -44 44 -57 10 -57 -38 0 -32 -28 8 -32 25 -2 32 -7 30 -23 -10
-80 -66 -485 -83 -595 -20 -131 -29 -188 -34 -240 -2 -14 -4 -31 -4 -37 -2
-10 -61 -13 -262 -13 l-260 0 -20 42 c-11 23 -29 81 -41 128 -19 82 -19 87 -2
125 23 54 21 53 46 24 57 -65 106 -75 156 -31 l33 28 -12 60 c-7 32 -14 75
-15 94 -2 19 -7 50 -12 69 l-8 34 -17 -26 c-16 -24 -20 -25 -55 -15 -22 6 -78
8 -135 5 -76 -5 -98 -3 -98 7 0 7 -11 23 -24 35 -34 32 -47 140 -22 181 9 16
16 35 16 44 0 9 8 16 17 16 13 0 9 8 -16 30 -40 37 -64 33 -87 -17 -13 -27
-14 -37 -5 -43 10 -5 8 -17 -8 -48 -12 -24 -21 -63 -22 -97 -2 -42 -6 -58 -18
-63 -9 -3 -22 -14 -29 -24 -8 -11 -26 -18 -48 -18 -19 0 -48 -7 -64 -15 -43
-22 -105 -111 -124 -177 -9 -31 -24 -76 -34 -100 -16 -37 -16 -47 -5 -68 7
-14 13 -35 13 -47 0 -39 18 -25 24 20 3 23 6 50 7 60 0 9 4 17 10 17 5 0 9 20
9 45 0 44 16 95 31 95 4 0 11 -26 15 -57 5 -42 2 -70 -10 -107 -9 -28 -16 -60
-16 -71 0 -11 -1 -47 -3 -80 l-4 -60 -256 -3 -257 -2 -41 37 c-127 115 -154
300 -72 483 25 55 68 96 198 187 263 183 619 360 910 451 273 85 435 117 753
151 6 0 12 -2 12 -6z m465 -3 c480 -44 979 -210 1400 -464 134 -81 327 -218
358 -255 14 -17 38 -56 53 -87 73 -149 22 -390 -99 -472 -33 -22 -40 -22 -248
-20 -208 3 -214 4 -211 23 7 51 4 183 -5 200 -9 16 -24 18 -122 18 -89 0 -116
-3 -128 -16 -19 -19 -10 -47 15 -47 23 0 39 -17 43 -45 5 -34 -11 -113 -25
-125 -9 -7 -52 -10 -117 -8 l-103 3 3 48 c1 26 7 61 11 78 7 23 5 39 -5 60
-16 30 -20 99 -6 99 12 0 41 -80 41 -113 0 -34 25 -97 39 -97 18 0 2 89 -29
160 -20 45 -30 85 -30 117 0 72 -12 83 -95 85 -184 3 -300 -5 -350 -24 -32
-12 -62 -18 -83 -14 -27 4 -39 0 -58 -19 -13 -13 -24 -31 -24 -40 0 -9 -10
-33 -22 -54 -19 -33 -20 -41 -9 -55 10 -12 25 -14 70 -9 68 7 93 -4 116 -49
19 -38 11 -140 -12 -164 -12 -12 -50 -14 -211 -12 l-197 3 0 60 0 60 -135 5
c-85 3 -133 9 -130 15 2 6 10 9 17 7 7 -2 13 4 13 13 0 8 -9 15 -19 15 -11 0
-22 4 -25 8 -4 7 -16 86 -31 212 -2 19 -18 135 -35 258 -17 122 -30 230 -28
240 2 9 12 17 23 18 38 2 45 4 45 14 0 6 -13 10 -28 10 -42 0 -45 10 -9 34 20
14 34 33 38 54 3 17 12 38 18 46 15 18 11 82 -5 79 -6 -1 -9 10 -6 28 5 32
-20 79 -42 79 -8 0 -13 11 -13 25 l0 25 141 0 c77 0 191 -5 251 -10z m-1478
-1012 c15 -6 48 -17 73 -23 l45 -10 -4 -70 c-1 -39 -9 -84 -16 -101 -7 -17
-11 -43 -8 -58 5 -24 3 -26 -28 -26 -32 0 -37 5 -70 68 -42 79 -52 118 -43
184 7 52 9 54 51 36z m-112 -37 c3 -11 3 -31 -1 -45 -4 -17 0 -34 14 -53 30
-42 72 -135 66 -144 -3 -5 -36 -9 -73 -9 -61 0 -70 3 -84 24 -22 32 -15 80 22
158 17 37 31 72 31 78 0 17 18 11 25 -9z m320 -33 c4 -13 22 -54 40 -93 19
-38 37 -82 40 -97 l7 -28 -71 0 c-65 0 -72 2 -87 26 -16 24 -16 29 4 92 12 37
24 79 28 95 7 33 30 36 39 5z m1971 -43 c4 -9 14 -14 23 -13 18 3 18 -9 4
-102 l-8 -55 -85 0 -84 0 0 35 c0 19 1 57 2 83 l2 48 43 -6 c30 -4 48 -2 62 9
25 20 34 20 41 1z m-185 -68 c2 -24 2 -57 -1 -73 -5 -27 -8 -29 -58 -32 l-54
-3 7 32 c18 79 46 116 91 118 7 1 14 -18 15 -42z m-987 -16 c3 -27 4 -56 0
-65 -7 -19 -40 -29 -80 -24 -28 3 -29 5 -26 48 4 85 7 90 56 90 l43 0 7 -49z
m124 -9 c4 -64 -9 -84 -52 -80 -29 3 -31 6 -34 47 -2 25 -1 55 3 68 5 21 11
24 43 21 l37 -3 3 -53z"/>
</g>
</svg>
