<?xml version="1.0" standalone="no"?>
<!DOCTYPE svg PUBLIC "-//W3C//DTD SVG 20010904//EN"
 "http://www.w3.org/TR/2001/REC-SVG-20010904/DTD/svg10.dtd">
<svg version="1.0" xmlns="http://www.w3.org/2000/svg"
 width="580.000000pt" height="400.000000pt" viewBox="0 0 580.000000 400.000000"
 preserveAspectRatio="xMidYMid meet">
<metadata>
Created by potrace 1.16, written by Peter Selinger 2001-2019
</metadata>
<g transform="translate(0.000000,400.000000) scale(0.100000,-0.100000)"
fill="#000000" stroke="none">
<path d="M2537 3613 c-4 -4 -51 -11 -105 -15 -53 -4 -126 -12 -162 -17 -36 -5
-85 -12 -110 -15 -25 -4 -67 -11 -95 -16 -27 -6 -97 -19 -155 -30 -58 -11
-141 -29 -185 -41 -44 -11 -92 -23 -108 -26 -15 -3 -30 -9 -33 -14 -3 -5 -18
-9 -34 -9 -16 0 -32 -4 -35 -10 -3 -5 -21 -10 -40 -10 -19 0 -37 -4 -40 -10
-3 -5 -16 -10 -29 -10 -12 0 -26 -4 -31 -9 -6 -5 -72 -30 -147 -55 -96 -32
-154 -46 -192 -46 -59 0 -126 24 -166 60 -69 62 -86 70 -142 70 -65 0 -105
-18 -147 -65 -27 -31 -51 -88 -51 -122 0 -28 34 -109 59 -142 49 -64 65 -155
40 -218 -21 -52 -37 -88 -52 -123 -14 -33 -20 -55 -46 -172 -14 -60 -14 -175
-1 -236 6 -26 16 -69 22 -97 6 -27 23 -77 38 -110 15 -33 35 -77 44 -97 9 -20
21 -40 26 -43 15 -9 12 -51 -5 -65 -8 -7 -15 -16 -15 -20 0 -4 -16 -33 -35
-65 -19 -32 -41 -81 -50 -109 -9 -28 -22 -62 -28 -75 -17 -35 -17 -415 1 -433
6 -6 12 -18 12 -25 0 -7 9 -32 19 -56 36 -79 49 -181 31 -230 -26 -68 -40 -94
-60 -112 -11 -10 -20 -24 -20 -32 0 -7 -4 -13 -10 -13 -5 0 -10 -9 -10 -21 0
-11 -5 -30 -11 -41 -15 -29 14 -120 54 -165 41 -47 77 -63 140 -63 46 0 63 6
104 34 94 65 125 76 212 76 44 0 83 -5 86 -10 3 -6 15 -10 26 -10 11 0 52 -32
94 -75 l75 -75 59 0 c33 0 63 5 66 10 8 13 302 13 310 0 4 -6 77 -10 185 -10
108 0 181 -4 185 -10 8 -13 215 -13 215 0 0 6 140 10 399 10 256 0 402 4 406
10 4 6 67 10 156 10 138 0 149 -1 149 -19 0 -17 19 -18 357 -25 319 -7 357 -6
365 8 8 14 38 16 217 16 243 0 239 -1 332 98 35 37 75 72 89 78 67 31 93 36
148 30 57 -6 162 -50 162 -66 0 -5 21 -21 46 -36 45 -27 49 -27 108 -15 49 10
69 20 104 54 23 23 42 49 42 58 0 10 5 21 11 25 11 6 8 47 -7 109 -3 17 -25
57 -48 90 -48 70 -66 116 -66 171 0 38 19 106 33 120 4 4 7 17 7 29 0 11 5 26
10 31 15 15 50 205 50 271 0 141 -61 337 -150 478 -25 40 -24 62 5 110 35 58
61 114 75 165 7 25 17 56 22 70 6 14 12 70 15 125 7 131 -14 267 -54 355 -47
103 -53 124 -53 196 0 77 11 114 47 153 37 42 66 152 43 166 -5 3 -10 16 -10
27 0 30 -45 85 -83 102 -72 33 -106 41 -119 28 -7 -7 -20 -12 -29 -12 -9 0
-40 -21 -68 -46 -54 -49 -131 -84 -183 -84 -29 0 -280 79 -320 101 -10 5 -27
9 -37 9 -11 0 -23 5 -26 10 -3 6 -15 10 -27 10 -11 0 -48 9 -82 19 -111 36
-201 61 -216 61 -7 0 -27 4 -44 10 -75 24 -366 71 -621 101 -105 12 -898 23
-908 12z m720 -804 c8 -7 31 -9 56 -6 54 6 182 -7 387 -41 173 -29 265 -48
268 -54 2 -5 14 -8 27 -8 12 0 58 -14 101 -32 251 -101 469 -307 584 -551 66
-142 79 -187 111 -400 24 -152 -33 -292 -139 -343 -48 -23 -156 -34 -370 -37
l-173 -2 0 247 c0 154 4 262 11 289 9 32 9 53 0 86 -7 23 -16 43 -20 43 -12 0
-30 49 -30 83 0 22 8 38 26 52 27 21 46 77 47 135 1 34 -16 89 -53 175 -10 22
-22 51 -27 65 -8 18 -24 29 -59 39 -27 8 -61 27 -75 42 -22 24 -31 27 -68 22
-32 -4 -48 -13 -64 -35 -12 -17 -34 -36 -49 -44 -28 -15 -39 -56 -18 -69 18
-11 10 -52 -17 -91 -26 -36 -28 -47 -31 -156 -2 -65 -6 -118 -9 -118 -15 0
-53 48 -53 68 0 30 -45 32 -53 2 -9 -35 -43 -22 -106 42 -33 34 -61 66 -61 70
0 5 -17 27 -39 49 -35 37 -38 43 -28 69 6 16 8 32 4 36 -8 9 -53 -12 -84 -39
-18 -16 -31 -18 -80 -12 -32 3 -134 8 -228 11 -93 2 -179 9 -190 14 -11 5 -31
10 -45 12 -18 2 -31 15 -47 48 -12 25 -20 52 -17 62 6 21 -11 31 -39 24 -15
-3 -27 -19 -37 -48 -11 -33 -25 -48 -55 -65 -62 -34 -91 -30 -133 17 -33 39
-66 49 -68 22 -1 -6 -2 -17 -3 -22 0 -6 -12 -8 -26 -4 -14 3 -25 2 -25 -2 0
-19 -59 -33 -130 -32 -56 2 -88 -3 -125 -19 -27 -11 -75 -28 -106 -37 -112
-32 -132 -81 -130 -311 1 -252 10 -340 38 -410 13 -33 27 -81 30 -106 7 -62
17 -77 40 -63 15 9 19 28 21 98 1 47 6 86 10 86 4 0 13 -21 20 -47 8 -27 18
-56 23 -65 5 -10 9 -28 9 -42 0 -13 7 -43 15 -66 8 -23 15 -58 15 -77 l0 -35
-42 5 c-24 3 -58 9 -76 13 -20 4 -38 2 -47 -6 -12 -10 -82 -12 -284 -12 l-270
2 -58 34 c-93 56 -133 130 -133 251 0 73 36 279 56 318 8 16 14 36 14 45 0 9
15 50 34 92 19 41 37 82 41 90 29 71 164 242 251 319 174 153 338 225 619 271
39 7 92 16 118 21 26 5 68 9 92 9 25 0 64 4 87 10 75 17 234 25 547 28 214 1
308 -2 318 -9z m-16 -654 c19 -8 48 -23 64 -35 17 -11 39 -20 51 -20 11 0 35
-7 52 -16 37 -18 40 -30 46 -189 3 -60 8 -126 11 -145 8 -46 41 -107 76 -145
39 -42 91 -38 120 9 16 27 19 51 19 174 0 149 6 164 36 94 14 -31 16 -76 15
-261 -1 -258 -5 -278 -60 -280 -287 -12 -351 -11 -385 3 -35 15 -36 16 -36 69
0 30 -3 75 -6 100 -6 43 -4 48 26 75 36 33 33 52 -9 52 -16 0 -37 10 -51 25
-26 28 -40 24 -40 -11 0 -14 -9 -34 -20 -46 -11 -12 -20 -27 -20 -33 0 -12
-51 -55 -103 -89 -38 -24 -59 -74 -47 -115 5 -17 5 -33 2 -35 -9 -5 -77 -8
-173 -7 l-77 1 -20 38 c-11 20 -28 51 -38 68 -16 29 -17 37 -4 90 7 33 19 71
27 86 7 15 13 41 13 59 0 20 15 55 40 95 22 35 40 71 40 81 0 40 14 63 51 89
22 15 47 43 56 63 9 20 23 44 32 54 25 29 212 112 262 116 9 0 32 -6 50 -14z
m332 -166 c15 1 36 -3 47 -9 19 -10 20 -22 20 -173 0 -131 -3 -167 -16 -185
-8 -12 -21 -22 -28 -22 -16 0 -80 87 -95 129 -12 37 -15 188 -5 241 6 27 10
31 28 25 12 -4 34 -6 49 -6z m-1337 -78 c35 -33 246 -73 260 -49 9 13 24 9 24
-7 0 -8 16 -25 35 -37 l35 -23 0 -108 c0 -69 -6 -128 -15 -162 -14 -47 -14
-57 -1 -88 8 -20 16 -50 18 -69 l3 -33 -63 -3 c-34 -2 -70 1 -79 6 -11 6 -25
6 -40 -1 -17 -8 -30 -7 -48 3 -20 10 -33 11 -64 2 -21 -7 -66 -12 -100 -12
-56 0 -62 2 -71 24 -5 13 -15 28 -23 33 -36 21 -77 149 -77 241 0 37 9 78 25
117 14 33 28 76 31 95 12 62 20 71 64 64 27 -4 40 -3 40 5 0 13 32 15 46 2z
m1676 -13 c54 -26 97 -251 79 -413 -11 -93 -15 -105 -37 -105 -8 0 -14 -4 -14
-10 0 -14 -16 -12 -32 3 -7 7 -22 16 -32 20 -18 7 -19 16 -11 210 4 111 8 226
8 255 0 57 1 58 39 40z"/>
</g>
</svg>
