<?xml version="1.0" standalone="no"?>
<!DOCTYPE svg PUBLIC "-//W3C//DTD SVG 20010904//EN"
 "http://www.w3.org/TR/2001/REC-SVG-20010904/DTD/svg10.dtd">
<svg version="1.0" xmlns="http://www.w3.org/2000/svg"
 width="580.000000pt" height="400.000000pt" viewBox="0 0 580.000000 400.000000"
 preserveAspectRatio="xMidYMid meet">
<metadata>
Created by potrace 1.16, written by Peter Selinger 2001-2019
</metadata>
<g transform="translate(0.000000,400.000000) scale(0.100000,-0.100000)"
fill="#000000" stroke="none">
<path d="M2555 3479 c-60 -5 -159 -14 -220 -20 -122 -12 -522 -82 -600 -106
-27 -8 -106 -29 -175 -47 -69 -18 -143 -41 -165 -50 -22 -10 -85 -34 -140 -53
-55 -20 -106 -40 -112 -46 -9 -6 -21 -4 -39 7 -20 14 -23 20 -14 32 10 11 9
15 -4 20 -9 3 -16 12 -16 20 0 8 -10 14 -24 14 -16 0 -27 7 -31 20 -7 23 -21
26 -32 6 -4 -8 -17 -15 -28 -17 -13 -3 -20 -12 -20 -29 0 -21 -4 -25 -27 -22
-30 4 -36 -6 -16 -26 9 -9 9 -15 1 -23 -9 -9 -6 -16 9 -29 25 -20 16 -42 -15
-38 -16 2 -23 -3 -25 -19 -3 -18 -10 -23 -35 -23 l-31 0 27 -28 c27 -28 27
-29 9 -45 -10 -9 -28 -17 -40 -17 -26 0 -26 2 -6 -45 19 -46 6 -69 -24 -42
-23 21 -32 21 -32 2 0 -8 -15 -17 -37 -21 -35 -7 -36 -8 -15 -17 12 -6 22 -16
22 -24 0 -8 13 -13 38 -13 28 0 45 -7 61 -24 l23 -24 -37 -12 c-27 -9 -40 -9
-48 -1 -6 6 -26 11 -43 11 -18 0 -44 4 -59 10 -24 9 -25 8 -14 -11 6 -12 8
-31 5 -43 -4 -18 0 -24 27 -32 22 -6 38 -20 49 -44 13 -26 24 -34 44 -35 33 0
42 -20 16 -34 -13 -7 -31 -7 -53 -1 -19 6 -62 10 -97 10 -59 0 -62 -1 -50 -19
9 -15 9 -23 0 -33 -9 -12 -2 -18 43 -32 30 -9 59 -15 64 -12 18 11 41 -6 41
-30 0 -24 -1 -24 -74 -19 -44 3 -77 1 -81 -5 -3 -6 -18 -10 -33 -10 -25 -1
-25 -2 -9 -14 9 -7 17 -23 17 -34 0 -16 5 -21 21 -19 33 3 47 -27 25 -52 -15
-17 -16 -23 -6 -36 7 -8 25 -15 40 -15 15 0 38 -8 51 -19 l23 -18 -27 -18
c-23 -15 -32 -15 -56 -5 -22 9 -35 9 -50 1 -11 -6 -31 -9 -45 -5 -20 5 -24 2
-23 -18 0 -13 -3 -31 -7 -40 -6 -14 -3 -18 12 -18 12 0 24 -4 27 -10 3 -5 23
-10 44 -10 20 0 45 -6 55 -13 17 -12 16 -14 -9 -31 -17 -12 -37 -16 -55 -13
-16 4 -35 0 -46 -8 -11 -8 -27 -15 -36 -15 -18 0 -23 -16 -13 -43 5 -10 18
-13 55 -9 40 4 51 1 56 -12 10 -26 -24 -56 -63 -56 -29 0 -33 -3 -33 -25 0
-14 -5 -25 -11 -25 -6 0 -9 -6 -6 -12 2 -8 21 -13 47 -13 55 0 63 -19 16 -39
-24 -10 -36 -21 -36 -35 0 -11 -8 -25 -18 -30 -14 -9 -15 -12 -3 -20 18 -12 7
-39 -20 -50 -21 -7 -20 -9 14 -30 30 -18 44 -21 87 -15 42 6 53 4 64 -11 13
-18 15 -18 52 1 36 19 59 21 159 15 55 -3 60 -11 61 -116 2 -109 0 -112 -89
-139 -111 -33 -218 -132 -275 -254 -34 -73 -35 -82 -35 -182 0 -94 4 -112 29
-170 44 -98 78 -142 155 -200 126 -93 -95 -84 2238 -87 l2064 -3 74 35 c292
141 355 530 122 751 -45 42 -99 74 -200 117 l-56 25 -7 82 c-7 71 -5 84 10
101 14 16 26 19 55 14 21 -4 46 -2 57 4 14 8 33 5 72 -9 55 -20 70 -19 70 6 0
8 5 14 11 14 6 0 8 9 4 20 -5 15 -2 20 12 20 10 0 28 7 41 15 16 12 27 13 41
5 30 -15 81 -13 81 5 0 7 8 19 18 24 15 10 15 11 -5 17 -13 3 -23 14 -23 24 0
10 -10 25 -22 33 -19 13 -20 18 -9 26 14 9 23 61 11 61 -4 0 -15 6 -26 14 -18
14 -18 15 0 29 16 12 10 15 -65 31 -118 26 -112 23 -99 46 19 35 55 53 80 40
20 -11 21 -10 15 9 -4 12 0 30 9 43 22 31 20 39 -9 32 -18 -4 -27 -1 -31 10
-5 13 -14 15 -35 11 -19 -4 -39 0 -59 11 -34 21 -36 27 -15 44 9 8 12 22 8 41
-5 27 -3 29 25 29 25 0 29 3 25 19 -4 15 1 20 22 23 15 2 34 12 42 24 13 20
12 21 -14 22 -78 3 -119 15 -150 46 -18 17 -33 34 -33 39 0 4 23 7 51 7 36 0
58 6 76 20 l26 20 -27 0 c-16 0 -26 5 -26 15 0 8 -7 15 -16 15 -30 0 -7 25 27
30 22 3 30 8 22 13 -19 12 -16 25 7 32 28 9 25 25 -5 25 -20 0 -25 5 -25 26
l0 26 -30 -32 c-22 -23 -34 -29 -43 -22 -8 6 -31 7 -67 1 -46 -7 -57 -6 -67 8
-14 18 -9 33 12 33 7 0 16 7 19 16 4 11 14 15 32 11 20 -3 28 0 31 14 3 11 12
19 19 19 8 0 14 7 14 15 0 9 7 18 15 21 44 17 -32 45 -83 31 -18 -6 -35 -8
-37 -5 -10 9 29 67 48 72 16 4 16 7 5 25 -11 17 -10 23 4 37 12 12 20 14 36 5
28 -15 31 -14 25 9 -3 12 1 22 11 26 24 9 19 24 -8 24 -14 0 -28 5 -31 11 -6
9 -37 7 -87 -7 -14 -4 -18 1 -18 25 0 17 5 31 11 31 6 0 9 7 6 15 -4 8 -2 17
3 20 20 12 9 25 -20 25 -22 0 -30 5 -30 18 0 27 -10 32 -31 19 -16 -10 -21 -9
-29 3 -7 11 -3 21 15 37 23 20 23 23 8 32 -17 9 -17 11 1 30 18 20 18 20 -10
18 -23 -2 -30 3 -32 21 -2 13 -10 22 -21 22 -10 0 -24 7 -31 15 -12 14 -15 14
-30 0 -9 -8 -26 -15 -38 -15 -12 0 -22 -6 -22 -14 0 -8 -6 -16 -12 -19 -10 -4
-10 -7 -1 -17 10 -11 7 -18 -14 -38 -30 -28 -21 -29 -183 33 -299 114 -601
192 -1005 260 -145 24 -714 39 -900 24z m295 -143 c0 -7 -7 -20 -17 -27 -26
-22 -53 -90 -53 -135 0 -25 10 -59 25 -88 29 -55 31 -72 9 -80 -24 -9 -152 -7
-158 3 -3 4 -1 23 4 41 l10 34 -33 -31 c-24 -23 -45 -33 -82 -37 -27 -4 -56
-2 -64 3 -18 12 -30 85 -30 192 -1 69 2 89 16 100 17 15 183 36 301 38 55 1
72 -2 72 -13z m392 -12 c14 -9 9 -21 -26 -60 -59 -66 -67 -140 -24 -212 34
-55 22 -64 -79 -56 -49 3 -92 10 -97 15 -6 5 -2 17 10 31 l19 22 -29 -18 c-62
-39 -163 -9 -185 56 -30 84 1 182 66 212 38 17 42 17 73 1 18 -9 43 -28 56
-42 l24 -26 -6 31 c-12 59 -5 63 97 57 51 -3 96 -8 101 -11z m-862 -14 c24
-17 28 -28 34 -92 3 -40 9 -100 12 -133 5 -54 3 -63 -19 -87 -22 -24 -33 -27
-103 -30 -76 -3 -78 -2 -84 22 -6 21 -8 22 -15 8 -7 -18 -43 -32 -108 -43 -43
-7 -49 3 -62 91 l-6 51 32 7 c50 10 71 7 90 -10 17 -15 18 -14 12 22 -7 49 -8
49 -31 26 -22 -22 -90 -38 -104 -24 -5 5 -12 34 -15 64 -6 61 -8 60 68 73 21
4 46 2 58 -4 19 -10 21 -9 21 13 0 28 16 36 73 37 23 0 58 7 77 14 19 7 37 14
38 14 2 1 16 -8 32 -19z m981 -26 c77 -39 79 -203 3 -263 -36 -28 -86 -27
-120 2 -22 19 -28 34 -32 80 -7 83 4 122 44 162 38 39 60 43 105 19z m248 -8
c16 -9 31 -22 34 -29 3 -8 -9 -72 -26 -142 -23 -91 -37 -131 -49 -137 -10 -4
-25 -12 -35 -16 -18 -9 -130 11 -145 26 -6 6 3 25 27 51 60 67 67 162 16 227
-11 14 -18 31 -14 37 9 14 156 1 192 -17z m-1665 -46 c10 -10 43 -162 52 -237
5 -43 3 -54 -10 -59 -9 -3 -16 -12 -16 -19 0 -13 -124 -51 -185 -57 l-30 -3 1
157 c1 185 5 195 85 219 52 16 84 16 103 -1z m1891 1 c86 -23 92 -39 39 -102
-20 -24 -48 -61 -62 -81 -28 -43 -59 -50 -67 -15 -21 90 -42 203 -38 210 7 11
53 7 128 -12z m-2095 -66 c8 -10 8 -35 1 -90 -17 -117 -22 -119 -83 -37 -24
31 -49 63 -56 71 -19 20 -11 34 35 57 44 22 84 22 103 -1z m2386 -15 c23 -10
45 -23 49 -30 4 -6 -13 -68 -36 -137 -36 -103 -48 -128 -69 -137 -14 -6 -27
-14 -30 -18 -9 -12 -93 22 -117 48 -26 28 -27 16 18 183 15 57 33 108 41 113
18 12 94 0 144 -22z m-442 -27 c14 -48 36 -194 31 -203 -10 -16 -35 -12 -72
11 -34 21 -35 23 -29 73 6 52 19 107 31 126 10 16 33 12 39 -7z m-2121 -35
c26 -28 28 -34 22 -82 -8 -59 -11 -66 -29 -66 -16 0 -116 126 -116 146 0 7 7
20 16 29 23 23 72 11 107 -27z m2337 -5 c0 -18 -13 -80 -31 -145 -12 -46 -49
-62 -97 -42 -18 7 -32 18 -32 24 0 11 73 112 113 158 24 26 47 29 47 5z
m-2449 -95 c35 -50 77 -105 92 -124 44 -52 35 -73 -43 -99 -36 -12 -101 -36
-144 -54 -94 -38 -132 -36 -121 6 5 23 4 25 -20 19 -18 -5 -27 -2 -31 9 -4 8
-13 15 -20 15 -8 0 -19 11 -26 25 -9 19 -7 29 6 50 10 14 24 29 32 32 8 3 14
19 14 39 0 32 -2 34 -20 24 -30 -16 -39 -5 -30 36 5 19 10 36 12 38 1 1 37 17
78 35 41 18 81 37 89 40 40 19 68 0 132 -91z m2856 82 c18 -11 38 -28 44 -38
12 -19 13 -19 33 5 l21 24 75 -31 c90 -38 98 -46 121 -106 21 -56 16 -71 -17
-49 -22 14 -25 14 -44 -5 -11 -11 -30 -20 -42 -21 l-23 0 23 -12 c15 -7 22
-17 19 -28 -4 -15 0 -17 24 -12 42 8 37 -15 -8 -33 -34 -15 -48 -15 -84 0 -12
5 -14 0 -11 -29 l4 -35 -41 0 c-44 0 -111 27 -111 45 0 6 7 21 16 34 16 22 16
23 -4 12 -29 -15 -76 -14 -119 4 -53 22 -64 34 -52 53 5 10 15 35 23 57 9 29
19 41 36 43 28 4 69 -15 92 -43 17 -20 17 -20 32 15 17 41 15 46 -11 29 -26
-16 -106 10 -111 35 -9 44 29 106 66 106 9 0 31 -9 49 -20z m-2627 -136 c27
-37 50 -71 50 -75 0 -11 -18 -21 -74 -41 -57 -20 -76 -12 -71 30 2 15 6 55 10
90 5 42 11 62 21 62 7 0 36 -30 64 -66z m1530 -79 c303 -23 520 -65 830 -162
97 -30 377 -135 403 -150 5 -3 1 -13 -7 -22 -15 -17 -13 -19 22 -29 25 -8 43
-21 50 -37 13 -28 11 -29 -49 -26 -20 2 -40 -2 -44 -8 -3 -6 -18 -11 -33 -11
-25 -1 -25 -2 -9 -14 9 -7 17 -23 17 -35 0 -16 6 -21 25 -21 33 0 43 -25 20
-50 -16 -17 -16 -21 -2 -35 9 -8 28 -15 44 -15 26 -1 72 -25 62 -34 -21 -18
-51 -25 -73 -16 -18 6 -34 6 -50 -2 -32 -14 -63 -4 -47 16 16 19 -2 30 -46 28
-33 -1 -34 -1 -27 33 4 25 3 35 -6 35 -10 0 -10 3 0 15 10 12 9 15 -6 15 -13
0 -19 8 -20 25 -2 29 -34 68 -34 41 0 -9 -6 -16 -13 -16 -16 0 -19 -32 -4 -41
14 -10 -1 -29 -18 -22 -9 3 -15 -1 -15 -11 0 -9 -4 -16 -10 -16 -5 0 -7 -7 -3
-16 4 -10 -1 -22 -12 -30 -11 -8 -16 -21 -12 -34 4 -16 1 -20 -11 -19 -27 3
-51 -11 -45 -27 3 -8 13 -14 23 -14 35 0 52 -11 39 -26 -8 -9 -24 -12 -55 -7
-28 4 -44 2 -44 -5 0 -16 59 -72 77 -72 8 0 13 -6 10 -12 -2 -8 -23 -13 -56
-13 -35 0 -55 -5 -61 -15 -12 -19 -8 -22 37 -29 54 -9 55 -31 1 -31 -41 0 -68
-13 -68 -32 0 -4 6 -8 14 -8 21 0 30 -18 17 -34 -13 -15 -5 -26 19 -26 10 0
23 -6 29 -14 13 -16 -4 -26 -43 -26 -26 0 -64 -25 -54 -35 4 -4 22 -10 40 -14
47 -10 41 -32 -12 -45 -50 -12 -60 -31 -18 -31 15 -1 30 -3 33 -7 10 -10 -7
-38 -24 -38 -9 0 -22 -10 -30 -21 -12 -20 -11 -21 9 -16 24 6 50 -1 50 -13 0
-4 -11 -11 -25 -14 -14 -4 -25 -13 -25 -21 0 -8 -5 -15 -11 -15 -8 0 -8 -5 1
-15 10 -12 9 -16 -4 -21 -28 -11 3 -37 36 -30 15 3 29 2 32 -3 3 -4 41 -6 86
-3 l80 5 0 -57 0 -56 -181 2 -181 3 -3 65 c-1 36 -7 76 -14 88 -7 13 -9 37 -5
57 5 29 9 33 20 24 8 -6 14 -21 14 -32 0 -25 21 -99 32 -111 4 -6 8 7 8 28 0
21 4 35 10 31 20 -12 -54 131 -81 157 -15 15 -48 32 -71 38 -73 18 -93 34 -96
77 -2 21 -8 43 -14 50 -6 7 -8 19 -5 27 7 18 -20 56 -39 56 -8 0 -24 -9 -36
-20 -17 -16 -18 -20 -6 -20 37 0 40 -112 4 -146 -19 -18 -35 -21 -126 -22 -57
-1 -109 3 -116 9 -9 7 -15 -7 -23 -54 -14 -83 -14 -87 7 -103 25 -20 76 -17
104 6 25 19 25 19 44 -1 16 -18 17 -25 5 -66 -6 -26 -22 -67 -35 -92 l-22 -46
-70 -3 c-93 -3 -97 0 -78 72 13 49 13 66 3 102 l-13 43 -93 -6 c-68 -4 -96 -3
-108 7 -13 11 -19 10 -35 -5 -24 -22 -22 -37 5 -41 24 -4 45 -31 45 -59 0 -12
-7 -43 -16 -69 l-16 -47 -50 3 -51 3 -2 98 c-1 53 -1 97 1 97 8 0 28 -48 33
-79 4 -19 11 -36 18 -38 17 -6 9 35 -21 97 -14 31 -23 63 -20 74 4 10 0 22 -7
27 -21 13 -306 11 -331 -2 -12 -6 -41 -12 -66 -13 -34 -1 -48 -6 -56 -21 -6
-11 -19 -32 -28 -46 -22 -33 -10 -40 51 -32 37 5 46 2 72 -23 26 -25 29 -34
24 -64 -13 -67 -18 -71 -98 -68 l-72 3 -3 48 -3 47 -110 0 -109 0 0 26 c0 21
4 24 20 19 11 -3 20 -2 20 4 0 5 -9 12 -19 16 -24 7 -26 13 -46 140 -26 165
-36 226 -56 322 -26 128 -26 133 12 133 20 0 29 4 26 13 -2 6 -16 11 -31 9
-19 -2 -26 2 -26 14 0 10 3 14 6 11 13 -12 65 27 61 45 -3 9 4 25 14 34 24 21
25 64 3 64 -10 0 -14 6 -10 15 3 8 0 28 -6 46 -8 23 -15 29 -29 26 -12 -3 -19
0 -19 8 0 17 -34 28 -60 20 -11 -3 -20 -13 -20 -21 0 -12 -4 -12 -20 -2 -23
15 -40 3 -43 -30 -2 -29 -56 -38 -98 -17 -46 25 -61 14 -57 -42 l3 -48 63 3
c62 3 63 3 56 -22 -5 -21 0 -29 28 -46 18 -11 29 -20 24 -20 -5 0 -3 -6 3 -13
13 -16 5 -28 -14 -21 -7 3 -16 1 -20 -5 -4 -7 5 -11 24 -11 38 0 42 -7 31 -56
-20 -96 -40 -198 -60 -314 -12 -69 -31 -162 -41 -207 -10 -45 -19 -90 -19
-100 0 -10 -5 -35 -11 -55 l-10 -38 -124 0 -125 0 0 50 c0 49 1 50 29 50 17 0
51 11 77 25 34 18 51 22 64 15 23 -12 36 14 16 32 -7 7 -11 21 -8 33 4 25 -13
42 -47 47 -14 1 -26 8 -28 13 -3 10 41 35 63 35 16 0 27 30 11 31 -7 1 -30 2
-52 3 -35 1 -40 4 -41 25 -2 26 16 51 36 51 6 0 8 5 5 10 -3 6 -16 10 -29 10
-22 0 -46 17 -46 32 0 4 10 8 21 8 16 0 20 5 17 18 -3 10 1 23 9 30 15 15 8
36 -9 25 -7 -3 -27 -7 -46 -7 -38 -1 -55 20 -25 31 46 16 67 57 23 46 -28 -7
-26 18 5 51 20 22 22 28 10 32 -8 4 -22 3 -31 0 -14 -5 -15 -1 -10 28 5 25 3
35 -9 40 -8 3 -15 14 -15 24 0 19 -18 42 -33 42 -5 0 -7 -14 -5 -31 4 -25 1
-32 -18 -39 -16 -7 -21 -15 -17 -29 3 -14 0 -23 -11 -27 -19 -7 -22 -54 -4
-72 13 -13 11 -14 -41 -16 -37 -2 -35 -18 4 -45 49 -33 33 -47 -37 -32 -29 6
-80 16 -113 22 -70 14 -67 12 -59 33 4 11 18 16 45 16 35 0 39 3 39 25 0 14 5
25 11 25 6 0 26 7 45 16 32 15 33 18 17 30 -10 7 -25 14 -33 14 -9 0 -23 9
-32 19 -14 16 -21 17 -55 8 -32 -8 -44 -7 -66 8 -26 17 -27 19 -12 42 13 19
14 27 4 39 -10 12 -5 14 26 14 35 0 37 2 31 25 -5 20 -3 25 12 25 18 0 40 19
57 49 6 10 1 12 -23 6 -18 -3 -33 -2 -37 4 -3 6 -26 11 -51 11 -24 0 -44 5
-44 10 0 6 -12 22 -28 35 l-27 24 43 1 c24 0 57 8 75 17 31 17 31 18 9 21 -18
3 -23 9 -19 23 4 14 0 19 -16 19 -29 0 -11 16 33 28 19 6 87 33 150 62 120 54
441 164 507 174 21 4 52 10 68 15 30 9 129 30 235 50 70 13 250 38 360 49 133
14 417 13 620 -3z m1399 -1283 c11 -22 2 -182 -12 -199 -7 -9 -50 -13 -152
-13 l-143 0 -4 40 c-2 23 0 46 4 53 8 13 72 11 99 -3 10 -6 25 -7 34 -4 14 6
14 8 -2 20 -16 12 -16 15 -3 24 8 5 34 10 57 10 51 0 59 10 31 39 -28 31 -18
39 69 50 7 0 17 -7 22 -17z m-3329 -7 c30 -8 56 -15 58 -15 1 0 5 0 10 0 23
-1 32 -18 23 -43 -10 -26 -9 -27 22 -29 17 -1 54 0 80 1 63 4 77 -9 77 -70 l0
-49 -210 0 -209 0 -6 33 c-8 47 -1 145 12 158 9 9 45 21 83 28 3 0 30 -6 60
-14z m2410 -62 c0 -33 -7 -55 -24 -77 -13 -18 -25 -40 -27 -51 -3 -14 -12 -20
-29 -20 -27 0 -36 24 -47 126 l-5 47 49 10 c84 17 83 17 83 -35z m94 -31 l29
-60 -22 -31 c-18 -25 -29 -31 -59 -31 -58 0 -67 11 -47 51 10 19 25 45 35 59
9 14 15 31 13 38 -6 17 5 45 15 38 4 -2 20 -31 36 -64z m-247 -9 c14 -44 17
-65 9 -85 -9 -26 -14 -28 -62 -28 -29 0 -55 4 -58 8 -6 10 72 162 83 162 5 0
17 -26 28 -57z m-1519 -35 l3 -68 -59 0 c-32 0 -61 2 -64 5 -7 8 13 108 25
123 6 8 26 12 51 10 l41 -3 3 -67z m130 -6 l3 -63 -48 3 -48 3 -3 49 c-5 70 0
78 50 74 l43 -3 3 -63z m690 55 c10 0 12 -9 8 -30 -3 -16 -6 -42 -6 -58 l0
-29 -75 0 -76 0 3 58 3 57 43 1 c23 0 45 4 49 8 4 4 14 4 22 0 9 -3 22 -7 29
-7z m-164 -41 c3 -14 2 -36 -4 -50 -8 -22 -16 -26 -50 -26 -45 0 -50 12 -24
61 14 28 50 52 65 43 4 -2 10 -15 13 -28z"/>
</g>
</svg>
