<?xml version="1.0" standalone="no"?>
<!DOCTYPE svg PUBLIC "-//W3C//DTD SVG 20010904//EN"
 "http://www.w3.org/TR/2001/REC-SVG-20010904/DTD/svg10.dtd">
<svg version="1.0" xmlns="http://www.w3.org/2000/svg"
 width="580.000000pt" height="400.000000pt" viewBox="0 0 580.000000 400.000000"
 preserveAspectRatio="xMidYMid meet">
<metadata>
Created by potrace 1.16, written by Peter Selinger 2001-2019
</metadata>
<g transform="translate(0.000000,400.000000) scale(0.100000,-0.100000)"
fill="#000000" stroke="none">
<path d="M2537 3554 c-4 -4 -51 -11 -104 -15 -141 -12 -286 -33 -403 -58 -56
-11 -214 -41 -258 -48 -18 -3 -35 -9 -38 -14 -3 -5 -18 -9 -34 -9 -16 0 -32
-4 -35 -10 -3 -5 -19 -10 -35 -10 -16 0 -32 -4 -35 -10 -3 -5 -17 -10 -30 -10
-13 0 -27 -4 -30 -10 -3 -5 -15 -10 -27 -10 -18 0 -85 -19 -143 -41 -11 -4
-36 -12 -55 -19 -19 -7 -46 -17 -60 -22 -14 -6 -34 -14 -45 -18 -11 -4 -31
-12 -45 -18 -59 -24 -110 -34 -137 -28 -15 4 -43 10 -60 13 -18 3 -33 9 -33
14 0 5 -5 9 -11 9 -6 0 -31 20 -55 43 -41 41 -96 67 -139 67 -35 0 -104 -50
-130 -94 -38 -65 -35 -129 10 -196 55 -81 75 -136 75 -201 0 -32 -5 -71 -11
-86 -47 -117 -59 -153 -59 -181 0 -15 -5 -33 -11 -39 -13 -13 -15 -274 -1
-300 5 -10 12 -35 15 -56 3 -21 16 -60 28 -85 58 -127 70 -149 89 -169 25 -28
25 -33 -3 -74 -95 -140 -129 -261 -131 -454 0 -159 17 -244 75 -357 5 -10 9
-56 9 -103 0 -84 -14 -128 -55 -175 -8 -8 -23 -37 -35 -65 -19 -43 -20 -55
-10 -88 30 -103 81 -147 169 -147 46 0 69 7 131 40 108 57 198 53 289 -12 l46
-33 1668 -3 1668 -3 47 38 c72 58 85 63 170 63 66 0 85 -4 113 -23 74 -49 111
-67 142 -67 42 1 119 40 132 68 5 12 13 22 17 22 5 0 8 9 8 20 0 11 5 20 11
20 8 0 10 19 6 61 -4 48 -13 73 -40 113 -20 28 -42 68 -51 90 -17 40 -22 155
-8 172 5 5 17 32 26 59 10 28 21 59 26 70 10 23 17 55 31 140 12 67 3 265 -11
279 -6 6 -10 19 -10 31 0 39 -58 179 -95 230 -36 49 -38 67 -9 106 26 35 47
77 93 192 6 15 11 38 11 50 0 13 4 27 10 33 14 14 22 211 11 284 -11 78 -20
109 -60 220 -47 128 -39 193 35 305 42 63 53 126 34 186 -7 21 -17 39 -22 39
-4 0 -8 6 -8 13 0 6 -21 24 -46 40 -66 40 -120 37 -176 -8 -106 -86 -126 -95
-207 -95 -49 0 -95 7 -135 21 -61 20 -71 24 -136 52 -19 8 -69 25 -110 37 -41
12 -83 26 -92 31 -10 5 -29 9 -42 9 -14 0 -28 5 -31 10 -3 6 -19 10 -35 10
-16 0 -31 4 -34 9 -3 5 -20 11 -38 14 -18 3 -62 13 -98 22 -36 9 -90 21 -120
26 -30 5 -77 14 -105 20 -100 20 -226 39 -400 60 -103 12 -807 23 -818 13z
m533 -744 c107 -5 231 -15 275 -21 501 -68 670 -120 891 -272 82 -57 249 -222
295 -292 71 -109 99 -154 99 -162 0 -9 42 -95 50 -103 16 -15 40 -126 40 -183
0 -79 -19 -126 -74 -184 -51 -55 -99 -60 -62 -8 25 38 25 72 -1 86 -12 7 -32
27 -42 45 -23 39 -55 49 -114 39 -23 -4 -72 -10 -108 -14 -45 -4 -74 -12 -88
-25 -24 -22 -28 -56 -7 -56 8 0 28 -11 44 -25 17 -14 37 -25 46 -25 11 0 16
-9 16 -29 0 -48 -25 -58 -132 -53 -51 2 -95 6 -97 8 -2 2 -3 63 -2 137 1 114
-2 139 -19 174 -23 49 -24 54 -8 88 14 30 28 33 28 4 0 -11 4 -28 9 -38 6 -10
13 -53 17 -97 9 -108 42 -147 68 -81 14 34 7 131 -16 209 -8 28 -8 45 2 68 25
60 -14 158 -76 190 -16 8 -48 27 -70 43 -36 23 -52 27 -113 27 -58 0 -71 3
-71 16 0 23 -33 13 -45 -14 -7 -15 -18 -22 -37 -22 -33 0 -78 19 -78 34 0 6
-9 22 -19 36 -16 19 -22 22 -34 12 -8 -7 -12 -22 -10 -35 2 -12 -1 -29 -6 -37
-8 -12 -16 -11 -53 9 -24 13 -61 33 -83 44 -22 10 -65 35 -96 53 -31 19 -62
34 -68 34 -7 0 -25 10 -41 21 -37 28 -57 19 -66 -28 -3 -21 -24 -61 -45 -89
-43 -56 -50 -97 -21 -113 17 -9 20 -29 26 -183 4 -94 11 -177 16 -183 4 -5 11
-51 15 -100 7 -82 5 -93 -15 -128 -13 -21 -30 -37 -40 -37 -11 0 -22 -4 -25
-10 -3 -5 -44 -10 -89 -10 l-83 0 4 230 c3 196 2 233 -11 252 -21 30 -20 42 7
86 31 49 40 107 23 146 -7 17 -19 50 -25 73 -12 43 -42 73 -73 73 -10 0 -24
11 -33 24 -12 18 -22 22 -43 18 -15 -3 -31 -11 -35 -19 -5 -8 -20 -18 -33 -23
-32 -13 -42 -39 -21 -55 23 -17 21 -31 -9 -71 -23 -30 -27 -45 -28 -109 -1
-40 -5 -77 -10 -82 -4 -4 -20 8 -36 27 -23 28 -31 33 -41 23 -22 -22 -34 -15
-97 59 -45 52 -62 80 -62 101 l0 29 -32 -19 c-30 -17 -49 -19 -188 -16 -197 5
-239 20 -240 86 0 38 -24 34 -49 -8 -11 -19 -36 -43 -56 -52 l-35 -17 -35 34
c-28 28 -35 31 -41 17 -8 -23 -69 -40 -131 -38 -29 1 -60 -2 -70 -7 -10 -5
-28 -14 -40 -20 -13 -7 -31 -12 -41 -12 -25 0 -59 -34 -77 -77 -22 -52 -12
-324 15 -408 11 -33 21 -76 23 -95 3 -21 10 -35 18 -35 10 0 15 18 17 68 2 37
6 67 10 67 4 0 13 -21 20 -47 8 -27 20 -72 29 -101 12 -43 13 -59 4 -79 -9
-20 -15 -23 -23 -15 -7 7 -34 12 -60 12 -41 0 -48 3 -48 19 0 11 -10 27 -22
35 -20 14 -22 25 -24 97 -1 57 -5 83 -15 90 -20 12 -33 -6 -20 -29 14 -26 14
-82 0 -82 -5 0 -19 20 -30 45 -11 24 -24 47 -30 51 -22 13 -21 -7 4 -58 33
-67 39 -114 15 -110 -13 2 -17 -6 -20 -35 -3 -33 -6 -38 -31 -41 -35 -4 -88
34 -121 86 -60 96 -63 189 -11 314 48 112 81 173 140 260 59 88 295 328 322
328 7 0 83 50 93 60 7 8 105 54 150 70 19 7 40 17 45 20 6 4 66 21 135 38 209
52 526 94 795 105 39 2 77 4 85 5 8 1 103 -3 210 -8z m275 -620 c8 -16 26 -37
40 -48 22 -17 25 -28 25 -78 0 -34 7 -72 16 -89 29 -57 48 -140 51 -235 4 -94
4 -95 -33 -157 l-37 -63 -89 0 c-49 0 -98 5 -109 11 -19 10 -19 10 0 37 27 39
34 88 21 157 -20 106 -31 208 -34 308 -4 143 -1 155 40 163 18 3 38 12 44 19
16 19 49 6 65 -25z m-927 -101 c37 -17 74 -34 82 -38 12 -6 16 -35 20 -128 5
-109 7 -123 32 -161 36 -54 58 -66 86 -46 20 14 22 24 22 124 0 110 7 133 31
103 11 -12 14 -60 14 -207 0 -185 -1 -191 -20 -188 -11 1 -44 -3 -73 -9 -41
-10 -70 -9 -137 1 -47 7 -87 16 -89 19 -2 3 -6 34 -10 68 -6 55 -4 65 14 83
28 28 25 38 -17 49 -51 15 -51 15 -58 -19 -6 -26 -23 -45 -94 -102 -15 -13
-21 -29 -21 -57 0 -37 -2 -39 -36 -45 -20 -4 -50 -4 -67 0 -18 4 -39 7 -48 5
-11 -1 -27 16 -44 46 l-27 48 17 75 c9 41 30 102 46 136 16 33 29 68 29 78 0
9 12 22 26 28 14 7 34 29 45 51 21 40 64 71 139 99 61 22 62 22 138 -13z m422
-61 c12 -21 20 -51 20 -80 0 -25 7 -75 16 -110 21 -81 14 -241 -12 -270 -18
-19 -44 -24 -44 -8 0 6 -7 10 -16 10 -14 0 -15 23 -9 223 6 215 10 267 20 267
3 0 14 -15 25 -32z m-199 -255 c-9 -85 -95 -13 -103 87 -1 8 -1 46 0 84 l2 69
45 -6 c32 -5 46 -3 47 6 4 23 13 -208 9 -240z m1281 180 c8 -10 18 -25 22 -33
4 -8 13 -26 21 -40 10 -17 15 -56 15 -122 0 -97 0 -97 -42 -162 -46 -72 -40
-70 -163 -70 -25 0 -66 1 -93 2 l-47 2 0 78 c0 42 -4 123 -9 180 -6 74 -6 102
3 102 6 0 11 -9 11 -19 0 -26 15 -34 46 -27 17 5 24 13 24 30 0 21 7 26 51 36
28 7 70 23 93 36 49 29 49 28 68 7z m-2205 -14 c25 -14 59 -23 98 -24 33 -2
75 -11 93 -20 l34 -17 -7 -60 c-4 -32 -7 -107 -7 -166 l-1 -107 -126 0 c-69 0
-132 -2 -139 -5 -8 -3 -19 4 -25 15 -7 11 -17 24 -23 30 -21 18 -54 124 -54
171 0 24 5 54 12 67 25 48 28 58 28 81 0 44 10 56 46 56 18 0 50 -10 71 -21z
m1834 -96 c1 -5 3 -20 4 -34 2 -14 10 -52 18 -85 18 -70 17 -84 -12 -146 -15
-33 -28 -48 -41 -48 -17 0 -19 5 -13 33 3 17 10 36 14 42 5 5 9 62 9 127 0 72
4 118 10 118 6 0 11 -3 11 -7z"/>
</g>
</svg>
