<?xml version="1.0" standalone="no"?>
<!DOCTYPE svg PUBLIC "-//W3C//DTD SVG 20010904//EN"
 "http://www.w3.org/TR/2001/REC-SVG-20010904/DTD/svg10.dtd">
<svg version="1.0" xmlns="http://www.w3.org/2000/svg"
 width="580.000000pt" height="400.000000pt" viewBox="0 0 580.000000 400.000000"
 preserveAspectRatio="xMidYMid meet">
<metadata>
Created by potrace 1.16, written by Peter Selinger 2001-2019
</metadata>
<g transform="translate(0.000000,400.000000) scale(0.100000,-0.100000)"
fill="#000000" stroke="none">
<path d="M2850 3597 c-3 -3 -123 -10 -266 -16 -143 -5 -272 -15 -286 -20 -15
-6 -75 -15 -135 -21 -59 -6 -135 -17 -168 -25 -33 -7 -85 -16 -115 -20 -30 -4
-61 -11 -70 -16 -8 -4 -40 -12 -70 -18 -84 -15 -193 -41 -211 -51 -9 -4 -45
-14 -80 -21 -35 -6 -68 -15 -74 -19 -5 -4 -50 -19 -100 -34 -49 -15 -99 -32
-110 -37 -34 -16 -159 -49 -185 -49 -36 0 -124 32 -144 53 -10 9 -20 17 -24
17 -4 0 -24 16 -46 35 -36 33 -42 35 -110 35 -53 0 -78 -5 -100 -19 -37 -25
-84 -94 -92 -136 -8 -42 12 -113 42 -149 68 -80 89 -179 58 -268 -10 -29 -21
-55 -24 -58 -9 -8 -39 -112 -50 -171 -24 -124 -11 -309 26 -396 8 -17 14 -35
14 -39 0 -9 50 -111 63 -129 4 -5 19 -27 33 -49 l25 -38 -26 -33 c-14 -19 -25
-38 -25 -43 0 -6 -3 -12 -7 -14 -12 -5 -61 -108 -69 -143 -4 -16 -10 -34 -14
-40 -7 -10 -11 -28 -29 -138 -17 -102 8 -259 64 -412 44 -120 44 -172 0 -259
-15 -31 -31 -56 -35 -56 -15 0 -45 -87 -45 -130 0 -59 26 -107 78 -145 37 -27
50 -30 113 -30 66 0 75 3 111 31 92 74 212 96 298 54 22 -11 44 -19 48 -20 5
0 27 -21 50 -46 50 -55 94 -85 161 -107 45 -16 179 -17 1578 -17 1369 0 1535
2 1581 16 81 25 98 35 165 102 35 34 68 62 74 62 6 0 16 7 22 16 16 22 129 30
195 14 28 -6 51 -16 51 -20 0 -5 9 -12 21 -15 12 -4 29 -14 39 -23 50 -45 55
-47 130 -47 57 0 82 5 103 19 33 22 72 87 82 135 7 32 -10 115 -27 136 -5 6
-20 24 -33 40 -37 45 -48 89 -43 174 4 67 17 112 48 173 42 79 55 322 25 451
-10 42 -22 77 -27 77 -4 0 -8 7 -8 17 0 24 -58 143 -86 176 -31 37 -30 55 6
106 32 44 80 144 80 167 0 8 4 14 8 14 19 0 42 147 42 262 0 113 -20 241 -41
263 -5 5 -9 19 -9 32 0 13 -4 23 -9 23 -5 0 -17 33 -25 73 -14 62 -14 80 -3
129 8 31 29 78 49 105 46 63 62 114 54 166 -17 103 -82 157 -189 157 -60 0
-69 -3 -118 -40 -30 -21 -61 -45 -69 -52 -55 -49 -124 -57 -232 -28 -46 12
-87 25 -93 29 -5 4 -48 20 -95 35 -47 15 -94 31 -105 36 -11 5 -51 16 -90 24
-38 8 -104 25 -145 36 -41 11 -103 25 -138 30 -34 6 -70 14 -80 19 -23 13
-228 49 -344 62 -51 5 -104 14 -118 19 -14 6 -135 15 -270 20 -135 6 -285 13
-335 16 -49 4 -92 4 -95 1z m535 -817 c116 -12 224 -25 240 -30 17 -5 64 -14
105 -19 117 -15 274 -43 280 -51 3 -3 28 -12 55 -20 28 -7 55 -17 62 -22 7 -6
36 -22 65 -37 95 -47 171 -103 248 -180 89 -90 150 -160 150 -173 0 -5 8 -18
19 -29 10 -11 30 -43 45 -72 15 -29 36 -68 47 -87 10 -19 19 -43 19 -52 0 -10
4 -18 9 -18 5 0 11 -13 13 -30 l5 -30 -494 0 c-393 0 -497 3 -507 13 -8 7 -15
32 -18 55 -3 35 -1 42 14 42 10 0 18 4 18 8 0 12 99 42 116 35 8 -3 14 1 14
11 0 10 6 13 15 10 8 -4 15 -1 15 5 0 6 5 11 11 11 6 0 9 -7 5 -15 -10 -26 3
-16 19 15 29 56 19 83 -43 118 -20 11 -28 10 -54 -5 -17 -10 -36 -27 -42 -38
-22 -39 -37 -49 -55 -38 -9 6 -31 14 -48 17 -35 8 -47 19 -58 56 -4 14 -12 28
-18 31 -5 4 -9 19 -9 33 0 19 -7 28 -24 32 -12 3 -27 3 -33 0 -11 -7 -11 -46
1 -46 12 0 10 -48 -3 -69 -23 -36 20 -141 58 -141 17 0 54 -70 48 -91 -3 -10
-15 -21 -26 -24 -10 -4 -19 -11 -19 -16 0 -5 -31 -9 -70 -9 -40 0 -70 4 -70
10 0 6 -16 10 -35 10 l-35 0 0 -310 0 -310 -77 0 c-43 0 -169 -3 -280 -7 -193
-6 -203 -5 -208 13 -4 10 -11 27 -16 36 -15 29 -11 162 7 203 13 31 14 51 6
110 -12 90 -6 124 23 135 25 9 40 28 31 37 -3 3 -18 5 -33 5 -15 0 -32 4 -38
8 -16 13 -138 7 -142 -7 -2 -6 5 -21 16 -32 40 -40 28 -51 -56 -51 -101 0
-108 5 -92 59 7 22 16 41 21 41 4 0 8 7 8 15 0 8 10 24 22 35 21 19 31 20 132
15 117 -6 126 -3 126 43 0 12 -9 30 -20 39 -11 10 -20 21 -20 25 0 5 -9 17
-20 28 -11 11 -20 27 -20 35 0 8 9 19 20 25 11 6 20 16 20 22 0 6 7 16 17 23
36 27 -25 49 -65 24 -14 -9 -26 -8 -50 5 -24 12 -37 14 -51 6 -11 -5 -27 -7
-37 -3 -10 4 -21 0 -29 -10 -8 -11 -40 -20 -101 -27 -49 -6 -90 -15 -92 -21
-5 -12 -69 -12 -77 1 -8 12 -145 13 -145 1 0 -27 -317 -34 -435 -10 -27 6 -95
12 -150 15 -97 4 -100 3 -118 -21 -13 -19 -20 -57 -27 -157 -5 -73 -7 -149 -4
-169 4 -26 0 -50 -16 -85 -24 -52 -38 -184 -20 -184 6 0 10 -6 10 -13 0 -8 12
-14 30 -14 27 0 29 3 33 46 2 25 3 -6 1 -69 -1 -63 -4 -128 -6 -145 l-3 -30
-110 0 c-106 0 -205 18 -205 36 0 5 -6 9 -13 9 -19 0 -66 54 -93 108 -21 40
-24 60 -23 142 0 52 4 120 9 150 9 67 47 209 59 224 5 6 12 26 16 44 3 17 11
32 16 32 5 0 9 6 9 13 0 17 61 131 72 135 4 2 8 10 8 18 0 8 4 14 8 14 5 0 24
21 42 48 35 49 133 149 190 192 18 14 42 33 53 43 11 9 26 17 33 17 7 0 17 6
21 13 4 7 35 25 68 42 33 16 62 32 65 36 3 3 21 9 40 13 19 3 48 13 64 21 31
16 56 21 256 49 63 9 129 21 145 26 17 5 100 16 185 24 85 9 171 17 190 19 19
2 157 5 305 5 206 2 320 -3 480 -18z m1394 -980 c6 -28 11 -53 11 -55 0 -3
-292 -5 -650 -5 l-650 0 0 55 0 55 639 0 639 0 11 -50z m-2896 -145 c66 -21
90 -24 145 -19 37 4 72 11 79 16 6 5 43 12 81 15 l71 6 6 -34 c3 -19 2 -47 -4
-62 -6 -16 -11 -55 -11 -88 0 -33 -5 -70 -11 -82 -7 -12 -12 -35 -13 -52 l-1
-30 -265 0 c-257 0 -265 1 -269 20 -2 11 -8 23 -15 27 -7 5 -11 48 -11 123 0
121 6 138 44 128 10 -2 31 9 50 26 18 17 36 31 40 31 3 0 41 -12 84 -25z m612
-22 c-12 -90 -37 -228 -45 -248 -5 -11 -10 -29 -12 -40 -5 -33 -22 -17 -37 35
-11 42 -11 66 0 157 l14 108 35 17 c50 24 52 23 45 -29z m2295 -23 l0 -60
-647 2 -648 3 -3 49 c-2 32 1 52 10 57 7 5 300 9 651 9 l637 0 0 -60z m-2087
-123 c5 -28 10 -76 11 -104 l2 -53 -47 0 c-44 0 -47 2 -53 31 -19 95 1 177 39
163 8 -4 18 1 21 10 9 25 17 12 27 -47z m-155 1 c5 -7 12 -46 14 -85 l4 -73
-37 0 -36 0 4 53 c5 60 21 117 33 117 4 0 12 -6 18 -12z m2212 -19 c0 -35 -51
-88 -119 -121 l-46 -23 -552 -3 -553 -3 0 81 0 80 635 0 c443 0 635 -3 635
-11z"/>
</g>
</svg>
