<?xml version="1.0" standalone="no"?>
<!DOCTYPE svg PUBLIC "-//W3C//DTD SVG 20010904//EN"
 "http://www.w3.org/TR/2001/REC-SVG-20010904/DTD/svg10.dtd">
<svg version="1.0" xmlns="http://www.w3.org/2000/svg"
 width="580.000000pt" height="400.000000pt" viewBox="0 0 580.000000 400.000000"
 preserveAspectRatio="xMidYMid meet">
<metadata>
Created by potrace 1.16, written by Peter Selinger 2001-2019
</metadata>
<g transform="translate(0.000000,400.000000) scale(0.100000,-0.100000)"
fill="#000000" stroke="none">
<path d="M2615 3513 c-450 -24 -884 -114 -1360 -283 -76 -27 -99 -31 -148 -26
-67 7 -97 21 -152 72 -56 52 -113 76 -154 64 -145 -41 -179 -182 -76 -317 59
-77 71 -211 28 -299 -44 -87 -59 -288 -32 -425 17 -86 68 -214 112 -281 43
-63 44 -71 18 -104 -29 -36 -81 -167 -97 -243 -26 -126 -13 -284 36 -416 63
-169 64 -174 52 -230 -6 -30 -26 -76 -46 -105 -31 -44 -36 -61 -36 -107 0 -58
10 -85 44 -119 49 -49 119 -60 178 -29 18 10 50 27 71 38 92 48 193 31 271
-46 89 -86 69 -82 436 -84 428 -3 1464 -20 2062 -34 540 -13 530 -14 613 62
100 93 221 94 344 4 26 -19 46 -25 86 -25 64 0 114 34 146 99 19 38 21 49 11
90 -6 26 -26 70 -45 98 -58 85 -57 157 3 294 50 112 63 187 57 329 -5 136 -33
246 -82 325 -52 85 -51 78 -9 142 63 94 100 182 124 288 18 81 13 269 -10 350
-11 39 -27 97 -36 130 -30 104 -10 179 81 304 48 66 28 185 -41 237 -69 53
-151 42 -230 -31 -78 -72 -165 -90 -259 -56 -402 148 -568 196 -885 261 -303
61 -740 91 -1075 73z m437 -723 c347 -21 673 -80 853 -155 315 -130 545 -370
679 -707 65 -164 12 -316 -132 -380 -41 -19 -58 -19 -424 -9 -210 6 -461 11
-560 11 -204 0 -207 1 -165 73 38 65 127 142 203 178 38 17 84 39 103 48 54
25 124 100 157 166 23 47 30 77 33 138 3 71 0 84 -28 142 -69 139 -175 174
-338 113 -39 -14 -73 -38 -114 -79 l-59 -59 -63 63 c-36 38 -77 69 -98 76 -36
12 -36 12 -41 79 -5 73 -23 115 -75 179 -103 125 -333 83 -448 -81 l-21 -29
-36 49 c-20 27 -55 60 -78 74 -117 71 -109 83 72 99 239 21 367 24 580 11z
m-1012 -105 c0 -8 -11 -31 -25 -51 -35 -51 -48 -108 -42 -182 6 -84 61 -196
121 -249 46 -40 50 -43 161 -94 85 -39 190 -140 233 -225 l28 -56 30 58 c30
61 143 184 168 184 8 0 26 -25 40 -55 36 -80 100 -136 220 -194 87 -42 113
-60 163 -116 67 -72 98 -124 83 -139 -10 -10 -131 -10 -1225 3 l-630 8 -50 26
c-188 96 -193 280 -16 579 141 238 353 405 646 506 46 16 95 15 95 -3z"/>
</g>
</svg>
