<?xml version="1.0" standalone="no"?>
<!DOCTYPE svg PUBLIC "-//W3C//DTD SVG 20010904//EN"
 "http://www.w3.org/TR/2001/REC-SVG-20010904/DTD/svg10.dtd">
<svg version="1.0" xmlns="http://www.w3.org/2000/svg"
 width="580.000000pt" height="400.000000pt" viewBox="0 0 580.000000 400.000000"
 preserveAspectRatio="xMidYMid meet">
<metadata>
Created by potrace 1.16, written by Peter Selinger 2001-2019
</metadata>
<g transform="translate(0.000000,400.000000) scale(0.100000,-0.100000)"
fill="#000000" stroke="none">
<path d="M2465 3644 c-60 -8 -135 -18 -165 -24 -30 -5 -95 -17 -145 -25 -85
-15 -112 -22 -252 -61 -74 -21 -202 -62 -228 -74 -11 -4 -33 -11 -50 -15 -16
-4 -48 -15 -72 -26 -23 -10 -44 -19 -47 -19 -3 0 -51 -22 -108 -49 -57 -27
-130 -61 -163 -76 -33 -15 -62 -30 -65 -34 -8 -10 -73 -42 -113 -57 -45 -16
-77 -5 -77 27 0 11 -12 31 -26 44 -57 53 -144 19 -158 -63 -16 -93 -16 -92
-47 -92 -33 0 -36 -7 -11 -26 16 -13 16 -15 -3 -29 -17 -14 -18 -17 -5 -25 8
-5 18 -10 23 -10 4 0 7 -9 7 -20 0 -13 -7 -20 -20 -20 -11 0 -20 5 -20 10 0
23 -18 8 -23 -20 -5 -24 -12 -30 -32 -30 -31 0 -31 -3 2 -36 25 -26 26 -27 8
-40 -10 -8 -29 -14 -42 -14 -26 0 -29 -17 -11 -67 15 -40 7 -50 -24 -29 -29
21 -38 20 -38 -3 0 -14 -10 -22 -32 -26 -26 -6 -28 -9 -15 -17 9 -5 17 -17 17
-28 0 -15 6 -17 39 -13 31 4 44 1 62 -16 28 -25 15 -44 -28 -43 -84 3 -133 9
-145 19 -10 9 -13 2 -13 -38 0 -46 2 -49 25 -49 35 0 47 -10 65 -53 13 -33 18
-36 44 -31 20 4 30 1 34 -10 10 -26 -28 -40 -78 -27 -24 6 -70 8 -104 5 -55
-6 -59 -8 -50 -25 6 -13 6 -19 -1 -19 -5 0 -10 -6 -10 -13 0 -17 94 -51 126
-44 17 3 29 -2 39 -16 23 -33 8 -40 -76 -34 -44 3 -82 1 -85 -4 -3 -5 -18 -9
-35 -9 -31 0 -39 -14 -14 -24 8 -3 15 -18 15 -34 0 -26 3 -28 29 -24 23 3 30
0 36 -18 7 -21 -1 -32 -30 -44 -21 -8 35 -46 68 -46 18 0 42 -6 53 -14 30 -23
3 -41 -64 -42 -149 -3 -141 -1 -140 -34 1 -16 -5 -36 -12 -45 -11 -13 -8 -15
18 -15 17 0 34 -4 37 -10 3 -5 22 -10 41 -10 37 0 74 -15 74 -29 0 -13 -57
-31 -96 -31 -18 0 -36 -4 -39 -10 -3 -5 -17 -10 -31 -10 -22 0 -25 -4 -22 -27
3 -27 5 -28 61 -29 31 0 60 -3 63 -7 3 -3 0 -20 -7 -36 -12 -27 -19 -31 -51
-31 -31 0 -38 -4 -38 -19 0 -11 -9 -23 -20 -26 -23 -7 -24 -14 -6 -38 12 -15
18 -17 36 -7 25 13 72 10 77 -6 2 -6 -17 -19 -42 -28 -37 -14 -45 -22 -40 -36
4 -13 -1 -22 -15 -30 -23 -13 -27 -30 -5 -30 28 0 16 -30 -15 -37 -37 -7 -37
-13 -4 -42 24 -21 34 -23 89 -17 49 5 65 3 75 -9 16 -19 43 -19 83 1 20 11 57
17 101 18 63 0 70 -2 92 -27 21 -25 24 -38 24 -116 0 -96 -4 -103 -75 -115
-64 -10 -121 -28 -153 -48 -35 -22 -112 -95 -112 -106 0 -4 -6 -19 -14 -34
-57 -109 -59 -276 -5 -377 24 -46 91 -121 106 -121 7 0 13 -4 13 -9 0 -5 9
-13 20 -16 11 -3 27 -14 37 -23 15 -16 174 -17 2318 -17 2179 0 2302 1 2319
17 10 10 22 18 28 18 24 0 131 110 153 157 10 20 22 67 28 105 16 100 -8 249
-44 278 -4 3 -15 20 -26 37 -39 65 -136 123 -205 123 -15 0 -38 10 -52 23 -21
19 -25 34 -31 103 -6 80 -6 82 20 102 21 17 31 19 50 10 17 -7 33 -7 56 1 32
11 100 0 124 -21 15 -13 23 -9 27 14 2 14 13 25 28 29 14 4 19 7 13 8 -19 1
-16 31 3 31 8 0 23 7 31 16 18 17 71 13 84 -7 10 -17 49 0 49 21 0 10 10 21
23 24 l22 7 -22 11 c-14 7 -23 20 -23 34 0 17 -7 25 -25 30 -25 6 -35 34 -12
34 6 0 12 13 13 30 1 24 -4 32 -22 36 -23 6 -34 34 -14 34 6 0 10 5 10 10 0 6
-6 10 -14 10 -8 0 -16 4 -18 9 -1 5 -36 14 -76 20 -41 5 -76 12 -79 14 -9 10
28 55 49 60 12 3 30 2 40 -4 15 -8 18 -6 18 19 0 15 7 37 15 48 21 28 18 34
-14 34 -19 0 -35 8 -45 21 -14 20 -16 20 -31 5 -17 -17 -28 -14 -70 17 -19 15
-19 15 -1 36 15 17 17 24 8 33 -20 20 -13 28 24 28 34 0 36 2 30 25 -6 23 -3
25 24 25 16 0 30 5 30 12 0 6 7 19 16 29 15 17 14 18 -20 12 -27 -4 -37 -2
-42 11 -4 11 -18 16 -45 16 -21 0 -47 7 -56 16 -10 8 -29 24 -43 34 l-25 19
58 1 c42 0 66 5 83 19 24 19 24 19 3 24 -15 4 -20 11 -16 21 5 12 0 16 -19 16
-40 0 -23 25 19 28 28 2 35 7 30 19 -4 10 3 23 18 34 l24 19 -32 0 c-31 0 -33
2 -33 35 0 19 -4 35 -10 35 -5 0 -10 -5 -10 -10 0 -6 -9 -20 -19 -31 -16 -17
-34 -22 -102 -25 -58 -2 -85 0 -91 9 -12 18 -10 27 7 27 8 0 23 9 32 20 12 13
24 18 41 13 18 -4 24 -1 29 15 3 12 14 24 25 28 11 3 17 12 14 19 -3 8 3 17
15 20 53 17 -21 42 -91 31 l-38 -6 11 35 c8 27 16 35 34 35 20 0 23 4 21 33
-3 30 -1 32 30 29 28 -2 32 1 32 24 0 17 6 28 20 31 32 9 23 23 -14 23 -19 0
-38 5 -42 11 -4 7 -24 9 -54 5 -42 -6 -48 -4 -53 14 -3 14 1 24 14 31 11 5 16
15 13 21 -4 6 1 17 11 24 20 15 22 12 -31 29 -12 4 -14 12 -9 32 4 16 12 31
18 36 7 4 -7 5 -30 2 -46 -7 -54 2 -26 30 14 14 14 18 2 25 -11 7 -11 12 -1
22 21 21 13 27 -20 17 -36 -10 -39 -7 -64 61 -38 106 -50 119 -111 120 -36 0
-46 -5 -67 -33 -15 -19 -26 -39 -26 -45 0 -21 -37 -33 -67 -22 -45 17 -113 54
-113 62 0 5 -5 8 -11 8 -6 0 -53 20 -106 45 -52 25 -98 45 -103 45 -5 0 -10 3
-12 8 -1 4 -37 20 -78 37 -41 16 -79 32 -85 35 -5 4 -57 22 -115 40 -58 18
-109 36 -115 40 -5 4 -27 11 -49 14 -21 4 -46 11 -55 16 -23 13 -125 40 -196
51 -33 5 -91 16 -130 24 -38 8 -140 24 -225 35 -189 24 -626 27 -805 4z m226
-124 c26 -14 24 -35 -5 -57 -57 -45 -78 -145 -51 -239 9 -33 22 -63 29 -69 47
-38 12 -77 -65 -73 l-54 3 3 53 c3 33 0 52 -7 52 -6 0 -11 -6 -11 -13 0 -63
-191 -132 -218 -79 -10 18 -24 101 -42 247 -10 82 -10 90 7 102 10 7 23 17 29
22 14 12 106 28 249 45 61 7 111 14 113 15 2 0 12 -4 23 -9z m463 -6 c26 -10
18 -43 -14 -63 -17 -10 -45 -37 -62 -61 -28 -38 -31 -49 -32 -119 0 -57 5 -87
21 -120 29 -60 22 -71 -43 -71 -49 0 -54 2 -60 25 -4 15 -1 32 6 40 17 21 1
19 -39 -6 -43 -26 -105 -29 -151 -7 -38 18 -80 67 -80 93 0 8 -5 24 -12 34 -9
15 -9 32 2 78 8 32 20 69 26 82 33 63 143 83 197 36 15 -13 27 -29 27 -35 0
-5 5 -10 10 -10 6 0 10 -9 10 -20 0 -11 7 -20 16 -20 10 0 14 6 11 18 -16 54
-18 115 -5 123 15 10 148 12 172 3z m323 -49 c19 -8 43 -15 53 -15 9 0 25 -9
35 -20 10 -11 24 -20 32 -20 26 0 11 -99 -26 -170 -5 -9 -12 -31 -16 -50 -4
-19 -10 -39 -14 -45 -3 -5 -13 -30 -21 -55 -14 -43 -17 -45 -64 -52 -87 -12
-122 20 -70 64 39 35 67 105 67 169 0 44 -7 68 -33 116 -48 87 -29 114 57 78z
m-1301 -35 c10 0 39 -184 51 -320 l4 -55 -40 -22 c-66 -38 -81 -29 -81 48 0
49 -15 50 -31 2 -17 -52 -37 -70 -94 -84 -28 -6 -56 -16 -62 -22 -7 -5 -19 -7
-26 -4 -15 6 -62 151 -53 165 3 5 26 15 52 22 46 13 51 12 116 -15 15 -6 15
-2 6 37 -6 24 -15 47 -19 53 -5 5 -9 17 -9 27 0 30 -18 20 -25 -13 -5 -24 -17
-35 -49 -50 -52 -24 -85 -24 -92 -1 -3 9 -10 26 -14 37 -15 36 -19 70 -10 85
11 19 107 48 137 42 14 -3 27 -11 30 -18 11 -29 29 -14 25 21 -3 22 1 40 11
49 20 20 104 34 142 24 16 -4 31 -8 31 -8z m1138 14 c9 -3 25 -22 38 -42 31
-50 32 -168 1 -234 -44 -92 -133 -118 -189 -55 -44 48 -73 174 -44 192 6 3 10
19 10 36 0 16 3 29 8 29 4 0 13 14 21 31 7 17 23 34 35 39 25 10 98 13 120 4z
m550 -90 c16 -8 35 -14 43 -14 23 0 53 -38 46 -57 -7 -17 -38 -54 -125 -145
-21 -22 -38 -44 -38 -49 0 -5 -11 -9 -24 -9 -22 0 -25 6 -35 63 -6 34 -14 102
-17 151 l-7 89 64 -7 c35 -4 77 -14 93 -22z m-2163 -60 c16 -4 27 -34 65 -171
9 -32 20 -66 25 -76 5 -9 12 -38 16 -63 5 -40 4 -46 -15 -51 -12 -3 -22 -12
-24 -20 -2 -8 -42 -31 -90 -53 -82 -36 -87 -37 -102 -21 -9 10 -16 32 -16 49
0 18 -4 51 -10 74 -5 24 -16 90 -24 148 -13 97 -13 108 3 140 25 49 91 66 172
44z m2459 -55 c3 -4 17 -10 32 -14 30 -8 98 -71 98 -92 0 -13 -20 -54 -31 -63
-4 -3 -10 -16 -14 -30 -4 -14 -13 -32 -20 -40 -7 -8 -18 -30 -26 -47 -8 -18
-17 -33 -20 -33 -4 0 -10 -11 -13 -25 -12 -48 -45 -75 -94 -75 -24 0 -50 6
-57 13 -33 29 -45 37 -54 37 -12 0 -21 25 -21 56 0 25 52 195 69 225 5 9 14
35 20 57 11 37 15 41 49 45 41 4 74 -2 82 -14z m-2676 -51 c27 -183 28 -191
14 -199 -26 -17 -41 -8 -111 61 -39 39 -74 70 -79 70 -18 0 -7 21 17 32 14 6
25 17 25 24 0 11 37 27 67 29 6 0 15 4 19 8 19 19 43 6 48 -25z m2163 10 c6
-13 17 -67 23 -122 11 -83 11 -99 -1 -107 -8 -5 -20 -7 -27 -4 -8 3 -20 5 -28
5 -8 0 -14 6 -14 13 0 7 -10 17 -22 22 -19 8 -23 17 -21 50 2 21 7 43 13 49 5
5 10 18 10 28 0 26 32 88 45 88 6 0 16 -10 22 -22z m257 -54 c18 -7 21 -35 7
-62 -5 -9 -17 -44 -26 -77 -20 -69 -35 -85 -81 -85 -78 0 -107 36 -61 77 12
11 49 50 82 86 33 36 61 66 62 67 1 0 8 -3 17 -6z m-2628 -89 c37 -33 39 -36
39 -97 0 -88 -18 -88 -112 -1 -66 62 -88 93 -64 93 5 0 11 8 13 18 4 13 16 18
45 19 32 1 47 -5 79 -32z m3154 5 c0 -4 11 -11 25 -14 26 -7 55 -51 55 -86 0
-11 5 -20 10 -20 6 0 10 7 10 15 0 8 5 15 10 15 6 0 10 6 10 14 0 28 21 28 78
-1 61 -30 71 -37 133 -95 l40 -38 -31 0 c-35 0 -38 -13 -15 -67 8 -19 15 -37
15 -39 0 -10 -18 -2 -39 17 -12 12 -23 19 -25 18 -1 -2 -7 -16 -14 -31 -9 -22
-18 -28 -42 -28 -35 0 -38 -10 -9 -28 13 -8 18 -19 14 -31 -5 -17 -2 -18 40
-10 40 7 49 6 68 -12 19 -17 20 -21 7 -29 -22 -14 -53 -12 -75 4 -15 10 -25
11 -43 3 -16 -8 -25 -8 -30 0 -4 6 -18 14 -31 18 -23 7 -23 6 -17 -28 5 -26 3
-36 -9 -41 -8 -3 -15 -12 -15 -21 0 -15 -16 -21 -22 -7 -1 4 -25 18 -52 32
-60 30 -96 58 -96 73 0 7 11 24 25 39 30 33 25 68 -6 37 -29 -29 -81 -24 -150
14 -67 36 -71 49 -34 107 14 22 25 43 25 48 0 5 8 17 19 26 18 16 21 16 60 -5
52 -27 75 -60 67 -94 -9 -36 8 -31 30 10 10 19 21 35 24 35 8 0 33 60 28 66
-8 7 -38 -7 -38 -17 0 -5 -13 -9 -30 -9 -16 0 -30 4 -30 9 0 5 -14 14 -30 21
-42 17 -57 46 -36 69 9 10 16 23 16 30 0 6 11 23 24 36 22 22 28 23 55 14 17
-6 31 -15 31 -19z m-3361 -75 c9 -8 35 -31 57 -52 144 -132 214 -200 219 -211
2 -7 -3 -21 -13 -31 -22 -24 -119 -91 -130 -91 -5 0 -18 -8 -30 -17 -73 -63
-65 -60 -93 -34 -17 16 -19 23 -9 41 11 21 10 22 -19 15 -19 -4 -31 -3 -31 4
0 6 -11 6 -32 0 -46 -13 -50 -12 -38 11 12 22 5 60 -11 60 -5 0 -9 9 -9 21 0
18 4 20 30 14 23 -5 30 -3 30 9 0 9 8 16 19 16 15 0 18 7 17 40 -1 36 -3 39
-23 34 -16 -4 -25 -1 -29 11 -6 16 -8 16 -16 1 -11 -20 -38 -21 -38 -1 0 8 9
23 19 32 11 9 18 20 15 25 -3 5 5 17 17 27 l23 19 -32 7 c-31 6 -46 35 -18 35
7 0 19 7 26 15 16 19 79 19 99 0z m1979 -45 c97 -6 209 -17 247 -25 39 -8 95
-17 125 -21 30 -3 60 -10 65 -14 6 -5 39 -14 75 -20 64 -12 175 -47 195 -61 6
-3 25 -10 44 -14 30 -6 75 -24 158 -61 17 -8 38 -14 46 -14 9 0 22 -6 29 -13
7 -7 40 -26 73 -41 33 -15 62 -30 65 -34 3 -4 37 -23 75 -42 39 -19 76 -40 83
-47 7 -7 20 -13 28 -13 8 0 14 -4 14 -8 0 -4 22 -21 50 -37 27 -17 50 -33 50
-37 0 -3 16 -16 35 -28 41 -25 45 -40 10 -40 -34 0 -32 -16 3 -24 41 -10 92
-39 92 -53 0 -7 1 -16 3 -20 1 -4 -18 -8 -43 -9 -25 -1 -56 -4 -70 -7 -14 -2
-36 -5 -50 -7 -24 -2 -24 -2 8 -16 27 -12 31 -18 26 -38 -5 -22 -2 -25 28 -28
43 -4 52 -39 13 -56 -33 -15 -82 7 -114 53 -25 37 -82 67 -89 47 -2 -7 -10
-12 -18 -12 -7 0 -29 -15 -49 -34 -19 -19 -58 -42 -86 -51 -49 -16 -55 -16
-113 0 -33 9 -72 22 -85 29 -32 15 -161 14 -192 -1 -72 -36 -392 -43 -425 -10
-4 3 -7 26 -8 49 -1 43 -24 77 -53 78 -18 0 -16 10 4 33 17 18 17 19 -7 17
-58 -5 -80 0 -80 18 0 9 -9 23 -21 30 -12 8 -18 19 -15 28 6 15 -3 18 -42 14
-24 -2 -62 29 -62 50 0 13 -13 13 -45 -2 -21 -9 -31 -9 -46 0 -11 7 -30 10
-43 6 -17 -4 -27 0 -34 12 -9 16 -11 17 -27 1 -24 -25 -33 -21 -49 18 -17 39
-30 44 -46 18 -10 -17 -10 -17 -20 0 -20 33 -33 19 -26 -29 6 -44 4 -47 -42
-96 -75 -79 -108 -111 -141 -136 -22 -17 -31 -32 -31 -52 0 -24 -5 -30 -32
-35 -18 -4 -39 -11 -48 -16 -42 -21 -232 -36 -299 -23 -28 6 -32 10 -27 30 4
15 2 24 -5 24 -24 0 -89 34 -89 47 0 7 -6 13 -14 13 -8 0 -16 7 -20 15 -3 8
-11 15 -18 15 -7 0 -19 9 -26 20 -7 11 -20 20 -30 20 -9 0 -28 12 -41 26 -18
19 -30 24 -51 19 -22 -5 -28 -2 -33 14 -3 13 -13 21 -26 21 -12 0 -21 6 -21
15 0 11 -16 14 -77 13 -148 -2 -153 -1 -153 27 0 30 -20 33 -38 5 -15 -25 -58
-26 -71 -3 -18 33 -24 4 -6 -33 17 -37 17 -38 -6 -83 -13 -25 -27 -47 -31 -49
-5 -2 -8 -12 -8 -23 0 -10 -4 -19 -9 -19 -5 0 -11 -10 -13 -22 -3 -23 -3 -24
-75 -14 -12 1 -28 8 -37 15 -9 8 -27 10 -49 6 -47 -9 -59 11 -24 41 32 28 33
34 7 34 -24 0 -24 3 -5 43 9 18 34 43 56 57 22 14 48 32 57 40 9 9 44 33 77
54 33 21 72 47 88 58 15 10 82 47 150 81 67 34 124 64 127 67 3 3 25 12 50 20
25 8 47 17 50 20 7 8 110 50 122 50 6 0 24 6 41 14 42 19 156 52 237 68 36 7
67 15 70 19 3 4 41 11 85 17 44 6 107 16 139 22 51 9 227 24 339 29 20 0 117
-4 215 -9z m-1584 -53 c33 -32 56 -62 56 -74 0 -25 -75 -73 -113 -73 -28 0
-37 16 -37 68 0 20 -5 54 -11 76 -8 31 -8 41 3 47 26 17 46 8 102 -44z m1393
-702 c20 -14 43 -69 43 -102 0 -20 -38 -15 -60 7 -11 11 -32 22 -47 26 -34 8
-83 35 -83 46 0 4 15 8 33 8 17 0 41 7 51 15 25 19 36 19 63 0z m-1589 -65
c17 0 15 -25 -3 -40 -23 -19 -18 -63 13 -98 24 -28 31 -31 62 -24 26 6 36 14
38 30 2 13 13 24 25 28 13 3 31 17 41 32 10 15 38 40 62 55 53 34 64 29 97
-42 11 -25 23 -48 26 -51 17 -15 52 -93 51 -113 -5 -58 1 -95 20 -115 21 -22
27 -62 10 -62 -5 0 -28 -18 -51 -40 -23 -22 -46 -40 -51 -40 -4 0 -16 -16 -25
-36 -15 -31 -16 -38 -3 -58 8 -12 33 -51 55 -85 l40 -63 77 6 c43 3 80 2 82
-3 3 -4 31 -11 62 -14 32 -3 61 -12 65 -19 6 -9 41 -14 125 -15 l116 -2 -6 31
c-6 28 -39 68 -57 68 -4 0 -9 -6 -12 -12 -6 -19 -183 -14 -202 6 -8 8 -15 17
-15 20 0 5 88 94 133 134 14 13 37 16 112 14 62 -2 105 2 127 11 18 8 50 17
71 21 20 4 37 11 37 15 0 4 18 15 39 23 41 16 69 10 55 -13 -4 -8 -9 -55 -9
-105 -1 -78 -5 -96 -23 -119 -12 -15 -22 -34 -22 -41 0 -8 -4 -14 -9 -14 -10
0 -27 -39 -23 -53 4 -16 -52 -127 -67 -132 -9 -3 -23 -20 -32 -38 -18 -36 -52
-48 -109 -36 -19 5 -55 3 -81 -2 -31 -7 -65 -7 -100 -1 -33 6 -106 6 -198 1
-80 -5 -157 -7 -171 -3 -14 3 -83 5 -155 4 -504 -6 -585 -5 -590 8 -3 8 -5 51
-5 97 0 91 11 115 54 115 13 0 29 7 37 16 9 11 22 14 41 10 15 -3 42 -3 58 1
25 5 28 8 18 20 -15 18 7 36 35 29 10 -2 31 3 46 12 32 18 61 11 68 -18 3 -11
13 -20 23 -20 14 0 19 12 25 67 4 36 14 73 22 81 12 13 17 12 34 -6 20 -22 49
-20 49 4 0 7 6 17 14 21 7 4 16 25 20 45 l7 36 -31 -11 c-25 -9 -33 -9 -40 2
-4 8 -6 20 -3 28 4 11 -1 12 -21 7 -15 -3 -26 -2 -26 4 0 5 -19 7 -46 4 -37
-4 -49 -1 -56 12 -5 9 -17 16 -28 16 -36 0 -50 12 -50 42 0 30 0 31 46 25 44
-5 45 -4 42 22 -3 25 -2 26 55 26 47 0 57 2 57 16 0 9 15 26 33 38 l32 21 -48
0 c-32 0 -49 5 -53 15 -7 17 -83 19 -130 3 -23 -8 -35 -8 -45 1 -8 6 -22 17
-33 25 -17 12 -17 13 -1 29 10 11 14 25 10 37 -5 17 -2 20 24 20 31 0 49 14
31 25 -22 14 -10 35 20 35 24 0 30 4 30 21 0 17 4 20 23 15 12 -3 28 -6 35 -6z
m2985 -156 c10 -13 27 -24 37 -24 11 0 23 -8 29 -17 9 -17 10 -17 16 0 11 27
30 20 40 -15 13 -43 29 -42 33 1 l3 34 29 -31 c51 -57 49 -91 -7 -92 -27 0
-37 -14 -29 -44 5 -21 11 -23 60 -22 70 1 84 -11 53 -47 -16 -19 -32 -27 -55
-27 -18 0 -32 -4 -32 -10 0 -5 -9 -18 -20 -28 -17 -15 -18 -21 -7 -36 9 -13
18 -15 36 -8 30 11 81 3 81 -12 0 -7 -20 -17 -45 -24 -38 -10 -45 -16 -45 -37
0 -14 8 -29 20 -35 25 -13 26 -39 3 -46 -58 -19 -83 -44 -43 -44 14 0 20 -7
20 -21 0 -22 -14 -20 180 -20 36 0 99 3 140 6 41 3 81 2 87 -3 14 -9 26 -191
14 -211 -8 -12 -91 -25 -151 -23 -19 1 -98 1 -175 0 -244 -3 -511 2 -532 10
-19 6 -16 32 5 39 22 8 32 23 32 48 0 11 11 33 24 50 22 27 25 28 40 13 9 -9
16 -23 16 -30 0 -20 39 -49 68 -51 25 -2 27 1 30 41 3 33 0 42 -13 42 -30 0
-47 27 -39 63 6 31 34 97 44 107 3 3 17 35 32 71 29 71 28 105 -3 114 -10 4
-19 11 -19 16 0 5 -9 9 -20 9 -31 0 -43 34 -29 78 6 20 16 40 21 43 5 3 9 51
9 108 0 100 1 102 22 95 12 -3 30 -17 40 -30z m-1310 -13 c22 -9 25 -17 31
-93 3 -46 9 -97 12 -114 7 -37 -15 -64 -53 -64 -15 0 -33 -7 -42 -15 -9 -8
-27 -24 -39 -35 -20 -18 -23 -28 -17 -58 4 -21 11 -41 16 -46 5 -6 9 -28 9
-50 0 -25 8 -51 20 -66 11 -14 20 -39 20 -55 0 -19 7 -35 20 -43 19 -12 30
-72 13 -72 -5 0 -17 -19 -28 -41 -35 -73 -37 -73 -335 -69 -63 1 -122 3 -132
6 -23 7 -33 53 -14 68 9 6 22 28 31 49 8 20 19 37 24 37 4 0 16 19 27 43 10
23 24 48 31 55 7 7 13 17 13 22 0 5 26 21 57 37 32 15 65 35 75 45 9 9 31 24
47 33 36 18 38 32 11 82 -32 61 -27 97 19 130 41 29 101 121 101 154 0 10 5
19 10 19 6 0 10 8 10 18 0 33 19 40 63 23z m854 -201 c3 -13 14 -20 28 -20 29
0 87 -76 105 -136 7 -23 25 -54 40 -70 15 -17 32 -39 38 -51 23 -43 8 -173
-20 -173 -4 0 -8 -6 -8 -13 0 -14 -22 -46 -57 -84 -13 -13 -23 -28 -23 -33 0
-5 -11 -16 -23 -25 -19 -12 -58 -15 -203 -15 -98 1 -195 0 -214 -1 -19 -2 -55
-2 -80 -1 -25 0 -106 0 -180 0 -74 -1 -154 -2 -177 -2 -23 0 -45 3 -49 7 -11
10 -7 71 5 75 6 2 13 19 17 38 3 19 10 37 15 40 5 3 9 14 9 26 0 11 6 34 14
51 7 18 18 50 25 72 6 22 19 69 29 105 l18 65 44 3 c25 2 49 7 54 13 6 5 55 9
110 9 105 0 227 15 236 29 3 5 27 16 53 25 62 21 107 44 107 55 0 10 44 29 68
30 8 1 16 -8 19 -19z m-1935 -155 c-1 -16 -12 -51 -24 -77 -20 -46 -35 -57
-52 -40 -4 4 -25 8 -47 8 -21 1 -43 2 -49 3 -5 0 -16 17 -24 36 -21 49 -7 82
36 89 63 11 93 13 128 12 33 -1 35 -3 32 -31z m3196 -681 c22 -8 45 -26 52
-40 7 -13 17 -24 21 -24 4 0 15 -24 24 -54 16 -49 16 -57 1 -100 -21 -61 -64
-104 -123 -122 -70 -21 -4272 -21 -4351 0 -49 14 -64 24 -115 86 -17 20 -16
162 1 168 6 2 12 9 12 16 0 18 39 52 80 70 31 13 289 15 2197 16 1932 0 2167
-2 2201 -16z"/>
</g>
</svg>
