<?xml version="1.0" standalone="no"?>
<!DOCTYPE svg PUBLIC "-//W3C//DTD SVG 20010904//EN"
 "http://www.w3.org/TR/2001/REC-SVG-20010904/DTD/svg10.dtd">
<svg version="1.0" xmlns="http://www.w3.org/2000/svg"
 width="580.000000pt" height="400.000000pt" viewBox="0 0 580.000000 400.000000"
 preserveAspectRatio="xMidYMid meet">
<metadata>
Created by potrace 1.16, written by Peter Selinger 2001-2019
</metadata>
<g transform="translate(0.000000,400.000000) scale(0.100000,-0.100000)"
fill="#000000" stroke="none">
<path d="M2610 3644 c-380 -28 -486 -41 -750 -95 -279 -56 -627 -161 -843
-254 -36 -15 -41 -15 -64 0 -21 14 -22 19 -11 32 10 13 10 17 1 20 -7 3 -13
13 -13 24 0 16 -5 18 -24 13 -20 -5 -27 0 -39 21 l-14 27 -20 -26 c-12 -14
-30 -26 -42 -26 -14 0 -21 -6 -21 -20 0 -16 -7 -20 -32 -20 -31 0 -31 0 -12
-21 18 -20 18 -21 1 -34 -17 -12 -16 -14 10 -33 24 -17 25 -22 14 -36 -13 -15
-15 -15 -31 -1 -16 15 -18 13 -23 -15 -6 -26 -11 -30 -39 -30 l-32 0 29 -30
c28 -29 28 -30 10 -50 -10 -11 -29 -20 -42 -20 -27 0 -27 3 -9 -48 17 -48 8
-60 -29 -36 -25 16 -26 16 -31 -3 -4 -13 -17 -23 -37 -27 -28 -6 -30 -8 -14
-17 9 -5 17 -19 17 -29 0 -17 5 -19 43 -14 36 5 45 2 66 -20 l24 -25 -29 -11
c-16 -6 -40 -9 -54 -5 -14 4 -41 7 -60 9 -19 1 -45 8 -58 14 -25 14 -26 12
-11 -21 8 -18 8 -30 0 -46 -11 -19 -9 -21 16 -21 39 0 70 -24 78 -60 5 -25 11
-30 26 -25 22 7 59 -2 59 -15 0 -5 -13 -16 -28 -24 -24 -13 -36 -13 -73 -2
-27 8 -67 10 -103 7 -52 -5 -57 -8 -43 -20 22 -17 21 -29 -1 -33 -27 -7 56
-41 103 -42 40 -1 64 -18 65 -45 0 -11 -16 -13 -80 -8 -61 4 -82 2 -91 -9 -6
-8 -23 -14 -38 -14 -25 -1 -25 -1 -7 -15 12 -9 17 -21 13 -36 -5 -18 -2 -20
18 -16 16 3 31 -3 42 -15 17 -19 17 -21 -6 -39 -23 -19 -23 -20 -5 -40 11 -12
28 -19 44 -18 27 3 70 -16 70 -31 0 -20 -53 -38 -87 -28 -21 6 -40 5 -52 -1
-10 -6 -20 -9 -22 -7 -2 2 -16 6 -31 10 -26 6 -27 5 -17 -20 7 -19 6 -31 -1
-38 -18 -18 -11 -36 15 -36 14 0 25 -4 25 -10 0 -5 18 -10 41 -10 42 0 79 -14
79 -30 0 -10 -65 -25 -92 -21 -10 1 -28 -5 -40 -13 -12 -9 -30 -16 -40 -16
-12 0 -18 -8 -18 -23 0 -33 18 -47 46 -37 21 8 84 -4 84 -16 0 -3 -7 -16 -16
-29 -13 -20 -25 -25 -55 -25 -31 0 -39 -4 -39 -19 0 -10 -7 -24 -15 -31 -10
-9 -12 -17 -5 -30 8 -15 14 -17 38 -8 30 12 82 4 82 -11 0 -5 -19 -16 -42 -23
-34 -12 -44 -20 -46 -41 -2 -16 -11 -29 -24 -33 -21 -6 -21 -7 -4 -20 22 -16
15 -41 -14 -52 -20 -8 -20 -8 4 -31 23 -21 31 -23 83 -17 44 5 63 3 78 -8 26
-20 60 -20 79 0 19 19 146 23 189 6 l27 -12 0 -104 c0 -98 -1 -105 -24 -119
-12 -9 -39 -19 -59 -22 -20 -4 -63 -23 -94 -42 -373 -223 -324 -752 83 -899
l65 -24 2204 0 2205 0 84 40 c175 83 276 245 276 445 0 137 -46 249 -140 345
-55 56 -166 122 -226 134 -49 11 -61 32 -66 118 -6 102 6 123 68 113 26 -3 52
-2 64 5 19 10 76 -1 138 -26 7 -4 12 2 12 15 0 11 8 24 17 30 14 8 15 12 4 25
-12 14 -10 16 9 16 13 0 31 7 40 15 13 12 23 13 44 5 15 -5 43 -10 63 -10 27
0 34 3 29 15 -3 9 3 19 16 26 21 12 21 12 -5 25 -16 9 -24 20 -21 29 4 10 -3
18 -20 25 -29 11 -34 25 -12 33 9 4 12 14 9 26 -3 14 0 21 8 21 8 1 -3 10 -24
21 l-38 20 23 18 c24 20 32 17 -159 57 -18 3 -21 8 -14 27 12 34 56 55 81 39
18 -11 20 -10 20 14 0 14 9 39 21 55 l20 29 -34 0 c-19 0 -40 7 -47 15 -7 9
-21 13 -35 9 -13 -3 -37 2 -55 11 -31 16 -31 17 -15 42 12 18 14 28 6 36 -20
20 -12 27 31 27 33 0 39 3 30 12 -19 19 -14 38 11 38 22 0 43 17 62 49 7 11 1
13 -28 8 -20 -3 -39 -1 -42 4 -4 5 -22 9 -41 9 -26 0 -44 8 -69 34 -19 18 -35
36 -35 40 0 3 19 6 43 6 26 0 55 8 77 22 l35 23 -28 3 c-20 2 -27 8 -23 18 4
9 -1 14 -15 14 -33 0 -16 25 20 28 26 3 30 6 21 17 -10 12 -7 17 14 26 35 16
33 29 -4 29 -27 0 -30 3 -30 30 0 38 -10 38 -38 0 -18 -24 -28 -29 -47 -24
-13 3 -47 1 -76 -5 -55 -12 -69 -6 -69 29 0 18 44 40 82 40 22 0 28 5 28 21 0
12 8 23 20 26 11 3 20 11 20 18 0 6 10 16 22 22 22 9 21 11 -16 23 -22 7 -55
10 -77 6 -42 -7 -45 -3 -29 38 6 16 17 26 30 26 23 0 24 4 9 31 -8 15 -7 24 2
35 11 13 23 13 65 -3 7 -3 10 5 7 20 -4 19 0 27 16 32 29 9 16 25 -20 25 -16
0 -32 6 -35 14 -4 11 -13 12 -37 5 -54 -15 -72 -12 -73 15 -1 14 4 27 12 30 8
3 14 12 14 21 0 9 10 19 23 24 20 8 20 9 -12 16 -20 4 -35 14 -38 26 -3 10 -9
16 -14 14 -4 -3 -12 2 -17 12 -8 13 -4 21 14 36 24 18 24 20 7 33 -17 13 -17
15 6 34 l23 20 -36 0 c-29 0 -36 4 -36 20 0 14 -7 20 -21 20 -12 0 -30 12 -42
26 l-20 26 -14 -27 c-12 -21 -19 -26 -39 -21 -19 5 -24 3 -24 -13 0 -11 -6
-21 -12 -24 -10 -3 -10 -7 0 -20 11 -13 10 -18 -11 -32 -14 -9 -27 -25 -30
-35 -5 -19 -11 -17 -104 21 -572 238 -1228 370 -1828 367 -104 -1 -210 -3
-235 -4z m208 -168 c11 -6 8 -14 -12 -35 -63 -66 -73 -163 -26 -248 17 -30 28
-58 25 -63 -4 -6 -47 -10 -96 -10 l-91 0 7 43 c7 42 7 42 -10 18 -33 -45 -147
-69 -174 -37 -14 16 -36 245 -28 278 10 37 57 50 216 58 167 7 171 7 189 -4z
m400 -12 c40 -6 41 -22 2 -59 -65 -62 -80 -161 -35 -227 26 -38 31 -63 16 -72
-11 -7 -191 10 -199 19 -4 3 -1 14 5 24 11 17 9 17 -30 4 -47 -16 -78 -11
-129 22 -29 19 -38 33 -46 71 -25 118 25 209 115 209 41 0 49 -4 84 -44 l39
-44 0 57 0 57 73 -6 c39 -3 87 -8 105 -11z m-898 -19 c16 -9 32 -25 35 -38 9
-42 24 -257 19 -272 -12 -30 -68 -53 -139 -57 l-70 -3 1 43 c1 49 -3 53 -17
13 -11 -32 -52 -53 -126 -66 -40 -6 -44 -5 -53 20 -5 14 -13 50 -16 79 -6 50
-5 53 17 59 43 12 92 7 112 -10 18 -17 19 -17 12 22 -11 64 -16 73 -26 47 -16
-41 -122 -61 -133 -24 -15 55 -16 99 -3 111 26 21 113 26 142 7 25 -17 26 -17
19 7 -8 33 4 39 106 58 47 9 86 17 88 18 2 0 16 -6 32 -14z m1225 -19 c143
-26 145 -28 110 -166 -47 -191 -41 -178 -87 -191 -38 -10 -61 -9 -140 7 -33 7
-36 28 -7 52 11 9 32 36 46 59 35 60 33 115 -6 182 -30 51 -33 71 -8 71 7 0
48 -6 92 -14z m-152 -16 c45 -36 58 -158 25 -225 -49 -97 -156 -97 -193 0 -29
75 -6 184 49 227 29 24 87 23 119 -2z m467 -46 c103 -23 113 -29 99 -57 -20
-37 -140 -187 -150 -187 -14 0 -25 32 -49 143 -17 75 -19 101 -10 112 6 8 17
12 23 10 7 -2 46 -11 87 -21z m-1988 -26 c4 -7 16 -71 27 -143 20 -129 20
-130 1 -147 -11 -9 -20 -21 -20 -26 0 -14 -219 -67 -230 -56 -5 5 -5 81 0 173
10 189 13 195 103 222 43 13 57 13 82 3 16 -7 33 -18 37 -26z m-235 -44 c3 -8
2 -57 -3 -107 -11 -117 -23 -119 -98 -18 -61 81 -67 100 -36 108 11 3 20 9 20
13 0 23 108 26 117 4z m2535 -13 c86 -33 87 -34 43 -159 -49 -140 -59 -159
-97 -178 -26 -14 -38 -14 -71 -4 -35 10 -87 52 -87 69 1 33 64 268 75 281 20
22 62 19 137 -9z m-433 -134 c17 -74 21 -111 14 -118 -14 -14 -53 -3 -88 25
-29 23 -29 23 -17 78 25 111 32 129 50 126 13 -2 23 -30 41 -111z m-2287 59
c22 -25 26 -38 22 -66 -12 -80 -16 -90 -32 -90 -18 0 -122 134 -122 156 0 7
10 20 21 28 31 22 79 10 111 -28z m2498 -5 c0 -39 -33 -167 -48 -183 -17 -20
-86 -25 -112 -8 -18 12 -12 24 73 134 57 75 87 94 87 57z m424 -6 c20 -9 46
-26 58 -40 l21 -24 17 21 c17 22 18 22 66 4 161 -60 193 -79 209 -118 25 -64
19 -82 -19 -53 -26 20 -33 19 -41 -5 -4 -12 -15 -20 -29 -20 -33 0 -39 -11
-15 -28 11 -8 18 -20 15 -28 -4 -10 4 -12 37 -9 31 4 48 0 67 -15 30 -23 19
-40 -26 -41 -43 0 -137 15 -153 25 -11 7 -13 3 -8 -22 4 -19 2 -32 -3 -32 -6
0 -15 -11 -20 -25 l-9 -25 -50 20 c-136 53 -138 55 -99 105 l21 27 -31 -16
c-17 -9 -42 -16 -56 -16 -26 0 -104 27 -120 41 -11 10 16 104 37 133 13 18 15
18 60 -2 29 -13 52 -31 59 -47 l12 -26 11 29 c7 15 16 39 20 51 7 22 6 22 -17
7 -20 -13 -30 -13 -73 -2 -60 15 -65 30 -35 99 23 52 35 56 94 32z m-3092 -27
c112 -146 181 -252 172 -265 -8 -13 -67 -38 -290 -121 -67 -25 -72 -25 -88 -9
-10 9 -22 17 -27 17 -6 0 -6 7 1 19 15 28 13 32 -14 25 -13 -3 -27 -1 -30 4
-4 7 -18 7 -38 1 -37 -10 -43 -7 -33 18 11 24 7 44 -12 65 -13 15 -13 20 -3
33 7 9 21 13 31 10 26 -8 73 24 59 40 -6 7 -8 19 -5 27 5 12 -4 14 -45 11 -69
-4 -66 16 11 57 182 97 273 117 311 68z m276 -105 c54 -66 75 -100 68 -112 -7
-10 -103 -41 -130 -41 -13 0 -16 14 -16 84 0 133 14 145 78 69z m1512 -93
c333 -18 658 -71 947 -155 224 -65 513 -175 513 -195 0 -4 -10 -11 -22 -15
-20 -6 -17 -9 30 -31 78 -38 95 -85 22 -64 -26 7 -38 6 -50 -5 -9 -8 -29 -15
-43 -15 -32 0 -35 -10 -8 -27 13 -8 18 -19 14 -33 -4 -16 -1 -20 20 -20 13 0
30 -7 37 -15 10 -13 10 -19 -5 -35 -17 -19 -17 -21 0 -40 11 -12 31 -20 50
-20 28 0 55 -15 55 -30 0 -15 -49 -26 -110 -25 -54 0 -65 3 -65 17 0 25 -12
32 -50 30 -38 -3 -45 11 -25 49 7 13 7 19 0 19 -5 0 -10 9 -10 20 0 11 -6 20
-14 20 -8 0 -13 10 -13 25 0 26 -19 55 -34 55 -5 0 -9 -7 -9 -15 0 -8 -5 -15
-11 -15 -5 0 -8 -4 -5 -9 4 -5 0 -11 -6 -14 -10 -3 -10 -8 1 -21 13 -15 12
-18 -7 -23 -12 -3 -22 -9 -22 -14 0 -5 -8 -9 -17 -9 -13 0 -14 -3 -5 -12 18
-18 15 -36 -8 -43 -16 -5 -18 -10 -10 -31 8 -21 7 -25 -8 -23 -27 3 -51 -11
-45 -27 3 -8 15 -14 28 -14 26 0 52 -25 36 -34 -5 -4 -33 -4 -60 -1 -46 4 -51
3 -51 -15 0 -11 7 -20 15 -20 9 0 20 -11 27 -24 6 -14 20 -26 32 -28 11 -2 19
-7 16 -13 -3 -6 -32 -9 -66 -7 -58 3 -61 3 -59 -20 1 -18 10 -25 45 -34 65
-16 62 -32 -7 -36 -52 -3 -58 -5 -61 -27 -2 -13 1 -21 6 -17 5 3 16 -1 23 -10
10 -13 10 -17 0 -24 -19 -11 -4 -30 24 -30 13 0 27 -5 31 -11 9 -15 -16 -30
-39 -25 -18 4 -77 -23 -77 -36 0 -7 12 -11 63 -22 34 -8 31 -30 -4 -34 -35 -4
-69 -23 -69 -39 0 -9 8 -12 23 -8 32 7 54 -9 39 -28 -21 -25 -65 -28 -80 -6
-7 10 -24 19 -36 19 -13 0 -34 8 -46 18 -20 16 -23 27 -21 88 0 39 -4 80 -12
94 -16 32 -75 48 -182 49 -95 2 -241 22 -272 39 -30 17 -132 15 -167 -3 -15
-8 -54 -37 -85 -64 -55 -48 -125 -91 -147 -91 -6 0 -17 -7 -24 -15 -17 -21
-27 -19 -33 6 -7 27 -27 15 -27 -17 0 -14 -7 -27 -16 -31 -18 -7 -64 16 -72
36 -8 22 81 96 155 128 35 15 63 31 63 34 0 7 -92 -24 -122 -41 -34 -19 -49
-12 -42 18 13 54 26 77 52 99 34 28 10 30 -28 3 l-28 -20 -36 42 c-20 23 -36
48 -36 55 0 7 -4 13 -10 13 -16 0 -12 -11 25 -70 47 -74 49 -136 4 -203 -17
-26 -35 -47 -40 -47 -17 0 -59 75 -59 107 0 27 6 35 42 55 23 13 43 29 46 36
2 7 -10 4 -32 -9 -38 -22 -47 -17 -20 12 12 13 14 26 8 46 l-8 28 -4 -30 c-5
-44 -48 -85 -89 -85 -30 0 -33 2 -23 19 5 11 10 37 10 58 0 22 7 48 15 59 8
10 14 33 15 49 0 27 -2 26 -24 -20 -43 -93 -68 -91 -92 8 l-12 52 -1 -40 c0
-22 9 -60 20 -84 11 -26 18 -56 14 -70 -2 -14 -6 -41 -7 -58 -1 -18 -6 -33
-11 -33 -4 0 -6 -4 -2 -9 8 -13 -30 -24 -57 -16 -18 5 -20 4 -8 -4 8 -6 27
-11 42 -11 21 0 29 -6 34 -25 8 -31 -1 -55 -20 -55 -23 0 -125 58 -169 96 -56
47 -166 88 -220 80 -23 -3 -98 -10 -167 -16 -150 -13 -224 -32 -256 -67 -33
-35 -40 -69 -24 -117 6 -23 14 -61 17 -86 4 -39 0 -50 -27 -83 -32 -38 -56
-41 -45 -6 4 11 2 19 -4 19 -6 0 -11 7 -11 15 0 8 -9 15 -19 15 -26 0 -51 10
-51 21 0 5 6 9 14 9 7 0 19 6 26 14 6 8 17 13 24 10 7 -3 18 2 25 10 14 17 -2
24 -74 28 -34 3 -39 6 -37 23 2 11 15 30 28 41 23 21 34 41 15 29 -5 -3 -12
-1 -16 4 -3 6 -13 7 -21 4 -16 -6 -34 12 -34 35 0 6 12 12 26 12 23 0 25 2 13
16 -11 13 -10 17 4 25 20 12 11 41 -12 35 -60 -17 -81 -17 -81 -2 0 9 10 20
23 25 50 19 56 62 7 46 -11 -4 -20 -2 -20 2 0 22 27 62 44 67 27 7 9 26 -25
26 -32 0 -34 3 -19 29 7 14 4 24 -10 39 -11 12 -20 28 -20 35 0 20 -27 40 -41
32 -6 -4 -9 -20 -7 -36 3 -20 0 -29 -9 -29 -7 0 -13 -3 -14 -7 -3 -32 -10 -49
-24 -59 -23 -17 -29 -61 -9 -72 29 -16 6 -33 -37 -26 -31 5 -39 4 -37 -7 2 -8
11 -17 21 -21 9 -4 17 -14 17 -22 0 -9 6 -13 14 -10 8 3 17 1 21 -5 12 -21
-26 -24 -93 -8 -37 9 -85 19 -107 23 -53 9 -57 12 -45 34 8 15 17 18 45 13 33
-5 35 -4 35 21 0 20 6 27 27 32 29 8 75 44 55 44 -7 0 -12 7 -12 16 0 11 -6
14 -20 9 -13 -4 -22 -1 -26 9 -8 22 -33 28 -68 15 -26 -10 -38 -9 -64 5 -32
17 -41 39 -21 52 6 3 8 17 5 30 -6 22 -3 24 29 24 33 0 35 2 29 25 -5 22 -3
25 19 25 15 0 31 9 41 25 22 33 21 35 -19 35 -19 0 -35 5 -35 10 0 6 -18 10
-40 10 -33 0 -48 7 -77 35 -22 21 -31 36 -22 36 8 1 31 3 51 4 20 1 49 10 65
20 l28 19 -25 6 c-16 4 -24 12 -22 23 2 10 -4 17 -13 17 -8 0 -15 4 -15 9 0
10 24 21 46 21 7 0 55 18 106 41 436 192 915 306 1423 338 188 12 192 12 405
1z m-314 -1221 c7 -12 -43 -69 -62 -69 -15 0 -38 55 -29 69 8 14 82 14 91 0z
m130 -95 c-7 -56 -12 -64 -37 -64 -37 0 -109 50 -109 75 0 17 62 29 71 14 5
-8 15 -7 35 4 44 23 47 21 40 -29z m947 -46 c87 -85 116 -145 101 -206 l-9
-37 -344 -3 c-190 -1 -348 1 -353 6 -8 8 38 103 75 155 11 16 28 50 37 75 17
44 21 47 61 53 24 4 80 3 124 -3 92 -11 178 -3 196 18 20 24 36 16 112 -58z
m-576 15 c-3 -16 -10 -53 -15 -84 -6 -31 -24 -84 -41 -118 l-31 -61 -354 0
-354 0 -12 33 c-6 17 -15 60 -20 95 -5 35 -15 71 -24 81 -9 10 -16 21 -16 24
0 14 26 6 43 -13 9 -11 25 -20 34 -20 41 0 98 -28 103 -50 3 -13 15 -27 28
-31 20 -8 23 -3 37 45 9 30 24 61 35 71 17 16 19 16 30 -4 6 -12 20 -21 33
-20 14 1 17 3 6 6 -15 4 -44 51 -36 59 1 2 18 -6 37 -18 19 -12 55 -32 80 -44
44 -22 45 -23 20 -33 -28 -11 -28 -11 16 -16 26 -4 36 1 63 35 22 28 30 46 26
60 -13 41 13 18 50 -45 21 -36 44 -65 52 -65 8 0 20 13 26 30 9 23 22 33 59
46 28 9 49 23 53 34 6 18 22 27 59 29 15 1 17 -4 13 -26z m-1049 11 c26 -5 31
-12 40 -53 16 -68 34 -133 43 -156 4 -11 10 -29 11 -40 3 -19 -3 -20 -217 -22
l-220 -3 -23 53 c-30 70 -28 102 6 133 15 15 41 40 59 56 29 28 36 30 80 25
26 -3 68 -2 93 2 60 11 91 12 128 5z m2628 -49 c9 -13 14 -48 14 -107 0 -87 0
-88 -30 -103 -23 -12 -69 -15 -228 -15 l-199 0 -7 47 c-3 26 -2 51 3 56 9 9
48 6 119 -9 33 -7 41 3 20 24 -19 19 9 33 52 26 27 -4 40 -1 50 12 12 13 12
18 3 21 -7 3 -13 11 -13 18 0 7 -6 15 -12 18 -9 3 -9 6 2 9 8 3 29 10 45 15
17 5 61 9 99 8 55 -1 71 -5 82 -20z m-870 0 c8 -8 28 -44 45 -80 26 -55 30
-71 22 -103 -7 -30 -14 -38 -36 -40 -26 -3 -27 -1 -27 41 0 24 -6 57 -14 73
-12 24 -21 86 -17 117 2 11 11 8 27 -8z m-2781 -16 c49 -14 50 -15 48 -52 -3
-42 -14 -38 132 -41 l60 -1 3 -58 3 -57 -268 2 -268 3 -7 80 c-9 101 -5 121
29 133 40 13 209 7 268 -9z m1214 -83 c6 -17 13 -52 17 -78 l6 -48 -40 0 c-36
0 -41 3 -51 31 -6 18 -11 56 -11 85 0 29 -4 64 -9 77 -6 14 -7 28 -3 31 10 11
81 -66 91 -98z m-704 -52 l0 -69 -95 0 -95 0 0 50 c0 50 0 50 35 53 19 2 41 9
48 15 8 6 21 12 29 13 9 2 20 7 26 13 5 5 19 6 31 2 19 -7 21 -16 21 -77z m93
54 c24 -60 40 -117 34 -122 -3 -4 -24 -6 -48 -6 -46 0 -54 9 -54 63 0 32 32
97 48 97 4 0 13 -15 20 -32z m2443 -18 c29 0 29 -1 29 -55 l0 -56 -92 3 -93 3
-5 53 c-6 52 -5 53 20 47 14 -3 39 -1 55 4 17 5 36 7 43 5 8 -2 27 -4 43 -4z"/>
</g>
</svg>
