<?xml version="1.0" standalone="no"?>
<!DOCTYPE svg PUBLIC "-//W3C//DTD SVG 20010904//EN"
 "http://www.w3.org/TR/2001/REC-SVG-20010904/DTD/svg10.dtd">
<svg version="1.0" xmlns="http://www.w3.org/2000/svg"
 width="580.000000pt" height="400.000000pt" viewBox="0 0 580.000000 400.000000"
 preserveAspectRatio="xMidYMid meet">
<metadata>
Created by potrace 1.16, written by Peter Selinger 2001-2019
</metadata>
<g transform="translate(0.000000,400.000000) scale(0.100000,-0.100000)"
fill="#000000" stroke="none">
<path d="M2700 3530 c-199 -15 -424 -57 -627 -114 -174 -50 -247 -77 -431
-162 -40 -19 -77 -34 -82 -34 -6 0 -10 -5 -10 -11 0 -5 -4 -7 -10 -4 -5 3 -10
1 -10 -6 0 -7 -3 -10 -6 -6 -3 3 -28 -8 -55 -24 -28 -16 -52 -29 -54 -29 -3 0
-31 -17 -62 -37 -32 -21 -60 -38 -63 -38 -14 -2 -124 -80 -153 -108 -45 -46
-63 -51 -82 -24 -22 31 -20 167 4 235 10 28 16 52 14 52 -8 0 -54 -55 -68 -82
-20 -36 -29 -35 -66 7 -17 19 -35 33 -39 30 -5 -3 -11 -28 -15 -55 -7 -54 -8
-55 -34 -40 -10 5 -42 19 -72 30 l-54 21 47 -41 c47 -41 118 -151 118 -183 0
-19 -36 -41 -51 -31 -6 3 -17 21 -24 38 -44 105 -166 216 -265 242 -83 22
-109 -13 -80 -108 35 -111 113 -204 221 -261 33 -18 44 -29 44 -48 0 -59 -92
-23 -180 72 -41 45 -56 56 -50 38 5 -19 40 -96 63 -141 2 -5 -9 -8 -25 -8 -15
-1 -41 -6 -56 -13 l-28 -12 20 -22 c11 -12 30 -28 42 -37 l23 -15 -54 -55
c-55 -56 -94 -109 -54 -74 10 9 41 26 68 38 64 27 192 26 210 -2 8 -13 8 -23
0 -35 -9 -15 -4 -26 31 -65 65 -72 96 -148 102 -244 9 -127 -21 -224 -92 -303
l-34 -38 46 -49 c25 -27 60 -78 77 -114 29 -60 31 -73 31 -170 0 -118 -19
-179 -82 -257 -19 -24 -29 -44 -23 -48 18 -11 11 -44 -12 -56 -36 -19 -162 -5
-220 25 l-48 25 26 -34 c14 -19 41 -44 60 -56 19 -11 34 -23 34 -27 0 -3 -16
-23 -36 -43 -34 -35 -35 -38 -17 -47 10 -6 34 -12 53 -14 40 -5 40 -8 16 -62
-10 -22 -20 -56 -22 -75 -4 -28 -2 -32 5 -16 15 31 95 111 130 130 42 21 75
16 79 -11 2 -17 -9 -28 -51 -52 -193 -109 -270 -400 -90 -341 98 31 204 133
232 221 13 40 36 55 57 37 20 -17 17 -43 -10 -97 -27 -51 -70 -103 -101 -121
-18 -11 -18 -11 5 -5 14 3 47 17 73 30 52 26 67 24 67 -6 0 -10 5 -31 10 -46
l11 -27 32 31 c18 18 37 32 41 32 5 0 26 -19 47 -42 l38 -43 -14 49 c-17 57
-20 202 -4 211 21 13 55 -4 57 -29 6 -72 48 -153 114 -218 67 -67 106 -80 268
-91 256 -16 2339 9 2656 32 146 11 193 30 270 108 54 55 87 122 100 203 7 41
36 62 56 42 29 -29 15 -179 -23 -255 -19 -37 -19 -38 -1 -28 15 8 57 55 99
110 2 3 20 -15 40 -38 l36 -43 14 32 c7 18 13 42 13 54 0 35 9 37 59 11 25
-13 62 -26 81 -29 26 -5 29 -4 14 3 -11 5 -43 34 -72 65 -72 79 -95 166 -44
166 14 0 29 -19 50 -63 42 -86 127 -161 215 -191 135 -46 170 15 96 164 -36
70 -118 150 -184 176 -39 16 -45 23 -43 44 4 38 40 37 104 -2 30 -18 71 -53
90 -77 42 -54 46 -32 9 47 -28 61 -30 72 -12 72 29 0 87 22 87 33 0 6 -17 26
-37 44 -34 29 -36 35 -21 43 32 19 78 61 99 92 l21 30 -63 -33 c-54 -27 -78
-33 -151 -37 -77 -4 -89 -2 -94 13 -4 10 -2 26 4 36 9 14 5 24 -25 56 -57 61
-97 155 -101 241 -7 117 41 246 118 321 l39 38 -40 39 c-22 21 -54 68 -72 104
-30 60 -32 72 -32 165 0 123 24 195 94 282 41 50 46 62 38 81 -19 41 11 57
107 57 71 0 90 -4 143 -31 75 -36 71 -20 -13 55 l-57 50 44 40 c36 34 41 42
29 51 -8 5 -27 10 -42 11 -63 3 -65 7 -34 71 14 29 29 69 32 88 l7 35 -33 -45
c-45 -60 -96 -105 -148 -131 -39 -19 -45 -20 -59 -6 -24 24 -8 50 51 80 73 38
146 117 191 207 63 125 49 200 -34 185 -106 -20 -234 -125 -292 -241 -35 -71
-60 -87 -82 -52 -17 26 46 139 111 199 29 27 52 49 49 49 -16 0 -93 -33 -117
-50 -40 -29 -47 -26 -54 28 -10 72 -19 81 -50 46 -14 -16 -28 -37 -31 -46 -9
-26 -21 -22 -44 15 -11 17 -39 50 -62 72 -40 38 -41 39 -26 10 56 -113 65
-315 14 -315 -7 0 -30 15 -50 33 -35 33 -190 124 -312 185 -154 76 -460 191
-554 209 -14 2 -56 13 -95 23 -39 10 -88 21 -110 25 -21 3 -41 7 -45 9 -4 3
-76 14 -161 26 -175 24 -491 33 -660 20z m590 -824 c286 -46 566 -143 810
-281 47 -26 100 -56 118 -66 18 -9 48 -29 67 -44 30 -23 35 -32 35 -69 0 -33
-4 -45 -17 -50 -26 -9 -65 -33 -72 -43 -3 -5 -24 -22 -46 -38 -22 -16 -52 -39
-66 -52 l-25 -23 -29 30 c-16 16 -35 30 -43 30 -9 0 -12 9 -10 27 2 21 10 29
36 37 21 6 32 15 32 27 0 24 12 24 35 -1 14 -16 26 -18 64 -13 61 8 71 17 71
69 0 33 -5 46 -19 54 -25 13 -66 -2 -83 -30 -10 -15 -23 -20 -59 -20 -37 0
-50 5 -74 30 -16 17 -37 30 -47 30 -20 0 -23 12 -8 41 8 14 7 19 -1 19 -7 0
-18 8 -25 18 -11 14 -16 15 -31 4 -10 -6 -28 -16 -40 -22 -28 -12 -30 -40 -3
-47 27 -7 25 -22 -4 -33 -13 -5 -27 -17 -30 -28 -10 -31 4 -134 19 -146 21
-16 9 -50 -23 -63 -15 -7 -69 -17 -120 -24 -60 -8 -89 -15 -80 -20 19 -13 -24
-44 -64 -47 -30 -2 -57 -22 -170 -128 -32 -31 -63 -82 -82 -138 -5 -15 -13
-18 -45 -13 -29 3 -38 2 -35 -7 3 -7 -5 -18 -18 -24 -21 -11 -21 -12 -2 -7 14
4 24 0 28 -11 5 -13 9 -14 21 -4 7 6 22 10 32 9 10 -2 30 5 44 14 15 10 31 17
35 15 13 -4 55 41 91 98 36 56 70 94 83 94 9 0 4 -50 -12 -114 -5 -22 -25 -55
-44 -74 -19 -19 -43 -53 -53 -77 -11 -24 -31 -51 -45 -60 -16 -11 -26 -27 -26
-41 0 -26 14 -32 27 -10 4 7 18 18 31 25 12 6 22 18 22 25 0 14 12 27 118 130
40 39 66 57 76 53 21 -8 20 -30 -4 -78 l-21 -40 33 -39 c18 -21 41 -51 50 -68
l17 -29 -227 -7 c-125 -3 -361 -9 -526 -13 l-299 -6 -19 24 c-19 24 -58 94
-58 104 0 3 11 5 25 5 14 0 25 -4 25 -9 0 -5 10 -13 23 -16 12 -4 48 -20 80
-36 l57 -29 -6 24 c-5 20 0 24 40 36 44 12 45 13 48 59 3 42 6 46 30 49 24 3
88 -21 88 -33 0 -2 -8 -20 -17 -40 -16 -34 -14 -53 5 -41 5 3 17 26 27 52 l18
46 -32 25 c-38 30 -40 59 -6 95 36 39 59 43 121 18 29 -12 61 -20 69 -16 21 8
19 36 -6 62 -15 16 -21 37 -22 81 -2 55 -4 59 -23 55 -12 -2 -25 1 -29 8 -4 7
-15 2 -31 -16 -19 -20 -30 -24 -47 -19 -28 9 -43 9 -144 -3 -45 -6 -90 -15
-101 -21 -10 -5 -72 -11 -138 -12 -117 -1 -151 -9 -167 -35 -4 -8 -16 -14 -25
-14 -11 0 -13 -3 -6 -8 15 -9 27 -97 27 -192 0 -41 2 -66 4 -55 8 33 21 40 48
25 15 -8 25 -22 25 -35 0 -12 11 -32 25 -45 24 -23 59 -80 52 -86 -1 -2 -116
-4 -255 -5 l-252 -1 -23 29 c-14 15 -34 48 -46 72 l-23 43 26 27 c36 37 33 56
-15 83 l-40 23 -5 91 c-5 104 3 121 56 109 21 -5 35 -2 46 9 8 9 28 16 44 16
53 0 44 57 -12 81 -15 6 -48 33 -74 61 -41 44 -47 47 -58 32 -8 -11 -20 -14
-33 -10 -25 8 -73 51 -73 66 0 5 -4 10 -10 10 -5 0 -12 11 -16 24 -9 38 -48
70 -70 58 -40 -21 -153 -59 -158 -54 -4 3 1 14 10 23 16 17 15 19 -10 29 -14
5 -32 21 -38 36 -16 34 -14 35 182 149 62 35 248 122 280 130 8 3 45 15 81 29
128 48 404 108 544 120 112 9 523 -3 615 -18z m-1750 -449 c0 -13 -6 -29 -12
-36 -11 -10 -9 -15 5 -26 15 -11 16 -16 6 -33 -14 -23 -4 -71 32 -148 10 -23
22 -55 25 -73 6 -26 4 -30 -10 -25 -9 3 -16 2 -16 -3 0 -5 -21 -25 -47 -43
-81 -56 -122 -101 -129 -139 -4 -20 -15 -53 -25 -73 -12 -23 -19 -58 -19 -93
0 -30 -4 -55 -10 -55 -5 0 -10 -7 -10 -15 0 -18 -31 -35 -62 -35 -13 0 -29 -5
-35 -11 -15 -15 -72 11 -121 55 -61 55 -85 122 -80 218 4 71 8 83 44 135 79
115 407 423 451 423 7 0 13 -10 13 -23z m2904 -64 c108 -88 275 -253 302 -299
73 -125 36 -289 -83 -364 -67 -42 -97 -48 -270 -52 l-152 -3 -15 35 c-18 42
-29 179 -17 199 7 11 18 11 62 2 30 -7 64 -14 76 -17 12 -2 36 -25 54 -52 35
-52 56 -72 76 -72 26 0 12 40 -27 76 -22 20 -42 45 -46 56 -3 10 -29 29 -57
42 -75 34 -86 49 -89 134 -3 87 11 109 56 92 39 -15 83 -12 119 6 18 9 39 20
47 24 29 14 23 51 -13 89 -19 20 -42 51 -51 68 -9 18 -28 40 -41 49 -26 17
-34 44 -14 44 7 0 44 -26 83 -57z m-2639 -41 c6 -17 15 -35 19 -39 5 -5 6 -2
1 6 -5 9 -4 12 3 7 6 -4 9 -13 6 -20 -3 -7 5 -20 18 -28 13 -9 24 -26 25 -39
2 -24 -26 -79 -40 -79 -5 0 -17 -10 -26 -22 -14 -16 -24 -19 -44 -14 -15 3
-27 13 -27 22 0 11 -6 13 -20 9 -15 -5 -21 0 -25 22 -3 15 -11 46 -16 68 -17
66 -16 70 13 73 16 2 39 17 55 37 33 40 44 39 58 -3z m2161 -427 c72 -1 136
-5 143 -10 24 -14 73 -136 67 -166 -3 -16 -1 -31 4 -34 6 -3 10 -15 10 -26 0
-16 -7 -19 -52 -19 -29 -1 -131 -3 -225 -6 -162 -6 -173 -5 -180 13 -3 10 -16
32 -28 48 -36 49 -36 70 -4 111 16 20 29 42 29 48 0 6 7 22 16 35 14 20 22 22
53 15 20 -4 95 -8 167 -9z m-1996 -145 c0 -9 -5 -21 -11 -27 -13 -13 -5 -43
10 -43 5 0 13 9 16 20 10 31 18 25 47 -35 l27 -55 -121 0 c-108 0 -121 2 -136
20 -11 13 -40 25 -79 33 -35 7 -67 17 -72 22 -6 6 -7 34 -3 65 l7 55 83 7 c45
5 97 14 115 22 31 13 33 13 75 -27 23 -23 42 -48 42 -57z m862 46 c17 -38 4
-53 -56 -67 -48 -10 -58 -10 -80 5 -15 9 -26 24 -26 34 0 27 16 45 34 39 9 -4
26 -2 38 3 44 17 78 12 90 -14z m-1358 -61 c11 -8 30 -15 43 -15 16 0 34 -15
58 -47 19 -27 35 -51 35 -55 0 -5 -43 -8 -96 -8 -84 0 -95 2 -84 15 9 10 10
32 5 70 -7 60 2 68 39 40z"/>
<path d="M3248 1953 c6 -2 18 -2 25 0 6 3 1 5 -13 5 -14 0 -19 -2 -12 -5z"/>
<path d="M3183 1943 c9 -2 23 -2 30 0 6 3 -1 5 -18 5 -16 0 -22 -2 -12 -5z"/>
<path d="M2370 1799 c0 -5 5 -7 10 -4 6 3 10 8 10 11 0 2 -4 4 -10 4 -5 0 -10
-5 -10 -11z"/>
<path d="M2346 1783 c-13 -13 -6 -42 9 -37 16 7 20 30 6 38 -4 3 -11 3 -15 -1z"/>
</g>
</svg>
