<?xml version="1.0" standalone="no"?>
<!DOCTYPE svg PUBLIC "-//W3C//DTD SVG 20010904//EN"
 "http://www.w3.org/TR/2001/REC-SVG-20010904/DTD/svg10.dtd">
<svg version="1.0" xmlns="http://www.w3.org/2000/svg"
 width="580.000000pt" height="400.000000pt" viewBox="0 0 580.000000 400.000000"
 preserveAspectRatio="xMidYMid meet">
<metadata>
Created by potrace 1.16, written by Peter Selinger 2001-2019
</metadata>
<g transform="translate(0.000000,400.000000) scale(0.100000,-0.100000)"
fill="#000000" stroke="none">
<path d="M2679 3626 c-2 -2 -44 -7 -94 -11 -49 -4 -93 -9 -96 -11 -4 -2 -31
-6 -60 -10 -185 -21 -561 -144 -804 -263 -189 -93 -440 -250 -450 -281 -3 -11
-15 -22 -26 -25 -57 -18 -83 91 -54 229 9 43 15 80 12 82 -2 2 -21 -23 -42
-56 -21 -33 -41 -60 -44 -60 -3 1 -19 21 -34 45 -16 25 -32 45 -37 45 -11 0
-20 -37 -20 -82 0 -21 -4 -38 -8 -38 -5 0 -34 14 -65 31 -31 17 -57 27 -57 24
0 -4 18 -28 41 -53 39 -45 69 -93 89 -148 8 -19 6 -28 -10 -44 -30 -30 -52
-13 -89 66 -54 116 -203 234 -298 237 -44 1 -55 -16 -48 -73 14 -114 135 -281
236 -325 50 -22 59 -31 59 -61 0 -67 -75 -46 -171 47 -66 64 -78 54 -29 -25
33 -51 32 -66 -5 -66 -32 0 -75 -17 -75 -30 0 -6 18 -23 40 -38 21 -15 39 -31
40 -37 0 -5 -16 -21 -35 -33 -31 -22 -73 -72 -60 -72 3 0 20 7 38 16 18 10 66
19 117 22 74 4 89 2 104 -13 13 -13 17 -28 13 -51 -3 -18 -2 -34 1 -36 17 -7
81 -97 100 -138 32 -72 42 -120 42 -206 0 -120 -34 -217 -102 -290 l-28 -30
30 -29 c45 -43 86 -111 110 -185 43 -128 15 -300 -64 -401 -28 -34 -33 -47
-25 -66 4 -12 6 -29 3 -38 -13 -32 -142 -31 -224 1 -23 9 -43 14 -46 11 -3 -3
18 -24 48 -47 29 -23 54 -46 56 -50 2 -5 -11 -16 -27 -26 -56 -33 -52 -59 12
-69 23 -4 45 -9 48 -11 4 -2 -4 -25 -17 -51 -35 -69 -29 -79 19 -30 45 47 105
87 130 87 21 0 47 -27 47 -50 0 -13 -20 -29 -61 -51 -74 -40 -120 -92 -165
-184 -35 -72 -45 -140 -22 -163 34 -34 127 2 214 80 42 39 66 72 91 125 18 40
37 74 42 77 14 9 40 -4 51 -24 17 -33 -38 -151 -95 -203 -11 -10 6 -4 37 13
32 17 62 29 67 26 4 -3 11 -26 14 -51 2 -25 7 -48 10 -51 7 -7 42 27 57 55 15
29 21 27 53 -23 46 -74 60 -77 36 -10 -23 67 -28 196 -9 220 16 18 44 18 59 1
6 -8 15 -37 21 -65 20 -107 99 -214 195 -265 38 -20 62 -22 445 -30 416 -10
1599 3 2124 23 241 10 264 12 312 34 28 13 69 40 91 60 47 42 99 134 108 191
12 75 15 84 34 90 41 13 51 -3 51 -82 0 -74 -15 -160 -31 -177 -5 -6 -9 -17
-9 -25 0 -19 54 44 71 82 15 34 25 34 43 -1 17 -32 44 -58 52 -49 3 3 8 25 11
49 7 62 11 72 26 60 24 -20 89 -53 95 -48 2 3 -9 21 -27 41 -34 39 -81 125
-81 149 0 23 28 45 49 39 12 -3 25 -20 32 -42 35 -108 159 -221 261 -237 40
-7 68 14 68 49 -1 115 -103 266 -212 314 -34 15 -39 21 -36 48 2 24 8 31 30
33 33 4 68 -17 131 -77 53 -51 59 -43 22 30 -28 54 -28 53 37 64 21 3 40 9 42
14 3 5 -11 25 -32 45 l-37 38 25 20 c89 71 99 90 34 63 -45 -19 -150 -31 -187
-21 -30 7 -41 30 -26 57 8 16 5 26 -19 53 -16 19 -42 60 -58 92 -27 55 -29 67
-29 180 l0 121 42 84 c23 46 55 97 72 113 l31 29 -36 43 c-19 24 -47 69 -62
101 -24 52 -27 69 -27 173 0 104 3 121 28 180 16 36 48 90 72 120 34 44 41 60
33 73 -7 13 -5 25 6 43 15 22 23 24 91 24 51 0 90 -6 125 -20 49 -19 50 -19
41 -1 -6 11 -29 35 -52 53 l-42 35 44 41 c24 22 41 44 37 48 -4 4 -30 9 -58
12 -27 2 -50 9 -50 13 0 5 11 27 25 48 13 22 27 52 31 67 6 25 0 21 -54 -32
-33 -33 -79 -69 -102 -79 -37 -17 -42 -17 -57 -3 -26 27 -9 60 43 88 68 35
159 132 194 204 81 170 43 231 -102 163 -72 -34 -144 -109 -194 -204 -44 -84
-73 -103 -94 -63 -9 17 -6 32 18 83 16 34 48 83 71 110 49 54 37 61 -32 17
-26 -16 -49 -30 -51 -30 -2 0 -6 23 -10 50 -9 70 -15 83 -30 67 -6 -6 -23 -30
-36 -51 -21 -35 -25 -38 -34 -22 -6 10 -26 39 -45 64 -30 43 -32 44 -26 17 27
-117 27 -252 -1 -280 -17 -17 -55 -7 -61 15 -10 38 -390 263 -588 347 -243
104 -572 190 -820 213 -104 9 -527 14 -536 6z m233 -870 c10 -48 2 -58 -21
-27 l-18 24 -17 -24 c-20 -29 -21 -68 -1 -75 25 -10 17 -24 -15 -24 -16 0 -30
-5 -30 -10 0 -21 29 -80 40 -80 6 0 8 -10 4 -24 -4 -19 0 -28 20 -41 14 -9 33
-14 44 -11 16 5 20 2 20 -19 0 -22 -4 -25 -39 -25 -50 0 -51 -18 -1 -22 33 -3
37 -6 34 -28 -2 -21 -1 -22 8 -8 8 13 50 16 50 2 0 -2 11 -73 25 -158 32 -199
32 -196 -5 -196 -30 0 -30 1 -32 58 l-1 57 -6 -55 -6 -55 -37 -3 c-34 -3 -38
-1 -39 20 -1 26 -21 -87 -47 -262 -16 -104 -19 -116 -42 -127 l-25 -13 23 0
c17 0 23 -5 20 -17 -3 -14 -14 -18 -53 -18 -28 0 -112 -2 -189 -3 l-139 -2 5
-70 5 -70 -153 0 c-180 0 -166 -11 -161 138 2 50 0 92 -4 92 -21 0 -37 -13
-32 -26 4 -10 -4 -14 -30 -14 -44 0 -53 12 -37 51 11 26 17 29 61 29 53 0 61
10 32 42 -14 16 -15 22 -4 40 12 19 11 20 -36 15 -277 -27 -302 -29 -370 -20
-100 13 -104 9 -104 -85 1 -43 -2 -96 -5 -120 -5 -36 -4 -41 10 -36 14 5 16
-3 16 -50 l0 -56 -172 0 c-161 0 -177 2 -224 24 -103 48 -164 147 -164 266 0
91 27 147 124 259 322 372 768 638 1249 745 139 32 319 55 402 53 l59 -2 8
-39z m253 28 c89 -8 274 -45 390 -79 402 -117 797 -380 1087 -726 66 -77 88
-130 88 -209 0 -111 -34 -186 -114 -249 -54 -43 -87 -49 -274 -53 -142 -3
-162 -1 -162 13 0 9 11 22 25 29 42 22 76 86 80 148 4 63 -13 110 -56 154 -19
19 -25 34 -22 52 3 15 12 26 19 26 21 0 17 17 -7 34 -19 13 -21 22 -18 95 3
61 1 82 -9 86 -19 7 -191 4 -222 -4 -23 -6 -25 -11 -28 -71 -3 -73 -17 -126
-35 -132 -7 -2 -27 -3 -46 -3 l-35 0 2 65 c1 36 5 93 8 126 4 40 2 64 -5 68
-7 5 -11 -5 -11 -29 0 -38 -22 -46 -29 -10 -2 10 -10 26 -19 34 -13 14 -14 10
-10 -37 3 -29 1 -55 -3 -58 -5 -3 -9 -38 -9 -79 0 -41 -4 -76 -8 -79 -5 -3
-46 -10 -92 -15 -46 -6 -86 -13 -88 -16 -3 -3 -1 -38 4 -77 l10 -72 -31 -32
c-18 -17 -35 -45 -38 -62 -8 -39 8 -94 33 -117 11 -10 20 -26 20 -37 0 -17
-12 -18 -205 -18 -113 0 -205 4 -205 9 0 4 -10 68 -21 142 -12 74 -23 145 -24
159 -2 14 -6 39 -9 55 -3 17 -12 71 -21 120 -9 50 -18 101 -20 115 -10 57 -53
345 -51 347 1 1 17 5 36 8 49 9 50 15 2 15 -45 0 -54 13 -22 30 11 6 19 19 18
28 -2 10 4 17 16 17 10 0 28 12 39 27 17 23 18 30 7 43 -23 28 0 33 88 21 l52
-8 0 60 c0 34 -4 64 -10 67 -5 3 -28 -3 -52 -15 -48 -23 -65 -25 -70 -8 -3 7
-13 5 -31 -7 -33 -21 -47 -13 -23 14 19 21 13 45 -18 70 -12 10 -16 6 -26 -24
-15 -47 -33 -45 -25 3 11 65 11 64 63 58 26 -3 79 -8 117 -12z m1017 -750 c1
-31 -1 -58 -5 -61 -5 -3 -12 -16 -17 -29 -8 -21 -16 -24 -64 -24 -40 0 -55 4
-60 16 -11 28 -6 130 6 142 7 7 39 12 74 12 l62 0 4 -56z m-1108 -199 c13 -75
20 -138 16 -140 -3 -2 -29 36 -58 85 l-53 89 22 43 c25 50 40 70 47 64 2 -3
14 -66 26 -141z m-145 83 l30 -52 -30 -51 c-16 -27 -39 -70 -51 -94 -13 -26
-24 -39 -26 -31 -7 20 30 280 40 280 4 0 21 -23 37 -52z m111 -183 c27 -47 50
-90 50 -95 0 -6 -25 -10 -55 -10 l-55 0 0 95 c0 52 2 95 5 95 2 0 27 -38 55
-85z m884 -105 c7 0 20 -17 29 -39 19 -41 52 -81 81 -98 45 -25 3 -33 -179
-33 -126 0 -186 4 -191 11 -4 7 0 16 9 20 23 14 57 73 57 101 0 22 5 26 46 32
54 7 64 3 59 -24 -2 -11 0 -22 6 -25 5 -4 9 7 9 24 0 30 19 43 48 35 8 -2 19
-4 26 -4z m-2099 -32 c22 1 51 3 65 5 24 2 25 -1 28 -54 2 -30 -1 -67 -7 -80
-9 -25 -11 -25 -111 -23 -56 1 -104 5 -108 8 -3 4 -8 35 -10 69 -4 61 -3 63
24 73 16 6 40 9 54 5 14 -3 43 -5 65 -3z m1130 -47 c10 -89 4 -101 -55 -101
-55 0 -56 1 -59 87 -3 68 -1 70 71 72 l36 1 7 -59z m164 -4 c18 -101 20 -97
-53 -97 -75 0 -76 2 -76 96 l0 64 59 0 59 0 11 -63z"/>
<path d="M2963 2325 c0 -22 2 -30 4 -17 2 12 2 30 0 40 -3 9 -5 -1 -4 -23z"/>
<path d="M2918 2280 c-2 -22 0 -40 4 -40 5 0 8 18 8 40 0 22 -2 40 -4 40 -2 0
-6 -18 -8 -40z"/>
<path d="M2961 2244 c0 -11 3 -14 6 -6 3 7 2 16 -1 19 -3 4 -6 -2 -5 -13z"/>
<path d="M2907 2200 c-3 -11 -1 -20 4 -20 5 0 9 9 9 20 0 11 -2 20 -4 20 -2 0
-6 -9 -9 -20z"/>
<path d="M2902 2140 c0 -14 2 -19 5 -12 2 6 2 18 0 25 -3 6 -5 1 -5 -13z"/>
</g>
</svg>
