<?xml version="1.0" standalone="no"?>
<!DOCTYPE svg PUBLIC "-//W3C//DTD SVG 20010904//EN"
 "http://www.w3.org/TR/2001/REC-SVG-20010904/DTD/svg10.dtd">
<svg version="1.0" xmlns="http://www.w3.org/2000/svg"
 width="580.000000pt" height="400.000000pt" viewBox="0 0 580.000000 400.000000"
 preserveAspectRatio="xMidYMid meet">
<metadata>
Created by potrace 1.16, written by Peter Selinger 2001-2019
</metadata>
<g transform="translate(0.000000,400.000000) scale(0.100000,-0.100000)"
fill="#000000" stroke="none">
<path d="M2605 3335 c-378 -38 -749 -153 -1095 -341 -119 -64 -256 -156 -315
-209 -34 -32 -42 -35 -59 -25 -31 20 -75 30 -82 19 -3 -5 -22 -8 -42 -7 -34 3
-37 1 -40 -25 -3 -27 -5 -28 -47 -22 -42 7 -44 6 -60 -29 -17 -35 -17 -38 0
-57 20 -21 14 -33 -21 -43 -16 -5 -23 0 -33 20 -11 24 -13 25 -29 11 -9 -8
-26 -17 -37 -19 -16 -2 -21 -12 -23 -51 -2 -28 2 -55 9 -63 9 -11 8 -18 -4
-32 -10 -11 -14 -27 -10 -40 4 -16 -2 -28 -22 -44 -26 -20 -26 -22 -10 -35 17
-12 17 -14 2 -31 -21 -23 -22 -48 -2 -56 28 -11 17 -36 -16 -36 -31 0 -31 -1
-25 -38 3 -20 6 -43 6 -50 0 -7 11 -18 25 -24 18 -8 25 -19 25 -39 0 -16 11
-40 25 -55 28 -30 33 -75 9 -94 -8 -8 -14 -25 -12 -39 2 -21 9 -27 33 -29 40
-5 55 -19 55 -53 0 -16 5 -29 10 -29 6 0 10 -10 10 -22 0 -13 12 -31 25 -41
25 -18 45 -16 45 4 0 6 13 24 29 41 26 28 32 30 70 23 23 -4 45 -14 48 -22 4
-9 14 -13 29 -9 12 3 25 2 28 -3 3 -4 16 -6 29 -4 18 4 30 -3 46 -23 21 -27
22 -33 15 -184 -9 -205 -24 -249 -97 -285 -113 -57 -161 -138 -161 -270 0 -69
4 -88 31 -140 18 -37 46 -72 72 -92 87 -67 -33 -63 1856 -63 1890 0 1769 -4
1857 63 92 71 132 222 89 337 -27 71 -61 110 -141 163 -86 56 -95 82 -104 287
-7 151 -6 157 15 184 16 20 28 27 46 23 13 -2 26 0 29 5 3 5 15 6 26 2 12 -3
24 0 31 10 7 8 30 18 53 22 37 5 43 3 71 -29 17 -19 33 -41 35 -48 7 -20 57
22 58 48 0 12 5 25 10 28 6 3 10 17 10 29 0 29 16 43 55 48 24 2 31 8 33 29 2
14 -4 31 -12 39 -23 19 -19 59 9 96 14 18 25 43 25 57 0 15 8 28 24 35 16 7
25 22 29 49 10 60 9 63 -23 63 -32 0 -43 26 -15 36 20 8 19 33 -2 56 -15 17
-15 19 1 31 17 13 17 14 1 30 -9 9 -21 17 -27 17 -5 0 -7 12 -3 29 4 20 1 34
-10 45 -13 13 -14 20 -5 31 6 7 10 35 8 62 -3 41 -6 48 -26 51 -13 2 -26 10
-29 18 -8 21 -22 17 -35 -11 -9 -19 -16 -24 -32 -19 -35 11 -41 22 -21 44 19
21 19 22 -1 58 -20 37 -24 38 -76 26 -24 -5 -27 -3 -30 22 -3 25 -7 29 -32 27
-17 -1 -35 2 -41 7 -13 11 -59 0 -93 -21 -17 -11 -24 -11 -30 -2 -4 6 -19 16
-32 21 -14 5 -59 34 -100 63 -373 268 -871 450 -1350 494 -184 18 -357 17
-535 0z m512 -196 c220 -18 454 -74 671 -160 182 -73 440 -208 449 -236 3 -7
-12 -16 -35 -22 -36 -10 -51 -26 -66 -73 -4 -13 -16 -18 -46 -18 -36 0 -40 -2
-40 -25 0 -14 -9 -30 -20 -37 -24 -16 -25 -35 -3 -60 34 -38 -1 -29 -114 30
-173 89 -326 145 -523 191 -217 50 -372 66 -586 57 -199 -7 -277 -18 -457 -62
-172 -42 -293 -87 -450 -165 -65 -33 -121 -58 -124 -55 -2 2 0 13 6 24 9 17 6
23 -14 36 -16 10 -25 26 -25 41 0 22 -4 25 -40 25 -30 0 -42 5 -46 18 -15 47
-30 63 -66 73 -31 8 -43 7 -60 -6 -29 -19 -54 -19 -62 1 -9 23 -5 26 91 82
276 158 557 262 859 317 185 34 468 44 701 24z m143 -487 c251 -50 408 -101
608 -198 l92 -46 0 -48 c0 -27 -4 -52 -10 -55 -5 -3 -10 -19 -10 -35 0 -16 5
-32 10 -35 6 -3 10 -17 10 -31 0 -13 4 -24 9 -24 22 0 81 32 81 44 0 7 9 21
20 31 20 18 20 17 20 -8 0 -19 6 -26 22 -29 24 -3 32 -17 19 -37 -7 -10 -13
-11 -31 -1 -30 16 -50 -2 -32 -30 16 -27 15 -30 -8 -30 -11 0 -28 -9 -37 -20
-10 -11 -28 -20 -41 -20 -39 0 -37 -34 8 -122 5 -9 6 -33 3 -52 -5 -34 -3 -38
26 -49 18 -6 31 -19 31 -28 0 -9 7 -19 15 -23 8 -3 15 -12 15 -20 0 -9 14 -22
30 -31 18 -9 30 -23 30 -35 0 -16 7 -20 33 -22 66 -3 84 -5 96 -12 16 -10 14
26 -4 50 -13 18 -21 54 -10 54 2 0 24 -11 49 -25 25 -14 52 -25 60 -25 9 0 23
-11 32 -25 14 -21 15 -38 9 -88 -4 -34 -9 -116 -10 -183 -2 -98 -6 -126 -21
-149 l-18 -28 -1101 6 c-605 4 -1265 7 -1466 7 l-366 0 -13 25 c-8 15 -14 67
-15 142 -1 65 -6 146 -10 180 -6 51 -5 67 9 88 9 14 23 25 32 25 8 0 35 11 60
25 25 14 47 25 49 25 11 0 4 -37 -10 -56 -23 -31 -16 -72 9 -47 7 8 13 8 79
11 30 2 37 6 37 22 0 12 12 26 30 35 17 9 30 22 30 31 0 8 7 17 15 20 8 4 15
14 15 23 0 9 13 22 31 28 27 10 30 16 28 45 -3 37 5 68 28 114 19 37 12 64
-17 64 -11 0 -29 9 -40 20 -11 11 -29 20 -40 20 -23 0 -24 3 -8 30 17 27 -1
46 -30 31 -15 -8 -23 -7 -33 5 -10 13 -10 17 2 25 8 5 20 9 27 9 6 0 12 12 12
27 0 25 0 26 20 8 11 -10 20 -24 20 -31 0 -12 59 -44 81 -44 5 0 9 11 9 24 0
14 5 28 10 31 6 3 10 19 10 35 0 16 -4 32 -10 35 -5 3 -10 25 -10 49 l0 42
118 57 c216 104 412 167 627 201 55 9 111 18 125 20 14 2 122 3 240 1 169 -2
238 -7 320 -23z m-2061 -511 c22 -17 23 -20 13 -86 -6 -37 -13 -70 -16 -72
-10 -10 -27 10 -52 61 l-26 54 23 31 c27 36 27 36 58 12z m211 -71 l0 -89 -56
-41 c-70 -52 -84 -48 -84 24 0 75 13 103 54 120 20 8 42 28 51 45 26 51 35 36
35 -59z m3005 59 c9 -17 31 -37 49 -44 32 -14 54 -48 57 -90 5 -48 -2 -86 -15
-91 -8 -3 -40 13 -70 36 l-56 41 0 89 c0 95 9 110 35 59z m235 -1 l23 -32 -29
-55 c-16 -30 -34 -56 -39 -58 -6 -2 -17 29 -24 69 -13 70 -13 72 10 89 31 24
31 24 59 -13z m-3630 -38 c22 -12 87 -136 77 -147 -16 -15 -117 118 -117 153
0 7 21 4 40 -6z m3790 6 c0 -34 -101 -168 -116 -153 -8 8 43 114 67 138 16 16
49 26 49 15z m-217 -990 c90 -38 109 -152 36 -222 l-30 -29 -1705 0 -1706 0
-34 37 c-29 33 -34 45 -34 89 0 60 26 104 74 125 46 20 3351 21 3399 0z"/>
</g>
</svg>
