<?xml version="1.0" standalone="no"?>
<!DOCTYPE svg PUBLIC "-//W3C//DTD SVG 20010904//EN"
 "http://www.w3.org/TR/2001/REC-SVG-20010904/DTD/svg10.dtd">
<svg version="1.0" xmlns="http://www.w3.org/2000/svg"
 width="580.000000pt" height="400.000000pt" viewBox="0 0 580.000000 400.000000"
 preserveAspectRatio="xMidYMid meet">
<metadata>
Created by potrace 1.16, written by Peter Selinger 2001-2019
</metadata>
<g transform="translate(0.000000,400.000000) scale(0.100000,-0.100000)"
fill="#000000" stroke="none">
<path d="M2545 3469 c-131 -10 -271 -29 -495 -65 -168 -27 -216 -38 -404 -88
-149 -40 -147 -39 -339 -111 -137 -51 -184 -55 -174 -14 6 22 -23 59 -47 59
-7 0 -20 10 -28 22 l-15 22 -12 -22 c-6 -12 -20 -22 -31 -22 -15 0 -19 -6 -17
-22 2 -20 -2 -23 -28 -20 -25 4 -27 2 -16 -12 7 -8 10 -24 6 -35 -4 -13 0 -23
11 -29 24 -14 10 -46 -17 -39 -15 4 -23 -1 -29 -19 -6 -15 -17 -24 -31 -24
l-22 0 23 -25 c23 -24 23 -25 5 -45 -10 -11 -27 -20 -38 -20 -14 0 -17 -4 -12
-17 13 -34 17 -73 8 -73 -4 0 -18 6 -29 14 -18 13 -22 13 -37 -5 -9 -10 -27
-19 -39 -20 l-23 0 22 -11 c13 -6 23 -18 23 -26 0 -11 8 -13 33 -8 27 5 38 2
57 -19 13 -14 20 -28 16 -32 -11 -11 -151 -3 -172 10 -5 3 -9 -12 -9 -34 0
-28 4 -39 15 -39 23 -1 53 -27 65 -57 8 -21 18 -27 40 -28 15 0 30 -5 32 -11
5 -16 -39 -32 -67 -23 -14 4 -56 7 -94 8 l-69 1 19 -21 c15 -17 16 -22 4 -29
-8 -5 -12 -11 -10 -13 15 -11 94 -36 101 -31 17 10 49 -7 49 -26 0 -14 -10
-19 -42 -22 -24 -3 -55 -1 -70 3 -15 4 -30 3 -33 -2 -4 -5 -17 -9 -30 -9 -28
0 -41 -15 -20 -24 8 -3 15 -15 15 -26 0 -16 4 -20 19 -15 13 4 24 -1 35 -16
14 -21 14 -24 -5 -37 -19 -13 -19 -15 -3 -33 11 -12 25 -17 38 -13 15 3 29 -3
45 -20 l24 -25 -27 -13 c-20 -9 -35 -9 -56 -1 -16 6 -34 7 -41 2 -8 -5 -28 -9
-46 -9 -24 0 -31 -4 -27 -14 3 -8 1 -24 -6 -35 -9 -18 -8 -21 9 -21 11 0 23
-4 26 -10 3 -5 21 -10 38 -10 46 0 77 -10 77 -25 0 -17 -55 -39 -82 -32 -12 4
-27 2 -34 -4 -7 -5 -22 -12 -34 -14 -30 -6 -32 -8 -22 -36 8 -20 14 -23 59
-20 28 1 54 -2 57 -8 11 -18 -35 -61 -66 -61 -17 0 -28 -5 -28 -14 0 -7 -7
-19 -15 -26 -23 -19 0 -43 27 -29 24 13 71 3 66 -13 -2 -6 -20 -17 -39 -23
-20 -7 -35 -20 -38 -31 -2 -10 -8 -25 -14 -32 -8 -10 -7 -16 4 -23 11 -8 9
-13 -13 -32 l-26 -22 25 -19 c19 -14 41 -18 83 -17 33 0 62 -3 65 -9 10 -15
51 -12 66 6 8 10 22 14 39 10 15 -3 32 0 37 5 8 8 17 7 31 0 11 -6 31 -11 44
-11 40 0 48 -18 48 -112 0 -100 -4 -105 -97 -133 -101 -30 -198 -119 -253
-230 -39 -81 -40 -86 -40 -185 0 -101 1 -104 45 -195 33 -67 58 -103 88 -128
58 -48 138 -97 156 -97 9 0 29 -7 45 -15 25 -13 272 -15 2020 -15 l1991 0 55
28 c114 56 187 125 232 217 34 68 50 183 37 263 -23 148 -116 272 -249 333
-36 16 -81 37 -100 47 l-35 17 -3 78 c-3 94 6 111 57 104 20 -2 47 0 60 5 16
6 41 3 76 -7 29 -8 55 -15 58 -15 6 0 20 41 18 56 -1 5 17 18 39 28 34 15 46
16 76 6 32 -11 37 -10 59 14 24 26 24 26 4 37 -12 6 -18 17 -15 25 4 10 -4 18
-22 25 -25 10 -26 11 -9 23 10 8 15 20 11 29 -3 8 0 18 7 22 7 5 0 13 -21 21
-26 11 -30 17 -21 28 15 18 11 20 -82 41 -61 13 -77 21 -73 32 3 8 6 16 6 19
0 2 14 10 30 19 22 11 35 13 49 5 16 -8 18 -7 14 10 -3 11 2 31 11 45 16 24
16 25 -5 25 -13 0 -30 7 -40 16 -13 12 -22 13 -36 6 -27 -16 -76 16 -67 43 3
11 6 32 6 48 -1 24 3 27 29 27 26 0 29 3 24 20 -5 16 -2 20 18 20 16 0 31 10
42 26 l17 26 -30 -7 c-18 -3 -33 -2 -37 4 -3 6 -26 11 -51 11 -28 0 -44 4 -44
12 0 7 -12 22 -27 35 l-28 22 48 1 c33 0 57 6 74 20 14 11 21 20 16 20 -16 0
-64 45 -57 53 4 4 21 7 37 7 25 0 27 2 17 15 -14 16 -6 35 16 35 8 0 14 5 14
10 0 6 -11 10 -25 10 -21 0 -25 5 -25 27 l0 27 -29 -34 c-22 -27 -31 -32 -42
-23 -10 8 -28 9 -59 3 -64 -13 -67 -12 -73 9 -6 25 46 65 73 56 14 -5 20 -2
20 10 0 8 7 18 15 21 8 4 15 12 15 19 0 6 10 16 22 22 22 9 21 11 -15 22 -28
10 -46 10 -69 2 -17 -6 -33 -9 -36 -7 -11 12 25 65 47 71 18 5 21 9 12 18 -15
15 -14 47 2 48 17 2 20 1 41 -7 15 -6 17 -4 11 15 -4 14 -2 23 9 27 24 9 19
24 -7 24 -13 0 -28 5 -34 11 -9 9 -20 9 -44 0 -17 -6 -36 -11 -40 -11 -11 0
-12 44 -2 53 3 4 8 18 9 32 2 20 -2 25 -21 25 -16 0 -25 7 -29 26 -5 20 -10
24 -19 15 -6 -6 -17 -11 -24 -11 -21 0 -15 37 8 53 20 14 20 16 3 25 -18 10
-18 11 0 31 19 21 19 21 -12 15 -28 -6 -32 -4 -32 15 0 12 -6 21 -15 21 -8 0
-23 9 -33 20 l-19 20 -18 -20 c-10 -11 -25 -18 -34 -15 -10 3 -20 -4 -28 -20
-6 -14 -7 -25 -2 -25 16 0 10 -19 -12 -41 -25 -25 -9 -28 -224 51 -141 52
-395 129 -515 156 -218 47 -437 84 -570 95 -163 13 -592 18 -725 8z m295 -134
c0 -2 -13 -25 -29 -50 -16 -25 -32 -66 -36 -90 -5 -39 -2 -55 24 -107 17 -34
28 -64 25 -67 -8 -8 -145 -19 -162 -13 -10 3 -12 15 -7 40 l6 35 -24 -28 c-20
-24 -33 -29 -83 -33 -45 -3 -63 0 -72 11 -8 9 -15 62 -18 134 l-6 120 29 21
c17 12 50 22 79 25 77 6 274 8 274 2z m342 -11 c21 -3 40 -9 43 -14 3 -4 -11
-27 -30 -50 -58 -69 -66 -140 -24 -202 22 -30 24 -54 7 -61 -22 -8 -162 5
-176 16 -10 8 -9 13 3 27 16 17 14 17 -28 2 -39 -14 -48 -14 -83 -1 -106 40
-114 209 -13 263 43 23 75 17 118 -23 l31 -29 0 37 c0 21 3 41 7 45 7 7 50 4
145 -10z m-792 -22 c27 -22 39 -81 39 -203 1 -83 0 -87 -26 -104 -18 -12 -48
-18 -97 -19 -65 -1 -71 1 -74 20 l-3 22 -22 -22 c-16 -15 -40 -25 -77 -29 -30
-4 -56 -5 -58 -3 -12 13 -32 120 -24 128 17 17 100 22 117 8 17 -14 20 -3 9
37 -6 22 -6 22 -33 4 -38 -27 -77 -34 -94 -17 -15 15 -31 91 -22 105 2 5 25
14 51 20 37 10 51 9 75 -3 29 -15 30 -14 27 12 -3 26 -1 27 87 43 50 9 93 17
96 18 4 0 17 -7 29 -17z m1180 -30 c25 -12 36 -24 37 -42 4 -40 -50 -242 -67
-250 -8 -4 -24 -12 -35 -17 -27 -14 -134 4 -142 23 -3 8 11 32 30 53 54 60 59
159 11 212 -9 10 -14 26 -10 34 5 14 16 16 73 10 38 -4 84 -14 103 -23z m-215
-6 c101 -101 -6 -325 -120 -250 -65 42 -57 223 12 263 32 19 82 13 108 -13z
m423 -32 c109 -27 113 -37 48 -115 -25 -30 -42 -56 -39 -59 3 -3 12 5 20 18
16 22 53 31 53 11 0 -19 -32 -154 -41 -170 -5 -9 -19 -19 -33 -21 -27 -5 -86
16 -86 30 0 9 30 51 62 86 10 11 18 24 18 30 0 5 -9 0 -20 -12 -23 -24 -35
-27 -46 -11 -9 15 -44 178 -44 206 0 28 16 29 108 7z m-1819 -3 c13 -8 41
-125 56 -230 6 -42 4 -52 -9 -57 -9 -3 -16 -12 -16 -20 0 -7 -12 -16 -27 -20
-16 -3 -48 -12 -73 -20 -25 -7 -61 -15 -80 -16 l-35 -3 3 93 c2 58 -1 92 -8
92 -5 0 -10 -10 -10 -22 0 -13 -4 -29 -9 -37 -13 -20 -29 -6 -87 76 -43 60
-45 66 -30 82 21 23 74 39 106 31 21 -5 26 -13 31 -50 l6 -45 1 48 c2 54 20
75 80 93 46 15 83 16 101 5z m2078 -66 c28 -8 61 -23 74 -34 l23 -18 -44 -122
c-39 -111 -46 -124 -75 -138 -29 -14 -38 -14 -75 -2 -24 8 -52 26 -62 40 -19
25 -19 27 2 105 12 43 25 96 31 116 11 43 33 68 58 68 10 0 40 -7 68 -15z
m-391 -36 c8 -13 34 -154 34 -186 0 -17 -6 -23 -21 -23 -29 0 -77 30 -82 51
-4 15 12 101 29 157 4 15 30 16 40 1z m-2053 -37 c26 -25 28 -31 22 -77 -10
-83 -25 -87 -80 -19 -66 84 -68 88 -43 113 25 28 60 22 101 -17z m2684 -39
c27 -25 39 -30 45 -21 4 7 8 16 8 21 0 13 24 7 104 -25 84 -35 97 -50 113
-131 l6 -32 -27 19 c-27 17 -28 17 -47 -3 -11 -12 -30 -21 -42 -22 l-22 0 23
-11 c14 -7 20 -17 17 -28 -4 -14 0 -16 25 -12 42 6 37 -12 -9 -32 -35 -16 -41
-17 -69 -2 l-31 16 9 -31 c8 -27 6 -31 -17 -40 -33 -12 -74 -4 -107 22 -24 19
-25 22 -10 44 l16 24 -31 -12 c-24 -9 -41 -8 -86 7 -31 9 -58 23 -61 30 -7 19
35 126 50 126 27 0 81 -24 97 -43 16 -20 16 -20 27 11 10 31 10 31 -17 26 -15
-3 -44 1 -64 10 -29 12 -37 21 -37 40 0 56 41 99 83 88 10 -3 35 -20 54 -39z
m-2845 9 c32 -28 168 -223 168 -241 0 -17 -37 -41 -63 -41 -7 0 -61 -20 -121
-44 -86 -35 -113 -43 -129 -35 -14 8 -17 17 -13 35 6 22 4 23 -19 14 -19 -7
-25 -6 -25 5 0 8 -12 20 -27 27 -39 19 -39 41 -1 81 18 19 34 46 35 60 1 23 0
24 -27 14 -16 -6 -32 -9 -34 -6 -8 8 16 77 28 83 6 2 47 21 91 40 81 36 104
38 137 8z m280 -129 c26 -36 45 -69 42 -74 -8 -13 -113 -41 -130 -35 -12 5
-14 15 -10 44 3 20 8 58 12 85 9 65 28 61 86 -20z m1432 -63 c215 -15 375 -38
553 -80 48 -11 107 -25 131 -31 55 -12 354 -109 367 -118 6 -4 39 -18 75 -31
105 -37 123 -49 109 -66 -6 -8 -10 -16 -8 -17 2 -1 21 -10 42 -20 26 -12 37
-23 37 -38 0 -19 -4 -21 -40 -16 -22 3 -43 1 -46 -4 -3 -5 -20 -9 -37 -9 -31
-1 -31 -1 -12 -16 11 -8 19 -24 17 -34 -3 -16 3 -20 22 -20 35 0 51 -32 24
-49 -19 -12 -19 -13 -2 -32 9 -10 29 -19 43 -19 14 0 34 -7 44 -15 18 -13 18
-14 0 -23 -10 -5 -48 -10 -86 -10 -61 0 -67 2 -62 19 7 20 -4 23 -52 20 -28
-3 -37 13 -21 40 10 16 10 23 1 26 -7 2 -9 11 -6 19 3 8 -1 14 -11 14 -10 0
-16 9 -16 24 0 13 -7 29 -15 36 -10 9 -15 9 -15 1 0 -6 -6 -11 -13 -11 -16 0
-19 -29 -5 -47 10 -13 -7 -28 -22 -18 -5 3 -10 -1 -10 -9 0 -9 -4 -16 -9 -16
-5 0 -7 -9 -4 -20 3 -13 -1 -22 -12 -26 -12 -5 -15 -14 -10 -32 5 -19 3 -23
-9 -19 -21 8 -46 -2 -46 -19 0 -8 10 -14 24 -14 26 0 53 -25 38 -34 -5 -3 -30
-4 -54 -1 -35 3 -45 1 -45 -10 0 -8 8 -17 18 -20 10 -3 21 -15 24 -26 4 -10
15 -19 25 -19 22 0 38 -19 18 -22 -7 -1 -33 -2 -58 -2 -38 -1 -45 -4 -45 -21
0 -15 8 -21 33 -23 52 -5 42 -32 -12 -32 -50 0 -68 -16 -42 -36 12 -8 16 -19
11 -33 -4 -15 -1 -23 9 -26 55 -17 53 -15 33 -30 -10 -7 -26 -11 -36 -8 -9 2
-28 -4 -41 -15 -26 -21 -27 -21 43 -36 15 -4 27 -11 27 -16 0 -5 -12 -12 -27
-16 -44 -9 -73 -23 -73 -34 0 -6 8 -9 18 -6 9 3 23 2 31 -3 19 -12 6 -41 -19
-41 -11 0 -20 -2 -20 -4 0 -2 -3 -12 -7 -22 -5 -14 -2 -16 18 -11 13 3 30 2
38 -2 9 -6 6 -10 -12 -15 -22 -5 -42 -37 -38 -60 1 -5 -4 -13 -11 -18 -20 -12
11 -30 43 -24 15 3 30 2 33 -2 4 -3 41 -5 82 -3 l74 3 0 -51 c0 -46 -2 -51
-22 -51 -13 0 -302 0 -643 0 -341 0 -893 0 -1227 0 l-608 0 0 50 c0 48 1 50
28 50 16 0 48 9 71 21 27 12 53 18 67 15 19 -5 24 -2 24 13 0 11 -4 22 -9 25
-4 3 -11 19 -14 34 -5 23 -13 31 -36 35 -43 9 -40 34 4 43 64 12 60 36 -7 38
-37 1 -43 4 -46 24 -3 23 12 45 38 54 9 3 -1 9 -22 13 -42 8 -57 30 -26 38 13
4 19 11 15 21 -3 8 -2 18 3 21 6 4 10 12 10 20 0 13 -29 14 -82 3 -6 -2 -14 5
-16 15 -2 11 3 17 13 17 21 0 59 36 47 44 -6 3 -17 3 -26 0 -23 -9 -20 18 5
44 23 25 16 46 -13 39 -17 -5 -18 -2 -13 23 4 17 1 33 -7 42 -7 7 -18 22 -24
33 -17 31 -34 30 -34 -3 0 -21 -6 -33 -19 -37 -13 -4 -17 -12 -13 -27 3 -13
-1 -24 -12 -30 -13 -7 -16 -20 -14 -46 3 -34 1 -37 -24 -37 -15 -1 -30 -4 -34
-8 -8 -8 36 -46 54 -47 6 0 12 -5 12 -10 0 -20 -29 -22 -77 -6 -26 8 -74 18
-105 22 -32 3 -58 8 -58 9 0 23 17 35 51 35 34 0 38 3 36 22 -1 14 5 23 18 27
11 3 29 11 40 18 16 9 17 13 6 27 -8 9 -20 15 -27 14 -7 -2 -19 6 -27 17 -13
17 -19 18 -50 8 -33 -10 -42 -8 -96 24 -2 2 4 12 14 23 13 15 15 23 6 33 -14
18 -4 27 31 27 25 0 28 3 22 25 -5 22 -3 25 19 25 15 0 31 9 41 26 l17 25 -35
-7 c-25 -4 -36 -3 -36 6 0 7 -14 11 -39 9 -33 -3 -42 2 -71 34 l-32 37 50 0
c35 0 57 6 73 20 l24 19 -24 1 c-16 0 -21 4 -18 14 4 9 -3 16 -16 20 -18 5
-20 8 -7 16 8 5 22 10 31 10 8 0 73 25 145 56 325 142 732 244 1094 275 69 6
127 13 129 15 8 8 337 4 475 -6z m1401 -1329 c0 -67 -4 -98 -13 -108 -11 -10
-45 -13 -145 -11 l-132 3 -5 35 c-4 19 -4 41 -2 48 5 14 60 16 95 3 13 -5 30
-5 38 -1 11 7 10 10 -4 16 -31 11 11 33 51 27 45 -8 59 13 30 44 -23 24 -19
28 32 36 54 9 55 9 55 -92z m-3232 80 c23 -6 54 -12 70 -16 27 -5 38 -37 17
-50 -25 -15 8 -25 85 -25 81 0 85 -1 91 -24 3 -13 4 -37 2 -52 l-3 -29 -189
-3 c-130 -2 -193 1 -202 9 -15 12 -19 113 -8 157 10 34 67 48 137 33z"/>
</g>
</svg>
