<?xml version="1.0" standalone="no"?>
<!DOCTYPE svg PUBLIC "-//W3C//DTD SVG 20010904//EN"
 "http://www.w3.org/TR/2001/REC-SVG-20010904/DTD/svg10.dtd">
<svg version="1.0" xmlns="http://www.w3.org/2000/svg"
 width="580.000000pt" height="400.000000pt" viewBox="0 0 580.000000 400.000000"
 preserveAspectRatio="xMidYMid meet">
<metadata>
Created by potrace 1.16, written by Peter Selinger 2001-2019
</metadata>
<g transform="translate(0.000000,400.000000) scale(0.100000,-0.100000)"
fill="#000000" stroke="none">
<path d="M2735 3653 c-211 -9 -503 -49 -660 -89 -365 -94 -745 -259 -1012
-441 -66 -45 -101 -63 -124 -63 -31 0 -32 0 -14 -20 16 -18 17 -20 1 -26 -15
-6 -15 -9 5 -30 24 -26 17 -48 -13 -39 -14 5 -21 1 -25 -14 -4 -14 -13 -21
-31 -21 l-25 0 23 -25 c29 -31 19 -58 -24 -63 -29 -4 -31 -11 -14 -59 15 -40
5 -52 -23 -28 -17 17 -22 17 -29 5 -6 -8 -10 -18 -10 -22 0 -5 -11 -8 -25 -8
-27 0 -34 -15 -10 -24 8 -3 12 -11 10 -18 -4 -10 4 -13 32 -11 43 4 91 -25 78
-47 -8 -12 -103 -8 -164 7 -20 5 -22 3 -17 -15 4 -12 2 -30 -4 -42 -10 -18 -8
-20 19 -20 30 0 71 -38 71 -66 0 -10 10 -13 32 -12 24 2 33 -2 36 -14 4 -23
-39 -34 -82 -21 -17 5 -58 7 -90 4 -52 -5 -57 -8 -43 -20 16 -13 16 -15 1 -26
-14 -10 -10 -14 30 -29 26 -10 58 -16 71 -13 16 2 31 -3 41 -14 28 -31 8 -40
-72 -35 -41 2 -74 0 -74 -5 0 -5 -13 -9 -30 -9 -32 0 -40 -14 -14 -24 10 -4
13 -13 9 -26 -5 -17 -2 -20 25 -20 38 0 49 -23 25 -50 -24 -26 -6 -48 42 -52
36 -3 65 -30 50 -45 -5 -4 -48 -8 -98 -8 l-89 0 0 -27 c0 -14 -3 -33 -6 -42
-4 -11 0 -16 13 -16 10 0 23 -4 29 -9 5 -6 29 -11 54 -13 33 -2 46 -8 48 -20
2 -13 -6 -18 -35 -23 -49 -8 -116 -26 -126 -36 -5 -4 -4 -16 2 -27 9 -16 18
-19 48 -16 52 7 70 -7 55 -40 -9 -20 -19 -26 -44 -26 -26 0 -37 -6 -51 -31
-20 -36 -14 -53 18 -45 27 7 85 -3 85 -14 0 -5 -19 -15 -42 -23 -29 -9 -43
-20 -43 -31 0 -10 -8 -24 -18 -31 -12 -8 -14 -15 -8 -20 18 -11 12 -37 -9 -42
-25 -7 -25 -15 0 -38 16 -14 35 -18 85 -17 35 1 67 -3 70 -8 9 -15 51 -12 65
5 6 8 26 14 43 13 18 0 37 1 42 2 20 6 95 -13 105 -25 6 -8 10 -49 8 -101 -3
-83 -5 -89 -28 -100 -14 -7 -60 -29 -103 -49 -138 -65 -222 -174 -254 -332
-16 -75 -16 -86 0 -159 34 -155 113 -259 247 -323 l75 -36 2055 0 2055 0 55
29 c79 41 132 87 175 152 167 252 48 597 -238 690 -29 9 -57 21 -64 28 -7 6
-15 47 -19 91 -6 79 -6 81 19 92 14 6 34 9 46 6 12 -3 34 0 50 6 23 10 38 9
85 -7 55 -18 56 -18 56 0 0 10 7 21 15 24 12 5 13 10 4 20 -9 11 -8 14 5 14 9
0 27 7 39 15 18 11 31 12 57 5 48 -14 60 -13 67 8 4 9 11 20 17 25 7 5 5 12
-6 21 -10 7 -18 20 -18 29 0 8 -7 17 -15 21 -16 6 -12 49 7 73 7 9 2 14 -16
19 -28 7 -33 23 -15 41 13 13 -28 26 -114 39 -26 3 -49 10 -52 14 -16 26 41
66 76 55 15 -5 19 -1 19 17 0 13 7 33 15 44 21 28 18 35 -10 28 -17 -4 -32 -1
-43 9 -11 10 -22 13 -32 7 -19 -12 -70 16 -70 38 0 10 5 23 11 29 8 8 8 13 0
17 -22 14 -10 26 24 26 33 0 35 2 29 25 -5 21 -3 25 16 25 21 0 49 24 50 43 0
4 -13 7 -29 7 -17 0 -33 5 -36 11 -4 6 -21 9 -39 8 -22 -2 -40 5 -63 26 -18
16 -33 33 -33 37 0 5 21 8 48 8 31 0 55 7 72 20 l25 20 -22 0 c-14 0 -23 6
-23 15 0 8 -7 15 -15 15 -8 0 -15 7 -15 15 0 10 10 15 31 15 20 0 28 4 23 11
-4 7 4 20 17 30 l24 19 -27 0 c-21 0 -28 5 -28 19 0 30 -17 34 -34 9 -13 -18
-27 -23 -73 -25 -32 -1 -66 -4 -77 -5 -11 -2 -21 5 -27 20 -6 16 -5 22 5 22 7
0 19 7 26 15 8 9 21 13 36 9 19 -5 26 -1 34 20 5 14 16 26 24 26 9 0 13 6 10
14 -3 9 3 17 18 22 21 7 20 9 -17 20 -22 6 -55 9 -72 6 -35 -5 -41 5 -23 39 6
10 20 19 30 19 22 0 26 10 9 27 -7 7 -9 19 -5 29 5 12 14 15 36 10 25 -4 30
-2 30 13 0 10 10 23 23 29 l22 11 -25 0 c-14 1 -35 8 -47 16 -16 11 -28 13
-48 5 -14 -5 -32 -10 -39 -10 -18 0 -27 48 -11 54 7 2 12 21 11 43 -1 29 -5
39 -21 42 -11 2 -25 10 -31 19 -8 11 -13 12 -18 4 -4 -7 -14 -12 -22 -12 -22
0 -17 36 9 53 18 13 19 16 5 16 -20 1 -24 16 -8 26 25 16 8 27 -32 22 -40 -6
-49 -2 -129 53 -74 51 -311 190 -324 190 -3 0 -37 16 -77 36 -102 50 -322 135
-458 177 -325 101 -741 156 -1065 140z m60 -203 c4 -14 -4 -34 -25 -64 -57
-79 -51 -225 12 -288 30 -30 16 -50 -34 -46 l-43 3 3 53 c2 42 0 52 -13 52 -9
0 -21 -13 -26 -29 -15 -42 -50 -61 -124 -68 -75 -7 -66 -25 -95 182 l-20 140
25 20 c14 12 25 26 25 32 0 18 74 28 232 31 69 2 77 0 83 -18z m409 0 c36 -13
33 -40 -13 -95 -67 -81 -78 -180 -29 -266 28 -51 18 -62 -52 -52 -61 9 -71 22
-40 53 33 33 10 48 -28 20 -46 -34 -118 -38 -162 -8 -97 65 -98 241 -1 305 19
13 46 23 60 23 39 0 98 -44 112 -85 22 -59 39 -44 39 33 0 38 3 72 7 75 10 10
78 8 107 -3z m-884 -58 c28 -6 33 -21 51 -149 28 -195 28 -196 -27 -228 -60
-35 -74 -29 -74 35 0 42 -3 51 -16 48 -10 -2 -18 -15 -20 -33 -2 -18 -14 -39
-30 -52 -35 -27 -135 -56 -148 -43 -18 18 -45 134 -35 147 6 6 33 14 60 18 39
6 54 3 68 -9 18 -16 41 -21 41 -9 0 4 -10 37 -22 75 -23 70 -40 83 -46 34 -3
-22 -13 -31 -49 -47 -66 -28 -81 -25 -92 19 -24 96 -25 93 45 116 52 17 74 14
116 -16 25 -18 28 -8 15 40 -14 52 -8 59 64 76 47 12 56 11 69 -3 9 -9 22 -17
30 -19z m1295 -22 c-3 -4 6 -15 20 -24 14 -9 25 -22 25 -28 0 -23 -102 -293
-117 -310 -10 -11 -24 -16 -38 -12 -13 3 -26 1 -29 -5 -10 -16 -36 -13 -43 4
-3 10 8 27 30 48 76 68 99 173 57 266 -26 55 -25 70 2 80 24 9 101 -7 93 -19z
m-206 -6 c37 -31 55 -90 48 -160 -6 -60 -24 -98 -62 -137 -37 -37 -105 -38
-140 -3 -51 51 -53 162 -6 255 39 75 103 93 160 45z m476 -70 c94 -31 112 -45
99 -73 -11 -25 -173 -191 -186 -191 -13 0 -16 15 -31 140 -15 119 -10 150 21
150 9 0 53 -12 97 -26z m-2032 -24 c24 0 28 -7 51 -82 14 -46 35 -120 47 -165
l22 -81 -34 -34 c-36 -36 -138 -84 -150 -71 -4 5 -18 91 -31 192 -24 180 -24
185 -6 220 21 41 48 56 64 35 6 -8 23 -14 37 -14z m-193 -67 c29 7 37 -10 45
-93 3 -41 8 -82 11 -91 2 -8 -2 -23 -8 -32 -12 -16 -21 -10 -97 60 -83 76 -83
77 -62 94 11 9 21 26 21 37 0 23 39 44 57 30 7 -6 22 -8 33 -5z m2583 -81 c-3
-12 2 -22 11 -25 28 -11 17 -39 -67 -177 l-83 -135 -47 -1 c-33 -1 -47 2 -47
12 0 7 -8 19 -18 26 -10 7 -21 18 -25 24 -8 14 99 315 116 326 6 5 22 6 34 3
12 -3 25 -1 28 5 4 6 25 0 55 -15 37 -19 47 -29 43 -43z m-548 6 c3 -18 6 -71
8 -118 2 -93 -8 -108 -50 -73 -12 10 -30 23 -40 29 -19 12 -17 22 38 172 13
33 37 27 44 -10z m-2206 -68 c30 -23 33 -31 38 -93 5 -58 3 -67 -11 -67 -22 0
-165 140 -148 147 6 2 12 12 12 22 0 28 69 22 109 -9z m2461 9 c0 -21 -53
-164 -66 -178 -25 -27 -105 -19 -126 13 -10 14 151 176 174 176 10 0 18 -5 18
-11z m468 -79 c47 -34 66 -64 59 -91 -9 -34 12 -31 33 5 35 58 61 56 132 -12
30 -28 35 -39 27 -54 -6 -11 -21 -18 -39 -18 -35 0 -35 0 -15 -46 19 -46 10
-62 -20 -34 l-22 21 -6 -20 c-3 -12 -13 -24 -24 -27 -10 -3 -25 -8 -33 -11
-12 -3 -11 -7 6 -16 12 -7 19 -18 16 -26 -3 -10 4 -12 35 -7 33 6 42 3 62 -17
25 -27 19 -36 -25 -37 -34 -1 -129 16 -145 26 -8 4 -9 -3 -4 -25 5 -24 3 -31
-9 -31 -9 0 -16 -8 -16 -20 0 -11 -3 -20 -6 -20 -13 0 -74 53 -74 65 0 7 16
27 35 44 19 17 35 32 35 35 0 13 -35 14 -53 1 -12 -8 -35 -15 -51 -15 -27 0
-129 51 -141 70 -6 10 59 120 78 131 11 7 68 -24 88 -47 7 -8 12 -28 12 -45 0
-44 18 -35 61 32 29 44 36 63 28 71 -9 9 -16 7 -30 -5 -10 -9 -24 -17 -31 -17
-21 0 -101 51 -101 64 0 25 60 106 78 106 11 0 37 -13 60 -30z m-3188 10 c0
-6 10 -8 23 -5 18 5 48 -18 165 -126 78 -72 142 -137 142 -143 0 -15 -272
-196 -294 -196 -9 0 -16 4 -16 9 0 5 -9 11 -21 14 -17 5 -19 9 -9 26 10 19 8
21 -17 23 -15 1 -43 1 -60 -1 -31 -2 -32 -1 -27 29 5 21 2 36 -10 49 -15 16
-15 20 -2 30 8 7 20 10 26 6 5 -3 22 3 35 14 14 10 21 22 16 26 -6 3 -7 13 -4
22 5 12 2 15 -10 10 -9 -3 -19 -1 -23 4 -4 7 -10 7 -17 0 -6 -6 -17 -11 -24
-11 -18 0 -17 59 1 66 8 3 12 12 9 20 -3 7 2 17 11 20 23 9 20 21 -9 28 -14 4
-25 10 -25 14 0 10 112 82 128 82 6 0 12 -5 12 -10z m448 -114 c39 -38 62 -68
58 -75 -9 -15 -101 -61 -121 -61 -8 0 -15 8 -15 18 -1 9 -5 51 -10 92 -13 113
-4 116 88 26z m1512 15 c433 -58 793 -195 1143 -435 85 -58 102 -76 72 -76
-28 0 -15 -18 23 -33 69 -28 83 -76 17 -59 -19 6 -38 4 -55 -5 -14 -7 -34 -13
-45 -13 -18 -1 -19 -1 -2 -11 9 -5 17 -21 17 -34 0 -20 5 -25 24 -25 13 0 30
-7 37 -16 11 -14 10 -19 -8 -34 -21 -17 -21 -18 -4 -34 10 -9 28 -16 40 -16
25 0 61 -17 61 -29 0 -17 -48 -27 -120 -26 l-75 2 -1 -44 c-1 -35 2 -43 17
-43 10 0 21 -4 24 -10 3 -5 23 -10 43 -10 83 0 80 -40 -4 -46 -26 -2 -52 -8
-58 -14 -5 -5 -18 -10 -28 -10 -11 0 -18 -7 -18 -18 0 -24 19 -42 36 -35 21 8
84 -6 84 -19 0 -22 -33 -48 -62 -48 -18 0 -31 -6 -35 -17 -4 -10 -14 -24 -22
-30 -14 -12 -14 -15 3 -28 12 -9 24 -11 35 -6 18 10 71 3 71 -9 0 -4 -18 -12
-40 -19 l-41 -12 22 -30 c11 -16 18 -36 15 -44 -4 -11 2 -15 19 -15 31 0 38
-12 20 -36 -20 -26 -19 -44 3 -44 9 0 25 -7 36 -15 13 -10 25 -11 45 -4 14 6
66 13 115 16 112 8 116 3 116 -114 0 -71 -3 -84 -19 -93 -11 -5 -83 -10 -160
-10 l-141 0 0 48 c0 52 -2 61 -57 212 l-38 104 -50 18 c-66 23 -78 41 -71 103
7 65 -7 135 -30 152 -40 29 -125 44 -294 54 -139 8 -185 14 -225 31 -41 17
-63 20 -126 15 -80 -5 -121 -20 -154 -57 -51 -57 -265 -187 -286 -174 -5 3 -9
12 -9 20 0 30 -25 7 -30 -27 -7 -45 -34 -48 -79 -10 l-35 28 50 50 c44 44 141
101 219 128 13 5 16 9 7 12 -19 7 -108 -24 -153 -54 -22 -14 -42 -23 -45 -20
-3 3 0 32 7 64 10 43 21 66 46 89 18 17 33 33 33 37 0 9 -31 -3 -63 -26 l-28
-19 -40 42 c-22 23 -42 55 -46 71 -3 16 -9 29 -14 29 -17 0 -9 -22 35 -103 42
-78 44 -84 36 -134 -5 -28 -14 -62 -21 -75 -13 -27 -59 -78 -70 -78 -17 0 -69
95 -69 127 0 29 5 35 44 54 24 11 52 29 62 40 22 25 14 24 -31 -2 -40 -24 -57
-19 -32 9 18 20 22 59 9 80 -6 8 -9 3 -9 -16 0 -46 -48 -99 -97 -105 -49 -7
-53 -4 -38 28 7 14 12 45 12 68 0 25 8 54 20 72 11 17 20 44 20 60 l0 30 -18
-32 c-9 -17 -27 -50 -40 -72 -12 -23 -29 -41 -37 -41 -22 0 -42 47 -50 116 -9
83 -25 105 -25 34 1 -31 10 -79 22 -110 24 -63 32 -183 15 -214 -6 -12 -10
-27 -8 -35 2 -10 -9 -12 -50 -6 -33 5 -49 4 -45 -3 3 -5 26 -13 51 -16 48 -8
49 -8 59 -48 4 -18 1 -32 -10 -42 -14 -14 -21 -13 -77 15 -34 17 -93 55 -132
84 -96 72 -213 119 -274 111 -25 -4 -68 -9 -96 -11 -27 -3 -102 -10 -165 -16
-173 -17 -242 -42 -280 -104 -25 -41 -25 -73 1 -151 26 -77 21 -115 -25 -175
-36 -48 -51 -110 -47 -206 l1 -53 -219 0 c-121 0 -222 4 -225 8 -2 4 -6 42 -7
85 -4 104 3 111 119 113 48 0 98 -3 111 -8 29 -10 54 8 48 34 -7 26 53 51 89
38 20 -8 31 -5 54 12 37 27 37 34 3 43 l-28 7 23 12 c12 7 20 15 16 19 -4 3
-1 13 6 22 11 13 8 17 -19 26 -30 10 -31 13 -16 29 14 16 14 18 -7 32 -20 13
-21 18 -9 32 11 13 11 16 0 20 -8 2 -29 9 -48 15 -19 6 -48 11 -65 11 -17 0
-37 4 -45 9 -24 15 6 41 46 41 27 0 34 3 29 15 -8 22 25 35 67 25 31 -7 37 -5
37 9 0 9 10 21 22 26 37 17 34 35 -6 35 -22 0 -39 6 -42 14 -5 14 -63 14 -129
1 -23 -5 -37 -1 -55 14 -22 17 -24 22 -12 41 10 17 10 25 1 36 -9 11 -8 14 7
15 46 3 49 5 47 27 -2 17 2 22 20 22 20 0 40 19 47 45 1 6 -12 9 -29 7 -17 -2
-31 1 -31 7 0 6 -18 11 -39 11 -29 0 -47 7 -70 29 -36 33 -32 41 21 41 38 0
88 23 88 41 0 5 -9 9 -21 9 -11 0 -17 5 -14 10 3 6 -3 10 -15 10 -32 0 -19 23
19 32 17 5 59 30 93 55 216 165 515 312 798 394 92 27 288 65 400 78 52 6 109
13 125 14 56 7 410 -2 485 -12z m-387 -1190 c8 -8 0 -21 -27 -46 -21 -19 -45
-35 -53 -35 -8 0 -21 17 -29 37 -15 34 -15 38 3 51 20 15 88 11 106 -7z m161
-77 c3 -8 1 -35 -5 -59 -19 -74 -77 -77 -151 -7 -34 31 -35 48 -5 55 12 2 30
8 40 12 12 5 17 2 17 -10 0 -14 6 -16 28 -10 15 3 34 13 42 21 18 18 26 18 34
-2z m1127 -76 c94 -84 139 -159 139 -232 0 -83 39 -76 -436 -76 -488 0 -453
-9 -384 101 23 35 57 98 76 139 19 41 38 82 43 90 7 12 29 15 107 14 55 -1
129 -4 166 -7 74 -6 151 7 169 29 20 24 35 16 120 -58z m-671 14 c0 -4 -9 -36
-20 -70 -11 -35 -20 -74 -20 -87 0 -12 -16 -54 -36 -94 l-35 -71 -412 -1
c-227 0 -420 -2 -430 -4 -26 -5 -56 67 -66 155 -6 56 -12 75 -34 98 -15 15
-27 31 -27 35 0 17 38 5 58 -18 13 -14 33 -25 47 -25 14 0 45 -10 68 -21 23
-12 44 -20 47 -18 2 2 7 -7 10 -21 3 -14 17 -30 30 -37 32 -16 41 -6 63 68 18
59 56 106 65 80 9 -27 41 -51 59 -43 16 6 15 7 -5 10 -22 3 -59 57 -44 65 4 3
36 -13 72 -35 36 -21 77 -42 93 -45 33 -7 34 -15 5 -37 l-23 -17 23 5 c17 3
22 1 19 -9 -10 -25 33 -3 55 29 12 17 28 35 35 39 7 4 13 24 13 44 0 35 1 35
19 19 10 -9 33 -44 51 -77 17 -33 39 -63 47 -66 19 -7 43 22 43 52 0 17 10 25
43 34 71 22 85 29 91 48 8 24 55 43 79 31 9 -5 17 -12 17 -16z m-1440 -3 c50
7 113 10 140 6 54 -7 70 -23 70 -69 0 -14 9 -49 20 -78 11 -29 20 -63 20 -74
0 -12 7 -35 15 -50 29 -56 36 -54 -254 -54 l-269 0 -26 65 c-14 36 -26 75 -26
86 0 30 29 75 58 90 13 8 35 27 49 44 30 35 59 45 90 32 15 -7 52 -6 113 2z
m2291 -60 c11 -11 34 -50 50 -87 24 -52 29 -77 27 -121 l-3 -56 -35 0 -35 0
-6 56 c-3 31 -9 61 -13 68 -4 6 -11 37 -16 69 -4 31 -11 65 -15 75 -10 24 20
22 46 -4z m-1914 -92 c8 -16 18 -50 23 -75 5 -26 11 -57 15 -69 7 -22 5 -23
-48 -23 l-55 0 -11 44 c-6 25 -11 67 -11 93 0 26 -4 62 -8 78 -16 54 -3 60 40
18 22 -21 46 -51 55 -66z m-692 -122 l7 -45 -55 0 c-61 0 -67 6 -67 66 0 39
12 68 43 101 l20 22 23 -49 c12 -27 26 -69 29 -95z"/>
</g>
</svg>
