<?xml version="1.0" standalone="no"?>
<!DOCTYPE svg PUBLIC "-//W3C//DTD SVG 20010904//EN"
 "http://www.w3.org/TR/2001/REC-SVG-20010904/DTD/svg10.dtd">
<svg version="1.0" xmlns="http://www.w3.org/2000/svg"
 width="559.000000pt" height="343.000000pt" viewBox="0 0 559.000000 343.000000"
 preserveAspectRatio="xMidYMid meet">
<metadata>
Created by potrace 1.16, written by Peter Selinger 2001-2019
</metadata>
<g transform="translate(0.000000,343.000000) scale(0.100000,-0.100000)"
fill="#000000" stroke="none">
<path d="M2560 3275 l0 -65 -345 0 -345 0 0 -70 0 -70 -340 0 -340 0 0 -65 0
-65 -280 0 -280 0 0 65 0 65 -114 0 c-146 0 -146 0 -146 -152 l0 -108 70 0 70
0 0 -210 0 -210 -70 0 -70 0 0 -140 0 -140 -70 0 -70 0 0 -135 c0 -122 -2
-135 -17 -136 -10 0 -40 -1 -68 -2 l-50 -2 -3 -127 -3 -128 71 0 70 0 0 -140
0 -140 70 0 70 0 0 -135 0 -134 68 -3 67 -3 3 -207 2 -208 -70 0 -70 0 0 -113
c0 -154 -3 -151 144 -155 l116 -4 0 71 0 71 280 0 280 0 0 -70 0 -70 340 0
340 0 0 -70 0 -70 345 0 345 0 0 -65 0 -65 265 0 265 0 0 65 0 65 345 0 345 0
0 70 0 70 345 0 345 0 0 70 0 70 280 0 280 0 0 -70 0 -70 105 0 c99 0 107 2
130 25 24 23 25 31 25 135 l0 110 -70 0 -70 0 0 210 0 210 70 0 70 0 0 135 0
135 70 0 70 0 0 140 0 140 65 0 65 0 0 131 0 131 -65 -4 -65 -3 0 138 0 137
-70 0 -70 0 0 140 0 140 -70 0 -70 0 0 210 0 210 71 0 71 0 -4 116 c-4 146 -2
144 -149 144 l-108 0 -3 -66 -3 -66 -277 -2 -278 -1 0 67 0 68 -342 2 -343 3
-3 68 -3 67 -344 0 -345 0 0 65 0 65 -265 0 -265 0 0 -65z m395 -705 c149 -14
307 -45 445 -87 122 -37 292 -109 350 -148 19 -13 66 -42 105 -65 38 -24 74
-48 80 -55 5 -7 51 -47 100 -88 143 -119 233 -216 353 -381 l22 -31 -227 -3
c-132 -1 -231 2 -236 7 -12 12 -26 120 -32 251 -3 58 -6 110 -6 115 -1 6 2 28
5 50 6 35 5 38 -6 23 -9 -11 -23 -14 -41 -11 -15 3 -34 0 -41 -6 -12 -10 -19
-8 -35 8 -20 20 -21 20 -21 2 0 -10 7 -25 16 -32 13 -10 15 -24 9 -64 -16
-123 -16 -123 -41 -129 -13 -4 -24 -11 -24 -17 0 -6 -4 -7 -10 -4 -5 3 -10 3
-10 -2 0 -4 -18 -9 -40 -10 -34 -1 -40 2 -40 19 0 17 -6 19 -52 17 -48 -2 -53
-1 -50 17 2 10 4 43 4 72 0 28 4 52 9 52 4 0 10 13 14 30 4 18 17 34 33 42 15
7 28 21 30 31 3 16 1 17 -16 8 -29 -15 -30 -14 -34 15 -5 40 -30 52 -64 29
-16 -10 -40 -19 -54 -19 -29 -1 -40 -37 -18 -63 12 -15 9 -15 -27 -9 -50 9
-85 47 -85 93 0 18 -4 33 -10 33 -5 0 -10 6 -10 14 0 18 -36 10 -44 -10 -15
-38 65 -184 101 -184 19 0 16 -30 -9 -70 -18 -31 -36 -89 -55 -181 -3 -15 2
-40 11 -57 34 -66 73 -61 -545 -61 l-561 -1 8 28 c4 15 9 52 9 82 1 30 7 67
13 83 12 28 5 36 -16 15 -9 -9 -12 -6 -12 16 0 19 -6 29 -20 33 -24 6 -24 7
-4 38 9 14 24 25 33 25 9 0 23 4 31 10 11 7 9 11 -12 19 -20 7 -29 20 -34 46
-6 36 -7 37 -43 30 -38 -7 -61 -21 -61 -38 0 -12 -47 -57 -60 -57 -16 0 -59
-53 -65 -81 -4 -15 -13 -33 -21 -40 -19 -15 -18 -29 4 -45 22 -16 8 -31 -35
-37 -17 -3 -42 -14 -54 -26 -12 -11 -43 -28 -68 -37 -25 -9 -62 -29 -81 -43
l-35 -26 -210 5 c-115 3 -205 8 -198 13 6 4 41 49 76 100 163 231 445 457 737
590 154 70 419 137 620 156 124 12 134 12 255 1z m580 -730 c15 -30 60 -60 90
-60 31 0 13 -26 -35 -49 -44 -22 -52 -23 -75 -11 -14 7 -25 19 -25 25 0 6 -11
22 -25 35 -29 28 -30 33 -9 65 23 35 59 33 79 -5z m-1920 -173 l30 -3 -28 -14
c-25 -12 -28 -18 -22 -47 l6 -33 -206 0 c-113 0 -205 2 -205 5 0 3 11 27 24
53 l24 47 173 -3 c96 -1 188 -4 204 -5z m1203 -47 l3 -50 -303 4 -303 5 -9 34
c-17 65 -29 62 305 60 l304 -2 3 -51z m510 35 c2 -8 -1 -15 -6 -15 -6 0 -25
-16 -43 -35 l-33 -35 -193 0 -193 0 0 53 0 52 232 -2 c201 -2 233 -4 236 -18z
m163 -37 c17 -41 3 -49 -77 -46 -67 3 -68 3 -41 17 15 8 30 26 33 40 12 53 12
53 43 35 17 -10 35 -31 42 -46z m934 50 c2 -2 18 -24 34 -49 l30 -44 -152 -3
c-83 -1 -157 0 -164 2 -7 3 -13 19 -13 36 0 21 -5 30 -16 30 -8 0 -25 6 -37
13 -19 10 -3 13 108 18 133 6 202 5 210 -3z m-2815 -135 c0 -5 -8 -29 -17 -55
l-17 -48 -228 0 c-141 0 -228 4 -228 10 0 5 10 30 22 55 l22 45 223 0 c123 0
223 -3 223 -7z m640 -33 c0 -68 -2 -70 -101 -70 -49 0 -89 3 -89 8 1 4 7 18
15 32 8 14 14 35 15 46 0 20 5 22 80 22 l80 1 0 -39z m568 -17 l3 -53 -124 0
c-137 0 -137 0 -137 64 0 18 3 36 7 40 4 3 61 5 127 4 l121 -3 3 -52z m394 32
c-2 -11 -16 -34 -30 -51 l-27 -33 -147 0 -148 -1 0 55 0 55 178 -2 c170 -3
177 -4 174 -23z m259 5 c-2 -8 -6 -32 -9 -52 l-4 -38 -119 0 -119 0 18 28 c9
15 28 39 42 55 24 26 28 27 110 25 70 -3 84 -6 81 -18z m1053 -31 c14 -28 26
-53 26 -55 0 -2 -90 -4 -199 -4 -174 0 -199 2 -197 15 1 9 10 24 18 35 10 10
14 28 11 39 -5 21 -2 21 154 21 l160 0 27 -51z m-2952 -126 c-9 -71 -17 -73
-269 -73 -122 0 -223 2 -223 5 0 2 5 27 11 55 l11 50 237 0 237 0 -4 -37z
m678 -18 l0 -55 -115 0 c-93 0 -115 3 -115 14 0 8 5 18 11 21 6 4 10 19 9 33
-1 15 -2 30 -1 35 1 4 48 7 106 7 l105 0 0 -55z m568 -2 l3 -53 -130 0 -131 0
0 48 c0 27 3 52 7 56 4 3 61 5 127 4 l121 -3 3 -52z m386 35 l17 -23 -6 23
c-6 22 -6 22 124 22 71 0 132 -4 136 -9 3 -5 9 -30 14 -55 l8 -46 -318 0 -319
0 0 55 0 55 164 0 c158 0 164 -1 180 -22z m1364 10 c7 -7 12 -31 12 -55 l0
-43 -239 0 c-132 0 -242 4 -245 9 -3 4 1 17 9 27 8 10 15 31 15 47 l0 27 218
0 c156 0 221 -3 230 -12z m-3118 -143 c-7 -8 -19 -15 -27 -15 -27 0 -9 -35 20
-38 15 -2 27 -7 27 -12 0 -26 34 -13 82 30 50 47 56 49 108 49 54 0 54 0 32
-16 -13 -9 -37 -36 -53 -60 l-30 -43 -234 0 -235 0 -19 38 c-10 20 -22 47 -25
60 l-7 22 187 0 c165 0 185 -2 174 -15z m798 -45 l2 -60 -226 0 -225 0 7 23
c3 12 15 39 25 60 l19 37 198 0 197 0 3 -60z m562 5 l0 -55 -122 0 -123 0 0
55 0 55 123 0 122 0 0 -55z m770 21 l21 -34 -26 -26 -26 -26 -344 0 -345 0 0
60 0 60 349 0 349 0 22 -34z m995 12 c-4 -13 -14 -39 -23 -58 l-17 -35 -227
-3 c-212 -2 -228 -1 -228 15 0 10 -6 30 -14 44 -9 17 -10 32 -4 43 8 14 38 16
264 16 l255 0 -6 -22z m-3032 -150 l-19 -33 -130 1 c-112 0 -135 3 -171 22
-23 12 -44 26 -48 32 -4 7 60 10 190 10 l197 0 -19 -32z m208 0 c-7 -32 -8
-33 -64 -36 -51 -3 -57 -1 -57 17 0 44 10 51 70 51 l57 0 -6 -32z m480 0 l-7
-33 -199 -3 c-197 -2 -200 -2 -217 20 -36 47 -33 48 206 48 l223 0 -6 -32z
m589 -3 l0 -35 -113 0 c-116 0 -137 6 -137 41 0 10 -6 20 -12 22 -7 3 49 6
125 6 l137 1 0 -35z m744 20 c3 -8 16 -15 29 -15 14 0 30 7 37 15 25 30 50 12
50 -36 0 -18 -12 -19 -410 -19 l-410 0 0 35 0 35 349 0 c301 0 350 -2 355 -15z
m401 -12 c-9 -36 -21 -43 -71 -43 -46 0 -64 14 -61 48 1 20 6 22 70 22 l69 0
-7 -27z m535 23 c0 -2 -21 -17 -47 -33 l-48 -28 -205 0 -205 0 -3 33 -3 32
255 0 c141 0 256 -2 256 -4z"/>
</g>
</svg>
