<?xml version="1.0" standalone="no"?>
<!DOCTYPE svg PUBLIC "-//W3C//DTD SVG 20010904//EN"
 "http://www.w3.org/TR/2001/REC-SVG-20010904/DTD/svg10.dtd">
<svg version="1.0" xmlns="http://www.w3.org/2000/svg"
 width="580.000000pt" height="400.000000pt" viewBox="0 0 580.000000 400.000000"
 preserveAspectRatio="xMidYMid meet">
<metadata>
Created by potrace 1.16, written by Peter Selinger 2001-2019
</metadata>
<g transform="translate(0.000000,400.000000) scale(0.100000,-0.100000)"
fill="#000000" stroke="none">
<path d="M3050 3321 c0 -5 9 -11 21 -14 19 -5 20 -10 15 -64 -4 -32 -9 -95
-12 -141 -5 -77 -7 -84 -30 -93 -58 -21 -282 -2 -322 28 -44 33 -62 138 -35
203 17 41 39 53 99 53 47 0 60 -4 80 -26 13 -14 24 -31 24 -37 0 -5 5 -10 10
-10 7 0 7 6 0 19 -5 11 -10 31 -10 45 0 23 -4 26 -37 28 -111 6 -172 -19 -199
-80 -9 -21 -19 -44 -24 -53 -4 -8 -4 -23 2 -32 5 -10 6 -22 3 -27 -7 -12 32
-81 52 -93 7 -4 13 -17 13 -27 0 -18 -7 -20 -57 -20 -32 -1 -76 -4 -98 -8 -22
-5 -59 -4 -81 0 -47 10 -54 22 -54 98 0 26 -4 50 -9 55 -5 6 -11 39 -13 75
l-3 65 32 3 c38 4 73 -13 73 -33 0 -8 5 -15 10 -15 6 0 10 4 10 9 0 6 -4 13
-10 16 -5 3 -10 15 -10 27 0 23 -7 23 -177 -3 l-93 -13 0 -33 c0 -17 5 -35 10
-38 6 -4 10 6 10 23 0 27 4 30 41 36 50 8 59 3 59 -35 0 -17 4 -38 9 -47 5 -9
12 -58 16 -108 l7 -92 -33 -16 c-20 -10 -71 -19 -126 -23 -85 -5 -93 -4 -98
13 -4 10 -10 26 -15 35 -4 9 -11 42 -15 75 -4 32 -11 64 -15 69 -4 6 -10 27
-14 47 -6 31 -3 39 16 52 12 9 17 16 11 16 -7 0 -14 -4 -17 -9 -3 -4 -29 -11
-58 -15 -49 -7 -51 -8 -27 -19 16 -9 27 -26 34 -54 6 -23 13 -45 18 -49 4 -4
7 -24 7 -44 0 -20 4 -40 10 -46 5 -5 10 -29 12 -54 3 -44 2 -45 -42 -67 -61
-31 -134 -28 -138 5 -2 12 -8 22 -13 22 -5 0 -9 9 -9 19 0 11 -4 22 -9 25 -5
3 -12 22 -15 42 -4 19 -16 51 -27 70 -23 42 -25 84 -4 84 8 0 15 5 15 11 0 7
-8 6 -23 -4 -12 -8 -37 -18 -56 -22 -33 -7 -33 -7 -10 -19 13 -6 28 -25 33
-41 5 -17 13 -40 19 -52 12 -27 14 -25 -41 -46 -70 -28 -94 -23 -116 24 -10
22 -16 51 -13 65 4 23 -6 33 -17 15 -3 -4 -25 -12 -48 -16 -41 -7 -41 -8 -14
-14 24 -5 32 -16 53 -71 13 -36 31 -80 39 -98 19 -45 19 -122 -1 -122 -8 0
-15 -7 -15 -15 0 -8 -6 -15 -13 -15 -17 0 -133 -56 -169 -81 -14 -11 -40 -19
-57 -19 -17 0 -31 -5 -31 -10 0 -6 -25 -22 -55 -36 -30 -14 -59 -32 -66 -40
-6 -8 -16 -14 -21 -14 -17 0 -188 -151 -188 -166 0 -4 -12 -21 -27 -39 -37
-44 -70 -98 -78 -127 -7 -25 -16 -49 -34 -88 -38 -87 -55 -300 -30 -395 6 -22
14 -56 18 -75 4 -19 18 -56 29 -82 12 -26 22 -50 22 -53 0 -8 87 -144 106
-165 37 -43 96 -100 102 -100 12 0 32 -62 32 -96 0 -59 -20 -82 -80 -95 -49
-10 -53 -13 -32 -22 21 -10 22 -15 22 -144 0 -82 -4 -133 -10 -133 -5 0 -10
-4 -10 -10 0 -13 117 -13 125 1 4 6 -2 13 -14 16 -18 5 -21 13 -21 64 l0 59
39 0 c22 0 44 -6 51 -15 24 -29 40 -18 40 30 0 44 -12 60 -24 30 -4 -11 -21
-15 -59 -15 l-54 0 -7 50 c-4 28 -4 55 -1 60 9 15 86 12 117 -4 29 -16 38 -12
38 16 0 16 9 18 74 18 41 0 78 -5 81 -10 10 -16 -5 -50 -22 -50 -27 0 -42 -33
-43 -88 0 -58 9 -83 48 -125 24 -25 32 -27 99 -27 42 0 73 4 73 10 0 6 7 10
14 10 29 0 66 64 66 113 0 45 -26 117 -42 117 -4 0 -8 9 -8 20 0 18 7 20 54
20 30 0 66 -4 80 -10 24 -9 26 -14 26 -74 0 -36 5 -68 10 -71 6 -3 10 -35 10
-71 0 -51 -3 -64 -16 -64 -8 0 -12 -4 -9 -10 8 -13 82 -13 91 1 3 6 1 16 -5
22 -16 16 -14 97 2 97 18 0 30 -11 63 -55 45 -60 62 -75 88 -75 41 0 38 14
-14 66 -56 55 -61 80 -25 114 28 27 33 71 10 94 -33 33 -18 36 175 36 183 0
190 -1 190 -20 0 -11 -4 -20 -10 -20 -5 0 -10 -16 -10 -35 0 -32 3 -35 28 -35
29 0 72 -35 72 -58 0 -7 5 -12 10 -12 13 0 13 -46 -1 -71 -8 -16 -20 -20 -57
-19 -65 2 -72 1 -72 -10 0 -11 81 -14 115 -4 12 3 25 13 30 23 33 60 37 72 31
95 -8 31 -48 71 -99 97 -46 24 -40 39 17 39 27 0 48 6 56 15 9 11 33 15 91 15
76 0 90 -5 70 -26 -5 -5 -13 -26 -16 -47 -7 -35 -6 -37 19 -37 32 0 106 -68
106 -97 0 -11 -10 -29 -23 -41 -19 -18 -28 -20 -59 -13 -39 9 -48 6 -48 -16 0
-9 16 -13 58 -13 51 0 62 4 85 28 21 22 27 38 27 75 0 26 -4 47 -10 47 -5 0
-10 6 -10 13 0 19 -43 57 -63 57 -9 0 -17 4 -17 8 0 16 25 32 51 32 15 0 32 7
39 15 10 12 37 15 127 15 127 0 159 -11 181 -58 6 -15 23 -39 36 -53 20 -22
24 -37 25 -93 0 -53 -3 -66 -15 -66 -11 0 -14 -6 -10 -16 3 -9 6 -18 6 -20 0
-10 80 -3 104 10 23 12 24 15 11 26 -24 20 -20 109 8 162 12 23 26 46 30 49 5
4 14 17 21 30 6 14 22 25 36 27 14 2 29 8 35 13 11 11 55 12 55 1 0 -4 10 -12
23 -17 21 -10 22 -16 25 -137 2 -109 0 -128 -13 -128 -8 0 -15 -4 -15 -10 0
-6 52 -10 135 -10 l134 0 7 35 c9 50 -2 54 -34 16 -27 -33 -28 -33 -82 -25
l-55 9 -3 53 c-3 48 -1 52 20 54 73 5 81 3 86 -14 9 -37 22 -16 22 37 0 30 -4
55 -10 55 -5 0 -10 -6 -10 -14 0 -14 -38 -25 -80 -22 -21 1 -26 7 -28 35 -3
27 2 39 20 53 13 9 30 18 39 18 27 0 68 -24 73 -45 5 -20 5 -20 20 0 9 11 16
30 16 43 0 21 3 22 109 22 101 0 110 -2 116 -20 4 -12 -2 -38 -14 -63 -12 -24
-21 -51 -21 -60 0 -9 -4 -17 -10 -17 -5 0 -10 -5 -10 -11 0 -6 -6 -25 -14 -42
-8 -18 -17 -40 -20 -50 -3 -11 -15 -21 -26 -24 -38 -10 -20 -23 32 -23 49 0
50 1 34 18 -14 17 -15 22 -1 48 15 31 18 31 108 26 31 -2 57 -46 37 -66 -5 -5
-10 -14 -10 -18 0 -12 98 -10 105 2 3 6 2 10 -4 10 -10 0 -51 74 -51 91 0 5
-16 42 -36 83 -53 113 -50 117 94 114 l117 -3 3 -129 c2 -104 0 -132 -13 -146
-21 -24 -10 -30 57 -30 55 0 76 11 43 24 -17 6 -22 91 -6 100 5 4 31 -20 58
-53 41 -50 54 -59 88 -63 22 -3 47 -1 55 3 13 7 12 8 -3 9 -19 0 -87 68 -87
87 0 7 -4 13 -10 13 -19 0 -10 38 11 43 11 3 23 15 26 26 3 12 9 21 14 21 5 0
9 9 9 20 0 11 -3 20 -7 20 -5 0 -13 11 -20 25 -15 34 -5 39 85 42 59 3 74 0
79 -13 3 -8 1 -20 -4 -25 -24 -24 24 -117 61 -119 19 0 66 -61 66 -84 0 -46
-64 -49 -105 -6 -35 36 -45 38 -45 7 0 -40 39 -67 96 -67 55 0 104 18 104 38
0 6 5 12 10 12 6 0 10 14 10 30 0 17 -3 30 -8 30 -4 0 -12 10 -17 22 -6 13
-20 27 -32 33 -13 5 -23 13 -23 17 0 5 -8 8 -18 8 -41 0 -71 71 -36 84 33 13
62 5 87 -24 15 -16 32 -30 37 -30 13 0 13 27 0 35 -5 3 -10 14 -10 24 0 17
-37 41 -65 41 -27 0 -65 64 -65 108 0 38 6 47 65 106 36 35 65 67 65 71 0 3
11 18 24 32 14 14 35 47 47 72 13 25 28 53 34 61 6 8 17 33 24 55 7 22 19 54
26 70 29 64 43 273 24 355 -14 65 -55 195 -71 230 -47 98 -207 285 -279 325
-89 49 -267 135 -280 135 -9 0 -22 7 -29 15 -7 8 -19 15 -26 15 -8 0 -37 11
-66 25 -28 13 -66 27 -85 31 -39 7 -46 39 -10 49 28 9 67 44 67 62 0 7 4 13 8
13 12 0 32 46 32 74 0 35 -25 88 -55 119 -26 25 -119 67 -150 67 -8 0 -17 5
-20 10 -3 6 -16 10 -28 10 -17 0 -19 -2 -8 -9 13 -8 13 -18 1 -68 -7 -32 -17
-62 -21 -68 -3 -5 -10 -26 -14 -45 -4 -19 -12 -43 -18 -55 -5 -11 -13 -27 -17
-35 -9 -20 -73 -25 -127 -9 -40 11 -55 30 -34 43 5 3 11 16 14 28 6 22 5 22
-8 4 -8 -11 -15 -24 -15 -29 0 -5 -17 -6 -37 -3 -21 3 -57 9 -81 12 -34 5 -43
11 -48 31 -4 13 -1 30 5 36 6 6 11 26 11 44 0 31 2 33 33 32 53 -2 81 -13 94
-39 13 -27 18 -20 27 44 4 33 3 36 -8 21 -11 -15 -21 -17 -71 -10 l-58 7 6 51
c4 28 10 54 15 59 4 4 30 5 58 1 36 -5 56 -14 77 -36 l27 -29 0 36 c0 35 -1
35 -50 42 -28 4 -53 11 -56 15 -3 5 -20 9 -39 9 -19 0 -46 5 -61 10 -15 6 -30
8 -33 4 -3 -4 0 -9 7 -11 14 -6 16 -86 2 -113 -5 -10 -13 -44 -16 -76 -4 -33
-16 -71 -26 -86 -16 -24 -27 -28 -65 -28 -26 0 -62 5 -80 12 l-33 12 0 88 c0
111 19 216 40 221 8 2 -6 7 -31 11 -26 4 -55 6 -65 3 -17 -4 -17 -6 4 -12 20
-7 22 -14 22 -71 l0 -64 -86 0 -86 0 6 35 c3 19 9 51 12 70 4 20 12 35 20 35
8 0 14 4 14 9 0 4 -21 11 -46 15 -62 8 -74 8 -74 -3z m206 -189 c7 -4 9 -30 6
-69 l-4 -62 -43 -7 c-28 -4 -53 -1 -72 8 -26 13 -28 16 -24 68 1 30 5 58 8 63
5 9 115 9 129 -1z m829 -20 c21 -15 64 -88 66 -112 5 -56 -2 -81 -33 -116 -31
-35 -33 -36 -95 -32 -35 2 -67 8 -73 14 -6 6 3 48 27 119 20 61 37 116 39 123
4 13 53 16 69 4z m-2285 -166 c0 -7 7 -27 15 -42 32 -61 5 -104 -65 -104 -41
0 -48 6 -66 55 -6 17 -14 37 -18 45 -5 12 8 20 51 36 71 26 83 28 83 10z
m1495 -135 c152 -19 270 -39 330 -56 33 -9 78 -20 100 -25 114 -25 141 -33
195 -60 9 -4 31 -11 50 -15 19 -4 41 -11 50 -15 8 -4 35 -16 60 -25 25 -10 64
-26 86 -36 23 -10 54 -21 68 -25 14 -3 26 -10 26 -15 0 -5 6 -9 13 -9 10 0
210 -98 277 -135 10 -6 31 -26 47 -44 15 -19 40 -48 54 -65 34 -40 91 -153
119 -235 20 -56 22 -78 18 -195 -3 -76 -10 -144 -18 -161 -7 -16 -18 -43 -25
-60 -40 -93 -63 -135 -99 -180 -39 -50 -135 -135 -151 -135 -5 0 -16 -6 -24
-14 -18 -15 -80 -48 -131 -69 -53 -22 -145 -37 -231 -37 -74 0 -79 1 -98 29
-12 16 -21 33 -21 39 0 5 -7 15 -15 22 -8 7 -15 21 -15 32 0 10 -9 37 -20 60
-20 43 -19 58 6 58 23 0 11 24 -13 28 -31 5 -34 25 -12 68 10 21 19 51 19 66
0 17 5 28 13 28 8 0 22 9 32 20 21 23 70 26 107 7 36 -18 88 -64 88 -77 0 -7
13 -10 33 -8 31 3 32 4 29 48 -2 25 -8 49 -13 55 -5 5 -9 31 -9 57 0 27 -4 56
-9 66 -5 9 -13 26 -16 37 -7 19 -8 19 -18 -3 -10 -23 -14 -24 -76 -17 -87 10
-216 7 -321 -7 -107 -14 -150 -14 -279 0 -99 11 -155 24 -193 43 -10 5 -23 9
-29 9 -10 0 -23 5 -111 44 -20 9 -40 16 -45 16 -4 0 -19 9 -33 20 -28 22 -40
25 -40 11 0 -5 10 -13 23 -17 12 -4 24 -9 27 -13 3 -3 34 -19 70 -34 36 -16
78 -35 93 -43 16 -8 37 -14 47 -14 9 0 23 -7 30 -15 10 -12 9 -16 -6 -21 -56
-18 -74 -29 -108 -63 -36 -37 -76 -104 -76 -128 0 -7 -4 -21 -8 -31 -5 -9 -20
-39 -33 -67 l-24 -50 -79 0 c-60 0 -81 4 -86 15 -4 8 -16 32 -26 53 -10 20
-22 37 -26 37 -5 0 -8 6 -8 13 0 6 -12 23 -25 36 -31 28 -31 34 -2 46 17 8 23
19 25 55 2 39 0 46 -20 55 -38 16 -32 38 19 70 44 27 82 62 83 75 0 3 -10 10
-22 15 -19 8 -24 19 -26 63 -3 51 -2 53 19 47 14 -5 19 -4 15 4 -4 6 -14 11
-22 11 -8 0 -14 5 -14 10 0 6 -11 15 -25 20 -14 5 -25 16 -25 24 0 10 -13 16
-42 18 l-43 3 4 55 c3 52 20 93 48 116 9 8 12 21 7 38 -5 21 -12 26 -35 26
-16 0 -29 -5 -29 -11 0 -7 -8 -18 -17 -25 -13 -10 -15 -16 -7 -21 16 -11 -1
-53 -21 -53 -22 0 -55 -59 -55 -101 0 -42 -8 -53 -27 -38 -9 8 -13 40 -13 110
l0 99 -27 -7 c-27 -8 -55 -8 -218 -4 -161 3 -352 -5 -387 -18 -29 -10 -46 -10
-73 -1 -49 16 -154 17 -192 1 -31 -13 -99 -11 -186 5 l-38 6 7 -113 c4 -63 10
-118 14 -124 5 -5 9 -89 10 -185 3 -216 7 -251 31 -257 23 -6 24 -22 4 -49
-23 -30 -20 -170 5 -221 23 -49 79 -106 120 -123 16 -7 30 -19 30 -27 0 -25
-221 -12 -277 16 -23 11 -48 21 -54 21 -23 0 -154 95 -214 155 -61 61 -126
171 -140 236 -4 19 -12 40 -19 48 -16 20 -15 336 2 352 6 7 12 20 12 28 0 30
80 176 118 216 67 70 102 96 189 141 29 14 57 32 64 40 6 8 16 14 21 14 5 0
59 24 121 54 138 65 162 76 257 111 41 15 98 36 125 46 28 10 68 23 90 28 22
6 67 17 100 26 133 35 275 61 403 75 46 4 87 11 90 15 10 10 604 -2 697 -14z
m-657 -733 c5 -7 12 -29 14 -48 2 -29 0 -35 -17 -35 -17 0 -20 8 -23 48 -3 47
6 59 26 35z m193 -98 c4 -30 12 -68 18 -84 15 -36 8 -56 -19 -56 -18 0 -20 6
-20 56 0 60 -13 94 -35 94 -18 0 -20 36 -2 44 6 2 21 4 32 3 16 -2 21 -12 26
-57z m-97 35 c22 -17 13 -35 -19 -35 -27 0 -39 14 -31 35 7 19 25 19 50 0z
m496 -394 c0 -17 5 -33 10 -36 14 -9 12 -109 -2 -123 -18 -18 -78 -15 -78 4 0
33 32 154 41 154 5 0 9 7 9 15 0 8 5 15 10 15 6 0 10 -13 10 -29z m-1440 -41
c0 -37 -4 -50 -15 -50 -8 0 -17 11 -21 25 -3 13 -12 29 -19 35 -21 18 -6 40
26 40 28 0 29 -2 29 -50z m616 40 c73 0 86 -6 61 -32 -17 -18 -47 -82 -47
-102 0 -14 -19 -16 -153 -16 l-153 0 -26 28 c-15 15 -30 41 -34 57 -4 17 -11
36 -17 42 -6 9 -5 14 4 18 15 5 256 12 277 8 8 -2 47 -3 88 -3z m-697 -36 c38
-63 26 -69 -48 -23 -57 34 -59 59 -6 59 27 0 37 -6 54 -36z m151 28 c0 -21
-33 -72 -46 -72 -15 0 -18 20 -8 58 4 15 14 22 30 22 13 0 24 -4 24 -8z m108
-12 c2 -15 -96 -75 -106 -65 -5 5 14 49 32 73 13 17 70 11 74 -8z m682 -30 c0
-56 -10 -62 -38 -22 -39 56 -37 72 10 72 27 0 28 -2 28 -50z m84 42 c3 -5 0
-25 -6 -45 -8 -25 -17 -37 -30 -37 -15 0 -18 8 -18 45 0 41 2 45 24 45 14 0
27 -4 30 -8z m69 -36 c20 -16 23 -46 3 -46 -7 0 -19 -6 -25 -14 -6 -8 -21 -16
-32 -19 -18 -5 -20 -2 -13 26 8 38 25 67 39 67 5 0 18 -7 28 -14z m-217 -31
c9 -20 14 -38 11 -41 -8 -8 -87 29 -87 41 0 17 22 35 42 35 10 0 24 -15 34
-35z m-572 -43 c-9 -13 -25 -17 -68 -17 -31 0 -57 4 -58 9 -2 5 20 22 47 37
50 28 50 28 70 8 15 -15 17 -23 9 -37z m-353 21 c59 -32 52 -45 -22 -41 -55 3
-69 17 -55 54 8 20 21 18 77 -13z m1903 -4 c22 -11 61 -19 88 -19 36 0 48 -4
48 -15 0 -21 -32 -26 -140 -23 l-95 3 -3 42 -3 43 33 -7 c18 -3 51 -14 72 -24z
m-1006 -35 c34 -22 26 -34 -23 -34 -47 0 -63 14 -51 46 7 17 34 12 74 -12z
m290 -7 c3 -26 1 -27 -42 -27 -38 0 -46 3 -46 19 0 12 11 22 33 28 43 14 51
11 55 -20z m519 14 c13 -21 8 -31 -18 -31 -24 0 -33 18 -19 35 16 20 23 19 37
-4z m-1647 -51 c0 -5 -4 -10 -9 -10 -4 0 -25 -11 -46 -26 -50 -34 -79 -29 -83
14 l-3 32 70 0 c41 0 71 -4 71 -10z m300 -24 c0 -39 -23 -54 -49 -33 -9 8 -33
21 -53 31 -21 9 -38 21 -38 26 0 6 32 10 70 10 l70 0 0 -34z m380 14 c10 -5
21 -23 25 -40 4 -16 11 -32 16 -35 5 -4 9 -14 9 -25 0 -10 20 -40 45 -68 31
-35 42 -53 34 -58 -7 -4 -149 -9 -317 -12 -288 -5 -304 -4 -300 13 1 10 12 23
22 29 40 22 86 70 106 107 11 22 34 52 52 69 33 29 33 29 161 30 71 0 137 -4
147 -10z m180 -17 c0 -12 -33 -43 -46 -43 -7 0 -14 -6 -17 -12 -6 -21 -37 11
-37 38 0 22 4 24 50 24 28 0 50 -3 50 -7z m270 -17 c0 -14 -4 -27 -9 -30 -10
-6 -100 36 -101 47 0 4 25 7 55 7 52 0 55 -1 55 -24z m511 14 c10 -6 19 -15
19 -20 0 -5 15 -24 34 -42 19 -19 38 -47 42 -63 4 -17 11 -36 17 -42 21 -28
-12 -43 -91 -43 -72 0 -78 2 -109 32 -33 32 -41 63 -24 96 5 9 15 31 21 49 15
40 52 53 91 33z m321 -47 c-3 -32 -11 -63 -17 -70 -9 -8 -11 -27 -8 -53 5 -32
2 -40 -10 -40 -9 0 -19 5 -22 10 -3 6 -18 10 -33 10 -20 0 -33 8 -45 29 -9 16
-33 48 -52 71 -22 27 -35 52 -35 71 l0 29 113 0 114 0 -5 -57z m189 15 c46
-57 92 -145 85 -163 -4 -12 -26 -15 -99 -15 -86 0 -96 2 -121 25 -31 29 -33
62 -6 112 11 21 20 45 20 54 0 23 9 29 50 29 30 0 41 -7 71 -42z m-2131 21 c0
-11 -36 -82 -54 -107 -7 -10 -13 -9 -28 5 -43 39 -42 51 9 83 51 31 73 37 73
19z m1354 5 c9 -3 16 -15 16 -25 0 -10 7 -19 15 -19 8 0 15 9 15 20 0 22 45
39 61 23 6 -6 7 -46 2 -104 l-8 -94 -182 -3 c-174 -2 -183 -2 -183 17 0 10 7
24 15 31 8 7 15 19 15 26 0 8 4 14 9 14 5 0 12 12 15 28 18 72 27 81 86 85 30
2 67 4 82 5 14 1 33 -1 42 -4z m-1173 -26 c48 -22 57 -37 43 -72 -10 -26 -30
-19 -60 22 -15 20 -32 39 -36 40 -9 4 -11 32 -2 32 3 0 28 -10 55 -22z m-133
-69 c-3 -46 -6 -54 -24 -57 -33 -5 -50 23 -35 56 40 88 64 88 59 1z m82 15 c0
-4 7 -16 16 -26 14 -14 14 -20 4 -33 -7 -8 -23 -15 -35 -15 -26 0 -35 22 -35
90 l0 45 25 -27 c14 -15 25 -30 25 -34z m730 38 c0 -26 -27 -62 -47 -62 -28 0
-30 25 -6 52 16 18 53 25 53 10z m56 -16 c16 -17 19 -46 4 -46 -5 0 -10 -11
-10 -25 0 -27 -26 -35 -48 -13 -14 14 -16 48 -3 48 5 0 12 11 15 25 7 28 21
32 42 11z m74 -26 c0 -9 5 -21 12 -28 10 -9 8 -16 -5 -29 -27 -28 -51 -6 -55
50 l-3 46 25 -12 c14 -7 26 -19 26 -27z m59 24 c36 -18 36 -38 0 -42 -25 -3
-55 30 -44 48 8 13 6 13 44 -6z m455 -324 c6 -6 3 -17 -11 -32 -11 -13 -23
-31 -26 -40 -4 -10 -10 -18 -15 -18 -18 0 -82 74 -82 94 0 17 116 14 134 -4z
m1136 -9 c14 -26 13 -64 -2 -79 -7 -7 -25 -12 -40 -12 -29 0 -30 1 -30 65 0
19 1 37 1 40 1 3 14 5 31 5 19 0 33 -7 40 -19z m-2811 -38 c23 -25 26 -36 26
-104 0 -89 -11 -109 -63 -109 -27 0 -42 8 -68 36 -31 32 -34 41 -34 95 0 35 7
73 16 91 15 28 19 30 56 25 27 -4 50 -15 67 -34z m343 10 c15 -15 28 -33 28
-42 0 -24 -31 -51 -61 -51 -21 0 -29 6 -38 31 -6 18 -11 45 -11 60 0 25 4 29
27 29 16 0 39 -11 55 -27z m2053 -75 c19 -40 7 -57 -30 -40 -21 10 -24 16 -19
39 13 53 23 53 49 1z"/>
<path d="M2938 2013 c7 -3 16 -2 19 1 4 3 -2 6 -13 5 -11 0 -14 -3 -6 -6z"/>
<path d="M2970 1995 c0 -4 60 -35 69 -35 8 0 -32 26 -51 33 -10 4 -18 5 -18 2z"/>
</g>
</svg>
