<?xml version="1.0" standalone="no"?>
<!DOCTYPE svg PUBLIC "-//W3C//DTD SVG 20010904//EN"
 "http://www.w3.org/TR/2001/REC-SVG-20010904/DTD/svg10.dtd">
<svg version="1.0" xmlns="http://www.w3.org/2000/svg"
 width="580.000000pt" height="400.000000pt" viewBox="0 0 580.000000 400.000000"
 preserveAspectRatio="xMidYMid meet">
<metadata>
Created by potrace 1.16, written by Peter Selinger 2001-2019
</metadata>
<g transform="translate(0.000000,400.000000) scale(0.100000,-0.100000)"
fill="#000000" stroke="none">
<path d="M2495 3615 c-306 -39 -590 -109 -848 -209 -154 -59 -423 -198 -566
-294 -95 -63 -120 -76 -149 -74 -35 3 -36 3 -18 -17 14 -15 16 -24 8 -34 -8
-10 -6 -16 8 -25 27 -17 15 -45 -16 -38 -19 5 -24 2 -24 -14 0 -15 -7 -20 -25
-20 -31 0 -31 -7 -3 -37 21 -22 21 -23 3 -43 -10 -11 -27 -20 -38 -20 -15 0
-18 -5 -13 -22 18 -64 18 -68 5 -68 -7 0 -21 8 -31 17 -18 16 -19 16 -24 -4
-4 -13 -17 -23 -37 -27 -31 -7 -31 -8 -11 -19 12 -7 19 -18 16 -26 -4 -11 4
-13 35 -8 34 6 43 3 62 -17 16 -17 19 -26 11 -31 -11 -7 -121 1 -166 11 -18 5
-20 1 -20 -35 1 -34 4 -41 21 -41 30 0 62 -26 69 -55 5 -21 12 -25 41 -25 40
0 48 -21 13 -37 -16 -7 -37 -6 -68 1 -48 12 -168 6 -138 -6 21 -8 24 -34 6
-41 -21 -6 83 -48 104 -41 21 6 48 -11 48 -31 0 -15 -76 -24 -115 -13 -14 3
-27 2 -31 -3 -3 -5 -16 -9 -29 -9 -26 0 -41 -15 -25 -25 5 -3 10 -15 10 -26 0
-14 7 -19 29 -19 38 0 50 -29 22 -51 -19 -16 -19 -17 -2 -33 10 -9 29 -16 43
-16 14 0 36 -9 49 -19 l24 -19 -25 -10 c-14 -4 -60 -8 -103 -8 l-77 1 0 -32
c0 -17 -3 -38 -6 -47 -4 -11 0 -16 14 -16 12 0 24 -4 27 -10 3 -5 21 -10 40
-10 42 0 65 -9 65 -25 0 -14 -30 -25 -69 -25 -32 0 -101 -31 -101 -44 1 -25
18 -39 43 -32 13 3 39 1 56 -5 30 -11 30 -11 13 -35 -12 -16 -27 -23 -49 -24
-18 0 -33 -4 -33 -10 0 -5 -9 -19 -20 -30 -26 -26 -16 -44 19 -37 35 7 83 -3
78 -16 -2 -6 -19 -16 -38 -22 -20 -7 -35 -20 -38 -31 -1 -10 -10 -26 -17 -35
-13 -14 -13 -17 1 -23 15 -5 15 -8 1 -21 -8 -8 -19 -15 -25 -15 -20 0 -11 -28
15 -45 20 -13 37 -15 75 -10 40 6 54 4 69 -10 18 -17 21 -16 57 2 31 16 53 19
113 17 94 -5 100 -11 100 -119 0 -94 -6 -103 -83 -129 -77 -26 -118 -51 -173
-103 -73 -70 -101 -117 -124 -208 -26 -105 -25 -145 6 -251 30 -107 82 -178
172 -241 116 -79 -71 -73 2194 -73 1708 0 2032 2 2071 14 56 17 154 87 198
142 76 94 112 233 91 353 -18 105 -52 173 -125 245 -66 67 -129 104 -212 126
-79 21 -85 29 -85 131 0 78 2 90 20 99 31 17 152 20 170 5 22 -19 51 -21 78
-6 16 8 40 10 74 6 43 -6 53 -4 74 16 27 25 31 39 10 39 -7 0 -19 7 -26 15
-10 12 -9 16 5 21 16 6 16 8 2 19 -8 6 -17 22 -19 35 -2 19 -12 27 -40 34 -21
5 -38 15 -38 22 0 15 43 26 73 19 15 -4 28 -1 36 9 9 11 10 16 2 16 -6 0 -17
11 -23 25 -8 19 -19 25 -42 25 -21 1 -37 8 -48 25 -18 23 -17 24 16 35 18 6
40 8 50 4 18 -7 46 11 46 30 0 15 -68 46 -101 46 -39 0 -69 11 -69 25 0 16 23
25 65 25 19 0 37 5 40 10 3 6 15 10 27 10 14 0 18 5 14 16 -3 9 -6 30 -6 48
l0 32 -77 -2 c-43 0 -89 3 -103 8 l-25 10 24 19 c13 10 35 19 49 19 14 0 33 7
43 16 17 16 17 17 -2 33 -28 22 -16 51 22 51 22 0 27 4 22 16 -4 10 0 20 10
26 26 14 20 28 -11 28 -16 0 -32 3 -36 7 -4 4 -38 6 -77 4 -53 -2 -69 0 -69
11 0 25 15 36 50 36 19 0 53 7 75 17 34 15 37 18 21 27 -16 9 -16 11 -1 28 16
17 14 18 -38 22 -30 1 -72 -2 -93 -8 -43 -12 -84 -1 -84 23 0 13 9 16 45 14
13 -1 25 9 35 31 10 23 25 36 48 43 26 7 32 14 28 29 -3 11 0 28 5 38 11 21
11 21 -101 1 -73 -13 -110 6 -70 37 19 14 34 18 63 13 30 -4 36 -3 32 9 -4 9
3 19 17 25 23 11 22 11 -9 18 -19 4 -35 15 -38 26 -6 18 -8 18 -28 4 -12 -8
-25 -15 -29 -15 -13 0 -9 29 7 60 15 29 15 30 -8 30 -13 0 -32 9 -42 20 -18
20 -18 21 3 43 28 30 28 37 -3 37 -20 0 -25 5 -25 25 0 23 -2 24 -20 13 -16
-10 -22 -10 -32 0 -11 11 -8 17 11 33 21 17 22 22 10 29 -12 8 -12 13 -1 31
13 20 12 21 -13 17 -21 -4 -49 9 -130 63 -384 254 -763 400 -1271 490 -173 31
-190 32 -499 35 -220 2 -351 -2 -420 -11z m468 -140 c49 -20 52 -46 32 -228
-18 -157 -28 -187 -67 -187 -10 0 -18 -4 -18 -10 0 -12 -129 -13 -147 -2 -8 5
-19 76 -30 200 -20 224 -21 220 74 232 92 12 118 11 156 -5z m-323 -15 c22 -6
44 -18 49 -28 5 -9 12 -68 16 -129 6 -91 4 -113 -6 -113 -20 0 -249 232 -249
252 0 13 10 18 43 20 23 2 57 4 75 6 18 1 50 -2 72 -8z m735 -13 c120 -20 127
-27 176 -174 l41 -125 -17 -66 c-25 -90 -41 -104 -113 -97 -97 10 -235 40
-239 52 -3 7 13 21 34 31 48 25 71 51 89 99 30 85 13 171 -47 231 -38 37 -45
62 -16 62 7 0 48 -6 92 -13z m-166 -35 c83 -50 116 -164 72 -250 -25 -48 -48
-68 -100 -87 -93 -33 -157 -10 -146 51 3 16 12 89 19 162 8 74 20 139 27 148
17 21 71 11 128 -24z m-836 3 c19 -18 22 -34 43 -207 15 -128 15 -140 0 -163
-9 -14 -23 -25 -30 -25 -8 0 -16 -5 -18 -10 -3 -10 -174 -59 -205 -60 -17 0
-16 21 2 56 23 45 18 98 -20 221 -26 82 -33 118 -26 131 27 50 218 93 254 57z
m1341 -46 c50 -14 91 -51 80 -72 -5 -8 -35 -38 -67 -68 -47 -42 -62 -51 -75
-43 -18 12 -66 159 -58 180 6 17 65 18 120 3z m-1637 -31 c7 -6 31 -66 53
-134 35 -109 39 -130 30 -163 -31 -115 -183 -121 -224 -8 -36 100 -66 204 -66
225 0 31 48 78 91 90 37 10 97 5 116 -10z m518 -138 c93 -93 136 -143 129
-150 -18 -18 -195 -29 -231 -14 -37 14 -38 19 -53 156 -13 126 -13 148 3 148
7 0 75 -63 152 -140z m1469 40 c6 -6 5 -19 -2 -34 -10 -22 -8 -27 10 -40 26
-18 18 -43 -17 -52 -14 -3 -25 -10 -25 -15 0 -10 48 7 69 24 8 7 20 27 28 45
7 17 20 32 28 32 22 0 135 -59 135 -70 0 -5 -15 -16 -33 -24 -22 -9 -40 -27
-51 -51 -20 -41 -19 -47 39 -187 24 -57 26 -72 17 -93 -39 -85 -161 -18 -163
89 l0 41 -29 -62 c-16 -35 -33 -63 -39 -63 -5 0 -40 14 -78 31 -37 17 -115 48
-172 70 -58 21 -107 42 -110 47 -4 4 -15 12 -26 18 -27 15 -29 55 -8 133 17
61 22 67 106 139 110 94 132 99 237 59 41 -15 79 -32 84 -37z m-2266 8 c6 -7
27 -65 47 -128 42 -131 64 -166 111 -186 19 -8 34 -20 34 -28 0 -8 -28 -24
-62 -36 -35 -13 -89 -36 -120 -52 -84 -41 -89 -40 -81 31 5 57 4 61 -25 90
-24 25 -39 31 -72 31 -34 0 -41 3 -36 16 24 64 13 113 -32 134 -15 7 -33 15
-40 19 -26 12 -8 27 92 73 102 48 164 60 184 36z m-285 -159 c32 -14 48 -51
40 -90 -6 -34 -72 -89 -104 -89 -23 0 -82 111 -72 136 6 16 75 53 100 54 7 0
23 -5 36 -11z m2832 -7 c33 -24 50 -59 55 -111 l6 -56 17 40 c25 59 33 70 51
69 19 -2 185 -106 186 -117 0 -4 -12 -13 -26 -19 -23 -11 -24 -13 -9 -24 9 -7
14 -17 11 -22 -3 -6 1 -12 9 -16 20 -7 20 -66 1 -66 -8 0 -18 5 -21 10 -5 8
-11 7 -20 0 -8 -7 -20 -8 -26 -4 -9 5 -10 2 -6 -9 3 -9 1 -19 -5 -23 -14 -9
30 -43 57 -44 37 -1 48 -15 25 -35 -21 -19 -26 -50 -10 -60 20 -13 -1 -24 -26
-15 -14 6 -31 7 -37 3 -7 -4 -22 -6 -35 -4 -21 2 -22 0 -13 -17 9 -17 6 -23
-14 -36 -34 -23 -46 -20 -96 17 -24 18 -79 55 -121 81 -77 48 -95 71 -60 82
56 19 74 30 87 55 23 44 18 72 -30 163 -25 47 -45 95 -45 106 0 41 63 76 95
52z m-2945 -227 c79 -140 93 -181 65 -191 -8 -4 -15 -14 -15 -23 0 -14 -62
-62 -155 -121 -23 -14 -38 -11 -83 16 -2 1 2 12 8 25 11 20 10 21 -14 17 -14
-3 -27 -1 -29 5 -2 6 -16 5 -40 -1 -34 -10 -51 -2 -27 13 17 10 11 41 -11 61
-19 17 -19 19 -4 30 9 7 23 10 31 7 16 -6 69 33 55 42 -6 3 -7 13 -4 22 4 11
3 14 -6 9 -6 -4 -18 -3 -26 4 -9 7 -15 8 -20 0 -3 -5 -13 -10 -21 -10 -19 0
-19 59 1 66 8 4 12 10 9 16 -3 5 2 15 11 22 15 11 14 13 -9 24 -14 6 -26 15
-26 19 0 12 110 80 155 96 30 10 45 11 58 3 10 -6 54 -74 97 -151z m225 69
c20 -8 45 -56 45 -87 0 -45 -71 -107 -123 -107 -7 0 -30 32 -51 70 -32 61 -36
73 -24 87 28 34 109 53 153 37z m1555 -45 c235 -31 477 -95 660 -176 212 -93
403 -201 531 -299 30 -23 71 -46 89 -51 39 -10 53 -33 20 -33 -12 0 -18 -5
-15 -10 3 -6 -4 -14 -16 -18 -22 -8 -21 -9 9 -30 19 -14 45 -22 72 -22 l42 0
-32 -30 c-22 -21 -42 -30 -65 -30 -19 0 -37 -4 -40 -10 -3 -5 -22 -10 -42 -10
l-36 0 23 -25 c13 -14 32 -25 43 -25 15 0 18 -5 13 -25 -6 -23 -4 -25 29 -25
31 0 35 -2 26 -18 -6 -11 -6 -24 0 -33 32 -50 -10 -73 -110 -60 -60 8 -77 7
-85 -4 -6 -8 -24 -15 -41 -17 -36 -4 -39 -19 -7 -33 14 -6 21 -16 19 -26 -4
-14 5 -16 52 -15 50 1 56 -1 56 -19 0 -16 6 -19 32 -17 23 2 35 -2 42 -16 13
-25 5 -32 -34 -32 -17 0 -55 -7 -84 -16 -51 -15 -52 -16 -36 -34 17 -19 16
-20 -10 -30 -19 -7 -25 -14 -18 -21 14 -14 103 -19 126 -7 13 7 19 3 27 -17
13 -34 4 -54 -22 -47 -17 4 -20 2 -15 -11 4 -11 1 -17 -8 -17 -23 0 -18 -26 8
-43 l22 -15 -25 -10 -25 -10 26 -12 c18 -8 25 -18 22 -30 -5 -17 28 -46 39
-35 9 10 174 11 201 2 15 -5 32 -17 37 -27 12 -22 1 -163 -14 -172 -6 -4 -93
-8 -194 -8 -138 0 -184 3 -186 13 -2 6 -11 37 -20 68 -11 35 -14 65 -9 80 10
30 9 78 -1 147 -9 57 -44 97 -94 108 -15 3 -43 12 -63 21 -23 9 -57 14 -89 12
-36 -3 -54 0 -57 9 -3 6 4 12 14 13 10 0 13 3 6 6 -7 2 -13 14 -13 25 0 17 -3
18 -14 9 -11 -9 -20 -10 -36 -1 l-21 11 21 26 c11 14 18 28 15 31 -3 3 -12 -4
-21 -16 -18 -25 -34 -29 -34 -7 0 12 -4 11 -20 -5 -29 -29 -54 -26 -48 5 6 30
-8 34 -17 5 -3 -11 -11 -20 -17 -20 -6 0 -8 9 -5 20 6 23 -8 27 -17 5 -7 -20
-23 -19 -29 3 -4 14 -6 14 -12 -5 -4 -13 -14 -23 -21 -23 -16 0 -18 -12 -5
-25 5 -6 12 -20 16 -32 5 -20 3 -23 -20 -23 -58 0 -235 -60 -235 -80 0 -4 -15
-6 -34 -5 l-34 1 5 -101 c3 -55 10 -108 15 -118 13 -25 -13 -32 -51 -12 -30
15 -42 35 -21 35 19 0 10 70 -14 108 -13 20 -27 53 -31 72 -11 51 -23 62 -69
59 -85 -4 -136 11 -175 52 -32 34 -42 39 -82 39 -37 0 -51 -5 -75 -30 -16 -16
-36 -30 -45 -30 -20 0 -69 23 -69 33 0 4 -8 7 -18 7 -10 0 -22 4 -28 8 -14 13
-82 30 -141 37 l-51 5 1 -33 c0 -19 -11 -58 -26 -88 -15 -30 -26 -63 -24 -74
4 -34 -27 -27 -52 12 -52 80 -55 81 -144 81 -76 0 -82 1 -100 26 -11 15 -28
26 -42 26 -32 0 -37 11 -26 59 7 32 5 46 -10 70 -10 16 -27 35 -38 41 -12 6
-21 15 -21 20 0 17 -41 51 -57 48 -26 -5 -38 -56 -19 -77 18 -20 23 -96 6 -86
-17 11 -37 -13 -45 -51 -5 -27 -10 -34 -23 -30 -16 5 -128 21 -203 30 l-36 5
-7 -46 c-10 -78 -7 -153 7 -154 56 -4 114 2 134 12 20 11 26 11 33 -1 6 -8 10
-25 10 -37 0 -12 5 -25 10 -28 16 -10 11 -44 -10 -65 -33 -33 -29 -43 51 -162
16 -23 17 -27 2 -32 -22 -9 -796 -7 -809 2 -6 4 -14 43 -18 87 -10 117 -2 123
174 116 86 -4 113 4 105 29 -4 11 3 21 22 29 l28 13 -25 10 -25 10 23 15 c25
17 30 43 7 43 -9 0 -12 6 -8 17 5 13 2 15 -16 10 -28 -7 -38 15 -22 49 8 19
15 23 28 16 23 -12 94 -8 119 6 18 10 17 11 -10 21 -23 9 -26 14 -16 26 6 8 9
18 6 23 -8 13 -87 32 -130 32 -24 0 -36 5 -36 14 0 22 26 37 56 34 23 -2 29 1
29 17 0 17 7 20 53 20 45 -1 51 2 47 16 -4 13 1 18 17 21 13 2 24 11 26 21 3
13 -3 17 -28 17 -17 0 -33 6 -36 14 -5 14 -54 14 -134 0 -28 -4 -40 -1 -58 16
-21 20 -22 24 -9 44 10 15 12 27 5 39 -8 15 -4 17 27 17 33 0 35 2 29 25 -5
21 -3 25 16 25 21 0 49 24 50 43 0 4 -13 7 -29 7 -17 0 -33 5 -36 10 -3 6 -21
10 -40 10 -23 0 -43 9 -65 30 l-32 30 43 0 c32 1 53 8 74 25 29 24 29 25 6 25
-16 0 -21 4 -17 15 4 11 -2 15 -21 15 -21 0 -24 2 -13 15 7 8 22 15 33 15 11
0 57 26 101 59 236 171 560 328 826 401 109 30 349 71 470 80 120 10 389 4
500 -11z m-504 -1303 c34 -33 44 -51 44 -75 0 -18 4 -41 10 -51 12 -22 -23
-147 -57 -202 l-23 -38 -118 0 c-64 0 -122 4 -128 8 -6 4 -13 39 -16 79 -4 59
-10 78 -32 103 -33 39 -42 74 -28 106 10 21 14 23 37 12 18 -8 29 -24 36 -55
6 -24 15 -43 20 -43 5 0 15 -12 21 -27 l11 -28 10 44 c7 30 7 52 0 72 -10 27
-9 29 23 39 19 7 39 21 45 33 16 31 60 66 83 67 10 0 38 -20 62 -44z m930 -97
l26 -42 -21 -38 -21 -38 21 -48 c35 -79 35 -78 68 -76 26 1 30 -1 20 -13 -9
-11 -52 -14 -210 -14 -109 0 -200 3 -202 8 -3 4 -8 40 -12 80 l-7 73 50 -28
c64 -36 90 -26 128 49 37 74 70 116 96 121 13 2 26 5 30 6 4 0 20 -18 34 -40z
m-1406 -28 c5 -11 11 -46 12 -78 3 -52 -1 -65 -27 -104 -16 -24 -34 -47 -40
-51 -14 -11 -157 -10 -174 1 -10 6 -11 13 -2 29 6 11 11 60 11 108 l0 87 48
-6 c33 -4 60 -1 92 13 59 24 67 24 80 1z m1810 -42 c27 -63 22 -100 -21 -152
l-30 -37 -105 0 -104 0 0 91 0 91 58 -2 c87 -3 102 -1 102 15 0 14 44 44 66
45 6 0 21 -23 34 -51z m-954 -25 c18 -63 14 -80 -34 -140 -25 -32 -31 -34 -84
-34 -52 0 -58 2 -58 20 0 12 -9 33 -19 48 -10 15 -22 48 -25 74 -3 25 -7 52
-8 59 -2 11 15 13 83 10 56 -2 89 1 93 8 16 26 36 9 52 -45z m1102 -1 c43 -41
64 -70 73 -100 19 -65 7 -73 -111 -73 -53 0 -99 2 -102 5 -3 3 12 37 32 76 31
59 36 77 30 105 -7 32 -4 44 10 44 4 0 34 -26 68 -57z m-1012 12 c3 -8 21 -24
38 -35 44 -26 73 -91 58 -125 -11 -24 -16 -25 -96 -25 -47 0 -87 3 -89 8 -3 4
11 34 30 66 28 48 33 66 28 93 -5 26 -3 33 10 33 9 0 18 -7 21 -15z m-794
-108 c18 -58 5 -71 -72 -75 -35 -2 -67 1 -72 6 -6 6 3 30 26 63 24 36 36 65
36 88 l0 34 35 -39 c19 -21 40 -56 47 -77z m453 19 c24 -76 19 -90 -34 -94
-68 -5 -73 0 -56 48 16 45 51 100 65 100 4 0 16 -24 25 -54z"/>
</g>
</svg>
