<?xml version="1.0" standalone="no"?>
<!DOCTYPE svg PUBLIC "-//W3C//DTD SVG 20010904//EN"
 "http://www.w3.org/TR/2001/REC-SVG-20010904/DTD/svg10.dtd">
<svg version="1.0" xmlns="http://www.w3.org/2000/svg"
 width="580.000000pt" height="400.000000pt" viewBox="0 0 580.000000 400.000000"
 preserveAspectRatio="xMidYMid meet">
<metadata>
Created by potrace 1.16, written by Peter Selinger 2001-2019
</metadata>
<g transform="translate(0.000000,400.000000) scale(0.100000,-0.100000)"
fill="#000000" stroke="none">
<path d="M1589 3545 c-45 -24 -62 -106 -35 -167 6 -13 0 -18 -26 -23 -62 -13
-157 -67 -202 -115 -67 -72 -96 -137 -108 -244 -5 -50 -14 -117 -20 -149 -19
-102 -119 -238 -200 -274 -21 -9 -38 -24 -38 -32 0 -28 69 -154 118 -216 69
-87 90 -118 128 -192 19 -37 48 -83 64 -104 34 -42 33 -44 -50 -79 -253 -105
-379 -229 -442 -433 -43 -141 -25 -329 43 -457 75 -141 177 -227 367 -310 50
-21 99 -44 109 -50 30 -17 238 -87 418 -140 405 -119 762 -170 1200 -170 443
0 776 47 1198 170 265 76 396 125 574 211 128 62 155 79 213 137 70 71 135
182 161 277 22 78 17 276 -8 345 -36 97 -105 204 -169 263 -56 52 -216 141
-312 175 -18 6 -32 16 -32 23 0 6 16 33 35 58 19 26 39 60 45 75 12 34 80 134
138 206 46 55 112 181 112 211 0 9 -14 22 -32 30 -46 19 -130 109 -168 180
-29 54 -36 82 -51 207 -21 162 -41 213 -117 287 -50 49 -140 99 -195 109 -32
6 -37 10 -31 24 4 9 9 40 12 68 5 71 -23 105 -95 111 -64 7 -90 -7 -114 -62
-19 -44 -18 -85 3 -112 6 -7 4 -23 -7 -42 -19 -38 -26 -38 -192 -7 -308 58
-507 77 -888 83 -277 4 -351 2 -550 -17 -251 -23 -373 -40 -521 -70 -127 -26
-147 -26 -164 5 -10 19 -11 32 0 69 24 85 -23 156 -104 156 -22 -1 -53 -7 -67
-15z m1736 -276 c216 -16 635 -76 653 -93 3 -4 -144 -287 -163 -314 -1 -1 -62
9 -136 22 -74 13 -195 30 -269 38 -181 18 -810 18 -985 0 -111 -12 -308 -41
-382 -57 -23 -5 -28 2 -118 170 -20 39 -46 85 -57 103 -11 18 -18 35 -16 38 3
2 70 16 149 30 433 76 866 97 1324 63z m-20 -470 c118 -10 403 -49 427 -58 14
-5 -3 -42 -108 -231 -69 -124 -131 -230 -137 -236 -9 -9 -44 -8 -137 3 -179
22 -701 22 -875 1 -71 -9 -131 -16 -131 -15 -19 26 -255 469 -252 473 9 9 220
41 343 53 66 6 134 13 150 15 62 7 624 3 720 -5z m-1197 -313 c67 -123 122
-228 122 -233 0 -6 -64 -23 -142 -38 -148 -29 -363 -85 -505 -132 -45 -15 -86
-24 -89 -20 -4 4 4 20 19 35 47 49 77 131 94 264 26 200 77 275 228 335 17 6
57 12 90 12 l60 1 123 -224z m1915 196 c122 -54 177 -139 198 -302 14 -121 40
-202 84 -265 19 -27 30 -51 25 -53 -5 -2 -58 13 -119 32 -154 50 -356 102
-490 126 -63 11 -117 22 -120 25 -6 7 31 79 129 255 39 69 80 145 93 169 l22
43 65 -4 c36 -3 87 -15 113 -26z m-858 -663 c88 -6 163 -14 168 -18 4 -4 -62
-133 -146 -287 -84 -153 -178 -325 -208 -381 -30 -57 -58 -101 -64 -100 -16 5
-53 78 -48 96 4 15 -15 48 -83 143 -17 23 -47 72 -66 108 -20 36 -77 141 -127
233 -50 93 -91 175 -91 183 0 8 10 14 23 14 55 1 232 13 236 16 9 8 252 4 406
-7z m-738 -119 c26 -47 70 -128 98 -180 29 -52 50 -98 46 -101 -13 -14 -205
-40 -250 -34 -32 5 -42 3 -32 -3 11 -8 7 -13 -20 -24 -57 -24 -476 -158 -493
-158 -12 0 -16 10 -16 44 0 25 5 48 12 53 7 4 89 33 183 65 156 52 166 56 122
57 -80 2 -446 -97 -524 -140 -28 -16 -94 -42 -147 -58 l-97 -29 6 36 c18 105
114 241 211 298 84 49 424 170 574 204 52 11 131 29 175 40 44 10 86 17 93 17
7 -1 34 -40 59 -87z m1216 49 c251 -57 550 -158 663 -224 47 -27 134 -109 134
-125 0 -17 -15 -12 -60 21 -39 28 -54 32 -174 45 -72 8 -187 14 -254 14 l-124
0 -188 -141 -188 -142 -6 -55 c-9 -76 -17 -84 -64 -60 -54 28 -138 21 -186
-16 -49 -37 -66 -74 -66 -145 0 -56 3 -64 38 -102 75 -84 180 -93 254 -22 l27
26 128 -9 c147 -9 218 -11 253 -4 22 5 25 1 32 -40 13 -74 27 -98 69 -117 22
-9 39 -20 39 -25 0 -9 -94 -37 -273 -82 -118 -30 -249 -53 -418 -72 l-57 -6
-39 68 c-51 90 -131 232 -176 314 l-36 65 63 115 c34 63 76 140 93 170 17 30
55 100 85 155 31 55 68 123 83 150 15 28 43 79 63 115 66 122 93 170 98 170 2
0 86 -19 187 -41z m702 -371 c25 -19 27 -25 21 -70 -10 -71 -12 -74 -86 -123
-77 -51 -95 -56 -87 -22 3 12 11 51 18 87 10 52 20 72 52 107 22 24 43 43 47
43 4 0 20 -10 35 -22z m-542 -8 c29 0 7 -28 -73 -95 -40 -33 -84 -72 -99 -86
-25 -24 -29 -25 -88 -16 -35 5 -63 12 -63 17 0 4 53 49 118 99 107 84 120 92
152 87 19 -3 43 -6 53 -6z m194 -15 c16 -5 -8 -88 -49 -168 l-29 -59 -44 41
c-25 23 -51 41 -59 41 -22 0 -27 14 -16 46 5 16 14 47 19 70 l11 41 77 -4 c43
-3 83 -6 90 -8z m-2247 -115 c0 -41 -4 -60 -12 -60 -7 -1 -55 -7 -106 -14 -51
-7 -94 -10 -96 -7 -8 12 61 116 85 128 13 7 48 13 77 13 l52 0 0 -60z m1030
-180 c0 -5 16 -35 35 -67 40 -66 42 -86 17 -128 -10 -16 -36 -61 -56 -100 -88
-160 -159 -290 -161 -293 -5 -5 -257 27 -348 44 -200 38 -572 156 -706 224
-60 30 -161 113 -161 131 0 5 7 9 15 9 8 0 15 9 15 20 0 32 20 23 36 -15 12
-30 19 -35 46 -35 17 0 39 7 48 15 12 11 53 14 190 15 l173 2 15 -29 c25 -49
36 -53 98 -30 36 13 59 28 64 42 7 18 24 23 126 39 132 21 387 97 480 144 56
29 74 31 74 12z m233 -426 c49 -91 86 -168 83 -171 -7 -8 -355 -8 -362 0 -9 9
171 337 184 337 4 0 47 -75 95 -166z"/>
<path d="M2188 1603 c7 -3 16 -2 19 1 4 3 -2 6 -13 5 -11 0 -14 -3 -6 -6z"/>
<path d="M2238 1593 c7 -3 16 -2 19 1 4 3 -2 6 -13 5 -11 0 -14 -3 -6 -6z"/>
</g>
</svg>
