<?xml version="1.0" standalone="no"?>
<!DOCTYPE svg PUBLIC "-//W3C//DTD SVG 20010904//EN"
 "http://www.w3.org/TR/2001/REC-SVG-20010904/DTD/svg10.dtd">
<svg version="1.0" xmlns="http://www.w3.org/2000/svg"
 width="580.000000pt" height="400.000000pt" viewBox="0 0 580.000000 400.000000"
 preserveAspectRatio="xMidYMid meet">
<metadata>
Created by potrace 1.16, written by Peter Selinger 2001-2019
</metadata>
<g transform="translate(0.000000,400.000000) scale(0.100000,-0.100000)"
fill="#000000" stroke="none">
<path d="M2640 3619 c-323 -18 -700 -104 -1025 -234 -144 -57 -459 -216 -568
-286 -83 -53 -109 -56 -128 -16 -7 16 -19 22 -42 22 -27 0 -32 -4 -35 -27 -3
-26 -7 -28 -44 -28 l-41 0 21 -23 c28 -29 28 -37 0 -37 -22 -1 -22 -1 4 -23
16 -13 28 -28 28 -35 0 -15 -26 -16 -36 -1 -4 7 -12 -1 -20 -21 -12 -28 -18
-32 -44 -28 l-31 5 32 -33 c39 -41 34 -64 -16 -64 -40 0 -43 -11 -21 -65 17
-39 8 -51 -20 -30 -25 19 -31 19 -37 -4 -3 -12 -18 -21 -43 -26 l-39 -7 27
-14 c17 -9 25 -20 22 -29 -4 -11 6 -15 47 -17 36 -2 55 -8 63 -20 13 -22 6
-29 -30 -29 -38 0 -134 16 -158 26 -17 7 -18 6 -11 -11 5 -10 8 -34 8 -51 -1
-28 2 -33 21 -33 26 0 60 -34 71 -69 6 -19 12 -22 35 -17 17 3 32 0 39 -8 18
-21 -35 -39 -79 -26 -19 5 -69 10 -110 10 l-75 -1 25 -20 c24 -20 24 -21 6
-35 -18 -13 -16 -15 28 -34 26 -12 57 -21 69 -22 47 0 67 -9 67 -27 0 -17 -7
-19 -79 -15 -48 3 -82 0 -86 -6 -3 -5 -19 -10 -36 -10 -32 0 -38 -14 -13 -28
12 -6 15 -18 12 -36 -5 -25 -4 -26 27 -20 41 7 59 -23 26 -44 -19 -13 -19 -16
-4 -38 10 -16 25 -24 45 -24 32 0 68 -16 68 -30 0 -16 -44 -24 -127 -22 l-82
1 2 -32 c0 -18 -3 -40 -7 -49 -7 -15 -3 -18 17 -18 14 0 29 -4 32 -10 3 -5 23
-10 43 -10 20 0 44 -5 52 -10 13 -9 12 -12 -5 -26 -11 -8 -34 -14 -51 -12 -18
1 -38 -3 -45 -8 -8 -6 -26 -14 -41 -18 -29 -7 -36 -28 -19 -55 6 -10 19 -12
41 -8 39 8 80 -1 80 -18 0 -21 -33 -43 -70 -47 -25 -2 -36 -8 -39 -23 -2 -11
-11 -25 -20 -32 -27 -22 9 -42 66 -35 55 6 57 -15 2 -33 -25 -9 -34 -18 -34
-34 0 -14 -10 -28 -24 -35 -22 -12 -23 -14 -6 -23 23 -13 13 -43 -15 -43 -27
0 -25 -11 8 -44 28 -25 32 -27 95 -20 56 6 68 4 73 -10 8 -21 52 -21 77 1 16
16 36 20 97 22 34 2 95 -12 102 -23 4 -6 8 -52 8 -102 0 -103 -12 -124 -68
-124 -57 0 -157 -48 -210 -100 -84 -83 -119 -188 -109 -328 10 -131 85 -240
205 -299 l57 -28 2235 -3 2235 -3 67 26 c204 79 293 332 189 537 -54 106 -156
180 -270 195 -73 9 -81 21 -81 128 0 69 4 96 15 105 8 6 50 13 94 15 68 3 82
0 97 -16 21 -24 70 -25 78 -3 5 14 16 16 71 10 61 -6 68 -5 100 21 35 28 37
43 5 43 -24 0 -35 31 -15 43 15 8 14 11 -4 24 -12 8 -21 23 -21 33 0 13 -12
25 -35 34 -19 8 -35 19 -35 25 0 14 32 19 58 7 18 -8 27 -5 44 11 l20 21 -20
6 c-11 4 -22 17 -24 29 -2 17 -12 23 -42 28 -35 6 -66 29 -66 50 0 11 57 19
90 13 25 -6 30 -3 36 21 3 14 3 30 -2 34 -11 9 -77 28 -126 36 -71 11 -57 45
19 45 23 0 45 5 48 10 3 6 15 10 27 10 17 0 19 4 13 23 -4 12 -6 34 -6 49 l1
27 -85 -3 c-97 -3 -130 9 -105 39 9 11 24 15 43 12 21 -3 33 2 48 21 18 23 18
26 3 43 -23 26 -11 51 23 47 25 -3 28 0 25 24 -2 19 2 28 17 33 56 18 -4 35
-131 38 -42 1 -80 5 -84 9 -14 14 18 37 50 36 35 -1 138 41 119 49 -18 6 -16
23 4 45 15 17 13 18 -58 18 -41 0 -91 -5 -111 -10 -27 -8 -44 -8 -58 0 -30 16
-19 36 18 32 24 -3 32 1 32 13 0 26 55 75 84 75 23 0 25 2 15 24 -8 17 -8 29
0 44 16 30 14 33 -16 21 -43 -17 -169 -26 -182 -13 -3 3 0 13 5 22 8 12 28 18
68 20 49 3 56 5 46 17 -10 12 -7 17 14 26 29 14 18 29 -21 29 -16 0 -25 8 -29
26 l-6 25 -24 -22 c-41 -39 -43 -19 -7 79 4 8 -6 12 -30 12 -20 0 -40 7 -48
16 -11 14 -10 20 14 40 33 29 34 34 2 34 -14 0 -28 7 -30 15 -15 49 -15 49
-27 37 -7 -7 -18 -12 -25 -12 -22 0 -15 23 15 47 21 18 23 22 10 23 -23 0 -23
23 -1 41 14 12 12 15 -23 19 -33 4 -39 9 -42 31 -3 21 -8 25 -37 25 -27 0 -35
-5 -40 -23 -10 -42 -76 -24 -184 50 -55 38 -392 205 -497 247 -226 91 -550
178 -798 216 -199 30 -488 39 -756 23z m158 -141 c19 -19 14 -47 -18 -86 -45
-57 -58 -141 -34 -223 3 -12 -2 -15 -25 -11 -26 4 -32 0 -44 -29 -8 -19 -22
-40 -31 -48 -19 -16 -142 -42 -163 -34 -17 7 -20 19 -42 193 -19 153 -16 180
21 180 15 0 19 5 15 20 -7 26 6 29 158 39 66 4 127 9 136 10 8 0 20 -4 27 -11z
m465 -20 c26 -13 21 -36 -19 -80 -20 -22 -44 -59 -55 -82 -32 -71 -21 -195 23
-235 32 -31 14 -44 -50 -38 -69 7 -79 17 -47 47 48 45 16 60 -50 23 -84 -46
-179 -20 -218 61 -41 85 -13 227 52 260 38 20 93 20 131 1 30 -15 60 -61 60
-90 0 -9 9 -15 23 -15 23 0 24 2 19 75 -4 72 -4 75 19 84 26 9 83 4 112 -11z
m-997 -43 c4 -8 17 -15 29 -15 13 0 26 -4 29 -8 3 -5 15 -87 26 -182 l22 -174
-34 -28 c-18 -15 -45 -28 -60 -28 -27 0 -28 2 -28 56 0 52 -2 55 -22 52 -18
-2 -24 -12 -29 -42 -4 -22 -15 -45 -25 -53 -15 -11 -139 -53 -157 -53 -7 0
-47 120 -47 142 0 19 32 36 87 45 26 4 37 0 57 -22 21 -22 29 -25 40 -16 21
17 -30 171 -56 171 -13 0 -18 -8 -18 -30 0 -37 -29 -57 -92 -66 l-45 -6 -13
61 c-9 42 -10 65 -3 72 6 6 36 17 67 25 58 15 81 11 115 -23 24 -25 36 1 22
47 -15 51 -6 65 52 79 62 13 77 13 83 -4z m1208 -42 c55 -40 69 -172 26 -258
-27 -54 -78 -95 -118 -95 -14 0 -41 10 -59 23 -42 28 -57 78 -51 167 11 149
111 230 202 163z m194 21 c12 -4 22 -11 22 -17 0 -6 12 -21 28 -33 l27 -22
-24 -69 c-13 -37 -42 -114 -64 -171 l-40 -103 -34 3 c-19 1 -37 -3 -42 -10 -9
-15 -41 -5 -41 12 0 7 14 22 30 35 85 62 114 191 68 293 -36 78 -14 104 70 82z
m332 -108 c65 -26 86 -38 88 -54 2 -15 -22 -48 -84 -114 -95 -102 -112 -116
-119 -96 -2 7 -11 71 -19 142 -21 176 -17 180 134 122z m-2247 -10 c3 -8 20
-16 38 -18 35 -3 24 22 105 -252 l27 -90 -27 -21 c-14 -11 -26 -26 -26 -32 0
-14 -131 -66 -141 -56 -12 12 -61 384 -54 411 3 12 10 22 15 22 6 0 10 8 10
18 0 10 3 22 7 25 12 12 41 7 46 -7z m-203 -82 c0 -12 7 -14 30 -9 38 8 45 -8
54 -132 6 -68 4 -93 -4 -93 -17 0 -170 140 -170 156 0 7 9 16 20 19 15 5 19
12 14 29 -4 17 1 25 18 34 32 15 38 14 38 -4z m2780 -44 c25 -13 40 -27 40
-39 0 -10 7 -24 15 -31 8 -7 15 -19 15 -27 0 -11 -158 -283 -176 -302 -2 -2
-24 -5 -50 -6 -40 -1 -47 1 -55 22 -5 13 -16 26 -24 29 -23 9 -19 26 44 199
l58 160 37 -1 c20 -1 36 3 36 7 0 14 18 11 60 -11z m-548 -66 c3 -32 8 -88 10
-124 3 -64 3 -65 -22 -62 -14 1 -30 9 -36 17 -6 8 -16 15 -21 15 -6 0 -16 7
-23 15 -10 12 -7 30 16 92 15 43 31 86 36 96 16 32 33 12 40 -49z m-2379 -48
c34 -29 37 -36 39 -93 1 -34 0 -65 -4 -69 -8 -8 -67 38 -126 98 -38 40 -41 46
-30 69 18 38 74 36 121 -5z m2657 17 c0 -5 -17 -51 -38 -103 l-37 -95 -45 -3
c-28 -2 -53 3 -65 11 -18 14 -15 19 64 106 49 53 91 91 102 91 10 0 19 -3 19
-7z m490 -80 c50 -28 70 -56 70 -98 0 -35 21 -43 39 -15 50 74 60 75 137 6 42
-38 46 -46 35 -60 -7 -9 -26 -16 -42 -16 -33 0 -36 -11 -14 -64 17 -40 9 -45
-29 -21 -22 15 -24 14 -30 -10 -4 -17 -13 -25 -29 -25 -39 0 -50 -15 -21 -29
23 -10 24 -14 13 -28 -13 -15 -9 -16 38 -11 45 4 55 2 74 -18 l22 -23 -25 -6
c-24 -6 -131 6 -174 20 -19 6 -21 3 -17 -18 5 -23 -21 -78 -36 -77 -3 1 -20
13 -38 28 l-32 28 40 42 c55 56 37 83 -29 45 -36 -21 -80 -10 -154 37 l-47 30
40 70 c23 38 43 70 46 70 4 0 26 -11 49 -25 52 -31 69 -57 54 -84 -8 -16 -6
-21 11 -26 11 -4 22 -5 23 -3 18 27 76 132 76 138 0 19 -22 21 -40 5 -24 -22
-66 -13 -110 23 -30 26 -32 30 -20 53 16 31 59 89 67 89 3 0 27 -12 53 -27z
m-3400 -6 c21 4 49 -18 173 -133 81 -75 147 -144 146 -153 0 -15 -244 -185
-291 -203 -23 -9 -70 21 -63 40 3 6 8 19 11 27 5 11 0 13 -25 5 -21 -6 -31 -5
-31 2 0 6 -13 8 -36 3 l-36 -6 7 31 c5 23 2 36 -10 50 -21 24 -10 43 21 36 14
-4 26 -1 31 7 4 8 17 17 28 21 18 7 18 8 3 17 -10 5 -14 17 -11 29 4 16 2 19
-12 14 -10 -4 -20 -1 -25 6 -7 11 -11 11 -24 1 -8 -7 -20 -10 -25 -7 -15 10
-8 47 11 57 9 5 15 16 12 23 -3 9 5 17 23 23 l28 10 -37 12 c-21 7 -38 17 -38
22 0 5 28 28 62 50 53 33 64 38 73 25 6 -8 21 -12 35 -9z m447 -112 c41 -37
70 -71 67 -79 -7 -19 -123 -72 -133 -60 -10 10 -32 185 -25 196 9 15 20 8 91
-57z m1733 0 c234 -37 484 -114 730 -224 149 -68 218 -106 373 -208 116 -77
141 -103 101 -103 -31 0 -11 -21 41 -45 35 -15 55 -30 55 -41 0 -14 -7 -16
-37 -11 -20 4 -42 2 -47 -2 -6 -5 -24 -11 -40 -13 -35 -4 -45 -24 -17 -33 16
-5 19 -12 14 -36 -5 -28 -4 -29 24 -23 38 7 52 -19 27 -47 -16 -18 -16 -20 1
-39 11 -12 31 -20 50 -20 45 0 63 -23 34 -43 -16 -12 -28 -13 -47 -6 -15 6
-38 7 -52 3 -14 -4 -42 -6 -63 -5 -35 2 -37 1 -28 -22 5 -14 6 -29 0 -38 -13
-21 -11 -29 10 -29 10 0 24 -7 31 -15 7 -8 27 -15 44 -15 39 0 76 -10 76 -20
0 -9 -42 -21 -85 -25 -16 -1 -40 -6 -53 -10 -21 -7 -22 -5 -16 19 8 32 3 32
-46 4 -47 -27 -88 -18 -108 25 -7 15 -17 27 -21 27 -5 0 -30 20 -57 45 -26 25
-55 45 -64 45 -9 0 -47 -20 -84 -45 -38 -25 -73 -45 -77 -45 -5 0 -43 11 -85
25 -95 31 -133 31 -258 0 -89 -22 -106 -23 -175 -14 -41 6 -79 13 -83 15 -4 3
-10 20 -14 38 -3 19 -15 44 -25 55 -11 11 -18 25 -17 32 2 6 -10 13 -26 15
-16 1 -33 9 -37 16 -25 41 -44 58 -65 58 -13 0 -31 11 -42 27 -17 24 -22 25
-36 14 -14 -12 -21 -12 -40 -1 -13 7 -29 9 -35 5 -7 -4 -18 -1 -26 5 -12 10
-18 10 -30 0 -12 -10 -17 -8 -26 13 -9 20 -18 25 -45 24 -32 -1 -34 -3 -34
-35 0 -28 -10 -46 -47 -86 -26 -28 -62 -62 -80 -75 -83 -61 -33 -152 59 -105
30 15 127 43 155 44 6 0 21 -25 32 -55 12 -31 30 -74 41 -95 28 -55 25 -65
-19 -78 -60 -19 -68 -16 -111 43 -50 67 -68 80 -149 101 -35 8 -93 32 -129 52
-97 53 -132 55 -293 20 -152 -34 -229 -34 -229 2 0 11 -11 22 -31 29 -28 10
-71 39 -110 76 -9 8 -19 15 -23 15 -4 0 -18 12 -31 26 -14 15 -31 24 -39 21
-9 -4 -18 -2 -22 4 -12 20 -60 32 -127 33 -60 1 -70 4 -87 26 -18 24 -19 24
-39 6 -19 -17 -24 -18 -46 -6 -32 17 -37 12 -24 -31 10 -31 6 -43 -43 -144
-52 -109 -53 -110 -91 -113 -25 -2 -39 1 -43 11 -6 16 -73 17 -146 2 -29 -6
-42 -3 -62 13 -22 17 -23 22 -12 37 7 10 11 27 8 37 -4 15 2 18 32 18 35 0 47
12 26 25 -18 11 -10 25 14 25 22 0 66 43 66 64 0 3 -18 6 -40 6 -22 0 -40 5
-40 10 0 6 -17 10 -37 10 -27 0 -48 9 -73 30 l-35 29 43 1 c27 0 55 8 77 23
42 26 44 37 9 37 -19 0 -25 4 -20 15 3 8 1 15 -4 15 -20 0 -9 17 20 31 16 8
95 59 176 113 171 115 446 256 614 315 146 51 413 116 555 135 152 20 637 15
785 -9z m-1593 -1036 c27 -48 42 -87 42 -111 1 -21 8 -53 17 -71 l16 -34 -38
-36 c-22 -20 -42 -37 -46 -37 -4 0 -14 -13 -22 -29 -15 -27 -14 -31 9 -65 14
-20 32 -50 40 -66 15 -28 19 -30 77 -30 58 0 95 -7 163 -33 17 -6 65 -12 109
-12 87 -1 100 8 69 49 -19 26 -42 33 -59 16 -13 -13 -144 9 -144 25 0 6 23 35
52 64 52 53 53 53 100 48 62 -8 142 7 213 38 31 14 58 25 60 25 3 0 5 -39 5
-86 0 -76 -3 -89 -25 -118 -14 -18 -25 -41 -25 -50 0 -22 -37 -94 -66 -129
-13 -16 -24 -37 -24 -48 0 -19 -15 -19 -655 -19 l-655 0 0 90 0 89 38 9 c40
10 193 9 211 -2 16 -11 62 24 57 43 -7 21 51 51 79 40 11 -4 39 -8 62 -8 32
-1 41 2 37 13 -3 8 4 20 15 28 21 15 21 15 -4 26 -14 7 -25 20 -25 31 0 11 -7
24 -16 29 -11 6 -14 14 -8 23 5 8 7 22 6 32 -2 9 2 17 7 17 22 0 10 16 -21 28
-30 11 -31 12 -14 31 9 10 14 21 9 24 -4 3 -47 13 -95 22 -75 15 -88 21 -88
38 0 17 5 19 45 15 44 -5 45 -5 43 21 -3 26 -2 26 59 24 59 -1 62 0 53 17 -8
15 -6 21 11 31 19 10 25 7 46 -20 36 -45 66 -41 116 15 43 49 95 86 112 81 6
-2 29 -37 52 -78z m2364 -74 c50 -40 56 -41 62 -17 3 12 7 9 17 -15 13 -36 25
-42 34 -18 8 22 25 18 38 -10 14 -30 28 -32 35 -5 6 23 38 27 62 7 25 -21 100
-51 108 -43 4 4 2 16 -5 26 -10 16 -9 21 7 30 24 12 61 13 81 0 24 -15 -5 -53
-71 -89 -56 -31 -59 -34 -44 -51 12 -14 26 -16 62 -12 55 6 57 -15 2 -33 -25
-9 -34 -18 -34 -34 0 -14 -10 -28 -24 -35 -21 -12 -22 -14 -7 -23 22 -12 11
-43 -15 -43 -28 0 -23 -15 13 -45 29 -25 37 -27 85 -21 40 5 59 2 78 -10 17
-11 29 -13 43 -5 10 5 27 10 38 11 10 0 58 3 106 6 69 5 89 3 92 -7 3 -8 7
-56 9 -106 l4 -93 -498 0 c-280 0 -499 4 -499 9 0 5 6 14 13 20 8 6 22 29 32
51 21 46 31 50 47 16 11 -26 60 -52 77 -41 6 3 11 19 11 35 0 22 -5 29 -22 32
-33 4 -27 44 22 146 22 47 38 93 35 102 -3 9 -21 25 -40 36 -44 23 -49 38 -28
77 11 20 18 61 20 107 1 41 3 76 3 78 0 6 10 0 51 -33z m-1303 14 c20 -7 34
-21 42 -42 23 -61 34 -77 52 -77 10 0 23 -9 30 -20 7 -11 18 -20 23 -20 6 0
28 -16 49 -35 l39 -35 -27 -25 c-14 -13 -26 -29 -26 -36 0 -36 25 -146 37
-160 7 -8 13 -21 13 -28 0 -7 8 -26 17 -42 16 -27 16 -30 -7 -79 l-23 -50
-322 0 -322 0 -7 32 c-5 23 -2 34 9 41 8 4 15 16 15 26 0 10 10 29 23 42 12
14 30 43 41 66 10 23 26 45 35 48 44 17 141 82 141 95 0 9 -6 24 -14 35 -32
47 -29 62 20 112 41 41 65 82 87 146 7 20 31 22 75 6z m932 -174 c7 -8 20 -15
29 -15 16 -1 62 -64 81 -114 5 -15 21 -42 35 -60 40 -52 35 -121 -12 -193 -21
-31 -42 -65 -48 -75 -9 -17 -31 -18 -372 -18 -200 0 -363 3 -363 8 0 4 14 41
31 82 24 58 79 243 79 264 0 7 80 17 190 24 107 8 198 36 291 90 42 25 44 25
59 7z m-1805 -85 c3 -5 -3 -30 -14 -55 l-20 -46 -48 3 c-41 3 -49 7 -66 36
-30 52 -14 62 115 70 15 1 30 -2 33 -8z"/>
</g>
</svg>
