<?xml version="1.0" standalone="no"?>
<!DOCTYPE svg PUBLIC "-//W3C//DTD SVG 20010904//EN"
 "http://www.w3.org/TR/2001/REC-SVG-20010904/DTD/svg10.dtd">
<svg version="1.0" xmlns="http://www.w3.org/2000/svg"
 width="580.000000pt" height="400.000000pt" viewBox="0 0 580.000000 400.000000"
 preserveAspectRatio="xMidYMid meet">
<metadata>
Created by potrace 1.16, written by Peter Selinger 2001-2019
</metadata>
<g transform="translate(0.000000,400.000000) scale(0.100000,-0.100000)"
fill="#000000" stroke="none">
<path d="M2575 3679 c-536 -41 -1115 -241 -1567 -541 -47 -32 -67 -39 -94 -36
l-34 4 20 -21 c24 -25 25 -35 5 -35 -21 0 -19 -17 5 -30 22 -12 27 -40 7 -40
-7 0 -18 5 -24 11 -7 7 -12 3 -17 -15 -5 -21 -12 -26 -38 -26 l-32 0 28 -29
c35 -37 29 -61 -15 -61 -29 0 -31 -2 -26 -27 3 -16 9 -36 12 -45 8 -20 -19
-26 -30 -8 -10 16 -22 12 -28 -10 -4 -15 -14 -20 -39 -20 l-33 0 24 -19 c14
-11 21 -23 16 -30 -5 -9 3 -12 33 -10 49 4 96 -23 72 -41 -18 -13 -121 -3
-167 16 l-33 13 16 -31 c13 -24 14 -36 5 -55 -10 -22 -9 -24 9 -18 28 9 60
-12 76 -50 8 -19 14 -39 14 -44 0 -5 -36 -7 -85 -3 -47 2 -85 2 -85 -2 0 -3 6
-15 13 -26 10 -17 9 -22 -2 -29 -20 -13 51 -43 102 -45 25 -1 42 -7 48 -19 14
-24 -9 -31 -81 -24 -35 4 -62 3 -65 -3 -3 -6 -19 -10 -36 -10 -31 0 -39 -14
-13 -24 12 -5 14 -13 10 -32 -6 -24 -5 -26 17 -20 37 9 56 -18 32 -44 -17 -19
-17 -21 1 -41 13 -15 26 -19 45 -15 18 3 32 0 40 -11 23 -27 -12 -41 -102 -39
-79 2 -80 2 -75 -20 3 -12 2 -34 -4 -48 -9 -24 -7 -26 15 -26 14 0 25 -4 25
-10 0 -5 17 -10 38 -10 21 0 47 -6 58 -14 18 -14 18 -15 -8 -25 -16 -6 -41 -8
-56 -5 -19 4 -32 1 -41 -10 -8 -9 -22 -16 -32 -16 -24 0 -29 -10 -18 -37 7
-19 16 -23 54 -23 72 0 77 -50 5 -52 -19 -1 -34 -7 -37 -17 -4 -9 -13 -24 -21
-33 -25 -29 0 -49 54 -41 57 7 59 -12 4 -27 -35 -10 -39 -14 -34 -34 4 -19 1
-26 -15 -31 -21 -6 -29 -25 -11 -25 19 0 10 -32 -10 -37 -27 -7 -25 -17 7 -43
24 -18 35 -21 84 -15 37 4 59 3 63 -4 9 -14 69 -14 83 0 13 13 126 16 161 5
22 -7 23 -11 20 -104 -3 -108 1 -102 -102 -138 -125 -43 -242 -178 -272 -312
-54 -241 53 -447 278 -536 l66 -26 2026 0 2025 0 73 34 c158 72 263 238 260
411 -2 122 -53 245 -134 326 -46 46 -151 106 -199 114 -21 4 -42 12 -47 18 -5
7 -12 47 -16 89 -7 74 -6 78 18 93 18 12 30 14 42 7 12 -6 27 -7 43 0 30 11
97 2 129 -18 20 -13 22 -13 22 6 0 11 7 23 15 26 8 4 15 14 15 23 0 30 36 42
101 35 50 -6 59 -4 59 9 0 9 8 21 18 26 16 9 15 11 -5 26 -13 9 -23 22 -23 30
0 8 -8 19 -17 24 -14 8 -15 13 -5 19 7 5 10 16 7 24 -4 9 -1 19 6 23 7 5 0 13
-21 21 -32 14 -32 15 -16 33 17 19 15 20 -61 36 -109 23 -106 21 -93 45 15 28
49 45 63 31 18 -18 27 -13 27 15 0 14 10 40 22 57 l22 30 -37 -6 c-25 -4 -39
-1 -48 9 -7 9 -20 12 -36 8 -17 -5 -31 0 -48 16 -21 20 -23 25 -11 42 8 11 12
28 9 39 -4 16 0 19 27 19 27 0 30 3 25 20 -5 15 -2 20 14 20 16 0 61 46 61 62
0 2 -15 2 -34 0 -18 -2 -37 1 -40 7 -4 6 -21 11 -38 11 -30 0 -88 33 -88 51 0
5 16 9 36 9 20 0 49 8 65 17 31 19 38 33 15 33 -8 0 -17 4 -20 9 -9 15 5 41
21 41 13 0 13 3 2 16 -10 13 -10 17 2 25 8 5 17 9 22 9 20 0 4 20 -17 20 -19
0 -25 7 -30 33 l-7 32 -28 -35 c-24 -28 -32 -32 -43 -22 -12 9 -26 9 -67 -2
-43 -11 -54 -11 -58 -1 -7 19 33 55 62 55 14 0 29 8 35 20 6 11 18 20 26 20
11 0 14 6 10 16 -4 11 1 18 14 21 11 3 20 9 20 13 0 11 -69 24 -107 21 -18 -1
-33 0 -33 4 0 15 34 55 46 55 17 0 17 5 4 31 -14 25 6 34 44 19 27 -10 28 -9
22 14 -5 21 -1 28 21 40 l28 15 -25 1 c-14 0 -38 7 -54 15 -23 12 -36 13 -59
5 -17 -5 -34 -10 -38 -10 -15 0 -10 37 6 50 8 7 15 18 15 25 0 8 8 15 18 18
12 3 9 7 -15 17 -33 12 -45 42 -23 55 6 3 10 10 10 16 0 16 -36 10 -63 -11
-14 -11 -30 -20 -36 -20 -19 0 -12 29 9 40 24 13 26 30 5 30 -21 0 -19 10 6
36 l22 23 -35 -5 c-31 -5 -48 2 -129 53 -329 208 -625 337 -989 428 -368 93
-722 123 -1105 94z m202 -195 c3 -9 -7 -34 -26 -60 -30 -44 -52 -110 -47 -143
2 -9 6 -33 10 -53 7 -37 7 -38 -22 -32 -25 5 -30 2 -42 -26 -18 -43 -46 -59
-117 -66 -46 -5 -62 -3 -69 7 -8 13 -42 244 -43 297 -1 15 8 26 24 34 14 6 25
17 25 23 0 17 21 21 105 24 38 1 72 4 74 7 2 2 31 4 63 4 44 0 60 -4 65 -16z
m403 -3 c38 -11 35 -37 -9 -88 -23 -25 -46 -64 -52 -87 -15 -53 -6 -133 20
-183 11 -23 18 -43 14 -46 -8 -8 -96 3 -107 14 -6 5 -3 16 7 27 33 37 10 67
-26 34 -46 -42 -135 -45 -178 -6 -43 39 -62 93 -56 160 7 91 60 154 129 154
39 0 89 -38 105 -80 25 -62 43 -52 43 23 0 36 5 68 12 75 13 13 58 14 98 3z
m-908 -43 c3 -7 13 -13 23 -13 24 0 45 -39 45 -83 0 -18 7 -80 16 -137 17
-110 15 -131 -13 -142 -10 -4 -24 -13 -31 -20 -7 -7 -22 -13 -33 -13 -16 0
-19 7 -19 56 0 46 -3 55 -17 52 -9 -2 -21 -19 -28 -37 -6 -19 -22 -43 -36 -53
-29 -22 -131 -51 -140 -40 -12 14 -41 123 -36 136 6 14 51 26 98 26 19 0 30
-6 34 -20 7 -22 13 -24 32 -12 10 6 8 23 -7 72 -27 90 -27 90 -45 84 -9 -4
-14 -13 -11 -21 13 -33 -99 -94 -123 -67 -12 13 -32 104 -26 114 3 5 29 16 57
25 49 14 54 14 95 -6 24 -12 46 -20 48 -17 2 2 -1 23 -7 46 -12 50 -6 60 44
72 50 12 76 11 80 -2z m1287 -19 c17 -6 31 -17 31 -25 0 -8 6 -14 14 -14 7 0
19 -6 25 -14 9 -11 3 -37 -27 -117 -22 -57 -45 -122 -52 -144 -16 -51 -38 -77
-61 -70 -10 3 -27 0 -38 -7 -16 -10 -23 -10 -33 0 -10 10 -4 20 29 50 80 71
101 178 53 272 -24 47 -24 45 -4 64 18 19 22 19 63 5z m-169 -26 c45 -41 59
-119 36 -193 -22 -69 -42 -96 -86 -113 -45 -18 -92 -6 -115 29 -42 64 -23 218
35 275 38 39 88 39 130 2z m488 -74 c44 -16 83 -37 86 -45 8 -21 -179 -213
-193 -199 -11 11 -32 240 -24 261 8 21 44 17 131 -17z m-2078 -14 c0 -11 8
-13 29 -9 29 6 30 5 51 -67 12 -41 32 -108 46 -149 13 -41 24 -82 24 -90 0
-36 -140 -129 -168 -111 -6 3 -21 87 -35 186 -23 176 -24 181 -6 214 26 50 59
64 59 26z m-186 -70 c4 -12 10 -13 25 -6 14 8 22 7 29 -2 14 -17 33 -190 22
-201 -10 -10 -42 13 -125 88 l-50 46 24 18 c13 11 21 24 17 30 -3 6 4 18 16
26 28 20 34 20 42 1z m2566 -41 c31 -13 40 -21 40 -40 0 -13 4 -24 9 -24 26 0
12 -40 -59 -159 -43 -73 -81 -135 -84 -138 -4 -4 -26 -8 -51 -9 -33 -2 -45 1
-45 11 0 8 -9 19 -20 25 -28 15 -26 33 25 172 65 175 60 166 97 171 18 2 36 5
40 5 4 1 26 -5 48 -14z m-504 -115 c6 -57 9 -107 7 -111 -6 -12 -43 -9 -43 2
0 6 -11 15 -24 22 -14 6 -27 17 -30 24 -8 20 55 175 68 171 6 -2 16 -51 22
-108z m-2189 -1 c19 -21 28 -68 24 -125 -2 -25 -27 -11 -94 52 -62 58 -67 66
-55 84 13 21 62 32 88 20 8 -4 25 -18 37 -31z m2443 28 c0 -24 -66 -179 -78
-184 -36 -13 -112 0 -112 20 0 18 153 168 172 168 10 0 18 -2 18 -4z m473 -91
c40 -30 47 -40 47 -70 0 -46 22 -46 49 0 27 46 49 45 106 -7 55 -51 55 -78 -1
-78 l-34 0 15 -36 c8 -20 15 -40 15 -45 0 -15 -20 -10 -38 8 -16 16 -17 15
-20 -5 -3 -21 -10 -24 -67 -35 -18 -3 -17 -5 8 -17 20 -10 26 -18 22 -32 -6
-16 -2 -17 37 -12 35 5 46 2 61 -14 17 -19 17 -20 -8 -26 -15 -4 -36 -4 -47 0
-11 3 -35 7 -52 9 -17 1 -41 6 -54 10 -21 7 -22 5 -17 -18 5 -18 1 -31 -14
-46 l-21 -21 -30 22 c-17 12 -30 25 -30 28 0 3 16 21 35 40 19 19 35 37 35 41
0 15 -34 18 -50 4 -27 -24 -77 -18 -136 17 -30 18 -54 37 -54 43 0 15 64 118
76 122 5 2 29 -11 52 -28 35 -26 42 -36 42 -65 0 -23 5 -34 15 -34 18 0 88
118 81 136 -7 18 -21 18 -36 -1 -7 -8 -19 -15 -27 -15 -26 0 -104 52 -99 66
15 38 59 94 74 94 9 0 38 -16 65 -35z m-3188 15 c3 -6 17 -7 30 -4 21 5 42
-11 142 -107 121 -115 152 -148 153 -161 0 -4 -26 -24 -57 -45 -32 -20 -89
-58 -128 -83 -89 -60 -101 -63 -131 -44 -23 16 -24 18 -8 41 16 25 16 25 -15
18 -19 -4 -31 -3 -31 4 0 6 -11 6 -32 0 -18 -5 -34 -9 -35 -9 -1 0 0 13 3 28
4 19 0 34 -11 45 -21 21 -10 40 21 34 14 -2 25 1 28 9 3 8 13 14 22 14 11 0
14 5 10 16 -3 9 -6 23 -6 33 0 14 -8 17 -45 15 -41 -3 -45 -1 -45 20 0 13 7
26 15 30 8 3 12 12 9 19 -3 9 4 17 18 21 22 6 22 7 -9 21 -18 8 -33 17 -33 20
0 8 103 74 117 74 6 1 15 -4 18 -9z m441 -107 c35 -32 64 -63 64 -69 0 -12
-117 -70 -125 -62 -7 7 -25 121 -25 161 0 15 5 27 11 27 6 0 39 -26 75 -57z
m1609 -3 c383 -67 749 -213 1055 -423 69 -48 85 -67 54 -67 -30 0 -7 -25 37
-41 31 -12 45 -23 47 -39 3 -17 0 -21 -15 -17 -10 3 -27 8 -39 11 -13 4 -26 1
-34 -9 -7 -8 -27 -15 -44 -15 l-31 0 24 -19 c18 -13 22 -23 16 -40 -6 -21 -5
-23 23 -16 23 5 31 2 36 -12 4 -11 1 -22 -8 -29 -9 -6 -16 -16 -16 -21 0 -19
39 -46 59 -40 11 3 28 -1 38 -9 30 -23 -3 -34 -94 -31 l-83 3 2 -31 c1 -16 -1
-40 -6 -52 -6 -19 -4 -23 12 -23 11 0 25 -7 32 -15 8 -9 30 -15 56 -15 44 0
58 -12 28 -24 -9 -3 -28 -6 -43 -6 -15 0 -36 -7 -47 -15 -10 -8 -27 -15 -38
-15 -28 0 -4 -24 50 -50 47 -23 51 -29 32 -48 -23 -23 -54 -14 -74 24 -12 23
-39 48 -74 68 -74 44 -113 56 -176 56 -40 0 -55 4 -63 18 -9 16 -12 15 -38
-10 -17 -16 -40 -28 -56 -28 -26 0 -67 34 -67 56 0 6 -7 14 -15 18 -26 10 -44
-4 -43 -35 1 -16 -2 -32 -6 -36 -7 -7 -186 77 -186 87 0 4 -34 23 -75 44 -41
21 -78 42 -81 48 -4 6 -10 5 -16 -3 -7 -11 -11 -11 -15 -1 -9 24 -20 12 -26
-29 -3 -25 -21 -63 -46 -99 -46 -65 -49 -81 -22 -107 16 -15 19 -39 24 -163 3
-80 13 -172 21 -205 9 -33 15 -84 16 -114 0 -47 -4 -57 -33 -86 -36 -36 -105
-52 -177 -40 l-39 7 4 161 c2 89 7 181 11 204 5 34 2 47 -15 69 -26 33 -27 61
-3 88 40 46 43 84 14 171 -34 100 -35 102 -73 110 -16 4 -35 15 -42 26 -19 30
-58 23 -105 -19 -42 -38 -55 -72 -27 -72 21 0 19 -7 -16 -62 -29 -45 -31 -54
-26 -113 5 -72 -7 -85 -38 -39 -14 22 -22 25 -47 20 -31 -6 -33 -5 -114 86
-32 36 -39 50 -32 67 7 20 5 22 -15 15 -12 -3 -29 -13 -38 -20 -9 -8 -18 -12
-20 -10 -2 3 -65 7 -139 11 -230 10 -237 12 -242 76 -2 19 -7 37 -12 41 -17
12 -44 -11 -51 -42 -7 -30 -46 -60 -78 -60 -8 0 -27 16 -41 35 -31 41 -43 44
-48 13 -2 -13 -7 -23 -13 -23 -5 -1 -27 -7 -47 -14 -21 -7 -47 -9 -59 -6 -19
6 -133 -23 -188 -49 -13 -6 -33 -30 -43 -53 -16 -37 -18 -59 -12 -200 5 -126
10 -166 25 -196 10 -21 19 -53 19 -72 0 -37 17 -56 31 -34 5 8 9 31 9 52 0 26
4 37 13 35 13 -5 48 -116 51 -163 1 -25 -3 -30 -21 -29 -116 3 -115 3 -108 24
4 11 2 20 -4 20 -6 0 -11 7 -11 15 0 8 -7 15 -15 15 -18 0 -19 6 -23 116 -2
33 -7 43 -28 54 -34 19 -47 45 -34 69 8 16 5 21 -20 30 -31 10 -42 41 -15 41
9 0 18 8 22 18 3 9 15 25 27 35 12 10 17 20 11 23 -33 15 -39 23 -26 37 15 18
11 21 -59 37 -87 20 -100 24 -102 35 -2 6 16 11 40 13 38 3 42 6 42 29 0 25 1
26 56 19 39 -4 53 -3 49 5 -4 6 2 19 14 30 29 27 26 36 -14 43 -26 5 -35 12
-35 27 0 18 -1 19 -25 3 -15 -10 -34 -14 -48 -10 -12 3 -37 0 -55 -6 -30 -11
-35 -10 -56 13 -21 22 -22 28 -10 44 8 10 12 27 8 37 -4 15 0 18 26 18 27 0
30 3 25 20 -5 16 -2 20 14 20 13 0 29 13 41 33 l20 32 -43 8 c-23 5 -56 9 -73
9 -22 0 -40 9 -60 29 l-28 29 38 0 c23 0 54 9 75 23 34 21 35 22 12 25 -13 2
-26 12 -28 23 -3 10 -13 19 -22 20 -9 0 0 5 19 11 19 5 44 18 55 28 35 32 277
185 375 238 249 133 589 234 917 272 135 15 511 4 648 -20z m235 -1052 c38
-44 46 -61 51 -108 4 -30 19 -88 34 -129 21 -58 27 -92 27 -160 1 -78 -2 -92
-32 -148 l-32 -61 -98 0 c-53 0 -103 3 -110 8 -9 6 -6 19 15 54 31 52 31 71 1
231 -9 44 -15 135 -16 203 l0 123 43 19 c23 10 49 19 57 19 8 1 35 -22 60 -51z
m-935 -68 c31 -16 63 -30 70 -30 28 0 38 -32 40 -123 3 -153 62 -248 119 -191
13 12 16 38 16 120 0 110 8 126 36 72 14 -26 15 -56 11 -197 l-6 -166 -150 0
c-82 0 -153 3 -157 7 -4 5 -11 36 -16 70 -7 56 -6 64 14 85 12 12 20 24 17 25
-2 2 -19 11 -36 20 l-33 17 -15 -33 c-17 -35 -26 -46 -88 -97 -31 -26 -38 -38
-35 -63 l3 -31 -82 -3 -82 -3 -25 44 c-14 24 -26 52 -26 62 0 34 31 129 61
187 16 31 29 64 29 72 0 9 13 22 29 30 15 8 34 29 41 45 15 37 61 67 138 92
72 23 61 24 127 -11z m427 -66 c43 -184 54 -326 32 -406 -7 -23 -38 -32 -64
-18 -21 11 -21 15 -15 223 4 117 8 218 11 225 7 22 28 8 36 -24z m-222 -19
l24 -2 1 -116 c0 -124 -9 -152 -43 -131 -43 26 -71 131 -58 219 7 42 9 45 29
39 12 -4 33 -8 47 -9z m-881 -61 c48 -19 76 -25 109 -21 30 3 45 1 48 -8 3 -7
17 -16 31 -20 l25 -6 -6 -92 c-8 -101 -9 -146 -4 -192 2 -25 0 -30 -17 -28
-28 3 -214 4 -248 0 -25 -2 -33 6 -65 56 -43 70 -55 153 -28 205 9 17 21 54
27 82 9 44 14 50 37 50 14 0 55 -12 91 -26z m2166 10 c29 -30 52 -88 59 -152
8 -73 -3 -117 -45 -179 -16 -23 -29 -46 -29 -52 0 -6 -12 -11 -27 -12 -53 -2
-148 -3 -196 -1 l-48 2 1 63 c1 34 -2 113 -5 175 -6 84 -5 112 4 112 8 0 10
-8 6 -19 -7 -24 22 -43 53 -34 15 3 22 13 22 29 0 19 5 24 28 24 15 0 54 13
87 30 71 35 69 34 90 14z m-2655 -144 c0 -17 10 -52 23 -78 25 -50 25 -82 1
-82 -12 0 -16 -8 -16 -30 0 -3 3 -15 6 -27 l7 -22 -178 2 -178 2 -7 74 c-6 60
-5 79 8 99 15 24 18 24 132 21 122 -4 142 0 142 30 0 16 30 38 53 40 4 1 7
-13 7 -29z m3008 -36 c19 -13 28 -14 51 -4 38 15 192 22 208 8 9 -7 13 -39 13
-99 0 -78 -2 -90 -20 -99 -11 -6 -20 -8 -20 -4 0 3 -7 1 -15 -6 -15 -12 -321
-23 -371 -13 -21 4 -22 10 -20 110 1 75 5 108 14 110 7 3 12 -4 12 -17 0 -11
8 -30 19 -41 19 -20 19 -20 40 7 11 15 21 32 21 40 0 12 14 22 35 23 6 1 21
-6 33 -15z"/>
</g>
</svg>
