<?xml version="1.0" standalone="no"?>
<!DOCTYPE svg PUBLIC "-//W3C//DTD SVG 20010904//EN"
 "http://www.w3.org/TR/2001/REC-SVG-20010904/DTD/svg10.dtd">
<svg version="1.0" xmlns="http://www.w3.org/2000/svg"
 width="580.000000pt" height="400.000000pt" viewBox="0 0 580.000000 400.000000"
 preserveAspectRatio="xMidYMid meet">
<metadata>
Created by potrace 1.16, written by Peter Selinger 2001-2019
</metadata>
<g transform="translate(0.000000,400.000000) scale(0.100000,-0.100000)"
fill="#000000" stroke="none">
<path d="M2590 3650 c-41 -5 -122 -14 -180 -20 -113 -12 -129 -15 -355 -66
-324 -73 -660 -216 -982 -418 -110 -69 -124 -75 -159 -69 l-39 6 23 -25 c27
-29 28 -38 5 -38 -14 -1 -12 -6 11 -26 21 -18 26 -28 18 -36 -8 -8 -15 -8 -26
2 -13 10 -17 8 -26 -14 -7 -21 -16 -26 -42 -26 l-33 -1 35 -28 c29 -25 32 -31
21 -45 -7 -9 -26 -16 -42 -16 -33 0 -34 -5 -14 -40 27 -47 11 -68 -26 -34 -16
14 -18 14 -24 -6 -4 -13 -18 -23 -37 -27 -27 -5 -29 -8 -14 -18 9 -7 16 -20
16 -29 0 -15 6 -17 37 -12 29 5 44 1 63 -13 l25 -20 -30 -11 c-21 -9 -38 -9
-58 -2 -16 6 -34 9 -42 6 -7 -3 -28 2 -46 11 -31 16 -32 16 -24 -1 5 -11 8
-34 8 -51 -1 -27 2 -33 18 -33 26 0 69 -43 69 -69 0 -17 5 -20 29 -15 35 7 49
-11 21 -26 -15 -8 -31 -7 -63 3 -66 21 -177 7 -137 -18 15 -10 12 -23 -8 -28
-25 -6 52 -39 108 -46 33 -4 46 -11 48 -24 4 -17 -3 -19 -66 -16 -39 2 -74 0
-78 -4 -4 -4 -18 -7 -30 -7 -28 0 -41 -18 -19 -26 12 -5 15 -14 10 -32 -5 -22
-3 -24 19 -20 37 7 54 -16 31 -42 -17 -19 -17 -21 1 -41 11 -12 26 -18 39 -15
11 3 29 -2 40 -10 l20 -15 -20 -15 c-13 -9 -29 -12 -45 -8 -14 3 -32 6 -40 4
-8 -1 -32 -2 -53 -2 -36 0 -38 -2 -33 -23 3 -13 2 -27 -4 -30 -20 -12 -10 -35
14 -35 14 0 28 -4 31 -10 3 -5 21 -10 38 -10 73 -1 73 -40 0 -45 -31 -3 -93
-20 -112 -32 -2 -1 2 -16 9 -32 10 -26 15 -29 37 -20 22 8 73 3 73 -8 0 -21
-25 -43 -48 -43 -36 0 -89 -62 -67 -80 8 -7 27 -9 49 -4 29 5 36 3 36 -9 0 -9
-13 -18 -31 -22 -26 -6 -30 -10 -25 -31 5 -17 1 -26 -15 -34 -15 -9 -18 -15
-9 -25 8 -10 6 -18 -11 -34 l-22 -20 24 -20 c26 -22 37 -24 112 -21 30 1 47
-3 47 -10 0 -11 52 -5 75 8 9 6 57 13 80 12 35 -2 95 -13 96 -19 1 -3 3 -46 4
-95 l3 -88 -57 -25 c-31 -13 -78 -34 -104 -46 -90 -39 -185 -164 -219 -286
-22 -80 -23 -125 -2 -204 36 -138 126 -252 246 -308 l73 -34 2018 -3 c1996 -2
2018 -2 2056 18 104 53 170 112 221 199 103 177 70 391 -87 552 -43 44 -76 63
-188 106 l-50 19 -3 87 c-2 65 0 87 10 89 110 13 177 11 204 -7 31 -20 34 -19
34 10 0 16 6 25 16 25 10 0 13 6 10 18 -8 25 43 44 86 31 37 -10 81 -2 75 15
-2 6 5 16 16 22 20 11 20 12 -1 18 -14 5 -22 16 -22 31 0 12 -6 25 -14 28 -16
6 -10 58 8 69 6 4 -2 12 -21 19 -33 11 -41 23 -23 34 6 3 10 10 10 14 0 9
-117 41 -150 41 -39 0 -14 50 27 52 10 0 27 -3 37 -7 17 -7 18 -5 12 19 -5 20
-1 35 16 58 l22 31 -32 -6 c-24 -5 -34 -2 -45 13 -9 13 -17 16 -27 9 -21 -13
-32 -11 -60 10 -20 16 -22 22 -11 35 7 8 10 24 6 36 -6 17 -2 20 28 20 31 0
34 2 30 24 -4 19 0 25 17 28 13 2 29 13 38 25 14 22 14 23 -22 23 -20 0 -36 5
-36 10 0 6 -17 10 -38 10 -27 0 -45 7 -60 23 -31 32 -28 37 21 37 29 1 51 8
72 25 l30 25 -27 0 c-23 0 -28 4 -28 25 0 19 5 25 23 26 12 0 16 3 10 6 -18 7
-16 30 2 37 22 8 18 24 -7 28 -16 2 -24 12 -28 32 l-5 29 -25 -30 c-19 -23
-33 -30 -60 -29 -19 0 -51 -3 -71 -7 -32 -6 -37 -5 -42 13 -3 12 0 20 8 20 7
0 18 7 25 15 8 9 21 13 35 9 17 -4 25 -1 30 15 3 11 15 23 26 26 10 4 17 11
14 16 -4 5 6 14 20 21 l26 12 -45 18 c-35 13 -52 15 -72 8 -15 -6 -29 -8 -32
-6 -8 9 28 56 43 56 18 0 19 12 4 27 -18 18 -1 33 34 30 25 -1 31 2 29 15 -1
9 7 22 19 29 17 9 19 13 8 20 -8 5 -24 9 -36 9 -13 0 -23 5 -23 10 0 7 -18 8
-50 4 -41 -5 -50 -4 -50 8 0 9 7 21 15 28 10 9 12 17 6 23 -6 6 -6 19 -1 33 9
22 7 24 -19 24 -20 0 -30 6 -34 19 -3 14 -11 18 -26 14 -28 -7 -27 14 2 38 19
16 19 18 5 19 -10 0 -18 5 -18 12 0 6 8 20 18 31 17 19 16 19 -28 12 -25 -5
-52 -8 -62 -7 -9 0 -63 32 -120 70 -304 205 -734 377 -1153 461 -89 18 -157
28 -315 46 -90 10 -427 14 -500 5z m144 -186 c23 -9 20 -42 -8 -79 -28 -37
-48 -127 -39 -181 4 -21 2 -35 -3 -32 -17 10 -54 -11 -54 -31 0 -11 -14 -28
-35 -41 -36 -23 -138 -39 -148 -24 -5 9 -19 94 -37 234 -9 67 -1 100 25 100 8
0 15 8 15 18 0 17 14 20 123 29 67 5 127 10 134 11 6 1 18 -1 27 -4z m430 -20
c26 -10 18 -48 -15 -80 -48 -45 -63 -82 -63 -155 0 -50 5 -74 22 -104 32 -53
24 -66 -35 -59 -62 8 -68 15 -43 47 32 40 16 49 -37 22 -125 -67 -233 10 -220
158 4 46 12 68 35 96 39 48 68 57 123 40 36 -12 47 -21 64 -56 13 -27 27 -42
39 -43 17 0 18 6 13 49 -9 79 -3 91 53 91 27 0 55 -3 64 -6z m-879 -55 c23 -5
35 -55 56 -227 14 -113 13 -116 -45 -146 -40 -20 -56 -6 -56 50 0 33 -4 44
-15 44 -9 0 -18 -8 -21 -17 -21 -66 -27 -73 -80 -93 -90 -33 -98 -30 -118 42
-17 62 -17 63 4 80 30 24 85 23 110 -2 20 -20 55 -17 47 4 -2 6 -14 41 -26 78
-16 49 -26 65 -37 61 -8 -3 -14 -16 -14 -29 0 -30 -35 -54 -85 -57 -38 -2 -39
-1 -53 45 -18 57 -11 70 55 92 40 14 48 14 74 0 16 -8 29 -19 29 -24 0 -6 7
-10 16 -10 13 0 14 9 9 54 -8 61 -5 64 63 75 33 5 50 4 57 -5 6 -6 19 -13 30
-15z m1072 -26 c21 -14 53 -98 53 -140 0 -37 -31 -109 -60 -141 -54 -60 -147
-35 -170 46 -14 53 -13 82 11 157 19 61 24 68 62 85 43 20 65 18 104 -7z m162
21 c17 -4 31 -12 31 -19 0 -7 11 -16 25 -19 16 -4 25 -13 25 -25 0 -23 -98
-291 -113 -309 -6 -7 -20 -11 -31 -8 -11 3 -25 1 -32 -5 -6 -5 -19 -6 -28 -3
-15 6 -11 13 23 48 75 77 94 175 51 269 -17 38 -19 51 -10 63 14 16 16 16 59
8z m298 -89 c21 -9 53 -23 71 -31 19 -8 32 -21 32 -32 0 -20 -156 -192 -175
-192 -18 0 -24 30 -31 164 l-7 119 36 -6 c20 -3 53 -13 74 -22z m-2027 -19 c0
-9 12 -16 33 -18 32 -3 32 -3 65 -118 48 -166 50 -195 21 -224 -34 -33 -129
-80 -141 -68 -5 5 -16 67 -24 138 -28 240 -28 239 -11 256 9 9 13 19 9 22 -7
8 17 26 36 26 6 0 12 -6 12 -14z m-184 -77 c3 -6 17 -8 30 -5 19 5 26 2 33
-16 12 -34 21 -177 11 -183 -10 -6 -160 121 -160 135 0 5 9 14 21 20 11 7 18
18 15 26 -3 7 3 18 12 23 22 13 29 13 38 0z m2560 -49 c2 0 4 -11 4 -24 0 -13
7 -26 15 -30 25 -9 18 -33 -44 -134 -32 -53 -66 -112 -75 -129 -15 -31 -20
-33 -66 -33 -34 0 -50 4 -50 13 0 7 -9 18 -20 25 -11 7 -20 20 -20 30 0 9 25
80 54 157 52 138 53 140 84 141 17 0 34 3 38 7 4 3 22 0 41 -8 20 -8 37 -15
39 -15z m-532 -42 c18 -179 18 -178 -1 -178 -10 1 -33 14 -52 30 l-33 28 22
69 c40 121 55 133 64 51z m-2215 -32 c18 3 35 -3 53 -18 24 -20 28 -32 30 -82
2 -33 -1 -60 -7 -62 -5 -2 -41 25 -78 59 -66 60 -67 63 -55 89 8 16 17 23 22
18 5 -5 21 -7 35 -4z m2461 -43 c-7 -21 -23 -62 -36 -90 -23 -52 -24 -53 -66
-53 -52 0 -74 12 -62 33 5 8 42 50 82 93 52 55 76 74 83 67 8 -8 8 -22 -1 -50z
m464 -38 c43 -25 66 -59 66 -95 0 -29 14 -24 44 15 15 19 32 35 39 35 7 0 34
-19 60 -43 57 -49 57 -77 1 -77 -38 0 -40 -4 -19 -40 24 -41 19 -55 -11 -35
-24 16 -26 16 -31 -4 -4 -15 -16 -23 -45 -28 l-41 -6 23 -17 c14 -11 21 -24
17 -33 -5 -13 2 -15 46 -10 41 4 56 2 66 -11 11 -13 10 -17 -14 -26 -17 -6
-33 -7 -44 0 -10 5 -31 9 -47 9 -16 -1 -39 2 -51 6 -21 7 -23 4 -23 -24 0 -17
-4 -31 -10 -31 -5 0 -10 -7 -10 -15 0 -8 -2 -15 -5 -15 -13 0 -65 45 -65 55 0
6 16 26 35 45 31 30 33 34 17 46 -13 10 -21 8 -41 -8 -19 -14 -34 -18 -58 -13
-36 6 -123 60 -123 76 0 5 16 34 36 64 l36 54 38 -19 c45 -23 54 -35 55 -74 0
-16 5 -31 12 -33 10 -4 76 86 90 122 7 20 -28 27 -47 10 -9 -8 -20 -15 -25
-15 -13 0 -95 54 -95 63 0 15 61 97 71 97 6 0 30 -11 53 -25z m-3134 4 c0 -7
11 -9 28 -6 26 5 42 -7 165 -124 76 -72 137 -134 137 -138 0 -3 -33 -26 -72
-51 -40 -24 -100 -63 -133 -87 -32 -24 -66 -43 -75 -43 -28 1 -52 27 -45 49 7
23 -9 27 -83 22 -31 -3 -33 -1 -23 17 8 16 6 25 -9 45 -27 34 -25 37 13 37 46
1 65 19 60 57 -4 23 -9 30 -20 26 -8 -3 -19 0 -25 8 -7 11 -11 11 -15 2 -2 -7
-11 -13 -19 -13 -17 0 -17 1 -2 37 6 15 10 33 9 40 -1 7 11 16 26 19 l28 7
-40 17 -39 17 54 36 c56 38 80 46 80 26z m443 -110 c37 -33 65 -65 61 -70 -9
-16 -105 -61 -118 -56 -12 5 -38 165 -30 179 9 14 19 8 87 -53z m1522 10 c50
-6 108 -14 130 -19 144 -32 192 -45 295 -77 235 -72 416 -161 654 -318 85 -57
95 -68 76 -80 -19 -12 -10 -24 34 -40 46 -18 66 -42 43 -51 -8 -3 -25 0 -40 5
-19 8 -28 6 -37 -5 -7 -7 -23 -14 -36 -14 -27 0 -31 -12 -10 -29 8 -7 12 -21
8 -33 -4 -18 -2 -20 22 -16 33 7 46 -16 23 -39 -14 -14 -14 -18 0 -39 11 -17
25 -24 49 -24 35 0 55 -17 34 -30 -7 -4 -49 -7 -94 -5 l-81 3 -1 -49 c0 -40 3
-49 17 -49 10 0 21 -4 24 -10 3 -5 21 -10 38 -10 36 0 65 -15 54 -26 -4 -5
-24 -9 -45 -10 -117 -5 -159 -92 -44 -91 23 0 45 -3 49 -6 13 -13 -20 -36 -55
-39 -27 -2 -38 -8 -41 -23 -2 -11 -10 -24 -18 -30 -13 -9 -12 -14 4 -34 17
-20 22 -22 41 -12 22 12 42 8 42 -9 0 -5 -13 -11 -30 -15 -20 -4 -30 -13 -30
-25 0 -33 -19 -32 -35 2 -69 145 -108 197 -179 242 -52 33 -116 56 -154 56
-12 0 -23 8 -27 20 -3 11 -15 20 -25 20 -22 0 -31 31 -36 118 -4 72 -9 84 -65
148 l-41 48 22 18 c27 22 18 38 -24 38 -17 0 -36 4 -42 10 -16 16 -74 -11 -80
-37 -3 -12 -12 -27 -20 -34 -8 -6 -14 -22 -14 -36 0 -20 4 -23 20 -18 25 8 82
-48 73 -71 -3 -8 0 -21 6 -28 17 -20 10 -117 -9 -126 -8 -4 -25 -12 -37 -18
-13 -7 -28 -12 -35 -12 -7 0 -24 -9 -37 -19 -23 -17 -23 -19 -6 -44 21 -33 11
-51 -25 -44 -16 4 -35 0 -46 -8 -13 -9 -23 -10 -31 -3 -7 6 -22 8 -33 5 -11
-3 -22 -1 -25 4 -3 4 -17 4 -31 -1 -14 -6 -30 -8 -35 -4 -5 3 -15 2 -21 -3 -7
-4 -24 -9 -38 -11 -14 -2 -26 -7 -28 -13 -2 -5 -13 -7 -25 -4 -17 4 -25 -2
-37 -27 -13 -29 -19 -33 -52 -32 -33 1 -38 -2 -38 -22 0 -12 -5 -24 -12 -26
-6 -2 -17 -23 -24 -47 -10 -35 -10 -43 1 -47 20 -8 35 -60 35 -124 0 -43 5
-64 21 -84 24 -30 40 -32 80 -9 15 9 31 14 35 10 10 -10 -25 -46 -61 -64 -31
-16 -39 -22 -88 -67 -27 -25 -33 -26 -151 -26 l-123 0 -42 46 c-36 39 -81 111
-81 129 0 12 44 3 79 -17 34 -19 41 -20 56 -8 13 11 16 28 14 92 -3 68 -1 79
16 92 20 14 20 15 0 22 -11 4 -28 14 -38 22 -15 13 -23 14 -50 4 -42 -15 -96
-1 -125 33 -12 14 -32 25 -45 25 -13 0 -27 4 -33 10 -5 5 -49 14 -98 19 -71 8
-95 8 -122 -4 -32 -13 -102 -61 -115 -78 -3 -4 -19 -3 -35 2 -16 5 -46 12 -66
16 -47 7 -53 35 -8 35 17 0 29 5 27 11 -1 6 12 16 28 22 39 13 37 10 30 40 -7
25 -9 26 -67 21 -72 -5 -91 5 -74 41 6 14 17 25 24 25 6 0 12 7 12 15 0 8 5
15 11 15 7 0 17 8 24 17 11 15 9 19 -17 30 -17 7 -40 13 -52 13 -22 0 -46 17
-46 32 0 4 12 8 28 8 26 1 62 20 62 34 0 3 -7 6 -15 6 -8 0 -15 7 -15 15 0 8
7 15 15 15 9 0 12 6 9 15 -4 8 -1 15 5 15 6 0 11 5 11 10 0 6 -9 10 -20 10
-14 0 -20 7 -20 23 -1 22 -1 22 -16 2 -9 -12 -27 -20 -47 -21 -18 -1 -42 -4
-54 -8 -41 -13 -26 19 20 43 41 21 74 57 63 69 -3 3 -23 6 -43 8 -21 2 -40 3
-43 4 -3 0 5 9 18 20 17 14 22 25 17 41 -6 19 -4 21 19 15 19 -5 26 -3 26 8 0
8 8 19 17 24 14 8 11 12 -19 20 -19 5 -47 7 -62 5 -30 -6 -34 11 -11 44 14 20
14 23 -6 33 -15 9 -18 15 -10 23 16 16 14 27 -5 27 -10 0 -14 6 -10 15 3 8 1
15 -5 15 -6 0 -8 7 -5 16 5 13 2 15 -15 11 -15 -4 -23 0 -26 14 -7 25 -19 24
-26 -2 -4 -17 -10 -19 -29 -13 -21 6 -22 5 -9 -10 12 -14 12 -19 2 -26 -9 -5
-10 -10 -2 -14 16 -10 14 -26 -4 -26 -8 0 -15 -7 -15 -15 0 -9 -9 -15 -22 -15
-21 -1 -22 -2 -5 -14 23 -17 22 -46 -1 -46 -27 0 -32 -9 -21 -37 12 -31 5 -40
-16 -23 -12 10 -16 9 -21 -4 -3 -9 -12 -16 -20 -16 -8 0 -14 -4 -14 -10 0 -5
5 -10 11 -10 6 0 9 -6 6 -13 -3 -9 4 -12 28 -9 18 2 36 -1 40 -8 13 -21 -3
-25 -81 -17 -39 4 -41 3 -41 -24 0 -21 6 -29 24 -34 20 -5 43 -39 43 -63 0 -4
-25 -5 -56 -3 -47 2 -56 0 -51 -12 3 -8 1 -19 -5 -25 -10 -10 31 -28 81 -34
14 -2 26 -9 29 -17 4 -11 -6 -13 -47 -9 -28 3 -54 1 -57 -3 -3 -5 -17 -9 -32
-10 -15 0 -21 -3 -14 -6 23 -9 12 -23 -18 -23 -17 0 -33 7 -38 17 -7 11 -15
14 -28 8 -35 -14 -141 -15 -160 -1 -15 12 -16 16 -5 29 7 9 10 25 6 37 -6 18
-2 20 31 20 30 0 35 3 26 12 -17 17 -15 28 7 28 16 0 61 46 61 63 0 2 -28 8
-62 11 -64 8 -105 24 -127 50 -12 14 -8 16 29 16 26 0 53 8 71 21 35 25 37 39
6 39 -16 0 -23 6 -23 20 0 11 5 20 10 20 5 0 52 33 105 73 336 255 853 440
1286 461 107 5 399 -4 500 -15z m-1715 -1376 c13 -13 13 -16 -3 -27 -16 -13
-16 -15 9 -31 17 -11 37 -15 55 -11 15 3 31 1 35 -5 4 -7 22 -8 48 -4 22 3 64
7 91 8 l50 2 8 -73 c5 -40 6 -79 3 -87 -5 -13 -54 -15 -339 -15 -246 0 -336 3
-345 12 -7 7 -12 42 -12 89 l0 77 33 11 c18 6 74 9 127 7 95 -4 135 6 128 32
-2 6 6 18 17 26 23 18 71 12 95 -11z m2274 -45 l7 -73 -33 -27 c-18 -16 -40
-28 -49 -28 -9 0 -24 -9 -34 -20 -10 -11 -24 -20 -32 -20 -7 0 -16 -7 -19 -15
-5 -12 -30 -15 -137 -15 -125 0 -130 1 -114 18 10 10 17 25 17 33 0 17 73 99
88 99 6 0 26 18 45 41 32 37 39 40 67 34 18 -4 42 -2 54 4 18 9 111 38 127 40
3 1 9 -32 13 -71z m-1608 10 c9 -52 6 -90 -8 -99 -6 -4 -7 -12 -4 -18 12 -18
44 -13 60 10 l15 22 5 -24 c3 -13 8 -41 11 -61 l6 -38 -166 0 c-124 0 -167 3
-170 13 -2 6 -5 38 -8 70 -5 72 6 81 84 66 92 -17 159 -22 159 -12 0 5 -11 20
-25 33 -25 24 -25 24 -5 32 13 5 20 16 20 33 0 39 16 21 26 -27z m2107 15 c14
-13 34 -18 71 -16 28 1 56 -3 63 -9 8 -7 34 -6 80 2 37 6 93 10 123 8 l55 -3
3 -90 c2 -76 0 -92 -14 -102 -23 -17 -714 -19 -714 -3 0 6 20 19 44 29 44 20
60 40 50 66 -4 8 -2 15 4 15 5 0 13 -7 16 -16 4 -10 14 -14 25 -11 12 3 22 -1
25 -9 3 -8 13 -14 22 -14 10 0 14 5 10 15 -3 8 0 15 5 15 7 0 9 9 6 21 -4 15
-2 19 9 15 8 -3 14 -2 15 2 0 4 2 18 3 30 3 24 21 42 42 42 7 0 14 7 18 15 7
19 15 19 39 -2z m-325 -69 c15 -52 9 -69 -31 -84 -69 -27 -98 -42 -104 -56 -3
-9 -21 -14 -51 -14 -44 0 -45 1 -29 18 10 9 41 31 70 48 47 27 53 34 58 72 6
46 14 58 44 64 26 6 29 2 43 -48z m-1521 -11 c4 -10 14 -29 24 -43 9 -14 19
-42 22 -62 5 -35 4 -38 -18 -38 -33 0 -94 66 -95 102 0 14 3 33 6 42 8 22 53
20 61 -1z m174 -9 c14 -7 40 -30 57 -51 17 -21 41 -48 53 -60 l22 -23 -79 0
c-43 0 -88 -3 -99 -6 -21 -5 -28 11 -61 137 -4 13 4 16 38 16 24 0 55 -5 69
-13z"/>
</g>
</svg>
