<?xml version="1.0" standalone="no"?>
<!DOCTYPE svg PUBLIC "-//W3C//DTD SVG 20010904//EN"
 "http://www.w3.org/TR/2001/REC-SVG-20010904/DTD/svg10.dtd">
<svg version="1.0" xmlns="http://www.w3.org/2000/svg"
 width="580.000000pt" height="400.000000pt" viewBox="0 0 580.000000 400.000000"
 preserveAspectRatio="xMidYMid meet">
<metadata>
Created by potrace 1.16, written by Peter Selinger 2001-2019
</metadata>
<g transform="translate(0.000000,400.000000) scale(0.100000,-0.100000)"
fill="#000000" stroke="none">
<path d="M2665 3673 c-274 -22 -472 -57 -690 -120 -340 -98 -633 -230 -907
-410 -81 -53 -103 -62 -125 -57 l-28 7 20 -22 c18 -21 19 -23 2 -32 -16 -10
-16 -12 4 -28 29 -23 20 -58 -10 -41 -17 8 -20 6 -23 -12 -2 -16 -12 -24 -31
-28 l-29 -5 26 -24 c24 -23 25 -26 9 -43 -9 -10 -27 -18 -41 -18 -19 0 -23 -4
-17 -17 17 -45 18 -73 2 -73 -9 0 -19 5 -22 10 -10 16 -22 12 -28 -10 -4 -14
-14 -20 -34 -20 -24 -1 -25 -2 -10 -11 9 -5 17 -17 17 -25 0 -11 10 -14 39
-12 63 3 100 -44 43 -56 -28 -6 -124 6 -156 19 -16 7 -17 6 -7 -14 7 -12 10
-30 7 -39 -5 -14 2 -20 26 -27 23 -7 39 -21 50 -45 15 -29 23 -35 50 -35 39 0
47 -18 13 -33 -18 -8 -39 -9 -68 -3 -33 7 -105 8 -136 2 -2 -1 3 -8 10 -18 11
-13 11 -17 2 -20 -7 -3 -13 -8 -13 -12 0 -13 89 -44 110 -38 22 6 52 -23 42
-40 -5 -8 -30 -11 -75 -8 -37 2 -69 -1 -72 -6 -4 -5 -18 -9 -33 -9 -20 0 -23
-3 -14 -12 7 -7 12 -22 12 -35 0 -17 5 -22 21 -20 32 3 47 -27 26 -51 -16 -18
-16 -20 3 -37 11 -10 26 -15 36 -11 17 7 64 -17 64 -33 0 -17 -48 -27 -120
-26 l-75 2 0 -37 c0 -29 5 -39 24 -48 14 -7 35 -12 48 -12 27 0 73 -20 73 -32
0 -14 -53 -30 -80 -25 -14 3 -34 -1 -44 -9 -11 -8 -28 -14 -38 -14 -19 0 -23
-17 -10 -36 4 -6 31 -13 60 -16 29 -3 55 -8 59 -11 12 -13 -30 -47 -59 -47
-21 0 -31 -6 -38 -24 -5 -13 -16 -29 -26 -34 -26 -14 2 -27 60 -27 62 0 72
-20 17 -35 -32 -8 -41 -16 -41 -32 0 -11 -8 -27 -17 -34 -15 -12 -16 -15 -4
-23 12 -8 12 -12 2 -25 -8 -9 -20 -16 -28 -16 -22 0 -10 -23 23 -42 25 -15 36
-16 66 -6 31 9 41 8 62 -5 32 -21 55 -21 84 -1 12 8 28 14 35 11 6 -2 20 0 29
5 17 8 105 -7 119 -21 4 -3 9 -47 11 -98 l4 -92 -30 -15 c-17 -8 -66 -31 -108
-51 -100 -46 -169 -115 -216 -213 -66 -138 -55 -313 28 -440 46 -72 98 -117
186 -162 l69 -35 2048 -3 2048 -2 75 34 c174 81 280 273 254 458 -28 193 -122
309 -312 385 -35 14 -66 28 -69 32 -4 3 -10 40 -14 82 -8 94 5 114 67 104 24
-4 44 -3 53 5 14 11 39 7 113 -21 18 -7 22 -5 22 12 0 11 6 22 14 25 8 3 12
13 9 22 -6 24 58 43 101 31 48 -14 66 -11 66 10 0 10 8 22 17 25 14 6 14 9 -6
22 -12 9 -20 22 -17 30 3 9 -4 16 -19 20 -28 7 -34 34 -9 34 10 0 14 6 11 14
-3 7 -1 18 5 24 6 6 -1 13 -21 20 -32 11 -40 27 -18 35 25 9 -9 26 -82 39 -41
8 -76 19 -78 25 -3 7 6 22 17 33 17 17 29 21 51 16 27 -5 29 -3 29 23 0 16 7
34 15 41 23 19 18 33 -11 27 -14 -2 -31 2 -40 10 -8 8 -22 12 -33 8 -42 -13
-95 39 -61 60 7 4 7 12 0 24 -12 23 -4 31 31 31 22 0 26 4 22 20 -4 16 0 20
17 20 21 0 49 24 50 43 0 4 -13 7 -29 7 -17 0 -33 5 -36 10 -3 6 -21 10 -40
10 -23 0 -43 9 -64 29 -17 16 -31 32 -31 35 0 3 21 6 48 6 31 0 55 7 72 20 25
20 25 20 3 20 -14 0 -23 6 -23 15 0 8 -7 15 -15 15 -8 0 -15 7 -15 15 0 10 10
15 31 15 20 0 28 4 23 11 -4 7 4 20 17 30 l24 19 -27 0 c-21 0 -28 5 -28 19 0
31 -15 33 -40 6 -15 -16 -28 -22 -37 -16 -8 4 -39 2 -69 -5 -51 -11 -55 -11
-65 8 -6 11 -9 21 -7 22 39 25 60 36 74 36 18 0 64 44 64 61 0 5 10 13 23 18
20 8 19 9 -18 20 -21 6 -57 8 -78 4 l-39 -6 16 31 c9 17 25 33 36 37 16 5 18
10 10 26 -16 29 -3 42 35 35 29 -6 33 -4 28 12 -3 12 3 22 19 29 22 10 22 10
-12 18 -19 4 -40 11 -46 16 -6 5 -25 4 -45 -1 -48 -14 -49 -13 -49 19 0 18 6
31 17 35 11 5 14 10 7 14 -6 4 -11 18 -10 32 1 19 -5 26 -21 28 -13 2 -23 10
-23 18 0 17 -22 18 -38 2 -10 -10 -15 -10 -22 2 -7 11 -3 21 16 36 25 20 25
22 8 32 -18 10 -18 11 1 33 20 22 20 22 0 16 -60 -19 -80 -12 -196 65 -366
244 -848 425 -1309 492 -215 31 -502 44 -675 29z m123 -178 c31 -7 28 -38 -10
-91 -26 -37 -33 -57 -36 -108 -4 -64 9 -109 54 -178 22 -34 18 -38 -37 -41
l-44 -2 3 53 c3 41 1 52 -11 52 -8 0 -20 -13 -26 -28 -16 -38 -57 -60 -122
-68 -40 -5 -58 -3 -66 7 -11 14 -43 235 -43 297 0 21 7 36 20 44 11 7 20 20
20 29 0 14 16 18 98 24 53 3 103 7 111 8 41 6 68 6 89 2z m424 -15 c17 0 31
-8 38 -21 10 -17 6 -26 -25 -61 -20 -22 -44 -56 -52 -76 -23 -56 -21 -139 5
-193 33 -68 31 -72 -33 -67 -71 6 -82 17 -55 51 32 40 15 52 -27 20 -29 -22
-47 -28 -88 -28 -66 0 -100 19 -131 71 -30 51 -33 139 -5 200 14 31 28 45 60
57 54 22 83 21 124 -3 33 -19 57 -56 57 -85 0 -8 7 -15 15 -15 12 0 15 14 15
70 0 74 13 95 55 85 11 -3 32 -5 47 -5z m-908 -45 c3 -8 14 -15 25 -15 11 0
23 -5 27 -12 10 -15 43 -251 43 -303 0 -37 -4 -42 -45 -68 -55 -36 -74 -26
-74 39 0 32 -4 44 -15 44 -9 0 -15 -10 -15 -26 0 -38 -51 -80 -114 -95 -29 -6
-59 -10 -67 -7 -15 5 -52 139 -41 149 4 4 28 11 55 18 48 11 87 3 87 -19 0 -6
7 -10 15 -10 8 0 15 6 15 13 0 23 -41 137 -50 137 -4 0 -10 -14 -14 -30 -4
-24 -15 -35 -43 -46 -20 -9 -48 -16 -62 -17 -22 -2 -27 5 -43 58 -22 71 -18
77 69 96 50 12 56 11 84 -10 37 -28 44 -23 30 22 -15 44 -7 64 32 76 76 23 94
24 101 6z m1124 -42 c60 -37 69 -180 18 -267 -21 -36 -35 -48 -67 -57 -127
-38 -185 121 -104 281 34 67 91 83 153 43z m205 10 c4 -2 5 -8 2 -13 -3 -5 4
-11 15 -15 29 -9 34 -45 12 -95 -10 -25 -33 -89 -51 -143 -32 -96 -58 -131
-87 -120 -8 3 -20 0 -28 -6 -16 -14 -46 -4 -46 14 0 8 14 23 30 35 73 52 102
186 60 279 -24 52 -24 46 -3 66 12 12 25 15 52 10 20 -4 39 -9 44 -12z m327
-102 c70 -26 65 -42 -43 -156 -51 -55 -98 -96 -104 -92 -6 4 -16 66 -23 138
-17 177 -15 179 170 110z m-2130 5 c0 -9 12 -16 32 -18 31 -3 32 -4 70 -128
56 -182 57 -193 20 -230 -29 -29 -109 -70 -137 -70 -8 0 -16 4 -19 9 -4 5 -16
91 -27 192 -16 138 -19 187 -10 201 6 10 11 24 11 32 0 13 16 22 48 25 6 0 12
-5 12 -13z m-185 -77 c4 -6 13 -8 21 -5 33 13 42 -5 54 -105 17 -134 10 -139
-78 -61 -96 85 -100 91 -79 107 9 7 17 22 17 34 0 13 9 25 23 31 30 12 35 12
42 -1z m2581 -45 c27 -16 43 -32 40 -40 -3 -7 2 -18 10 -24 8 -7 14 -18 14
-26 0 -17 -159 -284 -171 -285 -57 -8 -75 -3 -101 26 -15 16 -27 38 -28 48 0
22 97 286 112 305 7 7 22 12 35 9 13 -2 26 0 29 4 7 13 11 12 60 -17z m-513
-26 c14 -56 19 -205 8 -213 -13 -7 -90 41 -98 61 -7 18 57 174 72 174 7 0 15
-10 18 -22z m-2299 -43 c3 -10 14 -13 33 -10 22 4 36 -2 61 -25 30 -28 34 -37
35 -92 1 -35 -2 -62 -8 -65 -6 -2 -46 29 -89 68 -54 51 -74 75 -67 82 6 6 11
21 11 34 0 26 15 31 24 8z m2542 -82 c-10 -32 -27 -75 -37 -95 -18 -35 -23
-38 -62 -38 -24 0 -52 6 -62 14 -18 13 -18 15 14 52 19 22 59 63 89 92 68 65
84 58 58 -25z m-2681 -15 c17 2 55 -29 159 -129 75 -72 136 -138 136 -146 0
-7 -14 -22 -31 -31 -17 -9 -72 -45 -123 -78 -133 -89 -131 -88 -162 -68 -19
13 -24 23 -20 39 5 21 3 22 -53 21 l-59 -2 5 33 c4 25 1 37 -12 47 -23 17 -11
36 23 36 39 1 61 21 55 51 -4 24 -8 26 -49 22 -43 -3 -44 -2 -44 26 0 17 6 31
16 35 8 3 12 10 9 16 -3 6 1 13 9 16 23 9 19 21 -9 28 -14 4 -25 10 -25 15 0
5 28 27 62 49 50 33 65 39 76 29 8 -6 25 -10 37 -9z m3161 -3 c48 -28 64 -51
64 -89 0 -36 14 -32 39 9 12 21 28 35 39 35 19 0 122 -75 122 -88 -1 -18 -30
-42 -50 -42 -23 0 -24 -6 -5 -67 9 -28 -10 -31 -37 -6 -10 9 -18 11 -18 5 0
-19 -31 -42 -58 -42 l-27 -1 28 -15 c15 -8 25 -19 22 -24 -4 -6 12 -10 36 -10
39 0 79 -21 79 -41 0 -21 -123 -17 -183 6 -15 6 -17 4 -13 -16 4 -16 -1 -32
-14 -48 l-20 -23 -35 23 c-19 13 -35 28 -35 34 0 5 17 26 37 47 30 31 34 38
20 44 -9 3 -26 -1 -39 -10 -12 -9 -33 -16 -47 -16 -23 0 -130 55 -142 73 -7 9
55 122 73 133 5 3 29 -6 53 -21 42 -24 60 -53 53 -84 -2 -8 2 -15 9 -18 13 -5
89 124 79 135 -4 3 -16 1 -26 -6 -11 -7 -30 -12 -43 -12 -30 0 -100 48 -93 65
14 38 58 95 73 95 9 0 36 -11 59 -25z m-2750 -101 c35 -31 64 -63 64 -72 0
-21 -119 -77 -133 -63 -10 10 -28 171 -20 184 9 15 28 5 89 -49z m1369 26
c204 -14 459 -64 659 -131 221 -73 508 -218 670 -338 52 -39 57 -45 43 -56
-24 -17 -22 -22 21 -35 36 -12 62 -34 62 -53 0 -6 -19 -7 -44 -4 -30 4 -46 3
-48 -5 -3 -7 -18 -13 -34 -14 -16 -1 -31 -3 -34 -3 -2 -1 6 -8 18 -17 16 -11
21 -22 17 -35 -6 -17 -3 -19 18 -14 19 5 28 2 37 -15 9 -17 8 -24 -11 -39
l-23 -18 27 -18 c15 -9 33 -15 41 -12 8 3 25 -3 38 -13 20 -17 21 -21 8 -30
-8 -6 -33 -10 -55 -9 -22 1 -59 1 -82 0 -38 -1 -43 -4 -42 -23 0 -13 -2 -33
-6 -45 -6 -20 -4 -23 17 -23 13 0 28 -4 34 -9 5 -5 27 -11 48 -13 22 -2 41 -8
43 -15 5 -13 -41 -29 -69 -24 -10 1 -28 -5 -40 -13 -12 -9 -30 -16 -40 -16
-20 0 -24 -30 -7 -47 6 -6 27 -9 47 -7 49 6 68 -6 53 -34 -8 -14 -23 -22 -49
-24 -29 -2 -38 -8 -40 -25 -2 -12 -10 -24 -18 -27 -17 -7 -36 12 -89 92 -20
28 -40 52 -46 52 -5 0 -14 11 -19 25 -12 30 -30 33 -30 4 0 -21 -36 -58 -57
-59 -6 0 -13 -3 -15 -7 -1 -5 -29 -27 -61 -51 l-57 -43 -35 35 c-19 20 -35 38
-35 40 0 13 79 43 92 35 7 -5 32 -9 55 -9 46 0 63 17 63 62 0 49 -46 63 -90
28 -35 -28 -81 -26 -110 5 -13 14 -30 25 -38 25 -10 0 -13 7 -9 21 8 28 -25
63 -50 55 -11 -3 -30 -16 -42 -27 -20 -19 -21 -23 -7 -38 14 -15 13 -18 -4
-29 -16 -10 -20 -23 -20 -66 0 -35 5 -60 15 -70 18 -18 11 -40 -18 -54 -33
-16 -522 -74 -563 -66 -19 3 -37 10 -40 16 -3 5 -17 -3 -30 -17 -17 -19 -30
-25 -42 -19 -9 4 -24 6 -32 6 -34 -2 -168 -22 -215 -32 -27 -5 -84 -9 -126 -8
-62 2 -82 -1 -97 -15 -10 -9 -25 -17 -32 -17 -7 0 -28 -12 -47 -26 l-34 -26
-69 73 c-38 41 -69 82 -70 91 0 10 -12 24 -27 32 -16 8 -48 35 -73 59 -35 35
-48 43 -58 34 -18 -14 -79 18 -88 47 -10 33 -48 86 -62 86 -7 0 -20 -4 -30 -9
-35 -18 -93 -41 -102 -41 -6 0 -10 9 -10 20 0 11 -7 20 -15 20 -8 0 -15 5 -15
10 0 6 -7 10 -14 10 -19 0 -70 -66 -61 -80 3 -6 8 -38 10 -71 2 -36 9 -67 18
-77 9 -9 19 -29 22 -45 8 -29 -11 -51 -65 -79 -51 -26 -98 -69 -110 -100 -6
-18 -20 -49 -30 -68 -10 -19 -21 -55 -25 -80 -12 -73 -32 -100 -75 -100 -15 0
-31 -5 -36 -10 -7 -7 -79 -9 -195 -8 l-184 3 -7 70 c-10 89 -5 110 29 123 32
12 208 10 236 -2 14 -7 19 -4 24 12 3 11 12 23 20 26 12 5 13 9 3 21 -10 12
-9 15 6 15 11 0 27 7 38 15 13 10 24 11 37 5 10 -6 34 -10 54 -10 29 0 36 3
31 15 -3 8 3 19 12 25 16 9 16 11 0 20 -10 6 -18 19 -18 29 0 12 -10 21 -25
25 -28 7 -34 26 -9 26 11 0 15 6 11 20 -3 11 -1 20 4 20 20 0 7 20 -16 26 -27
7 -32 23 -14 41 13 13 2 17 -91 33 -36 6 -73 13 -82 16 -32 10 -19 24 22 24
33 0 40 4 40 19 0 24 18 31 69 24 35 -5 41 -3 35 11 -4 10 -1 16 8 16 8 0 23
9 33 20 17 19 17 20 -24 26 -22 4 -41 10 -41 15 0 8 -83 5 -135 -5 -42 -9 -85
24 -68 52 6 11 9 29 6 41 -5 18 -1 21 27 21 27 0 30 3 25 20 -5 16 -2 20 18
20 15 0 31 10 41 25 22 33 20 38 -10 31 -18 -5 -32 -2 -45 10 -12 11 -27 14
-44 10 -20 -5 -32 0 -55 23 -17 16 -30 32 -30 35 0 3 19 6 43 6 30 0 51 7 72
25 l30 24 -28 1 c-16 0 -26 4 -22 10 3 6 -4 14 -17 19 l-23 9 28 11 c16 6 32
11 36 11 4 0 37 22 72 48 162 123 453 280 634 342 265 91 555 146 835 158 20
1 107 -3 195 -8z m-1051 -1094 c9 -25 24 -50 32 -56 21 -18 17 -31 -22 -72
-39 -42 -63 -48 -71 -17 -3 12 -11 18 -19 15 -18 -7 -31 20 -35 74 -4 40 -1
45 17 48 12 2 32 14 45 28 12 13 26 24 29 24 4 0 15 -20 24 -44z m1522 -135
c-3 -4 -20 -11 -37 -15 -18 -3 -51 -24 -75 -46 -24 -22 -48 -40 -53 -40 -5 0
-28 -28 -50 -62 -53 -84 -59 -90 -81 -83 -12 4 -27 -2 -39 -14 -24 -24 -27
-35 -7 -28 8 3 17 -1 20 -9 5 -12 10 -13 27 -4 11 6 27 9 34 6 7 -2 19 2 25
10 7 8 20 14 30 14 19 0 65 47 107 111 14 21 30 39 34 39 25 0 -4 -105 -39
-139 -15 -14 -34 -43 -44 -63 -9 -20 -28 -44 -43 -54 -20 -13 -25 -24 -22 -41
l4 -23 -301 0 -301 1 -27 36 c-28 37 -36 63 -19 63 6 0 40 -16 78 -35 79 -41
87 -42 78 -15 -4 13 -2 20 7 20 7 0 30 5 51 11 37 10 39 12 33 44 -5 27 -3 35
12 39 25 8 72 -10 72 -27 0 -7 -7 -22 -15 -33 -20 -27 -18 -36 6 -32 16 2 25
15 34 45 12 39 11 43 -11 64 -32 30 -30 53 7 80 31 22 33 22 78 5 82 -29 105
-17 73 37 -22 36 -38 97 -25 98 4 0 78 11 163 24 169 25 224 30 216 16z m789
-1 c4 -6 23 -7 45 -4 21 3 46 2 56 -4 16 -9 13 -12 -20 -26 -21 -9 -42 -16
-47 -16 -5 0 -9 -11 -9 -24 0 -13 -7 -27 -16 -30 -12 -5 -14 -9 -5 -20 16 -19
3 -46 -22 -46 -20 0 -19 -2 6 -28 21 -21 36 -28 62 -27 19 0 37 4 41 7 3 4 20
0 36 -8 23 -12 40 -13 86 -5 87 16 169 16 186 1 12 -9 16 -33 16 -99 0 -126
16 -121 -353 -121 l-295 0 -15 23 c-8 12 -18 60 -22 106 l-7 83 48 -7 c76 -10
80 -13 120 -65 39 -52 61 -67 76 -52 8 8 -22 50 -80 115 -4 5 -30 21 -58 37
l-51 29 -6 68 c-8 78 5 103 41 84 11 -6 31 -11 44 -11 29 0 95 23 110 38 15
15 25 15 33 2z m-1941 -91 c36 -39 66 -78 66 -85 0 -8 6 -14 13 -14 8 0 32
-18 54 -41 37 -37 40 -45 37 -82 l-4 -42 15 33 c13 28 18 31 35 22 11 -6 20
-17 20 -25 0 -9 16 -38 35 -65 l35 -50 -219 0 -219 0 -31 47 c-36 54 -39 79
-11 108 25 27 19 46 -22 65 -30 14 -32 19 -35 75 -2 33 -1 71 2 84 5 21 10 23
43 18 24 -4 44 -1 56 8 38 28 61 18 130 -56z m1446 -135 c58 -3 114 -7 126 -9
23 -5 64 -93 74 -162 l7 -43 -191 0 -191 0 -22 33 c-34 50 -39 84 -15 110 11
12 27 37 37 56 14 28 20 32 43 27 15 -4 74 -9 132 -12z m-260 -22 c0 -10 -7
-27 -15 -38 -20 -27 -18 -44 9 -73 13 -15 31 -38 41 -53 l17 -28 -142 0 -142
0 33 38 c58 66 63 71 119 122 59 52 80 61 80 32z m-1466 -28 c26 -31 27 -38
17 -61 -16 -34 2 -56 23 -28 13 18 14 18 29 -6 8 -13 18 -34 22 -46 6 -23 6
-23 -100 -23 -84 0 -107 3 -111 15 -6 15 -55 32 -104 37 -22 3 -25 8 -28 51
-4 67 7 77 87 78 36 0 75 4 86 9 34 15 49 10 79 -26z m772 -19 c8 -32 5 -35
-46 -46 -59 -13 -90 -3 -90 30 0 15 2 30 4 32 3 2 32 5 65 7 58 3 61 2 67 -23z
m-1186 -30 c7 -8 23 -15 36 -15 15 0 34 -14 55 -40 31 -38 35 -40 90 -40 32 0
61 -4 64 -10 4 -6 -47 -10 -146 -10 -144 0 -151 1 -136 18 11 12 14 30 10 65
-6 48 4 60 27 32z"/>
</g>
</svg>
