<?xml version="1.0" standalone="no"?>
<!DOCTYPE svg PUBLIC "-//W3C//DTD SVG 20010904//EN"
 "http://www.w3.org/TR/2001/REC-SVG-20010904/DTD/svg10.dtd">
<svg version="1.0" xmlns="http://www.w3.org/2000/svg"
 width="580.000000pt" height="400.000000pt" viewBox="0 0 580.000000 400.000000"
 preserveAspectRatio="xMidYMid meet">
<metadata>
Created by potrace 1.16, written by Peter Selinger 2001-2019
</metadata>
<g transform="translate(0.000000,400.000000) scale(0.100000,-0.100000)"
fill="#000000" stroke="none">
<path d="M2630 3643 c-430 -46 -753 -125 -1100 -270 -195 -81 -479 -236 -517
-281 -19 -22 -26 -25 -40 -16 -14 9 -19 27 -21 87 -3 85 16 166 51 219 42 61
42 61 10 45 -30 -16 -111 -98 -131 -132 -10 -19 -14 -17 -56 30 l-44 50 -12
-30 c-7 -16 -14 -47 -17 -67 -3 -21 -8 -38 -11 -38 -2 0 -19 9 -36 19 -37 23
-147 61 -175 61 -14 0 -19 -5 -15 -15 8 -21 -7 -19 -57 9 -141 76 -229 45
-200 -71 28 -109 137 -240 249 -298 38 -20 58 -37 60 -51 11 -76 -159 18 -228
126 -18 27 -34 50 -37 50 -11 0 8 -83 33 -137 14 -32 24 -60 23 -63 -2 -3 -26
-11 -53 -18 -28 -7 -55 -17 -59 -21 -5 -5 12 -25 37 -46 25 -21 46 -41 46 -46
0 -5 -12 -15 -28 -23 -34 -18 -91 -75 -115 -115 l-18 -31 47 29 c68 44 139 64
221 65 56 0 77 -3 90 -16 16 -16 16 -19 -1 -37 -17 -19 -17 -21 18 -51 50 -44
103 -135 122 -211 35 -136 -11 -294 -113 -393 l-51 -50 47 -42 c53 -48 97
-122 117 -198 36 -135 -4 -282 -107 -391 -45 -48 -47 -52 -32 -68 16 -15 15
-18 -2 -37 -14 -16 -30 -20 -77 -20 -66 0 -193 38 -240 72 -16 11 -31 18 -33
16 -8 -7 60 -85 107 -123 26 -21 48 -41 48 -44 0 -3 -16 -17 -36 -30 -19 -13
-39 -32 -44 -42 -8 -15 -2 -19 43 -29 28 -6 58 -13 65 -16 9 -2 4 -20 -17 -63
-34 -66 -56 -172 -38 -183 7 -4 1 -28 -18 -70 -73 -159 -11 -219 148 -146 50
23 72 29 75 20 7 -23 93 -6 183 37 23 12 46 21 49 21 3 0 12 -27 18 -60 7 -33
17 -60 22 -60 4 0 26 20 48 45 l39 44 47 -54 c26 -30 68 -69 94 -86 39 -27 43
-28 25 -8 -42 46 -75 135 -80 218 -7 102 0 131 32 131 20 0 25 -6 30 -37 25
-159 96 -254 240 -323 26 -13 255 -15 1619 -18 1424 -2 1596 -1 1644 13 72 21
120 53 169 112 60 72 70 95 98 226 4 20 11 27 30 27 32 0 40 -30 32 -124 -8
-94 -21 -135 -62 -196 l-34 -50 53 37 c30 20 68 59 86 85 18 26 36 48 39 48 3
0 17 -16 30 -36 13 -19 33 -40 43 -45 20 -11 31 7 43 75 8 40 15 43 50 20 28
-18 141 -54 172 -54 12 0 23 6 26 13 3 8 21 4 62 -17 78 -39 143 -46 170 -17
28 32 24 76 -15 159 -26 57 -31 75 -21 82 20 12 5 94 -29 165 -16 32 -27 62
-24 66 2 4 23 10 46 13 74 11 79 21 31 65 -48 43 -52 57 -24 66 21 6 131 120
131 135 0 5 -19 -2 -42 -16 -93 -53 -247 -81 -299 -54 -23 13 -25 33 -4 50 13
11 9 20 -33 64 -86 92 -122 177 -122 291 0 114 40 212 119 291 l52 52 -51 52
c-103 106 -141 241 -109 392 16 74 39 116 103 183 47 50 53 60 39 70 -8 6 -14
20 -12 30 10 50 184 38 295 -20 35 -19 64 -31 64 -28 0 15 -76 97 -111 120
-35 23 -52 53 -31 53 11 0 72 57 72 68 0 10 -67 32 -99 32 -27 0 -27 1 9 74
35 71 50 154 30 166 -10 6 -5 25 21 80 54 119 40 176 -44 174 -23 0 -71 -14
-106 -30 -46 -20 -66 -25 -69 -16 -2 7 -13 12 -25 12 -22 0 -138 -39 -175 -59
-33 -17 -40 -13 -47 27 -3 20 -12 47 -19 60 l-12 23 -42 -45 c-23 -25 -44 -46
-46 -46 -2 0 -20 22 -40 50 -34 47 -108 110 -129 110 -6 0 -1 -10 11 -23 42
-44 74 -134 79 -221 8 -114 -13 -150 -57 -106 -47 47 -334 206 -490 271 -52
22 -171 67 -265 99 -392 135 -742 192 -1159 188 -116 0 -227 -3 -246 -5z m471
-843 c209 -20 300 -35 464 -76 228 -57 508 -174 416 -174 -24 0 -116 -44 -126
-60 -4 -6 -16 -8 -28 -4 -12 4 -36 6 -54 6 -20 -1 -42 7 -60 22 -94 79 -220
87 -295 19 -16 -14 -21 -13 -61 6 -52 25 -107 27 -150 5 -27 -14 -38 -15 -78
-5 -56 15 -131 6 -175 -19 -25 -14 -45 -17 -98 -13 -44 4 -89 0 -136 -11 -67
-17 -97 -15 -85 5 15 23 -24 6 -43 -20 -13 -18 -34 -31 -55 -35 -38 -7 -63
-29 -52 -46 3 -5 24 -10 46 -10 37 0 53 -13 27 -23 -10 -4 -10 -7 0 -18 16
-18 15 -29 -4 -29 -12 0 -14 -7 -9 -30 6 -26 4 -30 -16 -30 -21 0 -21 -1 -5
-19 15 -16 15 -20 3 -28 -22 -13 -32 -53 -13 -53 9 0 16 -4 16 -10 0 -5 16
-10 35 -10 24 0 35 -5 35 -15 0 -8 -6 -15 -14 -15 -7 0 -27 -3 -43 -6 -24 -5
-35 -1 -54 19 -50 54 -105 54 -155 0 -20 -21 -35 -27 -81 -29 -31 -2 -70 -8
-88 -14 -36 -12 -101 -76 -139 -138 l-27 -44 -77 5 -77 4 -3 37 -3 36 75 -4
c42 -3 78 -1 81 3 2 5 0 23 -6 41 -9 24 -9 34 0 39 13 8 0 23 -29 34 -11 4 -9
7 8 12 27 9 28 20 5 35 -13 8 -14 13 -5 16 19 9 14 32 -8 39 -16 5 -19 12 -14
28 4 12 11 24 15 25 5 2 7 8 3 13 -3 5 1 9 8 10 7 0 3 4 -9 9 -22 9 -32 30
-15 30 5 0 9 7 9 16 0 13 -7 15 -34 11 -30 -5 -32 -4 -23 14 6 10 15 19 20 19
16 0 11 27 -6 34 -13 5 -14 9 -5 20 9 11 7 15 -13 20 -13 3 -26 14 -28 23 -3
10 -6 23 -7 28 -2 6 -7 18 -13 28 -28 53 -22 63 60 95 148 60 335 113 517 149
187 36 489 51 676 33z m-1335 -267 c-2 -16 -4 -33 -5 -40 0 -6 -10 -15 -21
-18 -22 -7 -28 -35 -7 -35 7 0 13 -9 14 -20 1 -11 -4 -20 -13 -20 -22 0 -17
-18 11 -36 35 -23 31 -33 -7 -25 -18 4 -38 6 -44 4 -18 -6 -3 -64 19 -72 24
-9 11 -20 -27 -23 -33 -3 -33 -13 -1 -34 38 -24 32 -44 -12 -44 -48 0 -70 -12
-51 -27 7 -6 23 -14 36 -17 23 -8 30 -26 10 -26 -23 0 -39 -16 -43 -41 -2 -13
-5 -33 -7 -44 -2 -14 3 -20 17 -21 11 -1 27 -2 35 -3 11 -1 11 -4 2 -13 -20
-20 -13 -31 16 -24 15 4 42 9 60 12 31 6 32 5 32 -32 l0 -37 -49 6 c-27 3 -89
20 -138 37 -118 43 -161 46 -267 21 -48 -12 -102 -21 -120 -21 -35 0 -126 28
-126 38 0 4 14 34 30 66 81 159 248 302 524 447 72 38 132 69 133 69 1 0 0
-12 -1 -27z m1641 -120 c2 -6 -6 -13 -19 -17 -21 -6 -21 -7 -5 -17 22 -13 22
-39 0 -39 -13 0 -14 -3 -5 -12 20 -20 15 -40 -8 -33 -18 6 -20 3 -17 -20 2
-15 10 -31 18 -36 11 -7 10 -10 -8 -15 -27 -7 -28 -12 -7 -42 15 -21 14 -22
-20 -22 -40 0 -47 -14 -16 -30 23 -12 27 -30 6 -30 -8 0 -17 -9 -20 -20 -3
-11 -9 -29 -12 -40 -4 -16 -1 -20 20 -20 28 0 29 -1 20 -24 -9 -23 -18 -21
-103 27 -53 29 -88 42 -116 42 -22 1 -59 10 -82 20 l-42 20 -1 151 0 151 94 7
c52 4 121 4 153 1 32 -3 78 -2 103 3 51 11 62 10 67 -5z m279 2 c16 -8 36 -15
44 -15 9 0 41 -7 73 -15 49 -13 64 -13 109 -1 33 8 59 10 70 5 9 -5 24 -6 32
-3 17 7 22 -11 6 -21 -5 -3 -7 -11 -4 -19 3 -7 -10 -20 -30 -31 -38 -21 -55
-45 -31 -45 21 0 19 -17 -2 -25 -24 -8 -77 -55 -70 -62 3 -3 20 0 38 6 35 12
53 6 29 -9 -8 -6 -11 -10 -5 -10 5 0 -5 -13 -23 -29 -38 -35 -42 -55 -9 -46
34 11 39 11 43 0 3 -6 -16 -21 -41 -33 -50 -24 -51 -42 -4 -42 37 0 37 -14 -1
-30 -29 -12 -41 -30 -20 -30 20 0 9 -27 -15 -38 -36 -16 -31 -29 9 -24 18 2
36 0 40 -6 7 -11 -66 -62 -89 -62 -11 0 -14 -6 -11 -18 5 -16 -1 -17 -72 -14
-112 4 -149 16 -157 51 -7 34 -49 75 -90 88 -22 7 -31 17 -33 36 -3 27 -2 27
57 27 33 0 62 4 65 9 4 5 2 21 -4 35 -7 18 -6 26 1 26 7 0 6 6 -2 17 -11 13
-12 17 -1 21 10 3 10 8 -3 22 -11 12 -13 20 -6 25 16 9 13 25 -4 25 -18 0 -20
41 -3 58 9 9 8 12 -5 12 -9 0 -17 5 -17 10 0 6 5 10 10 10 6 0 10 5 10 10 0 6
-11 10 -25 10 -16 0 -25 6 -25 15 0 8 5 15 10 15 6 0 10 7 10 15 0 8 -5 15
-11 15 -5 0 -7 5 -4 10 3 6 -1 13 -9 16 -9 3 -16 14 -16 25 0 14 9 19 48 22
97 7 110 7 138 -8z m729 -79 c149 -104 216 -179 283 -312 51 -102 76 -282 56
-407 -7 -37 -8 -38 -48 -37 -121 1 -245 -9 -284 -23 -50 -19 -136 -13 -128 9
5 14 -71 64 -98 64 -8 0 -18 4 -21 10 -4 6 18 9 57 7 76 -2 85 12 21 33 -35
12 -47 20 -50 39 -3 21 0 22 23 17 14 -4 35 -4 46 0 19 6 16 9 -19 28 -23 11
-53 31 -69 44 -23 19 -25 25 -14 32 8 5 17 7 21 4 10 -6 59 14 59 23 0 5 -13
14 -30 21 -36 16 -39 29 -7 34 19 3 16 7 -25 36 -46 32 -60 56 -37 64 7 2 1
19 -15 42 -25 37 -34 76 -18 76 4 0 23 -4 41 -10 19 -5 36 -8 38 -6 5 5 -19
56 -26 56 -14 1 -39 27 -45 48 -7 21 -6 23 12 13 49 -26 42 -3 -18 64 -27 30
-50 60 -50 65 0 6 12 10 28 10 15 0 43 8 62 19 27 14 49 17 95 13 55 -5 69
-11 160 -76z m-1495 68 c0 -4 -8 -12 -17 -19 -15 -11 -14 -14 15 -29 l32 -17
0 -117 0 -118 -52 -11 c-30 -6 -64 -7 -81 -2 -17 5 -48 4 -77 -3 -26 -6 -59
-8 -74 -4 -22 5 -27 12 -24 34 2 21 8 26 25 25 13 -2 35 2 50 8 25 9 26 11 10
21 -14 7 -15 13 -7 23 7 9 8 15 1 19 -6 4 -8 13 -4 21 3 8 0 15 -7 15 -10 0
-10 3 -1 14 9 11 9 15 -1 19 -10 3 -10 9 -1 25 10 16 9 21 -2 26 -8 3 -12 12
-9 21 4 10 0 15 -11 15 -14 0 -15 3 -5 15 7 9 35 15 73 17 34 2 86 4 115 6 28
1 52 0 52 -4z m-379 -360 c8 -9 32 -25 54 -34 32 -14 45 -28 64 -67 15 -33 34
-55 57 -68 19 -10 34 -22 34 -26 0 -5 14 -24 31 -44 30 -34 34 -35 93 -34 34
1 71 8 84 16 18 11 126 53 137 53 1 0 2 -7 2 -15 0 -8 -4 -15 -8 -15 -12 0
-18 -44 -7 -57 6 -7 7 -13 2 -14 -5 -1 -16 -2 -24 -3 -8 -2 -23 -3 -33 -4 -16
-2 -17 -4 -3 -17 8 -8 20 -15 26 -15 6 0 9 -4 5 -9 -3 -5 -1 -12 5 -16 18 -11
10 -25 -15 -25 -14 0 -25 -4 -25 -9 0 -4 11 -17 25 -27 14 -10 25 -22 25 -26
0 -12 -45 -9 -57 3 -9 9 -13 6 -16 -12 -10 -48 -6 -68 14 -74 28 -9 19 -27
-15 -31 -40 -4 -41 -9 -11 -37 31 -28 31 -64 1 -59 -11 2 -35 1 -53 -3 -29 -5
-32 -9 -23 -21 7 -8 20 -14 30 -14 10 0 21 -8 24 -17 7 -17 -9 -33 -32 -33 -7
0 -10 -4 -7 -10 3 -5 1 -10 -6 -10 -7 0 -9 -9 -6 -22 4 -13 0 -29 -9 -39 -18
-20 -4 -34 36 -34 19 0 25 -5 23 -20 -2 -24 16 -36 37 -25 9 5 34 10 56 12
l39 3 0 -40 c0 -40 0 -40 -40 -43 -22 -2 -69 4 -104 12 l-64 15 -60 -30 c-41
-20 -67 -27 -81 -22 -12 4 -25 5 -31 3 -5 -2 -30 -5 -55 -6 -25 -2 -67 -6 -94
-10 -42 -5 -48 -4 -43 9 8 22 -16 39 -45 32 -22 -6 -26 0 -63 92 -21 54 -54
136 -73 183 -58 140 -68 191 -68 331 1 78 5 131 12 140 7 8 14 32 17 54 14
104 18 110 67 113 24 2 48 8 52 15 6 9 13 6 26 -11 20 -26 32 -20 32 16 0 24
25 62 40 62 4 0 14 -7 21 -16z m947 -198 c15 -8 41 -29 57 -46 57 -60 122 -82
180 -60 20 8 35 6 61 -6 31 -15 37 -15 68 0 39 18 66 21 66 6 0 -5 -6 -10 -13
-10 -8 0 -22 -9 -32 -20 -10 -11 -27 -20 -37 -20 -25 0 -78 -28 -78 -40 0 -6
15 -10 33 -11 17 0 26 -3 20 -6 -18 -7 -16 -23 3 -23 10 0 14 -6 11 -15 -4 -8
-1 -17 4 -21 7 -4 7 -10 0 -17 -7 -7 -65 -10 -167 -9 -167 2 -220 -6 -249 -38
-28 -31 -12 -34 180 -29 48 1 82 -4 110 -17 33 -15 72 -18 230 -20 150 -1 212
-6 294 -23 88 -19 111 -20 150 -11 38 10 58 9 111 -5 36 -9 86 -20 112 -24 26
-4 51 -10 54 -14 17 -16 -91 -136 -186 -206 -84 -63 -103 -72 -175 -87 -49
-10 -64 -10 -87 2 -35 18 -101 18 -137 0 -33 -18 -115 -9 -226 25 -89 26 -306
35 -375 14 -71 -21 -134 -27 -220 -19 -80 7 -80 7 -80 35 l0 29 85 -4 c64 -3
87 -1 96 10 9 11 9 14 0 14 -7 0 -9 4 -6 10 3 5 1 19 -6 31 -8 16 -8 23 0 29
17 10 2 40 -20 40 -27 0 -24 18 4 22 32 4 27 21 -10 33 l-32 11 29 11 c43 16
40 43 -5 43 -36 0 -47 16 -19 27 8 3 13 12 9 21 -3 8 3 21 12 28 16 12 16 15
3 24 -8 5 -28 10 -44 10 -29 0 -29 12 0 16 38 6 47 13 33 30 -9 11 -22 14 -41
10 -15 -3 -28 -3 -28 0 0 15 22 44 34 44 9 0 12 7 9 19 -3 13 -10 18 -20 14
-13 -5 -15 -1 -9 20 5 20 2 27 -14 32 -11 3 -20 12 -20 20 0 7 -6 15 -14 18
-9 4 -12 14 -9 26 3 14 0 23 -11 27 -17 6 -21 30 -10 58 6 14 24 16 151 11 95
-3 153 -10 171 -19z m-2388 -1 c23 -8 61 -15 84 -15 22 0 58 -4 78 -9 22 -5
56 -5 83 1 36 8 54 6 86 -6 51 -21 141 -21 181 0 27 14 37 14 72 4 84 -27 129
-29 208 -13 43 9 81 13 84 10 4 -4 0 -30 -9 -59 -18 -58 -15 -85 22 -176 14
-36 21 -75 21 -125 1 -40 5 -92 11 -117 14 -64 29 -164 35 -241 l6 -67 -123 0
c-118 0 -219 17 -243 39 -6 5 -18 9 -28 9 -9 0 -32 6 -50 14 -18 8 -48 20 -65
26 -28 11 -33 17 -33 45 l0 34 65 -1 c36 -1 68 2 72 6 4 4 2 20 -4 36 -8 21
-8 30 1 33 8 3 7 9 -3 21 -13 15 -13 19 0 27 12 8 11 11 -4 20 -14 8 -16 14
-7 24 14 16 5 35 -16 35 -18 0 -18 8 0 42 13 25 13 29 -2 38 -14 8 -15 11 -3
19 18 11 5 31 -20 31 -22 0 -23 4 -6 30 10 17 9 22 -2 29 -7 5 -11 13 -7 19 3
6 -3 13 -14 17 -13 4 -23 18 -27 36 -3 16 -9 29 -14 29 -5 0 -9 8 -9 19 0 10
-7 24 -15 31 -12 10 -18 6 -35 -22 -11 -18 -19 -41 -16 -50 3 -12 -5 -19 -28
-24 l-31 -7 23 -15 c25 -17 29 -42 6 -42 -22 0 -12 -23 15 -36 l22 -11 -25 -5
c-14 -3 -27 0 -29 5 -2 6 -8 8 -13 4 -15 -9 -4 -67 12 -67 24 0 15 -17 -11
-24 -28 -7 -33 -24 -10 -32 8 -4 15 -15 15 -25 0 -15 -7 -19 -40 -19 -30 0
-38 -3 -34 -14 3 -8 14 -16 25 -19 22 -6 26 -27 5 -27 -16 0 -41 -64 -33 -85
4 -8 14 -11 26 -8 23 6 27 -6 9 -26 -11 -10 -1 -11 50 -5 l62 7 0 -32 0 -31
-56 0 c-53 0 -60 3 -112 47 -31 26 -73 66 -94 88 -49 52 -131 210 -154 300
-24 94 -24 295 0 295 2 0 23 -7 46 -15z"/>
</g>
</svg>
