<?xml version="1.0" standalone="no"?>
<!DOCTYPE svg PUBLIC "-//W3C//DTD SVG 20010904//EN"
 "http://www.w3.org/TR/2001/REC-SVG-20010904/DTD/svg10.dtd">
<svg version="1.0" xmlns="http://www.w3.org/2000/svg"
 width="580.000000pt" height="400.000000pt" viewBox="0 0 580.000000 400.000000"
 preserveAspectRatio="xMidYMid meet">
<metadata>
Created by potrace 1.16, written by Peter Selinger 2001-2019
</metadata>
<g transform="translate(0.000000,400.000000) scale(0.100000,-0.100000)"
fill="#000000" stroke="none">
<path d="M2586 3654 c-72 -7 -160 -18 -198 -24 -37 -5 -101 -15 -140 -21 -156
-23 -506 -130 -718 -219 -106 -45 -316 -149 -375 -186 -27 -17 -80 -50 -116
-72 -75 -48 -102 -52 -125 -18 -8 14 -21 23 -29 20 -7 -3 -16 0 -21 7 -5 9
-11 2 -19 -22 -11 -31 -15 -34 -46 -31 -33 4 -33 3 -16 -15 22 -25 22 -43 0
-43 -13 0 -11 -5 10 -18 28 -17 32 -28 18 -51 -6 -10 -13 -10 -29 -2 -17 9
-21 7 -26 -14 -5 -19 -13 -25 -33 -25 l-26 0 21 -23 c12 -13 22 -28 22 -34 0
-17 -35 -43 -59 -43 -21 0 -21 -1 -6 -30 16 -31 20 -70 8 -70 -5 0 -17 7 -27
15 -26 20 -33 19 -39 -4 -3 -13 -16 -21 -38 -24 -31 -4 -32 -5 -11 -12 17 -5
22 -13 19 -26 -5 -17 1 -19 42 -19 47 0 81 -20 81 -47 0 -15 -69 -24 -92 -12
-11 6 -29 8 -41 5 -11 -3 -33 2 -49 10 -30 16 -34 13 -18 -17 8 -13 7 -25 0
-39 -9 -16 -8 -20 5 -20 32 0 77 -32 87 -61 8 -24 15 -29 30 -26 48 13 66 -23
20 -42 -19 -8 -37 -8 -62 -1 -39 11 -160 14 -160 3 0 -3 7 -15 17 -25 15 -17
15 -18 0 -18 -33 0 -16 -16 36 -35 28 -11 61 -18 72 -17 11 2 29 -4 40 -12 15
-11 17 -17 7 -28 -9 -12 -31 -14 -87 -12 -43 2 -75 -1 -75 -7 0 -5 -17 -9 -37
-9 -37 0 -37 0 -15 -16 16 -11 21 -22 17 -35 -5 -16 -1 -19 24 -19 37 0 53
-34 25 -55 -17 -12 -17 -14 -2 -38 13 -18 23 -23 42 -20 16 3 35 -2 51 -15
l26 -21 -31 -16 c-23 -12 -39 -14 -58 -7 -15 5 -36 6 -47 1 -11 -4 -34 -5 -51
-2 -29 4 -31 3 -27 -21 3 -14 0 -33 -7 -41 -10 -13 -8 -15 13 -15 14 0 27 -7
31 -15 4 -10 19 -15 49 -15 24 0 52 -6 62 -14 18 -13 17 -15 -20 -30 -22 -10
-48 -15 -59 -12 -10 3 -37 -5 -60 -17 -23 -12 -42 -22 -43 -22 -1 -1 0 -10 3
-22 5 -17 13 -20 60 -19 67 1 82 -12 59 -48 -14 -21 -25 -26 -56 -26 -27 0
-39 -4 -39 -14 0 -8 -7 -21 -15 -30 -28 -27 -8 -43 52 -42 31 0 58 -4 60 -9 2
-6 -19 -19 -47 -29 -41 -15 -50 -22 -45 -37 4 -12 -1 -22 -15 -29 -21 -11 -21
-12 -4 -25 16 -11 16 -15 5 -29 -7 -9 -20 -16 -27 -16 -22 0 -16 -26 10 -44
19 -12 39 -14 86 -9 48 5 64 3 78 -10 23 -21 61 -18 73 6 9 16 20 17 92 13
111 -6 117 -9 117 -61 0 -23 3 -69 6 -102 8 -72 6 -73 -111 -103 -134 -34
-194 -81 -244 -189 -92 -200 -17 -433 167 -519 l57 -27 2245 0 2245 0 69 33
c82 39 131 87 171 168 26 54 29 68 29 169 0 107 -1 112 -36 180 -59 115 -178
195 -290 195 -59 0 -68 20 -61 137 5 80 9 103 22 108 9 4 53 9 99 11 66 4 83
2 88 -10 9 -23 54 -29 75 -10 15 14 30 16 81 10 57 -5 66 -4 93 18 l30 24 -27
11 c-36 13 -45 31 -24 47 17 12 16 13 -4 24 -14 7 -19 17 -15 29 4 14 -5 23
-46 39 -66 28 -57 47 17 39 45 -5 56 -3 63 12 7 13 5 20 -10 29 -10 7 -19 19
-19 27 0 10 -10 15 -33 15 -35 0 -67 25 -67 52 0 19 48 30 90 22 18 -4 30 -2
30 4 0 6 3 17 6 25 3 10 -3 18 -18 22 -13 4 -31 14 -40 22 -10 9 -25 12 -38 8
-22 -7 -90 19 -90 34 0 13 27 21 70 21 21 0 43 6 50 15 7 8 21 15 32 15 17 0
18 3 8 15 -7 9 -10 25 -6 41 7 25 6 26 -26 20 -18 -3 -39 -2 -47 3 -7 5 -27 5
-43 1 -29 -9 -88 5 -88 19 0 17 40 42 63 39 44 -5 76 40 41 60 -28 16 -8 52
28 52 25 0 29 3 25 20 -3 13 2 25 16 35 21 14 20 15 -16 15 -20 0 -37 4 -37 9
0 6 -32 9 -75 7 -55 -2 -78 1 -86 11 -15 17 15 44 46 41 24 -3 125 33 125 43
0 4 -6 9 -12 12 -10 4 -10 7 0 18 6 7 12 17 12 21 0 11 -119 10 -160 -2 -25
-7 -43 -7 -62 1 -47 19 -28 55 21 42 17 -4 23 1 32 26 11 31 52 61 83 61 13 0
14 4 4 25 -9 19 -9 28 0 37 19 19 14 30 -7 18 -11 -5 -34 -10 -51 -10 -17 0
-39 -4 -49 -10 -24 -12 -91 -1 -91 16 0 22 43 44 88 44 30 0 41 4 36 11 -4 7
4 20 17 30 l24 19 -33 0 c-25 0 -35 5 -39 20 -6 24 -12 25 -41 4 -33 -23 -39
-10 -20 41 l17 45 -23 0 c-13 0 -31 9 -41 19 -16 19 -16 21 5 50 l21 31 -24 0
c-18 0 -27 7 -31 25 -6 22 -9 24 -28 14 -16 -9 -22 -8 -29 2 -13 21 -11 26 17
48 20 15 22 21 10 21 -21 0 -20 18 2 43 17 20 16 20 -15 14 -30 -6 -33 -4 -39
21 -10 39 -14 44 -29 32 -8 -7 -18 -9 -23 -6 -6 3 -17 -6 -27 -20 -23 -36 -51
-29 -166 46 -166 107 -483 255 -694 323 -487 158 -982 217 -1429 171z m224
-139 c10 -12 8 -21 -9 -47 -76 -119 -79 -225 -11 -328 16 -25 26 -47 22 -51
-13 -12 -77 -19 -91 -10 -10 7 -12 22 -6 66 6 52 5 57 -10 51 -9 -3 -19 -6
-21 -6 -2 0 -4 -8 -4 -18 0 -34 -46 -64 -117 -78 -75 -14 -100 -7 -107 29 -8
39 -26 210 -29 272 -2 54 0 61 21 70 12 5 22 17 22 26 0 21 11 25 85 28 33 2
62 5 64 7 2 2 44 4 91 4 65 0 91 -4 100 -15z m451 -5 c27 -15 24 -52 -7 -81
-79 -73 -100 -199 -49 -298 17 -35 23 -57 17 -63 -13 -13 -132 0 -132 14 0 5
9 21 20 35 16 20 18 29 9 40 -10 11 -15 11 -33 -5 -48 -44 -108 -54 -169 -28
-89 38 -125 172 -73 274 29 56 69 82 126 82 54 0 93 -28 114 -80 27 -67 46
-53 46 33 0 41 3 77 7 80 10 11 102 8 124 -3z m-991 -41 c0 -5 14 -15 30 -20
17 -6 30 -14 31 -17 0 -4 2 -16 4 -27 1 -11 8 -56 14 -100 6 -44 15 -110 21
-147 5 -37 7 -73 4 -80 -8 -21 -93 -70 -109 -64 -14 5 -20 40 -15 94 1 19 -3
23 -21 20 -17 -2 -25 -12 -30 -37 -4 -18 -16 -42 -27 -53 -25 -26 -151 -61
-167 -48 -6 5 -18 36 -25 67 -7 32 -15 64 -17 71 -3 7 13 20 41 33 53 23 100
19 116 -11 6 -11 16 -17 24 -14 21 8 -22 166 -44 162 -8 -2 -15 -10 -16 -18
-1 -33 -18 -50 -71 -70 -31 -11 -57 -19 -58 -18 -12 14 -35 71 -40 99 -8 42 0
50 72 73 47 16 54 16 82 2 16 -9 33 -20 36 -26 17 -28 26 -6 19 49 l-6 60 43
11 c24 6 49 13 54 15 22 8 55 4 55 -6z m1393 -30 c20 -5 37 -16 37 -23 0 -8 7
-16 15 -20 25 -9 34 -47 20 -86 -8 -19 -32 -87 -55 -150 -43 -118 -69 -155
-103 -146 -11 2 -28 -1 -38 -7 -15 -9 -22 -8 -36 7 -17 17 -17 18 1 29 96 57
138 205 88 304 -27 51 -28 79 -4 92 22 13 29 13 75 0z m-193 -14 c62 -32 78
-173 33 -277 -27 -59 -95 -96 -151 -82 -146 36 -100 372 51 374 21 0 51 -7 67
-15z m503 -80 c138 -50 145 -59 97 -121 -51 -64 -163 -175 -174 -171 -17 6
-24 30 -35 132 -13 114 -14 169 -4 178 12 13 48 7 116 -18z m-2215 -21 c6 -11
17 -15 31 -11 31 8 42 -15 92 -197 l43 -159 -22 -15 c-12 -8 -22 -21 -22 -28
0 -8 -30 -29 -66 -46 -96 -46 -99 -42 -117 142 -3 25 -10 94 -17 153 -11 100
-11 109 6 121 10 8 14 18 9 26 -4 7 -2 16 6 21 22 14 47 10 57 -7z m-201 -76
c4 -7 22 -13 38 -13 28 0 30 -3 33 -40 1 -22 7 -68 12 -103 17 -117 1 -119
-111 -12 l-84 80 24 20 c13 11 21 26 17 35 -3 9 5 20 22 29 34 19 39 19 49 4z
m2783 -56 c29 -17 45 -33 42 -43 -1 -9 4 -22 13 -29 8 -7 15 -16 15 -21 0 -18
-171 -294 -189 -307 -15 -10 -25 -11 -40 -3 -13 7 -22 8 -26 1 -11 -17 -25
-11 -35 15 -5 14 -14 25 -19 25 -40 0 -24 76 61 290 32 81 35 85 66 86 17 0
35 3 38 7 12 12 27 8 74 -21z m-565 -2 c4 -6 10 -61 15 -123 11 -139 4 -152
-57 -107 -22 17 -43 36 -46 44 -4 11 43 161 59 187 7 12 21 11 29 -1z m-2465
-71 c0 -6 11 -8 28 -5 21 4 36 -2 65 -27 37 -32 39 -36 40 -102 1 -43 -2 -69
-9 -72 -15 -5 -174 136 -174 154 0 7 5 13 10 13 6 0 10 11 10 25 0 16 6 25 15
25 8 0 15 -5 15 -11z m2750 -20 c0 -18 -51 -163 -66 -187 -12 -17 -23 -22 -52
-21 -46 2 -92 18 -92 33 0 18 173 186 192 186 10 0 18 -5 18 -11z m-2908 -81
c24 4 318 -272 318 -298 0 -12 -23 -31 -67 -56 -38 -21 -99 -61 -138 -90 -82
-61 -107 -71 -125 -49 -7 8 -19 15 -26 15 -11 0 -13 7 -8 27 6 23 4 25 -11 19
-10 -4 -21 -2 -26 5 -5 8 -16 8 -43 -1 -45 -15 -53 -9 -32 23 15 22 15 26 -4
50 -32 40 -26 52 22 48 25 -3 53 30 53 61 0 21 -4 27 -17 22 -9 -2 -19 0 -23
6 -5 8 -11 8 -21 0 -20 -18 -37 -7 -39 24 0 17 6 31 17 37 10 5 15 16 12 24
-4 9 0 15 10 15 28 0 17 18 -14 25 -16 4 -30 10 -30 14 0 3 32 28 72 53 58 38
75 45 87 35 8 -7 23 -11 33 -9z m3414 -8 c49 -34 67 -60 62 -92 -5 -33 19 -32
37 1 15 30 42 51 65 51 6 0 36 -23 66 -52 l54 -51 -22 -24 c-12 -12 -30 -23
-40 -23 -22 0 -22 -1 -3 -46 19 -46 11 -60 -22 -39 -24 16 -26 16 -44 -4 -11
-12 -32 -21 -47 -22 l-27 0 23 -11 c17 -8 22 -18 18 -32 -5 -19 -1 -21 42 -18
40 3 51 0 71 -22 18 -19 21 -27 10 -30 -39 -12 -64 -14 -78 -7 -9 5 -41 11
-73 15 -54 6 -56 5 -51 -15 4 -14 0 -25 -11 -31 -9 -5 -16 -16 -16 -23 0 -8
-5 -15 -11 -15 -16 0 -79 53 -79 67 0 7 18 27 40 44 35 28 38 34 24 42 -12 7
-26 4 -46 -8 -40 -23 -81 -15 -151 29 -32 20 -57 39 -57 42 0 15 74 136 86
141 18 7 81 -33 100 -62 9 -13 14 -34 12 -47 -2 -14 3 -24 12 -25 10 -2 29 22
53 68 39 70 42 94 9 71 -34 -24 -44 -24 -93 -1 -74 34 -76 39 -35 103 42 66
58 69 122 26z m-2982 -92 c68 -59 85 -78 86 -95 0 -6 -27 -26 -60 -42 -60 -31
-90 -38 -90 -23 0 4 -5 49 -10 101 -8 90 -7 111 7 111 4 0 34 -24 67 -52z
m1616 1 c119 -12 334 -55 490 -98 251 -69 564 -219 783 -375 89 -64 108 -86
71 -86 -28 0 -13 -18 29 -35 88 -35 98 -71 16 -60 -31 4 -49 3 -49 -3 0 -6
-13 -13 -30 -17 -33 -7 -39 -19 -14 -29 11 -4 14 -13 10 -29 -5 -21 -2 -23 22
-19 18 2 33 -2 42 -13 13 -15 12 -20 -9 -36 -23 -19 -23 -20 -6 -39 11 -12 31
-20 50 -20 18 0 39 -8 49 -19 16 -17 15 -19 -11 -29 -15 -6 -65 -10 -110 -9
-46 1 -83 0 -82 -3 0 -3 4 -14 9 -25 5 -13 3 -26 -8 -37 -14 -16 -13 -18 5
-18 11 0 26 -7 33 -15 7 -9 29 -15 54 -15 23 0 51 -6 61 -14 18 -13 18 -14 -5
-26 -13 -7 -42 -14 -64 -15 -32 -2 -79 -15 -114 -31 -1 -1 2 -14 8 -29 9 -24
14 -27 40 -22 16 4 43 2 59 -4 l31 -11 -21 -29 c-16 -22 -28 -29 -55 -29 -19
0 -34 -5 -34 -12 0 -6 -7 -20 -16 -30 -27 -29 -3 -49 51 -41 23 3 50 1 60 -4
13 -8 6 -13 -40 -27 -48 -16 -55 -21 -49 -38 4 -13 0 -24 -12 -33 -15 -10 -16
-16 -6 -28 18 -21 4 -47 -26 -47 l-26 0 34 -30 c32 -28 40 -30 85 -25 36 3 57
0 72 -10 19 -13 28 -13 79 0 32 8 91 15 131 15 89 0 91 -3 89 -125 l-1 -89
-34 -7 c-18 -4 -164 -8 -325 -9 -160 -1 -331 -3 -381 -4 -105 -2 -118 0 -110
23 3 10 7 78 9 152 3 125 2 137 -20 181 -13 26 -24 55 -24 65 0 22 36 83 49
83 9 0 17 -55 28 -194 5 -63 10 -85 28 -104 23 -24 23 -24 43 -4 18 18 19 31
17 143 -2 68 -8 136 -14 151 -7 19 -7 45 0 83 13 70 -2 97 -81 150 -96 65
-151 88 -210 90 -108 4 -107 4 -114 28 -6 21 -8 20 -39 -16 -31 -36 -36 -38
-73 -32 -45 9 -74 30 -74 55 0 10 -7 21 -16 24 -33 13 -42 6 -42 -28 0 -40 -9
-59 -23 -50 -9 5 -305 29 -474 38 -28 2 -61 8 -73 15 -18 10 -22 9 -22 -4 0
-12 -6 -15 -20 -10 -22 7 -26 -5 -9 -22 12 -12 8 -77 -10 -167 l-13 -59 31
-29 c47 -44 41 -76 -32 -190 -49 -77 -142 -128 -258 -142 l-57 -7 -6 223 c-6
220 3 520 17 534 3 4 13 2 21 -5 16 -13 26 4 26 44 0 12 7 28 15 35 22 18 19
34 -15 70 -23 25 -33 29 -47 22 -10 -6 -31 -8 -47 -5 -25 5 -27 3 -22 -14 5
-15 1 -22 -13 -26 -11 -3 -22 -2 -25 1 -3 3 -6 38 -6 77 0 67 2 73 25 83 14 7
31 12 38 12 22 0 38 16 32 32 -6 16 -6 16 -155 -13 -76 -15 -241 -63 -323 -94
-37 -14 -154 -47 -260 -73 l-192 -49 -4 -234 c-4 -252 -4 -246 3 -576 2 -122
2 -230 0 -241 -5 -17 -20 -18 -243 -21 -152 -1 -255 2 -286 10 -28 6 -62 11
-78 11 -36 -1 -47 22 -47 101 0 56 3 65 23 74 36 18 66 22 97 13 17 -5 44 -5
62 1 22 6 43 5 64 -3 40 -14 68 3 60 36 -4 18 1 23 32 33 20 6 63 8 95 6 52
-5 57 -4 57 15 0 11 6 23 13 26 8 3 7 8 -5 16 -10 6 -18 20 -18 31 0 12 -10
23 -25 29 -28 11 -34 30 -9 30 11 0 14 5 10 16 -4 9 -2 22 4 29 8 9 3 16 -20
25 -33 14 -38 25 -15 34 8 3 15 9 15 14 0 9 -101 32 -139 32 -12 0 -31 5 -42
10 -16 9 -17 14 -8 32 9 17 17 19 51 14 39 -6 40 -6 36 18 -6 31 11 39 69 30
38 -6 43 -4 43 13 0 11 11 25 25 31 36 16 31 28 -14 36 -22 3 -41 12 -43 18
-4 10 -10 10 -32 0 -19 -8 -33 -9 -46 -2 -12 6 -28 6 -50 -1 -26 -9 -37 -8
-65 7 -33 17 -34 19 -19 41 11 18 12 28 4 43 -10 18 -8 20 30 20 37 0 40 2 30
19 -15 28 -13 31 18 31 20 0 32 8 45 30 l18 30 -35 0 c-19 0 -38 5 -41 10 -3
6 -24 10 -45 10 -30 0 -45 7 -69 31 -17 17 -31 32 -31 35 0 2 21 4 48 4 35 0
55 6 77 25 l30 24 -27 1 c-20 0 -26 4 -22 15 4 11 0 15 -16 15 -33 0 -19 22
24 37 21 7 76 39 121 72 367 263 810 438 1241 491 246 31 417 33 654 9z m-57
-1154 c75 -40 87 -51 98 -83 6 -20 17 -48 25 -62 29 -58 44 -133 46 -243 3
-108 2 -117 -21 -148 -13 -18 -27 -46 -31 -63 -6 -29 -8 -31 -46 -26 -21 3
-207 5 -412 5 l-372 0 0 42 c0 47 15 57 73 51 l32 -3 -3 53 -3 52 44 0 c81 0
192 49 254 112 51 52 98 153 108 229 6 46 11 59 30 67 13 6 31 23 41 37 9 14
24 25 34 25 10 0 56 -20 103 -45z m693 -157 c40 -49 60 -104 68 -188 8 -86 -6
-140 -52 -199 -15 -20 -29 -47 -32 -61 l-5 -25 -160 2 c-88 1 -163 2 -166 2
-3 1 -4 25 -1 54 6 68 6 70 -8 220 -6 71 -9 135 -6 143 10 25 31 10 31 -22 0
-26 4 -29 37 -32 35 -3 37 -2 40 30 3 30 6 34 43 39 51 7 78 17 129 45 22 12
44 23 48 23 3 1 18 -14 34 -31z"/>
</g>
</svg>
