<?xml version="1.0" standalone="no"?>
<!DOCTYPE svg PUBLIC "-//W3C//DTD SVG 20010904//EN"
 "http://www.w3.org/TR/2001/REC-SVG-20010904/DTD/svg10.dtd">
<svg version="1.0" xmlns="http://www.w3.org/2000/svg"
 width="580.000000pt" height="400.000000pt" viewBox="0 0 580.000000 400.000000"
 preserveAspectRatio="xMidYMid meet">
<metadata>
Created by potrace 1.16, written by Peter Selinger 2001-2019
</metadata>
<g transform="translate(0.000000,400.000000) scale(0.100000,-0.100000)"
fill="#000000" stroke="none">
<path d="M2755 3654 c-467 -21 -833 -80 -1245 -200 -85 -25 -173 -52 -195 -60
-22 -9 -92 -35 -155 -59 -63 -23 -162 -63 -219 -89 -57 -25 -105 -46 -106 -46
-2 0 -5 10 -9 23 -4 18 -12 23 -40 23 -32 0 -35 -3 -38 -30 -3 -29 -5 -31 -42
-29 l-39 3 21 -23 c27 -29 28 -37 2 -37 -27 0 -25 -6 7 -35 21 -18 25 -26 17
-35 -9 -9 -17 -9 -32 -1 -18 10 -21 8 -24 -17 -2 -23 -8 -28 -37 -30 l-33 -3
28 -30 c35 -36 25 -62 -25 -67 -35 -4 -36 -5 -10 -69 17 -42 7 -51 -27 -24
l-28 22 -12 -23 c-8 -16 -24 -25 -51 -29 l-38 -5 28 -14 c21 -10 27 -19 23
-33 -4 -18 0 -19 40 -14 35 3 50 0 70 -15 46 -36 3 -48 -106 -29 -30 5 -66 12
-78 16 -24 8 -24 8 -8 -24 12 -23 14 -36 6 -50 -14 -28 -13 -34 9 -28 30 8 78
-27 86 -63 6 -27 10 -31 33 -26 15 3 34 1 42 -4 24 -17 -17 -43 -55 -35 -55
12 -195 17 -195 8 0 -5 6 -15 13 -22 10 -10 8 -15 -7 -26 -18 -14 -18 -15 5
-23 13 -6 41 -17 61 -25 20 -9 46 -13 58 -10 21 6 64 -23 55 -37 -7 -11 -97
-11 -134 0 -22 6 -31 5 -35 -6 -3 -8 -20 -14 -41 -14 -38 0 -44 -10 -19 -31 9
-7 14 -22 11 -36 -4 -20 0 -23 30 -23 43 0 56 -26 25 -50 l-21 -17 23 -22 c12
-12 35 -21 53 -21 17 0 37 -8 48 -20 17 -19 17 -20 -11 -31 -21 -8 -37 -8 -58
0 -19 7 -35 7 -47 0 -11 -5 -34 -7 -53 -4 l-33 7 1 -40 c1 -40 1 -41 43 -47
48 -7 57 -16 48 -45 -5 -16 -15 -20 -51 -20 -37 0 -44 -3 -44 -19 0 -11 -10
-27 -22 -35 l-22 -16 21 -21 c16 -17 25 -19 40 -11 21 12 63 5 63 -9 0 -4 -18
-14 -40 -20 -33 -10 -40 -17 -40 -37 0 -14 -8 -30 -17 -37 -14 -10 -15 -16 -5
-28 18 -21 4 -47 -24 -47 -31 0 -30 -10 5 -37 30 -23 63 -28 119 -17 23 4 40
1 60 -12 30 -20 59 -20 83 2 11 10 41 15 88 16 98 2 125 -17 129 -94 4 -66
-12 -296 -21 -304 -3 -4 -27 -10 -52 -15 -118 -22 -235 -114 -295 -234 -34
-67 -35 -72 -35 -184 1 -111 2 -119 34 -180 38 -74 109 -146 178 -181 l48 -25
2339 -3 2340 -2 60 28 c76 36 151 110 185 182 23 50 26 67 26 175 0 161 -21
219 -108 302 -65 62 -127 97 -205 117 -54 14 -49 3 -61 166 -5 63 -12 134 -16
156 -10 56 5 79 58 92 46 12 136 3 159 -15 26 -21 57 -21 74 -1 16 16 26 18
84 12 65 -6 68 -5 101 25 l34 30 -27 1 c-31 0 -50 36 -27 51 11 8 10 12 -6 24
-11 9 -20 25 -20 38 0 17 -10 25 -42 37 -58 20 -54 34 7 28 37 -4 53 -1 64 11
13 14 12 19 -5 40 -10 13 -19 29 -19 37 0 10 -13 14 -43 14 -32 0 -45 5 -56
21 -18 30 1 41 60 35 41 -4 48 -2 59 19 15 29 7 55 -17 55 -10 0 -28 7 -40 15
-15 10 -43 14 -96 12 -41 -1 -79 1 -83 6 -12 12 28 36 62 37 18 0 39 8 50 21
19 21 18 21 -5 40 -22 18 -23 21 -7 38 11 12 25 16 42 13 23 -4 24 -2 19 21
-5 20 -2 28 14 37 28 14 18 30 -19 30 -16 0 -32 4 -35 10 -3 5 -38 7 -84 4
-47 -3 -82 -1 -85 5 -11 17 25 43 52 38 13 -3 43 3 66 13 22 9 50 20 61 24 19
7 19 8 -3 20 -21 11 -22 14 -8 25 9 8 16 17 16 22 0 13 -123 11 -175 -2 -32
-8 -48 -8 -65 1 -32 17 -19 35 23 32 32 -2 36 0 42 28 9 39 50 72 82 64 22 -6
23 -5 12 20 -10 20 -10 32 0 52 14 32 9 39 -17 25 -12 -6 -37 -11 -57 -11 -20
0 -45 -4 -55 -10 -12 -6 -29 -6 -50 1 l-31 11 22 24 c19 20 28 22 67 17 41 -6
44 -5 38 14 -5 17 0 23 26 34 l33 12 -39 6 c-24 4 -43 13 -50 26 -6 11 -12 22
-14 24 -1 3 -13 -6 -27 -19 -14 -13 -28 -20 -32 -17 -5 6 6 53 23 95 4 8 -5
12 -30 12 -53 0 -64 29 -25 66 l31 29 -34 5 c-27 4 -34 10 -36 33 -3 27 -16
35 -27 17 -3 -5 -13 -10 -21 -10 -23 0 -16 36 11 50 30 16 32 30 5 30 -26 0
-25 8 3 38 l22 24 -37 -7 c-40 -8 -40 -7 -53 48 -5 24 -8 27 -20 17 -8 -7 -22
-10 -30 -6 -8 3 -15 2 -15 -2 0 -5 -6 -16 -13 -25 -11 -16 -16 -16 -65 8 -28
14 -54 25 -57 25 -2 0 -35 14 -72 31 -272 125 -889 296 -1168 324 -33 4 -67 8
-75 10 -67 18 -600 45 -745 39z m194 -153 c18 -18 19 -30 14 -138 -3 -65 -10
-124 -16 -130 -23 -30 -64 -14 -116 43 -49 53 -61 74 -42 74 4 0 20 12 35 26
34 35 34 77 1 108 -14 13 -25 26 -25 30 0 3 29 6 65 6 51 0 69 -4 84 -19z
m223 8 c8 -5 3 -12 -16 -20 -67 -31 -89 -153 -42 -233 14 -24 26 -47 26 -50 0
-11 -61 -6 -95 8 l-35 15 0 74 c0 133 10 194 34 206 24 11 109 12 128 0z
m-548 -15 c13 -12 16 -40 16 -144 l0 -128 -27 -10 c-37 -14 -113 -26 -113 -17
0 4 13 19 29 34 37 34 54 95 41 141 -13 46 -50 97 -80 111 -24 11 -24 12 -5
20 36 14 122 10 139 -7z m139 -5 c29 -16 37 -28 37 -61 0 -33 -41 -68 -81 -68
l-29 0 0 70 c0 68 1 70 26 70 14 0 35 -5 47 -11z m672 -13 c13 -13 22 -32 20
-42 -3 -11 -11 -57 -20 -104 -9 -47 -18 -95 -20 -107 -6 -25 -56 -46 -91 -37
-30 8 -31 20 -3 34 34 19 16 21 -27 4 -53 -21 -109 -3 -142 46 -44 64 -16 175
52 208 49 24 126 -12 126 -60 0 -10 5 -18 10 -18 6 0 10 23 10 50 0 49 1 50
30 50 19 0 40 -9 55 -24z m-1157 -19 c20 -20 39 -251 23 -271 -15 -18 -79 -32
-91 -20 -5 5 -19 69 -31 143 l-23 133 25 19 c26 21 73 19 97 -4z m1342 -20
c-1 -13 -104 -87 -122 -87 -6 0 -8 12 -4 31 3 17 6 40 6 51 0 12 12 24 32 33
28 11 37 11 60 -1 16 -8 28 -20 28 -27z m-1165 21 c52 -24 82 -130 54 -191
-14 -31 -77 -67 -117 -67 -27 0 -32 4 -37 33 -10 60 -23 222 -18 230 7 11 89
8 118 -5z m-330 -33 c13 -16 39 -164 31 -172 -3 -3 -35 21 -72 53 -36 32 -80
71 -97 86 -17 15 -29 29 -26 32 3 3 23 10 45 15 47 12 105 5 119 -14z m1649
14 l38 -11 -26 -27 c-43 -45 -35 -79 41 -164 39 -44 43 -83 10 -98 -37 -17
-75 4 -97 53 -20 45 -22 43 -32 -27 -6 -39 -33 -19 -100 75 l-67 95 32 28 c27
23 141 86 157 87 3 0 22 -5 44 -11z m-1894 -39 c14 0 22 -12 31 -42 6 -24 14
-47 19 -53 12 -16 33 -167 23 -174 -4 -4 -20 -12 -35 -19 -27 -11 -28 -11 -28
23 0 42 -12 45 -26 6 -9 -21 -23 -32 -59 -45 -72 -24 -83 -22 -94 22 -26 97
-27 90 21 100 33 7 49 6 66 -5 31 -19 34 -15 21 33 -13 47 -29 67 -29 35 0
-16 -10 -26 -35 -37 -59 -24 -71 -20 -84 33 -14 54 -7 66 51 81 27 7 43 7 62
-3 25 -13 26 -13 26 15 0 29 14 42 38 34 8 -2 22 -4 32 -4z m1998 -10 c21 -13
35 -31 39 -50 8 -43 23 -37 23 9 0 22 5 43 10 46 16 10 170 -26 170 -39 0 -7
-16 -18 -36 -25 -21 -7 -47 -30 -66 -54 -27 -39 -30 -47 -25 -103 2 -34 12
-73 22 -88 10 -15 16 -28 14 -30 -2 -2 -41 6 -86 17 -81 20 -104 39 -64 52 24
7 45 57 36 87 -4 13 -32 49 -61 80 -59 61 -63 72 -37 100 20 22 21 22 61 -2z
m-1755 -175 c64 -55 41 -81 -73 -84 -25 0 -50 3 -56 7 -12 7 -45 191 -37 205
4 7 48 -27 166 -128z m652 63 l46 -63 -38 -5 c-38 -6 -72 4 -85 24 -10 14 -10
90 -1 99 16 16 34 3 78 -55z m-1138 -73 c18 -66 33 -123 33 -126 0 -3 -10 -17
-22 -31 -18 -19 -29 -23 -53 -19 -28 6 -32 13 -67 116 -20 61 -37 119 -37 129
-2 35 29 57 73 54 l41 -3 32 -120z m2548 110 c64 -26 74 -116 25 -202 -41 -72
-99 -84 -151 -32 -18 18 -21 30 -17 84 5 84 49 152 106 164 1 1 18 -6 37 -14z
m116 -6 c21 -7 49 -23 61 -36 l23 -24 -29 -82 c-16 -45 -37 -101 -47 -124 -18
-41 -20 -43 -62 -43 -24 0 -51 6 -61 13 -17 13 -15 16 26 40 58 34 82 81 76
149 -3 28 -14 62 -27 78 -33 45 -27 49 40 29z m-756 -64 c26 -35 44 -69 40
-75 -10 -16 -71 -11 -95 8 -21 17 -22 24 -16 75 4 31 11 57 16 57 5 0 30 -29
55 -65z m-2093 -35 c10 -29 17 -54 15 -55 -1 -1 -30 -12 -65 -23 -46 -15 -64
-18 -67 -9 -34 93 -34 95 -17 115 27 30 52 39 86 33 27 -6 33 -14 48 -61z
m3116 -14 l22 -22 -29 -79 c-16 -44 -33 -81 -38 -82 -10 -4 -95 232 -86 240 8
9 107 -35 131 -57z m-3277 -96 c43 -120 47 -150 20 -174 -11 -10 -70 -41 -133
-70 -62 -28 -146 -67 -186 -86 -66 -30 -74 -32 -89 -18 -20 21 -7 41 23 34 14
-4 26 -1 31 7 4 8 16 16 26 20 13 5 16 11 9 23 -5 9 -7 26 -4 37 4 16 1 18
-17 12 -13 -4 -28 -2 -36 5 -11 9 -15 9 -15 1 0 -6 -7 -11 -15 -11 -20 0 -20
49 0 56 9 4 13 13 10 24 -3 11 2 20 17 27 23 11 22 11 -9 23 -18 7 -33 16 -33
20 0 4 23 22 50 40 28 18 54 39 58 47 14 24 182 93 221 90 33 -2 34 -3 72
-107z m3142 8 c63 -203 62 -212 -21 -179 -56 22 -92 49 -92 68 0 7 13 45 28
85 16 40 32 81 35 91 12 33 25 17 50 -65z m333 21 c76 -36 83 -42 80 -67 -2
-24 -6 -27 -35 -25 -29 1 -32 -1 -27 -20 3 -12 6 -29 6 -39 0 -11 6 -15 18
-11 10 2 26 -5 36 -16 21 -23 15 -54 -9 -45 -19 8 -19 -4 1 -51 19 -45 13 -53
-22 -30 -22 14 -28 15 -35 4 -5 -8 -9 -17 -9 -20 0 -22 -44 -13 -133 27 -56
26 -106 50 -111 55 -14 13 72 255 96 270 23 14 64 5 144 -32z m-3263 -53 c16
-45 16 -51 2 -73 -36 -54 -108 -51 -132 5 -28 68 -24 83 32 103 28 10 57 17
65 16 8 -1 23 -24 33 -51z m1610 -14 l47 -2 0 -60 0 -60 -270 0 -270 0 0 59 0
60 48 3 c48 3 359 3 445 0z m217 -17 c174 -13 527 -83 745 -147 241 -71 567
-202 579 -233 10 -26 7 -35 -9 -35 -8 0 -15 -4 -15 -9 0 -15 22 -25 52 -23 21
2 31 -4 43 -28 14 -28 14 -33 0 -52 -8 -13 -15 -30 -15 -40 0 -32 -47 -23 -65
13 -13 25 -19 28 -31 18 -10 -8 -12 -22 -8 -45 6 -30 4 -34 -16 -34 -37 0 -16
-23 41 -45 75 -29 83 -76 9 -55 -26 7 -38 6 -50 -5 -9 -8 -29 -15 -43 -15 -29
0 -38 -24 -12 -34 8 -3 15 -17 15 -31 0 -21 5 -25 30 -25 40 0 51 -27 21 -49
l-22 -17 26 -24 c17 -16 35 -24 51 -22 25 4 54 -12 54 -29 0 -14 -72 -23 -92
-10 -19 12 -55 7 -97 -15 -14 -8 -34 -14 -44 -14 -14 0 -16 -5 -11 -27 9 -39
30 -54 60 -43 14 6 35 5 53 -1 29 -10 30 -11 15 -35 -12 -18 -26 -24 -53 -24
-30 -1 -40 -7 -59 -37 -21 -33 -22 -37 -6 -54 12 -13 22 -16 39 -9 24 9 87 -2
70 -12 -6 -3 -27 -11 -47 -17 -30 -10 -38 -18 -38 -36 0 -15 -9 -29 -22 -36
-20 -11 -20 -13 -5 -24 23 -17 12 -42 -21 -50 l-27 -7 35 -28 c19 -16 31 -32
27 -36 -9 -9 -240 109 -245 125 -2 6 8 11 23 11 57 0 112 52 129 123 9 40 -9
99 -41 129 -29 27 -121 80 -163 93 -21 7 -23 6 -13 -7 16 -19 5 -57 -50 -168
-38 -77 -45 -85 -73 -88 -18 -2 -39 4 -52 15 -19 16 -23 34 -32 143 -12 146
-18 190 -28 190 -4 0 -36 -35 -72 -78 -113 -134 -144 -162 -178 -162 -40 0
-46 12 -27 49 9 19 11 32 5 36 -6 3 -10 2 -10 -4 0 -6 -11 -18 -24 -27 -21
-13 -33 -14 -80 -4 -31 6 -58 15 -61 20 -6 10 14 101 25 113 4 5 25 4 47 -2
28 -8 44 -19 53 -38 l13 -28 14 48 c17 55 12 68 -16 43 -20 -18 -72 -15 -97 5
-13 10 -1 86 16 103 15 15 93 -13 118 -42 l23 -27 -3 35 -3 35 -100 22 c-120
27 -136 28 -110 9 19 -13 19 -16 1 -112 -25 -132 -32 -150 -65 -164 -52 -21
-161 8 -161 43 0 62 26 240 35 244 22 8 66 -17 77 -44 l11 -28 8 40 c4 22 6
41 5 42 -2 2 -236 33 -252 33 -7 0 -14 -18 -16 -40 -4 -42 6 -54 17 -20 7 23
48 36 74 24 16 -9 16 -16 2 -133 -14 -107 -19 -125 -36 -132 -21 -8 -185 -12
-185 -4 0 2 11 15 25 29 26 26 32 64 15 96 -6 11 -37 38 -70 60 -68 46 -80 81
-35 102 29 13 69 -8 87 -48 12 -26 34 -34 24 -8 -3 9 -6 28 -6 44 0 23 -4 27
-19 23 -10 -3 -28 0 -39 6 -25 13 -79 -1 -98 -26 -7 -10 -14 -32 -14 -49 0
-32 19 -54 93 -108 38 -28 48 -61 25 -84 -22 -22 -59 -13 -95 23 -19 19 -36
35 -38 35 -1 0 0 -20 2 -44 l5 -44 -37 -4 -37 -4 6 43 c3 25 2 43 -4 43 -6 0
-10 -6 -10 -14 0 -30 -50 -56 -106 -56 l-54 0 -2 40 c-1 22 -2 50 -2 62 -1 17
7 24 33 31 28 7 39 5 63 -13 l28 -21 0 46 c0 49 -8 56 -28 25 -9 -15 -23 -20
-57 -20 l-45 0 0 54 0 54 46 7 c39 5 52 3 75 -14 l29 -22 0 31 c0 35 2 34
-148 24 -88 -7 -114 -16 -73 -27 16 -4 20 -19 26 -127 7 -122 7 -123 -16 -141
-25 -19 -94 -26 -103 -10 -9 15 -46 200 -46 232 0 16 7 32 18 38 15 9 14 10
-8 10 -68 -2 -72 -7 -101 -122 -25 -102 -34 -126 -42 -116 -2 2 -34 45 -71 96
-65 89 -69 92 -99 86 -41 -8 -44 -11 -24 -26 17 -13 62 -228 53 -253 -6 -15
-126 -72 -126 -59 0 2 10 20 21 40 17 28 20 47 17 86 -6 62 -31 97 -89 127
-77 41 -147 18 -194 -62 -21 -36 -24 -51 -19 -85 9 -56 41 -102 87 -124 20
-10 37 -22 37 -26 0 -11 -97 -33 -117 -27 -12 4 -36 46 -66 118 -45 107 -47
112 -31 136 12 19 13 24 3 20 -107 -43 -118 -51 -80 -61 19 -4 51 -64 51 -92
0 -7 -25 -23 -55 -35 -64 -26 -75 -21 -95 40 -10 32 -11 42 0 55 17 21 1 19
-57 -6 -44 -20 -46 -22 -24 -28 20 -5 33 -28 72 -121 43 -106 50 -140 28 -140
-5 0 -9 -6 -9 -14 0 -8 -43 -37 -95 -65 -85 -45 -102 -51 -156 -51 -53 0 -60
2 -49 15 7 8 10 22 6 30 -3 8 0 15 6 15 6 0 20 7 30 17 15 14 24 14 57 5 21
-7 53 -12 70 -12 28 0 31 3 26 21 -5 15 -2 22 14 26 28 7 26 17 -4 31 -15 7
-25 20 -25 33 0 12 -8 23 -20 26 -24 6 -26 19 -5 27 8 3 12 12 9 21 -4 8 -1
22 6 30 10 12 7 17 -16 27 -40 17 -39 16 -20 37 16 18 14 19 -60 42 -42 13
-75 29 -73 34 4 11 16 10 62 -1 21 -5 31 -2 41 12 12 16 11 21 -9 40 -20 19
-33 21 -89 19 -53 -3 -70 0 -88 15 l-23 19 44 1 c37 0 42 2 36 18 -12 32 -10
37 18 40 18 2 32 13 42 32 20 39 20 40 -15 33 -22 -4 -36 0 -50 12 -13 11 -29
16 -47 12 -19 -3 -37 2 -60 20 -18 14 -33 29 -33 34 0 5 22 9 48 9 38 0 54 6
82 30 l35 29 -34 1 c-25 0 -32 4 -27 15 3 9 0 15 -9 15 -27 0 -16 17 18 26 17
6 32 16 32 24 0 12 -12 14 -57 12 -60 -3 -75 8 -38 28 11 6 17 16 14 25 -4 10
0 15 14 15 30 0 56 28 41 46 -6 8 -9 21 -5 29 4 12 0 14 -17 10 -24 -6 -74 26
-64 42 11 17 423 191 517 218 14 4 75 22 135 41 200 63 698 154 843 154 l42 0
0 -55 0 -55 -110 0 -110 0 0 -230 0 -230 540 0 540 0 0 230 0 230 -110 0 -110
0 0 61 c0 53 2 60 18 55 9 -3 55 -8 102 -11z m-965 -978 c13 -67 14 -91 5
-102 -14 -17 -79 -40 -88 -31 -3 4 7 59 22 122 16 64 32 112 36 107 4 -4 15
-48 25 -96z m-445 23 c38 -27 64 -97 57 -156 -6 -56 -20 -71 -74 -80 -39 -6
-45 -4 -77 28 -42 42 -65 132 -45 179 25 61 78 72 139 29z m273 -69 c32 -43
57 -83 57 -89 0 -15 -27 -22 -60 -15 -37 7 -40 11 -56 87 -26 121 -17 124 59
17z m1729 -18 c2 -32 3 -60 1 -62 -4 -6 -83 21 -88 29 -5 8 63 90 75 90 4 0
10 -26 12 -57z m384 -46 c89 -81 34 -227 -85 -227 -43 0 -91 21 -91 39 0 4 23
56 50 115 57 121 68 127 126 73z m-416 -35 c30 -15 35 -22 35 -52 0 -30 -4
-36 -24 -38 -33 -5 -97 17 -117 39 -15 17 -15 20 6 49 24 33 33 33 100 2z
m-770 -38 c302 -17 675 -108 970 -235 108 -47 290 -139 290 -146 0 -5 -21 -24
-47 -43 -77 -58 -143 -179 -143 -262 l0 -29 -419 3 c-231 2 -422 6 -426 10 -3
3 12 33 34 66 45 65 48 79 26 121 -13 27 -13 32 8 70 15 28 29 41 43 41 14 0
24 8 27 21 13 47 71 -10 86 -84 4 -18 14 -33 22 -35 35 -6 54 113 37 222 -11
68 -11 68 -29 45 -16 -21 -18 -22 -24 -6 -10 25 -24 21 -17 -5 4 -16 2 -20
-10 -15 -9 3 -37 9 -63 13 -38 5 -51 12 -64 35 -20 35 -27 36 -57 4 -26 -28
-30 -29 -224 -26 -132 2 -136 2 -177 -25 -50 -33 -80 -95 -86 -176 -2 -32 -7
-61 -11 -65 -20 -20 -200 -6 -341 28 -103 24 -160 58 -168 97 -9 48 5 135 29
169 38 56 4 108 -55 82 -22 -10 -26 -17 -23 -39 3 -20 -3 -31 -23 -44 -16 -10
-42 -49 -63 -94 -33 -69 -37 -86 -37 -156 l0 -79 -58 -40 c-32 -22 -61 -46
-64 -54 -3 -8 5 -25 17 -38 13 -14 21 -28 17 -31 -4 -4 -113 -3 -244 2 l-238
9 -5 40 c-12 83 -76 182 -164 251 l-39 31 74 40 c182 100 399 178 682 247 202
49 355 73 557 85 130 9 174 8 400 -5z m-1470 -50 c11 -26 20 -52 20 -60 0 -21
-51 -54 -85 -54 -37 0 -45 8 -69 68 l-16 43 52 24 c29 13 58 24 65 24 7 1 21
-20 33 -45z m3253 -270 c27 -6 28 -8 26 -62 0 -32 -3 -73 -6 -93 l-5 -36 -51
54 c-33 35 -75 66 -120 88 l-70 33 49 15 c46 15 104 15 177 1z m-3799 -11 c13
-4 -2 -15 -52 -39 -48 -23 -86 -51 -121 -90 -28 -30 -51 -60 -51 -65 0 -5 -4
-9 -10 -9 -6 0 -10 36 -10 89 0 115 5 120 134 119 50 0 99 -2 110 -5z m1231
-103 c0 -21 5 -26 32 -28 23 -2 44 -17 79 -55 26 -29 53 -66 60 -83 7 -17 22
-34 32 -36 11 -3 21 -17 24 -32 l5 -26 -132 0 c-112 0 -136 3 -154 18 -19 15
-20 21 -11 52 5 19 10 68 10 108 0 40 5 82 11 93 14 28 44 20 44 -11z m975
-54 c0 -44 -22 -192 -31 -208 -10 -19 -17 -20 -97 -14 -99 8 -125 23 -146 81
-30 82 -30 84 6 101 18 9 47 23 64 33 37 21 204 27 204 7z m-732 -26 c56 -11
131 -20 165 -21 34 -1 72 -4 85 -7 21 -6 21 -9 8 -28 -14 -19 -29 -22 -142
-28 l-127 -8 -48 48 c-27 27 -49 52 -49 56 0 10 -12 11 108 -12z m421 -119
c17 -32 31 -62 31 -65 0 -4 -42 -5 -92 -4 l-93 3 -2 30 c-3 36 21 68 62 83 53
19 61 15 94 -47z"/>
</g>
</svg>
