<?xml version="1.0" standalone="no"?>
<!DOCTYPE svg PUBLIC "-//W3C//DTD SVG 20010904//EN"
 "http://www.w3.org/TR/2001/REC-SVG-20010904/DTD/svg10.dtd">
<svg version="1.0" xmlns="http://www.w3.org/2000/svg"
 width="580.000000pt" height="400.000000pt" viewBox="0 0 580.000000 400.000000"
 preserveAspectRatio="xMidYMid meet">
<metadata>
Created by potrace 1.16, written by Peter Selinger 2001-2019
</metadata>
<g transform="translate(0.000000,400.000000) scale(0.100000,-0.100000)"
fill="#000000" stroke="none">
<path d="M2840 3627 c-47 -21 -112 -80 -127 -116 -10 -24 -14 -60 -11 -112 3
-69 7 -83 36 -124 42 -59 37 -75 -24 -75 l-46 0 7 60 c4 33 3 60 -2 60 -16 0
-32 -16 -42 -42 -15 -40 -53 -60 -124 -65 -46 -4 -65 -2 -73 8 -11 13 -26 113
-40 263 -7 68 -6 70 21 92 31 24 26 47 -8 39 -12 -2 -55 -9 -94 -15 -51 -8
-73 -16 -73 -26 0 -8 8 -14 19 -14 10 0 23 -6 29 -12 9 -12 52 -290 52 -337 0
-20 -72 -71 -100 -71 -14 0 -19 11 -25 56 -5 43 -10 55 -23 52 -9 -2 -19 -18
-23 -38 -9 -44 -35 -65 -105 -85 -79 -23 -86 -19 -106 50 -24 87 -23 90 21
103 57 18 88 15 111 -10 35 -38 42 -10 18 75 -16 59 -25 77 -37 75 -9 -2 -18
-17 -21 -33 -5 -31 -48 -60 -100 -67 -26 -3 -37 17 -54 99 -9 39 8 51 92 59
51 6 61 4 78 -14 31 -33 46 -15 30 38 -7 24 -18 46 -24 48 -6 2 -48 -8 -94
-22 -46 -13 -120 -35 -166 -47 -65 -17 -82 -25 -80 -38 2 -11 12 -15 31 -13
20 3 29 -2 36 -20 23 -57 91 -288 91 -310 0 -33 -54 -80 -123 -108 -68 -28
-71 -26 -80 58 -4 32 -13 117 -22 191 -14 120 -14 136 -1 157 9 12 12 25 7 29
-7 4 -116 -35 -139 -50 -1 -1 0 -9 4 -18 4 -12 11 -14 23 -8 30 16 43 -4 52
-80 12 -110 11 -139 -5 -139 -14 0 -157 125 -165 143 -2 6 7 18 20 28 16 12
21 21 14 28 -14 14 -179 -69 -183 -93 -3 -16 1 -18 30 -13 28 5 39 1 67 -25
31 -28 34 -36 35 -91 1 -36 -3 -62 -10 -64 -6 -2 -46 29 -89 69 -70 66 -75 73
-59 85 13 10 15 16 7 24 -14 14 -50 2 -120 -39 -50 -28 -58 -55 -15 -46 24 5
42 -9 162 -122 74 -71 141 -137 149 -148 18 -24 10 -30 -117 -108 l-87 -53
-92 0 c-102 0 -135 14 -98 41 19 14 36 14 93 -2 18 -5 21 -3 16 10 -5 12 0 19
15 23 28 7 27 19 -3 27 -14 3 -26 16 -30 31 -6 22 -9 23 -31 13 -36 -16 -41
-4 -16 38 23 39 17 53 -20 54 -15 0 -29 19 -29 40 0 4 15 17 32 28 34 22 34
21 -17 37 -8 2 -15 16 -15 30 0 22 -3 24 -19 16 -23 -13 -45 8 -35 32 11 31
-16 87 -51 104 -66 32 -135 -14 -135 -90 0 -54 -6 -60 -36 -40 -24 15 -24 15
-24 -16 0 -29 -2 -31 -37 -31 l-38 -1 32 -28 c18 -15 33 -30 33 -34 0 -15 -34
-37 -57 -37 -22 0 -24 -3 -19 -22 4 -13 9 -36 13 -53 l6 -30 -26 18 c-32 21
-37 21 -37 2 0 -10 -14 -17 -42 -21 -41 -7 -41 -8 -20 -22 12 -8 22 -22 22
-31 0 -13 8 -15 43 -13 33 3 47 -1 61 -17 11 -12 16 -24 12 -28 -13 -14 -134
-3 -178 15 -32 13 -32 12 -16 -23 8 -19 8 -31 -1 -51 -11 -25 -11 -26 15 -20
31 8 59 -13 79 -59 11 -28 16 -31 49 -27 42 5 47 -9 11 -28 -20 -10 -33 -11
-64 -2 -43 14 -161 16 -161 4 0 -4 6 -14 13 -21 10 -10 8 -15 -7 -26 -18 -14
-18 -15 10 -25 16 -6 40 -15 54 -20 14 -5 41 -11 60 -12 25 -2 36 -8 38 -22 4
-17 -2 -18 -72 -14 -42 2 -76 0 -76 -3 0 -4 -19 -10 -42 -14 -36 -6 -40 -9
-25 -20 9 -7 17 -24 17 -39 0 -22 4 -26 30 -26 37 0 52 -27 25 -46 -17 -13
-17 -15 -1 -39 12 -19 23 -24 37 -20 44 14 81 -24 42 -43 -10 -4 -55 -7 -100
-6 l-82 2 6 -29 c3 -17 0 -35 -7 -44 -10 -12 -9 -16 6 -21 11 -3 27 -10 36
-15 10 -5 36 -9 57 -9 22 0 43 -5 47 -12 11 -17 -27 -39 -63 -36 -18 1 -38 -3
-45 -10 -6 -6 -22 -12 -34 -12 -30 0 -37 -13 -23 -42 9 -21 17 -24 59 -24 27
1 52 -3 56 -7 16 -16 -14 -42 -52 -47 -31 -4 -40 -10 -42 -27 -2 -12 -12 -25
-23 -28 -19 -6 -20 -8 -4 -26 14 -15 26 -17 61 -12 35 4 44 3 44 -9 0 -8 -15
-19 -32 -24 -23 -7 -34 -17 -36 -32 -2 -12 -12 -28 -23 -36 -17 -11 -17 -15
-5 -25 20 -17 10 -38 -22 -46 l-27 -7 35 -29 c33 -28 39 -30 92 -24 42 5 62 3
78 -8 22 -15 54 -12 79 7 13 10 31 13 89 17 20 1 91 -17 99 -25 3 -3 6 -46 8
-95 2 -101 -9 -122 -70 -137 -86 -20 -196 -101 -268 -195 -60 -79 -90 -244
-68 -364 26 -142 126 -269 267 -340 l79 -40 2163 -3 2162 -2 79 39 c90 46 179
129 218 205 13 27 33 84 44 127 17 67 19 88 10 153 -29 207 -161 368 -341 416
-73 19 -80 31 -80 126 0 81 1 84 25 90 14 3 32 4 40 0 8 -3 33 1 55 9 24 8 42
10 45 4 4 -5 18 -9 33 -9 15 0 38 -7 50 -16 21 -14 22 -14 22 5 0 12 8 26 19
32 10 7 16 19 14 28 -6 25 47 40 117 34 53 -5 60 -4 54 11 -4 11 1 18 16 24
22 8 22 8 -5 26 -17 11 -24 23 -21 33 4 9 -1 17 -14 20 -21 5 -28 33 -9 33 6
0 8 9 4 20 -4 11 -2 20 4 20 21 0 11 18 -14 24 -27 7 -32 25 -13 44 15 15 -22
29 -109 42 -36 5 -67 11 -70 14 -2 2 0 14 6 25 14 26 53 36 80 21 19 -10 21
-8 21 21 0 17 9 46 20 64 l20 33 -38 -5 c-27 -4 -42 -1 -51 11 -10 12 -18 13
-32 5 -26 -13 -83 18 -73 41 4 8 8 26 9 40 1 20 8 26 33 28 28 3 31 6 26 27
-5 20 -2 24 21 27 16 2 33 15 46 35 l20 31 -35 -8 c-26 -6 -39 -4 -47 6 -6 8
-28 14 -48 14 -36 1 -81 28 -81 49 0 6 16 11 35 11 22 0 52 11 77 28 l42 27
-32 3 c-18 2 -32 7 -32 12 0 20 13 40 27 40 12 0 13 3 3 14 -9 12 -7 17 9 28
27 16 27 26 -1 30 -14 2 -25 14 -32 35 l-11 33 -28 -35 c-24 -30 -31 -34 -48
-24 -15 7 -33 6 -69 -4 -34 -10 -52 -11 -59 -4 -15 15 -14 37 3 37 7 0 19 7
27 16 7 9 22 14 37 11 18 -3 26 1 32 19 6 14 18 24 29 24 14 0 19 5 14 16 -4
10 1 17 16 21 31 8 26 17 -21 34 -31 12 -51 13 -71 6 -34 -11 -45 -3 -26 19 8
10 12 20 9 23 -3 3 6 7 18 9 17 3 22 9 19 20 -13 47 -13 47 29 44 39 -2 41 -1
37 22 -4 18 0 26 16 31 32 10 25 25 -13 25 -18 0 -39 6 -45 14 -9 11 -20 12
-44 5 -18 -5 -38 -9 -44 -9 -18 0 -16 35 2 50 10 9 12 16 6 24 -6 7 -8 21 -5
32 4 15 -2 22 -25 31 -18 7 -31 18 -31 29 0 16 -1 16 -19 0 -27 -24 -41 -12
-41 34 0 57 -18 88 -57 101 -70 23 -133 -22 -133 -96 0 -49 -6 -58 -31 -44
-17 8 -19 6 -19 -21 0 -23 -4 -30 -19 -30 -32 0 -33 -17 -4 -39 23 -16 26 -23
17 -38 -6 -10 -20 -20 -30 -21 -34 -7 -37 -20 -14 -57 25 -40 20 -56 -11 -37
-22 14 -39 8 -39 -14 0 -21 -50 -38 -73 -25 -14 9 -24 7 -46 -10 -38 -28 -71
-22 -146 26 l-56 36 38 70 c41 77 49 79 111 32 32 -24 34 -28 36 -73 2 -37 29
-36 49 2 9 18 26 50 39 71 17 28 19 40 10 49 -9 9 -16 8 -30 -5 -10 -9 -24
-17 -31 -17 -16 0 -111 49 -111 57 0 18 66 113 79 113 8 0 36 -14 62 -31 48
-31 74 -74 62 -105 -4 -12 -1 -15 13 -12 22 4 70 86 58 98 -22 20 -306 171
-312 166 -3 -4 1 -19 10 -34 16 -27 16 -30 -11 -77 -27 -49 -121 -206 -140
-234 -5 -8 -29 -15 -56 -16 -40 -1 -48 2 -55 20 -5 12 -16 25 -25 29 -24 9
-17 44 40 201 52 145 67 169 103 160 17 -4 23 -2 20 7 -5 13 -103 66 -125 67
-6 1 -58 -48 -114 -109 -106 -113 -138 -132 -140 -82 -2 78 -26 283 -34 290
-14 12 -136 44 -143 37 -4 -3 7 -16 23 -29 l30 -24 -24 -63 c-13 -35 -37 -104
-54 -154 -35 -107 -51 -128 -89 -123 -16 3 -28 1 -28 -4 0 -4 -11 -8 -25 -8
-36 0 -31 23 10 54 93 71 112 232 38 329 -53 68 -173 97 -261 61 -110 -43
-162 -208 -104 -326 13 -26 21 -52 17 -57 -6 -11 -105 -3 -119 10 -6 5 -1 18
13 33 15 15 21 31 17 41 -5 14 -12 12 -48 -14 -50 -37 -121 -42 -169 -14 -68
41 -99 173 -60 259 27 59 63 84 122 84 57 0 104 -34 117 -83 5 -18 16 -33 25
-35 15 -3 17 7 17 76 0 84 -8 99 -42 78 -12 -7 -27 -7 -51 2 -41 15 -113 15
-147 -1z m574 -98 c34 -26 61 -116 52 -173 -10 -61 -52 -141 -81 -154 -56 -26
-111 -14 -144 30 -50 66 -18 254 51 302 32 23 90 20 122 -5z m299 -261 c4 -24
9 -78 13 -120 6 -69 4 -79 -11 -85 -12 -4 -24 1 -36 15 -9 12 -22 22 -27 22
-5 0 -15 7 -22 15 -10 12 -7 29 15 87 47 125 59 136 68 66z m270 -50 c2 -7
-10 -53 -27 -103 l-31 -90 -44 -3 c-54 -4 -91 4 -91 20 0 13 169 188 181 188
4 0 9 -6 12 -12z m-2455 -149 c48 -37 122 -110 122 -120 0 -13 -128 -75 -136
-66 -16 16 -33 207 -18 207 3 0 18 -9 32 -21z m1765 -47 c198 -34 487 -116
495 -141 3 -10 -5 -12 -34 -9 -22 3 -50 -2 -68 -10 -26 -14 -30 -13 -42 3 -10
14 -17 15 -27 7 -11 -9 -20 -5 -43 18 -34 35 -47 37 -74 10 -24 -24 -27 -102
-5 -140 8 -14 22 -40 30 -59 9 -18 32 -48 51 -66 23 -22 34 -41 34 -61 0 -16
3 -39 6 -51 6 -22 3 -23 -43 -23 -63 0 -160 18 -195 36 -15 8 -50 15 -77 15
-42 1 -60 -5 -132 -50 -99 -61 -112 -62 -289 -25 -105 22 -143 25 -235 21
-117 -5 -164 -19 -202 -59 -34 -37 -45 -75 -54 -201 -15 -218 -38 -288 -110
-350 l-41 -36 -2 -178 c-2 -115 -7 -189 -15 -208 -12 -30 -7 -63 20 -134 6
-13 7 -26 4 -30 -4 -3 -79 -7 -168 -8 -89 -1 -164 -3 -167 -4 -3 -1 -9 0 -15
1 -5 1 -26 3 -45 4 l-35 1 -3 71 c-2 56 1 74 13 84 22 19 95 13 150 -11 33
-15 49 -17 69 -9 29 11 26 34 -6 51 -20 11 -20 11 1 25 15 11 34 13 64 9 38
-6 43 -4 53 19 9 20 9 26 -2 30 -8 3 -14 12 -14 21 0 8 -4 15 -10 15 -13 0
-13 33 1 47 8 8 5 13 -10 18 -16 5 -20 12 -16 25 5 16 -3 20 -57 32 -68 16
-82 31 -31 36 22 2 30 7 27 17 -3 7 3 16 14 19 11 4 27 17 36 30 15 23 14 24
-22 31 -20 5 -50 7 -67 6 -44 -2 -56 10 -49 47 5 23 12 32 26 32 14 0 18 5 14
15 -4 10 1 15 14 15 11 0 24 9 30 19 14 27 13 29 -15 23 -15 -2 -25 0 -25 7 0
6 -13 11 -28 11 -16 0 -37 9 -47 20 -18 19 -17 20 6 20 14 0 35 7 47 16 19 13
20 17 8 30 -8 8 -20 14 -26 14 -6 0 -8 5 -5 10 3 6 15 10 26 10 12 0 17 4 14
11 -4 6 1 17 11 24 18 14 18 14 -3 15 -16 0 -23 6 -23 20 0 25 -15 26 -32 3
-10 -13 -26 -18 -63 -17 -68 1 -68 1 -45 24 12 12 25 18 31 14 11 -7 85 64 75
73 -3 3 -26 6 -51 7 -48 1 -58 16 -26 38 11 8 19 23 18 33 -2 15 3 19 18 17
13 -1 24 7 32 23 11 24 9 27 -15 36 -15 6 -41 8 -59 4 -36 -6 -38 5 -9 49 17
27 17 28 -4 33 -17 4 -20 11 -16 29 5 18 2 24 -10 24 -10 0 -14 5 -10 15 3 8
1 15 -5 15 -6 0 -9 7 -5 15 4 10 -1 15 -15 15 -12 0 -23 8 -26 20 -3 11 -9 20
-13 20 -4 0 -10 -9 -13 -20 -3 -13 -14 -20 -28 -20 -18 0 -20 -3 -11 -12 8 -8
8 -15 1 -24 -7 -8 -7 -14 1 -19 15 -9 12 -25 -5 -25 -8 0 -15 -7 -15 -15 0 -8
-9 -15 -20 -15 -24 0 -25 -8 -4 -31 20 -22 10 -39 -22 -39 -24 0 -24 0 -9 -36
l15 -36 -30 7 c-19 4 -30 3 -30 -4 0 -6 -9 -11 -20 -11 -11 0 -20 -4 -20 -10
0 -5 5 -10 10 -10 6 0 10 -7 10 -15 0 -10 10 -15 34 -15 19 0 38 -5 42 -11 9
-15 -17 -31 -36 -23 -8 3 -33 8 -55 9 -38 3 -40 2 -40 -26 0 -20 5 -29 16 -29
18 0 42 -25 52 -53 4 -10 12 -15 17 -12 6 4 18 4 28 0 36 -13 -12 -23 -92 -18
-66 5 -79 3 -69 -8 9 -9 9 -16 2 -25 -7 -9 0 -15 28 -25 20 -6 46 -13 58 -14
34 -4 35 -5 29 -18 -4 -11 -55 -14 -90 -6 -5 1 -17 -1 -26 -4 -10 -4 -26 -10
-35 -13 -12 -4 -14 -8 -5 -11 25 -9 11 -23 -23 -23 -23 0 -38 6 -41 15 -4 10
-13 13 -26 9 -11 -3 -50 -7 -86 -9 -79 -4 -118 15 -101 46 5 11 7 29 4 39 -6
17 -2 20 30 20 34 0 37 2 31 24 -5 21 -2 25 19 28 17 2 34 16 47 37 l22 34
-41 -5 c-32 -5 -43 -2 -47 9 -5 11 -15 14 -40 9 -28 -5 -39 -2 -60 17 -36 33
-33 46 12 45 22 0 53 9 77 23 l40 24 -33 3 c-23 2 -32 8 -28 17 2 7 -5 16 -17
20 -20 6 -19 8 13 18 19 7 69 37 110 68 338 250 796 432 1245 493 162 22 606
15 768 -12z m907 -324 c47 -28 130 -81 184 -116 l100 -64 -25 -19 -24 -18 40
-16 c59 -23 70 -30 73 -50 3 -15 -1 -16 -36 -10 -25 4 -42 2 -47 -4 -3 -6 -22
-11 -41 -11 -39 0 -43 -8 -14 -33 17 -14 19 -21 9 -38 -10 -20 -9 -21 20 -17
42 6 60 -15 37 -41 -14 -15 -15 -24 -6 -40 11 -21 18 -24 55 -22 11 0 29 -6
40 -14 17 -14 18 -17 5 -25 -8 -6 -37 -10 -65 -10 -142 2 -132 4 -131 -32 0
-18 -4 -41 -8 -50 -7 -15 -3 -18 17 -18 14 0 29 -4 32 -10 3 -5 25 -10 48 -10
55 0 78 -14 49 -29 -11 -6 -36 -11 -54 -11 -18 0 -42 -7 -52 -15 -11 -8 -30
-15 -43 -15 -15 0 -23 -6 -23 -17 0 -36 18 -48 69 -48 58 0 67 -6 51 -34 -8
-16 -20 -21 -50 -21 -29 0 -40 -4 -40 -15 0 -8 -9 -23 -20 -32 -18 -16 -18
-18 -3 -35 13 -15 25 -17 60 -12 54 8 58 -11 8 -32 -22 -9 -35 -21 -35 -33 0
-10 -10 -26 -22 -35 -21 -14 -22 -16 -5 -26 15 -10 15 -13 3 -26 -8 -8 -25
-14 -38 -14 -21 -1 -20 -4 17 -36 37 -33 44 -36 90 -31 31 3 60 0 74 -8 20
-10 35 -10 80 0 63 14 171 17 191 5 8 -5 13 -41 16 -107 4 -96 3 -100 -19
-110 -12 -5 -35 -7 -52 -3 -39 7 -633 5 -641 -3 -4 -3 -15 -2 -25 4 -13 6 -25
6 -38 -1 -11 -6 -22 -6 -25 -1 -3 5 -45 7 -93 6 -103 -4 -123 0 -123 24 0 10
-10 31 -22 46 -51 65 -114 299 -123 461 -6 101 -5 115 14 152 12 23 21 54 21
69 0 32 27 76 41 68 5 -4 9 -23 9 -44 0 -23 6 -44 15 -51 13 -11 21 -8 48 18
20 20 43 32 59 32 15 0 40 11 57 26 28 23 32 24 53 10 13 -8 55 -16 98 -18
l74 -3 17 34 c12 26 14 45 8 78 -13 65 -24 80 -87 111 -81 40 -141 132 -86
132 8 0 34 10 57 22 23 12 61 23 85 25 91 7 135 51 130 130 -2 40 -6 48 -22
48 -14 0 -22 -10 -28 -32 -8 -30 -28 -47 -28 -23 0 21 -29 9 -50 -20 -13 -19
-36 -34 -62 -40 -49 -14 -56 -8 -33 26 12 19 15 37 11 66 -5 32 -2 45 20 73
15 21 35 35 47 35 12 0 60 -23 107 -52z m-1680 -790 c0 -7 -14 -35 -30 -63
-46 -78 -38 -136 34 -234 37 -50 69 -124 80 -182 4 -21 13 -42 21 -49 8 -7 15
-18 15 -26 0 -7 7 -20 16 -29 13 -12 14 -19 4 -30 -7 -8 -17 -12 -22 -9 -5 3
-31 6 -56 5 -66 -2 -68 -2 -157 2 l-79 3 -9 35 c-21 86 -27 156 -18 199 6 25
15 79 21 120 6 41 13 85 16 97 4 21 141 172 157 173 4 0 7 -6 7 -12z m278 -14
c53 -22 145 -28 236 -15 76 11 80 10 103 -11 32 -30 43 -75 49 -203 5 -102 4
-115 -20 -174 -18 -46 -26 -83 -26 -127 0 -76 2 -75 -135 -70 -55 2 -120 0
-145 -3 -53 -8 -91 -1 -100 19 -4 8 -13 26 -20 40 -67 125 -149 302 -154 332
-4 23 -2 47 5 60 25 47 134 168 152 168 9 0 34 -7 55 -16z m640 -50 c26 -18
59 -81 93 -174 12 -36 36 -86 51 -112 16 -25 35 -75 42 -110 8 -35 21 -76 30
-93 9 -16 16 -35 16 -41 0 -17 -43 -23 -163 -20 -60 1 -111 -2 -113 -6 -3 -4
-13 -4 -22 0 -19 9 -99 9 -108 -1 -4 -3 -15 -2 -24 3 -29 16 -16 108 31 215
31 72 39 102 39 151 0 111 41 204 89 204 9 0 27 -7 39 -16z m-2083 -278 c35
-15 48 -46 20 -46 -20 0 -19 -13 3 -33 11 -10 35 -16 62 -16 25 0 54 -1 65 -1
11 -1 50 1 87 5 91 10 98 4 98 -95 l0 -78 -57 -6 c-32 -3 -98 -5 -148 -4 -49
1 -112 1 -140 0 -112 -3 -196 -2 -245 1 -19 1 -43 -2 -53 -6 -9 -4 -23 -4 -30
0 -6 4 -19 7 -27 5 -34 -5 -43 15 -48 102 l-5 86 34 14 c34 14 198 14 220 0
12 -7 49 24 49 42 0 14 45 43 68 44 7 0 28 -7 47 -14z"/>
</g>
</svg>
