<?xml version="1.0" standalone="no"?>
<!DOCTYPE svg PUBLIC "-//W3C//DTD SVG 20010904//EN"
 "http://www.w3.org/TR/2001/REC-SVG-20010904/DTD/svg10.dtd">
<svg version="1.0" xmlns="http://www.w3.org/2000/svg"
 width="281.000000pt" height="175.000000pt" viewBox="0 0 281.000000 175.000000"
 preserveAspectRatio="xMidYMid meet">
<metadata>
Created by potrace 1.16, written by Peter Selinger 2001-2019
</metadata>
<g transform="translate(0.000000,175.000000) scale(0.100000,-0.100000)"
fill="#000000" stroke="none">
<path d="M547 1710 c-3 -12 -14 -20 -27 -20 -15 0 -20 -5 -17 -15 4 -8 1 -17
-4 -21 -7 -4 -7 -10 0 -17 19 -19 12 -29 -14 -23 -28 7 -30 4 -15 -24 8 -15 6
-21 -11 -30 -16 -9 -18 -14 -8 -26 6 -8 8 -14 3 -14 -4 0 -3 -5 4 -12 7 -7 12
-19 12 -28 0 -14 -11 -17 -58 -17 -66 0 -95 -10 -68 -25 9 -5 16 -16 16 -25 0
-11 6 -14 24 -9 30 7 41 -7 26 -34 -9 -17 -8 -20 8 -20 10 0 24 -11 30 -25 16
-35 17 -34 -28 -28 -21 3 -46 3 -55 -1 -14 -5 -12 -11 12 -46 16 -23 36 -40
48 -40 27 -1 58 -26 53 -42 -3 -9 -24 -13 -64 -13 -49 0 -62 4 -77 23 -22 26
-39 29 -35 5 2 -12 -6 -19 -27 -23 -30 -6 -30 -6 -7 -18 12 -7 22 -19 22 -27
0 -8 9 -15 20 -15 27 0 25 -11 -5 -34 l-26 -19 28 -19 c15 -10 41 -18 57 -18
l29 0 -22 -24 c-21 -22 -64 -36 -118 -37 -39 -2 -20 -49 19 -49 11 0 18 -7 18
-20 0 -15 7 -20 26 -20 20 0 24 -3 16 -13 -7 -8 -7 -18 -2 -27 6 -8 10 -20 10
-26 0 -13 -48 -36 -60 -29 -16 10 -110 14 -115 4 -4 -5 -21 -9 -38 -10 l-32 0
23 -16 c12 -8 22 -22 22 -29 0 -10 13 -14 44 -14 35 0 45 -4 49 -20 4 -15 14
-20 36 -20 20 0 31 -5 31 -14 0 -15 -5 -17 -86 -36 -43 -9 -51 -15 -47 -30 3
-12 -2 -20 -15 -24 -15 -5 -18 -13 -14 -29 3 -12 10 -25 16 -30 7 -5 6 -10 -5
-17 -9 -5 -24 -21 -33 -35 -15 -23 -15 -27 -1 -42 12 -11 26 -14 53 -9 34 5
92 -10 92 -25 0 -3 -11 -16 -25 -29 -14 -13 -25 -29 -25 -36 0 -22 56 -27 92
-8 18 10 47 19 63 20 17 1 46 5 66 9 56 11 71 -11 63 -89 -8 -69 -17 -86 -49
-86 -16 0 -25 8 -30 28 -7 27 -7 27 -16 5 -10 -28 -18 -29 -35 -5 -13 16 -13
16 -14 0 0 -25 -17 -22 -32 5 l-12 22 -6 -24 c-8 -33 -26 -37 -34 -9 l-7 23
-16 -23 c-19 -28 -40 -28 -48 -1 l-7 21 -20 -22 c-16 -17 -23 -19 -34 -9 -11
9 -18 9 -26 1 -9 -9 -15 -8 -26 0 -11 10 -20 6 -42 -19 -29 -32 -49 -110 -35
-132 4 -8 417 -11 1390 -11 l1383 0 7 40 c8 47 -9 105 -33 115 -26 11 -122 13
-122 3 0 -19 -45 -2 -57 22 -7 14 -13 21 -13 15 0 -5 -5 -17 -10 -25 -8 -13
-11 -12 -24 5 -15 20 -15 20 -16 -2 0 -31 -18 -29 -33 3 l-12 27 -5 -23 c-7
-31 -30 -38 -37 -11 -6 24 -23 28 -23 6 0 -9 -9 -15 -25 -15 -17 0 -25 6 -25
17 0 14 -3 13 -20 -5 -23 -25 -35 -27 -46 -11 -5 8 -10 6 -16 -5 -13 -24 -58
-21 -58 3 0 11 -4 23 -10 26 -5 3 -10 -3 -10 -14 0 -12 -7 -21 -15 -21 -8 0
-15 5 -15 10 0 6 -4 10 -10 10 -5 0 -10 -7 -10 -15 0 -22 -21 -18 -27 5 -7 26
-23 26 -23 0 0 -11 -7 -20 -15 -20 -8 0 -15 7 -15 15 0 8 -7 15 -15 15 -8 0
-15 -4 -15 -9 0 -15 -38 -20 -44 -5 -5 12 -10 12 -32 -2 -22 -15 -27 -15 -34
-3 -11 17 -11 17 72 63 40 22 69 32 73 26 10 -16 21 -12 69 25 26 19 53 35 61
35 8 0 29 12 47 27 18 16 42 33 53 39 11 6 39 39 62 75 24 35 49 73 57 84 l14
20 8 -20 c9 -25 23 -35 49 -35 28 0 114 -57 166 -108 47 -48 55 -50 62 -22 3
13 10 18 21 14 12 -5 16 0 16 21 0 15 4 24 10 20 6 -3 10 4 10 17 0 13 5 29
11 35 8 8 -1 34 -32 97 -50 102 -71 126 -107 126 -47 0 -54 11 -42 64 11 50
60 105 93 106 29 0 15 21 -26 37 -49 20 -79 11 -97 -29 -15 -32 -67 -67 -102
-68 -11 0 -22 16 -33 51 -17 49 -21 53 -83 81 -59 27 -74 30 -149 26 -74 -3
-85 -6 -110 -31 -24 -23 -26 -30 -15 -47 6 -11 12 -25 12 -32 1 -17 47 -69 91
-100 19 -14 46 -42 60 -62 13 -20 30 -36 37 -36 15 0 42 -24 42 -38 0 -5 -34
-24 -75 -42 -53 -23 -83 -43 -102 -69 -15 -20 -49 -56 -75 -79 -55 -50 -55
-78 0 -32 20 16 38 27 41 25 7 -7 -39 -53 -76 -76 -39 -24 -43 -42 -8 -33 14
3 25 4 25 2 0 -6 -99 -68 -109 -68 -25 0 -114 -34 -145 -55 -28 -19 -45 -24
-73 -20 -20 2 -42 0 -50 -6 -10 -9 -13 -8 -13 5 0 20 -14 21 -30 1 -11 -13
-16 -13 -41 1 -26 13 -30 13 -35 -1 -9 -23 -54 -20 -54 4 0 28 -20 37 -27 12
-6 -25 -23 -28 -23 -3 0 14 -4 12 -20 -8 l-20 -25 -6 23 c-8 27 -20 29 -27 2
-7 -27 -23 -25 -30 2 -6 21 -7 21 -25 5 -23 -21 -38 -22 -50 -1 -8 15 -10 15
-15 0 -7 -19 -38 -21 -55 -4 -9 9 -12 9 -12 -1 0 -9 -8 -11 -25 -7 -14 4 -25
2 -25 -4 0 -19 -18 -10 -24 12 l-7 23 -9 -22 c-8 -20 -12 -21 -46 -10 -29 9
-38 9 -42 -1 -2 -7 -15 -12 -28 -12 -17 0 -24 6 -24 20 0 11 -4 20 -10 20 -5
0 -10 -7 -10 -15 0 -17 -21 -20 -37 -4 -8 8 -13 8 -17 0 -11 -17 -24 -13 -31
9 -8 24 -25 17 -25 -11 0 -26 -16 -24 -24 4 -6 21 -7 21 -20 5 -17 -23 -42
-23 -55 0 -9 16 -10 16 -16 0 -8 -20 -40 -24 -51 -7 -5 8 -9 8 -14 -1 -4 -7
-12 -10 -18 -6 -12 7 -11 154 1 174 10 15 85 16 160 1 41 -9 60 -9 70 -1 8 7
29 9 49 6 29 -5 43 -1 70 19 27 21 48 27 104 30 39 3 80 10 93 16 12 7 26 9
31 6 6 -4 25 3 44 14 18 12 42 21 52 21 11 0 28 6 39 14 11 7 36 17 55 21 19
4 40 11 46 16 6 5 29 10 51 12 22 1 51 12 67 25 29 22 61 27 104 16 12 -4 22
-11 22 -16 0 -5 -10 -6 -21 -3 -16 5 -20 3 -17 -6 3 -8 18 -14 34 -14 24 0 29
4 28 23 -1 27 -2 27 56 -4 30 -16 55 -40 69 -65 26 -46 56 -69 91 -69 29 1 80
42 80 65 0 26 -68 153 -91 169 l-22 15 28 40 c27 40 69 61 122 61 31 0 38 18
17 41 -16 17 -26 20 -69 14 -142 -17 -169 -16 -202 4 -18 12 -33 28 -33 37 0
17 -70 110 -98 130 -24 17 -71 19 -104 6 -32 -13 -37 -45 -13 -76 9 -11 15
-41 15 -68 0 -39 5 -54 25 -73 13 -14 29 -25 35 -25 6 0 9 -4 6 -9 -6 -10 -40
-17 -139 -30 -54 -7 -77 -16 -107 -40 -21 -17 -50 -36 -64 -42 -14 -7 -26 -16
-26 -20 0 -4 -20 -15 -44 -25 -25 -11 -47 -27 -50 -36 -3 -12 -14 -18 -34 -18
-45 0 -49 -18 -5 -22 l38 -4 -30 -13 c-16 -8 -53 -16 -81 -18 -48 -5 -69 -1
-204 43 -28 10 19 26 55 20 41 -8 51 5 29 39 -11 17 -25 25 -44 25 -20 0 -31
6 -35 21 -9 27 11 41 46 35 25 -5 49 8 49 26 0 11 -68 38 -99 38 -14 0 -33 5
-41 10 -13 9 -13 11 0 20 8 5 29 10 46 10 22 0 36 7 48 24 15 24 14 26 -11 45
-16 14 -41 21 -67 21 -53 0 -73 12 -51 30 8 7 23 14 33 15 33 3 53 17 47 34
-6 19 48 57 65 46 6 -3 23 3 39 14 16 11 41 25 55 31 45 17 93 59 126 110 l31
48 52 -20 c28 -11 54 -23 57 -28 3 -4 25 -24 49 -44 l44 -37 27 26 c37 36 44
77 21 123 -51 103 -59 112 -100 112 -21 0 -23 3 -17 33 3 19 20 45 43 65 31
27 35 35 23 42 -20 13 -80 12 -80 0 0 -20 -49 -60 -74 -60 -21 0 -26 6 -32 35
-5 29 -13 38 -51 55 -46 20 -131 28 -171 16 -31 -10 -44 -39 -32 -70 10 -27
132 -151 158 -161 13 -5 12 -8 -3 -25 -9 -10 -29 -22 -44 -25 -30 -7 -156
-129 -147 -144 4 -5 1 -13 -6 -17 -13 -9 -147 -6 -161 3 -15 9 16 33 43 33 50
0 85 18 85 44 0 21 -6 25 -46 30 -26 4 -59 2 -74 -4 -18 -7 -32 -7 -46 0 -28
15 -23 30 9 30 20 0 32 8 45 31 9 17 26 33 36 36 12 3 21 16 24 36 2 18 4 33
3 33 0 1 -34 -3 -74 -9 -40 -5 -76 -7 -79 -3 -14 14 15 41 44 42 40 0 87 44
48 44 -8 0 -19 9 -25 21 -11 20 -12 20 -31 3 -26 -23 -34 -12 -20 27 12 33 3
48 -26 49 -24 0 -25 22 -2 46 l22 24 -25 0 c-17 0 -27 7 -31 19 -3 14 -11 18
-26 14 -25 -6 -27 4 -4 29 14 16 15 21 3 28 -11 7 -11 11 -1 24 12 14 10 16
-13 16 -19 0 -26 5 -26 20 0 11 -4 20 -9 20 -5 0 -11 -9 -14 -20z"/>
</g>
</svg>
