<?xml version="1.0" standalone="no"?>
<!DOCTYPE svg PUBLIC "-//W3C//DTD SVG 20010904//EN"
 "http://www.w3.org/TR/2001/REC-SVG-20010904/DTD/svg10.dtd">
<svg version="1.0" xmlns="http://www.w3.org/2000/svg"
 width="400.000000pt" height="300.000000pt" viewBox="0 0 400.000000 300.000000"
 preserveAspectRatio="xMidYMid meet">
<metadata>
Created by potrace 1.16, written by Peter Selinger 2001-2019
</metadata>
<g transform="translate(0.000000,300.000000) scale(0.100000,-0.100000)"
fill="#000000" stroke="none">
<path d="M2050 2835 c-6 -7 -8 -25 -4 -39 5 -22 3 -26 -14 -26 -22 0 -34 -22
-25 -46 4 -10 -1 -17 -16 -21 -15 -4 -21 -13 -21 -35 0 -22 -4 -29 -14 -25 -8
3 -22 0 -32 -8 -17 -12 -15 -15 24 -30 23 -10 42 -24 42 -32 0 -12 -10 -14
-60 -8 -50 6 -60 4 -60 -8 0 -9 9 -18 19 -22 11 -3 22 -12 25 -21 3 -8 17 -19
32 -24 48 -19 22 -35 -49 -31 -53 2 -67 0 -67 -11 0 -22 21 -38 51 -38 15 0
32 -7 39 -15 10 -12 2 -14 -52 -17 -55 -3 -63 -6 -66 -24 -2 -15 4 -23 19 -27
15 -4 20 -11 15 -23 -8 -21 10 -44 35 -44 10 0 21 -5 25 -11 11 -18 -18 -29
-61 -24 -46 6 -68 -5 -63 -31 2 -13 16 -22 46 -28 45 -10 58 -36 18 -36 -35 0
-87 -21 -83 -34 2 -6 17 -12 33 -14 16 -2 33 -8 38 -12 14 -14 -13 -40 -40
-40 -15 0 -24 -6 -24 -15 0 -11 -12 -15 -40 -16 -22 -1 -45 -2 -51 -3 -7 -1
-17 7 -23 16 -8 14 -5 22 14 43 25 26 21 40 -14 47 -28 5 -32 28 -6 35 14 4
19 11 15 21 -3 8 0 21 6 28 13 16 10 17 -48 14 -50 -2 -56 13 -13 35 35 18 38
31 10 40 -27 9 -25 21 6 50 24 22 25 25 8 26 -10 1 -25 1 -32 0 -10 -2 -12 6
-7 27 4 18 2 33 -5 37 -6 4 -16 18 -21 32 -8 21 -12 23 -24 13 -8 -7 -12 -16
-10 -21 3 -4 -3 -16 -13 -26 -11 -10 -25 -32 -33 -50 -7 -17 -22 -34 -32 -37
-23 -6 -13 -26 14 -26 10 0 19 -4 19 -10 0 -5 -18 -10 -40 -10 -49 0 -53 -18
-10 -43 38 -23 41 -50 5 -41 -40 10 -50 10 -55 -1 -3 -5 7 -16 23 -23 39 -19
34 -32 -13 -32 -22 0 -40 -2 -40 -3 0 -14 33 -66 45 -71 29 -11 14 -26 -25
-26 -49 0 -57 -27 -10 -37 36 -7 35 -26 -1 -31 -33 -5 -49 -22 -21 -22 28 0
30 -30 2 -37 -28 -7 -26 -35 2 -31 11 2 23 -3 25 -9 3 -8 -4 -13 -16 -13 -22
0 -26 -4 -35 -42 l-6 -27 87 -3 88 -3 3 -54 3 -54 -104 7 c-136 9 -152 2 -160
-61 -3 -26 -11 -236 -18 -466 -9 -309 -9 -424 -1 -442 l12 -25 840 0 c578 0
848 3 861 11 20 10 20 18 14 252 -7 289 -25 690 -32 697 -2 3 -66 7 -141 10
l-137 5 -7 50 c-4 31 -3 54 4 62 12 15 85 11 117 -6 41 -23 85 -6 45 17 -25
14 -7 32 32 32 41 0 54 22 30 49 -11 12 -13 20 -5 28 17 17 -20 62 -51 63 -14
0 -32 5 -40 10 -13 9 -11 13 10 30 14 10 36 20 50 22 14 2 26 11 28 20 3 14
-6 17 -55 20 -47 2 -58 6 -61 22 -5 24 17 66 35 66 7 0 13 4 13 9 0 11 -25 21
-52 21 -19 0 -47 25 -48 43 0 4 11 5 24 1 28 -7 43 11 25 32 -10 12 -8 17 7
29 18 13 18 14 1 21 -10 3 -36 4 -57 1 -27 -3 -43 -1 -51 9 -9 11 -6 16 20 25
31 11 56 41 44 53 -3 3 -17 3 -31 -1 -22 -5 -24 -3 -18 13 5 10 11 27 13 37 3
9 11 17 19 17 16 0 29 19 19 28 -4 4 -21 7 -38 7 -31 0 -32 2 -29 36 2 20 -3
43 -10 51 -7 7 -18 23 -24 33 -17 31 -39 24 -42 -12 -2 -18 -9 -33 -16 -33
-15 0 -50 -76 -41 -90 3 -5 -3 -10 -14 -10 -23 0 -41 -22 -23 -28 6 -2 22 -12
34 -23 l23 -20 -53 3 c-32 2 -52 -1 -52 -8 0 -14 53 -64 69 -64 7 0 11 -6 8
-12 -2 -9 -21 -12 -57 -9 -59 3 -61 -10 -4 -34 50 -21 43 -37 -13 -33 -43 3
-48 1 -51 -19 -2 -16 2 -23 12 -23 19 0 22 -29 4 -34 -44 -14 -89 -13 -103 0
-21 21 -19 61 3 68 9 4 28 15 42 26 21 17 23 21 10 30 -8 5 -31 10 -50 10 -25
0 -40 7 -53 25 l-18 25 36 0 c28 0 35 4 35 19 0 11 -4 22 -10 26 -5 3 0 15 11
26 20 20 20 21 3 40 -14 15 -19 17 -25 7 -5 -8 -27 -13 -60 -13 -42 0 -54 4
-57 17 -2 12 6 19 31 23 22 4 39 16 47 30 17 31 6 47 -24 35 -13 -5 -26 -6
-29 -3 -11 10 34 81 55 86 34 9 14 32 -31 35 -41 3 -43 4 -38 31 8 40 -2 71
-24 71 -15 0 -17 5 -13 29 5 25 3 29 -20 33 -14 3 -31 0 -36 -7z m-211 -997
c14 -8 29 -8 64 0 77 20 112 16 125 -13 16 -34 15 -117 0 -137 -11 -13 -42
-14 -243 -9 l-230 6 -3 24 c-2 12 -1 34 3 48 5 23 10 25 48 20 23 -2 52 -8 65
-12 19 -6 22 -4 20 16 -3 20 2 25 27 27 17 2 37 9 45 17 15 12 37 23 53 24 4
1 16 -4 26 -11z m434 -35 c17 -8 40 -12 56 -8 16 3 68 7 117 8 l89 2 7 -65 c5
-46 4 -66 -5 -72 -11 -7 -368 -1 -394 8 -14 4 -19 135 -6 147 10 10 104 -4
136 -20z m-374 -360 c0 -5 -3 -9 -9 -11 -5 -2 -10 4 -10 13 0 16 16 14 19 -2z
m391 -3 c0 -5 -7 -10 -15 -10 -8 0 -15 5 -15 10 0 6 7 10 15 10 8 0 15 -4 15
-10z m-752 -247 l3 -103 -45 0 c-25 0 -47 4 -50 8 -2 4 -2 52 1 105 l6 98 41
-3 41 -3 3 -102z m397 -3 l0 -95 -47 -3 -48 -3 0 101 0 101 48 -3 47 -3 0 -95z
m385 2 c3 -52 3 -95 0 -97 -3 -2 -23 -5 -45 -7 l-40 -3 -3 103 -3 103 43 -3
43 -3 5 -93z m368 90 c8 -5 15 -44 19 -106 l6 -97 -49 3 -49 3 -3 94 c-3 99 2
111 43 111 11 0 26 -4 33 -8z"/>
</g>
</svg>
