<?xml version="1.0" standalone="no"?>
<!DOCTYPE svg PUBLIC "-//W3C//DTD SVG 20010904//EN"
 "http://www.w3.org/TR/2001/REC-SVG-20010904/DTD/svg10.dtd">
<svg version="1.0" xmlns="http://www.w3.org/2000/svg"
 width="151.000000pt" height="243.000000pt" viewBox="0 0 151.000000 243.000000"
 preserveAspectRatio="xMidYMid meet">
<metadata>
Created by potrace 1.16, written by Peter Selinger 2001-2019
</metadata>
<g transform="translate(0.000000,243.000000) scale(0.100000,-0.100000)"
fill="#000000" stroke="none">
<path d="M945 2410 c-3 -5 -1 -34 5 -63 15 -69 10 -151 -10 -154 -104 -13
-114 -28 -50 -68 23 -14 44 -33 47 -41 7 -19 -14 -94 -27 -94 -5 0 -19 14 -32
31 -13 16 -37 47 -54 67 -73 86 -94 173 -52 212 12 11 34 20 50 20 21 0 28 5
28 19 0 22 -19 31 -66 31 -25 0 -44 -9 -74 -36 -34 -31 -40 -42 -40 -77 0 -23
8 -61 17 -85 18 -48 11 -62 -33 -62 -48 0 -33 -40 27 -71 15 -8 58 -44 96 -80
l69 -65 -6 -57 c-3 -31 -8 -58 -10 -60 -3 -2 -44 -36 -91 -75 -86 -72 -98 -91
-99 -159 0 -20 55 -43 100 -43 61 0 46 -23 -21 -32 -324 -42 -405 -65 -529
-147 -139 -92 -175 -136 -167 -198 8 -64 35 -146 79 -244 l43 -94 -1 -130 c-1
-83 -7 -147 -17 -176 -12 -40 -12 -57 -1 -120 7 -41 14 -108 14 -149 2 -104
18 -152 53 -161 34 -9 57 -2 57 17 0 7 -7 34 -16 59 -14 43 -14 56 1 158 9 62
18 113 20 115 9 9 25 -80 25 -142 0 -38 5 -98 12 -133 13 -72 34 -91 82 -79
29 7 33 28 11 66 -9 16 -14 56 -15 116 0 86 2 93 36 150 19 32 46 70 59 84 13
14 44 60 70 102 62 104 81 118 162 118 42 0 65 -4 67 -12 21 -79 37 -215 42
-349 7 -211 17 -267 49 -275 43 -11 60 -1 57 31 -8 73 -2 186 12 260 10 49 16
133 16 217 0 161 -2 158 108 158 l69 0 11 -94 c7 -52 12 -121 12 -153 0 -32 7
-89 16 -128 8 -38 19 -114 24 -169 5 -54 15 -104 21 -112 11 -14 80 -20 91 -8
4 3 -3 26 -14 52 -19 43 -20 58 -14 261 9 306 37 449 101 520 18 20 47 65 65
101 28 56 32 74 32 137 -1 49 -8 88 -22 120 -11 27 -24 78 -29 114 -5 37 -16
80 -25 98 -9 17 -32 86 -52 153 -20 71 -48 143 -67 172 l-31 51 2 129 c2 118
1 132 -22 182 -38 83 -56 71 -81 -51 -8 -44 -20 -91 -26 -105 -10 -23 -12 -24
-24 -7 -7 10 -16 39 -20 65 -3 26 -12 65 -20 87 -8 22 -19 81 -25 130 -14 116
-51 193 -75 155z m-665 -1951 c-7 -11 -14 -18 -17 -15 -3 3 0 12 7 21 18 21
23 19 10 -6z"/>
</g>
</svg>
