<?xml version="1.0" standalone="no"?>
<!DOCTYPE svg PUBLIC "-//W3C//DTD SVG 20010904//EN"
 "http://www.w3.org/TR/2001/REC-SVG-20010904/DTD/svg10.dtd">
<svg version="1.0" xmlns="http://www.w3.org/2000/svg"
 width="155.000000pt" height="188.000000pt" viewBox="0 0 155.000000 188.000000"
 preserveAspectRatio="xMidYMid meet">
<metadata>
Created by potrace 1.16, written by Peter Selinger 2001-2019
</metadata>
<g transform="translate(0.000000,188.000000) scale(0.100000,-0.100000)"
fill="#000000" stroke="none">
<path d="M1100 1827 c-13 -7 -35 -28 -47 -47 -63 -96 -138 -190 -151 -190 -9
0 -30 -5 -49 -12 -30 -11 -35 -10 -60 14 -16 14 -41 33 -56 43 -27 18 -29 17
-59 -5 -47 -35 -62 -19 -65 66 -4 105 -11 134 -32 134 -10 0 -24 -7 -31 -15
-9 -11 -23 -13 -50 -9 -32 5 -44 2 -74 -21 -30 -23 -35 -33 -35 -68 -1 -23 -1
-60 -2 -82 -1 -22 0 -49 2 -60 4 -17 -2 -20 -43 -23 -69 -5 -110 10 -135 47
-12 17 -23 37 -25 43 -7 20 -77 -19 -84 -47 -9 -38 4 -62 54 -94 68 -43 90
-49 218 -62 l116 -11 65 -49 c64 -49 64 -49 38 -59 -15 -6 -34 -10 -43 -10
-61 -1 -189 -108 -253 -212 -48 -76 -65 -73 -173 30 -78 73 -102 80 -93 26 4
-20 2 -45 -3 -55 -8 -14 -5 -22 16 -36 61 -42 84 -76 44 -66 -13 4 -20 0 -20
-9 0 -20 51 -86 73 -93 14 -5 16 -13 11 -42 l-7 -36 54 7 c30 4 69 16 87 27
18 10 35 19 37 19 11 0 30 -131 32 -235 5 -202 5 -235 -2 -375 l-7 -135 25
-23 c32 -30 98 -40 116 -18 12 14 11 25 -6 75 l-20 59 28 67 c38 87 111 197
175 260 66 66 170 155 181 155 15 0 53 -117 53 -166 0 -27 5 -66 11 -87 5 -21
12 -113 14 -205 4 -207 2 -188 21 -206 10 -11 34 -16 70 -16 63 0 75 14 54 64
-14 34 -24 565 -11 627 9 44 37 51 52 12 12 -28 38 -418 39 -573 0 -115 11
-130 91 -130 57 0 59 1 59 25 0 14 -8 42 -17 63 -25 51 -27 321 -3 332 71 33
74 36 91 88 15 45 17 61 7 95 -8 34 -7 53 6 102 28 97 30 123 11 164 -16 37
-16 40 4 79 23 45 28 116 9 128 -6 4 -24 -7 -41 -26 -28 -32 -30 -32 -43 -15
-8 10 -14 29 -14 42 0 12 -9 27 -20 33 -11 6 -20 19 -20 28 0 10 -4 22 -10 28
-15 15 -70 126 -70 141 0 8 -7 16 -15 19 -8 4 -28 26 -45 50 l-29 44 30 15 29
16 31 -63 c16 -35 38 -79 49 -98 10 -19 19 -49 20 -66 0 -17 6 -36 13 -42 18
-14 117 1 132 21 6 8 24 19 39 23 36 9 96 66 96 91 0 36 -24 47 -74 33 -25 -7
-49 -9 -55 -5 -6 3 -23 29 -37 56 -28 57 -140 218 -164 236 -8 7 -26 13 -39
13 -21 0 -23 3 -16 36 3 20 13 51 22 70 13 27 14 36 3 49 -15 18 -46 19 -80 2z"/>
</g>
</svg>
