<?xml version="1.0" standalone="no"?>
<!DOCTYPE svg PUBLIC "-//W3C//DTD SVG 20010904//EN"
 "http://www.w3.org/TR/2001/REC-SVG-20010904/DTD/svg10.dtd">
<svg version="1.0" xmlns="http://www.w3.org/2000/svg"
 width="184.000000pt" height="183.000000pt" viewBox="0 0 184.000000 183.000000"
 preserveAspectRatio="xMidYMid meet">
<metadata>
Created by potrace 1.16, written by Peter Selinger 2001-2019
</metadata>
<g transform="translate(0.000000,183.000000) scale(0.100000,-0.100000)"
fill="#000000" stroke="none">
<path d="M1072 1750 c-43 -10 -52 -20 -61 -61 -4 -19 -16 -39 -26 -44 -76 -41
-126 -89 -140 -135 -4 -14 -18 -44 -31 -67 -28 -49 -30 -75 -8 -98 20 -20 5
-41 -36 -50 -16 -4 -57 -24 -90 -46 -34 -22 -94 -55 -133 -75 -48 -24 -92 -56
-132 -97 -33 -34 -75 -70 -92 -79 -42 -22 -43 -51 -3 -88 l31 -29 -24 -58
c-32 -75 -37 -100 -47 -207 -8 -85 -11 -91 -47 -128 -21 -22 -53 -46 -71 -54
-50 -21 -112 -73 -112 -94 0 -22 19 -30 43 -18 20 10 37 3 37 -17 0 -16 20
-24 41 -16 21 8 157 139 227 219 60 69 109 89 140 58 16 -15 15 -20 -8 -62
-13 -26 -48 -67 -76 -91 -29 -25 -58 -58 -64 -74 -7 -16 -45 -58 -85 -94 -69
-62 -76 -65 -123 -65 -32 0 -54 -5 -62 -15 -7 -9 -11 -17 -9 -19 2 -3 357 -8
789 -11 557 -5 793 -4 813 4 31 12 34 31 11 66 -11 18 -16 48 -15 112 1 259
-9 577 -19 587 -10 10 -386 11 -422 0 -15 -5 -18 -18 -18 -87 0 -45 -4 -89
-10 -97 -5 -9 -5 -19 1 -26 5 -6 8 -109 7 -245 l-3 -234 -130 -3 c-71 -1 -141
-3 -155 -3 -83 -1 -328 10 -342 16 -26 10 -23 60 7 123 21 45 31 55 72 73 59
25 109 72 124 116 13 39 29 43 29 7 0 -35 17 -64 38 -64 9 0 28 17 41 37 18
28 22 45 18 75 -4 33 0 47 26 85 29 40 32 52 34 125 1 44 4 82 7 85 2 3 20 -6
38 -20 55 -42 111 -40 133 4 14 26 14 39 5 86 -13 61 -5 239 11 249 12 7 11
49 -2 94 -10 33 -9 41 9 66 12 16 24 41 28 57 5 23 3 27 -14 27 -11 0 -23 -7
-26 -16 -3 -8 -10 -13 -15 -9 -6 3 -8 12 -5 20 8 21 -14 55 -36 55 -21 0 -27
24 -9 35 5 4 14 18 19 31 7 16 17 24 34 24 30 0 72 33 62 48 -4 7 -20 12 -37
12 -25 0 -29 4 -29 29 0 16 -4 41 -10 55 -10 28 -33 32 -98 16z m-520 -1401
c-2 -19 -16 -62 -32 -96 l-29 -63 -70 0 c-41 0 -71 4 -71 10 0 6 26 30 58 55
32 25 73 66 91 91 36 52 57 54 53 3z"/>
</g>
</svg>
