<?xml version="1.0" standalone="no"?>
<!DOCTYPE svg PUBLIC "-//W3C//DTD SVG 20010904//EN"
 "http://www.w3.org/TR/2001/REC-SVG-20010904/DTD/svg10.dtd">
<svg version="1.0" xmlns="http://www.w3.org/2000/svg"
 width="240.000000pt" height="175.000000pt" viewBox="0 0 240.000000 175.000000"
 preserveAspectRatio="xMidYMid meet">
<metadata>
Created by potrace 1.16, written by Peter Selinger 2001-2019
</metadata>
<g transform="translate(0.000000,175.000000) scale(0.100000,-0.100000)"
fill="#000000" stroke="none">
<path d="M717 1598 c-14 -29 -32 -83 -38 -120 l-12 -68 -41 0 c-48 0 -90 -19
-94 -42 -5 -28 68 -99 135 -130 35 -15 70 -40 80 -54 9 -14 40 -39 69 -56 32
-17 63 -45 76 -66 12 -20 42 -58 66 -84 29 -32 45 -58 49 -85 10 -62 57 -143
84 -143 5 0 15 11 21 25 16 35 39 31 69 -14 19 -27 54 -53 115 -86 104 -57
204 -146 204 -182 0 -42 -37 -49 -98 -18 -34 17 -76 28 -121 32 -66 5 -69 5
-86 -20 -11 -18 -14 -33 -9 -49 9 -26 14 -81 18 -178 3 -93 15 -137 48 -186
35 -52 75 -64 131 -40 51 21 144 111 172 166 14 26 44 61 74 84 63 47 135 142
158 207 18 50 30 58 50 38 16 -16 54 10 83 57 74 119 19 322 -107 393 -11 6
-19 31 -24 75 -5 37 -18 88 -29 114 -23 52 -86 122 -109 122 -8 0 -22 6 -30
13 -20 17 -89 37 -126 37 -16 0 -42 13 -65 33 -65 55 -265 146 -357 161 -23 4
-49 16 -59 27 -9 10 -28 19 -42 19 -13 0 -40 14 -59 30 -25 22 -44 30 -72 30
-21 0 -52 3 -68 6 -27 5 -31 2 -56 -48z m114 -89 c-5 -13 -10 -19 -10 -12 -1
15 10 45 15 40 3 -2 0 -15 -5 -28z m157 8 c4 -20 -25 -34 -40 -19 -15 15 -1
44 19 40 10 -2 19 -11 21 -21z m-173 -93 c-5 -30 -13 -38 -51 -55 -25 -10 -58
-19 -72 -18 -19 0 -8 7 41 26 65 25 67 26 74 67 3 22 8 35 11 28 2 -7 1 -29
-3 -48z m133 -101 c-25 -30 -108 -56 -108 -33 0 6 9 10 20 10 29 0 76 26 84
45 3 9 7 26 8 38 0 12 3 7 5 -11 3 -19 -1 -40 -9 -49z m172 48 c0 -54 -41
-111 -102 -142 -42 -21 -58 -24 -58 -9 0 6 24 21 54 34 58 26 86 62 86 111 0
14 5 25 10 25 6 0 10 -9 10 -19z m157 -103 c-4 -13 -13 -32 -22 -43 l-17 -20
8 20 c4 11 9 35 12 53 3 23 8 30 14 24 6 -6 8 -21 5 -34z m-177 -186 c0 -15
-49 -32 -90 -32 -22 0 -40 5 -40 10 0 6 17 10 38 10 20 0 44 5 52 10 19 12 40
13 40 2z m252 -34 c-6 -6 -15 -8 -19 -4 -4 4 -1 11 7 16 19 12 27 3 12 -12z
m-157 -154 c20 -20 45 -80 45 -107 0 -31 -13 -12 -30 46 -11 36 -23 56 -40 64
-17 9 -20 13 -8 13 9 0 24 -7 33 -16z"/>
</g>
</svg>
