<?xml version="1.0" standalone="no"?>
<!DOCTYPE svg PUBLIC "-//W3C//DTD SVG 20010904//EN"
 "http://www.w3.org/TR/2001/REC-SVG-20010904/DTD/svg10.dtd">
<svg version="1.0" xmlns="http://www.w3.org/2000/svg"
 width="351.000000pt" height="145.000000pt" viewBox="0 0 351.000000 145.000000"
 preserveAspectRatio="xMidYMid meet">
<metadata>
Created by potrace 1.16, written by Peter Selinger 2001-2019
</metadata>
<g transform="translate(0.000000,145.000000) scale(0.100000,-0.100000)"
fill="#000000" stroke="none">
<path d="M535 1398 c-4 -10 -16 -18 -26 -18 -14 0 -18 -7 -17 -27 1 -16 6 -34
11 -40 7 -9 5 -13 -7 -13 -9 0 -16 -4 -16 -9 0 -5 -9 -13 -20 -16 -16 -5 -18
-10 -10 -25 16 -30 12 -40 -15 -40 -22 0 -24 -3 -15 -19 14 -27 13 -41 -4 -35
-8 3 -17 1 -21 -5 -3 -6 -15 -11 -26 -11 -10 0 -19 -4 -19 -10 0 -5 4 -10 9
-10 13 0 21 -39 9 -46 -5 -3 -15 -1 -21 5 -19 19 -25 12 -24 -24 1 -26 5 -35
19 -35 17 0 38 -27 38 -49 0 -7 -22 -11 -54 -11 -52 0 -53 -1 -48 -25 5 -31
50 -56 82 -48 17 4 21 2 18 -8 -3 -9 -23 -14 -60 -15 -31 -1 -60 -4 -66 -8
-15 -9 10 -56 31 -56 19 0 23 -15 6 -25 -15 -10 19 -45 43 -45 10 0 18 -4 18
-10 0 -6 -27 -10 -60 -10 -52 0 -60 -2 -60 -19 0 -11 -3 -26 -6 -34 -4 -12 5
-17 40 -22 48 -8 63 -25 21 -25 -31 0 -75 -20 -75 -34 1 -26 17 -37 45 -30 21
5 26 4 23 -7 -3 -8 -12 -13 -21 -11 -10 2 -23 -10 -33 -29 -15 -30 -15 -33 0
-45 14 -10 15 -16 5 -40 -7 -16 -11 -35 -10 -41 1 -7 -5 -13 -14 -13 -22 0
-18 -17 8 -34 24 -16 122 -21 200 -10 32 4 52 2 62 -6 18 -15 20 -101 3 -118
-8 -8 -65 -12 -190 -12 -202 0 -236 -8 -263 -61 -12 -23 -15 -44 -10 -75 l6
-44 1728 0 1729 0 6 23 c9 35 7 74 -6 102 -22 49 -50 55 -253 55 l-186 0 3 58
3 57 81 -2 c80 -2 80 -2 98 28 16 28 21 30 55 24 53 -9 69 12 47 60 -10 20
-15 44 -11 54 3 12 0 21 -10 24 -8 4 -12 13 -9 21 4 11 -6 18 -38 26 -24 7
-49 14 -56 16 -20 6 -4 24 21 24 16 0 25 9 33 35 10 33 10 35 -12 35 -13 0
-24 5 -24 10 0 6 -12 9 -27 8 -25 -3 -28 0 -28 27 0 23 5 30 19 30 11 0 21 6
24 14 2 7 14 23 25 34 l21 21 -55 11 c-30 6 -61 15 -67 19 -17 10 -5 26 21 26
12 0 31 8 42 16 20 15 20 15 1 30 -18 13 -18 14 -2 14 9 0 14 5 11 10 -4 6 -2
17 5 25 9 11 7 16 -9 25 -12 6 -21 18 -21 28 -1 15 -3 14 -18 -4 -12 -14 -34
-23 -65 -26 -52 -6 -60 8 -16 29 13 6 37 25 53 42 l29 30 -42 7 c-45 7 -61 21
-37 30 9 3 16 15 16 25 0 10 7 19 15 19 15 0 55 30 55 41 0 4 -27 10 -60 14
-33 4 -60 9 -60 11 0 3 7 15 15 28 13 20 13 25 1 35 -8 6 -12 21 -9 31 4 13 0
20 -9 20 -10 0 -14 8 -13 25 3 21 -1 25 -21 25 -15 0 -24 6 -24 15 0 8 -5 15
-10 15 -6 0 -13 -7 -16 -15 -4 -8 -14 -15 -23 -15 -12 0 -17 -9 -16 -32 0 -35
-21 -68 -42 -68 -18 0 -16 -19 2 -26 23 -9 18 -23 -11 -30 -16 -4 -23 -11 -20
-20 3 -8 9 -20 12 -28 4 -10 -1 -12 -18 -10 -36 6 -61 -18 -49 -49 12 -30 5
-38 -24 -31 -19 5 -23 0 -29 -27 -4 -22 -2 -38 7 -47 12 -11 8 -19 -20 -50
l-34 -37 35 -14 c20 -7 36 -17 36 -22 0 -4 -25 -11 -55 -14 -52 -7 -55 -9 -40
-24 8 -10 15 -23 15 -29 0 -7 9 -12 19 -12 15 0 19 -6 18 -27 -2 -21 3 -28 22
-33 14 -3 26 -11 28 -17 8 -23 -134 -15 -209 12 -80 29 -188 33 -253 10 -54
-20 -74 -19 -115 7 -50 30 -104 29 -171 -6 -48 -24 -65 -27 -105 -22 -41 4
-59 1 -104 -22 -30 -15 -59 -37 -65 -49 -5 -12 -20 -28 -33 -35 -40 -21 -44
-41 -16 -81 18 -27 33 -38 62 -42 20 -4 50 -11 66 -16 16 -5 44 -9 62 -9 18 0
39 -3 48 -6 16 -6 106 -183 106 -208 0 -8 -9 -18 -20 -21 -11 -4 -28 -17 -36
-31 l-16 -24 -282 0 c-280 0 -283 0 -302 23 -17 18 -20 35 -18 97 1 41 2 81 3
88 2 20 26 14 36 -10 6 -13 17 -23 25 -23 12 0 14 12 12 60 -2 33 -7 71 -11
85 -5 14 -15 51 -21 82 -13 57 -13 58 13 79 15 11 27 24 27 29 0 5 -14 29 -31
53 -30 43 -31 43 -87 42 l-57 -2 3 -51 c2 -36 -3 -62 -17 -91 -13 -25 -21 -59
-21 -91 0 -37 -4 -50 -12 -47 -14 5 -14 5 -4 93 l7 62 -83 4 c-86 4 -104 -3
-87 -33 24 -46 1 -78 -88 -123 -28 -14 -60 -37 -72 -52 -24 -30 -40 -25 -33
11 3 16 0 25 -8 25 -7 0 -10 7 -6 15 7 18 -23 35 -63 35 -16 0 -33 5 -36 10
-3 6 4 10 15 10 14 0 24 8 27 20 5 17 11 19 39 14 24 -4 34 -3 34 7 0 7 7 20
15 29 14 16 13 18 -17 25 -18 4 -59 7 -90 5 -54 -2 -58 0 -58 20 0 22 41 70
60 70 9 0 25 39 18 44 -1 1 -25 7 -52 12 -49 9 -77 34 -38 34 24 0 75 39 52
40 -8 0 -24 11 -34 25 -10 14 -24 25 -31 25 -7 0 -15 10 -18 22 -4 15 1 28 19
43 22 19 24 24 11 36 -7 8 -12 19 -10 25 2 7 -12 15 -30 18 -24 5 -37 13 -41
29 -9 33 -7 40 8 34 19 -7 36 12 36 40 0 18 -6 23 -25 23 -28 0 -33 21 -10 44
14 13 13 16 -5 26 -15 8 -19 17 -15 31 5 13 2 19 -10 19 -9 0 -15 6 -12 13 6
16 -11 47 -25 47 -6 0 -17 8 -24 18 -12 16 -13 16 -19 0z m2330 -317 c0 -8 -4
-16 -10 -18 -16 -5 -38 14 -30 26 9 16 40 9 40 -8z m-2435 -1 c0 -5 -6 -10
-14 -10 -8 0 -18 5 -21 10 -3 6 3 10 14 10 12 0 21 -4 21 -10z m-10 -120 c0
-5 -5 -10 -11 -10 -5 0 -7 5 -4 10 3 6 8 10 11 10 2 0 4 -4 4 -10z m485 -650
c7 -19 15 -56 19 -82 l7 -48 -159 0 -159 0 -7 52 c-10 69 3 79 94 71 65 -6 68
-5 85 21 16 24 24 27 63 24 42 -3 46 -6 57 -38z m318 -24 c26 -16 28 -21 22
-54 -4 -20 -12 -40 -18 -44 -7 -4 -45 -8 -86 -8 -62 0 -79 4 -96 20 -21 20
-21 22 -6 55 19 41 31 45 31 10 0 -27 49 -65 84 -65 15 0 17 5 11 23 -4 12
-10 45 -12 72 l-5 50 23 -21 c13 -11 37 -28 52 -38z m1050 -1 c-2 -22 -8 -42
-15 -44 -6 -2 -23 -15 -36 -28 -13 -13 -26 -22 -28 -20 -3 3 12 50 37 115 6
15 16 22 27 20 13 -3 16 -13 15 -43z m540 26 c31 7 67 9 81 5 23 -6 24 -10 23
-69 l-2 -62 -122 -3 c-130 -3 -139 1 -108 42 8 11 15 34 15 52 0 35 15 46 42
33 9 -5 40 -4 71 2z m-294 -35 c33 -34 33 -34 12 -48 -11 -7 -21 -21 -21 -30
0 -16 -10 -18 -80 -18 -47 0 -80 4 -80 10 0 6 6 10 13 10 16 0 68 47 92 83 9
15 20 27 24 27 4 0 22 -15 40 -34z"/>
</g>
</svg>
