<?xml version="1.0" standalone="no"?>
<!DOCTYPE svg PUBLIC "-//W3C//DTD SVG 20010904//EN"
 "http://www.w3.org/TR/2001/REC-SVG-20010904/DTD/svg10.dtd">
<svg version="1.0" xmlns="http://www.w3.org/2000/svg"
 width="265.000000pt" height="184.000000pt" viewBox="0 0 265.000000 184.000000"
 preserveAspectRatio="xMidYMid meet">
<metadata>
Created by potrace 1.16, written by Peter Selinger 2001-2019
</metadata>
<g transform="translate(0.000000,184.000000) scale(0.100000,-0.100000)"
fill="#000000" stroke="none">
<path d="M1470 1696 c-58 -15 -117 -51 -125 -76 -10 -32 -35 -32 -75 0 -21 16
-43 30 -48 30 -24 0 -21 -21 8 -53 23 -27 30 -44 30 -76 0 -22 -3 -41 -7 -42
-176 -15 -219 -14 -303 5 -36 9 -86 16 -111 16 -26 0 -77 9 -115 21 -103 32
-194 18 -359 -56 -64 -28 -77 -42 -151 -147 -47 -67 -47 -67 -42 -135 5 -59
14 -84 67 -187 l62 -118 -2 -162 -3 -161 47 -86 c29 -52 51 -109 58 -145 6
-33 22 -78 35 -102 23 -39 28 -42 66 -42 47 0 47 -13 -3 155 -42 139 -45 236
-10 338 19 57 22 80 16 133 -6 59 -5 64 13 64 24 0 52 -30 52 -57 0 -12 -9
-40 -20 -64 -27 -61 -25 -99 10 -179 34 -77 50 -149 50 -220 0 -98 72 -205
115 -170 17 14 14 44 -12 138 -9 33 -15 102 -16 186 -1 126 1 136 27 190 l27
56 73 0 c41 0 93 7 120 16 54 19 109 14 138 -13 10 -9 35 -44 56 -77 32 -54
36 -67 34 -121 -1 -33 -13 -100 -27 -148 -31 -109 -33 -189 -5 -217 23 -23 30
-24 54 -7 11 8 20 36 27 81 13 93 19 117 30 110 5 -3 7 -27 3 -53 -5 -40 -2
-54 23 -96 19 -33 37 -51 52 -53 39 -6 44 10 24 74 -13 45 -18 94 -18 209 0
188 6 207 78 230 70 22 138 73 195 147 26 34 66 84 89 111 25 29 49 71 57 101
16 54 104 171 136 181 19 6 50 71 50 105 0 11 14 35 32 55 36 42 44 38 72 -35
38 -99 101 -142 175 -120 50 14 66 34 102 123 34 86 53 120 101 175 36 42 35
78 -2 74 -42 -5 -102 -54 -144 -119 -43 -68 -59 -70 -72 -10 -14 67 -61 152
-100 182 -99 77 -185 74 -263 -9 -19 -20 -42 -36 -50 -36 -9 0 -33 18 -54 39
-56 58 -159 77 -267 47z m517 -153 c5 -13 -32 -27 -47 -18 -8 5 -7 11 1 21 14
17 40 15 46 -3z m-507 -45 c1 -13 7 -34 15 -48 8 -14 14 -35 15 -48 0 -21 -4
-23 -37 -20 -35 3 -38 6 -41 35 -3 33 23 103 39 103 5 0 9 -10 9 -22z"/>
</g>
</svg>
