<?xml version="1.0" standalone="no"?>
<!DOCTYPE svg PUBLIC "-//W3C//DTD SVG 20010904//EN"
 "http://www.w3.org/TR/2001/REC-SVG-20010904/DTD/svg10.dtd">
<svg version="1.0" xmlns="http://www.w3.org/2000/svg"
 width="266.000000pt" height="163.000000pt" viewBox="0 0 266.000000 163.000000"
 preserveAspectRatio="xMidYMid meet">
<metadata>
Created by potrace 1.16, written by Peter Selinger 2001-2019
</metadata>
<g transform="translate(0.000000,163.000000) scale(0.100000,-0.100000)"
fill="#000000" stroke="none">
<path d="M1065 1500 c-27 -11 -57 -20 -66 -20 -8 0 -30 -11 -48 -24 -18 -14
-67 -37 -107 -52 l-74 -27 -59 27 c-73 32 -98 33 -140 2 -19 -14 -48 -28 -65
-32 -76 -16 -161 -74 -176 -120 -10 -30 -65 -86 -124 -127 -36 -25 -33 -59 9
-106 19 -21 35 -46 35 -55 0 -10 18 -25 48 -37 39 -17 59 -20 115 -14 38 3 74
2 80 -3 12 -9 48 -19 97 -27 14 -2 58 -9 99 -15 105 -16 122 -30 155 -126 8
-23 30 -65 50 -92 19 -28 51 -93 70 -144 58 -154 60 -222 8 -234 -41 -10 -72
-32 -72 -53 0 -23 33 -29 186 -38 159 -8 177 -3 217 60 32 49 57 113 72 182
27 125 46 155 76 119 10 -12 23 -14 55 -9 23 3 45 2 48 -3 7 -12 -19 -195 -33
-220 -6 -11 -24 -23 -40 -27 -36 -8 -74 -47 -69 -72 2 -14 17 -20 63 -26 104
-14 161 -5 198 31 18 18 42 32 54 32 28 0 93 28 93 40 0 5 30 43 66 85 36 42
69 88 73 103 5 19 15 28 34 30 21 3 31 -4 51 -37 15 -23 43 -49 65 -61 79 -40
94 -101 36 -146 -75 -57 -31 -84 134 -84 110 0 125 4 144 37 7 11 21 33 31 48
15 21 21 52 26 138 5 79 14 134 32 187 46 138 51 170 43 324 -6 123 -5 147 10
175 21 41 10 75 -41 138 -67 82 -155 138 -267 173 -56 17 -131 42 -167 56 -54
22 -86 27 -193 30 -141 5 -197 -5 -351 -57 -95 -33 -135 -33 -177 -1 -115 87
-209 109 -304 72z"/>
</g>
</svg>
