<?xml version="1.0" standalone="no"?>
<!DOCTYPE svg PUBLIC "-//W3C//DTD SVG 20010904//EN"
 "http://www.w3.org/TR/2001/REC-SVG-20010904/DTD/svg10.dtd">
<svg version="1.0" xmlns="http://www.w3.org/2000/svg"
 width="400.000000pt" height="300.000000pt" viewBox="0 0 400.000000 300.000000"
 preserveAspectRatio="xMidYMid meet">
<metadata>
Created by potrace 1.16, written by Peter Selinger 2001-2019
</metadata>
<g transform="translate(0.000000,300.000000) scale(0.100000,-0.100000)"
fill="#000000" stroke="none">
<path d="M1740 2727 c-8 -8 -44 -19 -79 -25 -74 -13 -133 -48 -158 -94 -26
-47 -22 -262 8 -418 12 -65 23 -175 26 -252 4 -125 3 -144 -18 -205 -16 -47
-24 -91 -24 -143 l0 -75 -33 -3 -34 -3 7 40 c8 49 -5 54 -40 14 l-23 -28 -24
23 c-33 30 -38 28 -35 -15 2 -36 0 -38 -33 -43 -41 -6 -46 -24 -8 -28 38 -5
51 -23 38 -57 -15 -39 3 -53 24 -21 18 29 47 34 66 11 22 -26 33 -17 26 21
l-7 35 43 -3 c47 -3 48 -4 113 -151 l26 -58 92 3 92 3 1 67 c2 95 6 102 58 96
29 -4 68 -22 122 -56 154 -99 146 -97 420 -97 260 0 267 1 277 53 2 15 10 41
17 58 15 35 8 71 -18 104 -19 23 -33 27 -232 60 -132 22 -217 81 -293 201 -15
24 -39 60 -53 79 -25 34 -26 39 -21 145 3 61 12 157 21 215 9 58 18 166 19
240 2 122 0 139 -20 176 -30 56 -104 103 -174 111 -30 3 -64 12 -76 19 -28 18
-74 18 -93 1z"/>
</g>
</svg>
