<?xml version="1.0" standalone="no"?>
<!DOCTYPE svg PUBLIC "-//W3C//DTD SVG 20010904//EN"
 "http://www.w3.org/TR/2001/REC-SVG-20010904/DTD/svg10.dtd">
<svg version="1.0" xmlns="http://www.w3.org/2000/svg"
 width="218.000000pt" height="196.000000pt" viewBox="0 0 218.000000 196.000000"
 preserveAspectRatio="xMidYMid meet">
<metadata>
Created by potrace 1.16, written by Peter Selinger 2001-2019
</metadata>
<g transform="translate(0.000000,196.000000) scale(0.100000,-0.100000)"
fill="#000000" stroke="none">
<path d="M1160 1815 c-7 -8 -18 -15 -25 -15 -20 0 -43 -32 -27 -37 20 -7 14
-30 -10 -37 -60 -16 -111 -6 -180 34 -39 22 -74 38 -79 34 -15 -9 -10 -34 9
-41 9 -3 39 -24 66 -45 27 -21 61 -41 75 -44 59 -11 74 -26 88 -89 7 -33 20
-86 28 -117 8 -32 15 -69 15 -83 0 -40 -37 -30 -68 17 -9 14 -29 43 -44 65
-25 39 -127 106 -174 115 -14 2 -18 10 -16 30 2 14 -2 29 -7 33 -6 3 -11 14
-11 25 0 10 -7 20 -15 24 -8 3 -15 17 -15 31 0 14 -3 25 -7 24 -14 -2 -53 13
-53 20 0 4 -13 6 -29 3 -19 -2 -28 -9 -27 -20 1 -10 -8 -18 -21 -20 -14 -2
-20 -8 -16 -17 3 -9 -5 -19 -21 -26 -19 -9 -24 -17 -20 -33 3 -12 -2 -39 -11
-60 -15 -35 -15 -40 -2 -48 17 -9 34 -109 23 -127 -5 -7 -19 -5 -42 7 -34 16
-37 16 -67 -2 -93 -56 -155 -86 -177 -86 -15 0 -31 -5 -37 -11 -8 -8 -16 -7
-31 2 -28 18 -87 0 -87 -26 0 -13 10 -21 35 -27 19 -4 51 -13 71 -19 32 -10
42 -8 116 30 83 42 120 50 141 29 18 -18 17 -254 -2 -265 -18 -11 -36 -47 -36
-72 0 -41 57 -20 105 37 27 33 28 35 16 83 -23 90 11 151 52 94 22 -29 108
-75 142 -75 11 0 32 7 48 15 l27 14 35 -68 c37 -74 149 -213 220 -274 41 -35
147 -87 178 -87 15 0 41 -73 67 -191 10 -48 25 -97 33 -110 9 -13 23 -49 31
-80 16 -55 40 -85 83 -108 27 -14 80 -14 88 -1 10 15 -34 70 -56 70 -23 0 -64
61 -74 110 l-7 35 46 -50 c25 -27 46 -54 46 -58 0 -4 24 -32 53 -62 45 -47 59
-55 90 -55 20 0 38 4 42 9 11 18 -37 82 -65 88 -31 6 -110 94 -110 122 0 9
-20 50 -44 92 -77 135 -81 169 -36 268 21 44 40 72 60 83 17 9 30 24 30 32 0
8 9 17 19 21 30 9 46 32 32 48 -10 13 -6 27 10 27 12 0 129 -116 129 -127 0
-32 79 -18 81 14 3 49 -5 76 -51 163 -17 34 -23 102 -9 111 12 7 11 14 -3 41
-9 18 -19 43 -23 56 -8 28 -20 28 -39 1 l-14 -21 -11 21 c-7 12 -22 21 -34 21
-61 1 -95 80 -102 237 -4 81 -14 104 -39 84 -21 -17 -86 3 -160 51 -33 21 -63
38 -68 38 -5 0 -6 9 -3 20 4 12 1 28 -5 36 -7 8 -16 29 -19 47 -6 29 -10 32
-47 35 -28 2 -45 -2 -54 -13z m156 -227 c38 -18 94 -34 124 -37 65 -7 75 -26
39 -75 -25 -34 -33 -116 -12 -123 7 -3 9 3 6 17 -3 12 4 43 15 68 11 26 23 56
27 67 10 30 20 4 39 -96 18 -96 20 -143 7 -135 -5 3 -15 -1 -22 -10 -11 -14
-14 -13 -22 8 -9 20 -11 20 -14 5 -3 -10 -10 -29 -18 -43 l-13 -25 -21 37
c-16 26 -27 35 -41 31 -13 -3 -36 11 -75 47 -53 48 -57 55 -71 126 -9 41 -20
82 -25 92 -14 26 -10 78 6 78 1 0 33 -14 71 -32z m-576 8 c0 -8 -15 -23 -34
-34 -27 -16 -35 -29 -42 -64 -4 -23 -9 -35 -12 -25 -5 26 27 115 46 127 24 14
42 12 42 -4z"/>
</g>
</svg>
