<?xml version="1.0" standalone="no"?>
<!DOCTYPE svg PUBLIC "-//W3C//DTD SVG 20010904//EN"
 "http://www.w3.org/TR/2001/REC-SVG-20010904/DTD/svg10.dtd">
<svg version="1.0" xmlns="http://www.w3.org/2000/svg"
 width="176.000000pt" height="183.000000pt" viewBox="0 0 176.000000 183.000000"
 preserveAspectRatio="xMidYMid meet">
<metadata>
Created by potrace 1.16, written by Peter Selinger 2001-2019
</metadata>
<g transform="translate(0.000000,183.000000) scale(0.100000,-0.100000)"
fill="#000000" stroke="none">
<path d="M644 1758 c-4 -7 -11 -30 -15 -53 -4 -22 -16 -66 -28 -98 -19 -51
-20 -60 -7 -91 13 -31 17 -33 76 -39 35 -4 78 -7 96 -7 l33 0 3 -72 3 -72 33
-8 c39 -10 50 -32 29 -56 -8 -9 -17 -28 -19 -42 -3 -23 -7 -25 -45 -22 -23 2
-51 -2 -62 -8 -16 -8 -28 -7 -53 6 -43 22 -133 14 -190 -18 -32 -17 -50 -37
-71 -78 -15 -30 -32 -57 -37 -58 -14 -5 -40 60 -40 96 0 16 7 48 15 71 12 34
12 53 4 94 -25 121 -93 164 -193 122 -19 -8 -50 -17 -68 -19 -18 -3 -35 -5
-37 -5 -2 -1 2 -8 9 -16 8 -9 21 -13 36 -9 25 6 31 -5 13 -23 -16 -16 8 -28
27 -12 8 6 18 8 22 4 4 -4 1 -10 -7 -13 -7 -2 -28 -17 -45 -33 l-31 -28 28 -1
c36 0 35 -15 -3 -29 -34 -11 -48 -37 -32 -53 8 -8 17 -5 31 13 l20 24 1 -27
c0 -18 5 -28 15 -28 11 0 14 -7 9 -24 -7 -31 12 -43 26 -16 11 21 30 27 30 10
0 -14 97 -112 133 -135 15 -10 40 -44 56 -79 19 -39 41 -67 60 -79 27 -16 31
-24 31 -60 0 -24 -11 -66 -25 -95 -30 -65 -31 -74 -5 -97 18 -16 23 -17 48 -4
15 7 31 15 36 17 5 3 6 -6 3 -20 -9 -33 17 -68 51 -68 30 -1 124 -45 167 -78
15 -12 35 -22 44 -22 9 0 22 -13 28 -29 11 -30 85 -77 103 -66 16 10 -8 65
-44 99 -20 18 -36 38 -36 43 0 6 -35 23 -77 38 -81 29 -103 45 -103 78 0 15 5
18 23 12 93 -28 163 -39 171 -26 9 14 -38 61 -61 61 -20 0 -89 23 -98 32 -4 3
10 27 29 53 29 37 36 55 36 91 0 24 3 44 6 44 4 0 39 -31 79 -69 40 -38 88
-74 106 -80 29 -9 37 -20 57 -70 12 -32 26 -81 32 -109 5 -29 18 -69 28 -89
19 -37 36 -102 47 -174 3 -21 17 -53 30 -73 14 -20 25 -50 25 -66 0 -25 6 -30
47 -44 26 -9 50 -16 54 -16 10 0 -7 57 -26 86 -8 13 -15 32 -15 42 0 11 -12
46 -26 78 -27 60 -43 162 -49 309 -1 39 -5 85 -9 103 -6 24 -4 32 6 32 18 0
61 -272 48 -305 -14 -36 9 -50 37 -23 18 17 23 18 23 6 0 -9 -7 -21 -15 -28
-35 -29 -4 -61 50 -53 30 5 75 43 150 128 34 38 35 38 49 20 14 -19 15 -19 21
-3 4 10 12 15 18 11 6 -4 8 0 4 10 -4 10 0 20 10 25 11 6 12 11 4 16 -19 12
-12 34 17 48 16 8 28 23 30 37 3 22 2 23 -37 16 -44 -7 -49 -1 -26 29 12 16
12 22 2 28 -9 6 -7 12 8 24 20 15 20 15 -4 35 -18 15 -21 22 -12 33 9 11 9 15
-1 19 -10 4 -11 7 0 18 17 18 15 29 -4 29 -12 0 -15 6 -10 25 5 19 3 23 -9 19
-8 -3 -22 1 -31 10 -15 16 -15 18 0 35 20 22 21 42 2 35 -7 -3 -16 3 -20 12
-6 16 -8 16 -22 -2 -15 -18 -15 -18 -10 8 3 14 9 33 12 42 5 12 2 15 -11 9
-15 -5 -17 -2 -11 21 10 40 -3 53 -26 25 -19 -24 -19 -24 -13 -2 9 31 -3 47
-21 32 -21 -17 -29 -3 -15 27 8 17 8 31 2 37 -13 13 -31 0 -31 -24 0 -10 -5
-19 -11 -19 -8 0 -10 16 -5 50 4 28 4 50 2 50 -15 0 -56 -25 -57 -34 0 -6 -4
0 -10 12 -11 29 -30 24 -47 -11 -45 -93 -100 85 -57 186 20 49 20 51 -20 81
-26 20 -35 23 -35 12 0 -8 9 -18 20 -21 11 -3 20 -11 20 -17 0 -16 -34 -87
-41 -88 -14 0 -129 133 -129 151 0 11 -7 22 -15 25 -19 8 -20 24 -2 24 21 0
47 34 47 59 0 18 4 21 20 16 23 -7 23 -7 11 31 -5 16 -12 41 -15 57 -6 24 -11
27 -45 27 -22 0 -44 -6 -51 -15 -7 -8 -15 -13 -19 -11 -4 3 -13 1 -21 -4 -12
-7 -12 -10 3 -16 19 -7 23 -39 5 -50 -10 -7 -32 14 -41 40 -2 6 -8 8 -11 4 -4
-3 0 -22 9 -42 24 -50 15 -68 -17 -33 -14 15 -31 27 -38 27 -9 0 -5 -9 9 -24
16 -17 21 -31 16 -46 -7 -21 -11 -22 -79 -15 -39 3 -74 10 -79 14 -4 4 -1 27
8 50 19 55 20 135 1 150 -11 9 -16 9 -22 -1z m388 -411 c55 -55 72 -88 64
-121 -8 -32 -32 -34 -40 -3 -3 13 -19 40 -35 61 -17 21 -28 43 -25 50 3 7 -2
19 -11 26 -8 7 -15 16 -15 21 0 19 21 7 62 -34z m279 -653 c53 -27 67 -67 34
-95 -13 -12 -34 -47 -47 -78 l-22 -56 -12 85 c-7 47 -15 105 -19 129 -8 42 -7
43 16 36 13 -4 36 -13 50 -21z m-701 -9 c0 -8 -4 -15 -10 -15 -5 0 -7 7 -4 15
4 8 8 15 10 15 2 0 4 -7 4 -15z"/>
</g>
</svg>
