<?xml version="1.0" standalone="no"?>
<!DOCTYPE svg PUBLIC "-//W3C//DTD SVG 20010904//EN"
 "http://www.w3.org/TR/2001/REC-SVG-20010904/DTD/svg10.dtd">
<svg version="1.0" xmlns="http://www.w3.org/2000/svg"
 width="351.000000pt" height="155.000000pt" viewBox="0 0 351.000000 155.000000"
 preserveAspectRatio="xMidYMid meet">
<metadata>
Created by potrace 1.16, written by Peter Selinger 2001-2019
</metadata>
<g transform="translate(0.000000,155.000000) scale(0.100000,-0.100000)"
fill="#000000" stroke="none">
<path d="M1632 1514 c-12 -8 -22 -21 -22 -27 0 -7 -16 -34 -35 -61 -19 -27
-35 -60 -35 -72 0 -26 24 -54 46 -54 20 0 94 -38 94 -49 0 -4 -5 -23 -11 -40
-10 -29 -9 -35 9 -54 19 -19 20 -23 6 -49 -8 -15 -18 -28 -22 -28 -20 0 -111
29 -141 45 -45 23 -109 16 -161 -19 -22 -14 -44 -26 -49 -26 -18 0 -20 46 -5
98 21 71 12 116 -32 160 -30 30 -39 34 -67 27 -17 -3 -50 -9 -72 -12 -66 -8
-73 -12 -51 -29 23 -16 31 -51 16 -69 -6 -7 -8 -19 -5 -27 3 -8 -1 -21 -10
-28 -22 -19 -19 -30 14 -41 19 -7 31 -19 33 -32 2 -15 11 -23 28 -25 33 -5
120 -93 120 -122 0 -12 11 -44 25 -72 14 -27 25 -55 25 -62 0 -7 -18 -36 -39
-65 -35 -46 -38 -56 -29 -77 6 -13 20 -24 30 -24 10 0 23 -11 28 -25 5 -13 26
-35 47 -48 54 -34 133 -115 133 -136 0 -22 65 -85 79 -77 35 22 -16 141 -83
192 -45 34 -58 54 -35 54 6 0 24 -11 41 -25 35 -29 88 -34 88 -8 0 9 -18 33
-40 53 -46 43 -49 58 -17 88 34 32 52 27 86 -21 16 -24 39 -50 51 -58 21 -14
22 -22 26 -264 3 -189 1 -251 -9 -257 -6 -4 -273 -8 -592 -8 -439 0 -584 3
-593 12 -7 7 -12 38 -12 70 0 63 18 86 53 66 10 -5 29 -7 41 -4 13 3 31 -1 42
-9 23 -17 84 -20 84 -3 0 6 -8 20 -17 30 -15 17 -15 19 2 32 12 8 33 12 55 9
27 -4 39 -1 43 10 7 19 -2 57 -15 57 -5 0 -8 14 -6 30 1 18 -3 34 -10 39 -7 4
-12 14 -10 22 2 9 -13 17 -49 24 -57 11 -73 28 -32 33 17 2 29 11 32 24 5 16
11 19 36 13 24 -5 31 -3 31 9 0 9 5 16 10 16 18 0 10 15 -13 26 -13 6 -48 9
-78 7 -30 -1 -59 1 -66 5 -13 8 -6 62 9 62 11 0 68 52 68 62 0 4 -21 10 -47
14 -75 10 -114 54 -49 54 43 0 54 15 30 41 -16 17 -16 19 -1 19 10 0 17 7 17
15 0 9 7 18 17 22 14 5 13 8 -5 14 -12 5 -22 15 -22 24 0 19 -10 19 -24 0 -6
-8 -35 -17 -64 -21 -44 -6 -52 -4 -52 10 0 9 12 18 28 22 33 8 85 66 68 76 -6
4 -26 8 -43 8 -36 0 -42 10 -18 30 8 7 15 21 15 31 0 12 7 19 20 19 10 0 23 8
28 17 8 13 4 20 -16 30 -14 7 -33 11 -43 8 -30 -10 -39 3 -23 33 18 34 18 42
-1 42 -12 0 -14 7 -9 27 6 22 4 25 -11 20 -13 -5 -16 -3 -11 8 3 9 -7 27 -24
45 -25 26 -31 28 -36 15 -4 -9 -13 -14 -22 -10 -12 4 -14 -2 -9 -38 6 -41 4
-45 -21 -58 -15 -7 -29 -15 -31 -16 -2 -1 2 -9 9 -18 10 -12 10 -18 0 -30 -7
-8 -19 -15 -26 -15 -10 0 -13 -7 -8 -25 5 -20 2 -25 -12 -25 -11 0 -27 -7 -36
-14 -15 -11 -15 -16 -4 -31 7 -10 19 -15 27 -13 19 7 51 -10 43 -23 -3 -6 -29
-7 -65 -3 -58 6 -59 6 -59 -18 0 -16 8 -28 24 -36 13 -6 27 -20 31 -31 4 -12
15 -21 27 -21 11 0 18 -5 15 -12 -3 -9 -24 -12 -74 -10 l-71 4 5 -26 c4 -20
13 -27 42 -32 54 -9 63 -13 58 -27 -2 -6 -14 -10 -27 -9 -13 2 -42 1 -65 -3
-41 -6 -42 -7 -31 -30 6 -14 16 -25 23 -25 18 0 26 -19 14 -34 -13 -16 2 -32
34 -38 11 -2 20 -10 20 -18 0 -11 -14 -15 -53 -16 -58 -1 -57 0 -66 -30 -6
-19 -1 -23 44 -34 27 -7 50 -16 50 -20 0 -10 -26 -20 -53 -20 -25 -1 -57 -22
-57 -39 0 -6 12 -11 28 -11 42 0 57 -14 37 -34 -9 -9 -25 -16 -36 -16 -10 0
-20 -7 -21 -15 0 -8 -1 -21 -2 -27 -1 -9 10 -12 33 -10 22 3 31 0 27 -7 -4 -6
-14 -11 -22 -11 -14 0 -37 -41 -39 -68 0 -7 -6 -16 -13 -21 -24 -15 16 -44 51
-37 16 3 36 1 43 -5 10 -8 27 -8 64 0 76 16 108 14 120 -8 15 -30 13 -126 -5
-141 -10 -8 -59 -11 -169 -8 -145 3 -156 2 -170 -17 -9 -11 -16 -30 -16 -41 0
-12 -3 -36 -6 -53 l-7 -31 1747 0 1746 0 0 51 c0 91 3 89 -186 89 -189 0 -186
-2 -177 97 7 72 18 79 106 66 125 -18 221 5 172 41 -11 8 -14 15 -7 19 16 11
-9 57 -35 63 -35 9 -27 24 13 24 29 0 35 3 30 16 -3 9 -6 20 -6 25 0 5 -8 9
-18 9 -10 0 -27 7 -38 15 -16 13 -17 16 -4 25 8 6 26 9 40 8 36 -4 38 26 3 40
-15 6 -39 12 -52 14 -35 4 -38 26 -4 34 60 13 63 15 63 43 0 27 -1 27 -54 26
-58 -2 -88 8 -71 24 6 5 21 11 35 13 20 2 25 9 25 33 0 18 6 31 15 33 8 1 20
13 26 26 11 23 9 25 -22 30 -18 4 -44 4 -58 0 -34 -8 -57 1 -50 21 4 9 19 15
38 15 39 0 51 8 59 39 6 23 5 24 -58 19 -34 -3 -68 -2 -75 2 -19 11 -3 29 20
23 14 -4 20 0 20 11 0 9 12 24 28 34 35 22 33 62 -4 62 -14 0 -34 -4 -44 -10
-10 -5 -26 -7 -35 -4 -15 6 -15 8 0 24 9 10 24 16 35 13 12 -3 22 3 29 16 10
17 9 21 -4 21 -8 0 -15 5 -15 11 0 7 -10 9 -25 5 -23 -6 -25 -4 -19 19 5 19 1
30 -17 44 -19 16 -22 22 -11 32 16 17 15 29 -3 29 -8 0 -15 5 -15 10 0 6 -6
10 -14 10 -19 0 -32 20 -19 29 14 9 11 51 -4 51 -6 0 -16 8 -22 18 -9 16 -10
16 -16 0 -4 -10 -13 -18 -20 -18 -17 0 -26 -35 -12 -49 8 -8 5 -11 -12 -11
-18 0 -21 -4 -16 -20 5 -15 2 -20 -10 -20 -13 0 -16 -5 -11 -20 20 -67 21 -63
-6 -57 -37 10 -79 -14 -66 -36 5 -9 18 -17 30 -17 15 0 19 -5 15 -19 -2 -11 3
-25 15 -35 23 -20 16 -35 -14 -29 -13 2 -29 -1 -37 -6 -12 -7 -10 -14 10 -39
13 -16 36 -32 52 -36 19 -4 27 -12 27 -26 0 -17 -4 -19 -27 -13 -16 4 -39 7
-53 6 -14 -1 -33 6 -42 14 -16 15 -18 15 -18 0 0 -10 -7 -17 -15 -17 -14 0
-13 -3 1 -25 9 -14 23 -25 31 -25 11 0 8 -6 -7 -18 -30 -24 -18 -42 26 -42 34
0 34 0 19 -24 -12 -17 -28 -25 -66 -30 -53 -7 -60 -22 -21 -42 12 -6 19 -13
16 -16 -3 -4 3 -9 14 -12 24 -8 34 -52 16 -67 -9 -7 -36 -10 -69 -7 -31 3 -58
1 -61 -4 -3 -4 -14 -8 -25 -8 -19 0 -19 -1 -2 -25 14 -20 24 -24 46 -19 23 5
29 2 34 -14 3 -13 15 -22 32 -24 41 -5 25 -22 -32 -33 -39 -8 -51 -14 -49 -26
1 -9 -5 -20 -14 -23 -12 -4 -14 -13 -10 -31 4 -16 0 -34 -10 -50 -24 -37 -12
-57 34 -55 53 4 81 -8 98 -41 13 -25 18 -28 47 -21 17 4 50 7 72 7 l40 0 3
-61 c2 -43 -1 -64 -11 -72 -11 -9 -167 -11 -608 -10 l-593 3 -7 40 c-4 22 -10
73 -14 113 -6 64 -5 72 10 72 12 0 15 -5 11 -16 -4 -9 -1 -23 5 -30 19 -23 65
-16 120 17 34 20 60 28 74 25 34 -9 85 21 85 49 0 16 9 28 28 37 33 16 36 42
5 46 -27 4 -30 20 -7 29 9 3 14 13 11 24 -3 10 2 24 10 30 11 10 11 14 1 20
-10 7 -11 12 -1 28 11 18 10 22 -8 31 -19 11 -19 13 -5 29 22 24 20 30 -9 41
-22 8 -24 13 -15 29 15 29 12 41 -10 41 -20 0 -20 1 -5 30 15 30 15 30 -11 30
-23 0 -25 3 -19 30 5 23 3 30 -9 30 -18 0 -21 15 -6 25 22 14 9 26 -21 20 -31
-7 -31 -6 -25 20 8 30 4 30 -63 9 -24 -7 -24 -7 -18 49 3 34 14 67 27 85 25
33 24 75 -2 80 -12 2 -17 -5 -20 -25 -3 -31 -35 -40 -48 -13 -4 8 -17 34 -29
57 -24 46 -21 63 9 63 10 0 20 6 23 14 4 9 14 12 25 9 18 -4 19 0 16 53 -2 31
-7 61 -13 67 -5 5 -37 11 -70 13 -51 3 -61 1 -61 -13 0 -12 -3 -13 -14 -4 -11
10 -16 8 -21 -8 -3 -12 -15 -21 -26 -21 -21 0 -24 -12 -9 -41 13 -23 3 -24
-38 -3 -38 18 -38 19 -12 75 33 73 24 113 -18 83z m278 -924 c21 -21 27 -50
10 -50 -5 0 -21 -12 -35 -27 l-25 -28 0 40 c0 49 9 85 21 85 5 0 18 -9 29 -20z
m-96 -72 c-10 -103 -26 -133 -20 -37 5 72 13 109 23 109 2 0 1 -33 -3 -72z"/>
</g>
</svg>
