<?xml version="1.0" standalone="no"?>
<!DOCTYPE svg PUBLIC "-//W3C//DTD SVG 20010904//EN"
 "http://www.w3.org/TR/2001/REC-SVG-20010904/DTD/svg10.dtd">
<svg version="1.0" xmlns="http://www.w3.org/2000/svg"
 width="303.000000pt" height="204.000000pt" viewBox="0 0 303.000000 204.000000"
 preserveAspectRatio="xMidYMid meet">
<metadata>
Created by potrace 1.16, written by Peter Selinger 2001-2019
</metadata>
<g transform="translate(0.000000,204.000000) scale(0.100000,-0.100000)"
fill="#000000" stroke="none">
<path d="M1960 2013 c-14 -2 -52 -10 -86 -18 -39 -10 -113 -15 -212 -15 -136
0 -158 -2 -214 -24 -93 -36 -255 -68 -392 -77 -66 -4 -173 -15 -236 -24 -63
-9 -153 -20 -200 -24 -66 -6 -99 -15 -145 -39 -122 -63 -183 -90 -216 -97 -19
-4 -55 -18 -81 -32 -45 -25 -55 -38 -125 -166 -8 -15 -12 -135 -15 -392 -3
-364 -3 -370 17 -373 31 -4 55 48 55 121 0 67 8 107 20 107 11 0 40 -93 40
-128 0 -16 -12 -51 -26 -78 -28 -53 -28 -49 -8 -316 4 -58 2 -108 -6 -147 -12
-56 -11 -62 9 -94 11 -19 21 -46 21 -60 0 -14 12 -39 26 -57 26 -30 29 -31 98
-28 l71 3 3 30 c2 18 -10 62 -29 105 -30 72 -31 79 -26 175 6 108 40 239 60
233 7 -2 30 -38 51 -79 22 -40 68 -112 103 -159 41 -55 65 -98 69 -123 4 -22
17 -51 30 -66 12 -15 30 -46 40 -69 21 -53 37 -62 117 -62 96 0 113 38 48 112
-15 18 -39 53 -51 78 -13 25 -45 70 -71 100 -91 105 -110 196 -69 342 11 40
20 89 20 108 0 48 16 66 68 80 49 13 66 5 76 -35 3 -13 19 -37 36 -53 17 -17
30 -41 30 -54 0 -28 14 -48 50 -72 27 -18 75 -21 85 -6 10 16 37 11 61 -11
l22 -21 36 24 c38 25 61 63 74 124 11 53 40 63 124 40 34 -9 85 -16 111 -16
66 1 77 -10 65 -62 -5 -23 -14 -48 -20 -55 -6 -7 -8 -28 -5 -47 4 -23 -1 -43
-15 -66 -14 -24 -18 -45 -15 -74 13 -119 30 -214 43 -239 8 -16 14 -39 14 -52
0 -14 14 -38 30 -55 17 -17 30 -37 30 -46 0 -8 11 -26 25 -39 21 -22 33 -25
95 -25 80 0 81 2 50 75 -11 26 -20 60 -20 76 0 26 25 120 63 239 8 25 20 63
26 85 17 63 49 95 101 102 62 8 153 55 168 87 8 17 19 26 36 26 13 0 29 7 37
16 7 8 34 26 60 39 25 13 49 31 52 39 14 36 129 44 157 11 7 -9 29 -15 51 -15
30 0 47 -7 71 -30 17 -16 37 -30 44 -30 7 0 27 -21 44 -46 29 -41 34 -45 63
-39 38 7 93 65 102 106 5 20 14 31 31 35 35 9 70 56 78 103 5 35 12 44 46 61
53 27 75 61 65 103 -4 17 -9 131 -11 252 -1 125 -7 233 -13 249 -6 15 -34 54
-63 87 -41 48 -61 62 -106 76 -38 12 -62 27 -80 51 -14 18 -38 40 -54 48 -25
13 -36 13 -96 -2 -37 -10 -101 -18 -142 -18 -95 -1 -132 18 -222 113 -44 47
-75 71 -90 71 -13 1 -34 7 -48 15 -24 14 -59 16 -110 8z m463 -361 c13 -13 37
-26 53 -31 35 -9 42 -35 18 -62 -24 -26 -48 -24 -84 9 -31 28 -35 40 -31 107
2 32 4 36 11 20 4 -11 19 -30 33 -43z"/>
</g>
</svg>
