<?xml version="1.0" standalone="no"?>
<!DOCTYPE svg PUBLIC "-//W3C//DTD SVG 20010904//EN"
 "http://www.w3.org/TR/2001/REC-SVG-20010904/DTD/svg10.dtd">
<svg version="1.0" xmlns="http://www.w3.org/2000/svg"
 width="268.000000pt" height="220.000000pt" viewBox="0 0 268.000000 220.000000"
 preserveAspectRatio="xMidYMid meet">
<metadata>
Created by potrace 1.16, written by Peter Selinger 2001-2019
</metadata>
<g transform="translate(0.000000,220.000000) scale(0.100000,-0.100000)"
fill="#000000" stroke="none">
<path d="M990 2160 c-14 -4 -53 -22 -88 -40 -51 -26 -73 -46 -122 -110 -98
-128 -122 -139 -210 -95 -109 55 -197 25 -332 -112 -66 -68 -96 -109 -134
-182 -27 -52 -55 -103 -61 -115 -19 -32 -16 -106 4 -129 26 -28 44 -276 28
-388 -6 -40 -3 -49 19 -76 14 -17 26 -36 26 -42 0 -22 57 -62 110 -77 60 -17
99 -48 137 -108 35 -54 73 -85 106 -86 22 0 36 12 74 63 58 76 146 163 174
172 17 6 35 -6 85 -56 35 -35 64 -71 64 -80 0 -17 -31 -145 -54 -219 -18 -61
-34 -157 -42 -260 -4 -46 -13 -94 -21 -107 -8 -12 -13 -32 -11 -44 6 -46 126
-50 149 -6 7 12 18 29 26 37 7 8 28 37 45 64 23 35 55 64 113 102 77 50 83 57
103 111 12 32 37 88 57 124 l35 66 83 17 84 18 68 -29 c65 -27 69 -30 84 -76
11 -31 32 -62 59 -87 31 -29 42 -47 42 -68 0 -27 44 -101 69 -117 17 -10 13
-94 -6 -126 -24 -41 -9 -63 47 -67 65 -5 83 3 113 49 23 34 27 52 27 112 1 44
6 82 15 97 21 37 18 78 -15 210 -35 138 -36 156 -12 168 42 22 91 23 132 2
l42 -21 39 20 c22 12 43 21 47 21 15 0 90 -116 116 -178 30 -71 35 -173 12
-244 -8 -24 -16 -64 -19 -90 -3 -31 -13 -58 -31 -78 -31 -38 -32 -44 -5 -71
18 -18 29 -20 72 -15 29 3 85 7 125 8 79 3 97 14 108 68 3 14 14 41 24 61 18
32 18 44 8 133 -8 73 -8 118 0 175 8 55 9 89 1 121 -12 52 -6 140 22 281 10
55 19 141 19 192 0 85 -3 97 -33 152 -17 34 -49 85 -70 115 -21 30 -52 77 -70
105 -32 49 -65 71 -172 118 -78 34 -221 120 -272 163 -29 25 -87 61 -130 81
-43 20 -109 56 -148 81 -38 25 -101 58 -140 73 -130 51 -200 81 -225 99 -14
10 -48 29 -77 44 -29 14 -57 35 -63 46 -6 10 -27 24 -48 30 -43 12 -166 12
-202 0z"/>
</g>
</svg>
