<?xml version="1.0" standalone="no"?>
<!DOCTYPE svg PUBLIC "-//W3C//DTD SVG 20010904//EN"
 "http://www.w3.org/TR/2001/REC-SVG-20010904/DTD/svg10.dtd">
<svg version="1.0" xmlns="http://www.w3.org/2000/svg"
 width="400.000000pt" height="300.000000pt" viewBox="0 0 400.000000 300.000000"
 preserveAspectRatio="xMidYMid meet">
<metadata>
Created by potrace 1.16, written by Peter Selinger 2001-2019
</metadata>
<g transform="translate(0.000000,300.000000) scale(0.100000,-0.100000)"
fill="#000000" stroke="none">
<path d="M925 2038 c-2 -7 -5 -26 -7 -43 -2 -16 -7 -30 -13 -30 -21 0 -36 -17
-30 -34 3 -11 -3 -25 -15 -36 -11 -10 -20 -26 -20 -36 0 -11 -9 -19 -22 -21
-29 -4 -30 -32 -1 -36 25 -4 49 -29 39 -40 -4 -4 -32 -6 -62 -5 -51 3 -71 -8
-39 -21 8 -3 20 -17 27 -31 6 -14 16 -25 22 -25 6 0 18 -5 26 -10 27 -18 -10
-30 -67 -23 -43 5 -53 3 -53 -9 0 -20 19 -35 50 -40 42 -5 31 -33 -15 -35 -22
-1 -46 -2 -52 -2 -18 -1 -16 -26 2 -41 9 -8 13 -21 9 -32 -4 -14 2 -21 26 -29
49 -18 36 -43 -25 -49 -41 -4 -50 -8 -50 -25 0 -14 10 -22 38 -28 20 -5 37
-13 37 -18 0 -14 -36 -29 -70 -29 -37 0 -37 -21 1 -30 37 -9 37 -39 0 -53 -42
-16 -40 -37 4 -37 42 0 46 -17 6 -31 -22 -8 -33 -21 -44 -55 l-14 -44 26 -7
c14 -4 71 -7 126 -7 l100 -1 0 -78 0 -79 -122 -1 c-81 -1 -126 -6 -134 -14 -7
-7 -11 -14 -8 -17 2 -2 139 -9 304 -15 165 -6 395 -15 510 -21 351 -16 1103
-30 1605 -30 261 0 480 0 485 0 6 0 1 7 -9 15 -11 8 -39 15 -63 15 -30 0 -45
5 -51 18 -11 21 10 299 24 327 6 11 19 51 29 88 16 62 19 67 33 53 14 -14 14
-22 4 -61 -21 -80 -11 -110 22 -64 15 22 13 107 -4 159 -4 14 -13 44 -20 68
-10 32 -26 52 -67 84 -49 37 -62 42 -126 48 -45 4 -87 14 -112 28 -22 12 -53
22 -69 22 -16 0 -53 14 -83 30 -63 36 -115 39 -188 11 -49 -18 -51 -21 -102
-122 -29 -57 -53 -112 -53 -121 0 -11 -14 -23 -35 -32 -41 -18 -75 -68 -75
-113 0 -37 -14 -43 -30 -13 -6 11 -17 20 -26 20 -19 0 -9 -47 17 -76 11 -11
19 -32 19 -46 0 -15 3 -28 8 -30 4 -1 21 -43 37 -93 28 -82 34 -91 63 -100 18
-5 35 -17 38 -28 4 -13 13 -17 32 -15 24 3 27 7 24 36 -2 27 5 41 33 69 64 64
82 24 40 -87 -21 -55 -28 -60 -85 -53 -25 3 -147 7 -272 10 l-228 4 -6 25 c-4
14 -4 50 0 82 3 31 10 89 14 127 5 40 17 87 30 110 12 22 22 57 22 77 0 22 5
38 11 38 8 0 10 -16 5 -52 -21 -152 -20 -144 -3 -130 28 24 37 72 28 157 -9
87 -23 125 -46 125 -8 0 -32 15 -52 34 -21 18 -67 43 -103 56 -67 23 -101 43
-158 92 -18 15 -43 28 -57 28 -13 0 -37 11 -53 25 -29 24 -34 25 -143 21 -124
-4 -145 -9 -154 -35 -7 -24 -63 -54 -91 -48 -18 3 -31 -4 -53 -28 -16 -18 -31
-39 -34 -47 -4 -10 -8 -9 -19 5 -13 17 -14 17 -36 -3 -34 -32 -26 -109 14
-132 7 -5 15 -42 19 -94 6 -71 14 -99 46 -163 30 -62 45 -80 74 -94 l36 -17
16 40 c9 22 19 40 22 40 14 0 81 -70 81 -85 0 -9 9 -24 21 -34 23 -19 20 -51
-9 -87 l-17 -22 -326 13 c-179 6 -331 15 -337 19 -7 4 -12 33 -12 71 0 93 9
96 142 49 36 -13 68 -10 68 6 0 4 -9 15 -21 26 l-21 19 28 11 c20 8 35 9 51 1
32 -15 47 1 34 36 -6 15 -15 27 -21 27 -7 0 -9 8 -5 21 7 21 -10 67 -30 81 -5
4 -25 8 -42 8 -18 0 -33 4 -33 10 0 12 56 43 90 50 17 3 25 12 25 25 0 17 -8
21 -65 25 -62 5 -65 6 -68 33 -4 29 31 76 56 77 29 0 8 21 -33 32 -27 7 -52
22 -60 35 -15 22 -15 23 20 23 36 0 43 8 24 27 -8 8 -6 18 6 36 17 27 12 53
-8 40 -18 -12 -101 -11 -109 1 -9 14 20 46 42 46 9 0 22 12 29 26 11 26 11 26
-24 22 -40 -5 -42 0 -15 35 11 14 20 32 20 40 0 8 10 17 22 20 18 5 19 8 8 22
-10 12 -23 15 -42 11 -33 -7 -45 11 -29 43 12 21 6 41 -27 95 -20 34 -40 44
-47 24z m2386 -940 c35 -131 2 -306 -52 -272 -15 9 -10 42 17 120 18 52 22 79
15 91 -8 16 -15 72 -12 96 3 22 22 1 32 -35z m-1148 -60 c4 -46 7 -107 7 -135
l0 -53 -81 0 c-79 0 -80 0 -74 23 13 42 54 124 70 137 8 7 15 28 15 50 0 34
19 56 51 59 3 1 9 -36 12 -81z m967 47 c12 -14 15 -14 31 1 11 10 20 15 22 13
1 -2 15 -30 31 -62 l29 -57 -27 -59 c-14 -32 -26 -64 -26 -70 0 -16 -36 -28
-70 -23 -24 3 -28 9 -34 49 -4 29 -2 51 5 60 8 8 10 39 7 83 -3 38 -3 72 0 75
9 9 19 6 32 -10z m-1180 -10 c0 -12 4 -13 25 -3 33 15 39 6 36 -44 -2 -46 -29
-104 -60 -132 -12 -11 -21 -25 -21 -32 0 -19 -27 -23 -105 -16 -79 8 -94 25
-53 62 69 63 72 68 102 143 13 31 20 37 45 37 21 0 31 -5 31 -15z m1021 -127
c43 -36 49 -46 49 -80 l0 -38 -50 -2 c-27 -1 -58 -2 -67 -2 -19 -1 -20 16 -8
99 8 49 13 65 20 65 4 0 29 -19 56 -42z"/>
</g>
</svg>
