<?xml version="1.0" standalone="no"?>
<!DOCTYPE svg PUBLIC "-//W3C//DTD SVG 20010904//EN"
 "http://www.w3.org/TR/2001/REC-SVG-20010904/DTD/svg10.dtd">
<svg version="1.0" xmlns="http://www.w3.org/2000/svg"
 width="470.000000pt" height="353.000000pt" viewBox="0 0 470.000000 353.000000"
 preserveAspectRatio="xMidYMid meet">
<metadata>
Created by potrace 1.16, written by Peter Selinger 2001-2019
</metadata>
<g transform="translate(0.000000,353.000000) scale(0.100000,-0.100000)"
fill="#000000" stroke="none">
<path d="M1240 2040 c0 -5 -7 -10 -16 -10 -14 0 -16 -8 -10 -46 4 -33 3 -45
-6 -42 -22 8 -49 -30 -42 -58 5 -20 2 -26 -16 -31 -22 -6 -22 -14 -4 -57 6
-16 4 -18 -15 -13 -22 6 -71 -10 -71 -23 0 -14 26 -30 51 -30 32 0 58 -25 35
-33 -8 -3 -39 -3 -70 0 -55 6 -56 5 -56 -21 0 -17 5 -26 16 -26 8 0 27 -13 42
-29 15 -16 38 -31 52 -33 25 -3 25 -4 4 -15 -14 -8 -32 -9 -52 -4 -77 22 -141
-31 -69 -57 18 -7 43 -12 55 -12 13 0 22 -6 22 -16 0 -12 -9 -15 -42 -14 -83
5 -106 -5 -89 -39 7 -11 18 -21 26 -21 20 0 29 -19 16 -34 -13 -16 2 -32 34
-38 11 -2 20 -10 20 -18 0 -11 -14 -16 -54 -17 -61 -3 -56 -1 -65 -30 -6 -18
-1 -25 23 -37 17 -9 39 -16 51 -16 11 0 20 -4 20 -10 0 -5 -9 -10 -20 -10 -11
0 -36 -7 -55 -14 -44 -19 -38 -46 9 -46 18 0 35 -3 39 -6 12 -12 -6 -34 -29
-34 -25 0 -52 -36 -37 -50 4 -5 22 -10 38 -12 l30 -4 -28 -14 c-16 -8 -30 -24
-33 -39 -3 -14 -10 -34 -15 -45 -24 -42 10 -48 233 -43 37 0 71 -2 75 -7 4 -4
8 -35 8 -69 l0 -62 -166 0 c-197 0 -209 -5 -209 -85 0 -77 14 -84 191 -90 180
-6 191 -12 195 -107 1 -32 3 -61 3 -65 2 -13 166 -9 179 4 7 7 12 39 12 75 0
105 -102 96 1045 87 979 -7 996 -7 1022 -27 23 -19 25 -25 20 -77 -3 -32 -2
-63 2 -69 5 -8 35 -11 92 -9 l84 3 6 50 c9 72 17 93 42 108 14 7 79 14 169 17
168 6 177 10 185 83 4 36 1 49 -16 66 -20 20 -31 21 -186 21 l-165 0 0 54 c0
31 5 58 13 64 17 14 118 21 146 10 20 -7 28 -4 45 16 30 34 54 44 96 39 45 -6
59 16 35 54 -9 13 -14 32 -10 42 3 9 -2 32 -10 49 -13 24 -25 33 -53 37 -73
12 -87 33 -33 51 31 10 73 62 54 66 -4 0 -12 2 -18 3 -5 2 -23 3 -40 4 -45 2
-56 13 -49 49 4 18 12 32 20 32 7 0 17 6 21 13 4 6 17 17 27 23 36 19 28 32
-25 39 -78 11 -113 55 -44 55 41 0 59 25 32 45 -22 16 -21 22 2 28 25 6 48 47
27 47 -7 0 -17 7 -20 17 -6 14 -9 14 -27 -6 -15 -16 -24 -19 -38 -11 -13 6
-29 6 -51 -1 -17 -6 -34 -9 -37 -6 -12 13 8 38 36 43 29 6 81 54 81 75 0 6
-17 9 -42 8 -44 -3 -54 12 -23 35 7 6 15 20 17 31 2 11 12 21 23 23 12 2 26
12 33 22 10 17 10 20 -6 20 -10 0 -23 5 -30 12 -9 9 -18 9 -36 0 -35 -16 -42
1 -18 43 17 28 18 34 6 39 -11 4 -13 13 -9 27 6 19 4 21 -14 16 -20 -5 -21 -2
-15 29 5 30 4 34 -14 34 -12 0 -25 8 -31 18 -9 16 -10 16 -16 0 -4 -10 -13
-18 -20 -18 -16 0 -27 -42 -15 -54 16 -16 12 -26 -9 -26 -10 0 -21 -7 -25 -15
-3 -8 -13 -15 -22 -15 -13 0 -14 -3 -4 -15 15 -18 6 -45 -14 -45 -22 0 -28
-17 -15 -41 9 -17 8 -23 -2 -30 -7 -4 -19 -3 -25 2 -9 7 -21 5 -39 -7 -20 -13
-23 -19 -14 -30 6 -8 23 -14 38 -14 34 0 56 -14 46 -30 -5 -9 -26 -10 -71 -5
l-64 7 0 -26 c0 -19 7 -29 24 -36 14 -5 30 -18 36 -30 6 -11 20 -20 31 -20 12
0 19 -5 16 -12 -3 -9 -25 -12 -79 -10 -75 4 -75 4 -80 -22 -5 -23 0 -29 29
-41 44 -19 36 -31 -27 -39 -27 -4 -50 -11 -50 -16 0 -22 14 -40 31 -40 15 0
19 -6 17 -32 -3 -28 1 -32 30 -40 62 -17 33 -38 -53 -38 -49 0 -53 -2 -59 -26
-4 -15 -6 -27 -4 -28 19 -11 63 -26 78 -26 11 0 20 -4 20 -10 0 -5 -11 -10
-24 -10 -35 0 -98 -29 -93 -43 2 -7 19 -14 38 -17 38 -6 48 -33 13 -38 -28 -4
-58 -37 -49 -52 4 -7 18 -10 31 -7 31 6 41 -9 11 -17 -13 -3 -27 -19 -35 -38
-7 -18 -18 -41 -23 -52 -20 -36 27 -50 151 -44 25 1 70 2 100 2 l55 1 3 -56
c2 -41 -1 -59 -12 -69 -12 -9 -90 -13 -322 -14 l-306 -1 7 30 c3 17 10 64 14
105 5 41 12 87 16 102 4 15 2 49 -5 75 -11 44 -10 56 18 143 45 139 48 163 26
227 -10 30 -27 59 -37 64 -9 6 -41 31 -69 56 l-52 46 -165 -7 c-150 -6 -173
-5 -236 14 -85 24 -139 25 -229 3 -58 -14 -76 -14 -115 -4 -72 19 -78 31 -37
74 19 20 43 37 54 37 11 0 59 7 107 15 l87 15 39 -35 c38 -34 69 -45 69 -25 0
5 -9 14 -20 20 -20 11 -28 50 -11 50 22 0 65 -22 99 -50 20 -17 45 -30 55 -30
16 0 14 5 -12 36 -17 19 -29 39 -26 44 3 6 27 16 52 23 26 8 49 20 51 27 4 10
-14 11 -79 6 -81 -5 -83 -5 -51 9 45 21 36 41 -17 37 -22 -2 -41 -1 -41 3 0 3
19 26 41 50 23 25 39 48 36 52 -10 10 -59 -26 -113 -83 -30 -32 -59 -54 -72
-54 -37 0 -37 22 1 54 21 17 37 39 37 49 0 23 -13 22 -35 -3 -10 -11 -24 -20
-30 -20 -7 0 -24 -9 -39 -21 -26 -21 -49 -19 -40 4 2 7 19 21 38 31 33 18 112
113 102 123 -3 3 -27 -14 -53 -37 -26 -24 -68 -52 -93 -63 -25 -10 -55 -28
-67 -39 -21 -20 -53 -19 -53 0 0 5 11 26 25 46 14 20 25 41 25 46 0 37 -66
-34 -75 -80 -10 -46 -14 -53 -29 -41 -11 10 -8 83 5 116 2 6 -1 12 -6 15 -17
8 -37 -49 -43 -117 -3 -45 -10 -67 -20 -71 -19 -7 -48 28 -63 77 -10 33 -8 43
11 80 12 24 19 45 16 49 -10 10 -46 -31 -54 -62 -4 -16 -14 -32 -21 -34 -11
-4 -13 9 -8 64 l5 69 -19 -24 c-31 -38 -28 -116 7 -185 21 -39 23 -50 12 -57
-7 -5 -20 -7 -28 -4 -8 2 -28 7 -45 11 -16 3 -49 12 -73 20 -23 8 -52 14 -64
14 -17 0 -20 -4 -15 -29 4 -20 2 -31 -8 -35 -26 -10 -16 -36 34 -87 30 -30 60
-75 77 -114 16 -36 34 -65 41 -65 7 0 21 -17 32 -39 11 -21 28 -41 39 -43 11
-3 23 -22 30 -47 7 -23 22 -57 33 -76 18 -29 27 -35 57 -36 21 -1 43 -1 50 0
37 5 92 -26 150 -85 l62 -64 0 -123 c0 -94 -4 -129 -16 -152 -9 -16 -23 -42
-31 -58 l-15 -27 -426 2 -427 3 -3 55 c-4 72 5 78 108 72 77 -4 82 -3 87 17 6
23 41 36 75 28 24 -7 58 8 58 24 0 6 -9 23 -21 37 -12 16 -18 34 -15 48 4 13
0 27 -9 34 -8 7 -15 19 -15 26 0 18 -41 34 -86 34 -19 0 -34 5 -34 10 0 6 11
10 24 10 13 0 29 7 36 15 7 8 23 15 36 15 30 0 69 39 54 54 -6 6 -43 12 -83
12 -40 1 -78 2 -84 3 -7 1 -13 13 -13 28 0 18 13 37 42 64 24 21 39 41 36 45
-4 3 -27 9 -52 11 -30 4 -52 13 -67 29 l-22 24 35 0 c41 0 71 26 47 41 -8 5
-18 11 -24 13 -5 3 1 13 15 24 22 19 23 22 10 46 -15 29 -23 32 -38 14 -13
-16 -124 -17 -129 -2 -2 6 13 18 34 27 22 9 46 28 56 46 18 31 18 31 -5 33
-13 0 -33 0 -44 -1 -17 -1 -22 4 -21 21 0 13 -3 31 -8 41 -6 13 -1 20 24 28
49 17 36 49 -20 49 -21 0 -24 16 -9 56 9 22 8 29 -5 37 -11 5 -14 15 -9 29 5
18 3 20 -15 15 -18 -4 -21 -1 -21 29 0 27 -4 34 -20 34 -11 0 -20 5 -20 10 0
6 -4 10 -10 10 -5 0 -10 -4 -10 -10z m1035 -245 c0 -5 -31 -11 -70 -13 -45 -2
-66 0 -60 7 22 21 130 26 130 6z m410 -658 l59 -2 12 -41 c7 -23 28 -62 48
-88 45 -60 48 -112 10 -197 l-27 -59 -170 0 -170 0 7 41 c6 40 -2 102 -30 226
-28 123 -16 136 121 127 44 -3 107 -6 140 -7z m267 -181 c6 -126 -13 -199 -55
-212 -29 -9 -44 12 -28 39 14 22 36 110 48 196 5 40 7 42 19 26 8 -11 15 -33
16 -49z m-564 -61 c15 -32 15 -73 1 -114 -10 -28 -15 -31 -50 -31 -21 0 -39 2
-39 5 0 3 8 22 19 43 10 20 22 53 26 72 12 59 25 66 43 25z"/>
</g>
</svg>
