<?xml version="1.0" standalone="no"?>
<!DOCTYPE svg PUBLIC "-//W3C//DTD SVG 20010904//EN"
 "http://www.w3.org/TR/2001/REC-SVG-20010904/DTD/svg10.dtd">
<svg version="1.0" xmlns="http://www.w3.org/2000/svg"
 width="400.000000pt" height="300.000000pt" viewBox="0 0 400.000000 300.000000"
 preserveAspectRatio="xMidYMid meet">
<metadata>
Created by potrace 1.16, written by Peter Selinger 2001-2019
</metadata>
<g transform="translate(0.000000,300.000000) scale(0.100000,-0.100000)"
fill="#000000" stroke="none">
<path d="M1249 2678 c-36 -65 -34 -156 7 -234 17 -33 29 -65 26 -72 -5 -16
-34 -15 -91 2 -129 40 -196 54 -208 44 -21 -17 -15 -46 12 -64 14 -9 25 -23
25 -30 0 -18 -10 -17 -34 1 -29 22 -36 19 -36 -14 0 -20 8 -34 25 -45 14 -9
25 -22 25 -30 0 -7 9 -21 21 -32 22 -20 59 -93 59 -118 0 -8 5 -18 10 -21 6
-3 10 -19 10 -34 0 -34 28 -61 63 -61 30 0 32 -3 17 -30 -7 -13 -7 -26 -1 -37
5 -10 12 -26 15 -37 5 -14 13 -17 35 -13 28 6 28 5 34 -49 3 -30 13 -68 21
-86 9 -17 16 -37 16 -45 0 -8 11 -25 25 -39 20 -20 29 -23 44 -14 14 7 22 7
27 -1 4 -7 21 -9 47 -5 54 9 142 -33 166 -78 9 -17 35 -49 58 -72 23 -22 47
-54 53 -70 13 -33 13 -192 1 -345 -8 -96 -12 -110 -40 -149 -43 -59 -41 -72
10 -68 25 2 45 9 49 18 4 8 15 31 24 51 10 20 26 73 36 119 10 45 23 87 28 92
6 6 18 -17 32 -64 22 -72 24 -157 5 -201 -6 -14 -2 -17 28 -17 19 0 40 6 46
14 20 24 24 127 7 199 -9 38 -16 87 -16 111 0 24 -7 65 -15 92 -8 27 -18 76
-21 109 l-6 61 38 13 c22 7 77 15 124 18 71 4 93 2 131 -15 36 -16 60 -19 112
-15 l65 6 12 -44 c24 -88 30 -100 77 -166 l48 -68 0 -100 c-1 -90 -4 -106 -29
-158 -31 -63 -27 -84 17 -73 29 7 71 95 81 166 6 48 10 67 27 146 6 28 10 69
7 92 -2 24 1 41 6 39 22 -7 48 -115 53 -229 5 -108 4 -119 -16 -154 -12 -20
-20 -43 -17 -50 6 -15 53 -19 73 -6 28 17 45 98 49 232 7 181 6 212 -1 300 -6
66 -4 86 19 152 28 84 46 179 46 246 0 60 -34 153 -66 177 -14 11 -55 47 -90
79 -57 53 -70 60 -120 67 -36 5 -97 2 -168 -7 -127 -17 -243 -10 -296 16 -19
10 -71 25 -115 34 -76 15 -83 15 -147 -3 -113 -33 -165 -35 -237 -12 -97 32
-117 58 -62 81 16 6 37 27 47 46 17 32 22 34 69 34 27 0 87 9 133 20 109 26
130 26 141 -2 13 -33 48 -67 77 -74 41 -11 40 4 -4 42 -50 42 -54 64 -13 64
47 0 82 -18 138 -71 30 -29 61 -49 74 -49 l23 0 -26 28 c-39 42 -62 82 -52 91
15 14 75 31 109 31 38 0 49 8 34 27 -14 16 -61 17 -147 2 -46 -8 -67 -8 -75 0
-15 15 -6 21 49 35 62 16 70 36 14 36 -27 0 -51 -7 -67 -20 -28 -22 -53 -26
-53 -9 0 6 35 47 77 90 42 43 74 82 70 85 -12 12 -102 -62 -152 -124 -46 -58
-52 -62 -90 -62 -47 1 -78 21 -73 47 2 10 25 29 52 43 28 14 52 31 54 39 4 11
0 12 -14 6 -11 -4 -37 -14 -58 -22 -22 -8 -50 -25 -62 -39 -27 -28 -54 -23
-54 11 0 17 14 30 58 53 38 21 71 49 101 87 24 31 41 59 38 62 -3 3 -32 -16
-64 -42 -32 -27 -83 -59 -113 -73 -30 -14 -76 -40 -101 -58 -50 -36 -79 -43
-79 -20 0 27 21 69 51 103 41 47 26 63 -19 21 -49 -44 -49 -44 -69 -110 -9
-32 -23 -58 -30 -58 -21 0 -15 30 21 105 19 39 32 74 29 78 -7 12 -41 -21 -49
-47 -3 -11 -12 -28 -19 -36 -7 -8 -22 -44 -32 -80 -17 -57 -22 -65 -45 -68
-39 -5 -58 32 -65 122 -5 71 -4 78 21 111 31 40 13 50 -22 13 -27 -29 -42 -70
-42 -114 0 -42 -13 -44 -30 -4 -15 36 -9 105 14 150 19 40 19 40 3 40 -7 0
-24 -19 -38 -42z m498 -294 c9 -24 -10 -35 -75 -41 -72 -7 -132 3 -132 21 0
19 56 34 133 35 53 1 69 -2 74 -15z m73 -14 c11 -7 12 -12 3 -21 -16 -16 -44
-4 -37 16 7 17 13 18 34 5z m-341 -93 c12 -15 5 -27 -15 -27 -25 0 -65 20 -59
30 9 15 61 12 74 -3z"/>
</g>
</svg>
