<?xml version="1.0" standalone="no"?>
<!DOCTYPE svg PUBLIC "-//W3C//DTD SVG 20010904//EN"
 "http://www.w3.org/TR/2001/REC-SVG-20010904/DTD/svg10.dtd">
<svg version="1.0" xmlns="http://www.w3.org/2000/svg"
 width="253.000000pt" height="205.000000pt" viewBox="0 0 253.000000 205.000000"
 preserveAspectRatio="xMidYMid meet">
<metadata>
Created by potrace 1.16, written by Peter Selinger 2001-2019
</metadata>
<g transform="translate(0.000000,205.000000) scale(0.100000,-0.100000)"
fill="#000000" stroke="none">
<path d="M386 2003 c-4 -5 -18 -8 -29 -8 -17 0 -23 -7 -25 -30 -5 -45 -19 -56
-58 -49 -54 10 -44 -21 16 -51 28 -14 50 -32 50 -40 0 -8 -19 -24 -42 -36 -88
-44 -110 -80 -98 -157 5 -29 17 -65 28 -80 10 -15 22 -48 25 -73 4 -26 16 -63
28 -83 26 -44 22 -105 -9 -139 -68 -77 -86 -151 -99 -402 -3 -71 -11 -131 -19
-147 -8 -15 -14 -37 -14 -50 -1 -13 -7 -41 -15 -63 -12 -35 -12 -43 1 -62 19
-29 60 -30 91 -1 13 12 26 19 29 15 4 -3 1 -78 -5 -167 -6 -89 -9 -165 -6
-171 7 -10 45 -12 69 -3 13 5 16 25 16 111 0 75 4 112 16 134 8 17 14 46 12
64 -1 19 1 37 5 41 13 13 47 -29 67 -85 12 -31 30 -69 42 -85 27 -37 35 -138
18 -221 -7 -33 -13 -73 -14 -90 -1 -28 1 -30 40 -33 l41 -3 7 88 c3 48 8 123
10 165 3 57 9 86 26 113 15 24 24 59 28 101 4 51 9 68 26 80 19 13 22 12 39
-8 42 -53 50 -72 57 -141 5 -40 15 -89 23 -108 9 -19 21 -67 28 -107 14 -81
26 -99 55 -78 18 14 18 15 0 70 -27 80 -19 217 15 245 l24 19 27 -31 c15 -18
30 -48 34 -67 4 -19 19 -60 34 -90 17 -34 30 -81 35 -124 9 -86 12 -96 35 -96
29 0 31 13 15 97 -21 109 -20 113 14 113 38 0 44 25 26 102 -7 32 -10 60 -7
62 14 8 58 10 70 3 18 -12 16 -232 -3 -287 -11 -30 -12 -47 -5 -61 13 -24 47
-25 54 -1 23 76 43 239 63 530 2 39 8 72 12 72 4 0 16 -9 26 -20 10 -11 27
-20 38 -20 11 0 38 -18 59 -41 25 -26 47 -41 61 -40 12 1 60 4 106 6 72 4 90
9 129 35 25 17 49 30 52 30 18 0 28 -30 32 -95 3 -55 10 -79 30 -110 15 -22
30 -58 33 -80 4 -22 13 -50 21 -62 8 -12 14 -33 14 -47 0 -46 18 -76 44 -76
14 0 28 5 32 11 3 6 20 9 38 6 62 -9 82 24 50 85 -13 24 -15 47 -11 95 6 56
29 123 43 123 3 0 4 -34 3 -75 -3 -104 26 -147 74 -111 10 8 27 12 38 9 10 -3
26 0 34 7 27 22 28 3 5 -62 -17 -50 -20 -69 -11 -90 9 -24 16 -28 50 -28 22 0
42 4 45 9 3 4 8 100 10 212 4 137 10 223 21 262 8 32 17 90 20 130 2 40 9 88
15 107 27 92 -1 228 -59 286 -26 26 -29 34 -24 75 7 63 -12 82 -75 73 -44 -7
-45 -6 -38 19 3 14 2 37 -4 51 -14 38 -53 34 -103 -11 -42 -37 -60 -33 -34 9
15 23 8 68 -10 68 -4 0 -8 21 -8 48 0 33 -7 57 -23 80 -25 34 -44 34 -41 -1 1
-12 -2 -46 -6 -75 -12 -81 -30 -60 -32 38 -1 46 -5 90 -7 97 -9 22 -26 15 -37
-15 -6 -19 -21 -32 -44 -40 -31 -12 -35 -11 -59 13 -14 14 -30 25 -35 25 -19
0 -23 -22 -6 -40 15 -17 16 -26 6 -77 -7 -32 -11 -101 -11 -154 l1 -96 -63
-40 c-69 -43 -75 -53 -109 -161 -30 -101 -43 -115 -97 -106 -51 8 -53 23 -7
58 42 32 55 84 31 120 -12 20 -30 27 -91 37 -51 8 -75 16 -75 25 0 28 -39 54
-80 54 -33 0 -42 4 -52 24 -13 30 -36 40 -53 26 -7 -6 -19 -9 -26 -8 -9 2 -15
-9 -17 -30 -4 -37 -25 -51 -53 -33 -16 9 -19 8 -19 -7 0 -10 7 -28 16 -40 21
-30 10 -76 -24 -103 -23 -18 -34 -20 -82 -14 -30 4 -78 7 -106 6 l-51 -2 -16
43 c-10 24 -17 58 -17 75 0 20 -7 37 -20 46 -10 7 -37 36 -60 64 -33 41 -40
59 -40 94 -1 24 -5 63 -9 86 -10 51 -1 66 50 82 66 21 71 75 12 147 -18 23
-33 46 -33 51 0 11 -32 22 -65 23 -11 0 -29 7 -40 15 -18 15 -18 16 -2 44 37
63 7 149 -49 138 -16 -3 -31 4 -50 24 -28 29 -44 35 -58 22z m904 -888 c0 -16
-27 -32 -37 -21 -7 7 16 36 28 36 5 0 9 -7 9 -15z m-152 -52 c2 -24 -1 -43 -5
-43 -9 0 -27 -13 -83 -57 -25 -21 -29 -21 -41 -7 -11 14 -10 18 6 30 10 8 22
14 26 14 13 0 51 70 46 84 -7 19 3 27 28 24 16 -2 21 -12 23 -45z m626 23 c3
-13 -1 -50 -10 -82 -10 -37 -14 -89 -12 -138 l3 -80 -53 -19 c-30 -10 -56 -16
-60 -12 -4 3 6 29 22 56 21 38 30 70 36 137 6 61 15 99 30 125 26 43 36 46 44
13z m483 -354 c9 -6 12 -50 10 -167 l-3 -160 -49 3 c-28 2 -51 5 -53 6 -1 2 5
19 13 39 18 44 19 91 3 150 -10 39 -9 49 11 90 22 46 41 56 68 39z m-167 -135
c0 -12 -6 -17 -17 -15 -20 4 -28 30 -18 56 6 16 8 15 21 -2 8 -11 14 -28 14
-39z m-112 -9 c35 -45 41 -85 18 -121 -22 -35 -27 -82 -11 -103 15 -20 20 -56
9 -67 -11 -11 -42 12 -53 40 -7 16 -18 39 -26 53 -28 48 -13 240 18 240 7 0
27 -19 45 -42z m-915 -222 c3 -8 0 -22 -8 -33 -13 -17 -14 -17 -20 0 -8 20 0
47 14 47 5 0 11 -6 14 -14z"/>
</g>
</svg>
