<?xml version="1.0" standalone="no"?>
<!DOCTYPE svg PUBLIC "-//W3C//DTD SVG 20010904//EN"
 "http://www.w3.org/TR/2001/REC-SVG-20010904/DTD/svg10.dtd">
<svg version="1.0" xmlns="http://www.w3.org/2000/svg"
 width="168.000000pt" height="183.000000pt" viewBox="0 0 168.000000 183.000000"
 preserveAspectRatio="xMidYMid meet">
<metadata>
Created by potrace 1.16, written by Peter Selinger 2001-2019
</metadata>
<g transform="translate(0.000000,183.000000) scale(0.100000,-0.100000)"
fill="#000000" stroke="none">
<path d="M1451 1702 c-12 -23 -21 -57 -21 -76 0 -19 -5 -38 -10 -41 -6 -4 -73
-8 -150 -10 -89 -3 -151 -9 -173 -18 -47 -20 -101 -70 -132 -123 -41 -70 -147
-204 -160 -204 -21 0 -25 43 -15 126 12 94 27 119 88 145 82 35 152 121 137
168 -3 12 -15 21 -26 21 -14 0 -19 -7 -19 -30 0 -24 -7 -33 -37 -50 -21 -11
-45 -25 -54 -31 -17 -13 -169 -3 -169 11 0 4 7 13 15 20 8 7 15 18 15 25 0 16
-33 45 -52 45 -9 0 -29 7 -45 16 -27 16 -31 16 -66 -1 -25 -11 -39 -26 -44
-44 -3 -14 -12 -35 -19 -46 -30 -42 -7 -89 37 -78 23 6 49 -13 49 -35 0 -8 -8
-24 -17 -34 -15 -17 -18 -45 -19 -196 -3 -221 -7 -243 -56 -257 -49 -14 -57
-22 -73 -86 -11 -43 -23 -62 -62 -96 -26 -23 -51 -39 -55 -37 -5 3 -8 18 -8
34 0 36 -19 80 -35 80 -8 0 -14 -21 -17 -56 -9 -109 -86 -116 -102 -9 -7 44
-19 58 -29 32 -2 -7 -1 -37 4 -66 7 -44 5 -60 -10 -90 -13 -24 -21 -71 -26
-137 -9 -124 -4 -130 87 -120 34 4 79 16 99 27 48 24 70 24 110 0 24 -14 38
-17 55 -10 18 6 35 3 71 -17 26 -14 51 -30 54 -37 4 -7 6 -52 5 -102 -2 -72
-7 -100 -26 -138 -27 -53 -19 -74 23 -63 23 5 40 35 66 111 8 26 10 23 10 -33
1 -63 1 -63 29 -60 26 3 27 6 35 73 4 39 10 100 13 138 6 66 7 68 42 86 20 11
76 59 123 108 65 66 97 108 127 170 28 55 51 87 72 99 16 10 32 25 34 34 15
56 36 151 41 182 7 44 50 74 92 64 19 -5 31 1 60 34 20 22 40 40 44 40 4 0 9
-23 11 -52 3 -48 5 -52 33 -60 39 -10 92 0 100 20 3 8 -5 38 -19 66 -17 37
-24 69 -24 113 -1 74 -11 96 -52 113 -24 10 -33 10 -45 0 -20 -16 -28 -7 -43
46 -16 55 -48 94 -77 94 -26 0 -42 17 -29 30 5 5 56 10 114 13 l105 3 33 50
c27 41 32 55 26 84 -11 63 -20 68 -43 22z"/>
</g>
</svg>
