<?xml version="1.0" standalone="no"?>
<!DOCTYPE svg PUBLIC "-//W3C//DTD SVG 20010904//EN"
 "http://www.w3.org/TR/2001/REC-SVG-20010904/DTD/svg10.dtd">
<svg version="1.0" xmlns="http://www.w3.org/2000/svg"
 width="350.000000pt" height="304.000000pt" viewBox="0 0 350.000000 304.000000"
 preserveAspectRatio="xMidYMid meet">
<metadata>
Created by potrace 1.16, written by Peter Selinger 2001-2019
</metadata>
<g transform="translate(0.000000,304.000000) scale(0.100000,-0.100000)"
fill="#000000" stroke="none">
<path d="M2022 2968 c-15 -15 -15 -74 3 -218 7 -63 11 -118 9 -122 -16 -26
-160 32 -224 89 -26 24 -51 43 -54 43 -3 0 -6 -16 -6 -35 0 -42 -13 -44 -60
-10 -42 31 -62 32 -58 3 5 -33 92 -88 139 -88 21 0 62 -9 91 -21 29 -12 73
-27 98 -35 51 -15 114 -63 134 -103 8 -14 24 -66 35 -115 34 -141 87 -231 199
-339 73 -69 177 -122 259 -131 83 -10 113 -24 113 -52 0 -28 -7 -30 -37 -9
-20 14 -23 14 -33 -4 -5 -11 -10 -29 -10 -40 0 -24 -2 -24 -155 -46 -192 -26
-270 -19 -355 36 -114 72 -204 79 -380 29 l-116 -32 -131 20 c-99 15 -141 18
-170 10 -21 -5 -139 -13 -263 -17 -185 -6 -235 -11 -280 -27 -58 -21 -286
-162 -317 -196 -29 -33 -22 -94 16 -128 23 -21 31 -38 31 -62 0 -19 11 -72 25
-119 30 -101 31 -169 5 -226 -24 -53 -97 -128 -173 -177 -69 -43 -77 -60 -111
-218 -13 -62 -45 -173 -70 -246 -50 -145 -71 -282 -46 -297 26 -16 66 49 105
166 84 254 182 385 409 548 124 89 137 90 173 14 27 -60 32 -112 23 -250 -3
-60 -2 -63 41 -118 90 -116 170 -232 194 -281 29 -60 85 -114 120 -114 40 0
31 27 -50 151 -87 132 -105 182 -105 293 0 126 20 380 30 390 5 5 28 -4 57
-23 26 -17 58 -34 71 -38 36 -9 151 4 202 22 36 13 65 15 145 10 55 -4 106
-12 113 -17 22 -18 16 -411 -8 -554 -19 -110 -19 -121 -4 -166 17 -51 41 -71
77 -66 16 2 21 9 18 23 -8 47 0 152 18 223 10 43 22 113 26 157 7 90 32 246
45 279 13 35 60 86 79 86 36 0 57 -37 89 -156 53 -197 80 -325 88 -409 7 -79
33 -175 55 -201 15 -18 78 -18 85 0 3 8 -3 31 -14 53 -39 79 -51 152 -54 323
-3 204 18 372 52 422 34 49 82 98 96 98 7 0 29 -9 48 -21 64 -37 170 -5 270
83 162 142 187 159 240 165 73 8 82 12 104 51 11 21 30 46 42 57 19 18 22 18
56 2 57 -28 93 -22 143 24 33 29 44 47 44 69 0 38 -25 75 -71 104 -33 21 -87
75 -204 205 -42 46 -50 88 -20 113 9 9 42 23 72 33 160 52 242 125 279 249 24
82 24 109 1 114 -10 2 -25 -18 -44 -55 -56 -115 -127 -178 -234 -209 -72 -21
-84 -9 -44 43 42 54 60 114 65 219 4 89 4 92 -20 103 -13 6 -25 11 -27 11 -2
0 -9 -20 -15 -44 -6 -24 -29 -67 -51 -95 -44 -55 -76 -66 -84 -28 -23 109 -13
194 34 287 78 156 124 316 101 350 -17 25 -33 -2 -100 -161 -34 -80 -68 -155
-76 -165 -13 -18 -15 -18 -38 6 -37 39 -76 139 -102 261 -22 105 -37 141 -51
126 -4 -3 -1 -40 5 -82 6 -42 11 -100 11 -130 0 -50 -2 -55 -22 -55 -26 0
-102 42 -141 79 -16 14 -40 47 -53 74 -27 52 -50 64 -40 20 4 -16 9 -45 13
-65 5 -35 4 -38 -19 -38 -14 0 -44 14 -68 31 -36 26 -41 34 -36 57 4 15 10 49
13 75 5 46 5 49 -17 45 -25 -3 -54 -72 -85 -201 -27 -112 -34 -120 -67 -76
-29 38 -47 128 -55 262 -6 117 -17 149 -41 125z m295 -362 c26 -13 71 -26 98
-29 29 -3 90 -25 146 -51 170 -81 186 -102 199 -256 13 -148 0 -232 -43 -277
-24 -26 -39 -33 -67 -33 -81 0 -256 78 -267 119 -3 13 4 55 17 96 17 55 21 85
16 121 -13 96 -44 81 -71 -33 -23 -103 -35 -115 -67 -71 -43 57 -58 111 -58
207 0 74 11 171 26 219 5 17 16 15 71 -12z m673 -475 c0 -5 -7 -14 -15 -21
-12 -10 -15 -10 -15 2 0 8 3 18 7 21 9 10 23 9 23 -2z m-47 -93 c-3 -20 -15
-47 -26 -60 l-22 -23 -3 23 c-2 12 9 39 25 61 15 22 28 39 29 38 1 -1 -1 -19
-3 -39z m-127 -79 c-3 -17 -6 -42 -6 -55 0 -19 -5 -24 -25 -24 -37 0 -40 23
-9 69 32 49 49 53 40 10z"/>
</g>
</svg>
