<?xml version="1.0" standalone="no"?>
<!DOCTYPE svg PUBLIC "-//W3C//DTD SVG 20010904//EN"
 "http://www.w3.org/TR/2001/REC-SVG-20010904/DTD/svg10.dtd">
<svg version="1.0" xmlns="http://www.w3.org/2000/svg"
 width="361.000000pt" height="216.000000pt" viewBox="0 0 361.000000 216.000000"
 preserveAspectRatio="xMidYMid meet">
<metadata>
Created by potrace 1.16, written by Peter Selinger 2001-2019
</metadata>
<g transform="translate(0.000000,216.000000) scale(0.100000,-0.100000)"
fill="#000000" stroke="none">
<path d="M2940 2054 c-6 -14 -10 -30 -10 -36 0 -6 -9 -8 -22 -4 -179 51 -230
52 -368 2 -92 -33 -121 -39 -235 -46 -73 -4 -165 -16 -210 -28 -44 -11 -132
-28 -195 -37 -63 -9 -162 -25 -218 -36 -90 -17 -148 -20 -430 -20 -343 -1
-456 8 -582 43 -83 23 -208 27 -264 8 -45 -14 -112 -87 -125 -136 -6 -22 -11
-135 -12 -254 0 -118 -4 -255 -9 -305 -5 -49 -14 -144 -19 -210 -6 -67 -15
-141 -20 -165 -16 -66 -45 -438 -44 -560 1 -183 14 -215 85 -208 l32 3 0 140
c1 164 5 174 113 336 94 141 151 238 178 306 36 88 59 80 34 -10 -8 -28 -7
-47 1 -70 7 -18 16 -70 20 -117 6 -68 14 -99 39 -145 38 -71 105 -178 143
-226 14 -19 30 -47 33 -64 4 -16 18 -54 31 -83 24 -51 25 -52 69 -52 24 0 46
4 50 9 10 18 -16 105 -61 199 -55 115 -67 170 -60 269 3 43 9 142 12 221 4
107 9 145 19 149 8 2 35 -9 60 -27 53 -37 135 -74 185 -85 52 -11 92 -34 118
-66 28 -34 46 -37 65 -8 19 26 96 55 172 63 33 4 141 18 240 32 188 26 218 26
314 -7 30 -11 64 -19 75 -19 41 0 46 -13 52 -126 2 -60 11 -139 19 -177 13
-55 13 -88 5 -182 -16 -171 8 -245 80 -245 21 0 41 3 43 8 3 4 2 61 -3 127 -9
151 1 218 47 306 23 44 38 88 41 121 6 65 15 78 57 78 32 0 115 50 115 70 0 6
34 44 75 86 108 109 164 186 185 252 29 98 65 154 149 235 l81 79 26 -21 c14
-11 42 -23 63 -27 20 -4 48 -13 63 -20 38 -20 85 -17 135 7 39 19 46 20 66 6
23 -15 37 -12 92 21 40 25 56 83 33 120 -46 74 -89 161 -104 206 -36 109 -91
191 -151 222 -19 11 -41 31 -49 46 -20 38 -55 44 -137 23 l-70 -18 -30 36
c-36 45 -73 50 -87 11z"/>
</g>
</svg>
