<?xml version="1.0" standalone="no"?>
<!DOCTYPE svg PUBLIC "-//W3C//DTD SVG 20010904//EN"
 "http://www.w3.org/TR/2001/REC-SVG-20010904/DTD/svg10.dtd">
<svg version="1.0" xmlns="http://www.w3.org/2000/svg"
 width="400.000000pt" height="300.000000pt" viewBox="0 0 400.000000 300.000000"
 preserveAspectRatio="xMidYMid meet">
<metadata>
Created by potrace 1.16, written by Peter Selinger 2001-2019
</metadata>
<g transform="translate(0.000000,300.000000) scale(0.100000,-0.100000)"
fill="#000000" stroke="none">
<path d="M1480 2562 c-158 -105 -278 -182 -282 -182 -3 0 -6 29 -6 65 0 35 -3
69 -7 75 -9 15 -198 13 -213 -2 -8 -8 -12 -57 -12 -155 l0 -143 -27 -17 c-116
-72 -612 -404 -621 -416 -7 -8 -13 -39 -15 -68 l-2 -54 85 -5 c84 -5 85 -5 82
-30 -13 -98 -13 -122 -2 -135 9 -11 8 -19 -4 -37 -19 -26 -21 -77 -5 -112 9
-19 8 -29 -5 -47 -19 -27 -21 -62 -5 -91 9 -16 7 -33 -7 -74 -17 -51 -17 -54
1 -88 17 -32 18 -37 3 -53 -26 -30 -30 -59 -12 -101 14 -38 14 -43 0 -64 -19
-27 -21 -67 -4 -103 10 -21 9 -31 -5 -55 -36 -60 -11 -135 49 -146 80 -15
2868 16 3049 34 l70 7 -2 30 c-2 26 -19 48 -44 57 -10 4 -26 183 -45 528 -8
157 -16 294 -17 305 -2 16 4 20 32 20 33 0 35 3 43 40 17 79 12 87 -72 106
-41 9 -136 31 -210 49 -250 60 -295 71 -410 96 -74 16 -129 34 -157 52 -44 28
-1111 694 -1150 718 -28 18 -42 17 -73 -4z m1318 -891 c42 -10 118 -28 167
-39 50 -12 140 -33 200 -47 61 -14 135 -31 165 -37 l55 -13 6 -99 c4 -54 10
-161 14 -237 l7 -139 -233 0 c-129 0 -310 -3 -404 -7 l-170 -6 -2 54 c-1 30
-2 68 -3 84 -1 17 2 46 5 66 5 25 2 46 -10 69 -12 23 -14 35 -6 43 15 15 14
93 -1 117 -10 16 -10 24 0 40 17 28 15 77 -5 110 -14 24 -14 31 -4 44 19 22
122 21 219 -3z m623 -776 c4 -49 10 -127 14 -172 l8 -83 -75 0 -75 0 -7 123
c-4 67 -9 143 -13 169 -6 54 -1 57 87 55 l55 -2 6 -90z m-455 77 c7 -4 14 -69
18 -169 l7 -162 -44 -6 c-83 -13 -87 -8 -87 103 0 53 -3 127 -6 164 l-7 67 49
4 c27 2 51 4 54 5 3 1 10 -2 16 -6z m217 1 c3 -5 8 -81 12 -171 l7 -163 -64 3
-63 3 -7 160 c-3 88 -4 163 -1 168 2 4 28 7 58 7 30 0 56 -3 58 -7z m-419 -65
c9 -97 11 -263 2 -276 -4 -7 -31 -12 -67 -12 -56 0 -60 2 -69 28 -6 15 -15 35
-21 45 -7 14 -6 30 6 61 15 39 15 46 1 80 -12 30 -13 44 -3 86 l12 50 66 0 67
0 6 -62z"/>
</g>
</svg>
