<?xml version="1.0" standalone="no"?>
<!DOCTYPE svg PUBLIC "-//W3C//DTD SVG 20010904//EN"
 "http://www.w3.org/TR/2001/REC-SVG-20010904/DTD/svg10.dtd">
<svg version="1.0" xmlns="http://www.w3.org/2000/svg"
 width="161.000000pt" height="233.000000pt" viewBox="0 0 161.000000 233.000000"
 preserveAspectRatio="xMidYMid meet">
<metadata>
Created by potrace 1.16, written by Peter Selinger 2001-2019
</metadata>
<g transform="translate(0.000000,233.000000) scale(0.100000,-0.100000)"
fill="#000000" stroke="none">
<path d="M724 2229 c-81 -23 -92 -89 -78 -479 5 -152 4 -167 -14 -196 -18 -28
-26 -31 -87 -37 -55 -5 -77 -3 -111 12 -68 31 -74 47 -85 238 -5 92 -14 180
-20 195 -20 50 -75 72 -138 56 -75 -19 -76 -23 -64 -238 11 -171 14 -195 39
-250 57 -127 152 -177 352 -189 141 -8 141 -8 144 -190 5 -268 6 -338 8 -491
1 -175 22 -348 42 -362 19 -13 298 -4 326 11 23 12 23 13 17 154 -13 284 -11
640 4 674 17 42 50 62 134 84 68 17 149 64 200 115 24 23 24 25 21 217 -2 172
-4 198 -22 233 -31 61 -109 84 -160 48 -21 -15 -22 -21 -22 -176 0 -176 -6
-201 -61 -254 -24 -23 -38 -28 -82 -29 l-52 0 -3 35 c-1 19 -12 80 -24 134
-17 82 -19 114 -12 180 9 93 9 123 -6 305 -6 73 -15 142 -21 153 -20 37 -70
58 -134 57 -33 0 -74 -5 -91 -10z"/>
</g>
</svg>
