<?xml version="1.0" standalone="no"?>
<!DOCTYPE svg PUBLIC "-//W3C//DTD SVG 20010904//EN"
 "http://www.w3.org/TR/2001/REC-SVG-20010904/DTD/svg10.dtd">
<svg version="1.0" xmlns="http://www.w3.org/2000/svg"
 width="460.000000pt" height="194.000000pt" viewBox="0 0 460.000000 194.000000"
 preserveAspectRatio="xMidYMid meet">
<metadata>
Created by potrace 1.16, written by Peter Selinger 2001-2019
</metadata>
<g transform="translate(0.000000,194.000000) scale(0.100000,-0.100000)"
fill="#000000" stroke="none">
<path d="M2819 1900 c-23 -22 -47 -40 -54 -40 -17 0 -45 -33 -45 -53 0 -9 11
-19 25 -23 15 -4 25 -13 25 -24 0 -10 6 -20 14 -23 7 -3 16 -19 19 -36 5 -21
15 -34 33 -41 25 -10 26 -12 20 -68 -4 -31 -9 -90 -12 -129 -4 -55 -9 -73 -20
-73 -8 0 -17 -7 -20 -15 -4 -8 -11 -15 -17 -15 -16 0 -77 -50 -77 -63 0 -7 -4
-18 -9 -26 -8 -13 -12 -13 -27 0 -14 11 -64 14 -264 14 -225 0 -250 -2 -283
-20 -35 -18 -37 -18 -56 -1 -12 11 -26 34 -33 52 -13 38 -37 44 -60 17 -17
-21 -38 -129 -38 -198 0 -31 -7 -56 -20 -75 -13 -19 -23 -53 -27 -95 -3 -36
-10 -65 -14 -65 -5 0 -9 -16 -9 -35 0 -21 5 -35 13 -35 7 0 18 -9 25 -20 7
-11 18 -20 25 -20 6 0 26 -12 42 -28 48 -43 71 -52 129 -52 71 0 172 50 242
120 l51 51 7 -40 c3 -22 17 -53 31 -69 39 -46 33 -103 -21 -218 -13 -28 -24
-65 -24 -81 0 -17 -16 -61 -36 -99 -21 -38 -43 -81 -51 -96 -8 -16 -19 -28
-24 -28 -5 0 -9 -9 -9 -20 0 -18 -7 -20 -58 -20 l-59 0 2 49 c1 31 9 59 23 79
12 16 22 37 22 46 0 18 -20 57 -33 67 -5 4 -3 16 4 27 11 18 10 24 -5 41 -27
29 -54 26 -67 -6 -6 -16 -16 -35 -24 -43 -7 -8 -15 -41 -17 -73 -3 -32 -9 -62
-14 -67 -11 -11 -11 96 0 125 15 38 15 43 -3 59 -11 10 -21 12 -27 6 -7 -7
-21 -5 -42 6 -18 8 -42 14 -54 12 -21 -3 -23 -8 -20 -48 7 -119 7 -152 0 -156
-16 -10 -38 25 -38 59 0 44 -33 77 -58 59 -33 -23 -45 -25 -57 -9 -7 10 -17
17 -22 17 -16 0 -55 -47 -45 -54 6 -4 2 -22 -10 -47 -25 -53 -12 -72 46 -67
l40 3 8 -44 c4 -25 5 -47 3 -49 -3 -3 -22 -4 -42 -3 -59 4 -62 4 -156 -2 l-87
-6 6 39 c4 22 7 67 8 102 1 62 2 63 31 68 22 4 31 11 33 29 7 44 -18 149 -48
206 -17 32 -30 63 -30 70 0 28 -41 82 -82 109 -41 27 -48 28 -131 24 -48 -2
-92 -9 -99 -16 -8 -8 -61 -12 -172 -12 -157 0 -346 -23 -346 -42 0 -15 -26 -8
-43 12 -9 11 -21 20 -26 20 -23 0 -61 -46 -77 -93 -9 -28 -20 -54 -23 -57 -13
-10 -33 -87 -29 -115 l3 -30 116 -3 117 -3 6 -31 c4 -20 1 -37 -7 -47 -7 -9
-20 -36 -27 -61 -8 -25 -24 -66 -37 -91 -13 -26 -23 -52 -23 -58 0 -18 -34
-12 -53 9 -9 11 -17 24 -17 29 0 14 -105 10 -125 -5 -10 -7 -15 -20 -12 -29 5
-11 -1 -15 -23 -15 -17 0 -30 4 -30 10 0 20 -36 29 -62 16 -13 -7 -63 -15
-111 -18 -129 -8 -167 -45 -167 -165 l0 -43 2296 0 2296 0 -4 60 c-4 49 -9 65
-33 90 -36 38 -110 61 -196 61 -14 0 -30 -1 -35 -2 -33 -6 -55 3 -64 27 -6 14
-14 22 -20 19 -6 -4 -10 9 -10 33 0 22 -6 45 -14 52 -8 6 -16 21 -18 33 -4 31
-35 34 -41 5 -3 -15 -5 -10 -6 15 0 20 -5 37 -11 37 -6 0 -10 26 -10 59 0 38
-4 61 -12 64 -10 4 -10 7 0 18 21 22 14 43 -27 83 -25 25 -45 37 -55 33 -18
-7 -21 -23 -6 -32 6 -3 10 -18 10 -32 0 -14 7 -40 16 -58 10 -21 14 -53 12
-91 l-3 -59 -19 40 c-10 22 -25 52 -32 67 -8 14 -14 35 -14 45 0 34 -52 92
-82 93 -18 0 -28 5 -28 15 0 9 -7 18 -15 21 -8 4 -15 13 -15 20 0 8 -13 44
-30 79 -16 35 -30 71 -30 79 0 33 -66 172 -85 180 -8 3 -15 12 -15 19 0 8 -28
40 -62 71 -90 81 -92 83 -134 97 -22 7 -44 19 -51 27 -8 10 -45 17 -112 21
-76 6 -105 12 -121 26 -11 10 -20 23 -20 28 0 16 -33 36 -61 37 -24 0 -27 4
-33 53 -3 28 -6 73 -6 98 0 53 -17 110 -37 122 -7 4 -13 14 -13 21 0 8 -7 19
-15 26 -20 17 -19 30 3 30 9 0 23 9 29 19 10 16 7 25 -23 59 -19 22 -34 47
-34 55 0 19 -32 47 -56 47 -10 0 -28 7 -38 15 -31 24 -53 18 -97 -25z m-543
-935 c16 -8 36 -15 45 -15 9 0 18 -3 22 -6 9 -9 -90 -103 -117 -110 -14 -3
-27 -12 -29 -19 -6 -13 -114 -29 -139 -20 -38 15 37 123 102 149 22 9 40 20
40 26 0 15 44 12 76 -5z m1399 -91 c11 -18 19 -55 23 -111 3 -46 9 -86 13 -89
5 -3 9 -15 9 -27 0 -12 7 -31 15 -41 8 -11 15 -32 15 -48 0 -15 5 -48 12 -72
9 -34 18 -46 36 -51 37 -9 49 9 56 85 6 60 10 70 27 70 10 0 19 6 20 13 0 6 6
0 12 -14 7 -14 18 -33 25 -41 6 -8 24 -37 38 -63 22 -43 23 -50 10 -57 -9 -5
-16 -15 -16 -23 0 -7 -10 -15 -22 -17 -18 -2 -24 -11 -26 -36 -2 -18 1 -39 6
-45 21 -25 18 -62 -5 -72 -13 -5 -23 -13 -23 -17 0 -5 -11 -8 -25 -8 -14 0
-25 5 -25 10 0 13 -57 13 -65 0 -4 -7 -11 -8 -18 -1 -14 11 -66 9 -84 -2 -17
-11 -16 -7 8 49 15 37 19 60 14 96 -4 27 -11 50 -16 54 -5 3 -9 37 -9 76 0 70
-12 107 -66 198 -17 29 -15 137 3 148 6 4 15 20 18 35 9 34 18 34 40 1z m-465
-142 c0 -27 6 -57 15 -68 16 -22 19 -66 6 -92 -5 -9 -15 -39 -22 -65 -7 -27
-27 -67 -46 -90 -19 -22 -43 -57 -53 -78 -11 -20 -26 -39 -35 -42 -9 -4 -15
-19 -15 -37 0 -28 -3 -30 -34 -30 -19 0 -38 -5 -41 -10 -9 -14 -47 -12 -68 4
-13 10 -16 21 -11 40 3 14 10 26 15 26 11 0 12 57 2 62 -12 5 -43 76 -43 96 0
10 -4 22 -10 28 -13 13 -34 204 -23 215 5 5 48 12 96 15 48 4 90 11 93 16 3 4
14 8 24 8 20 0 83 30 88 43 2 4 17 7 33 7 28 0 29 -2 29 -48z m235 -53 c4 -23
20 -55 36 -74 16 -18 29 -38 29 -43 0 -6 9 -16 19 -22 12 -6 22 -26 26 -49 3
-22 13 -47 20 -58 21 -26 20 -133 0 -133 -9 0 -18 -8 -22 -18 -17 -46 -32 -50
-192 -50 -136 1 -151 3 -151 18 0 10 11 25 25 34 18 12 25 25 25 50 0 20 8 40
20 51 11 10 20 24 20 31 0 7 9 18 20 24 12 6 25 21 31 33 5 12 21 38 35 57 23
32 25 41 19 96 -8 74 1 120 20 104 8 -6 16 -29 20 -51z m-749 -46 c3 -16 10
-38 15 -51 5 -13 9 -38 9 -57 0 -18 3 -35 8 -37 9 -4 42 -66 42 -80 0 -6 7
-16 15 -22 8 -6 18 -26 21 -44 6 -28 4 -34 -14 -39 -15 -3 -24 -16 -28 -38 -9
-50 -30 -56 -199 -53 -133 3 -150 5 -153 21 -2 10 4 20 15 24 24 9 33 23 33
56 0 15 5 27 10 27 6 0 10 5 10 12 0 14 80 138 89 138 7 0 41 74 41 90 0 6 4
10 8 10 4 0 14 16 21 35 16 44 48 48 57 8z m-1336 -219 c0 -7 8 -17 17 -23 15
-8 18 -24 18 -94 0 -47 -3 -88 -6 -92 -9 -8 -188 -9 -197 -1 -3 4 -1 16 6 26
7 11 12 29 12 40 0 11 5 20 10 20 6 0 10 5 10 11 0 6 11 25 25 43 14 18 25 39
25 46 0 7 5 30 12 52 l11 39 29 -28 c15 -15 28 -32 28 -39z m-214 -44 c-3 -36
-10 -66 -16 -68 -5 -2 -10 -10 -10 -17 0 -8 -8 -30 -17 -49 -16 -30 -23 -35
-63 -38 -70 -6 -80 -1 -80 42 0 26 -8 48 -25 68 -19 23 -25 41 -25 78 l0 49
121 0 121 0 -6 -65z m-314 -78 c4 -2 8 -10 8 -17 0 -7 4 -15 9 -17 5 -1 13
-16 17 -33 4 -16 3 -27 -1 -23 -4 4 -18 2 -32 -3 -17 -6 -30 -6 -38 1 -8 7
-28 8 -49 4 -34 -6 -50 6 -27 20 4 3 11 24 15 46 3 22 14 48 24 58 10 10 22
27 26 38 7 16 11 11 24 -26 8 -25 19 -46 24 -48z"/>
</g>
</svg>
