<?xml version="1.0" standalone="no"?>
<!DOCTYPE svg PUBLIC "-//W3C//DTD SVG 20010904//EN"
 "http://www.w3.org/TR/2001/REC-SVG-20010904/DTD/svg10.dtd">
<svg version="1.0" xmlns="http://www.w3.org/2000/svg"
 width="398.000000pt" height="188.000000pt" viewBox="0 0 398.000000 188.000000"
 preserveAspectRatio="xMidYMid meet">
<metadata>
Created by potrace 1.16, written by Peter Selinger 2001-2019
</metadata>
<g transform="translate(0.000000,188.000000) scale(0.100000,-0.100000)"
fill="#000000" stroke="none">
<path d="M3175 1846 c-16 -7 -50 -36 -74 -65 -27 -31 -52 -51 -65 -51 -26 0
-137 -52 -152 -71 -19 -25 -23 -47 -10 -64 11 -16 17 -16 72 -2 32 8 62 13 66
10 16 -9 7 -33 -22 -53 -34 -24 -39 -53 -12 -72 12 -8 21 -30 24 -58 3 -25 9
-53 13 -62 5 -13 2 -18 -8 -18 -18 0 -42 -53 -33 -75 3 -8 11 -15 18 -15 7 0
18 -16 24 -35 10 -32 9 -36 -23 -67 -19 -18 -59 -63 -90 -100 -30 -37 -64 -70
-76 -74 -12 -4 -74 -8 -137 -9 l-115 -1 -33 38 c-42 47 -78 50 -123 10 -31
-27 -32 -30 -25 -84 11 -86 18 -90 193 -95 81 -2 149 -6 152 -9 3 -2 4 -25 2
-49 -2 -34 4 -57 23 -91 14 -26 26 -48 26 -49 0 -1 -25 -10 -55 -20 -71 -22
-94 -41 -105 -89 -11 -48 0 -77 37 -104 34 -24 146 -72 169 -72 21 0 353 -90
377 -102 9 -5 17 -13 17 -17 0 -11 -55 -31 -86 -31 -20 0 -24 -5 -24 -29 0
-17 -3 -32 -7 -34 -5 -3 -33 2 -63 11 -35 9 -103 15 -185 16 -71 1 -159 7
-195 14 -56 11 -72 11 -126 -4 -52 -14 -74 -15 -144 -5 -46 6 -110 11 -142 11
l-58 0 7 27 c10 41 6 64 -17 94 -11 16 -20 32 -20 38 0 5 -7 12 -15 15 -13 5
-14 10 -4 27 8 16 8 27 -2 45 -15 28 -45 31 -71 7 -14 -13 -21 -14 -30 -5 -18
18 -75 15 -87 -6 -10 -16 -12 -16 -26 2 -13 17 -18 18 -38 7 -13 -7 -44 -32
-68 -56 -34 -33 -48 -41 -61 -34 -24 13 -67 -6 -78 -35 -5 -14 -21 -43 -35
-66 -20 -32 -31 -40 -54 -40 -50 0 -81 17 -81 43 0 46 -21 85 -51 97 -16 7
-28 16 -27 21 2 4 31 40 66 78 46 52 69 70 85 68 16 -1 23 4 25 21 3 22 53 78
132 148 19 17 48 49 64 72 19 26 38 42 50 42 12 0 32 9 46 20 24 19 60 27 60
13 0 -3 -7 -14 -15 -23 -8 -9 -17 -43 -20 -75 -3 -33 -11 -77 -18 -99 -10 -35
-9 -40 12 -57 17 -14 39 -19 81 -19 90 0 91 1 84 79 -6 62 -5 69 20 98 37 44
35 67 -5 59 -24 -5 -35 -1 -50 17 -10 12 -18 25 -19 28 0 4 23 16 50 28 50 21
65 46 35 57 -8 4 -31 -1 -50 -10 -19 -10 -40 -14 -45 -11 -5 3 -33 -1 -62 -10
-28 -8 -53 -15 -54 -15 -2 0 6 16 17 35 11 19 18 39 14 45 -10 16 -53 12 -63
-6 -9 -16 -60 -76 -139 -163 l-43 -46 0 33 c0 25 -4 32 -19 32 -23 0 -31 -19
-31 -69 0 -44 -29 -86 -105 -151 -28 -23 -84 -77 -126 -119 -42 -43 -97 -92
-123 -110 -50 -35 -56 -35 -131 1 -25 11 -75 -5 -75 -25 0 -8 -9 -22 -21 -33
-17 -16 -20 -26 -15 -61 5 -38 3 -44 -23 -63 -20 -14 -49 -21 -92 -24 -53 -3
-65 -1 -79 16 -16 20 -17 20 -49 3 -21 -10 -45 -15 -62 -11 -15 3 -42 0 -60
-6 -28 -9 -34 -8 -46 8 -7 10 -11 24 -9 31 4 10 -7 12 -44 8 -28 -3 -50 -2
-50 1 0 3 9 17 20 31 24 30 26 81 5 109 -14 18 -14 18 -15 -9 0 -27 -38 -77
-60 -77 -15 0 -13 8 16 45 19 25 24 43 22 72 l-3 38 -20 -38 c-27 -52 -48 -50
-40 6 4 23 2 53 -4 67 l-10 25 0 -28 c-1 -46 -51 -117 -51 -73 0 7 7 33 15 57
12 34 15 79 13 196 l-3 153 -53 56 c-56 61 -71 64 -53 13 6 -18 11 -48 11 -67
0 -25 8 -44 27 -64 27 -28 28 -33 27 -131 0 -95 -26 -233 -36 -197 -21 72 -66
193 -85 229 -12 24 -23 56 -23 70 -1 14 -6 36 -13 47 -15 27 -74 94 -83 94 -3
0 -4 -30 -2 -66 3 -56 8 -70 30 -89 44 -38 119 -198 133 -285 7 -40 6 -43 -8
-31 -9 7 -28 38 -43 69 -14 32 -29 51 -31 44 -3 -8 0 -19 6 -25 6 -6 11 -23
11 -38 0 -15 7 -39 14 -55 16 -30 10 -58 -7 -29 -5 9 -18 26 -28 36 -11 11
-19 26 -19 34 0 27 -20 15 -21 -12 l-1 -28 -13 30 -14 30 -1 -51 c0 -38 8 -67
30 -110 16 -32 30 -60 30 -61 0 -2 -11 -3 -25 -3 -14 0 -29 -8 -35 -19 -5 -11
-26 -25 -46 -31 -40 -14 -74 -60 -74 -102 l0 -28 1960 0 1960 0 0 25 c0 63
-59 115 -132 115 -19 0 -38 4 -43 9 -6 5 -32 6 -62 1 -69 -11 -249 -17 -258
-8 -4 4 0 17 9 30 9 12 16 35 16 50 0 23 4 28 25 28 29 0 40 19 31 55 -7 28
-42 34 -76 13 -16 -10 -22 -8 -39 14 -11 14 -36 44 -56 68 -19 23 -35 45 -35
50 0 4 24 8 53 8 67 1 156 35 182 69 39 55 28 294 -20 413 -103 252 -186 426
-233 482 -7 9 -9 18 -5 21 5 3 21 -10 36 -29 26 -32 59 -44 71 -25 8 13 -20
114 -44 154 l-21 36 25 50 c28 55 33 108 14 133 -22 29 -122 90 -153 94 -16 2
-43 -2 -60 -10z m-41 -892 c3 -9 6 -23 6 -31 0 -9 12 -42 27 -75 33 -73 25
-87 -39 -69 -66 19 -178 73 -172 82 3 5 24 17 47 28 23 11 58 33 77 50 40 35
46 37 54 15z m-1179 -614 c-3 -5 -11 -10 -16 -10 -6 0 -7 5 -4 10 3 6 11 10
16 10 6 0 7 -4 4 -10z m-1750 -36 c20 -47 19 -51 -5 -29 -11 10 -20 29 -20 42
0 33 7 29 25 -13z m1905 21 c-7 -9 -15 -13 -17 -11 -7 7 7 26 19 26 6 0 6 -6
-2 -15z m1275 -175 c3 -5 1 -10 -4 -10 -6 0 -11 5 -11 10 0 6 2 10 4 10 3 0 8
-4 11 -10z"/>
</g>
</svg>
