<?xml version="1.0" standalone="no"?>
<!DOCTYPE svg PUBLIC "-//W3C//DTD SVG 20010904//EN"
 "http://www.w3.org/TR/2001/REC-SVG-20010904/DTD/svg10.dtd">
<svg version="1.0" xmlns="http://www.w3.org/2000/svg"
 width="400.000000pt" height="300.000000pt" viewBox="0 0 400.000000 300.000000"
 preserveAspectRatio="xMidYMid meet">
<metadata>
Created by potrace 1.16, written by Peter Selinger 2001-2019
</metadata>
<g transform="translate(0.000000,300.000000) scale(0.100000,-0.100000)"
fill="#000000" stroke="none">
<path d="M1374 2838 c-10 -19 -19 -66 -22 -111 l-5 -79 -31 6 c-17 4 -43 15
-57 26 -32 22 -42 17 -27 -15 10 -23 30 -36 80 -55 38 -13 64 -59 78 -139 7
-36 21 -88 31 -116 46 -120 54 -224 21 -257 -13 -13 -213 -70 -228 -64 -7 3
-15 20 -19 38 -4 18 -20 57 -36 85 -27 49 -28 56 -18 103 6 28 8 58 4 68 -5
15 -8 14 -24 -7 -17 -22 -19 -23 -28 -6 -9 15 -14 15 -33 5 -28 -15 -41 1 -33
42 6 33 -3 78 -17 78 -6 0 -13 -13 -16 -30 -7 -35 -20 -39 -29 -10 -3 11 -10
20 -15 20 -12 0 -24 -46 -15 -59 3 -6 1 -19 -5 -30 -10 -19 -11 -19 -39 -3
-17 9 -33 14 -37 10 -13 -14 6 -37 63 -76 63 -43 164 -146 188 -191 7 -15 11
-38 8 -49 -12 -48 -129 -18 -168 42 -15 22 -28 66 -49 159 -8 34 -24 35 -32 2
-5 -19 -11 -24 -25 -20 -28 9 -24 -21 6 -51 41 -41 30 -92 -12 -52 -21 20 -25
20 -39 6 -12 -11 -13 -21 -6 -34 10 -21 5 -82 -9 -100 -9 -11 16 -74 29 -74 4
1 23 14 42 30 29 25 42 30 85 29 62 -2 116 -14 95 -21 -67 -25 -184 -58 -205
-58 -39 0 -84 -27 -91 -55 -9 -35 3 -90 23 -106 9 -8 42 -14 77 -14 47 -1 77
-9 129 -33 l69 -31 -7 -53 c-7 -55 -8 -49 60 -203 7 -16 28 -68 45 -114 17
-46 37 -92 43 -102 13 -21 51 -25 93 -8 16 5 37 8 49 5 30 -8 65 -44 59 -60
-7 -18 -56 -36 -96 -36 -36 0 -68 -48 -68 -103 0 -32 7 -44 39 -73 21 -19 51
-60 67 -92 16 -31 50 -77 76 -102 26 -25 51 -57 57 -72 8 -20 17 -28 35 -28
32 0 46 26 46 83 0 44 -13 68 -68 120 -13 12 -41 39 -62 60 -42 40 -51 77 -27
111 10 14 26 16 97 14 l85 -3 14 -45 c12 -37 12 -63 2 -160 -7 -63 -17 -158
-21 -210 -10 -100 -32 -196 -49 -213 -18 -18 -13 -55 8 -67 32 -16 96 -12 113
8 20 23 38 90 38 139 0 22 7 60 15 84 22 60 45 204 71 426 4 32 10 44 27 50
12 4 119 8 237 8 l215 0 75 33 c95 41 133 41 229 -2 42 -18 84 -36 94 -39 41
-15 10 -74 -93 -177 -68 -68 -70 -71 -70 -121 0 -44 4 -54 33 -80 39 -35 80
-76 107 -106 10 -13 29 -23 40 -23 20 0 21 3 14 73 -5 58 -11 76 -31 96 -13
12 -22 29 -19 36 10 28 112 152 144 178 55 43 148 32 196 -21 18 -21 18 -28 3
-244 -8 -123 -21 -242 -28 -266 -18 -58 -6 -76 55 -80 56 -4 73 8 82 54 3 19
10 37 15 39 4 3 8 65 8 139 0 135 14 212 55 310 9 21 16 65 16 97 0 70 -17 92
-82 109 -77 20 -204 87 -238 126 -30 35 -32 41 -27 94 2 31 15 76 28 101 21
39 24 57 24 155 l0 111 -38 49 c-42 52 -41 51 -21 177 4 23 2 43 -6 52 -10 12
-17 11 -49 -11 -53 -34 -81 -89 -81 -156 0 -30 -2 -57 -5 -59 -2 -3 -48 5
-100 18 l-96 24 -81 -26 c-57 -18 -91 -24 -112 -19 -17 4 -116 8 -221 8 -185
2 -191 2 -246 29 -81 39 -138 48 -218 31 -36 -8 -82 -14 -102 -14 -44 0 -116
44 -154 94 -24 32 -26 40 -16 62 17 37 14 81 -6 93 -32 18 0 31 94 37 65 5
101 3 123 -6 38 -16 53 -4 23 17 -31 21 -29 38 12 102 19 30 48 99 65 154 35
111 58 140 124 159 52 14 74 13 95 -6 20 -19 41 -21 41 -5 0 18 -67 79 -87 79
-10 0 -34 -4 -53 -10 -50 -14 -62 5 -16 26 33 16 36 21 30 47 -5 24 0 34 42
71 33 31 45 48 41 60 -6 15 -10 15 -34 2 -16 -8 -52 -40 -81 -72 -38 -41 -56
-54 -64 -46 -17 17 0 97 38 168 39 74 41 84 15 84 -21 0 -71 -53 -71 -75 0 -7
-7 -18 -15 -25 -13 -11 -15 -9 -13 11 2 19 -1 23 -17 21 -11 -2 -28 -11 -37
-19 -21 -19 -33 -11 -57 35 -10 20 -33 49 -50 65 -17 15 -31 32 -31 37 0 23
-31 8 -46 -22z m100 -113 c21 -39 17 -57 -18 -81 -47 -30 -60 -13 -52 67 3 40
9 76 13 82 7 11 29 -16 57 -68z m69 -158 c11 -46 -3 -67 -49 -70 -23 -2 -30 2
-32 21 -4 29 38 93 58 90 8 -2 18 -20 23 -41z m17 -147 c0 -58 -21 -193 -33
-207 -17 -22 -27 -14 -27 20 0 17 -7 53 -16 78 -22 61 -13 114 24 134 43 23
52 19 52 -25z m-555 -130 c0 -7 -6 -15 -12 -17 -8 -3 -13 4 -13 17 0 13 5 20
13 18 6 -3 12 -11 12 -18z m75 -98 c0 -12 -4 -12 -20 3 -11 10 -20 25 -20 33
0 12 4 12 20 -3 11 -10 20 -25 20 -33z m30 -42 c0 -5 -2 -10 -4 -10 -3 0 -8 5
-11 10 -3 6 -1 10 4 10 6 0 11 -4 11 -10z"/>
</g>
</svg>
