<?xml version="1.0" standalone="no"?>
<!DOCTYPE svg PUBLIC "-//W3C//DTD SVG 20010904//EN"
 "http://www.w3.org/TR/2001/REC-SVG-20010904/DTD/svg10.dtd">
<svg version="1.0" xmlns="http://www.w3.org/2000/svg"
 width="268.000000pt" height="163.000000pt" viewBox="0 0 268.000000 163.000000"
 preserveAspectRatio="xMidYMid meet">
<metadata>
Created by potrace 1.16, written by Peter Selinger 2001-2019
</metadata>
<g transform="translate(0.000000,163.000000) scale(0.100000,-0.100000)"
fill="#000000" stroke="none">
<path d="M2555 1583 c-16 -8 -41 -26 -55 -38 -35 -32 -77 -38 -220 -31 -73 3
-86 7 -99 25 -18 29 -73 51 -123 51 -37 0 -39 -2 -31 -22 4 -13 7 -53 5 -91
-2 -71 -35 -157 -69 -175 -9 -6 -31 -36 -48 -68 -29 -54 -36 -59 -73 -66 -23
-4 -50 -12 -61 -17 -11 -6 -35 -11 -55 -11 -50 0 -84 -15 -132 -60 -23 -21
-60 -48 -81 -59 -24 -12 -53 -40 -75 -73 -19 -30 -61 -83 -92 -118 -87 -100
-113 -144 -135 -233 -11 -45 -28 -105 -39 -133 -11 -28 -22 -67 -26 -87 -12
-66 -34 -72 -251 -72 -172 0 -197 2 -265 24 -138 43 -199 73 -225 111 -37 54
-106 106 -187 143 -40 19 -82 44 -92 56 -23 26 -81 29 -90 5 -9 -23 4 -84 23
-113 8 -13 48 -50 89 -82 40 -32 107 -98 147 -147 70 -84 80 -92 177 -140 163
-80 290 -96 482 -62 101 18 221 8 346 -31 l105 -33 310 -2 c210 -1 321 2 344
10 47 15 70 51 84 129 6 37 15 67 19 67 4 0 8 -6 8 -14 0 -7 19 -50 41 -95 32
-63 48 -83 68 -88 14 -4 85 -7 156 -8 l130 0 -3 38 c-5 55 -51 138 -92 165
-70 46 -82 100 -67 292 7 92 27 142 78 198 47 50 59 78 59 137 0 51 14 90 47
125 12 14 37 55 54 90 36 74 36 122 0 200 -11 25 -21 55 -21 68 0 13 -4 32
-10 42 -7 13 -5 29 5 54 8 19 15 63 15 96 0 56 -2 60 -22 60 -13 -1 -36 -8
-53 -17z"/>
</g>
</svg>
