<?xml version="1.0" standalone="no"?>
<!DOCTYPE svg PUBLIC "-//W3C//DTD SVG 20010904//EN"
 "http://www.w3.org/TR/2001/REC-SVG-20010904/DTD/svg10.dtd">
<svg version="1.0" xmlns="http://www.w3.org/2000/svg"
 width="274.000000pt" height="205.000000pt" viewBox="0 0 274.000000 205.000000"
 preserveAspectRatio="xMidYMid meet">
<metadata>
Created by potrace 1.16, written by Peter Selinger 2001-2019
</metadata>
<g transform="translate(0.000000,205.000000) scale(0.100000,-0.100000)"
fill="#000000" stroke="none">
<path d="M900 1893 c1 -10 7 -36 15 -58 20 -56 19 -89 -6 -111 -22 -20 -22
-57 -1 -139 6 -23 7 -41 2 -43 -28 -10 -93 -67 -114 -101 -14 -22 -34 -42 -45
-46 -11 -3 -30 -18 -41 -32 -18 -23 -20 -40 -20 -162 0 -106 5 -153 20 -209
13 -48 20 -103 20 -164 0 -51 7 -131 15 -178 18 -100 19 -130 5 -130 -13 0
-15 6 -30 100 -26 154 -35 185 -55 185 -71 0 -81 -540 -13 -668 13 -25 30 -17
40 19 13 46 38 220 38 263 0 39 11 57 29 47 5 -3 5 -21 1 -41 -7 -31 -5 -38
17 -55 32 -25 58 -25 83 0 18 18 18 22 5 59 -12 34 -12 40 1 45 19 7 50 -8 58
-30 3 -8 6 -33 6 -55 l0 -39 44 0 c61 0 71 -17 84 -150 4 -36 11 -71 15 -77 5
-8 29 -13 58 -13 58 0 69 14 50 65 -6 18 -14 72 -17 120 -4 70 -1 97 13 131
16 39 21 44 51 44 18 0 31 -4 27 -9 -3 -6 -2 -28 1 -51 l7 -42 54 5 c30 2 57
7 60 10 3 4 0 20 -7 36 -21 52 -14 56 115 58 65 1 122 0 126 -3 4 -2 2 -17 -4
-33 -16 -43 11 -81 58 -81 29 0 37 5 46 27 6 16 8 38 6 51 -4 21 8 40 19 29 3
-2 9 -44 15 -93 11 -100 42 -231 58 -247 27 -27 51 63 58 216 3 59 9 107 14
107 10 0 32 -107 24 -120 -3 -6 -8 -55 -11 -109 l-5 -99 52 -7 c32 -4 55 -3
61 3 11 11 0 69 -28 145 -30 81 -5 293 45 373 16 27 33 69 37 92 7 45 24 68
24 32 0 -11 9 -38 20 -60 15 -30 20 -63 23 -155 3 -101 6 -119 22 -131 22 -17
49 -18 76 -4 24 13 24 34 -2 90 -28 60 -41 264 -22 329 10 32 12 99 8 250 l-5
206 -32 63 c-17 34 -31 68 -30 75 7 74 3 101 -16 116 -20 16 -34 69 -33 131 2
79 -17 102 -43 51 -13 -25 -22 -30 -63 -33 -41 -3 -51 0 -70 21 -13 13 -23 28
-23 34 0 5 -7 4 -15 -3 -9 -8 -15 -30 -15 -60 0 -30 -6 -52 -15 -60 -8 -6 -17
-22 -21 -33 -9 -29 -85 -125 -104 -131 -8 -2 -30 -7 -47 -11 -29 -6 -33 -4
-33 15 0 55 -104 186 -177 224 -22 11 -33 24 -33 39 -1 63 -54 127 -106 127
-22 0 -64 -46 -64 -70 0 -24 -47 -90 -64 -90 -6 0 -19 12 -30 26 -16 22 -17
36 -12 94 8 80 -3 94 -42 57 -23 -21 -35 -24 -81 -23 -47 2 -57 7 -80 34 -29
35 -51 42 -51 15z m704 -591 c3 -5 -2 -28 -10 -53 -12 -34 -14 -65 -9 -135 5
-72 3 -99 -9 -129 -21 -50 -20 -99 4 -162 29 -78 52 -186 48 -235 l-3 -43 -54
-3 c-52 -3 -53 -2 -47 20 3 13 9 186 13 386 l6 362 28 0 c15 0 30 -4 33 -8z
m182 -489 c-17 -35 -36 -134 -39 -213 -2 -50 -4 -55 -26 -58 -22 -4 -23 -2
-15 30 4 18 8 65 9 103 1 75 9 117 32 173 l14 35 21 -20 c18 -19 19 -22 4 -50z
m116 -83 c3 -16 1 -35 -4 -42 -4 -8 -8 4 -8 30 0 49 6 55 12 12z m-1006 -162
c17 -32 16 -35 -6 -38 -33 -5 -40 1 -40 33 0 56 18 59 46 5z"/>
</g>
</svg>
