<?xml version="1.0" standalone="no"?>
<!DOCTYPE svg PUBLIC "-//W3C//DTD SVG 20010904//EN"
 "http://www.w3.org/TR/2001/REC-SVG-20010904/DTD/svg10.dtd">
<svg version="1.0" xmlns="http://www.w3.org/2000/svg"
 width="305.000000pt" height="109.000000pt" viewBox="0 0 305.000000 109.000000"
 preserveAspectRatio="xMidYMid meet">
<metadata>
Created by potrace 1.16, written by Peter Selinger 2001-2019
</metadata>
<g transform="translate(0.000000,109.000000) scale(0.100000,-0.100000)"
fill="#000000" stroke="none">
<path d="M1755 1032 c-73 -14 -146 -16 -395 -15 -168 0 -332 4 -365 8 -43 5
-89 1 -164 -14 -62 -13 -143 -21 -205 -21 -55 -1 -130 -7 -166 -15 -95 -21
-106 -20 -120 15 -7 17 -14 30 -17 30 -2 0 -19 -14 -36 -32 -18 -17 -50 -44
-72 -60 -38 -28 -123 -129 -143 -172 -13 -28 -35 -184 -31 -216 3 -18 18 -33
54 -52 28 -15 58 -28 67 -28 10 0 44 25 75 55 32 31 68 58 81 62 38 9 107 -5
177 -36 62 -28 65 -31 65 -64 0 -28 -7 -40 -37 -64 -20 -15 -89 -80 -152 -145
-76 -75 -134 -125 -167 -141 -55 -28 -68 -40 -78 -74 -7 -23 -6 -23 76 -23
l83 1 85 75 c83 74 154 118 234 144 43 14 104 48 188 105 29 19 64 35 77 35
40 0 90 -39 121 -94 29 -50 34 -54 169 -120 144 -70 183 -78 198 -40 9 23 -22
80 -54 99 -23 14 -112 115 -101 115 48 2 201 46 257 75 41 20 77 33 82 28 8
-8 24 -87 36 -179 4 -38 2 -43 -42 -85 -54 -52 -100 -78 -136 -79 -31 0 -62
-31 -57 -57 3 -15 15 -18 88 -21 l85 -3 110 77 c61 42 113 79 117 83 5 4 13
33 19 65 17 93 50 158 104 201 40 33 54 39 94 39 41 0 62 -9 151 -64 56 -35
132 -74 169 -87 36 -14 91 -40 123 -59 73 -44 173 -153 191 -207 13 -41 15
-42 58 -42 41 0 44 2 47 30 6 47 -14 97 -55 139 -21 21 -47 62 -59 90 -16 41
-29 56 -65 76 -62 34 -206 166 -234 215 -32 54 -43 115 -22 115 9 0 62 -37
119 -82 105 -84 291 -206 363 -239 51 -24 87 -24 133 0 72 37 117 112 126 212
4 47 2 60 -14 74 -25 22 -53 16 -62 -15 -27 -98 -34 -114 -65 -141 -22 -19
-45 -29 -65 -29 -65 0 -267 134 -353 235 -130 151 -217 216 -405 299 -82 36
-164 41 -285 18z"/>
</g>
</svg>
