<?xml version="1.0" standalone="no"?>
<!DOCTYPE svg PUBLIC "-//W3C//DTD SVG 20010904//EN"
 "http://www.w3.org/TR/2001/REC-SVG-20010904/DTD/svg10.dtd">
<svg version="1.0" xmlns="http://www.w3.org/2000/svg"
 width="299.000000pt" height="149.000000pt" viewBox="0 0 299.000000 149.000000"
 preserveAspectRatio="xMidYMid meet">
<metadata>
Created by potrace 1.16, written by Peter Selinger 2001-2019
</metadata>
<g transform="translate(0.000000,149.000000) scale(0.100000,-0.100000)"
fill="#000000" stroke="none">
<path d="M384 1457 c-3 -10 -17 -17 -31 -17 -22 0 -24 -2 -12 -16 10 -12 10
-17 0 -23 -9 -6 -8 -11 4 -21 19 -16 20 -31 0 -24 -8 4 -17 -1 -21 -10 -3 -9
-12 -16 -20 -16 -16 0 -19 -16 -4 -25 19 -12 10 -35 -15 -41 -27 -7 -29 -12
-16 -34 13 -20 2 -34 -15 -19 -11 9 -15 8 -20 -5 -3 -9 -15 -16 -25 -16 -10 0
-19 -4 -19 -10 0 -5 5 -10 10 -10 6 0 10 -6 10 -14 0 -10 13 -16 38 -18 20 -2
35 -7 32 -13 -6 -11 -40 -12 -87 -2 -32 6 -33 6 -33 -28 0 -27 4 -34 22 -37
13 -2 29 -15 36 -30 8 -18 21 -28 35 -28 17 0 19 -3 8 -9 -8 -5 -27 -5 -44 0
-17 5 -47 6 -66 3 -29 -5 -36 -10 -37 -29 -1 -18 6 -26 29 -34 16 -6 41 -11
53 -11 14 0 24 -6 24 -14 0 -11 -16 -14 -70 -13 -38 1 -72 -1 -75 -4 -10 -10
20 -59 37 -59 22 0 34 -20 18 -30 -21 -13 -4 -37 29 -43 17 -4 31 -11 31 -17
0 -11 -3 -12 -75 -14 -48 -1 -50 -2 -53 -33 -3 -28 0 -32 30 -38 57 -11 68
-16 63 -26 -4 -5 -16 -9 -27 -9 -31 0 -88 -22 -88 -35 0 -22 19 -38 38 -33 24
7 47 -6 38 -21 -4 -6 -16 -11 -26 -11 -22 0 -55 -44 -45 -60 3 -5 17 -10 30
-10 l23 0 -28 -31 c-18 -18 -27 -36 -23 -46 3 -8 0 -19 -8 -24 -11 -6 -11 -13
-3 -26 11 -17 24 -20 119 -24 11 -1 49 2 85 6 39 3 71 2 80 -4 10 -7 16 -33
18 -85 l4 -75 43 -7 c24 -3 48 -3 54 1 6 3 11 37 11 75 0 56 3 71 18 78 22 12
108 0 145 -20 52 -29 93 -2 57 36 l-21 23 55 32 c53 29 69 52 46 66 -6 4 -6
15 0 31 8 19 6 26 -5 30 -9 4 -14 14 -13 22 3 16 -11 21 -100 38 -19 4 -21 8
-12 19 6 8 18 11 27 8 9 -4 19 1 25 10 6 11 22 17 43 17 25 0 35 5 35 15 0 9
7 18 15 21 23 9 18 24 -9 24 -14 0 -27 4 -30 8 -3 5 -30 7 -61 4 -33 -3 -60 0
-69 7 -19 16 -8 61 14 61 10 0 20 9 23 20 3 11 12 20 20 20 8 0 17 6 20 13 3
9 -10 17 -42 26 -56 15 -74 24 -79 39 -2 7 8 12 26 12 16 0 35 7 42 15 10 12
8 18 -11 35 -23 18 -23 19 -4 20 11 0 25 11 32 25 10 22 9 25 -8 25 -12 0 -19
7 -19 20 0 24 -16 26 -28 3 -12 -20 -126 -30 -119 -10 2 7 17 17 32 22 16 6
43 24 61 42 30 30 31 32 10 37 -11 3 -34 6 -50 6 -21 0 -27 4 -22 16 3 9 6 18
6 20 0 2 7 4 16 4 11 0 14 6 9 20 -5 16 -2 20 19 20 14 0 26 5 26 11 0 7 8 18
18 25 15 12 15 13 -10 14 -15 0 -30 5 -34 11 -3 6 -17 8 -31 5 -35 -9 -46 2
-28 27 20 28 19 47 -1 47 -12 0 -15 6 -10 26 6 22 4 25 -13 19 -18 -5 -19 -3
-14 31 5 32 4 36 -10 31 -10 -4 -22 2 -31 15 -14 19 -16 20 -22 5z"/>
<path d="M2566 1140 c-12 -12 -17 -27 -13 -41 6 -22 -12 -49 -34 -49 -9 0 -9
-3 1 -15 13 -16 6 -35 -15 -35 -8 0 -11 -7 -8 -19 3 -14 -2 -20 -22 -25 -35
-9 -30 -40 8 -44 15 -2 27 -8 27 -14 0 -7 -17 -9 -49 -5 -46 5 -49 5 -43 -16
6 -24 51 -66 70 -67 7 0 11 -4 7 -9 -3 -5 -30 -7 -61 -4 -54 6 -56 5 -52 -18
2 -18 13 -26 43 -35 40 -12 40 -12 8 -13 -17 -1 -44 -6 -59 -11 l-27 -11 22
-23 c12 -13 21 -29 19 -36 -2 -8 11 -21 27 -29 l30 -16 -52 -3 c-48 -3 -53 -5
-53 -26 0 -25 17 -36 52 -36 22 0 20 -25 -3 -25 -24 -1 -69 -17 -69 -24 0 -14
24 -31 45 -31 18 -1 17 -2 -6 -15 -30 -16 -43 -41 -28 -51 13 -8 2 -76 -14
-86 -30 -18 16 -30 120 -32 l108 -1 3 -53 c3 -46 6 -54 28 -62 48 -19 54 -14
54 45 0 40 4 57 15 61 12 5 61 -3 120 -20 11 -4 27 -2 35 3 12 8 12 13 -4 30
-18 20 -18 20 5 25 13 3 35 4 49 3 28 -2 30 9 10 78 -6 22 -12 45 -12 52 -1 6
-19 15 -40 18 -41 7 -62 25 -29 25 12 0 21 5 21 10 0 6 14 10 30 10 19 0 30 5
30 14 0 8 6 16 13 19 22 8 -46 28 -87 25 -54 -4 -61 23 -17 63 29 26 41 51 24
48 -15 -3 -74 14 -79 22 -3 5 4 9 14 9 25 0 44 23 36 44 -4 10 1 25 11 36 16
18 16 20 2 20 -9 0 -20 7 -25 16 -8 15 -10 15 -15 0 -5 -12 -19 -16 -53 -16
-40 0 -45 2 -34 15 7 8 18 15 24 15 17 0 58 45 49 53 -3 4 -20 7 -36 7 -29 0
-29 1 -14 18 10 10 17 24 17 30 0 7 7 12 15 12 8 0 19 8 24 19 9 16 6 19 -19
25 -16 3 -37 3 -45 0 -19 -8 -19 1 1 31 15 23 15 25 0 25 -9 0 -16 8 -16 20 0
11 -4 20 -9 20 -5 0 -8 11 -6 25 2 19 -2 25 -16 25 -11 0 -19 5 -19 10 0 15
-13 11 -34 -10z"/>
<path d="M1057 943 c-13 -14 -21 -15 -42 -5 -68 31 -92 1 -46 -57 l32 -40 -36
-40 c-29 -32 -36 -47 -33 -73 l3 -33 109 0 110 0 34 -58 c19 -32 32 -61 28
-65 -10 -9 -135 -19 -148 -11 -7 4 -2 17 12 37 12 16 19 35 16 40 -6 10 -118
7 -173 -4 -29 -6 -31 -40 -2 -49 28 -9 37 -41 26 -94 -7 -32 -6 -65 3 -112 8
-43 11 -97 6 -148 -6 -81 -6 -81 17 -81 21 0 25 6 31 40 4 25 10 38 17 34 6
-3 8 -17 5 -31 -8 -31 -1 -42 24 -36 15 4 20 14 20 36 0 17 6 55 12 84 11 48
15 53 40 53 34 0 43 -27 35 -111 l-5 -59 27 0 c28 0 28 1 34 75 4 41 4 81 1
90 -3 8 -2 15 4 15 14 0 29 -51 38 -123 6 -58 24 -81 45 -60 10 10 3 88 -21
232 -5 35 -9 66 -7 68 2 2 18 -4 35 -12 29 -15 30 -18 37 -101 4 -47 5 -108 2
-136 l-6 -49 32 3 c31 3 32 4 37 60 5 54 14 77 26 66 3 -3 5 -33 5 -67 1 -60
1 -61 29 -61 38 0 44 12 31 68 -16 74 -30 193 -24 208 7 19 84 18 147 -1 75
-23 105 -20 243 21 16 4 29 -1 50 -22 17 -18 36 -27 50 -26 17 3 24 -3 28 -21
8 -30 1 -174 -10 -204 -6 -20 -4 -23 18 -23 39 0 57 25 57 80 0 46 13 71 28
55 4 -4 6 -38 5 -77 l-1 -70 26 7 c33 8 55 34 46 55 -4 8 -11 56 -16 105 -4
50 -13 114 -18 144 -5 29 -6 60 -1 68 10 19 25 -72 22 -143 -1 -46 1 -52 21
-57 55 -15 77 94 36 173 -15 29 -18 59 -18 175 0 213 -22 242 -166 224 -43 -5
-148 -14 -233 -19 -129 -8 -164 -7 -214 6 -39 10 -94 14 -156 13 -95 -3 -227
17 -254 38 -6 6 -30 13 -53 16 -30 5 -44 3 -57 -10z"/>
</g>
</svg>
