<?xml version="1.0" standalone="no"?>
<!DOCTYPE svg PUBLIC "-//W3C//DTD SVG 20010904//EN"
 "http://www.w3.org/TR/2001/REC-SVG-20010904/DTD/svg10.dtd">
<svg version="1.0" xmlns="http://www.w3.org/2000/svg"
 width="400.000000pt" height="300.000000pt" viewBox="0 0 400.000000 300.000000"
 preserveAspectRatio="xMidYMid meet">
<metadata>
Created by potrace 1.16, written by Peter Selinger 2001-2019
</metadata>
<g transform="translate(0.000000,300.000000) scale(0.100000,-0.100000)"
fill="#000000" stroke="none">
<path d="M3108 2443 l-27 -27 -24 22 c-32 30 -52 28 -74 -10 l-19 -33 -150
-18 c-102 -12 -178 -28 -239 -49 -86 -29 -93 -30 -150 -18 -137 27 -165 30
-271 21 -68 -6 -145 -20 -204 -37 -90 -28 -104 -29 -280 -28 -220 1 -604 19
-675 33 -27 5 -140 12 -250 16 -182 6 -203 5 -235 -12 -81 -42 -106 -122 -120
-383 -15 -276 -35 -512 -45 -535 -5 -11 -27 -49 -48 -85 -52 -86 -59 -110 -39
-150 13 -27 14 -37 2 -64 -32 -76 -52 -146 -47 -161 4 -8 18 -15 32 -15 21 0
25 -5 25 -30 0 -23 6 -33 26 -42 22 -10 28 -10 38 5 8 9 24 15 41 14 23 -2 29
3 36 27 5 16 6 48 3 70 -3 23 1 67 10 101 9 32 16 80 16 105 0 25 7 55 15 66
17 23 19 75 4 142 -5 27 -9 78 -7 113 l3 64 34 -70 c32 -66 34 -76 35 -172 0
-101 0 -103 -33 -143 l-33 -41 -9 -212 c-10 -238 -23 -337 -51 -384 -16 -26
-17 -36 -8 -54 7 -12 10 -32 7 -44 -2 -13 0 -29 4 -36 9 -16 125 -24 158 -12
l24 10 1 179 c1 166 3 182 24 228 13 26 28 44 32 40 5 -5 16 -88 24 -184 17
-195 24 -239 38 -257 7 -8 37 -13 85 -13 82 0 95 10 73 58 -7 15 -21 68 -31
117 -32 155 -22 469 16 500 6 6 16 24 22 40 12 37 25 39 33 5 5 -21 12 -25 45
-25 37 0 41 3 51 35 8 27 21 40 57 58 28 13 53 34 62 52 18 35 33 37 67 11 31
-24 137 -61 177 -61 17 0 61 -12 98 -26 55 -20 78 -24 118 -19 28 4 87 11 133
16 45 5 106 18 135 29 69 27 173 47 277 56 76 6 88 4 110 -14 23 -19 25 -26
24 -104 -4 -217 -21 -414 -43 -487 -13 -41 -30 -85 -38 -97 -11 -18 -12 -30
-4 -62 15 -53 33 -66 97 -66 69 -1 77 10 67 89 -16 121 -10 204 21 297 16 48
32 85 36 83 4 -2 12 -64 19 -137 15 -155 29 -235 42 -243 5 -4 9 -19 9 -34 0
-15 5 -32 12 -39 18 -18 113 -15 128 3 13 16 12 23 -18 103 -30 77 -39 248
-18 328 11 41 16 105 16 188 0 119 1 126 23 140 12 8 33 17 47 21 42 12 88 53
101 90 7 19 19 35 27 35 15 0 15 -5 -6 -305 -4 -55 -11 -107 -16 -115 -6 -8
-13 -77 -16 -155 -5 -98 -12 -149 -23 -171 -16 -32 -29 -127 -20 -151 7 -17
77 -17 90 0 21 26 35 130 28 203 l-7 73 58 128 c62 140 90 186 108 180 22 -7
18 -49 -7 -76 -50 -53 -58 -94 -32 -167 8 -23 21 -99 30 -168 16 -135 31 -172
71 -182 25 -6 74 18 74 36 0 5 -9 33 -21 62 -16 39 -22 84 -26 175 -6 121 -6
122 26 187 17 35 31 70 31 75 0 22 18 10 29 -19 13 -38 39 -38 52 0 19 54 36
37 73 -71 14 -41 26 -88 26 -103 0 -15 9 -44 19 -65 14 -26 21 -66 25 -127 6
-110 10 -121 49 -130 23 -5 34 -2 44 12 16 22 16 30 -2 129 -8 44 -14 110 -15
146 0 36 -5 91 -11 123 -13 70 -8 89 14 56 9 -14 21 -65 28 -114 6 -50 22
-111 35 -140 13 -28 24 -62 25 -76 0 -14 8 -47 18 -75 13 -37 25 -52 45 -60
58 -20 80 26 48 98 -24 55 -30 87 -42 252 -8 115 -7 141 10 219 11 50 20 111
20 138 0 76 -21 200 -41 242 -19 39 -26 136 -13 170 3 9 25 21 48 27 51 14 66
26 66 54 0 44 -55 69 -100 45 -15 -8 -29 -5 -57 10 -53 28 -101 26 -135 -7
l-28 -26 -25 27 c-22 23 -32 27 -73 24 -38 -2 -47 -7 -50 -23 -3 -26 60 -95
87 -95 18 0 21 -6 21 -38 0 -72 -12 -77 -152 -74 -68 1 -147 7 -177 13 -30 6
-71 8 -93 5 -33 -5 -38 -4 -38 12 0 25 154 334 175 352 21 18 351 18 384 1 28
-16 127 5 153 31 37 37 14 134 -38 161 -30 15 -144 164 -144 186 0 22 11 36
38 50 13 7 30 27 37 44 8 18 23 40 34 49 13 11 18 24 14 35 -16 48 -80 57
-135 20 -19 -13 -49 -27 -67 -30 -28 -6 -39 -2 -74 28 -49 42 -83 45 -119 8z"/>
</g>
</svg>
