<?xml version="1.0" standalone="no"?>
<!DOCTYPE svg PUBLIC "-//W3C//DTD SVG 20010904//EN"
 "http://www.w3.org/TR/2001/REC-SVG-20010904/DTD/svg10.dtd">
<svg version="1.0" xmlns="http://www.w3.org/2000/svg"
 width="123.000000pt" height="226.000000pt" viewBox="0 0 123.000000 226.000000"
 preserveAspectRatio="xMidYMid meet">
<metadata>
Created by potrace 1.16, written by Peter Selinger 2001-2019
</metadata>
<g transform="translate(0.000000,226.000000) scale(0.100000,-0.100000)"
fill="#000000" stroke="none">
<path d="M550 2100 c-19 -19 -27 -40 -32 -90 -3 -26 -5 -26 -68 -13 -36 7 -75
-26 -66 -55 9 -29 48 -54 93 -61 30 -5 37 -12 49 -46 7 -22 14 -45 14 -51 0
-6 -31 -25 -68 -42 -75 -33 -106 -66 -148 -155 -13 -28 -36 -68 -50 -87 -19
-26 -24 -44 -22 -74 3 -36 8 -43 53 -69 28 -16 74 -33 103 -37 29 -4 58 -12
64 -18 14 -14 2 -32 -23 -32 -10 0 -19 -4 -19 -10 0 -21 -31 -9 -40 16 -10 25
-14 26 -56 21 -55 -6 -73 -20 -58 -45 8 -12 22 -16 54 -13 42 3 43 3 35 -26
-5 -15 -9 -42 -9 -60 -1 -24 -12 -43 -43 -75 -24 -24 -43 -51 -43 -60 0 -15
-15 -55 -50 -133 -10 -23 -22 -53 -25 -68 -4 -15 -11 -29 -15 -32 -8 -5 -11
-29 -25 -175 -3 -25 -7 -64 -11 -88 -5 -35 -1 -53 26 -107 18 -36 36 -65 41
-65 5 0 9 -9 9 -19 0 -29 38 -51 87 -51 23 0 45 -4 48 -10 10 -16 -43 -77 -76
-89 -21 -7 -30 -16 -27 -28 2 -14 15 -19 52 -21 27 -2 54 2 59 7 14 14 47 14
47 1 0 -25 22 -6 43 37 13 29 30 49 42 52 11 2 23 8 27 14 8 14 -11 39 -23 31
-21 -13 -26 9 -13 52 11 37 11 55 3 85 -17 55 22 340 64 474 46 146 60 157 73
57 3 -31 16 -82 27 -112 29 -74 30 -84 31 -240 1 -88 5 -143 14 -157 6 -12 12
-33 12 -47 0 -13 11 -38 25 -54 23 -28 24 -32 9 -46 -8 -9 -24 -16 -35 -16
-14 0 -19 -7 -19 -26 0 -20 4 -25 21 -22 16 2 24 -5 34 -36 19 -53 31 -64 56
-48 18 11 24 11 40 -4 33 -30 135 0 108 32 -6 8 -17 14 -25 14 -7 0 -21 13
-31 30 -9 16 -21 30 -26 30 -5 0 -7 10 -5 23 2 18 10 23 48 25 24 2 50 8 56
13 11 9 21 44 27 100 2 14 7 31 11 37 15 24 14 197 -1 282 -19 107 -29 153
-43 209 -10 43 -10 45 20 76 64 66 43 183 -39 224 -22 12 -50 21 -62 21 -36 0
-18 69 36 136 52 64 56 93 23 157 -13 23 -32 71 -43 107 -19 59 -23 65 -50 68
-56 5 -59 10 -26 41 34 32 51 68 51 109 l0 26 -33 -32 c-26 -25 -40 -31 -70
-30 -21 1 -43 -4 -49 -10 -12 -12 -48 -17 -48 -7 0 3 4 13 9 23 5 9 12 25 15
35 3 10 30 29 60 42 68 30 88 72 45 95 -16 9 -27 7 -55 -9 -19 -12 -39 -21
-43 -21 -5 0 -8 25 -7 54 0 30 -3 59 -9 64 -5 5 -34 12 -63 15 -44 5 -56 3
-72 -13z m285 -620 c4 -12 1 -27 -5 -35 -7 -8 -20 -40 -30 -72 -14 -43 -20
-53 -25 -40 -4 10 1 41 14 73 11 31 21 64 21 75 0 25 17 24 25 -1z m-375 -81
c0 -16 -22 -10 -46 14 -28 26 -29 35 -7 59 15 17 17 16 35 -23 10 -23 18 -45
18 -50z m312 -121 c-7 -7 -12 -8 -12 -2 0 14 12 26 19 19 2 -3 -1 -11 -7 -17z"/>
</g>
</svg>
