<?xml version="1.0" standalone="no"?>
<!DOCTYPE svg PUBLIC "-//W3C//DTD SVG 20010904//EN"
 "http://www.w3.org/TR/2001/REC-SVG-20010904/DTD/svg10.dtd">
<svg version="1.0" xmlns="http://www.w3.org/2000/svg"
 width="151.000000pt" height="230.000000pt" viewBox="0 0 151.000000 230.000000"
 preserveAspectRatio="xMidYMid meet">
<metadata>
Created by potrace 1.16, written by Peter Selinger 2001-2019
</metadata>
<g transform="translate(0.000000,230.000000) scale(0.100000,-0.100000)"
fill="#000000" stroke="none">
<path d="M963 2095 l-45 -46 -29 27 c-37 36 -46 25 -29 -34 7 -26 15 -68 18
-94 3 -39 1 -48 -12 -48 -11 0 -16 9 -16 29 0 45 -9 59 -56 91 -45 32 -82 38
-114 18 -15 -10 -22 -9 -37 4 -10 9 -29 18 -43 20 -16 2 -26 11 -30 28 -3 14
-14 26 -23 28 -13 3 -17 -4 -17 -32 0 -19 5 -38 10 -41 6 -3 10 -25 10 -49 0
-32 -8 -53 -32 -86 -18 -25 -47 -72 -63 -105 -32 -64 -33 -65 -136 -80 -68
-10 -98 -66 -64 -119 14 -21 13 -25 -15 -54 -16 -18 -30 -37 -30 -44 0 -26 96
-173 122 -187 23 -13 30 -13 55 -1 15 8 31 16 36 18 22 11 1 -31 -38 -76 -49
-59 -51 -65 -65 -243 -5 -70 -14 -139 -20 -153 -26 -70 10 -91 54 -33 42 54
55 100 66 219 9 104 12 116 45 163 29 43 35 60 35 103 0 56 7 63 35 32 17 -18
17 -22 -4 -99 -19 -71 -21 -100 -18 -253 3 -142 7 -179 21 -207 18 -34 18 -77
0 -170 -4 -21 0 -52 12 -86 16 -49 17 -62 5 -133 -13 -82 -10 -104 23 -131 9
-8 20 -30 26 -51 7 -27 16 -39 33 -42 35 -6 56 2 63 25 4 12 15 33 25 47 33
45 41 111 48 375 4 162 10 260 16 260 17 0 27 -131 29 -375 1 -152 5 -246 13
-265 6 -16 14 -42 17 -57 8 -38 45 -48 66 -18 8 12 32 40 52 61 l37 38 -1 296
-1 295 -28 57 c-20 40 -29 73 -29 106 0 26 -8 62 -17 80 -23 44 -20 125 6 168
12 19 21 42 21 52 0 10 11 37 24 60 13 23 27 57 31 74 7 37 22 50 37 35 5 -5
18 -58 28 -118 12 -72 33 -143 60 -209 34 -82 42 -112 42 -165 0 -87 4 -100
33 -100 46 0 53 30 45 180 -4 74 -15 160 -23 190 -16 56 -31 141 -48 264 -12
84 -47 153 -111 218 -63 63 -57 84 38 137 35 20 56 39 60 55 9 36 -2 47 -33
35 -42 -16 -53 -5 -53 50 0 64 -6 79 -42 97 -29 15 -30 15 -75 -31z"/>
</g>
</svg>
