<?xml version="1.0" standalone="no"?>
<!DOCTYPE svg PUBLIC "-//W3C//DTD SVG 20010904//EN"
 "http://www.w3.org/TR/2001/REC-SVG-20010904/DTD/svg10.dtd">
<svg version="1.0" xmlns="http://www.w3.org/2000/svg"
 width="201.000000pt" height="224.000000pt" viewBox="0 0 201.000000 224.000000"
 preserveAspectRatio="xMidYMid meet">
<metadata>
Created by potrace 1.16, written by Peter Selinger 2001-2019
</metadata>
<g transform="translate(0.000000,224.000000) scale(0.100000,-0.100000)"
fill="#000000" stroke="none">
<path d="M1275 2195 c-191 -52 -186 -49 -255 -125 -57 -62 -75 -75 -149 -105
-46 -19 -94 -44 -106 -55 -11 -11 -32 -50 -45 -87 -37 -101 -72 -165 -101
-186 -14 -10 -75 -31 -135 -47 -61 -16 -128 -37 -150 -46 -59 -25 -171 -102
-241 -168 -56 -52 -63 -62 -63 -97 0 -48 23 -74 79 -89 42 -11 54 -10 313 25
173 24 174 24 183 -71 7 -74 6 -77 -25 -127 -43 -69 -49 -109 -20 -130 15 -10
34 -13 57 -10 l35 6 -7 -45 c-4 -29 -3 -48 4 -52 7 -5 9 -22 5 -44 -5 -30 -2
-41 15 -56 14 -12 21 -31 21 -53 0 -19 4 -43 10 -53 12 -23 73 -44 105 -36 64
16 72 -30 22 -134 -32 -64 -33 -72 -24 -118 10 -47 8 -58 -26 -150 -42 -113
-45 -127 -19 -117 9 4 40 15 67 25 28 10 84 32 125 48 41 16 125 48 185 71
205 79 264 121 285 204 30 114 38 121 108 88 40 -19 62 -23 109 -19 93 7 165
52 149 94 -4 10 -24 14 -77 14 -65 0 -74 3 -106 30 -18 17 -42 30 -53 30 -51
0 -18 41 45 56 67 15 175 96 204 151 16 32 14 102 -4 109 -8 3 -39 -4 -70 -15
-31 -12 -76 -21 -101 -21 -42 0 -50 -4 -89 -47 -60 -65 -72 -57 -79 59 -3 51
-8 117 -12 145 -5 45 -3 54 11 60 29 10 180 -44 333 -120 164 -81 177 -81 177
-5 -1 57 -76 185 -154 261 -65 64 -188 153 -272 198 -65 35 -70 46 -45 116 8
22 26 98 41 169 22 105 26 144 20 209 -12 161 -54 240 -140 264 -50 14 -77 13
-140 -4z"/>
</g>
</svg>
