<?xml version="1.0" standalone="no"?>
<!DOCTYPE svg PUBLIC "-//W3C//DTD SVG 20010904//EN"
 "http://www.w3.org/TR/2001/REC-SVG-20010904/DTD/svg10.dtd">
<svg version="1.0" xmlns="http://www.w3.org/2000/svg"
 width="230.000000pt" height="213.000000pt" viewBox="0 0 230.000000 213.000000"
 preserveAspectRatio="xMidYMid meet">
<metadata>
Created by potrace 1.16, written by Peter Selinger 2001-2019
</metadata>
<g transform="translate(0.000000,213.000000) scale(0.100000,-0.100000)"
fill="#000000" stroke="none">
<path d="M1733 2024 c-54 -57 -69 -68 -120 -81 -91 -23 -161 -81 -148 -122 8
-27 29 -32 86 -20 77 17 88 7 45 -41 -20 -22 -36 -44 -36 -50 0 -5 11 -17 25
-26 14 -9 25 -26 25 -39 0 -48 13 -88 32 -92 26 -7 22 -23 -6 -23 -14 0 -32
-7 -40 -16 -22 -21 -21 -65 2 -71 9 -2 23 -21 29 -41 l12 -37 -63 -65 c-34
-36 -79 -86 -98 -111 l-37 -46 -142 -6 -142 -7 -32 37 c-30 35 -35 37 -86 35
-70 -3 -79 -16 -79 -109 0 -99 4 -101 183 -102 77 0 147 -3 157 -6 13 -4 20
-20 25 -58 4 -29 16 -69 26 -89 29 -56 25 -65 -34 -82 -69 -20 -99 -52 -105
-114 -3 -41 0 -52 22 -79 38 -45 50 -49 456 -159 173 -46 197 -61 125 -76 -51
-11 -75 -26 -85 -54 -10 -27 -28 -29 -80 -13 -19 6 -103 12 -186 14 -181 3
-196 8 -193 69 4 72 -74 160 -114 128 -6 -5 -31 -15 -53 -22 -40 -12 -44 -11
-88 19 -26 18 -92 78 -149 135 -56 56 -118 115 -137 132 -69 58 -89 90 -96
155 -8 70 -23 82 -61 48 l-25 -24 -32 39 c-17 22 -45 53 -61 70 -17 17 -44 48
-59 69 -23 29 -35 37 -55 35 -22 -3 -27 -9 -31 -43 -6 -44 2 -42 -100 -23 -91
16 -105 16 -105 -7 0 -13 13 -27 38 -40 61 -33 62 -75 2 -75 -44 0 -52 -24
-20 -62 31 -36 39 -68 32 -116 -14 -85 -24 -77 97 -80 l108 -3 -7 38 c-12 64
-22 177 -17 191 8 22 50 25 81 5 47 -29 241 -241 241 -262 0 -14 9 -21 32 -26
31 -7 115 -82 137 -123 9 -18 7 -26 -17 -54 -15 -18 -34 -51 -41 -73 -19 -57
-28 -65 -72 -65 -44 0 -61 14 -94 81 -27 53 -55 74 -85 64 -15 -5 -37 8 -86
49 -69 60 -71 61 -93 47 -12 -8 -13 -16 -3 -49 28 -91 -5 -90 -58 3 -31 55
-54 67 -78 43 -9 -9 -16 -7 -31 6 -26 24 -62 17 -81 -16 -14 -27 -14 -29 30
-74 28 -29 38 -44 25 -40 -11 4 -34 10 -51 13 -27 4 -34 1 -53 -30 -35 -58
-21 -136 30 -163 34 -17 34 -17 14 -48 -14 -20 -13 -28 10 -86 14 -35 30 -69
35 -74 33 -33 99 -35 1030 -35 798 0 928 2 944 14 11 8 30 15 42 15 27 0 37
13 58 74 22 67 20 81 -11 116 -26 28 -31 30 -59 20 -21 -8 -43 -8 -65 -2 l-34
10 43 17 c39 17 42 21 42 55 0 47 23 60 46 25 24 -36 37 -31 30 10 -7 35 -7
35 29 35 46 0 46 22 -1 39 l-36 13 26 27 c14 15 26 30 26 34 0 13 -27 7 -40
-8 -19 -22 -39 -18 -46 10 -8 34 -24 32 -24 -4 0 -27 -22 -61 -39 -61 -10 0
-111 125 -111 137 0 6 36 13 79 15 95 5 147 34 176 94 15 33 17 54 11 168 -6
111 -13 146 -43 235 -44 133 -151 369 -209 463 -24 40 -44 77 -44 82 0 6 17
-7 38 -27 28 -27 44 -36 56 -31 26 10 16 83 -21 158 l-27 57 28 78 c26 74 27
81 12 109 -8 16 -44 47 -81 71 -53 33 -75 41 -113 41 -45 0 -50 -3 -109 -66z
m46 -971 c39 -98 40 -113 4 -113 -39 1 -198 63 -198 77 0 13 132 110 151 112
7 1 26 -34 43 -76z"/>
</g>
</svg>
