<?xml version="1.0" standalone="no"?>
<!DOCTYPE svg PUBLIC "-//W3C//DTD SVG 20010904//EN"
 "http://www.w3.org/TR/2001/REC-SVG-20010904/DTD/svg10.dtd">
<svg version="1.0" xmlns="http://www.w3.org/2000/svg"
 width="355.000000pt" height="144.000000pt" viewBox="0 0 355.000000 144.000000"
 preserveAspectRatio="xMidYMid meet">
<metadata>
Created by potrace 1.16, written by Peter Selinger 2001-2019
</metadata>
<g transform="translate(0.000000,144.000000) scale(0.100000,-0.100000)"
fill="#000000" stroke="none">
<path d="M2338 1383 c-27 -26 -28 -27 -160 -24 -140 2 -301 -18 -350 -45 -14
-8 -33 -14 -40 -14 -23 0 -49 34 -46 60 4 35 -43 51 -72 25 -11 -10 -20 -26
-20 -36 0 -31 -57 -69 -103 -69 -36 0 -46 5 -77 42 -29 33 -40 40 -56 33 -10
-4 -37 -7 -60 -6 -35 2 -45 -2 -68 -30 -27 -32 -28 -32 -124 -33 -86 -1 -103
-4 -147 -29 -144 -80 -193 -130 -213 -218 -6 -24 -16 -59 -23 -77 -10 -23 -11
-37 -3 -50 6 -9 9 -47 7 -84 -2 -51 1 -70 13 -83 10 -10 14 -24 10 -40 -3 -13
-2 -26 3 -29 5 -4 12 -44 16 -90 9 -107 16 -118 50 -86 33 31 38 23 61 -80 23
-105 34 -120 88 -120 74 0 80 6 46 49 -45 55 -65 151 -52 242 14 97 36 120 27
28 -6 -61 -5 -70 19 -105 14 -22 29 -55 32 -74 4 -19 15 -50 25 -69 15 -28 16
-38 6 -49 -10 -13 -4 -14 53 -8 36 4 69 11 74 16 6 6 -1 24 -16 47 -59 91 -75
169 -49 244 10 30 22 75 26 100 13 80 15 81 95 53 39 -13 99 -27 133 -31 34
-3 73 -14 87 -23 42 -29 75 -32 95 -10 10 11 21 18 24 16 14 -9 16 -114 6
-296 l-8 -125 28 -33 c44 -52 118 -43 149 19 14 28 14 33 -1 55 -21 33 -18
106 10 243 18 83 32 121 59 162 19 30 50 82 68 117 18 34 45 74 59 88 43 44
125 103 159 115 29 10 35 8 74 -24 24 -19 58 -42 75 -51 36 -18 41 -32 47
-121 5 -67 41 -334 56 -416 6 -29 8 -73 5 -98 -4 -28 -1 -56 7 -71 18 -34 103
-76 196 -95 42 -9 145 -32 227 -52 83 -19 188 -41 234 -49 46 -7 93 -20 105
-27 11 -8 44 -20 73 -26 29 -7 57 -19 64 -27 8 -10 37 -14 106 -14 l95 0 -7
28 c-12 49 -31 66 -111 101 -62 26 -82 31 -96 22 -29 -18 -66 -13 -110 15 -34
22 -45 24 -64 15 -15 -7 -33 -7 -47 -2 -19 8 -23 15 -19 39 3 24 0 31 -17 37
-11 3 -26 3 -31 0 -6 -4 -22 -4 -36 -1 -18 5 -35 28 -69 96 -37 74 -50 91 -73
96 -53 11 -56 18 -11 22 l47 3 7 45 c3 25 4 49 0 52 -3 3 -40 1 -83 -5 -42 -6
-78 -10 -80 -8 -2 2 6 13 17 24 12 12 21 25 21 30 0 6 12 16 28 23 39 19 41
54 4 75 -16 9 -36 29 -45 45 -14 24 -22 28 -62 28 -60 0 -81 -12 -95 -54 -10
-33 -112 -146 -130 -146 -11 0 -18 39 -25 140 -3 47 -7 118 -10 158 -3 47 -1
72 5 72 20 0 60 49 60 74 0 14 -16 56 -36 93 -29 56 -35 80 -36 133 -1 36 2
75 6 88 7 19 5 24 -12 29 -12 3 -24 14 -27 24 -9 27 -36 24 -67 -8z m467
-1113 l16 -30 -38 0 c-58 0 -70 13 -37 39 35 28 41 27 59 -9z"/>
</g>
</svg>
