<?xml version="1.0" standalone="no"?>
<!DOCTYPE svg PUBLIC "-//W3C//DTD SVG 20010904//EN"
 "http://www.w3.org/TR/2001/REC-SVG-20010904/DTD/svg10.dtd">
<svg version="1.0" xmlns="http://www.w3.org/2000/svg"
 width="79.000000pt" height="251.000000pt" viewBox="0 0 79.000000 251.000000"
 preserveAspectRatio="xMidYMid meet">
<metadata>
Created by potrace 1.16, written by Peter Selinger 2001-2019
</metadata>
<g transform="translate(0.000000,251.000000) scale(0.100000,-0.100000)"
fill="#000000" stroke="none">
<path d="M473 2472 c-10 -9 -25 -28 -34 -41 -15 -24 -16 -24 -92 -11 -43 7
-80 11 -82 8 -3 -3 19 -24 50 -47 30 -23 55 -43 55 -46 0 -2 -10 -21 -22 -42
-31 -54 -90 -108 -151 -137 -52 -24 -105 -82 -140 -151 -47 -94 -61 -313 -30
-480 8 -49 16 -146 17 -215 2 -137 10 -165 66 -217 34 -32 62 -131 74 -258 8
-81 27 -164 49 -215 l15 -35 -97 -90 c-113 -105 -141 -140 -141 -181 0 -36 26
-76 47 -72 10 2 28 -21 52 -65 46 -85 102 -150 128 -145 24 4 29 64 9 113 -25
59 -21 110 11 140 16 14 32 24 37 22 10 -3 40 -116 51 -192 11 -76 29 -105 67
-105 17 0 39 7 49 16 16 14 21 14 58 -6 35 -18 56 -20 139 -18 93 3 97 4 100
26 5 33 -11 48 -87 77 -72 27 -111 65 -111 109 0 13 -6 57 -14 97 -41 215 -40
208 -19 232 28 31 127 176 146 214 10 18 17 46 17 64 0 39 -124 282 -204 399
-54 79 -54 79 -61 177 -6 83 -3 110 15 178 25 94 29 190 10 301 -15 91 -9 134
19 134 10 0 24 7 32 16 7 8 26 22 42 30 15 9 33 29 39 45 5 16 20 35 31 41 19
10 26 5 67 -40 26 -29 50 -52 54 -52 12 0 -2 80 -25 140 -19 51 -20 54 -2 103
l18 50 -49 43 c-48 42 -152 104 -175 104 -6 0 -19 -8 -28 -18z"/>
</g>
</svg>
