<?xml version="1.0" standalone="no"?>
<!DOCTYPE svg PUBLIC "-//W3C//DTD SVG 20010904//EN"
 "http://www.w3.org/TR/2001/REC-SVG-20010904/DTD/svg10.dtd">
<svg version="1.0" xmlns="http://www.w3.org/2000/svg"
 width="400.000000pt" height="300.000000pt" viewBox="0 0 400.000000 300.000000"
 preserveAspectRatio="xMidYMid meet">
<metadata>
Created by potrace 1.16, written by Peter Selinger 2001-2019
</metadata>
<g transform="translate(0.000000,300.000000) scale(0.100000,-0.100000)"
fill="#000000" stroke="none">
<path d="M1081 2740 c-45 -7 -71 -30 -71 -61 0 -10 -16 -27 -35 -39 -27 -17
-35 -28 -35 -51 0 -25 5 -30 29 -35 60 -12 14 -41 -109 -68 -21 -4 -29 -17
-49 -83 -13 -43 -33 -93 -43 -111 -18 -28 -19 -43 -13 -107 4 -41 11 -77 16
-81 13 -8 11 -37 -4 -58 -12 -16 -29 -18 -137 -17 -94 1 -128 5 -140 16 -23
21 -119 20 -127 -1 -3 -9 -1 -50 6 -92 6 -43 20 -165 31 -272 11 -107 25 -215
30 -240 5 -25 17 -118 26 -208 9 -90 20 -178 25 -195 16 -55 11 -129 -11 -165
-11 -17 -24 -32 -30 -32 -5 0 -10 -7 -10 -15 0 -11 12 -15 50 -15 l50 0 28 56
27 55 270 -6 c148 -3 289 -8 313 -11 38 -5 42 -8 42 -34 0 -16 -4 -40 -9 -53
-9 -23 -7 -25 31 -31 22 -4 43 -4 47 -1 3 4 11 30 16 58 l10 52 307 -1 c335
-1 338 -1 338 -58 0 -17 4 -36 8 -42 10 -16 49 -26 71 -19 16 5 18 13 13 51
-3 33 -1 49 9 55 8 5 145 9 304 9 327 0 328 0 339 -70 l6 -40 50 0 c28 0 50 1
50 3 0 1 -9 21 -20 42 -33 64 -30 65 302 65 314 0 294 4 332 -65 18 -34 28
-41 62 -45 63 -9 67 -2 29 43 -19 22 -35 49 -35 60 0 33 30 216 55 337 21 105
37 184 95 490 36 190 49 273 44 282 -9 14 -75 9 -91 -7 -37 -38 -51 -1 -52
147 -1 102 -2 107 -27 127 -14 11 -41 25 -60 31 -50 17 -45 40 10 40 25 0 48
4 51 10 6 10 -29 85 -45 95 -5 3 -10 17 -10 31 0 20 -9 29 -47 46 -67 29 -125
30 -138 1 -5 -12 -33 -34 -63 -49 -36 -18 -51 -31 -48 -41 4 -8 6 -17 6 -19 0
-2 16 -4 35 -4 39 0 42 -5 20 -30 -12 -14 -13 -23 -5 -46 6 -16 8 -30 3 -31
-51 -18 -79 -42 -94 -83 -34 -91 -59 -176 -59 -198 l0 -23 -192 7 c-208 6
-242 14 -235 51 2 13 -1 31 -8 40 -12 15 -15 15 -46 -11 -31 -27 -37 -28 -96
-22 -82 8 -90 12 -102 46 -6 19 -19 32 -36 36 -35 9 -54 -9 -37 -36 13 -21 8
-45 -16 -72 -21 -24 -193 -26 -212 -3 -16 20 -59 19 -81 -1 -15 -14 -43 -15
-236 -7 l-218 8 0 60 c0 43 -6 69 -19 89 -18 28 -19 29 -92 22 l-74 -6 0 34
c0 20 -8 40 -20 51 -11 10 -22 34 -26 54 -10 60 -50 119 -87 129 -34 9 -35 15
-15 75 11 31 20 40 51 49 20 6 37 17 37 24 0 8 -22 25 -50 39 -32 16 -50 32
-50 43 0 22 -36 63 -53 61 -7 -1 -32 -5 -56 -9z m-176 -522 c-4 -17 -1 -36 9
-50 11 -15 12 -25 5 -34 -7 -9 -8 -28 -1 -59 9 -43 9 -45 -13 -45 -40 0 -52
35 -44 126 4 45 10 92 14 104 7 23 8 23 22 5 8 -12 11 -30 8 -47z m2545 -168
c0 -5 -7 -10 -15 -10 -8 0 -15 5 -15 10 0 6 7 10 15 10 8 0 15 -4 15 -10z
m-2604 -100 l151 0 13 -59 c7 -33 9 -65 5 -71 -6 -10 -63 -12 -247 -8 -132 3
-243 10 -248 14 -4 5 -11 38 -15 73 l-7 64 98 -6 c55 -4 167 -7 250 -7z m439
-10 c11 -19 -7 -130 -21 -130 -8 0 -14 8 -14 18 0 9 -14 37 -30 62 -16 25 -30
48 -30 53 0 11 88 9 95 -3z m690 -70 l0 -65 -225 -3 c-210 -2 -226 -1 -251 17
-15 11 -39 23 -53 27 -38 9 -21 24 28 24 47 0 66 13 66 47 l0 23 218 -2 217
-3 0 -65z m245 26 c0 -37 10 -56 30 -56 20 0 32 -21 21 -38 -5 -8 -35 -9 -101
-4 l-95 7 -3 58 -3 57 76 0 c73 0 75 -1 75 -24z m600 -31 c3 -27 9 -56 13 -62
6 -10 -19 -13 -117 -13 -118 0 -126 1 -126 19 0 12 11 25 27 33 15 7 29 22 31
33 7 45 9 46 89 43 l78 -3 5 -50z m328 33 c-7 -19 -40 -21 -78 -4 l-35 15 58
1 c43 0 58 -3 55 -12z m408 -15 c-3 -16 -8 -47 -11 -70 l-7 -43 -68 0 c-71 0
-97 13 -80 40 6 8 10 29 10 46 0 45 16 54 93 54 l69 0 -6 -27z m-1048 -65 c-2
-17 -11 -24 -30 -26 -24 -3 -28 0 -28 22 0 22 4 26 31 26 26 0 30 -3 27 -22z
m-1497 -87 c3 -3 11 -25 17 -47 23 -80 41 -74 -237 -74 -202 0 -250 3 -254 14
-11 27 -19 105 -12 116 7 12 474 3 486 -9z m947 -11 c10 0 12 -16 10 -62 -2
-35 -6 -62 -10 -60 -5 1 -180 2 -390 3 -351 1 -394 4 -305 23 31 7 34 26 11
61 -9 13 -14 28 -11 32 3 4 157 7 344 5 186 -1 344 -2 351 -2z m316 -36 c4
-14 2 -41 -4 -60 l-12 -34 -93 0 c-52 0 -96 4 -99 9 -3 4 -3 31 1 60 l6 51 97
0 c97 0 98 0 104 -26z m226 5 c0 -31 19 -59 39 -59 21 0 31 19 31 56 l0 24
144 0 144 0 22 -36 c26 -44 18 -54 -44 -61 -26 -3 -49 -10 -52 -14 -3 -5 -95
-9 -205 -9 l-199 0 0 29 c0 26 4 30 33 33 27 2 33 8 35 31 3 21 9 27 28 27 18
0 24 -5 24 -21z m703 -41 c-3 -29 -10 -59 -16 -66 -10 -13 -133 -12 -155 2
-13 8 -17 98 -5 109 3 4 46 7 94 7 l88 0 -6 -52z m312 5 c-12 -87 -7 -83 -101
-83 -47 0 -84 4 -84 10 0 5 8 34 17 65 l17 55 79 0 78 0 -6 -47z m-1172 -32
c6 -24 0 -31 -25 -31 -11 0 -18 7 -18 18 0 36 34 45 43 13z m-1333 -86 c157
-7 282 -10 633 -12 l317 -3 0 -61 0 -62 -567 8 c-313 4 -629 10 -703 14 l-135
6 -3 60 -3 60 178 -3 c98 -1 225 -4 283 -7z m1963 -32 c215 -6 217 -6 210 -27
-3 -12 -9 -36 -12 -55 l-6 -34 -460 2 c-253 1 -502 4 -552 8 l-93 6 0 53 0 54
348 0 c191 0 445 -3 565 -7z m511 -2 c10 -15 -11 -104 -27 -115 -8 -7 -44 -9
-88 -6 -59 4 -73 8 -70 20 2 8 6 31 8 50 7 61 6 60 92 60 44 0 82 -4 85 -9z
m-1996 -172 c40 -5 163 -9 273 -9 l200 0 -3 -52 -3 -53 -614 4 c-338 2 -648 6
-690 10 l-76 6 -2 43 c-1 24 -4 50 -7 58 -5 13 44 14 422 9 235 -4 460 -11
500 -16z m1176 -19 l482 0 0 -55 -1 -55 -345 0 c-190 0 -436 3 -547 7 l-203 6
0 47 c0 26 3 50 8 54 4 5 34 5 66 2 32 -3 276 -6 540 -6z m782 -37 c-3 -21 -6
-46 -6 -55 0 -16 -11 -18 -95 -18 l-95 0 0 33 c0 18 7 43 16 55 14 20 24 22
101 22 l86 0 -7 -37z m-1826 -134 c52 -6 147 -9 210 -7 l115 3 3 -37 3 -38
-48 0 c-577 5 -1264 21 -1285 29 -22 8 -28 17 -28 42 l0 31 468 -6 c257 -4
510 -12 562 -17z m1792 -14 c8 -11 0 -55 -12 -68 -4 -5 -310 -6 -679 -1 l-671
7 0 32 c0 17 2 34 5 37 10 10 1350 3 1357 -7z"/>
</g>
</svg>
