<?xml version="1.0" standalone="no"?>
<!DOCTYPE svg PUBLIC "-//W3C//DTD SVG 20010904//EN"
 "http://www.w3.org/TR/2001/REC-SVG-20010904/DTD/svg10.dtd">
<svg version="1.0" xmlns="http://www.w3.org/2000/svg"
 width="130.000000pt" height="209.000000pt" viewBox="0 0 130.000000 209.000000"
 preserveAspectRatio="xMidYMid meet">
<metadata>
Created by potrace 1.16, written by Peter Selinger 2001-2019
</metadata>
<g transform="translate(0.000000,209.000000) scale(0.100000,-0.100000)"
fill="#000000" stroke="none">
<path d="M580 1819 c-16 -16 -32 -38 -35 -49 -3 -11 -19 -21 -38 -25 -49 -11
-77 -32 -77 -60 0 -23 4 -25 45 -25 34 0 43 -3 39 -14 -3 -8 4 -32 15 -55 12
-22 21 -44 21 -49 0 -5 -17 -12 -38 -16 -51 -8 -86 -36 -106 -87 -10 -23 -37
-67 -62 -99 -66 -84 -62 -110 38 -217 45 -49 48 -55 48 -105 0 -29 -5 -71 -11
-93 -5 -22 -14 -87 -18 -145 -5 -62 -19 -142 -35 -195 -14 -49 -33 -114 -42
-144 -18 -63 -12 -101 16 -101 18 0 20 -7 20 -77 -1 -86 -9 -105 -61 -131 -63
-32 -49 -43 51 -39 74 3 94 7 102 20 5 9 16 17 25 17 14 0 12 4 -6 24 l-22 24
24 58 c23 54 29 60 61 65 20 3 44 13 54 22 49 44 82 3 82 -103 1 -87 11 -107
60 -112 l35 -3 -4 72 c-5 102 13 169 50 188 15 8 41 15 58 15 16 0 37 7 45 16
23 22 21 112 -5 176 -28 71 -20 94 32 102 23 4 42 5 43 4 14 -27 81 -98 92
-98 21 0 17 10 -31 74 -48 63 -51 75 -59 207 -3 47 -9 105 -15 130 -5 24 -15
79 -22 121 -11 72 -14 79 -45 97 -39 23 -42 45 -14 81 31 40 26 75 -16 107
-20 15 -45 46 -54 69 -17 39 -29 47 -92 68 -19 6 -25 26 -9 26 17 0 99 -38
105 -49 10 -16 26 -13 26 4 0 8 -10 19 -21 26 -36 19 -89 77 -89 97 0 14 15
25 50 40 28 12 50 25 50 29 -1 22 -32 44 -71 51 -37 6 -47 13 -61 41 -21 41
-34 51 -71 51 -19 0 -38 -10 -57 -31z m-55 -497 c4 -26 13 -67 21 -91 16 -50
11 -65 -17 -51 -21 12 -22 11 -37 -50 l-8 -35 -24 48 c-13 26 -27 47 -30 47
-7 0 -30 45 -30 60 0 15 102 130 110 125 5 -3 12 -27 15 -53z m254 14 l23 -25
-33 -50 c-18 -28 -36 -51 -41 -51 -4 0 -5 28 -2 63 9 98 14 104 53 63z m115
-172 c21 -20 20 -83 -1 -106 -25 -28 -50 -22 -62 13 -17 48 -13 76 11 93 28
20 33 20 52 0z m40 -176 c4 -13 9 -72 12 -133 5 -90 3 -114 -9 -130 -27 -34
-51 -8 -59 61 -3 32 -11 72 -17 87 -6 16 -11 50 -11 77 0 52 -3 49 66 59 7 0
15 -9 18 -21z"/>
</g>
</svg>
