<?xml version="1.0" standalone="no"?>
<!DOCTYPE svg PUBLIC "-//W3C//DTD SVG 20010904//EN"
 "http://www.w3.org/TR/2001/REC-SVG-20010904/DTD/svg10.dtd">
<svg version="1.0" xmlns="http://www.w3.org/2000/svg"
 width="83.000000pt" height="251.000000pt" viewBox="0 0 83.000000 251.000000"
 preserveAspectRatio="xMidYMid meet">
<metadata>
Created by potrace 1.16, written by Peter Selinger 2001-2019
</metadata>
<g transform="translate(0.000000,251.000000) scale(0.100000,-0.100000)"
fill="#000000" stroke="none">
<path d="M496 2406 c-28 -63 -39 -76 -63 -81 -42 -9 -123 -47 -123 -58 0 -5
32 -8 73 -6 71 4 72 4 75 -22 2 -15 -5 -32 -17 -43 -14 -13 -17 -23 -11 -35 5
-9 12 -33 15 -53 7 -45 28 -68 61 -68 13 0 24 -6 24 -14 0 -29 -23 -77 -42
-87 -11 -6 -33 -40 -50 -76 -16 -36 -47 -87 -69 -115 -45 -58 -48 -82 -14
-129 54 -74 64 -94 70 -140 8 -57 -5 -130 -47 -259 -47 -145 -125 -290 -229
-428 -36 -48 -49 -74 -49 -98 0 -29 3 -34 24 -34 18 0 31 -10 47 -40 12 -22
40 -51 61 -65 29 -19 38 -32 38 -53 0 -35 -43 -188 -63 -226 -9 -16 -19 -53
-22 -81 -6 -42 -13 -55 -43 -81 -21 -17 -48 -35 -62 -39 -31 -9 -60 -34 -60
-51 0 -15 85 -10 133 8 20 8 31 7 42 -2 8 -7 25 -10 39 -6 19 5 28 18 40 59 9
30 28 71 42 93 33 47 107 189 123 234 10 31 13 32 47 27 20 -4 47 -16 59 -27
13 -12 49 -26 89 -33 61 -11 70 -16 101 -56 19 -24 35 -51 35 -60 0 -20 19
-41 37 -41 19 0 17 95 -3 125 -15 23 -15 25 0 31 19 7 21 47 4 62 -7 5 -40 21
-73 34 -64 26 -165 93 -165 110 0 12 42 6 112 -16 64 -20 81 -5 73 62 -9 69
10 243 40 355 36 140 34 175 -19 277 -48 94 -60 140 -48 185 7 24 14 30 38 30
25 1 30 5 38 40 25 113 12 417 -24 540 -18 65 -22 108 -8 102 7 -3 21 -8 31
-12 33 -14 18 32 -29 84 l-46 51 7 65 7 65 -63 29 c-35 16 -83 32 -106 36
l-42 7 -35 -76z m224 -351 c0 -8 12 -39 27 -69 31 -65 23 -84 -16 -40 -27 30
-48 104 -36 125 8 12 25 2 25 -16z"/>
</g>
</svg>
