<?xml version="1.0" standalone="no"?>
<!DOCTYPE svg PUBLIC "-//W3C//DTD SVG 20010904//EN"
 "http://www.w3.org/TR/2001/REC-SVG-20010904/DTD/svg10.dtd">
<svg version="1.0" xmlns="http://www.w3.org/2000/svg"
 width="400.000000pt" height="300.000000pt" viewBox="0 0 400.000000 300.000000"
 preserveAspectRatio="xMidYMid meet">
<metadata>
Created by potrace 1.16, written by Peter Selinger 2001-2019
</metadata>
<g transform="translate(0.000000,300.000000) scale(0.100000,-0.100000)"
fill="#000000" stroke="none">
<path d="M1395 2424 c-10 -15 -17 -49 -19 -87 -2 -59 -19 -87 -32 -53 -3 9
-17 16 -30 16 -21 0 -24 -4 -24 -40 0 -30 9 -51 35 -86 39 -51 39 -48 25 -221
-9 -121 -1 -203 29 -288 6 -16 13 -41 15 -55 3 -15 17 -42 31 -60 43 -57 135
-202 135 -213 0 -6 16 -34 37 -64 32 -46 37 -63 44 -135 4 -46 12 -127 19
-181 18 -142 11 -216 -23 -257 -34 -40 -31 -54 15 -58 26 -2 43 4 67 23 28 25
31 32 31 88 1 83 18 265 26 279 15 24 27 -32 32 -148 5 -119 4 -122 -24 -172
-29 -52 -30 -59 -4 -62 48 -7 67 1 92 38 22 34 26 54 32 158 8 149 43 289 79
319 13 12 53 28 88 35 35 7 89 19 119 27 66 17 198 28 232 20 17 -4 31 -21 44
-48 33 -73 69 -114 148 -163 75 -48 76 -50 76 -90 0 -23 -9 -65 -20 -94 -11
-29 -20 -61 -20 -71 0 -11 -11 -33 -25 -49 -14 -16 -26 -40 -27 -53 -3 -21 1
-24 30 -22 18 0 40 7 49 15 21 17 73 133 73 163 0 28 26 53 41 38 5 -5 11 -41
12 -79 1 -52 -3 -75 -16 -94 -25 -35 -22 -42 20 -38 32 3 40 8 54 38 22 48 43
181 35 223 -3 18 -17 44 -31 57 -14 13 -25 31 -25 41 0 26 72 160 84 156 10
-3 92 -135 114 -182 6 -11 19 -29 31 -39 11 -11 21 -24 21 -31 0 -16 71 -82
96 -89 32 -10 120 50 137 93 17 41 7 109 -23 155 -11 17 -30 51 -42 76 -50
105 -133 213 -280 365 -126 130 -185 169 -348 230 -41 15 -81 32 -88 38 -7 6
-52 14 -100 18 -48 4 -125 13 -172 18 -47 6 -149 11 -227 11 -78 0 -144 4
-148 9 -3 5 -22 15 -42 22 -20 6 -51 27 -70 45 -30 30 -31 34 -13 34 12 0 35
-7 52 -16 35 -18 54 -8 43 25 -3 11 -38 47 -78 79 -63 51 -75 67 -102 130 -36
86 -47 97 -110 120 -44 16 -51 23 -70 67 -11 28 -26 60 -33 73 -17 30 -55 29
-77 -4z"/>
</g>
</svg>
