<?xml version="1.0" standalone="no"?>
<!DOCTYPE svg PUBLIC "-//W3C//DTD SVG 20010904//EN"
 "http://www.w3.org/TR/2001/REC-SVG-20010904/DTD/svg10.dtd">
<svg version="1.0" xmlns="http://www.w3.org/2000/svg"
 width="166.000000pt" height="215.000000pt" viewBox="0 0 166.000000 215.000000"
 preserveAspectRatio="xMidYMid meet">
<metadata>
Created by potrace 1.16, written by Peter Selinger 2001-2019
</metadata>
<g transform="translate(0.000000,215.000000) scale(0.100000,-0.100000)"
fill="#000000" stroke="none">
<path d="M552 1993 c-18 -8 -46 -33 -62 -53 -26 -33 -30 -46 -30 -104 0 -47
-4 -66 -13 -66 -24 0 -37 24 -37 66 0 33 -5 47 -22 58 -54 38 -88 3 -88 -89 0
-60 0 -61 -61 -125 -96 -102 -127 -186 -149 -395 -5 -44 -16 -102 -25 -130
-15 -44 -15 -62 -5 -150 32 -264 71 -385 136 -425 19 -12 42 -36 50 -52 22
-42 35 -194 23 -274 -10 -73 -17 -90 -48 -118 -23 -21 -28 -65 -9 -84 7 -7 43
-12 93 -12 78 0 83 1 111 31 l29 30 1 141 c1 107 5 142 15 149 22 14 27 12 72
-30 59 -54 123 -92 187 -111 65 -19 73 -37 35 -81 -25 -31 -27 -59 -4 -83 6
-6 81 -6 205 1 151 9 201 15 221 28 30 20 83 128 90 186 7 49 23 57 69 35 45
-21 66 -20 114 4 50 25 64 51 57 107 -4 36 0 49 18 71 51 62 59 116 25 181
l-19 39 20 27 c28 35 23 124 -9 158 -11 12 -24 40 -28 62 -9 52 -20 72 -43 80
-13 4 -26 25 -37 58 -19 60 -31 76 -63 82 -28 5 -22 -1 -53 55 -21 38 -30 45
-53 43 -20 -2 -40 8 -67 33 -77 69 -103 16 -40 -81 95 -149 110 -187 127 -333
3 -29 1 -90 -5 -135 -24 -174 -88 -234 -119 -110 -24 95 -109 225 -180 277
-25 19 -101 62 -169 97 -179 91 -251 167 -226 238 14 40 48 39 94 -3 61 -55
122 -62 128 -16 6 37 -15 95 -52 143 -30 39 -34 52 -38 123 -3 53 -13 98 -30
139 -18 43 -28 87 -33 155 -8 111 -20 156 -45 170 -23 12 -18 13 -58 -7z"/>
</g>
</svg>
