<?xml version="1.0" standalone="no"?>
<!DOCTYPE svg PUBLIC "-//W3C//DTD SVG 20010904//EN"
 "http://www.w3.org/TR/2001/REC-SVG-20010904/DTD/svg10.dtd">
<svg version="1.0" xmlns="http://www.w3.org/2000/svg"
 width="123.000000pt" height="186.000000pt" viewBox="0 0 123.000000 186.000000"
 preserveAspectRatio="xMidYMid meet">
<metadata>
Created by potrace 1.16, written by Peter Selinger 2001-2019
</metadata>
<g transform="translate(0.000000,186.000000) scale(0.100000,-0.100000)"
fill="#000000" stroke="none">
<path d="M241 1829 c-13 -5 -35 -17 -50 -28 -14 -10 -48 -26 -76 -36 -67 -25
-95 -44 -95 -64 0 -31 22 -41 92 -41 62 0 128 -19 128 -36 0 -4 -16 -33 -36
-66 -83 -136 -84 -264 -5 -441 45 -100 83 -150 201 -267 86 -85 113 -120 145
-184 34 -68 40 -88 39 -140 -1 -49 -30 -199 -60 -307 -3 -11 -21 -19 -54 -23
-34 -5 -50 -11 -50 -21 0 -8 -15 -21 -34 -29 -43 -18 -53 -34 -30 -51 16 -11
16 -15 5 -29 -10 -12 -11 -20 -3 -28 14 -14 52 -14 132 1 36 7 79 14 97 18 17
3 39 14 49 24 10 11 30 19 50 19 33 0 62 29 49 49 -4 8 12 77 74 315 13 50 19
93 15 113 -7 38 8 63 37 63 12 0 19 -7 19 -18 0 -10 7 -27 15 -38 13 -18 16
-18 44 -2 28 15 30 15 51 -7 12 -13 29 -38 38 -56 15 -30 22 -34 56 -34 23 0
41 -5 43 -12 7 -20 30 -15 47 9 19 27 20 66 4 120 -10 34 -9 40 7 52 39 29 6
145 -60 209 -273 267 -332 311 -535 396 -283 120 -307 153 -205 287 69 89 81
121 65 170 -31 92 -128 145 -209 113z"/>
</g>
</svg>
