<?xml version="1.0" standalone="no"?>
<!DOCTYPE svg PUBLIC "-//W3C//DTD SVG 20010904//EN"
 "http://www.w3.org/TR/2001/REC-SVG-20010904/DTD/svg10.dtd">
<svg version="1.0" xmlns="http://www.w3.org/2000/svg"
 width="400.000000pt" height="300.000000pt" viewBox="0 0 400.000000 300.000000"
 preserveAspectRatio="xMidYMid meet">
<metadata>
Created by potrace 1.16, written by Peter Selinger 2001-2019
</metadata>
<g transform="translate(0.000000,300.000000) scale(0.100000,-0.100000)"
fill="#000000" stroke="none">
<path d="M865 1491 c-3 -2 -2 -30 2 -61 5 -52 2 -64 -24 -111 -21 -36 -32 -74
-36 -114 -7 -72 -24 -135 -37 -135 -17 0 -12 182 5 204 32 42 21 47 -82 46
-54 -1 -107 0 -118 2 -21 3 -22 1 -9 -75 6 -35 3 -41 -37 -78 -24 -22 -68 -49
-101 -60 -69 -26 -130 -87 -149 -148 -11 -36 -10 -50 9 -109 12 -37 23 -97 25
-135 4 -91 13 -99 105 -91 76 7 90 20 50 46 l-23 15 28 56 c32 65 47 79 47 42
0 -44 26 -81 70 -99 59 -24 78 -3 45 48 -12 18 -13 30 -5 50 5 15 10 46 10 69
l0 42 35 -38 c19 -21 51 -45 70 -53 41 -17 52 -47 35 -99 -20 -61 -14 -65 110
-65 60 0 110 4 110 9 0 5 -11 16 -24 24 -22 15 -23 19 -14 64 5 26 6 80 2 120
-5 57 -3 79 12 112 l17 40 23 -50 c22 -48 45 -62 60 -37 14 22 6 159 -11 184
-8 13 -15 41 -15 62 0 22 -7 56 -15 75 -20 47 -19 66 3 74 27 10 62 45 62 63
0 9 -10 25 -21 36 -12 10 -27 32 -34 49 -13 29 -14 29 -95 30 -44 0 -83 -1
-85 -4z m-86 -583 c1 -10 -3 -18 -9 -18 -5 0 -10 17 -9 38 0 30 2 33 9 17 5
-11 9 -28 9 -37z"/>
</g>
</svg>
