<?xml version="1.0" standalone="no"?>
<!DOCTYPE svg PUBLIC "-//W3C//DTD SVG 20010904//EN"
 "http://www.w3.org/TR/2001/REC-SVG-20010904/DTD/svg10.dtd">
<svg version="1.0" xmlns="http://www.w3.org/2000/svg"
 width="400.000000pt" height="300.000000pt" viewBox="0 0 400.000000 300.000000"
 preserveAspectRatio="xMidYMid meet">
<metadata>
Created by potrace 1.16, written by Peter Selinger 2001-2019
</metadata>
<g transform="translate(0.000000,300.000000) scale(0.100000,-0.100000)"
fill="#000000" stroke="none">
<path d="M1797 2750 c-22 -17 -35 -20 -75 -14 -86 11 -127 -36 -52 -61 60 -20
52 -43 -49 -143 -89 -87 -141 -167 -141 -217 0 -12 -6 -45 -14 -75 -8 -30 -17
-112 -21 -182 -5 -97 -10 -128 -21 -128 -7 0 -17 6 -21 14 -4 7 -18 18 -30 25
-19 10 -26 8 -43 -9 -11 -11 -20 -29 -20 -39 0 -28 -13 -33 -96 -37 -163 -8
-372 -101 -483 -214 -93 -94 -152 -177 -186 -262 -18 -46 -37 -75 -61 -93 -67
-51 -100 -162 -87 -297 5 -53 10 -69 24 -73 11 -4 23 -23 29 -46 11 -38 16
-42 75 -51 11 -2 25 -13 31 -26 6 -13 19 -29 30 -36 16 -12 17 -17 5 -54 -20
-60 3 -84 39 -40 25 31 37 15 21 -28 -9 -26 -10 -39 -2 -47 14 -14 14 -70 0
-84 -13 -13 -4 -33 16 -33 33 0 65 25 81 64 l17 41 9 -27 c19 -56 80 -17 92
58 8 57 -6 98 -48 135 -21 17 -41 48 -48 70 -7 24 -35 66 -70 104 -32 35 -65
79 -73 99 -19 45 -21 180 -2 174 6 -3 13 -11 14 -19 13 -100 50 -151 160 -221
79 -50 108 -84 127 -151 16 -54 15 -61 -21 -285 -7 -45 14 -67 116 -113 46
-22 97 -50 113 -64 16 -14 35 -25 42 -25 8 0 25 -9 39 -20 21 -17 40 -20 116
-20 102 0 116 9 90 57 -14 27 -22 31 -188 99 -51 22 -104 49 -116 60 -39 36
-42 85 -10 156 15 34 30 84 34 112 l6 51 45 -3 c73 -5 92 -19 112 -87 10 -33
20 -86 23 -117 8 -69 32 -103 92 -129 61 -26 190 -114 220 -150 39 -46 88 -64
175 -64 45 0 82 5 88 11 20 20 1 53 -42 75 -23 12 -56 36 -73 55 -18 19 -41
34 -51 34 -34 0 -140 57 -184 99 l-43 41 5 83 c3 46 11 93 17 105 6 11 11 61
11 111 0 83 2 91 19 91 11 0 22 -4 25 -9 9 -15 158 -69 222 -80 33 -6 67 -20
80 -32 21 -20 27 -20 111 -10 48 6 91 11 96 11 4 0 23 -24 41 -53 38 -58 94
-114 146 -145 50 -29 173 -159 197 -207 11 -22 23 -56 27 -77 4 -25 19 -48 46
-72 40 -36 40 -36 135 -36 87 0 95 2 95 19 0 11 -11 28 -25 39 -59 47 -163
174 -200 245 -21 43 -61 104 -87 137 -44 54 -58 80 -42 80 16 0 152 -85 222
-138 41 -31 136 -117 209 -190 100 -99 140 -132 159 -132 16 0 39 -14 64 -40
46 -47 75 -56 149 -44 42 7 57 14 59 27 5 25 -33 64 -88 92 -25 13 -56 37 -69
55 -13 18 -46 43 -75 56 -62 29 -187 145 -250 233 -48 67 -69 86 -150 128
-101 52 -246 220 -246 283 0 33 35 60 78 60 37 0 43 -7 81 -105 35 -86 72
-132 139 -172 30 -18 52 -43 77 -86 52 -93 69 -108 232 -194 l53 -27 44 22
c75 36 81 52 78 223 -2 117 0 155 13 186 9 21 15 58 14 83 -3 45 -3 45 29 42
29 -2 32 1 32 25 0 16 -7 42 -16 58 -9 17 -20 45 -23 64 -4 24 -15 39 -36 51
-27 15 -30 22 -30 63 0 59 -14 75 -49 52 -24 -16 -28 -16 -73 1 -63 23 -93 51
-93 86 0 30 -31 68 -55 68 -8 0 -15 -9 -15 -20 0 -31 -22 -24 -57 17 l-31 38
-11 -27 c-13 -35 -27 -36 -35 -3 -5 19 -13 25 -33 25 -15 0 -36 9 -48 20 -17
16 -27 18 -54 10 -19 -5 -41 -6 -50 -1 -26 14 -90 20 -96 10 -8 -13 -62 -11
-87 2 -18 10 -24 8 -41 -15 -24 -33 -36 -33 -63 2 -21 25 -28 27 -123 32 -103
6 -135 18 -116 44 38 51 65 98 65 113 0 22 -78 73 -112 73 -14 0 -31 7 -38 15
-7 8 -37 22 -66 31 -88 25 -96 36 -97 135 -1 107 11 169 37 190 20 16 20 17 2
57 -19 43 -15 65 10 55 19 -7 94 64 94 89 0 23 1 22 45 -3 19 -12 42 -18 50
-15 27 10 17 56 -20 97 -19 22 -35 47 -35 58 0 30 -40 72 -87 92 -56 24 -64
24 -96 -1z m941 -1576 c54 -32 82 -76 82 -130 0 -56 22 -123 59 -184 34 -55
50 -110 33 -110 -6 0 -24 24 -41 53 -34 59 -90 120 -144 157 -20 14 -45 43
-56 65 -53 110 -73 164 -66 175 11 18 81 4 133 -26z"/>
</g>
</svg>
