<?xml version="1.0" standalone="no"?>
<!DOCTYPE svg PUBLIC "-//W3C//DTD SVG 20010904//EN"
 "http://www.w3.org/TR/2001/REC-SVG-20010904/DTD/svg10.dtd">
<svg version="1.0" xmlns="http://www.w3.org/2000/svg"
 width="334.000000pt" height="213.000000pt" viewBox="0 0 334.000000 213.000000"
 preserveAspectRatio="xMidYMid meet">
<metadata>
Created by potrace 1.16, written by Peter Selinger 2001-2019
</metadata>
<g transform="translate(0.000000,213.000000) scale(0.100000,-0.100000)"
fill="#000000" stroke="none">
<path d="M2023 1914 c-73 -42 -125 -97 -121 -127 8 -55 85 -15 134 69 42 72
86 71 129 -2 29 -49 30 -34 -8 -203 -15 -64 -30 -74 -52 -32 -24 47 -58 42
-142 -23 -38 -30 -88 -62 -111 -71 -23 -9 -44 -26 -47 -36 -7 -21 -75 -69 -99
-69 -11 0 -13 9 -9 38 6 44 -14 72 -52 72 -12 0 -67 -9 -120 -20 -170 -35
-319 -23 -444 35 -59 29 -85 35 -137 35 -81 0 -84 -6 -84 -146 l0 -106 -27 6
c-16 4 -62 9 -103 12 -145 11 -299 -41 -401 -134 -49 -45 -62 -52 -99 -52 -65
0 -80 -13 -80 -67 0 -25 5 -63 12 -84 11 -39 11 -40 -31 -78 -35 -32 -42 -44
-36 -63 11 -35 25 -48 51 -48 59 0 70 -13 92 -110 40 -170 134 -297 267 -360
157 -75 360 -42 490 81 40 38 59 49 72 44 47 -19 252 -25 508 -14 272 11 359
22 442 59 72 32 78 49 137 390 19 113 40 243 46 290 8 62 17 91 32 108 25 25
60 29 78 7 7 -8 21 -15 31 -15 15 0 89 -93 89 -113 0 -4 -23 -32 -51 -64 -54
-59 -110 -167 -128 -243 -5 -25 -12 -115 -15 -202 -5 -171 -7 -168 55 -168 44
0 61 -12 114 -84 69 -94 172 -157 275 -170 166 -19 347 69 434 212 89 147 101
328 32 475 -32 67 -32 78 -1 107 14 13 24 29 23 35 -7 26 -137 129 -207 163
-73 36 -80 37 -181 37 -58 0 -134 -4 -170 -9 l-65 -8 -32 54 c-18 30 -33 63
-33 74 0 12 17 34 40 53 53 43 68 91 50 169 -14 67 -37 110 -62 118 -34 11
-80 -8 -119 -48 l-39 -41 -40 18 c-35 16 -42 26 -66 89 -79 212 -101 228 -221
160z m-493 -607 c0 -20 -41 -54 -72 -62 -25 -6 -28 -5 -28 19 0 20 8 29 33 40
41 18 67 19 67 3z m-167 -48 c21 -33 0 -65 -66 -100 -36 -18 -71 -30 -80 -26
-9 3 -18 23 -22 50 -12 76 -8 81 65 88 85 8 91 7 103 -12z m-259 -25 c20 -8
21 -48 1 -64 -12 -10 -20 -9 -40 4 -15 10 -29 24 -32 33 -10 25 33 42 71 27z
m1014 -70 c5 -33 -22 -49 -58 -34 -16 7 -30 18 -30 24 0 40 82 49 88 10z
m-1298 -93 c68 -34 75 -40 75 -67 0 -39 -29 -44 -61 -9 -32 35 -83 55 -138 55
-36 0 -48 4 -56 21 -9 15 -8 24 1 35 19 23 93 9 179 -35z m-232 7 c19 -19 15
-30 -38 -87 -42 -45 -53 -52 -75 -47 -41 10 -32 46 25 100 51 48 68 54 88 34z
m1204 -118 c-4 -61 -17 -98 -31 -84 -8 8 -28 129 -23 144 2 6 16 10 31 8 26
-3 26 -4 23 -68z m1053 46 c59 -28 118 -86 140 -138 22 -54 20 -174 -5 -241
-72 -192 -281 -237 -427 -92 -67 68 -85 123 -73 224 10 73 26 122 54 156 16
20 16 20 42 -9 21 -24 24 -35 18 -60 -4 -17 -7 -65 -8 -108 -1 -71 1 -79 30
-115 68 -84 187 -75 257 19 40 53 32 165 -16 230 -21 28 -44 40 -113 57 -42
11 -64 39 -64 81 0 30 98 28 165 -4z m-749 -52 c-3 -9 -16 -75 -28 -146 -21
-126 -34 -158 -64 -158 -20 0 -17 24 6 45 11 10 20 28 20 39 0 27 -36 86 -52
87 -20 2 -20 2 -60 -5 -49 -9 -48 0 2 74 34 50 46 60 78 65 20 4 44 8 52 10
39 8 52 5 46 -11z m-1141 -139 c-1 -90 -4 -105 -29 -152 -16 -28 -35 -54 -44
-58 -35 -13 -58 49 -28 75 31 25 49 97 42 163 -3 35 -3 67 1 71 4 4 19 6 33 4
25 -3 25 -3 25 -103z m640 75 c27 -28 27 -30 11 -55 -20 -31 -31 -32 -50 -2
-14 21 -11 87 3 87 4 0 20 -13 36 -30z m-317 -2 c25 -25 14 -62 -30 -100 -43
-36 -43 -37 -48 -115 -5 -73 -7 -78 -29 -81 -36 -5 -43 10 -25 53 9 23 17 73
18 121 3 101 20 134 69 134 18 0 38 -5 45 -12z m-811 -10 c4 -7 8 -38 9 -69 1
-57 13 -89 46 -126 36 -39 -1 -95 -40 -60 -49 44 -94 214 -68 255 10 16 43 15
53 0z"/>
</g>
</svg>
