<?xml version="1.0" standalone="no"?>
<!DOCTYPE svg PUBLIC "-//W3C//DTD SVG 20010904//EN"
 "http://www.w3.org/TR/2001/REC-SVG-20010904/DTD/svg10.dtd">
<svg version="1.0" xmlns="http://www.w3.org/2000/svg"
 width="400.000000pt" height="300.000000pt" viewBox="0 0 400.000000 300.000000"
 preserveAspectRatio="xMidYMid meet">
<metadata>
Created by potrace 1.16, written by Peter Selinger 2001-2019
</metadata>
<g transform="translate(0.000000,300.000000) scale(0.100000,-0.100000)"
fill="#000000" stroke="none">
<path d="M2217 1553 c-12 -12 -7 -80 8 -116 8 -20 15 -42 15 -49 0 -7 -36 -44
-80 -82 -44 -37 -80 -75 -80 -82 0 -28 40 -13 82 31 47 48 75 59 91 34 17 -26
1 -49 -33 -49 -42 0 -120 -46 -192 -115 -37 -36 -82 -67 -115 -80 -52 -21 -55
-22 -104 -5 -31 10 -59 27 -71 43 -15 20 -28 27 -53 27 -19 0 -44 5 -57 10
-13 6 -57 14 -98 18 l-75 7 -1 37 c-1 36 -10 54 -52 107 -38 47 -71 2 -36 -48
9 -12 27 -52 40 -87 26 -73 31 -60 -49 -125 -30 -26 -40 -29 -52 -19 -12 10
-15 10 -15 -2 0 -8 -9 -23 -19 -32 -14 -13 -20 -34 -23 -90 -3 -66 -7 -77 -36
-110 -18 -21 -31 -43 -29 -49 2 -7 25 -12 52 -12 49 0 49 0 57 -38 17 -83 71
-153 140 -181 22 -9 67 -16 106 -16 57 0 80 5 131 31 52 26 66 39 86 80 19 36
31 49 48 49 12 0 28 4 36 9 10 6 25 4 45 -7 20 -10 72 -20 141 -25 150 -11
170 -11 197 6 13 8 44 18 70 21 41 6 49 11 67 46 11 21 20 47 21 57 1 37 1 60
-1 143 -2 113 9 164 39 168 14 2 30 -6 47 -25 28 -32 31 -55 10 -73 -8 -7 -27
-36 -42 -64 -22 -42 -26 -64 -26 -125 1 -66 4 -76 27 -98 14 -13 26 -28 26
-34 0 -6 23 -34 51 -64 64 -68 123 -90 215 -82 78 8 155 39 181 76 35 47 73
129 73 159 0 51 -30 147 -60 190 -17 23 -30 51 -30 62 0 29 -87 70 -163 77
-47 4 -76 0 -120 -15 -43 -14 -61 -16 -67 -8 -5 6 -22 27 -37 46 -56 70 -55
67 -43 90 8 16 8 35 -1 77 -12 61 -53 124 -146 225 -29 32 -53 65 -53 73 0 15
-31 21 -43 8z m-219 -585 c7 -7 12 -19 12 -28 0 -10 9 -28 21 -41 l20 -24 -22
-18 c-30 -24 -43 -17 -49 29 -3 21 -9 44 -13 51 -8 12 1 43 12 43 4 0 12 -5
19 -12z m792 -26 c33 -13 71 -55 62 -68 -4 -6 -28 -20 -54 -33 -66 -31 -88
-19 -88 50 0 31 -4 48 -10 44 -5 -3 -10 -24 -10 -46 0 -21 -4 -39 -9 -39 -14
0 -71 62 -71 77 0 8 10 18 23 23 27 10 123 6 157 -8z m-192 -67 c16 -35 16
-35 -19 -25 -39 12 -43 15 -36 35 10 24 43 18 55 -10z m297 -75 c9 -40 -4
-100 -22 -100 -16 0 -89 36 -96 47 -10 18 14 53 50 71 45 24 60 20 68 -18z
m-301 1 c47 -27 54 -46 25 -70 -13 -11 -37 -26 -53 -32 -25 -11 -30 -10 -42 6
-14 19 -19 96 -7 108 11 12 47 6 77 -12z m-1131 -83 c37 -14 35 -46 -10 -107
-8 -12 -52 45 -58 75 -7 41 1 58 24 49 9 -4 28 -12 44 -17z m1231 -76 c11 -68
2 -80 -51 -64 -43 14 -104 62 -87 68 6 3 26 16 45 30 20 15 44 24 59 22 22 -3
26 -10 34 -56z m119 37 c23 -12 44 -23 46 -25 8 -8 -51 -63 -81 -75 -38 -16
-48 -3 -48 69 0 46 2 52 20 52 12 0 40 -10 63 -21z m-1227 -51 c15 -30 15 -32
-2 -45 -19 -14 -70 -11 -86 5 -4 4 1 22 12 40 26 42 54 42 76 0z"/>
</g>
</svg>
