<?xml version="1.0" standalone="no"?>
<!DOCTYPE svg PUBLIC "-//W3C//DTD SVG 20010904//EN"
 "http://www.w3.org/TR/2001/REC-SVG-20010904/DTD/svg10.dtd">
<svg version="1.0" xmlns="http://www.w3.org/2000/svg"
 width="400.000000pt" height="300.000000pt" viewBox="0 0 400.000000 300.000000"
 preserveAspectRatio="xMidYMid meet">
<metadata>
Created by potrace 1.16, written by Peter Selinger 2001-2019
</metadata>
<g transform="translate(0.000000,300.000000) scale(0.100000,-0.100000)"
fill="#000000" stroke="none">
<path d="M2250 2795 c0 -8 -6 -15 -14 -15 -7 0 -19 -7 -26 -15 -9 -11 -8 -21
7 -46 18 -31 18 -32 -1 -43 -51 -29 -66 -54 -66 -106 0 -44 3 -52 25 -62 31
-14 33 -48 4 -74 -35 -32 -49 -70 -49 -136 0 -35 -4 -77 -9 -95 -7 -24 -5 -37
7 -54 9 -13 19 -46 24 -73 4 -28 16 -91 25 -140 l18 -90 60 3 c33 1 63 5 67 7
5 3 8 56 8 117 0 112 6 157 20 157 7 0 27 -125 37 -227 4 -44 8 -53 24 -53 29
0 31 16 20 141 -9 108 -4 149 18 149 4 0 11 -34 14 -75 4 -42 11 -84 17 -95 5
-10 10 -40 10 -65 0 -39 3 -46 18 -43 14 3 17 15 17 85 0 45 3 84 7 88 5 5 18
-58 31 -155 1 -8 10 -16 21 -18 16 -3 18 3 16 65 -4 139 -1 195 12 191 18 -6
47 -122 48 -184 0 -55 16 -78 47 -72 19 4 20 11 7 105 -4 33 -1 76 7 112 12
56 15 60 46 66 l33 6 0 85 c0 89 -11 123 -49 158 -18 16 -21 31 -21 98 0 70
-2 78 -19 78 -12 0 -21 9 -25 25 -4 14 -17 32 -31 41 -20 13 -22 19 -13 39 14
31 4 55 -22 55 -11 0 -20 7 -20 15 0 9 -9 15 -25 15 -15 0 -25 -6 -25 -14 0
-7 -9 -16 -20 -19 -24 -6 -26 -34 -3 -59 15 -17 15 -20 -7 -43 -21 -22 -22
-31 -18 -97 5 -68 -5 -118 -23 -118 -19 0 -29 45 -31 130 -2 88 -3 91 -24 86
-16 -4 -23 -1 -27 14 -3 11 -21 29 -41 41 -37 21 -44 33 -26 44 17 11 11 47
-9 52 -11 3 -22 11 -25 19 -7 19 -46 18 -46 -1z"/>
</g>
</svg>
