<?xml version="1.0" standalone="no"?>
<!DOCTYPE svg PUBLIC "-//W3C//DTD SVG 20010904//EN"
 "http://www.w3.org/TR/2001/REC-SVG-20010904/DTD/svg10.dtd">
<svg version="1.0" xmlns="http://www.w3.org/2000/svg"
 width="175.000000pt" height="216.000000pt" viewBox="0 0 175.000000 216.000000"
 preserveAspectRatio="xMidYMid meet">
<metadata>
Created by potrace 1.16, written by Peter Selinger 2001-2019
</metadata>
<g transform="translate(0.000000,216.000000) scale(0.100000,-0.100000)"
fill="#000000" stroke="none">
<path d="M492 2018 c-15 -15 -16 -45 -1 -54 7 -4 -2 -19 -25 -40 -28 -26 -36
-41 -36 -68 0 -19 5 -38 10 -41 6 -4 10 6 10 23 0 17 10 37 25 52 27 25 42 22
30 -7 -12 -29 -5 -96 15 -128 12 -21 19 -60 23 -132 6 -103 19 -149 38 -137
10 6 6 120 -7 202 -7 46 10 40 42 -15 37 -63 102 -133 125 -133 10 0 43 -10
73 -22 l54 -22 4 -126 c3 -124 0 -143 -39 -209 -2 -2 -20 4 -40 14 -21 10 -45
21 -54 25 -8 5 -31 0 -52 -10 -20 -10 -39 -14 -43 -9 -10 17 -36 9 -41 -12 -5
-17 -11 -20 -34 -15 -22 4 -32 0 -47 -19 -12 -15 -30 -25 -46 -25 -20 0 -26
-5 -26 -21 0 -12 -8 -23 -19 -26 -10 -2 -28 -17 -39 -33 -12 -15 -42 -36 -67
-45 -50 -20 -56 -35 -21 -58 13 -9 26 -26 29 -39 3 -13 20 -63 36 -111 16 -48
33 -109 36 -135 14 -106 24 -120 80 -114 27 3 39 10 45 28 6 14 18 24 28 24
11 0 31 9 45 20 14 11 31 20 39 20 21 0 50 -87 59 -176 5 -61 13 -91 28 -110
26 -33 28 -106 5 -152 -28 -56 -7 -79 66 -73 46 4 48 14 54 232 4 150 9 216
20 240 8 19 17 42 20 52 7 21 25 19 40 -6 8 -12 7 -26 -3 -49 -24 -59 -25 -95
-3 -102 32 -11 69 10 111 64 30 38 41 61 41 86 0 19 5 34 10 34 22 0 59 -49
64 -86 4 -22 11 -59 18 -84 6 -25 13 -60 16 -77 5 -37 -25 -212 -40 -230 -5
-6 -8 -27 -6 -45 3 -29 7 -33 36 -36 43 -4 63 13 62 52 -1 17 5 99 11 181 7
83 12 196 10 253 -2 87 0 103 14 108 9 4 22 0 30 -7 19 -21 45 -120 45 -177 0
-32 9 -70 27 -108 26 -58 26 -58 14 -173 -7 -69 -8 -118 -3 -123 5 -5 22 -8
38 -6 27 3 29 6 34 59 6 72 -5 417 -15 446 -12 36 11 27 37 -15 21 -34 23 -35
26 -14 2 13 -4 32 -13 42 -18 20 -13 56 5 45 16 -10 -1 88 -19 108 -15 17 -14
20 4 33 17 13 18 18 6 47 -7 17 -17 71 -21 119 -10 106 -29 145 -90 176 -35
18 -61 22 -128 22 -94 0 -129 14 -170 69 -18 24 -20 35 -12 56 6 15 10 37 10
49 0 18 7 25 30 29 16 4 36 4 44 1 22 -8 27 24 10 67 -9 22 -13 43 -9 47 4 4
10 0 13 -8 3 -8 21 -31 41 -50 l36 -35 3 28 c2 15 8 27 13 27 5 0 9 8 9 18 0
10 5 23 10 28 8 8 6 20 -7 41 -16 29 -16 33 -1 69 10 22 20 64 24 94 3 30 15
66 25 79 28 35 25 61 -7 61 -23 0 -25 3 -19 28 4 20 1 33 -11 43 -27 22 -49
-17 -63 -114 -15 -111 -29 -151 -46 -137 -7 6 -15 23 -18 39 -7 31 -57 95 -89
112 -13 7 -26 5 -48 -8 -23 -13 -39 -39 -67 -105 -38 -94 -59 -112 -101 -89
-12 6 -35 11 -52 11 -27 0 -45 14 -115 88 -47 48 -85 93 -85 100 0 15 22 16
38 0 9 -9 12 -8 12 4 0 20 -19 35 -50 40 -16 2 -24 9 -21 18 13 50 13 60 -2
60 -8 0 -18 -6 -20 -12 -3 -7 -4 0 -3 16 2 16 10 33 19 38 17 9 23 34 10 41
-23 13 -80 16 -91 5z m123 -1282 c10 -61 1 -88 -33 -108 l-29 -17 1 77 c1 58
6 85 20 107 18 28 19 28 27 8 4 -11 10 -41 14 -67z m155 -132 c0 -8 -7 -14
-15 -14 -15 0 -21 21 -9 33 10 9 24 -2 24 -19z m10 -149 c-13 -35 -30 -22 -30
24 0 48 10 59 27 27 9 -18 10 -32 3 -51z"/>
</g>
</svg>
