<?xml version="1.0" standalone="no"?>
<!DOCTYPE svg PUBLIC "-//W3C//DTD SVG 20010904//EN"
 "http://www.w3.org/TR/2001/REC-SVG-20010904/DTD/svg10.dtd">
<svg version="1.0" xmlns="http://www.w3.org/2000/svg"
 width="400.000000pt" height="300.000000pt" viewBox="0 0 400.000000 300.000000"
 preserveAspectRatio="xMidYMid meet">
<metadata>
Created by potrace 1.16, written by Peter Selinger 2001-2019
</metadata>
<g transform="translate(0.000000,300.000000) scale(0.100000,-0.100000)"
fill="#000000" stroke="none">
<path d="M721 2701 c-29 -53 -7 -137 83 -322 62 -129 68 -167 39 -250 -15 -42
-16 -53 -5 -81 7 -18 15 -43 16 -54 2 -12 10 -32 19 -45 14 -19 17 -50 17
-177 0 -172 10 -211 59 -236 39 -21 54 -20 101 4 52 27 67 59 76 165 7 94 24
125 64 125 41 0 68 -42 75 -116 10 -94 18 -110 79 -174 42 -43 55 -64 60 -98
3 -23 22 -71 40 -107 19 -35 37 -86 41 -112 3 -26 15 -79 26 -118 43 -145 36
-470 -12 -572 -11 -23 -21 -54 -22 -70 -2 -27 0 -28 44 -31 41 -3 51 1 83 31
30 28 36 41 36 74 0 22 6 62 14 89 9 31 16 125 20 254 3 113 10 221 16 240 6
19 13 85 17 145 6 123 17 145 68 145 17 0 64 -11 103 -25 60 -21 90 -25 187
-25 96 0 122 3 155 20 51 26 64 25 100 -7 l30 -28 11 -175 c5 -96 14 -209 19
-250 10 -91 -6 -178 -50 -259 -17 -30 -30 -64 -30 -76 0 -12 -13 -41 -30 -63
-16 -23 -30 -51 -30 -62 0 -18 7 -20 63 -20 34 0 67 4 73 8 16 10 44 79 44
109 0 14 10 39 22 56 19 26 23 50 30 161 8 147 34 324 50 343 16 20 44 15 56
-9 64 -134 107 -292 118 -435 6 -82 4 -96 -16 -137 -12 -25 -20 -56 -18 -68 2
-19 10 -24 44 -26 61 -4 86 21 95 94 5 33 13 86 18 119 8 47 7 71 -4 110 -22
77 -36 169 -44 292 -7 93 -12 118 -34 155 -30 51 -32 95 -21 329 5 120 4 156
-10 201 -20 68 -20 88 -3 88 43 0 83 -111 97 -270 16 -191 35 -243 96 -271 23
-11 56 -38 73 -60 18 -21 54 -51 82 -64 l49 -25 0 25 c0 15 -9 31 -24 41 -14
8 -30 31 -36 50 -7 19 -27 46 -46 60 -23 18 -36 37 -40 62 -4 21 -14 48 -24
62 -9 14 -20 44 -24 66 -3 23 -17 64 -31 90 -14 27 -30 75 -35 107 -11 67 -48
149 -135 297 -18 30 -40 77 -50 103 -10 26 -32 60 -49 74 -102 86 -368 142
-472 98 -20 -8 -83 -19 -141 -25 -57 -5 -123 -15 -146 -21 -33 -9 -61 -8 -132
5 -158 27 -221 36 -262 36 -71 0 -123 29 -123 68 0 6 16 29 35 52 19 23 35 52
35 65 0 12 12 40 27 61 45 66 77 144 64 157 -8 8 -24 -1 -59 -35 -26 -25 -66
-55 -88 -67 -26 -13 -44 -29 -48 -44 -3 -14 -24 -41 -46 -61 -47 -42 -83 -46
-132 -16 -43 26 -61 25 -109 -7 -38 -25 -43 -26 -67 -12 -15 8 -32 29 -38 47
-5 18 -24 45 -42 60 -17 15 -49 61 -70 101 -42 81 -55 93 -71 62z"/>
</g>
</svg>
