<?xml version="1.0" standalone="no"?>
<!DOCTYPE svg PUBLIC "-//W3C//DTD SVG 20010904//EN"
 "http://www.w3.org/TR/2001/REC-SVG-20010904/DTD/svg10.dtd">
<svg version="1.0" xmlns="http://www.w3.org/2000/svg"
 width="235.000000pt" height="293.000000pt" viewBox="0 0 235.000000 293.000000"
 preserveAspectRatio="xMidYMid meet">
<metadata>
Created by potrace 1.16, written by Peter Selinger 2001-2019
</metadata>
<g transform="translate(0.000000,293.000000) scale(0.100000,-0.100000)"
fill="#000000" stroke="none">
<path d="M786 2683 c-17 -70 -26 -82 -65 -82 -20 1 -49 -2 -65 -6 -26 -7 -33
-3 -66 35 -24 28 -42 41 -52 37 -20 -7 -33 -103 -18 -141 16 -43 12 -63 -19
-106 -23 -31 -30 -54 -35 -116 -9 -93 -22 -129 -70 -182 -32 -35 -36 -46 -36
-92 0 -66 29 -121 76 -144 62 -29 88 -21 168 51 26 23 54 43 61 43 7 0 15 -15
17 -32 9 -56 -9 -249 -30 -333 -29 -112 -38 -222 -21 -271 18 -53 13 -335 -7
-383 -16 -39 -18 -114 -4 -142 6 -10 34 -31 63 -45 29 -15 72 -45 96 -66 39
-37 47 -40 85 -35 64 7 194 71 208 102 24 53 -20 105 -103 120 -29 5 -41 2
-66 -19 -55 -47 -89 -31 -99 45 -5 39 -3 49 21 77 15 18 41 40 59 48 17 9 48
32 68 51 43 42 63 40 123 -11 l40 -34 -4 -319 c-3 -342 -4 -347 -58 -405 -22
-23 -36 -58 -54 -138 -3 -12 13 -15 98 -18 141 -4 138 -8 146 188 4 84 7 189
7 232 0 44 5 88 10 98 6 11 14 73 19 137 14 181 37 253 82 253 48 0 174 -231
207 -380 8 -36 16 -106 19 -155 l5 -91 -57 -84 c-74 -109 -87 -137 -80 -160 6
-18 16 -20 99 -20 59 0 98 5 108 13 28 23 78 126 78 161 0 19 -7 64 -15 101
-11 46 -15 113 -14 225 1 153 0 162 -24 208 -29 55 -52 133 -62 205 -7 54 9
117 31 117 7 0 40 -20 73 -45 l59 -45 6 -87 c4 -49 10 -169 14 -268 4 -99 13
-192 19 -206 19 -44 70 -79 115 -79 52 0 98 42 99 92 0 18 2 46 4 62 5 39 -11
66 -39 66 -13 0 -28 6 -34 13 -21 26 -32 124 -32 281 0 139 3 174 21 232 18
57 21 92 20 199 -2 197 -35 296 -131 393 -93 95 -200 132 -377 132 -61 0 -114
4 -117 8 -6 10 -9 89 -4 117 2 13 -6 23 -24 33 -21 10 -28 20 -28 43 0 41 -59
158 -90 177 -14 9 -40 29 -58 44 -18 15 -39 28 -47 28 -8 0 -15 8 -15 18 0 21
-30 52 -49 52 -6 0 -23 11 -36 25 -14 13 -45 33 -69 44 -40 17 -46 25 -60 69
-21 73 -34 92 -60 92 -18 0 -25 -7 -30 -27z"/>
</g>
</svg>
