<?xml version="1.0" standalone="no"?>
<!DOCTYPE svg PUBLIC "-//W3C//DTD SVG 20010904//EN"
 "http://www.w3.org/TR/2001/REC-SVG-20010904/DTD/svg10.dtd">
<svg version="1.0" xmlns="http://www.w3.org/2000/svg"
 width="305.000000pt" height="285.000000pt" viewBox="0 0 305.000000 285.000000"
 preserveAspectRatio="xMidYMid meet">
<metadata>
Created by potrace 1.16, written by Peter Selinger 2001-2019
</metadata>
<g transform="translate(0.000000,285.000000) scale(0.100000,-0.100000)"
fill="#000000" stroke="none">
<path d="M1397 2412 c-19 -21 -18 -87 2 -160 11 -39 9 -49 -13 -107 -15 -35
-26 -77 -26 -93 0 -27 -5 -32 -49 -47 -27 -9 -55 -23 -62 -31 -7 -8 -20 -13
-30 -12 -10 2 -31 -9 -47 -25 l-29 -27 -73 40 c-40 22 -78 40 -85 40 -7 0 -28
6 -46 14 -48 19 -213 39 -263 32 -32 -5 -46 -3 -56 9 -16 19 -34 19 -50 0 -10
-12 -9 -20 6 -42 10 -16 17 -32 15 -38 -2 -5 -3 -80 -2 -165 0 -135 3 -158 19
-180 28 -37 68 -38 106 -2 19 18 46 32 70 35 21 4 47 14 57 23 30 27 46 6 75
-103 10 -37 11 -60 4 -78 -6 -15 -10 -52 -11 -83 l-1 -57 -95 -84 c-60 -54
-103 -101 -118 -130 -12 -25 -41 -66 -63 -91 -41 -47 -100 -168 -109 -226 -5
-32 -4 -34 23 -34 59 0 122 63 99 100 -3 6 12 32 35 58 24 26 47 58 54 72 6
14 18 32 26 41 8 9 29 32 47 51 54 60 220 166 259 167 11 1 29 -8 39 -19 10
-11 26 -22 36 -25 21 -7 59 -73 59 -102 0 -10 10 -34 23 -53 48 -73 68 -142
70 -241 2 -93 2 -95 -33 -142 l-35 -49 24 -19 c38 -31 85 -10 97 44 3 18 15
43 25 56 21 27 25 118 8 206 -5 28 -13 94 -19 148 -5 54 -12 102 -15 107 -4 6
-3 19 0 30 5 17 15 20 58 20 72 1 175 26 289 71 81 32 97 25 112 -50 3 -19 13
-42 22 -52 21 -23 27 -80 12 -100 -8 -9 -51 -35 -96 -58 -94 -47 -106 -64
-117 -167 -8 -71 2 -86 53 -72 39 10 56 46 47 95 -5 30 -3 34 22 44 82 30 229
130 239 162 3 10 -4 34 -16 54 -23 39 -39 123 -23 123 15 0 48 -41 83 -102 20
-36 48 -68 73 -86 71 -47 97 -95 113 -211 15 -110 14 -119 -37 -183 -28 -35
-18 -48 40 -48 53 0 86 24 75 53 -4 10 4 29 20 48 14 17 26 36 26 43 0 19 -39
169 -50 191 -6 11 -19 51 -30 88 -14 52 -31 82 -70 127 l-51 59 6 113 c6 91 4
122 -9 158 -21 61 -20 70 10 70 24 0 83 -52 85 -75 2 -55 41 -182 66 -218 16
-23 40 -71 53 -107 12 -36 38 -87 56 -115 19 -27 34 -58 34 -68 0 -27 49 -72
63 -58 12 12 29 127 27 186 -1 44 -14 68 -70 129 -58 64 -108 174 -110 242 0
12 -6 32 -12 45 -49 93 -103 125 -221 133 -40 2 -86 10 -102 17 -17 6 -44 18
-60 25 -56 24 -89 28 -217 29 -118 0 -128 1 -151 23 -28 26 -57 104 -57 150 0
17 7 64 16 105 13 66 13 83 1 143 -9 43 -11 76 -5 86 4 10 6 29 3 43 -3 14 -7
36 -10 50 -10 48 -105 73 -138 37z m-37 -543 c0 -26 -3 -30 -17 -23 -23 10
-73 10 -95 0 -12 -6 -20 -3 -24 8 -12 30 15 46 77 46 l59 0 0 -31z m-525 -119
c14 -16 15 -22 5 -35 -7 -8 -22 -14 -34 -13 -11 1 -31 -2 -43 -6 -13 -4 -23
-5 -23 -3 0 7 65 77 71 77 3 0 14 -9 24 -20z"/>
</g>
</svg>
