<?xml version="1.0" standalone="no"?>
<!DOCTYPE svg PUBLIC "-//W3C//DTD SVG 20010904//EN"
 "http://www.w3.org/TR/2001/REC-SVG-20010904/DTD/svg10.dtd">
<svg version="1.0" xmlns="http://www.w3.org/2000/svg"
 width="220.000000pt" height="196.000000pt" viewBox="0 0 220.000000 196.000000"
 preserveAspectRatio="xMidYMid meet">
<metadata>
Created by potrace 1.16, written by Peter Selinger 2001-2019
</metadata>
<g transform="translate(0.000000,196.000000) scale(0.100000,-0.100000)"
fill="#000000" stroke="none">
<path d="M772 1680 c-54 -83 -64 -116 -70 -242 -4 -93 -2 -126 10 -156 9 -20
23 -72 33 -114 9 -44 27 -92 41 -110 37 -51 53 -92 60 -155 4 -32 13 -75 21
-97 7 -21 13 -50 13 -63 0 -28 -41 -123 -52 -123 -5 0 -8 -6 -8 -14 0 -10 9
-14 27 -13 36 3 40 -19 18 -98 -15 -57 -21 -66 -65 -94 -26 -17 -50 -31 -53
-31 -2 0 -14 26 -25 57 -12 32 -41 86 -66 120 -73 100 -81 95 -41 -30 20 -61
25 -99 25 -177 0 -119 -12 -124 -58 -22 -44 99 -56 163 -56 300 0 142 -9 146
-50 22 -52 -158 -41 -341 28 -482 64 -131 0 -115 546 -129 261 -7 514 -9 563
-5 l87 8 26 44 c43 72 66 160 66 249 0 119 -51 264 -60 170 -10 -114 -55 -241
-112 -315 l-19 -25 -12 30 c-7 17 -14 71 -15 120 -2 50 -6 92 -10 95 -14 11
-54 -88 -60 -148 l-7 -63 -29 82 c-41 120 -146 301 -156 271 -2 -6 6 -41 17
-77 22 -72 30 -235 11 -235 -18 0 -70 82 -85 133 -8 28 -15 78 -15 111 l0 61
82 70 c45 39 90 82 101 97 29 38 34 126 12 184 -16 42 -16 46 0 70 9 14 23 28
31 31 20 7 61 -22 79 -57 9 -17 22 -30 31 -30 12 0 13 8 8 37 l-7 36 24 -16
c26 -19 49 -22 49 -7 0 5 -16 28 -36 49 -19 22 -40 57 -46 78 -15 57 -44 83
-91 83 -23 0 -50 -8 -67 -20 -35 -25 -71 -108 -77 -180 -5 -54 -7 -56 -42 -69
-62 -22 -86 -20 -89 9 -2 14 -9 45 -17 70 -25 79 -75 398 -77 487 -1 62 -4 67
-38 47 -37 -22 -84 -122 -92 -198 -5 -47 -21 -40 -41 17 -39 109 -87 270 -87
291 0 31 -25 109 -36 113 -5 2 -24 -20 -42 -47z m418 -1290 c0 -43 5 -102 11
-130 6 -28 8 -54 5 -57 -12 -12 -55 40 -63 76 -12 48 -35 46 -51 -4 -7 -22
-15 -47 -18 -54 -3 -10 -20 10 -46 54 -48 79 -46 89 27 117 28 10 63 32 80 49
47 47 55 40 55 -51z"/>
</g>
</svg>
