<?xml version="1.0" standalone="no"?>
<!DOCTYPE svg PUBLIC "-//W3C//DTD SVG 20010904//EN"
 "http://www.w3.org/TR/2001/REC-SVG-20010904/DTD/svg10.dtd">
<svg version="1.0" xmlns="http://www.w3.org/2000/svg"
 width="150.000000pt" height="186.000000pt" viewBox="0 0 150.000000 186.000000"
 preserveAspectRatio="xMidYMid meet">
<metadata>
Created by potrace 1.16, written by Peter Selinger 2001-2019
</metadata>
<g transform="translate(0.000000,186.000000) scale(0.100000,-0.100000)"
fill="#000000" stroke="none">
<path d="M1303 1778 c-15 -29 -30 -57 -32 -63 -18 -48 -107 -218 -131 -250
-16 -22 -34 -51 -40 -64 -15 -33 -46 -71 -53 -64 -3 3 -3 18 0 34 3 15 -4 58
-15 96 -11 37 -22 79 -25 93 -4 14 -24 43 -46 64 -46 45 -71 43 -71 -5 0 -18
-9 -57 -19 -88 -11 -31 -28 -83 -37 -116 -23 -78 -67 -195 -104 -270 -15 -33
-47 -100 -71 -148 -41 -87 -42 -88 -73 -81 -17 3 -39 13 -49 22 -9 8 -27 20
-40 27 -12 6 -21 17 -19 24 15 69 12 131 -8 191 -35 103 -92 150 -181 150 -56
0 -91 -23 -126 -84 -21 -38 -44 -60 -88 -87 -63 -38 -76 -58 -51 -78 12 -10
23 -8 55 8 56 29 70 26 37 -8 -27 -28 -32 -61 -10 -68 6 -2 35 17 63 43 44 39
59 47 89 46 40 -2 72 -30 72 -64 0 -11 -13 -38 -28 -61 -55 -80 -65 -144 -33
-212 11 -22 57 -81 103 -130 45 -50 113 -127 150 -172 87 -103 179 -189 234
-216 37 -18 46 -28 60 -71 27 -81 46 -102 122 -127 37 -13 93 -23 124 -23 77
-1 92 14 93 95 0 59 -2 63 -35 88 -78 58 -84 72 -104 219 -6 38 -4 42 14 42
12 0 34 -7 49 -15 16 -8 31 -11 35 -8 10 10 7 38 -5 50 -14 14 -48 111 -49
137 0 23 35 100 62 135 10 13 18 36 18 51 0 53 58 153 101 176 16 8 29 18 29
22 0 5 9 17 19 29 25 26 101 168 101 187 0 9 14 35 31 59 l30 43 2 160 2 159
-45 88 c-53 105 -68 110 -107 35z"/>
</g>
</svg>
