<?xml version="1.0" standalone="no"?>
<!DOCTYPE svg PUBLIC "-//W3C//DTD SVG 20010904//EN"
 "http://www.w3.org/TR/2001/REC-SVG-20010904/DTD/svg10.dtd">
<svg version="1.0" xmlns="http://www.w3.org/2000/svg"
 width="209.000000pt" height="186.000000pt" viewBox="0 0 209.000000 186.000000"
 preserveAspectRatio="xMidYMid meet">
<metadata>
Created by potrace 1.16, written by Peter Selinger 2001-2019
</metadata>
<g transform="translate(0.000000,186.000000) scale(0.100000,-0.100000)"
fill="#000000" stroke="none">
<path d="M284 1729 c-3 -6 -1 -28 6 -49 7 -21 10 -46 6 -56 -6 -15 -9 -15 -34
7 -67 62 -132 90 -132 58 0 -19 44 -70 78 -89 45 -27 36 -44 -24 -50 -39 -4
-49 -9 -52 -25 -4 -33 13 -47 69 -56 50 -8 72 -23 65 -44 -2 -6 -30 -9 -65 -8
-48 2 -61 0 -61 -12 0 -22 38 -53 84 -68 48 -16 54 -41 11 -45 -89 -8 -101
-34 -19 -42 57 -6 67 -29 19 -45 -48 -16 -58 -25 -45 -40 19 -22 86 -29 112
-11 28 20 58 21 58 1 0 -8 -21 -25 -47 -37 -56 -27 -68 -55 -26 -60 21 -2 29
-9 31 -28 6 -51 10 -53 46 -31 46 29 57 27 54 -11 -3 -31 -1 -33 29 -31 29 3
32 0 35 -30 2 -26 8 -33 28 -35 14 -2 29 -8 34 -13 6 -5 21 -9 34 -9 15 0 26
-7 29 -19 2 -10 16 -24 29 -30 31 -14 30 -28 -1 -57 -14 -13 -25 -32 -25 -42
0 -11 -6 -35 -14 -53 -9 -21 -11 -42 -6 -55 13 -33 30 -39 30 -10 0 38 24 54
77 54 37 0 55 -6 85 -30 43 -34 45 -44 19 -96 -10 -20 -24 -61 -30 -91 -14
-66 -38 -118 -57 -125 -8 -3 -30 2 -49 11 -42 20 -88 9 -93 -22 -3 -16 -1 -18
9 -8 22 21 29 15 22 -19 l-6 -33 22 23 c24 25 34 27 62 12 26 -15 25 -50 -2
-50 -27 0 -19 -24 9 -28 16 -3 25 4 32 25 20 55 33 71 70 88 24 11 43 29 54
51 17 38 41 53 58 36 7 -7 6 -17 -3 -33 -7 -13 -16 -44 -19 -69 l-5 -45 -55 0
c-51 0 -55 -2 -59 -25 -3 -24 -3 -25 17 -7 20 18 40 8 27 -13 -3 -5 -3 -15 1
-21 4 -7 11 -2 18 13 14 27 35 30 50 6 8 -13 8 -23 -2 -39 -16 -25 -8 -37 13
-19 8 7 15 28 15 47 0 23 8 42 26 60 14 14 31 42 37 62 10 29 18 37 40 39 38
5 54 -11 62 -60 5 -25 20 -54 41 -78 19 -21 40 -55 48 -76 16 -47 41 -56 50
-19 6 23 10 25 41 19 34 -6 34 -6 26 22 -8 31 -4 64 7 64 4 -1 18 -7 32 -15
41 -23 57 -19 52 13 -3 22 2 32 22 46 22 14 25 20 16 36 -6 11 -8 35 -5 53 8
41 -8 57 -65 64 -22 3 -46 13 -53 23 -11 16 -122 60 -151 60 -21 0 -38 27 -31
50 3 11 15 20 26 20 11 0 28 5 39 12 16 10 23 9 45 -12 31 -29 43 -20 27 23
-36 100 12 115 55 18 14 -31 32 -64 40 -73 39 -44 60 2 23 49 -22 28 -27 63
-8 63 6 0 22 -9 34 -21 23 -21 44 -19 44 5 0 7 -11 27 -25 46 -27 37 -33 70
-11 70 7 0 30 -14 51 -30 66 -52 107 -31 52 27 -47 50 -18 83 43 48 26 -15 70
-20 70 -8 0 4 -12 19 -26 34 -32 34 -26 59 13 59 15 -1 57 -7 93 -15 36 -8 75
-14 88 -15 39 0 24 27 -34 61 -44 25 -72 33 -132 38 -68 5 -77 8 -77 26 0 31
65 49 145 39 36 -4 99 -8 140 -8 69 -1 75 1 75 19 0 16 -11 22 -60 33 -109 24
-140 36 -143 55 -7 35 15 44 121 52 103 7 157 25 157 53 0 9 -18 13 -67 13
-38 0 -84 1 -103 1 -19 1 -50 -2 -69 -7 -29 -7 -33 -6 -29 11 3 18 62 53 236
137 54 27 72 41 72 56 0 32 -17 34 -84 10 -34 -12 -70 -20 -79 -16 -33 13 -18
45 39 87 58 44 96 93 87 116 -8 22 -23 17 -88 -26 -62 -41 -92 -49 -101 -27
-10 27 13 60 57 81 44 21 62 49 37 58 -7 3 -41 -3 -74 -14 -46 -13 -71 -28
-100 -60 -122 -131 -136 -139 -142 -84 -3 27 0 31 102 122 21 19 26 28 17 37
-21 21 -116 -41 -193 -125 -47 -52 -82 -81 -107 -89 -46 -15 -175 -130 -206
-183 -13 -23 -33 -75 -44 -116 -29 -105 -67 -174 -132 -243 -65 -68 -90 -72
-125 -20 -16 24 -24 55 -29 115 -20 251 -48 315 -151 353 -122 43 -217 120
-310 251 -37 52 -61 74 -79 74 -2 0 -7 -5 -11 -11z"/>
</g>
</svg>
