<?xml version="1.0" standalone="no"?>
<!DOCTYPE svg PUBLIC "-//W3C//DTD SVG 20010904//EN"
 "http://www.w3.org/TR/2001/REC-SVG-20010904/DTD/svg10.dtd">
<svg version="1.0" xmlns="http://www.w3.org/2000/svg"
 width="423.000000pt" height="188.000000pt" viewBox="0 0 423.000000 188.000000"
 preserveAspectRatio="xMidYMid meet">
<metadata>
Created by potrace 1.16, written by Peter Selinger 2001-2019
</metadata>
<g transform="translate(0.000000,188.000000) scale(0.100000,-0.100000)"
fill="#000000" stroke="none">
<path d="M490 1800 c0 -16 -7 -20 -30 -20 -30 0 -41 -15 -17 -23 9 -3 9 -8 -3
-21 -13 -16 -12 -20 3 -31 21 -15 22 -29 1 -21 -11 4 -18 -1 -21 -14 -3 -13
-14 -20 -29 -20 -30 0 -30 -7 -2 -29 24 -20 18 -38 -18 -51 -20 -8 -23 -14
-17 -41 5 -29 4 -31 -16 -24 -14 4 -23 2 -27 -9 -3 -9 -17 -16 -30 -16 -27 0
-32 -15 -9 -24 8 -3 14 -11 13 -18 -2 -9 7 -12 27 -10 31 3 76 -21 63 -33 -10
-11 -107 -4 -139 9 -13 6 -16 0 -16 -32 0 -36 3 -41 29 -46 21 -4 33 -15 41
-36 8 -21 18 -30 34 -30 13 0 23 -4 23 -9 0 -15 -29 -21 -56 -11 -32 13 -134
13 -134 1 0 -6 5 -13 10 -16 8 -5 7 -11 -1 -21 -9 -11 -5 -16 17 -25 16 -7 47
-15 68 -18 70 -11 53 -28 -35 -34 -79 -5 -113 -17 -90 -31 6 -4 11 -16 11 -27
0 -14 7 -19 24 -19 32 0 39 -12 21 -36 -12 -16 -11 -21 2 -36 9 -10 29 -18 44
-18 15 0 30 -4 34 -9 10 -17 -27 -27 -95 -26 l-65 1 -1 -37 c-1 -40 6 -46 75
-58 48 -8 51 -28 4 -36 -64 -11 -103 -26 -103 -40 0 -19 25 -36 43 -29 22 8
57 -13 51 -31 -4 -8 -16 -15 -28 -15 -26 0 -37 -8 -54 -39 -17 -29 -8 -39 43
-43 l40 -4 -32 -13 c-20 -8 -33 -20 -33 -31 0 -10 -7 -20 -15 -24 -9 -3 -12
-12 -8 -22 4 -11 -1 -22 -13 -31 -18 -14 -18 -15 6 -35 19 -15 34 -19 64 -15
27 4 49 0 66 -10 24 -14 30 -14 58 1 38 20 135 21 154 3 8 -9 13 -39 13 -88
l0 -74 -83 -5 c-59 -4 -86 -9 -92 -20 -5 -8 -10 -47 -10 -86 0 -56 3 -73 16
-78 9 -3 842 -6 1853 -6 1415 0 1840 3 1849 12 14 14 16 106 2 142 -9 25 -13
26 -94 26 -96 0 -96 0 -96 90 0 47 4 61 18 67 22 11 138 10 175 -1 21 -7 27
-5 27 8 0 9 5 16 10 16 6 0 10 7 10 15 0 24 38 38 85 31 37 -6 44 -4 58 18 14
21 14 26 2 36 -8 7 -12 16 -10 21 3 4 -3 13 -14 19 -18 9 -19 12 -6 38 14 25
13 28 -6 42 -12 10 -18 22 -14 32 5 12 -5 18 -47 28 -83 19 -88 21 -88 35 0
15 22 25 56 25 17 0 24 5 24 20 0 12 7 31 15 44 15 22 15 23 -9 19 -13 -3 -27
0 -30 6 -4 6 -22 11 -39 11 -49 0 -60 11 -49 51 7 27 13 33 31 31 19 -3 21 0
15 22 -5 22 -3 26 15 26 17 0 41 25 41 44 0 3 -27 8 -59 12 -44 5 -66 13 -82
30 l-22 24 32 0 c31 0 81 25 81 40 0 4 -13 13 -30 20 -32 13 -31 35 1 27 13
-4 19 0 19 12 0 9 5 22 11 28 8 8 5 14 -10 22 -12 7 -21 18 -21 26 0 21 -16
19 -32 -3 -9 -13 -31 -21 -75 -25 -34 -4 -64 -3 -67 2 -7 11 32 46 53 46 9 0
33 19 54 42 37 41 38 41 15 49 -13 4 -40 6 -61 6 -35 -2 -37 0 -27 19 6 11 18
23 26 26 9 3 12 13 7 31 -6 24 -4 25 26 19 26 -6 31 -3 31 13 0 10 5 22 11 25
19 12 -54 43 -79 34 -13 -5 -28 -9 -33 -9 -14 0 -11 31 6 63 14 27 13 29 -5
34 -21 6 -27 28 -10 38 19 12 10 25 -16 25 -22 0 -24 3 -15 14 8 9 8 16 2 20
-6 4 -8 13 -4 21 4 11 -2 15 -20 15 -16 0 -26 7 -30 20 -3 11 -10 20 -15 20
-5 0 -12 -9 -15 -20 -4 -14 -14 -20 -33 -20 -26 0 -27 0 -9 -20 10 -11 13 -20
7 -20 -17 0 -15 -27 3 -34 23 -9 18 -29 -6 -23 -15 4 -23 0 -26 -14 -3 -10
-14 -19 -24 -19 -23 0 -24 -8 -3 -31 19 -21 11 -39 -16 -39 -26 0 -32 -14 -19
-44 15 -32 5 -44 -21 -28 -16 10 -21 9 -30 -8 -6 -11 -20 -20 -30 -20 -11 0
-20 -4 -20 -10 0 -5 5 -10 10 -10 6 0 10 -7 10 -14 0 -11 14 -16 47 -18 37 -2
49 -7 51 -21 4 -17 -2 -18 -68 -13 -40 3 -77 9 -83 13 -6 4 -8 -2 -4 -18 4
-13 7 -29 7 -35 0 -7 12 -15 26 -18 14 -4 33 -20 42 -36 11 -20 25 -30 40 -30
15 0 22 -5 19 -12 -3 -10 -28 -12 -95 -9 -60 2 -92 0 -92 -7 0 -6 5 -14 10
-17 8 -5 8 -11 0 -20 -8 -10 -2 -17 27 -31 49 -25 58 -49 14 -41 -18 4 -40 3
-49 -2 -9 -5 -25 -12 -36 -15 -17 -6 -18 -8 -2 -25 9 -9 13 -21 10 -24 -4 -4
1 -9 10 -12 9 -3 23 -7 32 -10 15 -5 15 -7 -1 -25 -15 -16 -15 -22 -5 -35 7
-8 25 -15 40 -15 28 0 55 -21 43 -33 -3 -4 -39 -7 -80 -7 -65 0 -73 -2 -73
-19 0 -11 -3 -26 -6 -34 -6 -18 46 -47 73 -41 23 5 48 -10 39 -25 -4 -6 -22
-11 -40 -11 -45 0 -99 -28 -92 -47 3 -8 6 -17 6 -19 0 -2 18 -4 39 -4 22 0 43
-5 46 -10 10 -16 -15 -40 -42 -40 -13 0 -26 -7 -30 -18 -4 -9 -11 -20 -16 -23
-6 -4 -7 -15 -3 -24 5 -14 14 -16 40 -11 43 8 58 -10 16 -19 -23 -5 -30 -12
-30 -31 0 -13 -5 -24 -11 -24 -7 0 -9 -10 -5 -25 5 -20 2 -27 -14 -33 l-21 -8
21 -19 c22 -20 76 -27 170 -23 25 1 74 2 110 2 l65 1 7 -75 c6 -56 5 -78 -5
-88 -17 -16 -238 -26 -357 -15 l-85 8 -6 40 c-3 22 -17 70 -32 107 -15 36 -27
73 -27 81 0 20 -18 34 -60 44 l-35 9 -5 84 c-7 115 -13 119 -192 130 -154 10
-202 17 -241 37 -19 10 -45 12 -92 7 -67 -7 -78 -13 -173 -90 -68 -56 -141
-91 -152 -74 -13 20 -40 3 -40 -25 0 -30 -10 -31 -40 -7 -12 10 -19 23 -15 32
7 18 94 73 152 98 24 9 43 23 43 30 0 19 -43 14 -95 -13 -27 -13 -51 -22 -53
-20 -11 10 12 61 39 86 16 15 29 32 29 38 0 16 -31 13 -51 -5 -25 -23 -45 -12
-77 40 -29 49 -42 57 -42 26 0 -22 20 -70 30 -70 3 0 12 -16 19 -35 16 -46 6
-108 -24 -143 l-24 -27 -20 20 c-11 11 -23 34 -27 51 -5 29 -3 33 33 50 38 19
58 54 30 54 -9 0 -17 14 -21 35 -9 47 -36 48 -36 2 0 -36 -25 -67 -53 -67 -12
0 -15 9 -12 45 2 25 9 60 16 79 7 18 9 42 5 52 -6 15 -12 8 -37 -35 -17 -29
-35 -51 -42 -48 -14 4 -25 40 -26 83 -1 29 -21 51 -35 37 -8 -9 5 -95 20 -125
8 -15 14 -50 14 -78 0 -57 -24 -90 -65 -90 -39 0 -29 -18 16 -30 40 -11 60
-34 43 -50 -12 -12 -98 31 -151 75 -62 52 -156 88 -207 81 -23 -3 -89 -10
-147 -15 -167 -15 -196 -21 -239 -52 -44 -32 -55 -61 -46 -117 20 -110 19
-125 -13 -173 -25 -37 -31 -58 -33 -108 l-3 -61 -205 2 -205 3 -3 67 c-3 66
-2 67 28 83 17 9 35 13 41 9 6 -4 40 -8 75 -9 51 -2 67 2 80 16 10 11 14 19 9
19 -4 0 4 9 19 21 23 18 31 19 58 10 42 -15 58 -14 58 3 0 8 7 17 16 20 13 5
11 12 -15 45 -26 33 -29 43 -22 69 8 26 6 31 -11 35 -14 4 -18 11 -14 25 6 18
-1 22 -59 35 -74 17 -80 20 -70 37 4 7 19 10 36 6 23 -4 28 -2 31 17 3 19 8
22 47 19 36 -3 43 -1 38 12 -4 10 3 21 21 30 15 9 20 15 12 16 -8 0 -28 7 -44
15 -23 12 -40 13 -90 5 -53 -8 -63 -7 -78 8 -25 25 -13 72 18 72 21 0 23 4 18
24 -5 20 -2 25 16 28 13 2 29 13 37 25 14 21 13 21 -51 28 -50 6 -70 13 -87
31 l-22 24 34 0 c33 0 79 23 79 38 0 4 -13 13 -30 19 -36 14 -39 33 -5 33 16
0 25 6 25 15 0 9 7 18 15 21 20 8 9 24 -16 24 -14 0 -19 7 -19 25 0 32 -7 31
-32 0 -14 -18 -26 -24 -39 -20 -11 4 -36 1 -55 -5 -30 -10 -38 -10 -45 1 -10
16 27 50 51 47 20 -3 56 33 64 66 6 25 5 26 -43 26 -44 0 -49 2 -44 20 3 11 0
27 -7 35 -14 17 -5 35 16 35 33 0 51 19 46 46 -4 24 -8 26 -43 20 -35 -6 -39
-4 -39 14 0 12 11 33 25 48 l25 27 -25 13 c-20 10 -24 18 -19 36 5 21 3 23
-20 19 -29 -6 -37 14 -10 24 12 4 13 8 3 14 -10 6 -10 11 0 23 14 17 10 19
-27 16 -16 -1 -25 5 -29 19 -7 27 -23 27 -23 1z m1452 -1072 c-6 -6 -16 -7
-22 -3 -9 6 -9 9 1 16 17 10 34 0 21 -13z m13 -68 c21 -23 12 -39 -13 -24 -19
12 -29 44 -14 44 5 0 17 -9 27 -20z m5 -94 c0 -7 -7 -19 -16 -26 -12 -11 -18
-11 -31 2 -8 9 -12 21 -9 27 10 16 56 14 56 -3z m54 -31 c-7 -18 17 -20 34 -3
6 6 15 8 19 5 4 -4 -3 -14 -15 -23 -12 -8 -22 -19 -22 -25 0 -15 37 -10 55 7
23 24 32 8 13 -24 -40 -65 -140 -10 -112 62 3 9 12 16 20 16 8 0 11 -6 8 -15z
m933 -77 c74 -69 103 -114 103 -165 l0 -43 -310 0 c-170 0 -310 4 -310 8 0 5
20 40 45 78 25 38 49 85 55 106 10 34 13 36 58 40 26 2 67 0 92 -4 63 -12 125
-9 168 6 20 8 40 14 45 15 4 0 28 -18 54 -41z m-513 2 c-4 -38 -28 -119 -47
-160 l-22 -45 -320 -2 c-176 -2 -326 1 -334 6 -8 5 -15 35 -18 75 -5 57 -4 66
11 66 27 0 79 -30 106 -62 17 -20 30 -27 42 -23 17 7 38 54 38 86 0 26 19 33
39 15 22 -20 50 -21 57 -2 5 12 11 13 30 4 26 -12 30 -23 14 -33 -5 -3 -10
-10 -10 -16 0 -16 26 -10 45 11 18 20 45 27 45 11 0 -5 -7 -14 -15 -21 -19
-16 -19 -30 -1 -30 18 0 52 47 61 83 4 15 10 27 14 27 3 0 18 -23 33 -50 32
-57 52 -63 76 -21 10 19 30 33 54 40 21 7 45 23 54 37 18 26 50 29 48 4z
m-934 -19 c0 -10 7 -38 16 -62 21 -56 33 -129 22 -129 -4 0 -90 -1 -190 -1
l-183 -1 -14 29 c-23 45 -19 93 9 112 13 9 34 27 47 41 21 24 27 25 157 28
128 2 136 1 136 -17z m476 -8 c-8 -8 -36 5 -36 17 0 7 6 7 21 0 11 -7 18 -14
15 -17z m1149 -81 c16 -34 24 -66 20 -79 -7 -30 -35 -30 -35 0 -1 12 -7 33
-15 47 -16 28 -20 105 -6 95 5 -3 21 -31 36 -63z m-1479 -48 c8 -53 -5 -75
-34 -58 -12 8 -18 29 -22 78 -3 37 -3 70 0 73 12 11 49 -51 56 -93z m-558 19
c6 -10 13 -33 17 -50 6 -30 5 -33 -18 -33 -34 0 -49 22 -41 57 12 49 26 57 42
26z"/>
</g>
</svg>
