<?xml version="1.0" standalone="no"?>
<!DOCTYPE svg PUBLIC "-//W3C//DTD SVG 20010904//EN"
 "http://www.w3.org/TR/2001/REC-SVG-20010904/DTD/svg10.dtd">
<svg version="1.0" xmlns="http://www.w3.org/2000/svg"
 width="400.000000pt" height="300.000000pt" viewBox="0 0 400.000000 300.000000"
 preserveAspectRatio="xMidYMid meet">
<metadata>
Created by potrace 1.16, written by Peter Selinger 2001-2019
</metadata>
<g transform="translate(0.000000,300.000000) scale(0.100000,-0.100000)"
fill="#000000" stroke="none">
<path d="M755 2258 c-4 -10 -14 -18 -22 -18 -12 0 -14 -8 -10 -40 4 -35 2 -40
-14 -40 -10 0 -19 -7 -19 -15 0 -8 -7 -15 -15 -15 -11 0 -14 -9 -13 -32 3 -29
0 -33 -24 -36 -24 -3 -26 -6 -21 -38 5 -32 -8 -47 -21 -25 -4 5 -17 0 -30 -12
-29 -26 -18 -47 24 -47 15 0 33 -7 40 -15 18 -22 -9 -29 -81 -22 l-59 7 0 -30
c0 -20 5 -30 15 -30 8 0 22 -11 31 -25 10 -15 26 -25 41 -25 18 0 24 -5 21
-17 -3 -16 -14 -18 -86 -14 -52 2 -82 -1 -82 -7 0 -6 -2 -17 -6 -25 -6 -16 32
-34 81 -39 19 -2 30 -9 30 -18 0 -11 -12 -15 -50 -16 -60 0 -105 -12 -105 -27
0 -6 12 -21 28 -33 22 -18 25 -25 15 -35 -22 -22 -14 -38 22 -45 19 -3 38 -11
41 -16 10 -15 -17 -28 -51 -27 -73 4 -93 -1 -98 -23 -8 -30 17 -56 57 -60 44
-4 42 -32 -4 -36 -19 -2 -39 -8 -44 -13 -6 -5 -18 -9 -28 -9 -11 0 -18 -7 -18
-20 0 -16 7 -20 33 -20 17 0 39 -5 47 -10 13 -9 12 -12 -4 -25 -11 -8 -28 -15
-37 -15 -19 0 -49 -36 -49 -57 0 -8 14 -13 38 -13 54 0 61 -13 15 -26 -27 -8
-39 -17 -41 -32 -2 -12 -7 -22 -12 -22 -4 0 -6 -8 -3 -18 2 -10 -3 -24 -11
-31 -9 -8 -16 -20 -16 -27 0 -16 42 -28 71 -21 12 3 29 1 39 -5 13 -8 33 -8
75 0 67 14 142 16 149 4 2 -4 2 -51 -1 -104 l-6 -96 -156 -4 c-127 -3 -162 -7
-190 -21 -21 -12 -30 -22 -24 -28 7 -7 497 -10 1349 -11 1386 -1 2085 9 2105
29 19 19 -29 43 -87 43 -73 0 -86 18 -97 133 -16 161 -8 223 28 237 17 6 26
20 31 45 4 22 20 50 41 70 30 29 36 42 40 94 4 44 2 67 -9 83 -8 13 -25 55
-38 93 -12 39 -26 74 -31 80 -5 5 -9 17 -9 27 0 27 -22 68 -36 68 -7 0 -16 -9
-19 -20 -8 -26 -29 -25 -65 1 -17 13 -35 19 -46 15 -15 -6 -15 -9 5 -30 32
-34 21 -78 -25 -105 -49 -29 -53 -49 -18 -79 l29 -24 -62 6 c-35 3 -80 13
-100 22 -35 15 -76 27 -144 41 -32 6 -125 -39 -133 -64 -13 -41 -9 -172 5
-189 18 -22 18 -126 0 -182 -13 -37 -12 -50 2 -111 10 -38 17 -82 17 -99 0
-16 6 -48 14 -70 8 -22 12 -43 9 -46 -4 -3 -171 -6 -372 -6 l-366 0 -18 32
c-41 72 -45 313 -6 363 17 21 25 23 73 18 52 -5 55 -4 120 46 40 31 82 55 102
58 22 4 41 15 52 30 14 22 21 24 55 19 33 -6 44 -3 63 15 34 32 30 55 -13 78
-52 26 -127 105 -120 125 3 8 25 20 49 27 24 6 55 20 70 30 28 20 52 76 46
106 -3 14 -8 11 -21 -13 -23 -45 -73 -84 -107 -84 -28 0 -28 1 -15 28 7 15 15
48 18 75 4 41 2 47 -14 47 -11 0 -19 -6 -19 -14 0 -8 -9 -24 -19 -37 -15 -19
-22 -21 -32 -12 -20 20 -14 64 19 147 18 43 32 88 32 99 0 19 -2 20 -15 6 -9
-8 -23 -37 -33 -64 -37 -103 -77 -78 -107 68 -3 15 -10 27 -15 27 -13 0 -13
-46 0 -70 7 -13 6 -21 -4 -29 -18 -15 -84 23 -97 55 -11 32 -33 32 -25 0 7
-29 -1 -38 -25 -25 -15 7 -16 14 -9 34 6 16 6 27 -1 31 -6 3 -11 4 -12 3 -1
-2 -8 -14 -14 -26 -7 -13 -13 -29 -13 -36 0 -7 -7 -23 -16 -36 -24 -33 -35
-14 -39 62 -3 69 -10 91 -26 81 -7 -4 -8 -31 -4 -70 6 -53 5 -64 -7 -64 -25 0
-82 22 -102 39 -14 12 -20 13 -23 4 -3 -8 -14 -11 -29 -7 -36 9 -30 -14 9 -30
17 -8 57 -20 87 -26 78 -18 96 -33 116 -96 25 -80 100 -156 177 -180 48 -15
57 -21 55 -38 -4 -25 -33 -34 -119 -35 -52 -1 -79 5 -123 25 -55 25 -59 25
-124 13 -37 -7 -110 -13 -162 -14 -156 -3 -323 -16 -355 -28 -46 -17 -135 -76
-142 -94 -3 -9 -1 -25 6 -36 16 -24 41 -119 41 -152 0 -16 -15 -36 -46 -62
-85 -70 -91 -78 -103 -134 -7 -29 -27 -92 -46 -140 -19 -48 -35 -98 -35 -113
l0 -26 -220 0 c-169 0 -220 3 -221 13 -3 57 5 154 14 165 6 8 21 12 36 8 14
-3 46 -9 71 -14 25 -4 56 -14 69 -21 28 -16 91 -6 91 14 0 7 -12 23 -27 35
-38 30 -18 46 56 42 52 -2 59 0 64 19 6 23 -6 63 -22 73 -6 4 -6 18 0 39 7 25
6 34 -6 43 -9 7 -14 18 -13 25 2 10 -16 16 -59 23 -52 7 -63 12 -63 27 0 15 8
19 36 19 32 0 36 2 31 21 -5 20 -3 21 33 16 33 -4 41 -1 58 23 l21 28 -32 7
c-18 4 -57 7 -86 7 -61 -2 -112 21 -92 41 6 6 11 19 11 29 0 12 7 18 21 18 12
0 23 8 26 19 3 11 16 22 30 26 39 9 21 29 -38 39 -49 9 -88 34 -89 59 0 4 20
7 44 7 54 0 66 14 36 40 l-23 20 25 9 c32 12 44 42 24 57 -9 6 -16 16 -16 23
0 16 -11 14 -26 -6 -8 -12 -26 -18 -51 -19 -21 0 -46 -4 -55 -8 -12 -6 -20 -3
-24 8 -8 22 13 46 40 46 12 0 39 18 61 40 l39 40 -52 0 c-59 0 -68 15 -30 50
12 11 18 20 14 20 -5 0 -3 7 4 15 7 8 17 12 22 9 11 -7 53 34 44 44 -4 3 -31
6 -61 6 -60 0 -67 9 -40 50 14 20 13 26 -1 54 -8 18 -20 32 -25 32 -5 0 -9 14
-9 30 0 17 -5 30 -11 30 -7 0 -18 8 -25 18 -12 16 -13 16 -19 0z m1535 -355
c62 -17 121 -45 138 -65 6 -8 14 -40 18 -71 12 -103 -36 -133 -136 -84 -34 17
-44 27 -42 42 2 11 6 34 9 51 3 18 0 34 -5 38 -6 3 -13 -11 -17 -34 -8 -47
-16 -49 -44 -14 -17 21 -21 41 -21 97 0 67 1 69 23 63 12 -4 47 -14 77 -23z
m998 -743 l97 -5 12 -70 c7 -41 10 -103 7 -151 -4 -55 -3 -84 5 -88 6 -4 11
-14 11 -22 0 -11 -21 -14 -114 -14 l-115 0 -41 78 c-62 117 -67 146 -37 218
13 32 27 67 31 78 6 18 7 18 27 0 17 -15 42 -20 117 -24z m-1556 0 c18 0 49 4
68 10 18 5 58 7 88 3 l54 -6 -7 -131 c-3 -72 -6 -155 -6 -183 l-1 -53 -96 0
-97 0 -32 53 c-70 112 -74 125 -67 236 l7 100 28 -15 c15 -7 43 -14 61 -14z
m-202 -26 c6 -19 8 -53 5 -77 -5 -29 -3 -47 4 -52 25 -15 131 -174 131 -196 0
-12 -457 -12 -464 0 -3 4 17 53 44 108 53 105 119 184 198 234 51 32 67 29 82
-17z m561 -16 c6 -24 20 -70 31 -103 11 -33 24 -87 28 -120 4 -33 11 -68 15
-77 6 -16 -1 -18 -83 -18 l-91 0 -7 35 c-3 19 -3 50 0 68 3 17 11 72 16 121
10 95 28 136 60 136 14 0 22 -11 31 -42z m919 -37 c0 -11 22 -57 50 -103 27
-46 50 -91 50 -100 0 -9 5 -20 10 -23 6 -3 10 -17 10 -31 0 -24 -2 -25 -57
-22 l-58 3 -12 50 c-14 63 -17 245 -3 245 6 0 10 -9 10 -19z m460 -247 c0 -8
-4 -12 -10 -9 -5 3 -10 10 -10 16 0 5 5 9 10 9 6 0 10 -7 10 -16z"/>
</g>
</svg>
