<?xml version="1.0" standalone="no"?>
<!DOCTYPE svg PUBLIC "-//W3C//DTD SVG 20010904//EN"
 "http://www.w3.org/TR/2001/REC-SVG-20010904/DTD/svg10.dtd">
<svg version="1.0" xmlns="http://www.w3.org/2000/svg"
 width="188.000000pt" height="216.000000pt" viewBox="0 0 188.000000 216.000000"
 preserveAspectRatio="xMidYMid meet">
<metadata>
Created by potrace 1.16, written by Peter Selinger 2001-2019
</metadata>
<g transform="translate(0.000000,216.000000) scale(0.100000,-0.100000)"
fill="#000000" stroke="none">
<path d="M887 2124 c-4 -4 13 -29 37 -56 28 -30 55 -75 71 -118 14 -38 35 -80
46 -94 10 -13 19 -27 19 -30 0 -24 -123 27 -156 65 -11 13 -33 45 -48 72 -29
51 -102 127 -122 127 -25 0 -25 -20 -1 -52 23 -31 67 -111 67 -123 0 -14 -37
-1 -117 40 -97 50 -127 52 -97 7 22 -35 37 -46 102 -78 28 -15 52 -29 52 -33
-1 -10 -34 -46 -60 -64 -13 -9 -41 -17 -62 -17 -43 0 -55 -12 -32 -34 21 -22
102 -21 135 2 112 75 106 74 208 31 40 -17 109 -38 154 -47 l82 -17 0 -39 c0
-38 -2 -40 -50 -56 -27 -10 -81 -34 -118 -54 -78 -41 -100 -43 -247 -22 -176
26 -307 -16 -404 -129 -29 -33 -71 -87 -93 -120 -47 -71 -138 -240 -148 -275
-4 -14 -23 -58 -43 -99 -41 -84 -45 -133 -23 -261 7 -41 15 -90 18 -107 12
-73 53 -17 53 71 0 29 3 56 6 59 4 3 24 -28 46 -71 45 -89 52 -149 22 -214
l-18 -40 27 -52 c38 -70 48 -112 36 -143 -8 -23 -5 -30 23 -58 18 -18 40 -42
48 -54 11 -17 28 -23 71 -28 66 -7 79 5 51 45 -37 54 -112 223 -112 252 0 17
17 63 37 103 l38 72 5 -49 c4 -37 10 -51 25 -56 27 -10 53 -1 70 23 8 12 20
17 30 13 19 -7 54 9 72 33 11 14 12 14 13 -4 0 -11 -7 -31 -16 -44 -15 -21
-15 -24 0 -39 14 -15 18 -14 42 9 l27 24 -7 -29 c-18 -76 -19 -86 -2 -92 10
-4 25 1 36 11 11 10 22 16 24 14 15 -14 56 -111 56 -130 0 -24 7 -38 35 -74
59 -76 60 -77 113 -83 48 -4 52 -3 52 17 0 12 -18 41 -40 65 -22 24 -40 47
-40 51 0 4 -10 24 -22 44 -31 49 -88 182 -88 203 0 29 23 20 48 -18 43 -66 74
-26 41 53 -17 42 -8 49 41 29 48 -19 143 -20 185 -2 26 11 36 10 80 -9 28 -13
58 -25 68 -28 12 -5 17 -17 17 -47 0 -50 11 -73 59 -123 32 -34 36 -44 37 -94
0 -45 5 -58 23 -72 12 -9 28 -28 34 -41 11 -22 20 -25 75 -28 56 -3 62 -1 62
17 0 11 -10 28 -22 38 -68 54 -89 112 -93 256 l-3 78 38 24 c21 14 50 37 65
52 36 38 83 133 91 183 4 23 17 54 29 69 13 14 34 47 46 71 23 43 24 54 25
276 2 228 2 232 26 267 13 20 37 46 52 58 50 39 74 132 41 159 -24 20 -62 3
-113 -49 l-47 -48 -77 3 c-43 2 -80 -1 -83 -7 -8 -11 -65 20 -65 36 0 32 87
125 117 125 20 0 51 46 58 86 9 61 -6 69 -137 70 -60 1 -111 4 -114 6 -2 3 3
34 13 70 15 56 15 73 4 121 -7 31 -17 59 -22 63 -20 12 -39 -19 -39 -61 0 -40
-52 -165 -68 -165 -4 0 -7 33 -7 73 0 58 -5 80 -24 115 -15 26 -32 42 -43 42
-17 0 -18 -5 -11 -37 10 -48 8 -136 -4 -157 -8 -14 -13 -12 -40 14 -17 16 -47
62 -68 101 -42 80 -85 134 -126 155 -31 15 -42 17 -52 8z m482 -409 c3 -12
-13 -9 -17 4 -2 7 0 11 6 7 5 -3 10 -8 11 -11z m54 -353 c25 -3 44 -13 58 -31
19 -23 20 -34 15 -96 -16 -178 -15 -176 -64 -151 -44 22 -128 38 -205 40 -70
1 -72 2 -75 28 -3 22 4 33 36 55 44 31 80 77 90 118 8 29 63 58 92 47 8 -3 32
-7 53 -10z m-822 -783 c-6 -20 -8 -45 -4 -55 8 -23 5 -21 -41 34 -20 24 -36
52 -36 61 0 10 17 37 37 61 l38 44 9 -54 c5 -35 4 -66 -3 -91z m-191 -63 c-16
-43 -20 -27 -7 29 9 38 13 44 15 24 2 -14 -2 -38 -8 -53z"/>
</g>
</svg>
