<?xml version="1.0" standalone="no"?>
<!DOCTYPE svg PUBLIC "-//W3C//DTD SVG 20010904//EN"
 "http://www.w3.org/TR/2001/REC-SVG-20010904/DTD/svg10.dtd">
<svg version="1.0" xmlns="http://www.w3.org/2000/svg"
 width="445.000000pt" height="274.000000pt" viewBox="0 0 445.000000 274.000000"
 preserveAspectRatio="xMidYMid meet">
<metadata>
Created by potrace 1.16, written by Peter Selinger 2001-2019
</metadata>
<g transform="translate(0.000000,274.000000) scale(0.100000,-0.100000)"
fill="#000000" stroke="none">
<path d="M3276 2678 c-3 -7 -6 -22 -8 -33 -2 -14 -11 -20 -30 -20 -39 -1 -43
-10 -18 -42 l22 -28 -22 -14 -21 -14 27 -28 c28 -29 26 -50 -5 -42 -15 4 -20
-1 -23 -19 -2 -17 -10 -24 -30 -26 -34 -4 -34 -8 -2 -55 30 -44 21 -67 -27
-67 -16 0 -29 -1 -29 -2 0 -2 6 -26 14 -55 15 -58 11 -71 -15 -47 -17 15 -19
14 -25 -10 -4 -19 -15 -29 -35 -33 -35 -7 -35 -10 -7 -40 19 -21 21 -27 9 -45
-13 -20 -12 -21 29 -14 44 7 70 -4 70 -30 0 -18 -38 -28 -55 -14 -8 6 -23 9
-35 5 -13 -4 -31 1 -52 16 l-31 23 8 -30 c11 -38 11 -73 1 -103 -7 -22 -6 -23
15 -18 30 8 59 -18 59 -53 0 -32 24 -68 34 -52 10 17 36 15 36 -3 0 -22 -36
-38 -60 -25 -22 12 -129 22 -142 14 -5 -3 -2 -16 6 -29 15 -22 14 -25 -6 -39
-12 -9 -20 -17 -17 -19 27 -24 104 -58 119 -54 19 5 40 -17 40 -41 0 -13 -69
-13 -92 -1 -16 9 -23 7 -35 -10 -10 -14 -25 -21 -49 -21 -41 0 -42 -6 -9 -32
22 -17 25 -25 19 -56 -7 -37 -9 -36 40 -16 7 3 16 -2 19 -10 7 -19 -1 -46 -14
-46 -14 0 -11 -28 6 -61 13 -24 20 -28 39 -23 19 4 26 1 31 -16 11 -34 -14
-54 -51 -40 -27 11 -31 9 -65 -31 l-36 -43 18 -40 c15 -36 23 -42 56 -46 45
-6 48 -22 7 -34 -16 -4 -36 -12 -44 -17 -17 -10 -27 -14 -52 -23 -13 -4 -18
-16 -18 -39 0 -43 23 -66 50 -49 23 14 54 -6 48 -34 -2 -13 -14 -21 -38 -24
-30 -4 -35 -9 -38 -35 -2 -16 -10 -37 -19 -47 -13 -14 -13 -19 2 -42 20 -30
19 -30 45 -14 31 20 38 -2 7 -24 -15 -11 -27 -29 -27 -41 0 -11 -10 -31 -22
-44 -21 -22 -21 -23 -2 -44 18 -20 18 -21 -1 -35 -10 -8 -22 -14 -27 -14 -16
0 -7 -26 22 -59 27 -31 32 -33 71 -27 30 5 46 3 58 -8 15 -14 22 -14 65 -1 27
8 75 15 106 15 l57 0 7 -145 c4 -79 5 -149 1 -155 -4 -7 -138 -10 -396 -10
-362 0 -390 1 -395 18 -3 9 -10 26 -14 37 -5 11 -11 65 -15 120 -3 55 -6 105
-6 110 -2 29 14 152 22 167 8 14 18 17 47 12 39 -6 41 -5 155 117 9 11 26 19
36 19 11 0 28 13 38 30 14 25 23 30 42 25 18 -5 31 1 52 21 41 39 40 94 -1
136 -45 44 -92 116 -88 135 2 8 18 24 36 34 54 28 70 47 98 121 21 51 25 74
18 86 -19 30 -32 23 -50 -29 -29 -79 -95 -139 -80 -72 21 96 26 146 15 159
-12 15 -39 19 -40 7 0 -5 -1 -25 -3 -46 -4 -54 -23 -69 -31 -25 -6 32 3 79 39
211 22 79 21 117 -2 117 -13 0 -22 -16 -35 -69 -10 -38 -24 -77 -31 -87 -13
-17 -15 -15 -25 21 -6 22 -11 48 -11 57 0 40 -24 118 -37 118 -10 0 -13 -19
-13 -71 0 -81 -11 -87 -47 -23 -25 44 -65 94 -75 94 -3 0 -17 -27 -30 -60 -12
-33 -27 -60 -31 -60 -4 0 -7 35 -6 78 3 81 -3 102 -26 102 -19 0 -29 -59 -21
-131 4 -32 4 -59 1 -59 -18 0 -64 43 -69 65 -8 30 -19 32 -45 6 -10 -10 -24
-20 -31 -23 -10 -3 -10 -11 -1 -41 11 -31 18 -37 49 -43 89 -16 126 -55 147
-152 24 -116 66 -184 141 -228 41 -24 44 -28 30 -42 -10 -11 -36 -16 -85 -16
-60 -1 -73 2 -96 24 -31 29 -88 31 -148 4 -33 -15 -42 -15 -78 -4 -32 11 -50
11 -85 2 -24 -7 -70 -12 -102 -12 -67 0 -100 -16 -171 -82 -56 -52 -70 -87
-52 -132 7 -17 19 -62 27 -99 18 -82 8 -124 -41 -177 -18 -19 -35 -43 -38 -53
-4 -9 -14 -17 -22 -17 -14 0 -52 16 -64 26 -6 6 29 33 58 45 13 5 21 12 18 16
-4 3 1 12 11 19 27 20 0 37 -60 38 -51 1 -53 2 -51 28 1 15 13 40 27 55 36 38
34 70 -3 78 -33 7 -64 35 -39 35 21 0 57 42 41 47 -17 6 -5 54 16 70 14 11 13
13 -6 19 -15 4 -23 14 -23 28 0 21 -1 21 -18 -2 -15 -19 -25 -23 -53 -19 -30
3 -32 5 -12 12 13 4 33 23 45 43 20 33 21 35 3 48 -10 7 -23 15 -29 17 -8 3
-7 9 2 20 8 9 11 21 7 27 -3 5 1 10 9 10 9 0 16 5 16 12 0 6 7 20 16 29 16 17
15 19 -10 29 -15 5 -36 10 -47 10 -23 0 -23 4 -4 34 13 20 13 25 1 35 -7 6
-17 32 -21 57 -3 25 -13 48 -20 51 -8 2 -17 14 -20 24 -6 19 -8 19 -32 -5 -17
-17 -24 -34 -22 -54 2 -16 -5 -41 -14 -56 -15 -23 -16 -30 -5 -43 11 -13 9
-18 -9 -30 -18 -12 -20 -19 -12 -40 8 -21 7 -24 -6 -19 -8 3 -15 2 -15 -3 0
-18 -44 -27 -78 -16 -43 15 -61 42 -35 52 21 7 73 53 73 65 0 4 -6 8 -13 8 -7
0 -18 9 -25 20 -11 18 -10 20 13 20 22 0 25 3 19 25 -4 18 -1 27 10 31 25 10
19 34 -9 34 -21 0 -25 5 -25 30 0 39 -15 38 -29 -1 -7 -20 -16 -29 -28 -28
-10 2 -31 0 -46 -4 -15 -4 -32 -5 -37 -2 -14 9 19 55 40 55 10 0 21 8 24 18 8
21 28 55 45 75 10 13 8 18 -18 31 -16 9 -39 16 -51 16 -26 0 -26 15 1 34 17
12 20 20 14 46 -7 32 -6 32 20 26 25 -6 27 -5 22 14 -4 14 1 27 13 37 17 15
17 17 -18 35 -24 12 -47 16 -64 12 -35 -7 -37 10 -8 61 21 38 19 55 -6 55 -13
0 -14 8 -9 40 7 40 6 41 -19 34 -30 -7 -33 0 -11 23 12 11 13 18 5 29 -7 7 -9
22 -5 33 5 15 2 18 -13 14 -15 -3 -23 3 -32 29 l-13 33 -6 -35 c-5 -31 -9 -35
-34 -32 -31 3 -32 0 -14 -28 10 -17 9 -22 -3 -30 -12 -7 -11 -13 10 -34 19
-22 21 -26 6 -26 -9 0 -21 -11 -26 -25 -6 -15 -17 -25 -30 -25 -25 0 -25 -11
1 -44 24 -30 18 -46 -18 -46 -22 0 -24 -3 -18 -22 4 -13 9 -36 12 -52 5 -25 3
-27 -16 -21 -12 3 -21 2 -21 -4 0 -5 -14 -12 -30 -16 -32 -7 -39 -22 -15 -31
8 -4 15 -17 15 -30 0 -20 5 -24 29 -24 35 0 60 -25 42 -43 -9 -9 -16 -9 -31 1
-11 6 -31 12 -45 12 -14 0 -25 5 -25 10 0 6 -7 10 -15 10 -12 0 -13 -5 -4 -27
5 -14 7 -39 4 -55 -5 -20 -3 -28 8 -28 21 0 46 -32 53 -68 4 -21 12 -31 23
-29 9 1 16 -2 16 -8 0 -10 -19 -10 -93 1 -50 7 -73 -6 -53 -30 10 -11 8 -17
-9 -29 -21 -14 -20 -15 23 -36 24 -11 53 -21 65 -21 20 0 47 -31 37 -42 -3 -3
-27 1 -53 7 -39 11 -50 10 -63 -1 -8 -8 -25 -14 -37 -14 -27 0 -28 -11 -2 -28
15 -9 18 -19 13 -43 -6 -30 -5 -31 16 -20 17 10 22 9 27 -4 4 -9 1 -27 -6 -40
-11 -20 -10 -28 4 -49 9 -14 22 -23 29 -20 8 3 19 -2 26 -10 17 -21 -10 -31
-77 -31 l-53 1 6 -34 c4 -19 2 -39 -5 -47 -9 -11 -4 -17 22 -29 18 -8 42 -16
52 -18 35 -6 29 -27 -11 -38 -21 -6 -49 -19 -61 -30 -20 -16 -22 -24 -15 -47
8 -23 16 -28 41 -28 16 0 34 -3 37 -7 14 -14 -5 -38 -30 -38 -16 0 -28 -7 -31
-18 -3 -9 -12 -28 -19 -42 -11 -21 -11 -28 0 -43 10 -14 18 -16 32 -8 35 18
45 -3 13 -27 -16 -13 -30 -31 -30 -41 0 -10 -7 -22 -15 -25 -13 -5 -14 -10 -5
-27 9 -16 8 -24 -5 -39 -16 -18 -16 -21 5 -51 20 -27 27 -30 55 -26 18 3 37 1
43 -5 8 -8 24 -7 56 1 25 6 65 11 90 11 43 0 45 -2 51 -32 3 -18 5 -76 3 -128
l-3 -95 -395 -5 c-360 -5 -398 -7 -423 -23 -34 -22 -67 -74 -67 -104 l0 -23
2175 0 c1615 0 2175 3 2175 11 0 31 -26 91 -47 111 l-25 23 -486 5 -487 5 -7
120 c-5 96 -4 124 8 142 17 27 41 29 71 8 14 -10 32 -13 47 -9 19 4 33 -2 62
-29 l38 -35 38 20 c44 23 44 43 2 89 -31 32 -30 43 3 64 24 16 28 16 54 1 32
-19 69 -8 69 21 0 9 7 24 16 34 15 16 14 19 -5 31 -12 7 -21 23 -21 37 0 13
-8 29 -17 36 -15 11 -15 15 -4 29 7 9 11 22 8 29 -3 8 -1 20 4 28 6 10 0 20
-19 35 -26 21 -26 23 -9 42 22 25 11 34 -63 56 -70 21 -83 29 -78 52 3 15 11
18 41 16 37 -4 37 -3 30 29 -6 31 -5 32 23 26 69 -13 69 -13 66 12 -1 15 7 35
24 52 31 32 25 49 -17 49 -21 0 -29 5 -29 18 0 30 -12 34 -36 11 -20 -18 -26
-20 -39 -9 -13 11 -19 10 -33 -4 -24 -21 -27 -21 -56 11 -24 25 -24 29 -11 50
10 14 13 33 9 48 -6 23 -3 25 25 25 34 0 36 2 20 31 -9 17 -7 21 11 26 21 6
50 50 50 76 0 10 -8 13 -25 9 -18 -3 -30 1 -39 13 -10 14 -21 17 -44 12 -27
-6 -32 -4 -32 13 0 10 -7 23 -16 28 -24 13 -8 32 26 32 19 0 36 10 54 31 32
37 32 45 5 52 -14 4 -20 11 -16 21 4 9 -1 17 -11 19 -10 3 -5 5 11 6 28 1 38
25 15 34 -9 3 -2 16 20 39 34 36 33 48 -4 48 -18 0 -24 7 -30 35 -8 44 -16 44
-37 1 -13 -28 -22 -35 -44 -34 -15 0 -42 -2 -60 -6 -18 -4 -34 -3 -37 3 -9 15
35 56 56 53 13 -2 18 3 18 17 0 12 9 29 20 38 11 10 20 25 20 34 0 9 10 20 22
26 22 9 21 11 -21 37 -37 24 -48 26 -68 17 -33 -15 -33 -15 -20 19 6 17 20 33
30 36 15 5 17 12 11 51 -5 37 -4 45 7 41 57 -21 59 -21 53 11 -5 23 -2 32 15
43 30 19 26 35 -11 43 -18 4 -38 11 -44 16 -6 5 -27 8 -45 7 -38 -3 -51 21
-25 47 8 9 13 22 10 30 -4 8 1 18 10 21 23 9 20 28 -6 39 -24 10 -29 39 -15
81 7 19 4 21 -18 16 -27 -5 -35 14 -13 36 8 8 8 15 -1 26 -7 9 -9 25 -5 43 7
25 6 27 -9 14 -25 -20 -47 -6 -47 28 0 31 -17 52 -24 29z m-776 -1203 c14 -7
36 -25 49 -39 22 -23 25 -36 25 -109 1 -57 -3 -89 -13 -100 -18 -22 -22 -22
-59 11 -29 26 -31 33 -34 107 -3 83 -16 101 -31 43 -5 -18 -12 -37 -17 -41
-10 -12 -23 94 -14 127 6 24 10 26 38 20 17 -3 42 -12 56 -19z m-1218 -420 c6
-14 15 -25 20 -25 4 0 8 -7 8 -16 0 -15 -2 -15 -25 0 -13 9 -36 16 -50 16 -18
0 -25 5 -25 19 0 37 56 42 72 6z m870 -627 c2 -62 1 -149 -2 -193 l-5 -80 -60
0 c-58 0 -59 1 -66 30 -4 17 -13 46 -20 65 -6 19 -18 52 -26 73 -7 20 -13 75
-13 122 l0 84 53 4 c28 2 70 4 93 5 l41 2 5 -112z m-308 86 c3 -9 6 -40 6 -71
0 -40 5 -62 20 -80 11 -14 20 -35 20 -47 0 -12 12 -43 26 -69 14 -27 24 -58
22 -70 -3 -21 -7 -22 -152 -25 -139 -2 -148 -1 -141 15 4 10 11 34 15 53 32
142 55 194 119 267 39 45 56 52 65 27z m454 -86 c8 -45 19 -93 26 -107 9 -18
12 -47 7 -96 l-6 -70 -45 0 -45 0 1 65 c0 65 11 197 20 258 9 59 29 36 42 -50z
m-1160 -44 c16 -5 21 -12 17 -25 -11 -34 39 -54 127 -52 l78 2 0 -79 0 -80
-140 0 c-161 0 -145 -12 -154 118 -7 107 8 133 72 116z m402 -113 c21 -15 25
-26 25 -67 l0 -49 -60 0 -60 0 -3 74 -3 73 38 -6 c21 -4 49 -15 63 -25z"/>
</g>
</svg>
