<?xml version="1.0" standalone="no"?>
<!DOCTYPE svg PUBLIC "-//W3C//DTD SVG 20010904//EN"
 "http://www.w3.org/TR/2001/REC-SVG-20010904/DTD/svg10.dtd">
<svg version="1.0" xmlns="http://www.w3.org/2000/svg"
 width="188.000000pt" height="188.000000pt" viewBox="0 0 188.000000 188.000000"
 preserveAspectRatio="xMidYMid meet">
<metadata>
Created by potrace 1.16, written by Peter Selinger 2001-2019
</metadata>
<g transform="translate(0.000000,188.000000) scale(0.100000,-0.100000)"
fill="#000000" stroke="none">
<path d="M571 1846 c-15 -17 -10 -27 61 -135 86 -130 85 -123 49 -201 -37 -79
-38 -101 -10 -174 14 -39 18 -66 14 -93 -13 -75 -11 -73 -75 -73 -69 0 -199
-36 -261 -72 -25 -15 -63 -48 -85 -73 -21 -26 -73 -82 -115 -124 -42 -42 -82
-86 -88 -98 -17 -33 -13 -113 9 -160 49 -109 51 -271 5 -387 -14 -35 -23 -72
-19 -82 3 -11 11 -32 16 -47 l11 -28 24 23 c14 13 32 37 40 53 9 17 30 42 48
57 25 21 35 40 44 86 6 32 20 76 31 97 28 55 26 73 -25 184 -43 93 -54 146
-39 185 11 28 32 17 39 -21 10 -57 39 -106 90 -154 61 -57 75 -86 75 -153 0
-54 1 -57 70 -133 80 -88 150 -189 150 -216 0 -29 28 -75 50 -82 11 -4 34 -4
50 0 24 5 30 12 30 34 0 16 -10 37 -24 51 -14 12 -28 35 -31 50 -3 15 -18 47
-33 71 -15 24 -45 80 -67 124 -38 78 -39 84 -46 225 -10 180 -6 187 73 148 63
-31 99 -42 198 -63 75 -16 110 -36 110 -63 0 -17 -68 -304 -106 -449 -3 -12 2
-42 11 -67 20 -53 55 -73 98 -57 31 12 34 31 11 67 -16 23 -16 28 0 76 9 27
16 59 16 69 0 10 4 21 10 24 6 4 7 -23 4 -72 -6 -76 -5 -79 25 -121 27 -37 36
-42 70 -42 53 0 61 25 27 83 -35 59 -34 125 4 262 17 60 35 143 40 184 9 68
13 79 45 109 44 41 65 40 90 -3 11 -19 62 -100 113 -178 50 -79 92 -153 92
-164 0 -49 82 -130 119 -118 42 13 21 95 -43 165 -35 38 -226 334 -226 350 0
15 14 12 73 -14 71 -31 130 -89 152 -151 10 -27 25 -57 32 -66 8 -10 18 -45
23 -79 11 -79 29 -100 78 -93 51 8 72 20 72 43 0 10 5 22 10 25 7 4 8 29 4 66
-4 35 -2 90 6 133 9 52 9 79 2 93 -9 16 -5 25 24 52 18 18 34 39 34 46 0 29
-31 45 -86 45 -69 0 -105 16 -178 78 -35 31 -82 59 -120 73 -161 58 -289 148
-308 216 -8 30 -19 39 -90 73 -97 47 -118 65 -118 99 1 24 20 61 32 61 3 0 10
-12 16 -27 34 -92 35 -94 55 -91 33 5 43 31 30 80 -6 24 -11 43 -10 44 1 1 12
4 23 8 17 5 29 -4 62 -48 45 -59 76 -76 98 -54 12 12 10 19 -11 50 -32 48 -32
53 4 27 57 -42 71 13 19 76 -18 21 -32 47 -30 56 2 10 -4 34 -12 54 -11 26
-27 41 -59 55 -41 18 -46 18 -93 3 -48 -15 -53 -15 -112 6 -74 25 -110 26
-159 6 -44 -18 -38 -23 -114 95 -29 47 -58 88 -64 92 -16 12 -42 9 -54 -6z"/>
</g>
</svg>
