<?xml version="1.0" standalone="no"?>
<!DOCTYPE svg PUBLIC "-//W3C//DTD SVG 20010904//EN"
 "http://www.w3.org/TR/2001/REC-SVG-20010904/DTD/svg10.dtd">
<svg version="1.0" xmlns="http://www.w3.org/2000/svg"
 width="301.000000pt" height="136.000000pt" viewBox="0 0 301.000000 136.000000"
 preserveAspectRatio="xMidYMid meet">
<metadata>
Created by potrace 1.16, written by Peter Selinger 2001-2019
</metadata>
<g transform="translate(0.000000,136.000000) scale(0.100000,-0.100000)"
fill="#000000" stroke="none">
<path d="M1520 1291 c-296 -84 -389 -97 -500 -68 -74 20 -189 -7 -303 -69 -36
-20 -167 -152 -167 -169 0 -7 -7 -18 -15 -25 -29 -24 -82 -116 -100 -172 -27
-87 -33 -92 -83 -77 -23 7 -45 9 -48 6 -4 -3 8 -31 25 -61 17 -30 28 -62 25
-70 -3 -8 6 -38 19 -68 16 -34 27 -83 32 -134 10 -114 45 -159 105 -134 36 15
43 31 46 100 1 38 10 69 28 100 18 32 26 59 26 96 0 40 6 58 28 86 34 46 76
71 102 63 40 -13 54 -61 56 -199 3 -146 -7 -241 -30 -304 -22 -58 -11 -106 26
-110 18 -2 30 3 36 15 10 18 26 112 37 213 4 30 12 75 20 100 7 25 16 71 19
103 6 58 38 137 56 137 24 0 99 -132 100 -175 0 -11 11 -40 24 -65 13 -25 31
-68 39 -95 14 -47 13 -55 -4 -100 -30 -78 -8 -168 36 -151 8 3 15 14 15 24 0
11 9 41 21 66 22 50 22 54 -5 196 -26 144 -47 301 -40 311 4 7 33 8 78 4 92
-9 194 22 294 89 38 25 74 46 79 46 6 0 27 -38 47 -84 26 -57 57 -105 95 -147
l56 -63 3 -108 c3 -94 1 -114 -17 -148 -27 -53 -38 -119 -21 -130 7 -4 24 -5
39 -1 39 11 61 68 72 185 6 56 16 126 24 157 20 78 19 90 -15 156 -16 33 -32
83 -36 117 l-7 58 27 -17 c15 -10 33 -33 41 -52 15 -37 174 -198 204 -208 29
-9 32 -29 20 -131 -13 -109 -9 -228 9 -246 8 -8 54 -12 144 -12 l133 -1 3 27
c3 23 -3 30 -31 44 l-34 16 -1 82 c-1 44 -7 102 -14 128 -15 61 -3 78 55 73
23 -1 48 2 54 7 8 7 22 7 40 0 16 -5 37 -6 48 -1 11 4 32 8 48 8 34 1 35 18 2
27 -31 8 -31 15 0 44 32 30 25 39 -24 33 -35 -5 -43 -1 -84 36 -30 28 -46 52
-49 73 -5 34 8 97 20 99 62 10 73 7 87 -27 8 -19 19 -34 25 -34 15 0 30 44 30
89 0 21 6 44 14 51 16 12 13 26 -19 78 -15 25 -26 32 -52 32 -18 0 -51 9 -73
21 -22 12 -47 19 -55 15 -17 -6 -20 -32 -5 -41 18 -11 10 -34 -13 -40 -15 -4
-39 3 -67 19 -57 32 -100 33 -218 2 l-92 -24 0 77 c0 124 -38 168 -204 238
-82 34 -196 40 -286 14z m790 -558 c0 -9 5 -33 12 -55 10 -33 21 -44 70 -71
32 -18 58 -35 58 -40 0 -4 -30 -6 -66 -4 -66 4 -66 4 -94 48 -15 24 -40 56
-55 71 -34 34 -29 48 21 63 44 13 54 11 54 -12z"/>
</g>
</svg>
