<?xml version="1.0" standalone="no"?>
<!DOCTYPE svg PUBLIC "-//W3C//DTD SVG 20010904//EN"
 "http://www.w3.org/TR/2001/REC-SVG-20010904/DTD/svg10.dtd">
<svg version="1.0" xmlns="http://www.w3.org/2000/svg"
 width="341.000000pt" height="174.000000pt" viewBox="0 0 341.000000 174.000000"
 preserveAspectRatio="xMidYMid meet">
<metadata>
Created by potrace 1.16, written by Peter Selinger 2001-2019
</metadata>
<g transform="translate(0.000000,174.000000) scale(0.100000,-0.100000)"
fill="#000000" stroke="none">
<path d="M1996 1712 c-10 -16 -36 -97 -36 -113 0 -25 -55 -186 -88 -258 -28
-62 -29 -63 -36 -35 -4 16 -21 59 -38 96 -23 50 -41 74 -70 93 -26 17 -44 23
-50 17 -5 -5 -12 -45 -14 -88 -4 -69 -16 -144 -44 -289 -35 -181 -61 -259 -87
-263 -10 -1 -36 3 -58 11 -38 13 -40 16 -50 73 -39 214 -205 287 -286 126 -15
-30 -43 -70 -63 -91 -55 -56 -42 -95 19 -55 l24 16 -6 -36 c-8 -50 12 -47 67
9 52 53 93 61 112 20 9 -20 8 -33 -8 -67 -47 -105 -15 -179 127 -291 l99 -78
0 -57 c-1 -31 -9 -80 -18 -109 -20 -56 -82 -144 -96 -136 -5 3 -6 46 -2 95 5
82 16 119 63 226 3 6 -1 12 -9 12 -15 0 -69 -54 -111 -112 -35 -47 -97 -168
-97 -189 0 -8 -6 -23 -14 -34 -12 -16 -14 -14 -18 29 -7 57 -57 161 -78 161
-12 0 -14 -13 -12 -65 3 -69 -12 -168 -28 -184 -13 -13 -31 11 -81 111 -35 68
-43 96 -51 174 -5 51 -11 96 -14 99 -10 9 -43 -40 -64 -98 -18 -48 -21 -73
-18 -159 2 -57 0 -103 -5 -103 -5 0 -21 13 -37 30 -28 30 -50 95 -50 149 0 44
-13 45 -58 3 -43 -40 -79 -132 -66 -167 15 -39 -16 -2 -51 61 -20 36 -41 64
-47 62 -6 -2 -21 -33 -32 -68 -12 -35 -27 -65 -33 -67 -21 -7 -83 138 -83 193
0 61 -9 96 -24 91 -17 -5 -66 -107 -66 -139 0 -37 -9 -35 -50 7 -48 50 -58 46
-57 -23 1 -69 -21 -117 -66 -140 -62 -34 -87 -66 -87 -116 l0 -46 1660 0 1660
0 0 44 c0 46 -26 90 -59 101 -44 14 -59 95 -36 187 6 24 4 28 -13 28 -11 0
-34 -11 -50 -25 -17 -14 -32 -25 -35 -25 -3 0 -8 16 -11 35 -8 38 -50 95 -72
95 -11 0 -14 -16 -14 -65 0 -72 -20 -123 -63 -163 l-25 -24 -1 59 c0 84 -42
186 -69 169 -5 -3 -14 -25 -20 -49 -6 -24 -24 -55 -41 -71 l-30 -29 -11 27
c-12 33 -13 78 -1 127 13 56 -3 71 -35 34 -52 -61 -109 -141 -126 -177 -23
-47 -38 -49 -38 -4 0 22 -9 45 -24 63 l-24 28 -12 -30 c-29 -74 -56 -119 -85
-141 -38 -29 -60 -32 -50 -6 24 55 37 128 37 212 1 78 -4 110 -26 175 -30 88
-71 165 -87 165 -8 0 -9 -29 -3 -92 10 -115 8 -157 -12 -233 -17 -67 -73 -187
-90 -192 -36 -12 -7 253 35 320 22 36 28 67 12 67 -21 0 -129 -132 -162 -197
l-35 -71 -52 35 c-29 19 -56 42 -61 51 -13 24 -35 131 -29 137 3 3 16 2 29 -3
13 -5 30 -7 37 -5 16 6 15 30 -2 40 -7 4 -26 32 -40 61 -25 50 -26 57 -16 108
6 29 16 56 21 59 5 4 8 20 8 38 -2 52 20 118 50 153 29 32 91 180 91 215 0 11
7 33 15 49 11 22 14 51 10 117 -7 135 -24 190 -81 261 -46 58 -66 72 -78 54z
m-377 -1291 c42 -33 85 -56 122 -64 15 -4 36 -15 47 -24 l21 -18 -47 -73 -47
-74 -11 45 c-13 51 -44 108 -55 101 -4 -2 -15 -26 -24 -53 -14 -43 -68 -111
-79 -100 -3 2 5 31 16 64 16 48 19 76 15 143 -3 45 -3 82 0 82 3 0 22 -13 42
-29z"/>
</g>
</svg>
