<?xml version="1.0" standalone="no"?>
<!DOCTYPE svg PUBLIC "-//W3C//DTD SVG 20010904//EN"
 "http://www.w3.org/TR/2001/REC-SVG-20010904/DTD/svg10.dtd">
<svg version="1.0" xmlns="http://www.w3.org/2000/svg"
 width="211.000000pt" height="216.000000pt" viewBox="0 0 211.000000 216.000000"
 preserveAspectRatio="xMidYMid meet">
<metadata>
Created by potrace 1.16, written by Peter Selinger 2001-2019
</metadata>
<g transform="translate(0.000000,216.000000) scale(0.100000,-0.100000)"
fill="#000000" stroke="none">
<path d="M1183 1770 c-23 -5 -56 -16 -73 -25 -39 -20 -118 -17 -240 10 -81 17
-88 17 -144 1 -69 -20 -149 -90 -198 -171 -17 -28 -46 -62 -65 -75 -19 -13
-41 -37 -50 -53 -8 -16 -25 -39 -37 -51 -12 -11 -30 -41 -39 -66 -35 -96 -67
-331 -67 -491 0 -43 -3 -79 -7 -79 -3 0 -14 6 -22 14 -9 8 -33 21 -53 29 -36
15 -38 15 -38 -2 0 -25 41 -83 68 -97 34 -17 34 -17 21 -98 -12 -70 -11 -79 8
-123 42 -98 84 -261 77 -303 -5 -29 -2 -47 10 -65 15 -23 22 -25 91 -25 82 0
105 12 105 58 1 15 8 45 16 67 9 22 21 60 27 84 6 25 20 49 33 58 47 30 56
142 17 217 -9 17 -16 51 -15 76 1 47 32 148 56 185 8 12 19 41 26 63 6 23 15
42 19 42 19 0 44 -149 38 -231 -4 -56 -1 -99 10 -142 13 -52 14 -75 4 -148 -6
-47 -11 -104 -11 -125 0 -25 -9 -51 -27 -77 -30 -43 -36 -103 -12 -118 17 -10
106 -11 133 0 17 7 19 22 22 179 2 94 10 202 18 239 8 37 18 148 22 245 4 98
12 187 18 199 6 12 24 31 39 43 l28 21 34 -40 c26 -31 34 -49 34 -80 1 -22 7
-71 15 -110 8 -38 19 -100 24 -137 7 -47 20 -84 45 -125 33 -53 36 -68 46
-176 10 -116 10 -118 -14 -153 -50 -73 -30 -104 66 -104 98 0 111 18 78 108
-5 13 -9 49 -9 81 0 32 -7 76 -16 97 -10 23 -19 89 -24 168 -5 72 -13 147 -19
166 -12 39 -11 329 1 336 5 3 10 -1 12 -8 19 -63 46 -121 83 -175 69 -102 79
-174 63 -458 -5 -99 -12 -204 -16 -233 -9 -81 -2 -85 128 -80 67 3 113 9 122
17 19 16 21 54 5 83 -6 12 -13 49 -14 82 -2 36 -12 81 -25 109 -20 44 -21 60
-17 185 8 220 27 370 50 399 16 22 23 6 25 -58 1 -36 8 -69 16 -78 7 -9 16
-43 19 -76 5 -48 11 -64 32 -80 14 -12 25 -31 25 -43 0 -28 34 -62 61 -62 11
0 32 -9 46 -20 14 -11 30 -20 34 -20 5 0 9 9 9 20 0 24 13 25 45 4 31 -20 33
-4 5 36 -11 16 -27 47 -35 70 -8 23 -26 55 -40 72 -28 33 -25 48 7 48 l21 0
-20 23 c-28 30 -55 85 -48 97 3 6 16 5 30 -2 38 -17 41 -3 8 39 -56 72 -58 77
-64 273 -5 158 -9 193 -28 242 -30 77 -58 116 -111 155 -25 17 -63 47 -84 65
-68 57 -77 61 -170 69 -50 5 -116 10 -146 13 -30 3 -74 1 -97 -4z"/>
</g>
</svg>
