<?xml version="1.0" standalone="no"?>
<!DOCTYPE svg PUBLIC "-//W3C//DTD SVG 20010904//EN"
 "http://www.w3.org/TR/2001/REC-SVG-20010904/DTD/svg10.dtd">
<svg version="1.0" xmlns="http://www.w3.org/2000/svg"
 width="400.000000pt" height="300.000000pt" viewBox="0 0 400.000000 300.000000"
 preserveAspectRatio="xMidYMid meet">
<metadata>
Created by potrace 1.16, written by Peter Selinger 2001-2019
</metadata>
<g transform="translate(0.000000,300.000000) scale(0.100000,-0.100000)"
fill="#000000" stroke="none">
<path d="M2860 2419 c-31 -19 -43 -21 -112 -15 -77 6 -78 6 -84 -18 -8 -32 30
-83 68 -92 15 -4 35 -15 45 -26 16 -17 16 -22 3 -46 -9 -15 -33 -36 -54 -46
-21 -10 -46 -32 -55 -47 -17 -31 -58 -46 -75 -29 -8 8 -1 20 27 46 47 43 52
97 12 134 -22 21 -26 22 -47 8 -13 -8 -48 -18 -78 -22 -30 -4 -66 -14 -79 -23
-15 -10 -34 -13 -55 -9 -26 5 -40 1 -69 -21 -19 -16 -58 -40 -87 -56 -35 -19
-59 -41 -78 -73 -15 -25 -48 -68 -74 -94 -44 -46 -68 -97 -68 -144 0 -30 -77
-97 -169 -146 -48 -26 -97 -61 -118 -85 -39 -45 -153 -272 -153 -305 0 -27
-22 -70 -50 -95 -12 -11 -29 -32 -36 -48 -14 -26 -12 -32 22 -103 25 -49 34
-78 28 -84 -6 -6 -94 -11 -207 -12 l-196 -2 -26 28 c-23 25 -26 36 -24 85 1
31 -1 75 -5 97 -5 30 -3 52 9 80 l16 39 27 -43 c43 -67 55 -57 47 41 -4 45
-13 92 -21 104 -8 12 -14 33 -14 46 0 13 -6 45 -14 71 -14 47 -14 47 15 68 42
32 44 51 9 99 -16 23 -30 49 -30 57 0 11 -6 12 -27 6 -29 -8 -63 -9 -98 -3
-18 4 -20 -1 -17 -56 3 -48 -1 -69 -21 -105 -29 -54 -42 -140 -42 -278 0 -56
-3 -102 -6 -102 -9 0 -24 165 -22 253 0 45 6 83 13 92 10 12 10 18 -1 31 -11
13 -28 15 -92 12 -43 -3 -80 -1 -83 4 -3 4 -9 8 -15 8 -13 0 -11 -44 2 -57 17
-17 -7 -76 -42 -102 -17 -12 -63 -40 -102 -60 -106 -56 -129 -113 -86 -208 11
-25 22 -60 24 -77 3 -17 7 -52 9 -78 l6 -48 -53 0 c-61 0 -120 -30 -115 -58 3
-14 15 -17 76 -17 39 0 781 2 1647 3 1493 2 1575 3 1575 20 0 9 -7 26 -16 37
-13 17 -28 20 -100 22 -92 1 -103 5 -86 26 6 7 12 45 12 83 3 635 3 619 -23
670 -13 27 -27 63 -31 79 -4 17 -21 51 -37 78 -16 26 -29 56 -29 67 0 68 -24
126 -75 180 -71 75 -94 117 -88 157 5 28 2 34 -21 43 -15 5 -30 20 -35 34 -10
26 -34 32 -151 42 -55 4 -70 2 -100 -17z m40 -305 c0 -9 -13 -32 -30 -51 -16
-18 -30 -42 -30 -52 0 -9 -12 -28 -26 -42 -14 -13 -37 -43 -51 -67 -28 -47
-32 -48 -153 -57 -68 -4 -89 -2 -107 10 -34 24 -30 105 6 105 9 0 30 9 46 20
17 11 38 20 48 20 20 0 97 37 97 47 0 3 -7 15 -17 25 -15 17 -15 18 10 18 26
0 96 15 147 31 41 12 60 10 60 -7z m-350 -433 c0 -14 -49 -23 -83 -15 -22 4
-26 8 -16 15 18 11 99 12 99 0z m360 -54 c0 -24 -9 -57 -20 -77 -11 -19 -27
-49 -35 -66 -8 -18 -27 -37 -45 -44 -17 -7 -36 -22 -42 -33 -16 -31 11 -45 74
-39 76 7 94 16 120 61 28 50 41 51 55 7 8 -27 8 -41 -3 -61 -38 -74 -24 -182
32 -239 19 -20 39 -36 44 -36 19 0 10 -32 -14 -51 -14 -11 -26 -32 -28 -47 -3
-23 -7 -27 -33 -25 -16 1 -75 4 -130 7 -55 2 -127 12 -160 21 -47 12 -69 14
-108 5 -26 -5 -74 -10 -105 -10 -32 0 -63 -5 -68 -10 -8 -8 -19 -8 -38 0 -27
10 -43 9 -123 -12 -31 -7 -55 -7 -87 1 -31 8 -79 8 -161 1 -127 -10 -145 -7
-145 22 0 12 -11 23 -31 30 -41 14 -38 57 6 71 45 14 75 46 81 88 6 34 9 37
46 42 61 8 148 56 200 109 49 50 58 56 58 36 0 -6 16 -45 36 -85 36 -72 39
-75 110 -109 79 -39 107 -41 112 -7 2 16 -11 37 -47 73 -28 28 -58 67 -66 86
-21 50 -30 202 -16 247 12 37 31 50 31 23 0 -16 91 -76 115 -76 7 0 17 4 20
10 3 6 42 7 98 3 l92 -6 60 46 c33 25 69 54 79 66 28 31 36 26 36 -22z m395
-497 c4 -36 3 -66 -4 -78 -6 -12 -11 -30 -11 -41 0 -19 -6 -21 -56 -21 l-56 0
36 40 c30 33 36 48 36 83 0 24 -6 49 -12 56 -11 10 -8 16 12 31 22 17 26 18
37 4 6 -8 14 -42 18 -74z m-2505 50 c0 -9 78 -64 103 -73 6 -2 7 -27 2 -66
l-7 -62 -62 1 c-33 1 -82 -2 -107 -5 -41 -7 -48 -4 -79 23 -28 26 -31 34 -21
46 7 8 16 27 20 43 10 39 35 36 39 -4 4 -38 54 -83 92 -83 20 0 22 3 15 33
-13 63 -17 157 -6 157 6 0 11 -5 11 -10z m890 -112 c0 -24 3 -53 6 -65 10 -37
-20 -28 -39 12 -21 44 -21 54 0 77 25 28 33 22 33 -24z"/>
</g>
</svg>
