<?xml version="1.0" standalone="no"?>
<!DOCTYPE svg PUBLIC "-//W3C//DTD SVG 20010904//EN"
 "http://www.w3.org/TR/2001/REC-SVG-20010904/DTD/svg10.dtd">
<svg version="1.0" xmlns="http://www.w3.org/2000/svg"
 width="258.000000pt" height="148.000000pt" viewBox="0 0 258.000000 148.000000"
 preserveAspectRatio="xMidYMid meet">
<metadata>
Created by potrace 1.16, written by Peter Selinger 2001-2019
</metadata>
<g transform="translate(0.000000,148.000000) scale(0.100000,-0.100000)"
fill="#000000" stroke="none">
<path d="M591 1401 c-15 -10 -14 -17 18 -101 12 -30 26 -56 31 -58 5 -2 20
-12 32 -21 20 -17 21 -21 10 -60 -7 -23 -10 -56 -7 -74 6 -29 2 -36 -37 -67
-24 -20 -61 -47 -83 -60 -139 -83 -224 -214 -265 -412 -12 -57 -34 -141 -47
-188 -14 -47 -28 -96 -30 -110 l-5 -26 89 0 c56 0 110 -6 147 -17 83 -26 91
-17 99 116 10 161 59 305 119 350 23 17 28 17 61 3 22 -9 46 -29 58 -51 38
-63 109 -82 179 -47 47 23 75 69 90 145 6 35 16 70 20 77 5 9 42 19 91 26 104
15 121 30 127 113 4 54 8 63 36 84 l31 23 279 -9 c201 -7 285 -6 303 2 13 6
31 27 39 47 l15 35 62 -6 c114 -12 320 -10 345 3 19 11 22 21 22 82 0 90 -5
100 -45 100 -26 0 -39 7 -55 30 -26 37 -33 37 -70 2 -28 -27 -31 -28 -103 -21
-41 4 -247 10 -457 15 -380 7 -382 7 -410 30 -44 38 -68 42 -250 45 l-172 4
-42 -48 c-29 -34 -48 -47 -67 -47 -30 0 -75 32 -84 59 -3 10 -17 23 -31 29
-29 14 -26 14 -43 3z m407 -651 c3 -55 -13 -88 -55 -113 -58 -33 -141 8 -160
81 -3 15 -1 27 7 32 16 10 40 2 40 -13 0 -18 42 -57 63 -57 16 0 18 5 12 40
-11 65 -1 82 48 78 l42 -3 3 -45z"/>
</g>
</svg>
