<?xml version="1.0" standalone="no"?>
<!DOCTYPE svg PUBLIC "-//W3C//DTD SVG 20010904//EN"
 "http://www.w3.org/TR/2001/REC-SVG-20010904/DTD/svg10.dtd">
<svg version="1.0" xmlns="http://www.w3.org/2000/svg"
 width="425.000000pt" height="89.000000pt" viewBox="0 0 425.000000 89.000000"
 preserveAspectRatio="xMidYMid meet">
<metadata>
Created by potrace 1.16, written by Peter Selinger 2001-2019
</metadata>
<g transform="translate(0.000000,89.000000) scale(0.100000,-0.100000)"
fill="#000000" stroke="none">
<path d="M1355 739 c-4 -5 1 -19 10 -29 15 -17 15 -21 1 -49 -21 -39 -37 -47
-111 -54 -56 -5 -88 -14 -172 -48 -31 -12 -34 -12 -64 16 l-31 30 -371 -3
c-426 -4 -410 -1 -387 -79 22 -79 24 -141 4 -205 -15 -51 -16 -61 -3 -69 29
-20 138 -3 624 98 299 63 280 62 291 22 13 -45 50 -56 129 -39 33 7 96 16 139
20 74 7 82 10 110 42 17 19 39 49 49 68 l18 33 553 -7 552 -7 54 37 54 37 270
-12 c149 -6 428 -16 619 -22 327 -10 349 -10 368 6 11 11 19 31 19 49 0 62
-10 64 -525 76 -253 6 -588 17 -745 25 -157 8 -352 17 -435 21 -82 3 -154 10
-160 14 -22 16 -80 18 -97 3 -15 -13 -31 -14 -110 -5 -176 21 -524 35 -546 23
-17 -9 -30 -8 -58 4 -43 18 -41 18 -49 4z m136 -278 c5 -63 -8 -77 -63 -65
-34 7 -44 14 -46 32 -3 17 1 22 20 22 13 0 31 9 41 20 18 22 46 17 48 -9z
m-152 -45 c7 -8 8 -16 4 -19 -15 -9 -116 -37 -134 -37 -22 0 -34 36 -19 55 17
20 133 21 149 1z"/>
</g>
</svg>
