<?xml version="1.0" standalone="no"?>
<!DOCTYPE svg PUBLIC "-//W3C//DTD SVG 20010904//EN"
 "http://www.w3.org/TR/2001/REC-SVG-20010904/DTD/svg10.dtd">
<svg version="1.0" xmlns="http://www.w3.org/2000/svg"
 width="400.000000pt" height="300.000000pt" viewBox="0 0 400.000000 300.000000"
 preserveAspectRatio="xMidYMid meet">
<metadata>
Created by potrace 1.16, written by Peter Selinger 2001-2019
</metadata>
<g transform="translate(0.000000,300.000000) scale(0.100000,-0.100000)"
fill="#000000" stroke="none">
<path d="M1412 1415 c-52 -36 -65 -61 -36 -72 9 -3 28 6 48 26 52 51 81 38 69
-33 -5 -32 -8 -35 -30 -30 -16 4 -36 -2 -63 -20 -22 -14 -43 -26 -46 -26 -4 0
-17 -11 -30 -25 -28 -30 -44 -32 -51 -5 -6 23 -25 25 -123 9 -58 -10 -80 -9
-142 6 -40 9 -87 15 -103 13 -26 -3 -30 -7 -31 -34 -2 -57 -9 -64 -66 -64 -74
0 -124 -16 -176 -56 -25 -19 -55 -34 -67 -34 -16 0 -25 -8 -29 -25 -4 -14 -4
-31 0 -36 3 -6 -4 -22 -17 -35 -26 -27 -20 -51 18 -68 10 -5 27 -31 36 -57 10
-26 35 -69 57 -95 22 -27 40 -52 40 -56 0 -5 -32 -8 -71 -8 -55 0 -79 -5 -105
-20 -39 -25 -44 -37 -50 -138 -9 -142 -7 -148 54 -137 38 6 40 8 48 58 l9 52
295 3 c339 3 360 1 360 -33 0 -13 4 -35 9 -48 9 -23 13 -24 47 -17 46 11 52
17 56 59 4 47 22 51 258 50 108 0 234 3 280 6 97 8 117 -1 135 -56 12 -36 42
-47 92 -34 21 5 24 10 20 33 -3 16 -3 33 1 39 5 8 90 13 272 17 146 3 285 7
309 8 34 2 47 -2 55 -16 43 -73 52 -81 90 -84 50 -4 64 9 42 42 -20 32 -20 36
1 36 9 0 24 6 32 14 24 22 560 28 571 6 37 -78 33 -75 86 -78 68 -4 83 13 55
59 -11 19 -23 60 -27 92 -4 33 -15 68 -26 82 -18 23 -26 25 -104 25 -99 0
-105 9 -50 70 19 21 42 63 52 94 10 33 25 58 35 61 9 3 23 13 30 22 11 13 10
18 -8 33 -15 12 -23 31 -25 61 -3 38 -6 44 -27 47 -13 2 -41 17 -63 32 -49 36
-134 61 -190 58 l-43 -3 -3 47 c-4 60 -26 68 -97 37 -45 -20 -60 -21 -169 -15
-103 5 -120 4 -131 -10 -10 -15 -18 -13 -70 22 -32 22 -64 43 -72 49 -9 7 -20
6 -34 -3 -18 -12 -23 -12 -30 0 -10 15 -12 60 -3 82 6 17 44 23 44 7 0 -9 61
-51 74 -51 3 0 6 10 6 23 0 26 -80 80 -112 75 -12 -2 -31 -24 -48 -57 -38 -72
-45 -78 -67 -59 -10 9 -30 19 -44 23 -21 5 -30 2 -43 -16 -22 -32 -20 -86 4
-116 15 -20 17 -29 9 -45 -10 -18 -18 -20 -63 -15 -71 8 -126 -5 -190 -43 -53
-32 -55 -35 -54 -74 1 -23 -5 -66 -12 -97 -12 -51 -12 -62 4 -103 10 -25 33
-65 52 -87 55 -66 52 -69 -91 -69 -83 0 -125 4 -125 11 0 6 15 29 34 52 18 23
38 52 45 64 16 32 14 144 -4 188 -13 29 -13 40 -4 51 16 20 -10 47 -78 80 -49
25 -61 26 -134 21 -76 -6 -79 -6 -95 19 -16 24 -16 26 5 40 26 18 29 78 5 112
-17 25 -56 29 -74 7 -22 -26 -49 -18 -65 21 -19 47 -54 94 -68 94 -7 0 -36
-16 -65 -35z m1115 -257 c6 -7 18 -66 28 -132 23 -151 35 -186 74 -212 46 -33
100 -36 445 -32 28 1 76 -39 76 -61 0 -9 -347 -21 -592 -21 -123 0 -158 3
-158 13 0 20 61 73 104 91 l39 16 -6 83 c-6 82 -34 155 -72 187 -23 19 -18 48
13 64 34 19 37 19 49 4z m-936 -8 c26 -15 23 -38 -11 -84 -32 -42 -36 -60 -44
-183 l-5 -82 32 -7 c32 -7 96 -67 97 -91 0 -10 -81 -13 -375 -13 -206 0 -375
4 -375 8 0 5 10 18 23 29 20 18 40 21 201 27 181 6 299 28 323 59 15 18 31 90
48 210 9 59 18 114 22 122 6 17 36 19 64 5z m1419 -30 c0 -22 -20 -26 -51 -10
-30 16 -23 30 16 30 28 0 35 -4 35 -20z m-1910 -9 c0 -10 -24 -21 -46 -21 -8
0 -14 7 -14 15 0 10 10 15 30 15 17 0 30 -4 30 -9z m766 -105 c28 -28 34 -41
34 -77 0 -74 -52 -132 -119 -132 -53 0 -93 23 -113 63 -20 42 -12 103 15 108
14 3 17 -4 17 -34 0 -50 36 -104 70 -104 14 0 40 9 58 20 27 17 32 26 32 58 0
48 -21 77 -65 92 -50 17 -46 40 8 40 20 0 40 -11 63 -34z m434 14 c0 -5 -11
-12 -25 -16 -39 -10 -78 -62 -71 -96 15 -76 68 -99 127 -57 23 16 29 28 29 59
0 48 8 70 26 70 19 0 28 -63 15 -103 -19 -56 -54 -82 -112 -81 -42 0 -55 5
-84 34 -44 43 -53 86 -29 137 11 21 30 43 44 50 30 15 80 17 80 3z m367 -35
c3 -9 -2 -22 -13 -30 -16 -12 -21 -12 -33 0 -7 7 -11 21 -8 29 8 21 46 21 54
1z m-1227 -32 c-1 -34 -2 -36 -14 -20 -7 9 -18 17 -25 17 -12 0 -15 23 -4 33
3 4 15 7 25 7 14 0 18 -8 18 -37z m-380 -7 c0 -21 -21 -31 -30 -15 -5 7 -6 17
-4 21 9 14 34 9 34 -6z"/>
</g>
</svg>
