<?xml version="1.0" standalone="no"?>
<!DOCTYPE svg PUBLIC "-//W3C//DTD SVG 20010904//EN"
 "http://www.w3.org/TR/2001/REC-SVG-20010904/DTD/svg10.dtd">
<svg version="1.0" xmlns="http://www.w3.org/2000/svg"
 width="323.000000pt" height="276.000000pt" viewBox="0 0 323.000000 276.000000"
 preserveAspectRatio="xMidYMid meet">
<metadata>
Created by potrace 1.16, written by Peter Selinger 2001-2019
</metadata>
<g transform="translate(0.000000,276.000000) scale(0.100000,-0.100000)"
fill="#000000" stroke="none">
<path d="M1725 2346 c-138 -44 -442 -233 -540 -337 l-60 -63 -125 -28 c-141
-31 -240 -75 -323 -143 -108 -88 -207 -295 -207 -434 0 -89 27 -399 38 -436
27 -90 131 -249 200 -303 53 -42 148 -90 212 -107 65 -18 188 -19 262 -4 69
14 281 121 433 219 372 237 687 410 906 495 180 71 272 120 322 174 76 81 63
133 -56 239 -145 128 -354 231 -503 248 -34 3 -66 9 -72 13 -6 4 -20 57 -31
118 -29 167 -94 287 -144 268 -8 -4 -18 -2 -22 4 -3 6 -18 11 -32 11 -36 0
-96 22 -107 38 -10 17 -68 42 -93 41 -10 0 -36 -6 -58 -13z m195 -166 c0 -5
-8 -10 -17 -10 -10 0 -27 -7 -37 -15 -11 -8 -28 -15 -37 -15 -10 0 -19 -4 -21
-9 -1 -4 -14 -12 -28 -15 -23 -7 -23 -6 5 13 17 12 37 21 45 21 8 0 26 9 40
20 27 21 50 26 50 10z m-64 -69 c-6 -9 -46 -22 -46 -15 0 3 10 9 23 14 29 11
29 11 23 1z m-74 -43 c-7 -7 -12 -8 -12 -2 0 6 3 14 7 17 3 4 9 5 12 2 2 -3
-1 -11 -7 -17z m-302 -1 c0 -2 -10 -12 -22 -23 l-23 -19 19 23 c18 21 26 27
26 19z m223 -29 c-3 -13 -14 -31 -24 -41 -11 -10 -19 -23 -19 -29 0 -5 -8 -8
-18 -6 -12 4 -18 -1 -19 -13 -1 -9 -13 -35 -27 -57 -38 -60 -38 -92 1 -119 18
-13 37 -23 42 -23 6 0 20 -9 30 -19 13 -13 44 -23 93 -30 83 -11 137 -3 179
28 16 12 34 21 41 21 7 0 30 17 51 38 22 20 37 30 35 22 -8 -26 -111 -97 -160
-111 -27 -7 -48 -16 -48 -21 0 -11 -57 -10 -64 1 -3 4 -28 11 -55 14 -80 9
-171 58 -185 100 -10 26 9 107 24 107 7 0 23 38 21 52 0 3 15 20 34 37 19 17
35 37 35 45 0 13 13 23 32 25 3 1 4 -9 1 -21z m-285 -69 c-23 -19 -35 -24 -40
-16 -5 8 0 13 12 15 11 2 20 9 20 16 0 6 9 12 21 12 18 0 16 -4 -13 -27z
m-113 -6 c-4 -10 -10 -30 -13 -45 -3 -22 0 -28 13 -28 27 0 11 -25 -18 -28
-32 -4 -36 16 -12 62 8 15 15 35 15 42 0 8 5 14 11 14 7 0 8 -7 4 -17z m65
-40 c0 -7 -28 -33 -35 -33 -3 0 -3 5 0 10 3 6 0 10 -7 10 -11 0 -11 2 0 8 13
9 42 12 42 5z m-312 -425 c1 -161 5 -307 8 -325 7 -35 101 -133 129 -133 9 0
27 -7 40 -16 14 -9 33 -13 45 -9 12 4 20 2 20 -5 0 -8 13 -11 35 -8 19 2 35 0
35 -4 0 -4 50 -8 110 -8 61 0 110 4 110 9 0 5 21 6 46 3 32 -3 45 -1 40 6 -4
6 1 8 14 5 32 -8 92 6 87 21 -4 9 2 11 20 8 14 -3 23 -1 20 4 -3 5 9 10 26 10
18 1 38 10 48 22 16 21 17 21 22 2 4 -16 14 -20 47 -20 47 0 110 40 110 70 0
21 25 44 39 35 7 -3 8 0 5 9 -4 10 1 18 12 23 26 9 64 39 58 46 -3 2 6 22 21
42 14 21 25 45 25 54 0 10 6 23 13 30 17 17 17 189 0 203 -17 14 -17 38 1 38
16 0 24 -36 32 -135 7 -79 -12 -168 -46 -214 -11 -16 -20 -33 -20 -38 0 -12
-33 -43 -63 -57 -12 -7 -30 -28 -39 -48 -29 -62 -64 -79 -156 -76 -54 1 -85
-2 -95 -11 -19 -15 -119 -40 -165 -41 -18 0 -44 -7 -58 -16 -21 -14 -46 -16
-159 -12 -80 3 -141 10 -149 17 -8 6 -37 14 -66 18 -31 3 -64 15 -83 30 -18
12 -40 26 -49 29 -10 4 -18 11 -18 16 0 6 -13 25 -28 43 l-29 32 -6 189 c-11
295 -8 454 7 454 1 0 3 -132 4 -292z m1052 -183 c-7 -8 -20 -15 -30 -15 -10 0
-21 -7 -24 -16 -3 -8 -11 -12 -17 -8 -15 9 17 34 43 34 10 0 21 7 25 15 3 9 8
14 11 11 3 -3 -1 -12 -8 -21z m-120 -22 c-22 -2 -44 -14 -59 -31 -13 -15 -20
-20 -15 -12 4 9 3 12 -2 7 -5 -5 -9 -16 -9 -24 0 -26 -23 -26 -36 -1 -6 13 -8
20 -4 16 4 -4 12 -3 19 3 52 43 64 48 101 47 40 -1 40 -1 5 -5z m-110 -93 c6
-11 9 -20 7 -20 -2 0 -12 9 -22 20 -10 11 -13 20 -7 20 6 0 16 -9 22 -20z
m-24 -35 c-9 -9 -20 -14 -24 -11 -12 7 -85 -13 -97 -27 -5 -7 -30 -13 -55 -15
-25 -2 -46 -6 -48 -10 -1 -5 -17 -6 -35 -4 -22 2 -38 -2 -46 -12 -15 -18 -41
-22 -41 -6 0 15 -147 13 -153 -2 -3 -10 -9 -9 -22 4 -16 15 -14 17 41 28 32 7
90 10 129 7 55 -4 74 -2 88 11 10 9 17 11 17 4 0 -17 52 -15 86 3 16 8 37 15
47 15 9 0 17 4 17 9 0 5 8 7 18 5 9 -3 30 5 47 15 34 23 58 12 31 -14z m-635
-14 c6 11 11 11 21 1 9 -9 9 -12 -5 -12 -9 0 -20 -1 -24 -2 -3 -2 -8 4 -10 12
-2 11 -1 11 3 1 5 -11 8 -11 15 0z m99 -26 c0 -8 -4 -15 -10 -15 -5 0 -7 7 -4
15 4 8 8 15 10 15 2 0 4 -7 4 -15z"/>
</g>
</svg>
