<?xml version="1.0" standalone="no"?>
<!DOCTYPE svg PUBLIC "-//W3C//DTD SVG 20010904//EN"
 "http://www.w3.org/TR/2001/REC-SVG-20010904/DTD/svg10.dtd">
<svg version="1.0" xmlns="http://www.w3.org/2000/svg"
 width="400.000000pt" height="300.000000pt" viewBox="0 0 400.000000 300.000000"
 preserveAspectRatio="xMidYMid meet">
<metadata>
Created by potrace 1.16, written by Peter Selinger 2001-2019
</metadata>
<g transform="translate(0.000000,300.000000) scale(0.100000,-0.100000)"
fill="#000000" stroke="none">
<path d="M2096 2738 c-3 -7 -7 -40 -11 -73 -10 -100 -21 -127 -78 -185 -43
-44 -59 -69 -77 -125 -13 -38 -38 -88 -56 -110 -19 -22 -56 -68 -84 -103 -28
-34 -63 -70 -78 -79 -15 -10 -60 -43 -100 -75 -40 -31 -110 -78 -154 -104 -50
-29 -110 -77 -154 -122 -65 -66 -76 -82 -100 -155 -24 -71 -26 -90 -21 -166 7
-108 20 -146 66 -195 l36 -38 344 7 c189 4 355 11 368 16 28 10 29 35 6 84
-19 40 -16 39 -143 40 l-95 0 -3 32 c-3 25 2 35 22 48 14 9 32 36 42 60 15 40
24 48 101 87 90 45 117 70 165 156 41 71 61 68 69 -13 4 -33 15 -82 26 -110
12 -27 28 -86 38 -130 21 -96 75 -219 103 -234 31 -16 127 -14 142 4 10 12 7
19 -16 40 -15 14 -31 25 -35 25 -5 0 -17 12 -26 27 -16 23 -19 64 -26 293 -5
146 -9 337 -10 425 -2 158 -2 161 27 218 15 32 36 61 45 64 9 4 27 14 41 23
14 10 43 23 65 30 57 18 85 47 85 87 0 64 -10 71 -94 65 -63 -4 -88 0 -153 22
-43 14 -95 28 -116 31 -32 5 -43 14 -71 58 -18 29 -35 60 -39 70 -7 20 -46 23
-51 5z"/>
</g>
</svg>
