<?xml version="1.0" standalone="no"?>
<!DOCTYPE svg PUBLIC "-//W3C//DTD SVG 20010904//EN"
 "http://www.w3.org/TR/2001/REC-SVG-20010904/DTD/svg10.dtd">
<svg version="1.0" xmlns="http://www.w3.org/2000/svg"
 width="348.000000pt" height="145.000000pt" viewBox="0 0 348.000000 145.000000"
 preserveAspectRatio="xMidYMid meet">
<metadata>
Created by potrace 1.16, written by Peter Selinger 2001-2019
</metadata>
<g transform="translate(0.000000,145.000000) scale(0.100000,-0.100000)"
fill="#000000" stroke="none">
<path d="M2940 1405 c-24 -25 -50 -33 -50 -15 0 14 -28 12 -33 -2 -2 -7 0 -23
4 -35 10 -27 7 -28 -30 -8 -18 9 -42 12 -64 8 -30 -4 -40 -1 -60 21 -23 24
-26 25 -41 11 -18 -19 -21 -41 -6 -50 19 -12 10 -60 -23 -125 -29 -56 -38 -66
-69 -73 -20 -5 -46 -19 -59 -33 -19 -20 -21 -27 -11 -49 10 -21 9 -30 -4 -50
-15 -23 -15 -27 0 -50 33 -50 79 -95 97 -95 23 0 24 -4 2 -37 -13 -20 -20 -58
-25 -137 -3 -61 -8 -120 -10 -131 -2 -14 3 -20 17 -20 34 0 67 75 75 174 7 73
25 150 41 165 2 2 4 -64 5 -147 0 -125 4 -158 18 -186 13 -24 16 -45 11 -80
-4 -32 -1 -58 10 -86 12 -27 15 -53 11 -85 -5 -39 -2 -51 18 -79 14 -18 22
-39 19 -47 -6 -16 36 -29 64 -20 31 10 46 106 41 251 -3 69 -2 125 2 125 10 0
22 -98 25 -200 1 -47 7 -95 13 -107 7 -12 12 -33 12 -47 0 -23 4 -26 35 -26
31 0 35 3 35 26 0 14 12 40 26 57 19 22 24 37 19 55 -11 45 -26 195 -26 267
-1 55 -6 79 -25 112 -13 23 -24 53 -24 68 0 14 -7 40 -16 57 -12 22 -14 43 -9
77 8 55 44 143 55 136 5 -3 13 -28 19 -56 6 -28 25 -82 41 -119 16 -37 33 -93
36 -124 6 -50 9 -57 27 -54 11 2 28 14 38 28 16 23 16 32 4 110 -7 47 -17 99
-23 115 -6 17 -23 72 -36 123 -26 94 -43 127 -90 171 -14 14 -26 29 -26 34 0
5 21 28 47 51 34 31 45 47 40 60 -5 13 -14 16 -31 12 -21 -5 -25 -2 -30 29 -6
31 -29 55 -54 55 -5 0 -19 -11 -32 -25z"/>
<path d="M2058 1303 l-27 -27 -163 -1 c-161 -2 -230 -12 -328 -49 -195 -75
-165 -69 -327 -63 -87 3 -171 12 -203 21 -30 9 -89 16 -130 16 -86 0 -134 -19
-235 -92 -68 -50 -105 -98 -105 -139 0 -16 -10 -49 -22 -73 -19 -40 -20 -49
-8 -70 8 -17 11 -43 7 -80 -4 -41 -1 -60 11 -77 9 -13 15 -36 13 -51 -1 -16 2
-28 7 -28 6 0 10 -19 10 -42 1 -24 1 -61 1 -83 1 -22 5 -47 11 -55 8 -12 14
-10 39 14 l30 28 10 -38 c5 -22 15 -66 22 -99 17 -75 36 -95 93 -95 25 0 47 4
50 9 3 5 -10 32 -29 61 -34 51 -35 54 -35 154 1 66 6 111 15 131 14 29 14 28
9 -31 -5 -52 -2 -69 19 -110 13 -27 30 -67 37 -89 21 -64 80 -175 94 -175 21
0 56 45 56 72 0 14 -18 62 -40 106 -45 90 -49 123 -21 205 11 31 23 77 27 102
3 26 13 49 20 52 7 3 42 -5 76 -17 40 -13 111 -25 193 -32 72 -5 133 -13 138
-17 10 -9 12 -202 3 -301 -3 -41 -3 -100 1 -130 l8 -55 48 -3 c45 -3 51 0 88
36 l39 40 -20 34 c-18 31 -19 42 -10 113 14 128 48 254 78 293 15 19 45 71 67
116 37 74 47 86 123 144 86 64 127 77 152 47 7 -8 37 -29 66 -46 59 -33 59
-35 69 -144 12 -143 43 -195 115 -195 l40 0 0 -59 c0 -133 -21 -315 -38 -334
-16 -18 -16 -20 3 -33 12 -9 36 -14 59 -12 l38 3 3 105 c9 300 16 454 21 462
13 20 -8 68 -32 74 -39 10 -54 -11 -54 -77 0 -39 -5 -63 -16 -73 -20 -21 -27
-20 -50 5 -15 17 -20 40 -23 111 l-3 90 37 31 c34 27 36 34 31 67 -3 20 -19
61 -36 91 -16 29 -30 68 -31 84 0 17 -4 39 -8 50 -5 12 -3 35 4 56 14 40 6 65
-19 56 -12 -5 -16 0 -16 18 0 32 -19 32 -52 -2z"/>
</g>
</svg>
