<?xml version="1.0" standalone="no"?>
<!DOCTYPE svg PUBLIC "-//W3C//DTD SVG 20010904//EN"
 "http://www.w3.org/TR/2001/REC-SVG-20010904/DTD/svg10.dtd">
<svg version="1.0" xmlns="http://www.w3.org/2000/svg"
 width="195.000000pt" height="205.000000pt" viewBox="0 0 195.000000 205.000000"
 preserveAspectRatio="xMidYMid meet">
<metadata>
Created by potrace 1.16, written by Peter Selinger 2001-2019
</metadata>
<g transform="translate(0.000000,205.000000) scale(0.100000,-0.100000)"
fill="#000000" stroke="none">
<path d="M402 2000 c-44 -10 -61 -27 -125 -124 -154 -229 -220 -446 -220 -721
0 -128 4 -167 27 -268 59 -257 166 -457 331 -623 209 -209 524 -284 796 -189
169 59 330 186 443 349 259 376 300 870 105 1283 -47 99 -150 255 -182 276
-32 21 -106 31 -139 18 -39 -15 -63 -57 -61 -107 1 -44 18 -82 97 -226 68
-125 116 -318 116 -468 0 -215 -61 -416 -182 -600 -106 -161 -254 -243 -443
-243 -110 0 -194 25 -282 82 -67 44 -95 73 -151 156 -131 197 -191 415 -179
650 10 184 52 315 168 528 56 103 49 196 -17 223 -36 15 -52 16 -102 4z m-147
-620 c0 -20 -6 -26 -27 -28 -25 -3 -28 0 -28 28 0 28 3 31 28 28 21 -2 27 -8
27 -28z m1495 -4 c0 -16 -7 -27 -20 -31 -20 -6 -60 9 -60 23 0 17 25 32 52 32
23 0 28 -4 28 -24z m-1500 -350 c0 -16 -7 -27 -20 -31 -27 -9 -40 1 -40 31 0
20 5 24 30 24 25 0 30 -4 30 -24z m1505 4 c9 -27 -1 -40 -31 -40 -20 0 -24 5
-24 30 0 25 4 30 24 30 16 0 27 -7 31 -20z m-1411 -362 c14 -23 -3 -53 -30
-53 -20 0 -31 33 -20 61 7 19 35 14 50 -8z m1311 -9 c9 -38 -7 -59 -33 -43
-24 16 -27 45 -6 61 26 19 32 16 39 -18z m-211 -291 c8 -13 8 -23 0 -35 -16
-26 -41 -27 -47 -3 -13 51 21 78 47 38z m-881 -9 c8 -31 -3 -50 -26 -47 -29 4
-44 32 -28 52 19 23 48 20 54 -5z"/>
</g>
</svg>
