<?xml version="1.0" standalone="no"?>
<!DOCTYPE svg PUBLIC "-//W3C//DTD SVG 20010904//EN"
 "http://www.w3.org/TR/2001/REC-SVG-20010904/DTD/svg10.dtd">
<svg version="1.0" xmlns="http://www.w3.org/2000/svg"
 width="405.000000pt" height="346.000000pt" viewBox="0 0 405.000000 346.000000"
 preserveAspectRatio="xMidYMid meet">
<metadata>
Created by potrace 1.16, written by Peter Selinger 2001-2019
</metadata>
<g transform="translate(0.000000,346.000000) scale(0.100000,-0.100000)"
fill="#000000" stroke="none">
<path d="M2191 1932 c-8 -34 -26 -72 -45 -97 -18 -22 -40 -53 -48 -70 -8 -16
-21 -40 -28 -52 -18 -28 -1 -68 35 -85 22 -10 28 -8 46 10 11 12 31 22 45 22
13 0 47 12 76 27 l51 27 26 -31 c14 -17 38 -49 53 -70 15 -21 37 -50 48 -64
17 -20 23 -48 30 -129 7 -75 16 -118 34 -154 13 -28 34 -98 46 -155 19 -86 22
-126 18 -226 -4 -111 -8 -127 -37 -191 -52 -110 -40 -104 -225 -104 -89 0
-272 3 -407 7 l-246 6 -19 51 c-15 42 -17 76 -15 191 2 142 8 186 36 264 8 24
15 58 15 76 0 45 46 145 66 145 9 0 28 -7 44 -16 36 -22 64 -12 57 19 -8 33
-36 110 -47 129 -6 10 -10 34 -10 53 0 34 -20 49 -35 25 -4 -6 -27 -21 -53
-34 -59 -30 -95 -68 -131 -137 -26 -51 -30 -54 -69 -57 -28 -2 -56 4 -89 21
-97 49 -145 44 -228 -22 -54 -44 -55 -45 -55 -98 0 -53 17 -100 47 -135 11
-12 13 -27 9 -50 -9 -39 -8 -300 0 -375 l6 -53 -135 0 c-158 0 -145 -9 -172
117 -16 73 -16 96 -6 210 7 70 24 175 38 233 22 92 24 116 18 195 -19 219 -8
276 54 267 17 -2 39 -14 49 -26 27 -35 41 -40 63 -20 22 20 24 54 5 92 -7 15
-17 59 -21 97 -3 39 -13 80 -21 92 -8 12 -14 45 -14 73 0 55 -19 69 -41 28
l-11 -21 -18 23 c-19 26 -23 22 -39 -35 -7 -26 -27 -56 -57 -85 -25 -25 -57
-56 -70 -69 -13 -13 -39 -35 -56 -48 -18 -13 -54 -44 -80 -69 -41 -40 -52 -45
-75 -39 -16 4 -58 8 -96 9 -59 3 -70 0 -91 -21 -26 -25 -47 -99 -66 -224 -12
-84 -5 -134 29 -210 15 -31 21 -66 21 -119 0 -41 5 -93 11 -115 5 -22 14 -85
19 -140 6 -55 13 -121 16 -146 l6 -47 -67 -4 c-56 -3 -71 -8 -87 -28 -10 -13
-17 -30 -16 -39 3 -14 108 -17 1088 -22 597 -4 1381 -10 1743 -13 641 -7 657
-7 657 12 0 10 -11 29 -26 42 -23 22 -36 25 -142 30 l-117 5 1 150 c0 83 4
175 8 205 7 47 4 63 -18 113 -28 62 -33 129 -13 163 6 12 22 39 34 60 l22 39
1 -50 c0 -27 7 -79 15 -115 8 -36 17 -105 21 -155 6 -91 27 -155 51 -155 7 0
20 14 29 32 14 27 16 50 10 142 -4 60 -11 129 -17 155 -7 28 -8 91 -4 161 9
174 -15 226 -144 312 -153 102 -182 106 -352 51 -146 -47 -222 -49 -323 -10
-39 14 -93 41 -120 58 -28 18 -89 52 -135 76 -47 23 -94 51 -105 62 -34 30
-111 71 -134 71 -11 0 -28 10 -36 22 -16 22 -16 22 -31 3 -14 -18 -16 -19 -28
-3 -11 14 -15 9 -26 -40z m1050 -664 c1 -7 1 -16 0 -20 0 -4 12 -33 28 -65 51
-103 60 -131 67 -216 8 -105 -10 -173 -71 -266 -23 -36 -46 -76 -50 -88 -6
-23 -8 -23 -204 -23 -147 0 -201 3 -208 13 -6 6 -11 93 -12 192 0 99 -5 218
-10 265 -4 47 -5 89 -1 93 4 5 38 13 76 18 174 26 202 33 274 69 80 40 109 47
111 28z m-547 -159 c3 -17 6 -59 6 -93 0 -33 9 -90 20 -124 29 -94 26 -137
-16 -218 -45 -87 -48 -90 -79 -76 -21 10 -25 18 -25 55 0 24 6 49 13 55 6 7
15 48 19 90 15 184 29 318 33 330 8 22 22 13 29 -19z m-2015 -21 c4 -13 11
-59 15 -103 4 -44 13 -108 21 -141 8 -34 17 -102 21 -153 l7 -91 -50 0 c-47 0
-50 2 -66 35 -17 37 -36 205 -22 205 4 0 16 -11 27 -25 11 -14 26 -25 34 -25
18 0 18 39 -1 64 -8 11 -15 30 -15 42 0 12 -9 33 -20 47 -24 31 -25 45 -3 114
18 56 38 68 52 31z m714 -22 c82 -53 80 -49 78 -204 -2 -75 -3 -144 -4 -152 0
-8 3 -36 7 -62 l7 -48 -65 0 -65 0 -16 58 c-31 103 -39 396 -12 430 13 16 9
17 70 -22z m-591 -61 c17 -217 28 -313 38 -348 12 -40 7 -57 -15 -57 -16 0
-20 13 -35 100 -16 97 -19 123 -24 263 -4 117 -3 128 12 125 14 -3 18 -19 24
-83z m-279 -107 c8 -24 18 -77 21 -118 3 -41 9 -99 12 -128 7 -52 6 -54 -17
-50 -30 4 -37 34 -45 206 -8 141 1 166 29 90z m2897 -117 c0 -61 -4 -112 -9
-116 -5 -3 -12 -18 -16 -34 -8 -37 -28 -54 -55 -46 -24 8 -28 59 -7 90 15 22
67 178 67 201 0 8 5 14 10 14 6 0 10 -43 10 -109z m-2149 -69 c13 -61 20 -115
16 -118 -3 -3 -14 -3 -25 0 -15 5 -21 19 -26 68 -11 106 -6 181 10 165 2 -2
13 -53 25 -115z m299 37 c0 -22 4 -48 9 -57 5 -9 11 -33 13 -52 2 -30 0 -35
-19 -38 -22 -3 -23 -1 -23 92 0 57 4 96 10 96 6 0 10 -18 10 -41z"/>
</g>
</svg>
