<?xml version="1.0" standalone="no"?>
<!DOCTYPE svg PUBLIC "-//W3C//DTD SVG 20010904//EN"
 "http://www.w3.org/TR/2001/REC-SVG-20010904/DTD/svg10.dtd">
<svg version="1.0" xmlns="http://www.w3.org/2000/svg"
 width="374.000000pt" height="171.000000pt" viewBox="0 0 374.000000 171.000000"
 preserveAspectRatio="xMidYMid meet">
<metadata>
Created by potrace 1.16, written by Peter Selinger 2001-2019
</metadata>
<g transform="translate(0.000000,171.000000) scale(0.100000,-0.100000)"
fill="#000000" stroke="none">
<path d="M1022 1673 c-12 -2 -30 -16 -40 -30 -9 -15 -32 -41 -50 -58 -33 -32
-36 -65 -6 -65 20 0 19 -1 -27 -51 -62 -67 -89 -120 -100 -196 -14 -102 -15
-104 -47 -92 -42 16 -62 39 -73 85 -14 56 -35 73 -98 81 -62 7 -86 -10 -96
-67 -4 -22 -12 -43 -19 -49 -7 -6 -57 -12 -111 -13 l-99 -3 -9 -34 c-11 -44
-2 -92 23 -121 11 -13 20 -25 20 -26 0 -2 -17 -14 -38 -28 -98 -61 -174 -171
-207 -299 -16 -59 -17 -78 -6 -149 20 -149 93 -263 219 -344 87 -57 65 -80
-66 -69 -99 9 -146 -8 -167 -59 -8 -20 -15 -47 -15 -61 l0 -25 457 0 c564 0
1126 15 1338 35 88 9 313 20 500 25 510 15 543 21 515 92 -8 18 -23 45 -33 60
-26 36 -18 89 28 176 19 36 35 76 35 89 0 13 8 40 19 61 10 20 21 49 25 64 7
30 27 36 44 16 5 -7 20 -38 33 -68 13 -30 38 -75 56 -100 45 -63 113 -188 113
-209 0 -10 12 -28 26 -40 18 -16 24 -29 20 -44 -3 -11 0 -27 6 -34 10 -13 99
-19 110 -7 8 8 -20 75 -42 99 -10 11 -21 31 -25 45 -4 14 -13 32 -20 40 -8 8
-20 44 -29 80 -8 36 -29 103 -47 150 -45 121 -46 136 -16 168 14 15 32 44 41
65 8 20 19 37 25 37 20 0 42 33 37 55 -7 28 4 37 82 64 l62 22 30 -24 c16 -14
43 -28 60 -32 30 -7 90 -80 90 -110 0 -19 31 -35 67 -35 19 0 39 10 57 29 28
29 28 31 16 83 -7 29 -21 80 -31 114 -10 33 -19 85 -19 115 0 30 -5 60 -11 66
-5 5 -12 32 -15 58 -2 26 -7 52 -10 56 -9 16 -24 10 -34 -13 -5 -13 -18 -34
-28 -47 -20 -25 -19 -25 -127 -1 -27 6 -101 11 -162 11 -87 0 -113 3 -113 13
0 8 -7 19 -15 26 -9 7 -13 21 -9 35 4 15 0 24 -11 29 -24 9 -38 -3 -31 -26 2
-11 -3 -32 -12 -47 -9 -14 -16 -27 -17 -28 -2 -5 -150 -25 -200 -28 -27 -1
-89 -6 -136 -10 -70 -6 -108 -3 -205 15 -95 18 -143 21 -234 18 -104 -4 -122
-8 -185 -37 l-70 -33 -195 6 c-192 6 -407 25 -565 49 -64 10 -81 16 -83 31 -4
19 -32 19 -129 0 -33 -6 -33 -6 -33 33 0 54 25 133 55 174 13 19 32 49 42 67
9 18 25 32 35 32 24 0 23 32 -2 55 -11 10 -20 30 -20 45 0 45 -26 57 -98 43z
m393 -529 c107 -17 222 -27 348 -31 103 -3 190 -10 194 -15 3 -6 -11 -26 -30
-46 -41 -43 -86 -117 -112 -185 -10 -26 -22 -50 -26 -53 -4 -2 -32 14 -61 36
-29 22 -73 47 -98 56 -90 32 -92 33 -85 54 10 32 -4 60 -30 60 -17 0 -32 -12
-52 -42 -23 -35 -39 -46 -90 -64 -34 -11 -69 -27 -77 -34 -39 -31 -60 15 -72
158 -5 57 -12 90 -25 106 -27 34 -24 39 19 32 20 -3 109 -18 197 -32z m-319
-92 c6 -4 17 -59 23 -122 7 -63 15 -125 18 -137 3 -13 1 -23 -3 -23 -13 0 -88
256 -81 274 7 17 25 20 43 8z m-615 -144 c1 -62 3 -139 4 -170 2 -32 -1 -58
-5 -58 -8 0 -188 244 -197 266 -8 21 109 72 170 73 l27 1 1 -112z m169 77 c8
-7 23 -27 32 -43 l17 -29 -74 -104 c-41 -57 -75 -107 -75 -110 0 -4 -7 -9 -15
-13 -13 -5 -15 17 -15 161 l0 166 57 -7 c31 -4 64 -13 73 -21z m1306 -74 c-5
-37 -2 -61 14 -100 11 -29 20 -70 20 -92 0 -43 -10 -51 -84 -64 l-36 -7 0 64
c0 50 6 76 30 123 16 33 30 68 30 77 0 25 11 48 22 48 7 0 8 -18 4 -49z
m-1625 -97 c46 -63 90 -124 98 -135 8 -11 11 -22 9 -25 -3 -2 -76 19 -162 48
-103 35 -156 57 -156 66 0 30 98 162 121 162 3 0 44 -52 90 -116z m1253 52
c27 -8 56 -22 66 -31 18 -16 16 -20 -41 -98 -33 -45 -68 -93 -78 -107 -10 -14
-20 -23 -22 -20 -3 3 -3 65 -1 138 4 146 0 141 76 118z m-839 -5 c3 -6 25 -13
49 -16 23 -4 47 -10 53 -13 11 -8 46 -72 41 -76 -11 -8 -321 -106 -325 -103
-7 8 151 217 164 217 6 0 14 -4 18 -9z m645 -52 c-11 -27 -20 -52 -20 -54 0
-3 -4 -5 -10 -5 -5 0 -10 9 -10 20 0 10 -9 24 -20 30 -11 6 -20 15 -20 21 0
12 81 50 92 43 4 -3 -1 -27 -12 -55z m-384 -64 c23 -38 55 -79 69 -91 39 -31
30 -58 -19 -62 -69 -6 -86 3 -86 46 0 33 -10 80 -36 161 -6 19 -4 22 11 20 10
-2 38 -35 61 -74z m738 22 l25 -33 -26 -52 c-25 -51 -26 -52 -106 -76 -45 -14
-83 -23 -85 -21 -8 7 145 215 158 215 5 0 20 -15 34 -33z m-274 -87 c0 -75
-10 -88 -34 -42 -13 25 -13 32 4 70 11 23 21 42 25 42 3 0 5 -31 5 -70z m972
40 c29 -12 68 -28 87 -36 18 -9 70 -18 115 -21 104 -7 120 -15 112 -56 -3 -18
-10 -72 -17 -122 -6 -54 -23 -121 -41 -168 -29 -72 -30 -78 -14 -95 25 -28 20
-67 -11 -92 -50 -39 -163 -11 -163 40 0 10 -11 34 -25 54 -14 21 -32 52 -40
69 -8 18 -31 51 -50 75 -49 61 -59 106 -50 242 4 63 9 118 11 122 8 13 30 9
86 -12z m-2172 -55 c80 -26 149 -50 155 -53 5 -3 -64 -30 -155 -59 -90 -29
-166 -50 -169 -48 -9 10 -20 109 -15 138 11 67 15 76 27 72 6 -2 77 -25 157
-50z m634 47 c3 -5 8 -32 12 -61 l7 -53 -99 6 c-150 10 -205 17 -200 25 3 4
34 16 69 25 35 10 93 28 128 41 73 27 76 28 83 17z m1290 -67 c4 -14 1 -45 -5
-69 -12 -50 -7 -65 46 -131 59 -73 102 -140 109 -170 4 -16 16 -40 28 -51 12
-14 18 -32 16 -50 -3 -27 -7 -30 -53 -36 -77 -10 -241 -9 -268 1 -14 6 -29 20
-32 33 -4 13 -21 38 -37 57 -25 28 -29 41 -25 70 7 59 66 187 107 237 21 26
41 62 45 80 9 53 58 73 69 29z m-785 -32 c12 -14 20 -27 18 -29 -5 -5 -141 37
-151 47 -6 5 14 9 51 9 55 0 64 -3 82 -27z m-171 -14 c23 -7 42 -16 42 -20 0
-9 -112 1 -124 11 -13 12 4 31 22 26 10 -3 36 -10 60 -17z m709 -17 c-12 -13
-19 -46 -23 -113 -3 -52 -12 -118 -20 -147 -13 -47 -13 -57 2 -100 29 -80 24
-83 -122 -80 -88 2 -129 7 -131 15 -2 6 23 32 56 56 71 51 87 71 131 153 24
46 34 81 38 135 6 65 10 75 32 86 39 20 57 17 37 -5z m-1068 -18 c26 -6 31
-11 31 -35 0 -16 -3 -29 -7 -29 -5 0 -55 16 -113 35 l-105 34 81 0 c45 1 96
-2 113 -5z m-445 -16 c-10 -16 -174 -239 -186 -252 -17 -20 -128 114 -128 155
0 14 31 28 138 62 145 47 189 56 176 35z m306 -37 c125 -41 145 -50 142 -67
-4 -20 -85 -139 -103 -150 -15 -9 -43 22 -138 154 -60 82 -77 112 -64 112 10
0 83 -22 163 -49z m346 23 c6 -8 14 -39 18 -70 12 -104 94 -221 189 -270 15
-8 27 -21 27 -29 0 -13 -44 -15 -315 -15 -250 0 -315 3 -315 13 0 7 29 32 64
55 106 70 167 154 202 279 l16 60 52 -5 c28 -2 56 -10 62 -18z m743 -16 c-1
-41 -1 -42 -11 -15 -5 15 -7 34 -4 42 10 27 16 16 15 -27z m-1344 -26 c-1 -20
-3 -95 -4 -166 l-1 -129 -54 7 c-42 5 -137 36 -154 51 -3 3 100 146 183 256
25 34 35 28 30 -19z m144 -87 c50 -69 91 -131 91 -138 0 -17 -60 -46 -130 -63
-30 -7 -58 -13 -62 -14 -5 0 -8 79 -8 176 0 105 4 173 9 169 5 -3 50 -61 100
-130z m664 129 c43 -4 77 -11 77 -15 0 -5 -6 -9 -12 -9 -7 0 -53 -13 -103 -29
-49 -15 -93 -26 -97 -24 -5 2 -8 22 -8 44 0 38 1 39 33 39 19 0 68 -3 110 -6z
m443 -9 c4 -8 4 -21 1 -29 -5 -12 -12 -12 -54 0 -78 23 -82 27 -33 34 73 11
80 11 86 -5z m-306 -29 c0 -3 -34 -53 -77 -111 -50 -69 -82 -105 -92 -103 -23
5 -97 116 -85 128 5 5 61 28 124 49 121 41 130 44 130 37z m312 -62 c4 -3 8
-11 8 -18 0 -8 7 -19 15 -26 8 -7 15 -16 15 -21 0 -13 -72 -90 -81 -87 -10 4
-149 199 -149 209 0 6 172 -45 192 -57z m-98 -143 c18 -24 23 -38 16 -46 -12
-15 -138 -50 -147 -41 -7 7 -12 246 -5 259 2 4 28 -25 57 -65 30 -40 65 -88
79 -107z m-174 38 l0 -132 -44 6 c-51 7 -116 36 -116 51 1 6 21 38 45 71 24
33 55 77 67 97 40 66 48 52 48 -93z"/>
</g>
</svg>
