<?xml version="1.0" standalone="no"?>
<!DOCTYPE svg PUBLIC "-//W3C//DTD SVG 20010904//EN"
 "http://www.w3.org/TR/2001/REC-SVG-20010904/DTD/svg10.dtd">
<svg version="1.0" xmlns="http://www.w3.org/2000/svg"
 width="390.000000pt" height="186.000000pt" viewBox="0 0 390.000000 186.000000"
 preserveAspectRatio="xMidYMid meet">
<metadata>
Created by potrace 1.16, written by Peter Selinger 2001-2019
</metadata>
<g transform="translate(0.000000,186.000000) scale(0.100000,-0.100000)"
fill="#000000" stroke="none">
<path d="M3285 1780 c-4 -14 -15 -20 -36 -20 -27 0 -29 -2 -18 -21 9 -17 8
-23 -2 -30 -10 -6 -9 -12 6 -30 17 -18 17 -21 3 -16 -11 4 -18 -1 -22 -19 -5
-17 -13 -24 -31 -24 -29 0 -31 -7 -11 -29 26 -29 23 -45 -9 -51 -31 -6 -32 -9
-20 -48 6 -21 4 -23 -14 -17 -14 4 -23 1 -27 -9 -3 -8 -19 -18 -35 -21 -32 -7
-38 -20 -14 -29 8 -3 15 -15 15 -26 0 -22 12 -25 38 -11 20 10 66 -4 57 -19
-8 -13 -116 -6 -144 10 -22 11 -23 10 -16 -18 3 -18 2 -33 -4 -37 -6 -3 -11
-13 -11 -22 0 -11 6 -14 22 -10 12 4 29 0 38 -7 8 -8 24 -16 34 -17 47 -9 22
-53 -31 -53 -35 -1 -103 -37 -103 -55 0 -4 20 -17 45 -29 54 -26 60 -46 11
-37 -20 4 -36 2 -40 -4 -4 -6 -18 -11 -31 -11 -30 0 -39 -14 -20 -30 10 -8 13
-21 9 -33 -6 -18 -3 -19 25 -14 33 7 38 -1 19 -33 -17 -26 15 -61 51 -58 18 2
26 -2 26 -12 0 -12 -15 -15 -83 -14 -75 2 -86 4 -110 27 -32 31 -72 47 -114
47 -17 0 -58 10 -90 22 -53 19 -66 20 -121 10 -34 -6 -85 -8 -112 -5 -40 4
-70 -1 -140 -25 -50 -16 -116 -33 -147 -36 l-58 -7 -56 53 -56 53 28 23 c35
31 46 97 35 207 -9 86 -23 125 -45 125 -11 0 -13 -13 -9 -60 4 -41 2 -60 -6
-60 -6 0 -11 10 -11 23 0 27 -34 102 -50 112 -23 15 -29 -18 -9 -56 10 -21 19
-45 19 -54 0 -21 -23 -19 -38 5 -14 23 -42 27 -42 5 0 -20 -36 -19 -44 1 -3 9
-6 31 -6 50 0 19 -4 34 -9 34 -18 0 -29 -28 -36 -95 l-7 -70 -13 50 c-7 28
-15 61 -17 75 -5 41 -33 31 -36 -13 -3 -33 -6 -37 -24 -31 -18 5 -20 3 -15
-17 4 -13 7 -36 7 -52 0 -17 12 -41 33 -63 26 -29 42 -37 80 -41 26 -3 50 -10
53 -15 10 -15 -45 -66 -112 -103 -66 -37 -80 -55 -64 -85 13 -23 32 -30 89
-30 55 0 86 -19 94 -58 3 -16 27 -48 56 -75 28 -26 54 -60 57 -75 17 -67 64
-111 177 -164 44 -20 46 -30 12 -52 -14 -9 -25 -20 -25 -25 0 -15 59 -21 85
-9 19 9 28 9 37 0 8 -8 4 -21 -15 -50 -27 -38 -36 -92 -17 -92 18 0 52 24 85
60 26 27 36 32 46 23 8 -6 37 -14 64 -18 41 -6 58 -16 93 -51 52 -51 55 -87 9
-92 -16 -2 -35 2 -43 9 -11 9 -18 8 -32 -4 -11 -10 -27 -14 -40 -10 -12 3 -29
0 -37 -7 -13 -10 -19 -10 -35 5 -10 9 -23 14 -29 11 -6 -4 -19 -1 -30 6 -14 8
-23 9 -33 1 -22 -18 -94 -26 -116 -12 -16 10 -28 9 -67 -5 -34 -14 -50 -15
-58 -7 -6 6 -19 11 -29 11 -12 0 -18 8 -18 24 0 18 -6 25 -22 28 -20 3 -23 10
-25 46 -2 57 -17 74 -59 66 -33 -6 -47 7 -24 21 29 18 -13 55 -62 55 -12 0
-37 5 -55 12 -27 10 -38 10 -53 0 -11 -7 -35 -12 -54 -12 -39 0 -66 -24 -48
-42 12 -12 17 -48 7 -48 -3 0 -14 6 -25 12 -18 11 -23 9 -45 -17 -13 -17 -22
-36 -20 -43 3 -9 -4 -12 -23 -10 -27 3 -27 2 -24 -48 3 -59 -5 -69 -64 -78
-31 -6 -44 -3 -54 8 -7 9 -23 16 -35 16 -12 0 -28 7 -35 15 -7 9 -18 14 -24
12 -6 -3 -21 4 -32 15 -22 19 -22 19 -59 -13 l-36 -32 -132 -2 c-73 -1 -136
-4 -142 -5 -14 -5 -55 10 -55 20 0 5 4 11 9 14 4 3 11 19 14 35 3 16 30 55 60
87 29 33 63 75 75 95 24 40 141 116 195 126 37 7 69 22 78 36 11 16 29 -3 29
-31 1 -34 35 -76 55 -68 11 4 15 21 15 63 0 65 25 118 63 132 33 13 34 4 3
-28 -25 -26 -27 -34 -21 -70 5 -31 16 -48 41 -67 53 -41 86 -10 48 44 -14 21
-14 24 6 49 11 15 33 34 49 44 15 9 39 37 54 61 14 25 33 50 41 58 25 20 20
59 -7 65 -19 5 -22 11 -19 41 2 19 -4 56 -13 81 -15 39 -16 51 -5 83 7 21 10
50 6 65 -4 15 -7 76 -7 136 0 98 -2 109 -17 109 -24 0 -67 -46 -86 -92 -9 -21
-16 -66 -16 -102 0 -76 -14 -96 -67 -96 -41 0 -124 -43 -193 -100 -25 -20 -55
-42 -67 -48 -44 -24 -160 -60 -208 -67 -47 -6 -52 -4 -79 24 l-29 30 27 31
c29 36 33 71 11 94 -14 14 -20 14 -52 -4 -37 -20 -37 -20 -56 1 -22 24 -23 24
-122 -77 -33 -33 -77 -73 -97 -88 -44 -33 -46 -45 -15 -74 16 -15 36 -22 64
-22 l42 0 36 -76 c36 -75 44 -83 145 -147 35 -22 53 -57 30 -57 -7 0 -51 -39
-99 -87 -48 -49 -94 -94 -104 -101 -9 -7 -17 -22 -17 -32 0 -17 7 -20 40 -20
34 0 46 7 85 45 25 25 45 43 45 40 0 -17 -34 -82 -61 -116 l-30 -39 -77 3
c-45 2 -86 9 -99 17 -20 13 -26 12 -54 -4 -24 -14 -40 -17 -73 -11 -61 11
-187 5 -216 -10 -33 -17 -47 -33 -55 -66 -6 -26 -6 -26 62 -32 37 -4 907 -5
1933 -3 l1865 4 3 21 c8 53 -97 107 -161 83 -17 -6 -35 -8 -41 -4 -6 4 -51 8
-101 9 -118 4 -115 4 -150 1 -28 -3 -30 -1 -33 38 -2 22 2 53 8 68 9 25 14 28
41 22 16 -3 38 0 48 6 15 9 29 8 67 -7 37 -14 49 -15 52 -5 3 7 13 20 23 28
11 9 19 22 19 28 0 19 28 24 86 18 46 -6 54 -4 54 10 0 9 7 19 15 22 21 8 19
21 -5 29 -11 3 -20 13 -20 21 0 8 -6 23 -12 34 -10 16 -10 24 0 40 16 26 16
27 -9 33 -15 4 -19 11 -15 25 5 16 -3 21 -54 35 -33 9 -67 17 -75 17 -8 0 -15
7 -15 15 0 20 32 36 51 24 26 -16 38 -10 37 20 -1 17 6 41 15 54 20 31 14 38
-24 27 -23 -7 -31 -5 -36 7 -4 10 -14 13 -32 10 -15 -3 -33 -2 -40 2 -21 13 0
65 28 69 16 3 20 8 16 23 -4 13 -2 19 9 19 19 0 56 39 56 58 0 10 -8 12 -29 7
-17 -3 -32 -2 -36 4 -3 6 -17 11 -31 11 -29 0 -64 16 -64 30 0 6 10 10 23 10
29 0 90 37 82 50 -3 6 -13 10 -21 10 -19 0 -18 19 2 27 8 3 13 11 10 19 -3 7
2 18 10 24 21 18 17 29 -11 36 -18 4 -25 13 -25 30 0 31 -14 30 -39 -2 -18
-23 -30 -27 -81 -30 -33 -2 -60 1 -60 5 0 15 25 31 50 31 17 0 33 12 50 35 14
18 34 38 45 43 19 9 18 11 -10 22 -16 7 -47 13 -67 13 -43 2 -52 23 -13 33 28
7 31 14 13 32 -19 19 4 37 31 23 18 -10 21 -9 21 9 0 11 7 23 15 26 28 11 15
30 -30 43 -25 7 -52 10 -61 7 -9 -3 -20 -4 -25 0 -11 6 16 60 33 67 8 3 1 9
-14 16 -30 11 -34 22 -18 52 9 16 7 19 -14 19 -23 0 -24 3 -21 41 4 39 3 40
-24 34 -23 -5 -29 -1 -39 20 -14 30 -28 32 -37 5z m-1396 -580 c49 0 71 -13
71 -40 -1 -12 -4 -11 -16 5 -14 19 -16 19 -28 3 -14 -19 -52 -25 -40 -7 5 8
-5 9 -33 4 -36 -6 -41 -4 -47 17 -3 13 -6 31 -6 41 0 17 2 17 26 -2 18 -15 41
-21 73 -21z m934 -412 c9 -11 17 -28 17 -37 0 -9 9 -35 20 -56 18 -36 25 -40
58 -40 45 0 53 -28 10 -33 -17 -2 -36 -15 -49 -33 -19 -28 -20 -31 -5 -54 21
-31 20 -71 0 -79 -13 -5 -14 -9 -4 -21 14 -16 5 -35 -16 -35 -20 0 -17 -14 7
-36 14 -13 37 -19 68 -20 26 0 53 -4 60 -8 6 -4 49 -2 94 4 45 7 96 11 112 9
l30 -4 3 -79 3 -79 -33 8 c-39 8 -137 8 -227 0 -60 -5 -66 -4 -93 22 -22 21
-31 24 -40 15 -7 -7 -20 -12 -29 -12 -9 0 -22 -7 -29 -15 -14 -17 -95 -21
-104 -6 -4 5 -18 5 -35 -2 -44 -16 -61 -4 -61 46 0 24 -7 52 -15 63 -20 27
-19 31 15 49 17 9 30 20 30 25 0 18 -65 36 -119 33 -53 -3 -81 8 -81 32 0 14
77 50 139 64 64 14 83 36 75 87 -6 39 -4 44 22 57 46 24 72 58 85 112 6 28 13
56 15 64 3 10 10 10 32 -4 15 -9 35 -26 45 -37z m150 -29 c27 -2 28 -2 7 -6
-14 -2 -35 -9 -47 -15 -27 -13 -38 -6 -29 18 4 10 12 14 22 10 9 -3 30 -7 47
-7z m-549 -148 c19 -21 14 -27 -43 -55 -69 -33 -82 -12 -23 40 44 39 44 39 66
15z"/>
</g>
</svg>
