<?xml version="1.0" standalone="no"?>
<!DOCTYPE svg PUBLIC "-//W3C//DTD SVG 20010904//EN"
 "http://www.w3.org/TR/2001/REC-SVG-20010904/DTD/svg10.dtd">
<svg version="1.0" xmlns="http://www.w3.org/2000/svg"
 width="374.000000pt" height="150.000000pt" viewBox="0 0 374.000000 150.000000"
 preserveAspectRatio="xMidYMid meet">
<metadata>
Created by potrace 1.16, written by Peter Selinger 2001-2019
</metadata>
<g transform="translate(0.000000,150.000000) scale(0.100000,-0.100000)"
fill="#000000" stroke="none">
<path d="M3185 1467 c-4 -10 -18 -17 -32 -17 -20 0 -23 -3 -14 -14 6 -7 9 -20
5 -29 -3 -8 -1 -18 5 -22 16 -9 14 -25 -3 -25 -8 0 -16 -7 -20 -15 -3 -8 -12
-15 -21 -15 -18 0 -19 -12 -4 -27 18 -18 2 -43 -26 -43 -22 0 -24 -3 -15 -19
5 -11 10 -27 10 -37 0 -14 -2 -14 -16 -3 -13 11 -17 10 -25 -4 -6 -9 -17 -17
-24 -17 -18 0 -18 -5 -5 -29 6 -13 17 -17 35 -14 25 5 55 -11 55 -29 0 -10
-90 -4 -132 8 -13 4 -16 -2 -15 -28 2 -27 7 -34 27 -38 14 -3 30 -17 38 -33 9
-19 21 -27 40 -27 24 0 25 -1 10 -16 -14 -14 -22 -15 -49 -5 -35 12 -102 15
-112 4 -4 -3 -2 -12 4 -20 9 -9 8 -13 0 -13 -6 0 -11 -4 -11 -8 0 -10 60 -30
100 -34 43 -5 18 -23 -32 -23 -26 0 -50 -4 -54 -8 -4 -4 -19 -7 -32 -7 -24 0
-24 -1 -9 -18 10 -10 17 -24 17 -30 0 -7 9 -12 20 -12 22 0 27 -19 9 -37 -13
-13 25 -43 53 -43 10 0 18 -4 18 -9 0 -13 -23 -20 -52 -14 -17 3 -34 -3 -53
-19 -25 -22 -26 -26 -14 -46 10 -15 24 -22 46 -22 38 0 44 -16 11 -25 -73 -19
-98 -30 -98 -40 0 -18 27 -38 40 -30 5 3 19 4 30 0 26 -8 15 -35 -15 -35 -29
0 -61 -45 -46 -64 7 -8 22 -11 38 -8 18 3 24 1 19 -7 -4 -6 -13 -11 -21 -11
-17 0 -46 -56 -39 -74 3 -7 -2 -16 -12 -20 -16 -6 -15 -8 1 -26 13 -15 31 -20
66 -20 26 0 50 -4 53 -9 4 -5 22 -5 43 0 21 5 62 9 91 9 47 0 53 -3 62 -25 5
-14 9 -51 7 -83 l-2 -57 -805 -2 c-453 -2 -811 1 -819 6 -11 7 -7 23 24 85 21
43 50 85 66 97 15 11 49 51 74 89 39 59 56 75 118 109 40 22 94 45 120 52 33
8 55 21 69 40 25 34 42 28 34 -13 -11 -54 46 -126 74 -93 8 9 9 32 5 68 -6 49
-4 58 22 95 25 36 60 59 71 47 3 -2 -7 -18 -22 -35 -32 -38 -33 -58 -4 -107
26 -44 46 -62 70 -63 28 0 31 19 12 62 l-18 40 69 67 c76 73 140 164 131 187
-3 8 -17 14 -31 14 -24 0 -25 2 -19 35 4 22 0 55 -12 91 -15 47 -16 63 -6 100
8 31 9 71 2 145 -5 56 -7 126 -4 156 6 46 4 53 -11 53 -20 0 -69 -50 -93 -94
-10 -20 -17 -59 -18 -114 -1 -45 -7 -88 -13 -96 -6 -7 -41 -21 -78 -30 -84
-21 -113 -37 -193 -101 -36 -28 -74 -56 -85 -62 -43 -23 -173 -62 -226 -68
-52 -6 -57 -5 -92 26 l-37 33 30 31 c28 29 30 37 36 132 5 74 3 111 -6 135
-31 79 -43 98 -61 98 -23 0 -24 -13 -5 -43 19 -30 25 -89 9 -94 -7 -3 -13 3
-13 14 0 10 -11 42 -25 71 -18 39 -29 52 -45 52 -13 0 -20 -5 -17 -12 21 -51
39 -119 34 -125 -4 -4 -20 8 -35 27 -30 35 -58 35 -47 -1 5 -16 3 -20 -11 -17
-9 2 -19 -2 -21 -9 -7 -21 39 -52 86 -58 61 -8 91 -21 91 -40 0 -20 -10 -19
-27 3 -13 16 -14 16 -29 -5 -20 -28 -40 -29 -47 -3 -5 18 -8 19 -31 8 -46 -20
-60 6 -63 114 -3 95 -9 113 -32 99 -9 -6 -16 -35 -19 -85 -2 -42 -8 -76 -11
-76 -4 0 -13 28 -20 63 -18 85 -18 87 -36 87 -14 0 -16 -9 -10 -65 8 -69 1
-84 -16 -35 -15 42 -29 37 -29 -9 0 -87 41 -134 131 -152 43 -9 59 -16 59 -28
-1 -9 -37 -47 -80 -86 -44 -38 -80 -76 -80 -85 1 -36 34 -59 89 -62 l55 -3 23
-60 c26 -67 84 -132 148 -166 23 -13 48 -32 55 -43 11 -17 10 -22 -6 -31 -10
-5 -35 -28 -54 -50 -19 -21 -70 -74 -113 -117 -43 -43 -76 -82 -72 -88 3 -5
21 -10 39 -10 39 0 103 47 142 104 14 20 28 35 31 32 8 -8 -52 -122 -88 -168
-16 -20 -29 -41 -29 -46 0 -6 -7 -13 -16 -16 -9 -3 -192 -6 -408 -6 l-393 0
-6 50 c-9 74 -3 83 49 75 25 -3 45 -2 49 5 3 5 16 10 28 10 15 0 36 16 60 44
43 51 44 56 18 56 -47 0 -70 26 -29 32 25 3 33 26 24 64 -5 18 -13 24 -33 24
-25 0 -26 1 -8 20 16 18 16 20 1 26 -20 8 -21 33 -1 40 23 9 18 31 -10 38 -23
6 -36 26 -16 26 4 0 8 17 7 38 -1 30 -6 39 -28 49 -34 15 -37 33 -5 33 33 0
55 16 40 31 -12 12 0 45 22 61 6 5 3 8 -7 8 -9 0 -21 8 -27 17 -8 14 -12 15
-25 4 -18 -15 -96 -26 -96 -13 0 13 23 32 38 32 8 0 25 12 38 27 26 31 18 43
-30 43 -28 0 -28 1 -13 18 10 10 17 24 17 30 0 7 5 12 10 12 5 0 19 9 30 20
19 19 19 21 3 27 -9 4 -32 7 -50 7 -37 1 -41 11 -17 44 14 20 14 22 -2 22 -12
0 -15 6 -12 25 5 21 2 25 -13 20 -16 -5 -18 -2 -13 24 6 27 4 31 -14 31 -12 0
-23 4 -26 9 -4 5 -16 5 -29 -2 -22 -10 -29 -40 -14 -64 4 -7 -5 -19 -23 -29
-32 -19 -37 -29 -20 -39 17 -11 11 -25 -11 -25 -19 0 -21 -4 -15 -31 5 -26 3
-29 -12 -25 -9 3 -26 -1 -36 -9 -16 -12 -17 -17 -6 -30 7 -8 24 -15 37 -15 15
0 23 -5 20 -12 -2 -8 -16 -11 -33 -9 -62 8 -69 7 -66 -13 4 -23 64 -86 82 -86
7 0 10 -3 6 -7 -4 -5 -34 -6 -65 -5 -48 3 -59 1 -65 -14 -9 -24 4 -35 53 -41
51 -7 54 -25 4 -22 -21 1 -45 -1 -53 -4 -8 -3 -21 -7 -28 -9 -9 -2 -6 -12 13
-32 14 -15 25 -33 24 -39 -3 -29 3 -37 26 -37 14 0 25 -4 25 -10 0 -5 -25 -10
-56 -10 l-55 0 3 -32 c3 -28 8 -34 43 -44 22 -7 38 -13 35 -14 -3 -1 -25 -7
-50 -13 -55 -15 -62 -40 -12 -45 36 -4 40 -25 5 -30 -20 -3 -47 -45 -36 -56 4
-3 18 -6 32 -7 25 0 25 -1 4 -9 -13 -5 -24 -22 -28 -42 -4 -18 -13 -36 -19
-40 -8 -5 -6 -12 5 -23 15 -16 89 -20 204 -13 l40 3 3 -72 3 -73 -179 0 c-98
0 -192 -5 -209 -10 -16 -6 -37 -24 -47 -40 l-17 -30 1855 0 c1021 0 1856 3
1856 6 0 17 -24 46 -50 59 -23 12 -69 15 -214 15 -102 0 -187 3 -189 8 -3 4
-8 33 -11 64 -7 52 -5 58 16 71 24 16 44 14 166 -15 68 -16 88 -1 52 37 -13
14 -22 26 -19 28 2 1 11 8 20 15 12 9 24 10 43 2 52 -19 75 10 48 62 -9 18
-15 45 -13 59 1 16 -4 29 -13 32 -9 4 -12 14 -9 26 4 17 -1 20 -44 26 -62 8
-73 12 -73 25 0 5 13 10 29 10 21 0 30 6 34 21 5 17 10 19 41 13 32 -5 36 -4
36 14 0 11 8 23 18 27 30 12 -65 38 -117 32 -61 -7 -79 4 -73 42 3 22 10 31
23 31 13 0 19 7 19 21 0 11 4 17 10 14 6 -4 17 -1 25 5 28 24 16 38 -37 45
-76 10 -122 55 -57 55 34 0 69 15 69 30 0 6 -7 10 -15 10 -8 0 -15 5 -15 10 0
6 5 10 10 10 6 0 10 9 10 20 0 10 8 24 18 29 16 10 16 10 0 11 -10 0 -24 12
-31 26 -14 26 -14 26 -28 7 -10 -14 -29 -22 -67 -25 -29 -3 -55 -1 -58 4 -7
11 27 38 39 31 8 -5 77 65 77 79 0 4 -24 8 -52 10 l-53 3 25 25 c14 14 23 33
22 43 -3 14 1 17 20 12 18 -4 26 0 35 21 7 15 11 30 8 32 -2 2 -29 5 -60 6
l-56 1 5 30 c4 16 11 32 18 36 7 4 3 11 -11 18 -17 10 -19 15 -11 31 9 17 7
20 -9 20 -17 0 -20 6 -17 35 2 29 -1 35 -13 30 -9 -4 -22 3 -32 17 -16 21 -18
21 -24 5z"/>
</g>
</svg>
