<?xml version="1.0" standalone="no"?>
<!DOCTYPE svg PUBLIC "-//W3C//DTD SVG 20010904//EN"
 "http://www.w3.org/TR/2001/REC-SVG-20010904/DTD/svg10.dtd">
<svg version="1.0" xmlns="http://www.w3.org/2000/svg"
 width="400.000000pt" height="300.000000pt" viewBox="0 0 400.000000 300.000000"
 preserveAspectRatio="xMidYMid meet">
<metadata>
Created by potrace 1.16, written by Peter Selinger 2001-2019
</metadata>
<g transform="translate(0.000000,300.000000) scale(0.100000,-0.100000)"
fill="#000000" stroke="none">
<path d="M1438 2619 c-40 -21 -58 -45 -58 -78 0 -12 -9 -30 -20 -41 -23 -23
-19 -40 9 -40 15 0 18 -8 18 -40 0 -58 14 -69 76 -63 l52 5 13 -54 c6 -29 12
-70 12 -90 0 -35 -3 -38 -39 -48 -26 -7 -54 -7 -81 -1 -22 5 -49 7 -60 4 -13
-3 -34 9 -67 40 -53 49 -91 71 -143 82 -19 4 -40 11 -46 16 -6 5 -24 11 -40
13 -16 3 -56 9 -89 14 -33 5 -69 10 -80 10 -11 1 -35 4 -53 8 -36 7 -59 -6
-73 -43 -10 -26 -46 -31 -55 -8 -11 27 -44 39 -61 22 -10 -10 -12 -20 -7 -29
24 -36 31 -78 18 -95 -7 -10 -14 -31 -14 -46 0 -16 -8 -41 -19 -55 -10 -15
-24 -46 -31 -69 -7 -23 -37 -74 -66 -113 -41 -55 -54 -80 -54 -106 0 -61 13
-74 76 -74 51 0 58 3 92 39 31 33 49 42 112 56 41 9 114 35 162 57 l87 41 48
-41 c89 -74 90 -76 96 -189 7 -118 12 -113 -100 -113 -69 0 -77 -2 -104 -29
-32 -33 -35 -54 -14 -91 8 -14 14 -37 15 -53 0 -33 43 -143 66 -168 8 -9 27
-20 42 -24 15 -4 38 -20 53 -37 22 -27 35 -32 90 -39 36 -4 68 -4 73 1 6 6 2
32 -10 66 -20 60 -44 79 -77 62 -26 -14 -47 -3 -47 25 0 21 -48 95 -87 135
-34 35 -3 53 54 31 15 -6 78 -14 138 -17 l110 -7 -4 -592 -3 -593 313 -2 c173
0 354 -1 402 -1 56 0 92 4 100 12 9 9 12 81 12 269 0 187 3 263 13 279 34 60
-12 133 -84 133 -65 0 -111 -73 -83 -134 17 -38 26 -393 10 -409 -11 -11 -162
-10 -173 1 -4 4 -8 162 -9 352 -3 328 -4 346 -23 368 -14 16 -30 22 -60 22
-49 0 -58 -6 -80 -47 -20 -40 -20 -73 -1 -99 20 -26 22 -603 3 -605 -53 -5
-164 5 -170 14 -4 7 -7 239 -5 517 l2 505 25 -3 c14 -2 43 -2 65 -2 58 2 70 1
170 -5 77 -5 102 -3 175 18 47 14 103 32 125 41 41 15 122 21 163 10 16 -5 25
-18 33 -50 12 -46 48 -84 79 -84 9 0 34 -14 55 -30 21 -17 50 -33 64 -37 14
-3 41 -14 58 -25 18 -11 59 -22 90 -25 71 -7 111 -26 117 -56 3 -12 7 -73 10
-136 4 -97 8 -117 25 -135 23 -25 150 -64 221 -68 40 -3 45 -1 48 20 2 12 -4
43 -14 67 -19 51 -43 63 -89 45 -21 -8 -30 -8 -36 2 -4 6 -5 16 -3 20 3 4 -7
54 -21 111 -20 80 -25 123 -23 193 1 49 -1 95 -6 102 -15 24 -54 32 -104 21
-61 -14 -102 0 -102 35 0 13 12 49 26 81 35 75 37 189 5 261 -12 26 -19 49
-16 52 3 3 36 0 74 -7 100 -18 114 -36 119 -153 4 -81 7 -94 27 -110 17 -13
24 -31 27 -73 5 -63 30 -98 84 -115 18 -6 44 -26 58 -45 14 -18 35 -36 45 -40
11 -3 29 -22 40 -41 20 -34 24 -36 69 -33 26 2 64 -3 85 -10 21 -7 55 -11 75
-9 21 3 46 -1 58 -9 18 -11 23 -11 39 7 17 19 20 19 42 5 43 -29 60 11 23 57
-14 19 -33 27 -70 32 -67 9 -150 42 -168 67 -7 11 -29 26 -48 34 -27 11 -39
26 -55 62 -11 26 -29 65 -40 86 -11 20 -25 76 -31 122 -20 158 -89 223 -252
236 -304 25 -328 29 -418 60 l-92 31 -165 -6 c-91 -4 -171 -3 -177 1 -21 16
-44 58 -44 80 0 25 -19 30 -38 11 -17 -17 -27 15 -13 41 17 32 13 73 -13 121
-13 25 -35 68 -49 96 -14 29 -39 62 -56 75 -36 27 -38 35 -11 42 25 6 26 26 3
33 -10 3 -26 10 -36 15 -12 7 -24 5 -38 -5 -16 -11 -28 -12 -50 -4 -21 7 -33
7 -44 -2 -21 -17 -45 -5 -45 22 0 33 -36 87 -66 98 -14 6 -26 10 -27 10 -1 -1
-19 -10 -39 -21z m256 -441 c9 -12 16 -35 16 -50 0 -23 -4 -28 -25 -28 -14 0
-29 -8 -35 -20 -13 -24 -20 -25 -44 -7 -18 13 -17 15 8 40 14 14 26 37 26 50
0 43 29 51 54 15z m-729 -208 c0 -16 -101 -58 -112 -46 -4 3 7 20 23 37 22 23
36 29 59 27 19 -2 30 -9 30 -18z"/>
</g>
</svg>
