<?xml version="1.0" standalone="no"?>
<!DOCTYPE svg PUBLIC "-//W3C//DTD SVG 20010904//EN"
 "http://www.w3.org/TR/2001/REC-SVG-20010904/DTD/svg10.dtd">
<svg version="1.0" xmlns="http://www.w3.org/2000/svg"
 width="280.000000pt" height="264.000000pt" viewBox="0 0 280.000000 264.000000"
 preserveAspectRatio="xMidYMid meet">
<metadata>
Created by potrace 1.16, written by Peter Selinger 2001-2019
</metadata>
<g transform="translate(0.000000,264.000000) scale(0.100000,-0.100000)"
fill="#000000" stroke="none">
<path d="M1717 2222 c-26 -29 -20 -57 18 -86 28 -22 35 -34 35 -62 0 -45 -16
-74 -40 -74 -15 0 -20 7 -20 28 0 37 -52 116 -94 142 -40 24 -89 26 -110 4
-28 -28 -19 -52 30 -77 39 -20 84 -72 84 -98 0 -30 -14 -23 -48 26 -18 26 -40
45 -50 45 -10 0 -29 11 -42 25 -13 14 -33 25 -45 25 -26 0 -65 -27 -65 -45 0
-22 30 -45 59 -45 32 0 66 -32 58 -54 -5 -11 -15 -14 -35 -10 -65 13 -248 -38
-382 -106 -119 -60 -283 -194 -323 -263 -32 -54 -72 -156 -99 -252 -16 -59
-19 -90 -14 -195 5 -136 16 -180 67 -284 79 -161 271 -300 442 -321 63 -7 70
-18 35 -58 -21 -23 -46 -95 -71 -200 -9 -41 -9 -50 6 -64 14 -14 22 -15 55 -5
22 7 75 12 118 12 44 0 89 3 102 6 24 7 29 33 11 66 -10 18 -17 20 -69 14 -64
-7 -83 3 -57 32 9 9 32 51 51 92 57 118 46 192 -32 205 -60 11 -72 16 -72 30
0 7 11 15 24 19 13 3 42 27 66 52 28 31 55 50 79 55 78 18 84 12 51 -56 -41
-85 -65 -266 -38 -293 14 -14 125 -16 183 -2 49 11 88 53 79 83 -10 35 -35 49
-74 43 -19 -4 -44 -7 -55 -9 -27 -3 -32 29 -5 38 24 7 42 47 76 163 28 96 29
113 9 151 -18 36 -42 42 -113 30 -77 -12 -225 -11 -298 2 -158 29 -286 107
-320 194 -28 73 -16 192 27 280 40 82 59 94 59 37 0 -30 7 -47 28 -70 37 -39
86 -52 200 -52 77 0 92 -3 92 -16 0 -9 -9 -23 -20 -32 -23 -20 -63 -147 -55
-178 7 -29 59 -50 93 -38 19 7 32 23 45 59 25 65 123 370 148 459 10 39 24 73
30 77 6 3 27 2 45 -4 25 -8 52 -7 97 1 34 6 94 14 132 18 53 4 90 15 152 45
91 44 138 91 166 169 30 81 14 187 -34 222 -46 34 -82 -6 -59 -66 31 -83 -60
-226 -177 -278 -53 -23 -88 -21 -88 7 0 15 11 21 55 30 94 19 140 53 175 128
14 31 16 52 10 125 -8 101 -27 132 -81 132 -34 0 -49 -24 -32 -53 5 -9 11 -45
15 -80 4 -49 2 -71 -12 -96 -19 -37 -79 -101 -94 -101 -26 0 -19 25 17 58 56
53 75 94 67 145 -9 54 -49 131 -77 151 -30 21 -71 20 -91 -2z m-118 -419 c0
-5 -3 -9 -9 -11 -5 -2 -10 4 -10 13 0 16 16 14 19 -2z m-149 -18 c0 -8 -9 -19
-19 -25 -13 -6 -30 -43 -51 -110 -17 -56 -37 -103 -45 -106 -8 -3 -31 2 -52
13 -49 23 -57 62 -19 87 20 13 26 25 26 54 0 52 9 61 76 82 73 23 84 24 84 5z
m-321 -254 c21 -57 61 -82 136 -84 37 -1 55 -5 55 -14 0 -22 -46 -26 -103 -9
-30 9 -66 16 -80 16 -35 0 -67 43 -67 90 0 67 34 68 59 1z"/>
</g>
</svg>
