<?xml version="1.0" standalone="no"?>
<!DOCTYPE svg PUBLIC "-//W3C//DTD SVG 20010904//EN"
 "http://www.w3.org/TR/2001/REC-SVG-20010904/DTD/svg10.dtd">
<svg version="1.0" xmlns="http://www.w3.org/2000/svg"
 width="413.000000pt" height="170.000000pt" viewBox="0 0 413.000000 170.000000"
 preserveAspectRatio="xMidYMid meet">
<metadata>
Created by potrace 1.16, written by Peter Selinger 2001-2019
</metadata>
<g transform="translate(0.000000,170.000000) scale(0.100000,-0.100000)"
fill="#000000" stroke="none">
<path d="M2724 1475 c-4 -9 -2 -21 3 -28 5 -6 17 -33 27 -60 17 -46 17 -49 -1
-92 -10 -25 -21 -45 -25 -45 -11 0 -10 14 6 51 22 53 -20 153 -71 165 -43 11
-48 -10 -14 -56 29 -40 44 -109 21 -95 -5 3 -10 15 -10 27 0 50 -75 120 -114
105 -25 -10 -19 -44 11 -59 27 -13 51 -43 42 -52 -3 -3 -24 4 -46 15 -49 24
-96 22 -101 -4 -2 -10 4 -19 15 -23 52 -17 58 -22 21 -22 -44 1 -70 -17 -66
-46 3 -18 9 -21 41 -18 20 2 37 0 37 -3 0 -3 -30 -36 -67 -73 -79 -79 -126
-153 -148 -237 -23 -84 -30 -218 -15 -288 16 -80 89 -221 145 -281 25 -27 45
-55 45 -61 0 -12 -29 -82 -67 -163 l-15 -32 -322 2 c-312 3 -321 4 -324 23 -5
28 -32 55 -53 55 -31 0 -29 15 6 75 19 31 35 69 35 82 0 16 -20 47 -59 89
-103 113 -171 278 -171 416 l0 47 25 -25 c23 -23 32 -25 90 -22 35 1 66 1 68
-2 3 -3 1 -32 -4 -65 -9 -68 0 -88 40 -83 l26 3 8 130 c4 72 10 153 13 181 l5
51 55 6 c142 15 245 152 215 286 -11 50 -15 55 -34 48 -12 -4 -14 -20 -10 -71
5 -60 4 -67 -22 -98 -17 -19 -25 -25 -20 -13 39 96 37 134 -7 190 -19 24 -22
25 -36 11 -13 -12 -13 -20 -4 -41 14 -31 15 -75 2 -95 -7 -11 -10 -4 -10 27 0
51 -16 88 -46 108 -26 17 -54 10 -54 -12 0 -8 11 -28 25 -45 27 -32 30 -44 16
-53 -6 -3 -15 3 -20 14 -14 25 -72 61 -100 61 -26 0 -28 -24 -3 -42 9 -7 24
-22 32 -32 12 -16 9 -16 -17 3 -36 27 -78 23 -88 -9 -9 -28 2 -40 36 -40 47 0
34 -23 -28 -47 -221 -86 -345 -352 -273 -586 20 -65 58 -141 92 -186 10 -13
18 -29 18 -35 0 -6 -25 -41 -55 -79 -30 -37 -55 -76 -55 -86 0 -35 111 -66
138 -39 17 17 15 45 -3 52 -23 8 -18 23 18 63 l33 36 32 -29 31 -29 -46 -97
-46 -98 -418 0 -419 0 0 24 c0 27 -24 56 -45 56 -23 0 -26 17 -11 55 17 39 23
42 41 18 18 -24 118 -24 141 -1 21 21 12 45 -20 58 l-25 9 35 80 c19 43 34 85
34 93 0 27 -24 38 -87 38 -194 0 -324 145 -257 286 23 47 33 51 45 15 10 -29
54 -53 114 -63 24 -5 23 -18 -6 -86 -23 -53 -24 -54 -4 -68 11 -8 26 -13 34
-12 18 4 24 15 103 191 49 111 64 136 77 131 9 -4 48 -9 87 -12 86 -5 132 14
192 83 31 36 42 58 50 103 11 59 4 79 -22 69 -10 -4 -16 -18 -16 -37 0 -39
-22 -82 -56 -109 -47 -37 -52 -22 -7 24 39 41 43 50 43 94 0 62 -7 81 -31 81
-15 0 -19 -7 -19 -35 0 -38 -30 -109 -37 -88 -2 7 0 21 6 32 6 11 11 29 11 40
0 34 -32 91 -51 91 -25 0 -33 -35 -14 -63 16 -26 11 -57 -9 -57 -7 0 -18 18
-25 39 -10 35 -51 81 -71 81 -20 0 -17 -32 6 -65 24 -36 30 -55 17 -55 -5 0
-15 15 -23 33 -13 28 -20 32 -55 32 -33 0 -40 -3 -40 -20 0 -12 11 -25 28 -33
54 -26 28 -42 -72 -42 -57 0 -78 -6 -147 -39 -183 -89 -275 -239 -261 -426 9
-125 81 -241 190 -311 26 -16 47 -32 47 -35 0 -4 -20 -50 -45 -103 l-45 -96
-123 -1 c-67 -1 -133 -4 -147 -8 -23 -6 -70 -62 -70 -82 0 -5 869 -9 1930 -9
1062 0 1930 3 1930 8 0 20 -43 74 -66 82 -14 6 -135 10 -269 10 -260 0 -255
-1 -255 50 0 11 -11 22 -30 29 -36 12 -37 23 -5 80 31 53 32 85 3 105 -21 15
-21 16 -3 36 10 11 21 20 25 20 4 0 26 -42 49 -92 24 -51 48 -103 54 -115 14
-30 27 -29 73 8 59 46 66 65 38 93 -11 12 -20 13 -34 6 -27 -14 -38 -12 -44 8
-33 118 -62 198 -77 213 -14 14 -33 19 -69 19 -83 0 -153 47 -175 119 -18 58
2 155 35 176 6 4 15 -7 21 -23 7 -22 22 -35 50 -46 22 -9 45 -16 52 -16 34 -1
37 -16 12 -68 -14 -29 -25 -59 -25 -67 0 -17 33 -37 52 -30 7 3 45 76 84 163
65 145 72 157 95 154 110 -15 139 -14 193 11 67 31 120 98 134 172 11 54 9 65
-13 65 -12 0 -35 -55 -35 -86 0 -15 -41 -59 -67 -73 -34 -18 -38 -13 -8 11 57
45 82 145 47 188 -24 29 -46 18 -39 -19 3 -14 -1 -39 -8 -56 -13 -30 -13 -29
-14 26 -1 64 -26 107 -54 96 -19 -7 -23 -42 -7 -52 13 -8 13 -68 0 -63 -5 2
-20 23 -32 47 -27 52 -56 75 -78 61 -13 -8 -12 -16 10 -54 13 -25 21 -48 18
-51 -3 -3 -10 8 -16 24 -14 39 -51 58 -81 41 -26 -13 -24 -38 4 -54 57 -31 40
-43 -66 -48 -115 -4 -211 -50 -294 -140 -87 -94 -109 -149 -109 -278 -1 -95 2
-111 27 -165 43 -92 75 -133 144 -182 l62 -44 -23 -52 c-13 -29 -34 -73 -47
-100 l-23 -47 -323 0 -322 0 -7 35 c-5 28 -12 36 -40 45 l-34 12 30 53 c35 61
38 95 10 120 -20 18 -20 18 7 47 15 15 30 28 34 28 9 0 55 -105 68 -156 17
-65 33 -72 81 -34 65 52 65 119 -1 100 -34 -10 -31 -13 -49 70 -23 103 -33
117 -104 150 -98 46 -146 117 -146 213 0 34 2 37 19 27 33 -17 76 -11 116 15
20 15 40 23 44 20 3 -4 15 -34 26 -68 21 -65 48 -85 74 -54 12 16 10 27 -53
241 -14 48 -26 96 -26 106 0 10 16 24 41 35 92 42 148 143 136 247 -10 78 -68
164 -83 123z m-1029 -420 c-7 -77 -17 -89 -54 -66 -12 8 -12 14 -1 40 7 17 10
37 6 46 -5 14 43 70 52 60 3 -2 1 -38 -3 -80z m865 -5 c7 -38 10 -73 7 -76 -3
-4 -18 -3 -33 0 -21 6 -25 11 -20 31 3 13 1 35 -5 49 -10 20 -9 30 5 51 9 14
20 23 25 21 4 -3 14 -37 21 -76z m1224 35 c-4 -8 -11 -15 -16 -15 -6 0 -5 6 2
15 7 8 14 15 16 15 2 0 1 -7 -2 -15z m-2984 -77 c0 -20 -54 -118 -66 -118 -6
0 -18 8 -27 18 -15 16 -14 19 9 41 13 13 24 31 24 41 0 10 6 21 13 23 22 10
47 7 47 -5z m2718 -53 c-33 -67 -50 -77 -72 -43 -8 14 -6 22 12 38 12 11 22
29 22 40 0 20 13 28 47 29 23 1 22 0 -9 -64z m-1935 -21 c11 -14 16 -28 13
-31 -8 -9 -46 27 -46 44 0 20 13 15 33 -13z m927 -47 c0 -16 -35 -1 -38 16 -3
16 -1 17 17 5 12 -7 21 -17 21 -21z m859 -7 c10 -31 4 -39 -17 -18 -14 14 -16
48 -3 48 5 0 14 -13 20 -30z m-2737 -5 c3 -14 2 -25 -3 -25 -12 0 -30 36 -22
44 12 12 21 6 25 -19z m82 -472 c-4 -21 -12 -51 -19 -68 l-13 -30 -10 25 c-5
14 -17 32 -26 39 -15 13 -14 17 10 43 15 15 36 28 46 28 16 0 18 -5 12 -37z"/>
</g>
</svg>
