<?xml version="1.0" standalone="no"?>
<!DOCTYPE svg PUBLIC "-//W3C//DTD SVG 20010904//EN"
 "http://www.w3.org/TR/2001/REC-SVG-20010904/DTD/svg10.dtd">
<svg version="1.0" xmlns="http://www.w3.org/2000/svg"
 width="400.000000pt" height="300.000000pt" viewBox="0 0 400.000000 300.000000"
 preserveAspectRatio="xMidYMid meet">
<metadata>
Created by potrace 1.16, written by Peter Selinger 2001-2019
</metadata>
<g transform="translate(0.000000,300.000000) scale(0.100000,-0.100000)"
fill="#000000" stroke="none">
<path d="M573 2213 c-14 -37 -18 -74 -17 -158 0 -101 3 -115 31 -176 17 -37
36 -70 42 -73 24 -15 11 -59 -30 -100 -52 -51 -86 -104 -115 -178 -12 -31 -35
-74 -52 -95 -16 -21 -40 -65 -52 -98 -12 -33 -35 -81 -51 -106 -16 -25 -29
-52 -29 -59 0 -7 -11 -32 -24 -54 -31 -52 -41 -107 -27 -135 10 -17 21 -21 65
-21 62 0 77 17 50 58 -24 36 -12 74 54 165 49 68 280 313 288 305 1 -2 -2 -26
-7 -53 -6 -31 -25 -73 -50 -110 l-41 -60 22 -68 c17 -51 21 -81 17 -119 -11
-89 22 -123 109 -116 48 4 54 24 20 61 -31 34 -42 101 -28 173 10 48 19 61 72
110 44 41 70 76 95 130 20 41 40 74 47 74 6 0 36 -12 67 -27 43 -21 75 -28
139 -31 60 -3 85 -8 89 -18 7 -19 -41 -91 -66 -99 -24 -7 -54 -52 -47 -71 3
-9 20 -14 48 -14 38 0 47 5 95 55 29 30 53 62 53 70 0 9 4 14 9 11 4 -3 11
-88 15 -188 7 -179 8 -184 32 -205 28 -26 71 -30 98 -10 17 12 16 15 -9 45
-27 32 -27 34 -20 125 4 51 9 138 11 193 3 78 9 118 28 169 14 36 32 104 40
150 15 85 40 142 103 230 26 37 42 50 62 51 14 1 36 2 49 3 16 1 27 11 38 37
20 47 14 60 -30 68 -39 8 -46 15 -55 60 -9 43 -42 58 -116 53 -61 -4 -90 -16
-155 -63 -48 -34 -53 -48 -38 -90 12 -35 12 -37 -11 -53 -14 -9 -41 -33 -60
-54 -20 -22 -56 -51 -81 -65 -44 -26 -49 -27 -284 -33 -132 -4 -245 -5 -250
-2 -20 8 -68 94 -93 166 -22 62 -25 84 -21 179 2 59 0 108 -4 108 -3 0 -15
-21 -25 -47z"/>
</g>
</svg>
