<?xml version="1.0" standalone="no"?>
<!DOCTYPE svg PUBLIC "-//W3C//DTD SVG 20010904//EN"
 "http://www.w3.org/TR/2001/REC-SVG-20010904/DTD/svg10.dtd">
<svg version="1.0" xmlns="http://www.w3.org/2000/svg"
 width="269.000000pt" height="216.000000pt" viewBox="0 0 269.000000 216.000000"
 preserveAspectRatio="xMidYMid meet">
<metadata>
Created by potrace 1.16, written by Peter Selinger 2001-2019
</metadata>
<g transform="translate(0.000000,216.000000) scale(0.100000,-0.100000)"
fill="#000000" stroke="none">
<path d="M465 1845 c-22 -15 -50 -38 -63 -51 -18 -19 -33 -24 -71 -24 -27 0
-72 -7 -100 -17 -59 -19 -69 -37 -52 -101 15 -53 66 -97 138 -118 32 -9 67
-28 81 -43 28 -30 132 -240 162 -326 13 -38 20 -84 20 -135 0 -90 23 -168 74
-244 72 -109 84 -148 96 -311 11 -149 1 -202 -46 -252 -37 -39 -44 -76 -20
-108 10 -13 30 -20 74 -23 96 -7 128 3 158 48 40 60 54 123 65 283 6 94 15
159 24 177 18 36 79 56 190 64 44 3 107 13 140 21 50 14 66 14 99 4 34 -12 46
-10 115 14 42 15 82 27 89 27 8 0 39 -27 70 -61 104 -112 216 -189 333 -228
53 -17 69 -41 80 -116 8 -60 7 -73 -11 -110 -22 -46 -25 -77 -10 -106 9 -16
22 -19 75 -19 35 0 71 3 80 7 10 3 28 29 41 57 29 62 31 148 8 287 -20 118
-51 188 -113 254 -46 49 -49 56 -56 121 -4 38 -11 86 -15 107 -6 29 -4 42 10
59 17 21 29 23 199 30 226 10 254 20 265 94 3 26 3 51 -1 55 -5 4 -33 18 -63
30 -47 19 -83 23 -250 29 -107 4 -204 11 -215 15 -11 4 -70 27 -131 51 -61 24
-133 49 -160 55 -27 5 -159 14 -294 18 -240 8 -248 9 -342 40 -119 40 -174 82
-254 195 -177 249 -196 267 -307 274 -66 4 -76 2 -112 -23z"/>
</g>
</svg>
