<?xml version="1.0" standalone="no"?>
<!DOCTYPE svg PUBLIC "-//W3C//DTD SVG 20010904//EN"
 "http://www.w3.org/TR/2001/REC-SVG-20010904/DTD/svg10.dtd">
<svg version="1.0" xmlns="http://www.w3.org/2000/svg"
 width="400.000000pt" height="300.000000pt" viewBox="0 0 400.000000 300.000000"
 preserveAspectRatio="xMidYMid meet">
<metadata>
Created by potrace 1.16, written by Peter Selinger 2001-2019
</metadata>
<g transform="translate(0.000000,300.000000) scale(0.100000,-0.100000)"
fill="#000000" stroke="none">
<path d="M2251 2528 c-13 -7 -30 -28 -36 -47 -8 -26 -20 -38 -46 -46 -42 -15
-50 -41 -15 -55 14 -5 26 -16 26 -23 0 -23 -34 -47 -66 -47 -22 0 -40 -11 -72
-45 -23 -25 -42 -47 -42 -50 0 -10 89 -5 95 5 3 6 15 10 26 10 17 0 19 -4 12
-22 -4 -13 -7 -88 -5 -168 2 -134 1 -149 -24 -216 -25 -69 -27 -72 -57 -70
-26 1 -33 -3 -35 -22 -4 -26 -26 -39 -45 -25 -20 16 -97 13 -123 -3 -21 -15
-32 -14 -132 10 -60 14 -128 26 -151 26 -52 0 -158 -25 -226 -53 -80 -33 -133
-33 -196 -2 -30 15 -65 37 -79 50 -89 81 -151 95 -197 44 -64 -71 -97 -101
-134 -120 -34 -17 -39 -24 -39 -55 0 -31 -4 -37 -35 -50 -56 -23 -106 -18
-156 16 -24 16 -50 30 -56 30 -18 0 -16 -26 3 -56 21 -32 14 -38 -29 -26 -28
8 -37 7 -41 -4 -4 -11 21 -35 73 -71 2 -1 -2 -10 -10 -19 -12 -15 -11 -19 9
-32 28 -18 28 -25 -3 -58 -51 -55 -19 -67 67 -25 34 17 70 31 79 31 9 0 24 9
34 20 10 11 29 20 42 20 14 0 33 10 43 23 23 27 37 16 22 -18 -24 -52 18 -83
44 -32 19 37 43 67 55 67 4 0 10 -14 14 -30 9 -40 42 -42 50 -2 11 53 20 75
33 80 8 2 12 -7 12 -27 0 -33 19 -41 39 -17 7 8 23 17 36 20 13 3 27 15 30 26
4 11 19 27 35 35 40 20 48 6 49 -87 1 -91 15 -161 42 -206 23 -40 25 -85 3
-103 -9 -8 -37 -25 -62 -39 -69 -38 -70 -46 -29 -131 20 -41 51 -102 69 -135
31 -54 58 -126 58 -152 0 -6 -19 -17 -41 -24 l-41 -12 6 -50 c8 -69 16 -74 75
-46 36 16 51 30 56 49 8 32 23 51 41 51 15 0 74 -86 74 -109 0 -8 14 -27 32
-43 32 -28 87 -38 116 -20 13 9 17 3 -87 152 l-53 75 4 81 c4 77 6 84 41 124
20 24 48 73 62 110 33 86 89 159 127 167 16 3 36 16 45 29 20 31 49 30 96 -1
33 -23 227 -119 282 -140 11 -4 72 -11 135 -16 111 -8 247 -22 359 -37 l54 -7
24 -75 c12 -41 23 -87 23 -103 0 -15 9 -53 21 -85 11 -31 30 -88 41 -127 11
-38 24 -74 29 -79 5 -6 9 -22 9 -37 0 -31 15 -39 71 -39 48 0 52 20 14 76 -31
46 -32 75 -1 111 13 16 28 46 31 67 4 21 17 46 29 57 22 21 52 128 62 225 6
49 5 51 -32 81 -52 40 -78 53 -107 53 -13 0 -32 9 -42 20 -18 20 -18 23 9 103
39 112 48 127 114 199 32 35 69 81 82 103 54 93 82 103 152 56 24 -16 57 -32
74 -35 18 -4 54 -30 87 -62 84 -82 150 -85 182 -7 23 53 19 86 -16 129 -30 38
-149 272 -149 293 0 6 9 28 20 48 33 63 27 72 -33 48 -10 -4 -17 -4 -16 1 8
44 -32 46 -69 4 -32 -36 -45 -37 -65 -7 -13 19 -18 20 -36 10 -29 -18 -40 -16
-62 10 l-19 22 -20 -24 c-19 -22 -23 -23 -47 -10 -14 8 -32 24 -40 36 l-15 23
-48 -40 -48 -40 -37 16 c-43 17 -67 12 -63 -13 2 -13 -5 -19 -24 -21 -16 -2
-28 -7 -28 -12 0 -6 -15 -1 -34 9 -31 18 -104 39 -192 56 -33 6 -49 29 -58 80
-15 85 -20 101 -33 117 -16 18 -10 38 12 38 7 0 17 10 21 23 3 12 12 28 18 36
6 8 11 24 11 35 0 16 8 22 38 27 50 8 65 23 46 45 -8 9 -27 23 -43 29 -19 8
-33 24 -40 46 -11 33 -13 34 -66 37 -30 1 -66 -3 -79 -10z m257 -585 c39 -3
72 -10 72 -14 0 -5 -6 -9 -14 -9 -8 0 -23 -17 -33 -37 -12 -23 -29 -40 -44
-43 -17 -4 -26 -15 -30 -35 -3 -19 -10 -29 -20 -27 -21 5 -39 23 -39 38 0 8
-10 14 -25 14 -27 0 -32 -9 -14 -27 8 -8 8 -13 0 -17 -6 -4 -11 -16 -11 -27 0
-13 -7 -19 -21 -19 -18 0 -20 4 -15 28 4 15 10 65 13 111 l6 83 51 -6 c28 -3
84 -9 124 -13z m306 -973 c32 -12 34 -49 6 -105 -11 -22 -20 -50 -20 -63 0
-19 -5 -23 -22 -20 -22 3 -23 9 -26 88 -2 71 0 87 14 97 21 15 17 15 48 3z
m-1539 -37 c-4 -10 -10 -26 -12 -36 -7 -22 -27 -17 -31 7 -6 28 6 46 29 46 16
0 19 -4 14 -17z"/>
</g>
</svg>
