<?xml version="1.0" standalone="no"?>
<!DOCTYPE svg PUBLIC "-//W3C//DTD SVG 20010904//EN"
 "http://www.w3.org/TR/2001/REC-SVG-20010904/DTD/svg10.dtd">
<svg version="1.0" xmlns="http://www.w3.org/2000/svg"
 width="400.000000pt" height="300.000000pt" viewBox="0 0 400.000000 300.000000"
 preserveAspectRatio="xMidYMid meet">
<metadata>
Created by potrace 1.16, written by Peter Selinger 2001-2019
</metadata>
<g transform="translate(0.000000,300.000000) scale(0.100000,-0.100000)"
fill="#000000" stroke="none">
<path d="M2058 2622 c-7 -10 -29 -23 -48 -28 -19 -5 -35 -16 -35 -23 0 -8 16
-20 35 -26 23 -8 35 -19 36 -31 1 -10 2 -27 3 -37 0 -10 13 -22 29 -28 26 -10
26 -11 8 -25 -11 -8 -23 -14 -28 -14 -4 0 -8 -11 -8 -24 0 -14 -5 -28 -11 -32
-7 -4 -8 -20 -4 -43 17 -99 16 -102 -55 -138 -36 -18 -73 -33 -83 -33 -18 0
-57 -54 -57 -80 0 -8 -24 -36 -53 -61 l-53 -46 -294 1 -295 1 -3 30 c-8 66
-46 74 -62 13 -7 -23 -25 -54 -41 -69 -18 -16 -29 -37 -29 -53 0 -15 -11 -58
-25 -97 -13 -39 -27 -104 -31 -145 -4 -41 -11 -77 -15 -80 -19 -11 -7 -40 26
-63 31 -21 38 -22 65 -11 25 10 34 10 55 -4 13 -9 30 -16 37 -16 7 0 47 25 88
55 158 115 173 125 195 125 12 0 48 -19 79 -41 48 -34 63 -53 86 -104 16 -35
37 -68 48 -74 16 -8 20 -26 26 -104 11 -167 -21 -364 -71 -435 -10 -13 -23
-33 -29 -44 -6 -10 -20 -29 -31 -41 -11 -12 -23 -30 -26 -39 -6 -16 1 -18 48
-18 52 0 55 1 68 33 8 17 21 38 30 46 10 7 17 26 17 41 0 51 61 264 91 317 18
33 29 67 29 91 0 45 18 102 31 102 5 0 18 -15 28 -33 22 -36 39 -61 112 -162
72 -100 110 -187 116 -265 5 -60 3 -68 -21 -97 -14 -17 -26 -35 -26 -41 0 -22
76 -30 110 -12 20 11 50 94 50 137 0 13 -14 54 -31 91 -17 37 -43 107 -59 155
-16 48 -47 115 -70 149 -30 45 -38 64 -30 74 6 7 46 16 88 19 80 8 145 26 247
68 33 14 84 30 113 35 64 11 84 -1 138 -86 20 -32 47 -68 59 -82 34 -36 61
-106 69 -177 6 -52 3 -74 -19 -138 -14 -41 -25 -85 -25 -98 0 -12 -11 -42 -25
-66 -14 -23 -25 -45 -25 -47 0 -8 129 -4 134 5 3 4 8 59 12 122 7 121 22 172
77 253 33 48 33 61 2 132 -14 31 -25 58 -25 61 0 15 153 -58 185 -87 21 -20
32 -40 89 -164 27 -58 36 -91 36 -131 0 -29 7 -69 15 -88 8 -20 15 -48 15 -62
0 -22 4 -25 35 -25 28 0 37 5 50 30 21 40 19 73 -6 96 -17 15 -20 26 -15 58 6
32 2 46 -20 77 -14 21 -32 67 -40 101 -13 63 -18 128 -9 128 16 0 87 -91 96
-122 12 -46 29 -50 29 -7 0 26 3 29 20 24 16 -5 20 -2 20 17 0 13 -7 34 -16
46 -14 21 -14 25 -1 40 18 20 9 45 -30 78 -22 19 -23 24 -12 42 12 19 10 25
-13 49 -39 41 -71 118 -63 153 12 53 -5 116 -42 159 -39 46 -158 121 -191 121
-13 0 -44 11 -70 23 -26 13 -91 34 -145 47 -89 22 -102 23 -145 10 -78 -22
-110 -23 -154 -5 -23 9 -60 15 -82 13 -36 -3 -41 0 -46 22 -4 18 -14 26 -35
30 -28 5 -30 9 -39 70 -6 44 -5 79 3 108 6 23 11 51 11 61 0 10 9 25 20 32 19
14 19 15 0 52 -10 21 -22 58 -26 83 -3 24 -11 47 -18 51 -6 5 1 10 18 13 41 7
42 24 4 41 -20 9 -35 23 -38 39 -4 18 -16 28 -45 37 -56 16 -72 16 -87 -5z
m-11 -528 c3 -8 -4 -28 -16 -44 -11 -16 -21 -36 -21 -44 0 -16 -18 -25 -40
-19 -22 6 -62 68 -58 90 2 14 16 19 58 24 30 3 59 6 63 7 4 1 10 -5 14 -14z
m-179 -120 c-2 -13 -13 -20 -36 -22 -39 -4 -41 5 -4 34 29 24 46 18 40 -12z
m1116 -200 c17 -31 22 -62 24 -153 3 -99 6 -114 22 -118 11 -3 20 -18 23 -40
4 -20 14 -44 23 -54 29 -32 7 -33 -33 -1 -88 70 -86 64 -87 229 -1 81 -6 156
-11 167 -17 37 18 11 39 -30z m-1666 -96 c40 -25 43 -21 -88 -106 -109 -70
-130 -76 -130 -34 0 22 11 38 49 68 27 21 56 54 65 73 15 29 20 32 44 26 15
-4 42 -16 60 -27z"/>
</g>
</svg>
