<?xml version="1.0" standalone="no"?>
<!DOCTYPE svg PUBLIC "-//W3C//DTD SVG 20010904//EN"
 "http://www.w3.org/TR/2001/REC-SVG-20010904/DTD/svg10.dtd">
<svg version="1.0" xmlns="http://www.w3.org/2000/svg"
 width="800.000000pt" height="600.000000pt" viewBox="0 0 800.000000 600.000000"
 preserveAspectRatio="xMidYMid meet">
<metadata>
Created by potrace 1.16, written by Peter Selinger 2001-2019
</metadata>
<g transform="translate(0.000000,600.000000) scale(0.100000,-0.100000)"
fill="#000000" stroke="none">
<path d="M2461 5578 c-19 -5 -43 -7 -53 -5 -42 11 -84 -12 -118 -66 -19 -28
-58 -74 -87 -100 -28 -26 -57 -63 -63 -81 -6 -19 -19 -41 -29 -50 -28 -26 -81
-139 -85 -184 -2 -21 -9 -49 -16 -62 -6 -12 -9 -33 -6 -46 4 -13 0 -39 -8 -57
-7 -19 -17 -53 -21 -75 -4 -23 -10 -43 -13 -45 -4 -2 -90 1 -192 8 -125 7
-212 8 -268 1 -59 -6 -106 -6 -158 2 -66 10 -79 10 -111 -6 -69 -32 -100 -109
-72 -179 7 -16 13 -95 14 -188 2 -185 10 -247 36 -271 14 -13 19 -31 19 -69 0
-28 5 -56 11 -62 6 -6 17 -55 25 -109 23 -152 80 -237 148 -220 20 5 26 13 27
34 1 20 2 22 6 7 6 -27 31 -45 63 -45 48 0 67 45 34 81 -10 11 -18 45 -21 96
-5 73 -4 82 24 133 43 79 74 130 80 130 3 0 26 -21 52 -47 79 -79 142 -123
178 -123 18 0 33 4 33 9 0 5 17 15 37 22 33 11 38 10 54 -10 9 -11 20 -39 24
-61 4 -22 18 -57 32 -77 14 -21 32 -53 40 -70 11 -28 19 -33 46 -33 18 0 38 5
43 10 8 8 25 7 57 -1 37 -10 48 -10 61 0 25 21 19 48 -18 76 -58 44 -71 71
-56 119 8 23 12 71 11 108 -2 61 0 70 23 93 16 16 36 25 55 25 21 0 35 7 46
23 8 13 26 29 39 35 48 21 96 73 107 115 6 23 17 49 25 58 10 11 16 48 19 110
3 52 7 117 11 146 5 44 3 56 -20 89 -14 21 -26 45 -26 53 0 8 -4 30 -10 48 -5
18 -14 48 -20 66 -7 22 -5 59 5 122 12 69 12 96 4 118 -17 42 10 67 72 67 40
0 51 4 73 31 14 17 26 38 26 48 0 25 -49 66 -95 79 -22 6 -49 17 -59 25 -17
13 -17 15 8 65 14 28 26 58 26 66 0 24 -31 34 -69 24z"/>
</g>
</svg>
