<?xml version="1.0" standalone="no"?>
<!DOCTYPE svg PUBLIC "-//W3C//DTD SVG 20010904//EN"
 "http://www.w3.org/TR/2001/REC-SVG-20010904/DTD/svg10.dtd">
<svg version="1.0" xmlns="http://www.w3.org/2000/svg"
 width="304.000000pt" height="144.000000pt" viewBox="0 0 304.000000 144.000000"
 preserveAspectRatio="xMidYMid meet">
<metadata>
Created by potrace 1.16, written by Peter Selinger 2001-2019
</metadata>
<g transform="translate(0.000000,144.000000) scale(0.100000,-0.100000)"
fill="#000000" stroke="none">
<path d="M2124 1376 c-38 -40 -36 -84 5 -119 46 -40 55 -55 41 -72 -6 -8 -14
-43 -17 -77 -5 -68 -19 -108 -39 -108 -7 0 -24 -14 -39 -31 l-26 -32 -127 8
c-70 4 -138 7 -152 6 -14 -1 -59 -4 -101 -7 -73 -5 -77 -4 -97 20 -26 34 -32
33 -32 -8 0 -18 -6 -39 -14 -45 -13 -11 -31 -155 -28 -229 2 -79 124 -128 212
-86 22 10 40 25 40 32 0 6 7 12 15 12 8 0 25 12 39 26 26 29 46 25 46 -10 0
-12 11 -33 25 -46 22 -20 25 -32 25 -88 0 -54 -4 -69 -25 -94 -14 -16 -25 -39
-25 -50 0 -12 -11 -36 -25 -54 -14 -18 -25 -42 -25 -53 0 -11 -9 -25 -20 -31
-11 -6 -22 -21 -26 -34 -5 -23 -8 -23 -87 -20 -204 9 -199 7 -174 94 11 37 12
61 5 93 -17 76 -38 67 -52 -23 -8 -48 -21 -70 -43 -70 -12 0 -13 12 -8 65 l7
65 -26 0 c-14 0 -26 5 -26 12 0 6 -8 4 -19 -6 -19 -17 -19 -18 -1 -49 16 -27
17 -36 7 -57 -7 -14 -23 -26 -35 -28 -19 -3 -22 1 -22 32 0 25 -5 36 -14 36
-8 0 -17 8 -19 18 -4 13 -5 11 -6 -5 -1 -25 -29 -31 -49 -11 -9 9 -12 8 -12
-5 0 -10 -7 -28 -15 -41 -15 -22 -14 -22 13 -18 34 5 51 -13 59 -62 l6 -36
-155 0 -155 0 -2 267 c-1 224 -4 270 -16 279 -8 6 -15 18 -15 27 0 9 -6 19
-12 24 -7 4 -92 8 -188 9 -96 1 -181 3 -187 3 -23 2 -14 31 12 41 14 5 25 16
25 24 0 7 11 21 25 30 14 9 25 23 25 31 0 11 11 15 40 15 22 0 40 5 40 10 0 6
-17 10 -38 10 -40 0 -92 -19 -92 -34 0 -5 -15 -24 -34 -42 -29 -28 -40 -33
-66 -28 -17 4 -33 11 -36 15 -8 13 -88 11 -101 -2 -9 -9 -21 -8 -46 5 -19 9
-42 16 -51 16 -9 0 -16 8 -16 19 0 21 -91 71 -128 71 -28 0 -28 -16 -1 -23 11
-3 23 -15 26 -26 3 -12 13 -21 22 -21 28 0 80 -53 89 -90 6 -28 14 -36 36 -38
35 -4 46 -33 56 -142 5 -58 14 -96 29 -121 12 -20 23 -54 25 -76 2 -21 10 -50
19 -64 13 -20 23 -121 18 -176 -1 -7 -33 -12 -93 -15 -61 -2 -93 -7 -96 -15
-5 -18 -31 -16 -39 3 -7 19 -53 11 -66 -12 -4 -8 -16 -14 -26 -14 -26 0 -58
-49 -40 -60 10 -7 10 -12 -1 -25 -12 -15 -12 -18 3 -26 9 -6 17 -17 17 -24 0
-13 193 -15 1474 -15 l1475 0 15 22 c22 31 20 80 -4 110 -33 43 -77 57 -180
57 -70 0 -97 4 -109 15 -13 14 -13 17 1 33 26 30 29 65 9 108 -11 22 -22 60
-25 85 -3 25 -10 73 -17 106 -8 42 -9 76 -3 105 8 38 13 44 37 47 l27 3 0 -75
c0 -69 2 -76 20 -76 19 0 25 -13 22 -50 0 -8 4 -34 10 -58 14 -58 36 -55 44 8
6 45 9 50 32 50 l26 0 -27 28 c-15 15 -27 38 -27 49 0 12 -4 25 -10 28 -5 3
-10 15 -10 26 0 10 -4 19 -8 19 -5 0 -14 22 -21 49 -7 28 -19 56 -28 63 -8 6
-19 22 -23 33 -5 12 -42 52 -84 89 l-75 67 -73 4 c-70 4 -74 6 -114 45 -27 26
-45 37 -49 30 -4 -6 -12 -9 -18 -7 -8 2 -11 24 -9 63 2 40 -2 69 -12 89 -9 17
-16 38 -16 48 0 11 -9 21 -19 24 -19 5 -35 39 -25 55 3 4 12 8 20 8 21 0 17
31 -6 37 -12 3 -20 14 -20 27 0 16 -10 24 -40 34 -51 16 -50 16 -86 -22z
m-335 -636 c14 0 21 -6 21 -18 0 -22 -56 -77 -89 -87 -14 -4 -38 -16 -55 -26
-38 -23 -64 -24 -88 -2 -23 21 -23 36 2 58 11 10 20 24 20 31 0 17 39 44 65
44 11 0 26 9 33 20 l13 21 28 -21 c16 -11 39 -20 50 -20z m624 -127 c10 -12
16 -43 18 -93 3 -62 -1 -83 -21 -125 -13 -27 -29 -53 -36 -58 -7 -4 -16 -22
-19 -40 -4 -17 -17 -49 -28 -69 -20 -38 -21 -38 -83 -38 -72 0 -98 18 -70 48
21 24 20 51 -1 82 -10 15 -22 63 -29 120 -13 106 -7 120 47 120 15 0 30 4 33
9 3 4 28 11 55 15 27 4 60 15 73 26 29 24 41 25 61 3z m167 -47 c0 -14 5 -28
10 -31 6 -3 10 -14 10 -24 0 -10 14 -35 30 -56 17 -21 30 -43 30 -50 0 -7 7
-26 15 -41 20 -39 19 -71 -5 -101 -11 -14 -20 -34 -20 -44 0 -11 -3 -19 -7
-20 -5 0 -53 -2 -108 -5 -55 -3 -109 -6 -120 -7 -58 -6 -5 113 109 245 11 12
13 31 9 72 -7 66 0 86 27 86 15 0 20 -7 20 -24z m-530 -50 c0 -13 6 -26 14
-29 8 -3 19 -35 27 -78 8 -45 21 -82 35 -99 23 -27 21 -42 -8 -53 -12 -4 -18
-17 -18 -36 0 -28 -2 -30 -52 -35 -29 -3 -89 -2 -133 2 -91 8 -105 24 -62 70
13 15 30 45 37 67 7 22 23 50 36 63 13 13 24 29 24 35 0 7 11 28 25 47 14 19
25 42 25 52 0 13 8 18 25 18 20 0 25 -5 25 -24z m-1315 -73 c4 -10 9 -67 12
-127 5 -86 3 -110 -8 -117 -8 -5 -54 -7 -104 -4 -90 4 -90 4 -93 32 -2 15 -1
70 3 121 l7 92 36 1 c21 0 46 4 57 9 36 15 82 11 90 -7z m121 -20 c4 -16 11
-33 15 -39 15 -19 32 -165 20 -177 -6 -6 -29 -11 -52 -11 l-42 -1 0 50 c0 82
15 189 27 197 19 13 25 9 32 -19z m-368 -93 c-1 -93 -4 -112 -19 -126 -26 -24
-30 -7 -25 101 2 50 5 100 5 113 1 15 7 22 21 22 18 0 19 -7 18 -110z"/>
</g>
</svg>
