<?xml version="1.0" standalone="no"?>
<!DOCTYPE svg PUBLIC "-//W3C//DTD SVG 20010904//EN"
 "http://www.w3.org/TR/2001/REC-SVG-20010904/DTD/svg10.dtd">
<svg version="1.0" xmlns="http://www.w3.org/2000/svg"
 width="223.000000pt" height="216.000000pt" viewBox="0 0 223.000000 216.000000"
 preserveAspectRatio="xMidYMid meet">
<metadata>
Created by potrace 1.16, written by Peter Selinger 2001-2019
</metadata>
<g transform="translate(0.000000,216.000000) scale(0.100000,-0.100000)"
fill="#000000" stroke="none">
<path d="M1929 1927 c-66 -19 -101 -48 -153 -127 -72 -109 -109 -125 -254
-109 -83 9 -104 8 -182 -10 -107 -26 -211 -27 -249 -5 -15 9 -43 39 -61 68
-89 134 -139 157 -255 118 -75 -26 -67 -46 21 -52 82 -6 94 -13 142 -90 61
-97 112 -140 166 -140 34 0 40 -13 18 -41 -17 -21 -30 -23 -168 -30 -93 -4
-190 -3 -259 4 -170 17 -313 14 -355 -7 -30 -15 -88 -81 -140 -161 -14 -20
-15 -82 -13 -462 3 -588 10 -690 51 -712 9 -5 26 -5 37 -1 18 6 20 17 20 116
1 148 13 256 37 334 27 91 40 115 66 118 25 4 26 -1 23 -93 -2 -48 5 -78 34
-155 22 -57 40 -126 45 -173 14 -120 34 -148 97 -132 24 6 25 8 18 61 -3 30
-16 75 -27 100 -31 70 -36 214 -10 279 11 28 23 70 27 94 8 48 -2 46 115 22
29 -6 83 -6 150 1 100 9 105 9 121 -11 17 -21 39 -122 39 -182 0 -19 7 -56 15
-83 9 -31 15 -90 15 -158 0 -122 4 -128 68 -112 l36 9 0 185 c-1 102 -4 219
-8 260 -4 43 -3 81 2 89 13 18 43 6 67 -27 21 -28 26 -74 41 -364 7 -140 13
-152 66 -150 51 1 60 18 46 85 -9 44 -9 72 0 127 7 39 12 100 12 136 0 50 7
81 30 136 17 38 30 81 30 94 0 12 11 58 24 101 13 43 27 94 31 113 4 19 17 45
28 58 18 19 21 36 23 135 1 79 7 127 20 162 10 28 20 73 23 100 6 49 7 50 47
60 62 15 76 31 69 75 -6 35 -4 39 29 58 21 12 53 48 76 84 21 35 46 72 54 84
15 22 74 53 149 80 41 14 47 19 35 29 -20 21 -78 26 -129 12z"/>
</g>
</svg>
