<?xml version="1.0" standalone="no"?>
<!DOCTYPE svg PUBLIC "-//W3C//DTD SVG 20010904//EN"
 "http://www.w3.org/TR/2001/REC-SVG-20010904/DTD/svg10.dtd">
<svg version="1.0" xmlns="http://www.w3.org/2000/svg"
 width="320.000000pt" height="243.000000pt" viewBox="0 0 320.000000 243.000000"
 preserveAspectRatio="xMidYMid meet">
<metadata>
Created by potrace 1.16, written by Peter Selinger 2001-2019
</metadata>
<g transform="translate(0.000000,243.000000) scale(0.100000,-0.100000)"
fill="#000000" stroke="none">
<path d="M3131 2258 c-12 -13 -41 -54 -64 -93 -24 -38 -63 -85 -86 -102 -49
-38 -136 -66 -201 -66 -110 2 -219 12 -240 23 -15 8 -40 10 -74 5 -28 -4 -82
-8 -121 -9 -38 -1 -88 -8 -109 -15 -53 -18 -181 -8 -244 19 -60 26 -108 74
-160 159 -63 105 -98 107 -88 5 8 -95 95 -232 164 -261 42 -18 38 -24 -8 -14
-24 5 -68 1 -134 -12 -89 -17 -107 -18 -168 -7 -65 13 -74 12 -151 -11 -77
-23 -96 -24 -332 -24 -227 0 -258 3 -340 23 -82 21 -101 22 -213 14 -135 -10
-160 -20 -197 -83 -16 -27 -20 -56 -23 -164 -3 -122 -6 -136 -39 -220 -30 -73
-37 -107 -41 -180 -4 -86 -2 -94 32 -178 38 -91 55 -183 56 -299 0 -38 4 -68
9 -68 13 0 41 41 41 59 0 8 9 24 20 36 16 17 22 41 27 102 6 81 6 81 -41 181
-40 86 -48 112 -53 185 -5 73 -3 94 17 151 13 36 29 66 36 66 6 0 14 -18 18
-41 4 -22 22 -79 42 -127 55 -138 66 -338 24 -438 -33 -76 -36 -132 -11 -189
35 -80 51 -157 57 -287 4 -67 11 -131 16 -140 6 -14 21 -18 57 -18 67 0 80 16
58 78 -14 41 -25 268 -19 370 5 70 61 -21 171 -278 70 -163 71 -165 125 -168
35 -2 53 2 67 14 26 23 24 38 -11 78 -76 86 -100 195 -100 459 0 197 6 237 35
237 17 0 112 -54 140 -80 35 -32 67 -39 110 -25 26 10 105 14 254 16 231 2
259 -2 263 -44 1 -12 3 -161 3 -332 l0 -309 28 -10 c23 -8 31 -6 50 12 21 21
22 32 22 160 1 123 3 142 24 187 32 66 51 140 51 196 0 64 29 88 64 53 12 -11
16 -36 16 -93 0 -56 7 -97 24 -149 14 -39 32 -131 42 -204 9 -73 21 -139 27
-145 13 -18 63 -16 82 3 14 14 15 49 10 309 l-5 293 39 34 c21 18 51 51 65 73
15 22 48 56 74 75 36 27 57 56 92 124 l45 88 46 -6 c67 -9 96 5 108 51 18 73
31 160 31 214 0 30 7 83 15 118 9 35 13 66 10 69 -11 12 20 32 50 32 45 0 85
34 85 72 0 28 -2 29 -37 26 -29 -2 -38 1 -38 12 0 11 17 17 60 22 172 22 270
78 325 187 30 60 64 201 51 214 -4 4 -18 -2 -30 -15z"/>
</g>
</svg>
