<?xml version="1.0" standalone="no"?>
<!DOCTYPE svg PUBLIC "-//W3C//DTD SVG 20010904//EN"
 "http://www.w3.org/TR/2001/REC-SVG-20010904/DTD/svg10.dtd">
<svg version="1.0" xmlns="http://www.w3.org/2000/svg"
 width="400.000000pt" height="300.000000pt" viewBox="0 0 400.000000 300.000000"
 preserveAspectRatio="xMidYMid meet">
<metadata>
Created by potrace 1.16, written by Peter Selinger 2001-2019
</metadata>
<g transform="translate(0.000000,300.000000) scale(0.100000,-0.100000)"
fill="#000000" stroke="none">
<path d="M1803 2480 c-50 -30 -67 -63 -54 -101 9 -28 8 -35 -14 -61 -27 -31
-28 -37 -19 -62 8 -21 26 -20 57 4 l25 20 41 -27 c23 -15 43 -36 46 -47 10
-51 15 -186 6 -186 -11 0 -21 35 -21 73 0 25 -3 28 -27 25 -33 -4 -43 -37 -18
-58 21 -18 19 -47 -6 -60 -17 -10 -19 -17 -13 -56 7 -46 -3 -57 -26 -29 -18
22 -15 62 5 85 24 26 15 79 -22 125 -23 29 -35 35 -65 35 -52 0 -93 -37 -103
-92 -8 -46 -25 -273 -23 -323 3 -149 1 -139 33 -154 51 -24 60 -59 24 -97 -29
-31 -35 -91 -14 -154 19 -59 17 -132 -8 -270 -9 -47 -20 -148 -26 -225 -6 -77
-15 -156 -21 -175 -13 -44 -5 -68 25 -76 13 -3 29 -12 36 -20 12 -15 139 -21
139 -6 0 14 -23 32 -41 32 -26 0 -31 29 -18 110 6 40 8 101 4 135 -5 53 -3 69
19 116 61 133 101 346 101 541 0 75 3 140 8 144 4 4 22 -7 40 -24 20 -20 43
-32 59 -32 22 0 29 -7 39 -37 13 -39 7 -174 -13 -266 -17 -87 -31 -222 -29
-287 1 -23 1 -38 1 -100 -1 -96 3 -152 13 -167 10 -15 33 -7 42 15 15 38 35
125 35 154 0 22 3 29 10 22 6 -6 10 -56 10 -115 -1 -57 -1 -127 0 -156 0 -28
-4 -54 -10 -58 -5 -3 -10 -13 -10 -21 0 -10 12 -14 44 -14 l43 0 -3 97 c-4 99
5 167 34 258 l16 49 8 -29 c5 -17 13 -45 19 -64 7 -20 8 -56 4 -90 -4 -31 -9
-81 -11 -111 -2 -30 -5 -66 -6 -80 -3 -23 0 -25 37 -25 l40 0 1 140 c1 124 11
237 30 358 7 39 20 49 27 20 8 -34 -2 -335 -16 -493 -2 -24 1 -25 52 -28 48
-3 53 -1 46 15 -11 28 -6 240 7 271 6 15 10 65 10 112 -1 114 31 231 66 245
24 9 37 -10 57 -89 14 -59 16 -87 9 -124 -6 -33 -5 -62 4 -99 10 -40 11 -80 3
-170 -5 -65 -11 -127 -13 -138 -3 -18 3 -20 47 -20 l50 0 2 155 c2 195 16 363
37 460 24 108 34 130 62 130 12 0 25 3 27 8 9 13 -19 307 -30 327 -6 11 -21
63 -33 115 -44 188 -70 261 -104 289 -9 7 -18 29 -22 50 -12 65 -47 84 -58 30
-3 -18 -11 -29 -18 -27 -13 5 -21 38 -34 144 -7 57 -21 70 -116 104 -29 10
-73 26 -98 35 -44 16 -78 16 -201 0 -33 -5 -48 -3 -57 8 -10 12 -7 19 19 41
38 33 33 42 -15 25 -34 -12 -37 -11 -64 14 -34 32 -74 35 -119 7z m306 -529
c26 -16 -14 -118 -65 -168 -24 -23 -46 -55 -50 -70 -9 -38 -22 -53 -46 -53
-16 0 -19 5 -14 24 3 13 2 45 -3 70 -9 51 -16 42 79 111 22 16 43 41 47 55 10
43 22 50 52 31z m-212 -223 c-3 -7 -5 -2 -5 12 0 14 2 19 5 13 2 -7 2 -19 0
-25z"/>
</g>
</svg>
