<?xml version="1.0" standalone="no"?>
<!DOCTYPE svg PUBLIC "-//W3C//DTD SVG 20010904//EN"
 "http://www.w3.org/TR/2001/REC-SVG-20010904/DTD/svg10.dtd">
<svg version="1.0" xmlns="http://www.w3.org/2000/svg"
 width="460.000000pt" height="158.000000pt" viewBox="0 0 460.000000 158.000000"
 preserveAspectRatio="xMidYMid meet">
<metadata>
Created by potrace 1.16, written by Peter Selinger 2001-2019
</metadata>
<g transform="translate(0.000000,158.000000) scale(0.100000,-0.100000)"
fill="#000000" stroke="none">
<path d="M593 1530 c-4 -14 -14 -20 -33 -20 -15 0 -33 -7 -40 -15 -11 -14 -17
-13 -48 5 -26 16 -42 19 -66 13 -17 -4 -40 -7 -51 -8 -16 0 -20 -6 -18 -27 2
-29 -6 -35 -22 -19 -6 5 -21 11 -34 13 -33 4 -69 -56 -51 -85 8 -14 8 -22 -1
-33 -16 -20 -36 -17 -42 6 -7 27 -27 25 -60 -5 -21 -20 -27 -35 -27 -65 0 -29
4 -40 15 -40 8 0 15 -4 15 -9 0 -5 -7 -11 -15 -15 -9 -3 -15 -18 -15 -35 0
-19 -8 -35 -22 -45 -21 -15 -21 -16 -3 -36 16 -18 16 -20 1 -26 -18 -7 -22
-39 -6 -49 17 -11 11 -25 -16 -35 -24 -9 -26 -14 -21 -47 4 -21 17 -47 32 -60
14 -13 25 -30 25 -38 0 -8 10 -35 22 -60 18 -38 20 -49 10 -65 -7 -11 -12 -31
-12 -45 0 -19 5 -25 23 -25 27 0 47 -17 47 -40 0 -26 29 -78 52 -95 20 -13 23
-12 38 13 32 51 52 63 90 52 18 -5 37 -14 40 -20 4 -6 30 -11 58 -12 48 0 53
-2 73 -35 18 -28 20 -43 15 -86 -4 -29 -10 -104 -15 -167 -4 -64 -14 -124 -21
-136 -7 -12 -10 -29 -7 -38 5 -13 24 -16 119 -16 62 0 118 4 125 8 8 5 7 17
-3 47 -8 23 -16 91 -19 160 -2 66 -8 135 -14 153 -17 56 2 87 75 123 35 18 67
29 70 26 3 -3 -2 -19 -10 -36 -25 -46 -21 -54 22 -47 20 3 46 6 56 7 21 0 56
35 100 98 16 23 37 46 47 51 11 6 19 28 24 67 4 32 16 68 27 82 18 24 18 26 2
38 -10 7 -23 13 -30 13 -6 0 -17 7 -24 15 -7 8 -23 15 -36 15 -24 0 -32 18
-14 36 5 5 6 15 0 23 -6 11 -12 12 -22 3 -11 -9 -17 -9 -26 0 -17 17 -15 26 8
33 11 3 20 15 20 26 0 10 7 19 15 19 8 0 15 -4 15 -9 0 -14 48 -61 64 -61 8 0
22 19 31 43 14 38 15 50 3 98 -13 50 -17 54 -48 59 -27 4 -35 11 -42 35 -6 25
-3 34 17 53 32 29 31 35 -7 83 -21 26 -39 39 -55 39 -18 0 -28 9 -38 34 -12
28 -21 35 -54 41 -23 4 -48 2 -60 -4 -32 -18 -48 -13 -61 19 -8 20 -20 30 -34
30 -11 0 -39 11 -61 25 -50 30 -85 32 -92 5z m204 -202 c11 -9 11 -13 1 -19
-23 -15 -42 -9 -62 18 l-19 26 33 -6 c18 -4 39 -12 47 -19z m-457 -189 c0 -20
-15 -26 -25 -9 -9 15 3 43 15 35 5 -3 10 -15 10 -26z m347 -160 c-18 -30 -29
-99 -16 -99 6 0 18 13 27 30 30 52 42 38 42 -47 0 -43 -4 -83 -8 -89 -15 -22
-101 -76 -111 -70 -23 14 -24 76 -2 132 11 31 21 71 21 91 0 52 33 104 53 84
5 -5 2 -19 -6 -32z m157 7 c3 -14 3 -32 0 -41 -4 -9 -1 -28 7 -41 15 -28 4
-57 -24 -62 -22 -4 -30 31 -18 75 6 21 11 50 11 66 0 33 16 36 24 3z m-301
-61 c16 -12 18 -22 12 -80 -9 -79 -28 -84 -62 -17 -17 35 -20 49 -12 70 9 24
26 42 39 42 3 -1 13 -7 23 -15z m-127 -105 c34 -56 41 -80 25 -80 -13 0 -87
91 -96 118 -6 21 -4 23 16 20 15 -2 34 -21 55 -58z m528 -58 c7 -11 -4 -25
-41 -50 -37 -26 -53 -28 -53 -7 0 35 78 82 94 57z m-383 -84 c24 -30 24 -47
-1 -41 -27 7 -42 27 -34 47 8 21 12 20 35 -6z m243 -13 c4 -11 -7 -22 -39 -37
-57 -28 -71 -15 -25 23 38 33 55 36 64 14z m126 -25 c0 -5 -7 -10 -16 -10 -8
0 -12 5 -9 10 3 6 10 10 16 10 5 0 9 -4 9 -10z"/>
<path d="M3915 1525 c-22 -14 -50 -25 -62 -25 -14 0 -24 -9 -32 -30 -11 -32
-29 -37 -62 -19 -12 6 -37 8 -59 4 -33 -6 -41 -12 -50 -41 -7 -20 -19 -34 -28
-35 -9 -1 -22 -2 -29 -3 -12 -1 -73 -73 -73 -87 0 -4 11 -16 25 -27 43 -34 26
-88 -30 -94 -26 -3 -31 -8 -38 -43 -13 -67 -13 -120 1 -143 15 -22 69 -3 82
29 13 30 40 40 40 14 0 -8 9 -20 20 -27 30 -19 25 -40 -7 -36 -25 3 -28 0 -28
-27 0 -23 -5 -31 -22 -33 -12 -2 -27 -10 -33 -18 -7 -8 -18 -14 -25 -14 -7 0
-18 -7 -26 -16 -10 -13 -10 -20 4 -44 10 -16 20 -50 24 -76 5 -36 15 -57 42
-85 65 -68 86 -94 94 -112 5 -14 13 -18 31 -13 14 3 28 2 31 -4 3 -5 18 -10
32 -10 27 0 27 5 8 68 -7 21 -5 22 21 16 36 -9 100 -41 112 -57 18 -23 21 -63
8 -122 -7 -35 -9 -74 -5 -95 5 -19 4 -51 -1 -70 -6 -19 -10 -48 -10 -65 0 -16
-9 -41 -20 -55 -11 -14 -20 -28 -20 -31 -1 -29 209 -42 245 -15 18 13 19 18 7
60 -6 26 -12 79 -12 119 0 41 -5 99 -11 130 -22 110 8 167 88 167 27 0 53 6
63 15 9 8 28 16 42 17 27 2 87 -38 87 -59 1 -19 26 -16 42 5 25 30 40 63 34
72 -8 13 32 50 54 50 28 0 34 31 15 69 -16 31 -15 35 4 70 11 20 23 47 27 60
4 14 16 32 27 41 25 20 38 100 16 100 -9 0 -21 7 -28 15 -10 12 -9 16 4 21 21
8 20 21 -4 41 -18 16 -19 18 -2 36 16 18 16 20 -5 34 -16 11 -23 25 -23 49 0
24 -5 34 -15 34 -8 0 -15 4 -15 9 0 5 7 11 15 15 10 3 15 19 15 45 0 33 -5 43
-31 62 l-32 22 -18 -21 c-20 -26 -32 -27 -49 -7 -9 11 -10 18 -1 29 8 10 7 22
-4 50 -13 30 -20 36 -45 36 -16 0 -32 -4 -35 -10 -13 -21 -24 -8 -18 21 6 30
5 32 -20 25 -14 -3 -37 -1 -51 6 -21 9 -32 8 -61 -8 -29 -15 -39 -17 -55 -6
-11 6 -28 12 -37 12 -10 0 -24 9 -31 20 -16 27 -48 25 -97 -5z m-50 -200 c-33
-27 -50 -31 -61 -13 -10 16 24 38 60 38 l31 0 -30 -25z m422 -189 c-4 -9 -11
-16 -17 -16 -11 0 -14 33 -3 44 11 10 26 -11 20 -28z m-502 -146 c-5 -8 -11
-8 -17 -2 -6 6 -7 16 -3 22 5 8 11 8 17 2 6 -6 7 -16 3 -22z m165 -6 c24 -61
-5 -69 -33 -9 -16 34 -16 35 3 35 13 0 24 -10 30 -26z m-56 -62 c4 -10 26 -32
50 -49 35 -25 45 -39 50 -70 7 -41 -4 -95 -20 -100 -6 -2 -31 12 -56 31 -49
38 -58 60 -58 152 0 40 4 54 14 54 8 0 17 -8 20 -18z m202 10 c6 -4 17 -18 23
-31 11 -20 9 -30 -10 -72 -34 -70 -54 -66 -63 13 -5 49 -3 65 11 80 18 20 23
21 39 10z m-298 -43 c1 -8 -4 -23 -13 -34 -15 -20 -15 -20 -30 -1 -20 26 -19
44 3 49 25 7 37 2 40 -14z m456 -31 c-7 -24 -84 -118 -96 -118 -18 0 -7 30 39
103 27 43 70 54 57 15z m-533 -109 c30 -21 37 -43 19 -54 -13 -8 -92 54 -84
66 9 15 34 10 65 -12z m357 -75 c2 -14 -6 -24 -24 -33 -33 -15 -43 -7 -21 17
10 10 17 24 17 31 0 20 25 6 28 -15z m-218 -23 c46 -38 32 -51 -25 -23 -32 15
-43 26 -39 37 9 22 26 19 64 -14z m-160 -17 c0 -16 -16 -19 -25 -4 -8 13 4 32
16 25 5 -4 9 -13 9 -21z"/>
<path d="M2740 1154 c-21 -18 -29 -32 -25 -45 3 -10 2 -27 -4 -37 -13 -24 -4
-34 19 -22 26 14 57 -13 58 -50 0 -16 4 -39 7 -50 3 -11 2 -20 -3 -20 -5 0
-13 10 -17 23 -6 20 -8 19 -16 -13 -4 -19 -6 -41 -4 -47 6 -19 -14 -16 -21 2
-4 8 -1 22 6 30 14 17 6 46 -20 70 -16 15 -22 15 -46 3 -35 -17 -44 -48 -46
-171 -1 -80 2 -101 16 -116 13 -14 16 -26 10 -43 -5 -13 -9 -68 -9 -123 0 -55
-6 -138 -13 -185 -6 -47 -14 -102 -17 -122 -4 -31 -1 -41 22 -63 19 -17 28
-35 28 -57 0 -40 22 -47 56 -19 19 16 22 22 12 32 -7 7 -13 21 -13 30 0 9 -6
19 -14 22 -22 9 -11 146 19 258 16 59 28 129 30 188 2 51 7 96 10 99 3 3 18
-1 33 -10 26 -16 27 -19 24 -100 -8 -298 -7 -363 8 -363 9 0 17 14 21 38 3 20
8 40 11 42 11 11 18 -77 8 -90 -5 -7 -7 -26 -4 -43 4 -22 1 -40 -11 -58 -16
-24 -16 -28 -1 -43 14 -13 42 -16 177 -16 176 0 186 3 167 57 -13 38 -5 364
10 401 6 15 18 27 26 27 19 0 10 118 -15 188 -10 29 -19 60 -19 69 0 9 -17 52
-37 95 -28 59 -42 78 -55 74 -12 -3 -19 7 -27 38 -9 38 -15 44 -66 65 -55 23
-105 29 -143 17 -12 -4 -24 -2 -28 6 -4 6 -2 14 4 16 22 7 12 22 -11 17 -15
-4 -28 -1 -36 9 -18 21 -24 20 -61 -10z m157 -295 c-8 -19 -22 -41 -31 -49
-10 -8 -22 -24 -27 -37 -11 -30 -33 -29 -47 2 -6 14 -8 25 -3 25 5 0 12 -6 14
-12 3 -7 6 -1 6 14 1 19 10 32 30 44 16 10 34 28 41 42 18 40 35 12 17 -29z
m218 -370 c7 -10 11 -51 20 -222 7 -106 -20 -160 -67 -135 -14 7 -18 22 -18
71 1 93 18 255 30 277 12 22 25 26 35 9z m-101 -184 c-1 -64 -4 -119 -7 -122
-3 -3 -10 -2 -16 2 -12 7 -6 228 5 247 14 22 19 -16 18 -127z m-67 -16 c11
-120 2 -172 -27 -154 -9 6 -11 35 -8 105 7 137 24 162 35 49z"/>
<path d="M2306 972 c-4 -7 -12 -10 -17 -6 -5 3 -16 1 -23 -5 -22 -18 -116 -69
-226 -122 -96 -46 -106 -48 -117 -33 -7 10 -10 28 -7 41 10 38 -30 30 -54 -11
-15 -26 -30 -37 -56 -41 -31 -6 -39 -4 -62 24 -30 36 -40 38 -47 12 -4 -15
-16 -19 -73 -23 -111 -6 -220 -71 -245 -145 -6 -19 -12 -70 -14 -112 -1 -42
-5 -114 -9 -161 -6 -68 -4 -89 8 -104 15 -18 16 -18 35 5 13 15 20 39 21 63 0
21 4 55 10 75 5 20 12 54 15 76 l7 39 19 -24 c24 -32 24 -44 -2 -98 -18 -36
-21 -55 -16 -105 3 -34 2 -93 -3 -132 -10 -78 -4 -89 44 -80 16 3 32 7 34 10
2 2 -3 23 -12 46 -16 39 -14 99 2 99 10 0 43 -110 36 -121 -5 -9 53 -39 76
-39 19 0 10 46 -15 80 -76 102 -71 233 13 339 l19 24 66 -32 c37 -17 76 -30
88 -28 21 2 32 -10 43 -45 3 -11 15 -18 31 -18 20 0 25 5 25 24 0 14 5 28 10
31 19 12 23 -27 11 -123 -16 -120 -20 -251 -9 -258 16 -10 210 9 214 21 3 7
-10 36 -28 65 -31 51 -33 58 -31 140 1 69 9 107 37 191 20 57 36 118 36 134 0
25 36 82 86 134 8 8 113 -31 118 -44 9 -25 -1 -309 -12 -338 -7 -15 -16 -55
-21 -88 -8 -49 -7 -69 6 -103 8 -22 16 -55 17 -73 1 -41 12 -50 35 -29 19 17
19 18 -5 53 -34 51 -38 91 -20 200 9 53 19 157 23 232 5 114 9 139 24 154 27
26 24 41 -22 103 -24 33 -43 72 -47 97 -5 26 -11 37 -16 29z m-291 -662 c4
-58 11 -110 17 -117 14 -18 5 -57 -14 -61 -22 -4 -58 65 -58 110 0 18 7 55 15
82 8 27 15 65 15 85 1 73 18 5 25 -99z"/>
<path d="M4440 112 c0 -9 90 -35 97 -29 2 3 -3 12 -12 21 -17 16 -85 23 -85 8z"/>
</g>
</svg>
