<?xml version="1.0" standalone="no"?>
<!DOCTYPE svg PUBLIC "-//W3C//DTD SVG 20010904//EN"
 "http://www.w3.org/TR/2001/REC-SVG-20010904/DTD/svg10.dtd">
<svg version="1.0" xmlns="http://www.w3.org/2000/svg"
 width="374.000000pt" height="159.000000pt" viewBox="0 0 374.000000 159.000000"
 preserveAspectRatio="xMidYMid meet">
<metadata>
Created by potrace 1.16, written by Peter Selinger 2001-2019
</metadata>
<g transform="translate(0.000000,159.000000) scale(0.100000,-0.100000)"
fill="#000000" stroke="none">
<path d="M1715 1533 c-36 -19 -48 -36 -57 -83 -4 -19 -10 -47 -14 -62 -5 -24
-3 -28 14 -28 11 0 25 7 32 15 7 9 16 12 19 7 3 -5 15 -14 26 -20 26 -14 28
-69 3 -76 -14 -3 -18 -14 -18 -45 0 -24 -5 -41 -11 -41 -7 0 -9 -10 -7 -25 3
-14 1 -25 -4 -25 -17 0 -19 28 -5 57 17 35 12 60 -19 88 -28 26 -57 24 -90 -7
-26 -23 -43 -124 -44 -264 0 -87 1 -92 25 -108 29 -19 32 -44 9 -88 -14 -26
-14 -39 -4 -87 9 -42 9 -77 0 -141 -6 -47 -17 -142 -25 -213 -8 -70 -17 -131
-20 -136 -9 -16 7 -41 36 -57 23 -11 29 -21 29 -47 0 -18 5 -38 12 -45 14 -14
84 -16 93 -3 11 18 -17 103 -36 108 -10 3 -20 10 -22 16 -8 23 12 225 27 270
8 25 27 103 41 174 20 100 24 143 19 199 -7 78 2 96 31 64 10 -11 26 -20 36
-20 26 0 37 -128 16 -201 -11 -38 -15 -104 -15 -227 -1 -149 1 -174 15 -179
21 -8 43 23 43 60 0 16 4 26 10 22 10 -6 5 -192 -6 -227 -4 -15 1 -18 34 -18
l40 0 -5 80 c-7 97 14 243 30 214 6 -11 10 -75 9 -150 l-2 -131 62 -8 c109
-13 117 -10 99 32 -11 29 -10 82 8 302 8 91 15 129 27 142 34 37 41 20 56
-126 13 -140 14 -168 5 -268 l-7 -88 44 -20 c24 -10 51 -16 60 -13 20 8 20 8
-1 47 -13 26 -16 64 -16 219 1 104 6 210 12 240 7 29 14 63 17 76 2 13 16 27
30 33 21 7 25 14 19 32 -4 12 -11 59 -16 104 -4 46 -12 91 -18 101 -5 10 -22
65 -37 123 -15 57 -37 120 -49 139 -11 19 -26 47 -33 63 -13 30 -29 35 -38 12
-4 -8 -13 -15 -21 -15 -10 0 -13 6 -9 17 4 9 0 40 -9 68 -12 44 -20 54 -47 65
-18 6 -49 18 -68 27 -49 21 -136 29 -155 13 -8 -7 -22 -9 -31 -6 -15 6 -15 9
5 30 26 28 14 41 -22 25 -21 -10 -30 -8 -54 9 -26 19 -30 19 -58 5z m48 -283
c3 -11 1 -23 -4 -26 -5 -3 -9 6 -9 20 0 31 6 34 13 6z m139 -132 c-20 -39 -44
-76 -86 -133 -11 -16 -17 -18 -27 -7 -11 10 -11 12 0 12 10 0 12 10 7 39 -6
38 -4 41 36 68 24 16 44 38 46 48 7 45 12 50 29 32 16 -16 16 -20 -5 -59z
m-137 -83 c9 -22 12 -35 6 -30 -5 6 -17 28 -26 50 -9 22 -12 36 -6 30 5 -5 17
-28 26 -50z m287 -692 c-2 -98 -12 -164 -23 -157 -10 6 -12 176 -3 223 12 57
27 17 26 -66z"/>
<path d="M436 1515 c-3 -8 -12 -15 -19 -15 -9 0 -14 -11 -14 -30 0 -16 4 -30
9 -30 4 0 8 -7 8 -15 0 -8 -6 -15 -14 -15 -8 0 -16 -7 -20 -15 -3 -8 -13 -15
-23 -15 -13 0 -14 -3 -5 -12 20 -20 14 -47 -12 -54 -22 -5 -24 -9 -15 -31 12
-31 5 -40 -16 -23 -12 10 -16 9 -21 -4 -3 -9 -13 -16 -21 -16 -18 0 -13 -20 8
-31 8 -4 26 -10 42 -14 15 -3 27 -12 27 -21 0 -13 -10 -15 -64 -9 -63 7 -63 7
-68 -20 -5 -22 -1 -28 22 -36 15 -6 32 -21 38 -34 7 -15 20 -25 32 -25 12 0
18 -5 15 -10 -4 -7 -37 -8 -88 -4 -68 5 -80 4 -69 -7 17 -18 15 -27 -5 -31
-11 -2 1 -10 30 -20 26 -10 54 -15 61 -12 7 3 19 -2 26 -11 7 -8 11 -15 9 -16
-2 0 -33 -1 -69 -2 -36 -2 -70 -6 -77 -10 -16 -10 7 -57 30 -57 13 0 16 -7 15
-32 -3 -28 1 -32 30 -40 42 -11 36 -33 -9 -34 -102 -4 -96 -2 -97 -33 -1 -27
3 -30 49 -41 56 -14 60 -32 8 -41 -82 -13 -103 -59 -27 -59 32 0 39 -3 36 -17
-2 -10 -15 -20 -31 -23 -17 -3 -33 -16 -42 -32 -16 -31 -7 -41 28 -32 35 8 43
-12 9 -24 -16 -5 -29 -16 -30 -23 -5 -44 -9 -59 -20 -72 -18 -21 8 -39 50 -36
18 2 39 -1 46 -5 8 -4 50 -2 94 5 80 13 81 13 99 -10 14 -17 19 -40 19 -87 0
-34 -4 -66 -10 -69 -12 -7 -14 -72 -2 -79 19 -12 1013 1 1047 14 14 5 25 16
25 23 0 21 -127 27 -551 27 l-368 0 -15 22 c-23 33 -22 124 2 137 22 12 117 0
150 -18 24 -13 82 -6 82 9 0 5 -12 18 -27 29 -14 12 -24 23 -22 24 23 17 58
23 82 14 23 -8 31 -6 42 9 19 25 19 27 -8 56 -18 20 -22 30 -15 49 7 17 5 25
-7 32 -9 5 -14 16 -10 26 5 15 -4 20 -55 30 -67 13 -86 40 -22 32 8 -1 16 7
19 18 4 16 14 21 37 21 21 1 37 8 48 24 17 23 17 24 -10 32 -15 4 -56 8 -92 8
l-65 1 -1 38 c-1 30 2 37 17 37 11 0 19 6 19 13 0 7 10 17 22 22 40 18 32 34
-21 41 -34 4 -57 14 -72 30 l-22 24 35 0 c20 0 41 7 48 15 11 13 9 19 -10 32
l-23 16 21 8 c12 5 22 15 22 24 0 8 5 15 10 15 6 0 10 5 10 10 0 6 -9 10 -20
10 -14 0 -20 7 -20 23 l-1 22 -18 -22 c-23 -27 -126 -38 -126 -13 0 8 14 20
30 25 17 6 45 24 62 42 l32 32 -35 7 c-18 3 -41 4 -49 0 -11 -4 -15 1 -15 19
0 16 6 25 15 25 9 0 15 10 15 26 0 23 3 25 24 20 20 -5 25 -2 28 16 4 29 -32
50 -72 41 -35 -6 -38 5 -13 43 16 25 16 27 -1 36 -13 7 -16 17 -11 35 5 22 3
24 -16 18 -17 -6 -20 -4 -15 12 7 21 -2 37 -26 46 -10 3 -18 13 -18 22 0 19
-16 20 -24 0z"/>
<path d="M3253 1506 c-26 -12 -37 -44 -21 -63 8 -10 5 -13 -15 -13 -20 0 -25
-4 -20 -16 4 -10 -1 -22 -12 -30 -17 -12 -17 -15 -1 -38 25 -39 21 -49 -18
-42 -20 4 -37 2 -41 -4 -3 -5 -15 -10 -26 -10 -19 0 -19 -1 -3 -25 12 -19 22
-24 37 -19 17 5 19 3 13 -19 -4 -19 -1 -26 14 -30 11 -3 20 -14 20 -24 0 -16
-6 -19 -29 -15 -16 2 -36 0 -44 -4 -13 -8 -11 -14 12 -39 14 -16 40 -35 56
-40 17 -6 30 -17 30 -25 0 -20 -116 -14 -128 6 -11 19 -27 18 -27 -1 0 -8 -7
-15 -17 -15 -14 0 -14 -2 2 -20 10 -11 14 -20 9 -21 -5 0 2 -5 16 -10 l25 -10
-25 -21 c-24 -20 -24 -20 -5 -34 11 -8 30 -13 42 -12 29 4 31 -2 11 -30 -11
-17 -22 -22 -36 -18 -11 4 -23 2 -27 -4 -3 -5 -18 -10 -31 -10 -31 0 -28 -20
4 -35 12 -5 22 -15 22 -22 0 -7 9 -13 21 -13 14 0 19 -5 16 -13 -3 -8 -1 -20
3 -28 17 -27 -10 -41 -76 -37 -34 1 -66 -1 -70 -5 -4 -4 -16 -7 -26 -7 -23 0
-23 -5 2 -30 11 -11 33 -20 50 -20 24 0 30 -4 30 -20 0 -16 6 -20 26 -18 15 2
29 -3 31 -9 5 -15 -5 -19 -70 -28 -40 -5 -47 -9 -42 -24 3 -12 0 -21 -11 -25
-11 -4 -15 -14 -11 -33 3 -15 -3 -39 -13 -58 -26 -46 -11 -69 40 -60 45 8 95
-14 105 -45 7 -22 28 -25 93 -10 64 15 82 2 82 -60 0 -27 -4 -59 -9 -73 -8
-20 -4 -27 24 -50 51 -41 81 -50 100 -30 12 12 14 23 8 42 -4 14 -8 61 -8 104
0 93 7 101 80 90 68 -11 206 -5 223 9 12 10 11 14 -3 24 -9 7 -14 17 -11 23
10 16 -21 68 -44 74 -36 9 -24 30 15 24 19 -3 37 -2 40 3 10 17 -26 59 -53 62
-16 2 -28 10 -30 21 -3 14 4 17 36 17 54 0 63 24 17 46 -19 9 -38 14 -42 11
-12 -7 -55 12 -49 22 3 5 28 14 56 21 47 11 50 13 44 38 -9 36 -5 34 -71 36
-44 1 -58 5 -58 16 0 8 9 15 20 15 35 1 47 15 40 46 -5 22 -3 29 8 29 8 0 22
11 31 24 21 33 7 41 -71 39 -35 -1 -65 2 -68 7 -7 11 22 33 37 28 7 -3 31 3
53 13 22 9 34 18 27 18 -9 1 -11 8 -7 22 7 20 5 21 -71 18 -49 -3 -79 0 -79 6
0 6 9 10 20 10 11 0 21 8 23 18 2 9 16 24 32 32 19 10 28 22 28 39 0 24 -3 25
-42 21 -82 -10 -98 -6 -76 20 7 8 25 15 40 15 16 0 30 7 34 16 9 22 8 24 -9
24 -8 0 -15 5 -15 11 0 7 -10 9 -26 5 -24 -6 -25 -5 -19 24 4 18 3 30 -3 30
-6 0 -18 7 -27 16 -15 15 -15 18 1 35 15 17 15 19 1 19 -9 0 -20 6 -24 13 -4
8 -16 17 -27 20 -15 6 -16 10 -6 22 6 8 9 19 5 25 -4 6 -1 17 5 25 10 12 9 15
-7 15 -10 0 -23 4 -28 8 -6 5 -20 4 -32 -2z"/>
</g>
</svg>
