<?xml version="1.0" standalone="no"?>
<!DOCTYPE svg PUBLIC "-//W3C//DTD SVG 20010904//EN"
 "http://www.w3.org/TR/2001/REC-SVG-20010904/DTD/svg10.dtd">
<svg version="1.0" xmlns="http://www.w3.org/2000/svg"
 width="389.000000pt" height="261.000000pt" viewBox="0 0 389.000000 261.000000"
 preserveAspectRatio="xMidYMid meet">
<metadata>
Created by potrace 1.16, written by Peter Selinger 2001-2019
</metadata>
<g transform="translate(0.000000,261.000000) scale(0.100000,-0.100000)"
fill="#000000" stroke="none">
<path d="M1784 2326 c-38 -18 -54 -32 -62 -55 -6 -17 -19 -34 -29 -37 -93 -32
-147 -80 -123 -109 10 -12 26 -14 75 -9 94 10 91 -9 -21 -124 -127 -130 -143
-162 -150 -299 -5 -96 -3 -112 15 -147 18 -35 20 -50 14 -165 -6 -143 6 -228
39 -257 24 -22 36 -50 50 -119 18 -89 34 -298 27 -345 -9 -54 -11 -426 -3
-457 6 -22 9 -22 157 -20 131 2 152 4 155 18 3 18 -42 39 -83 39 -21 0 -24 6
-29 67 -3 38 -4 149 0 248 3 99 7 320 7 490 2 301 3 311 24 352 25 45 55 58
124 51 50 -5 64 -39 61 -159 -3 -115 29 -317 62 -399 43 -104 53 -153 55 -262
0 -59 -3 -118 -8 -132 -6 -13 -12 -66 -16 -118 -3 -51 -8 -101 -11 -110 -3 -9
-25 -24 -49 -34 -31 -12 -45 -22 -45 -36 0 -17 8 -18 130 -15 72 3 133 7 136
9 17 18 27 162 29 434 3 295 14 443 37 469 4 5 8 34 8 65 0 64 -20 104 -75
146 l-37 28 4 77 3 77 58 55 c31 30 57 61 57 68 0 8 11 36 25 63 33 66 31 99
-10 175 -19 36 -38 80 -41 100 -4 19 -21 64 -39 100 -18 36 -35 79 -39 94 -10
42 -59 67 -132 67 -45 0 -65 4 -75 17 -8 9 -33 25 -56 35 -28 12 -43 25 -43
37 0 53 -90 67 -176 27z m143 -336 c14 -11 34 -20 44 -20 12 0 21 -12 28 -37
17 -60 14 -73 -29 -119 -23 -25 -40 -54 -40 -67 0 -13 -5 -28 -12 -35 -39 -39
-70 21 -74 143 -1 50 -6 98 -9 107 -5 12 2 21 22 32 37 20 40 20 70 -4z"/>
</g>
</svg>
