<?xml version="1.0" standalone="no"?>
<!DOCTYPE svg PUBLIC "-//W3C//DTD SVG 20010904//EN"
 "http://www.w3.org/TR/2001/REC-SVG-20010904/DTD/svg10.dtd">
<svg version="1.0" xmlns="http://www.w3.org/2000/svg"
 width="403.000000pt" height="188.000000pt" viewBox="0 0 403.000000 188.000000"
 preserveAspectRatio="xMidYMid meet">
<metadata>
Created by potrace 1.16, written by Peter Selinger 2001-2019
</metadata>
<g transform="translate(0.000000,188.000000) scale(0.100000,-0.100000)"
fill="#000000" stroke="none">
<path d="M3112 1815 c-17 -8 -36 -25 -42 -39 -5 -14 -24 -32 -43 -40 -40 -16
-78 -61 -70 -82 3 -8 18 -18 34 -21 25 -5 28 -9 23 -32 -4 -14 -17 -39 -31
-56 -72 -91 -75 -98 -80 -208 -4 -72 -2 -106 6 -111 17 -11 13 -53 -5 -60 -26
-10 -34 -7 -34 14 0 10 -6 24 -12 30 -68 56 -95 64 -128 35 -28 -25 -102 37
-180 149 -8 12 -36 43 -62 68 l-48 46 15 36 c8 19 15 40 15 46 0 13 -37 13
-45 0 -3 -6 -17 -7 -30 -4 -18 4 -27 -1 -41 -26 l-19 -32 -90 6 c-49 3 -101 9
-115 12 -14 3 -111 5 -215 4 -155 -1 -194 2 -210 14 -11 9 -35 16 -52 16 -36
0 -73 29 -73 58 0 9 -7 26 -15 36 -13 17 -13 22 1 37 25 28 11 49 -34 49 -43
0 -62 -14 -62 -46 0 -13 -5 -26 -11 -29 -5 -4 -14 -18 -20 -32 -6 -16 -28 -32
-64 -49 -85 -37 -102 -33 -161 33 -56 62 -84 67 -84 15 0 -36 -8 -44 -31 -31
-14 7 -29 4 -61 -13 -36 -19 -60 -22 -148 -24 -97 -1 -115 -5 -233 -46 -150
-53 -194 -87 -228 -178 -18 -49 -20 -68 -15 -170 4 -63 10 -212 14 -330 7
-208 8 -216 33 -255 28 -43 37 -76 46 -172 5 -62 22 -85 47 -64 23 19 39 100
31 159 -11 78 -14 462 -4 462 16 0 39 -60 39 -103 0 -24 -7 -66 -15 -93 -21
-70 -19 -127 10 -205 13 -37 34 -110 46 -161 12 -51 28 -102 35 -113 8 -11 14
-45 14 -81 0 -100 0 -100 251 -96 207 4 354 23 354 47 0 16 -173 27 -253 15
-40 -5 -93 -10 -117 -10 -38 0 -45 3 -45 19 0 11 -16 39 -37 63 -44 52 -79
128 -99 216 -18 76 -8 165 24 228 24 47 62 180 62 217 0 22 4 26 27 26 16 0
42 3 59 6 25 6 46 -1 108 -35 97 -53 210 -73 314 -55 39 7 42 6 42 -14 0 -22
20 -34 72 -45 l26 -6 -5 -153 c-3 -83 -10 -170 -15 -192 -19 -74 -21 -134 -6
-158 8 -12 17 -41 21 -65 8 -65 19 -73 96 -70 63 3 66 4 69 29 2 15 -3 33 -10
40 -7 8 -26 34 -42 58 -26 41 -28 50 -23 108 4 35 16 85 27 111 12 26 24 67
27 92 3 25 19 70 36 100 66 120 77 144 77 169 0 35 8 45 55 69 51 25 69 45 94
104 28 66 82 104 235 163 126 48 165 45 271 -20 22 -14 48 -25 58 -25 33 0
126 -49 142 -74 14 -20 15 -42 9 -133 -7 -111 7 -260 28 -311 24 -56 99 -152
123 -158 56 -14 117 27 129 87 3 18 6 130 6 250 0 207 10 280 23 170 3 -27 15
-68 27 -90 29 -59 41 -228 28 -413 -5 -81 -8 -182 -6 -225 l3 -79 -100 -3
c-209 -5 -323 -4 -413 4 -126 10 -132 17 -128 163 2 59 4 115 5 125 0 9 17 25
36 34 46 22 46 56 0 61 -42 4 -83 21 -89 38 -7 19 -36 18 -36 -2 0 -9 -21 -49
-46 -90 -37 -59 -58 -81 -110 -114 -70 -44 -104 -88 -104 -135 0 -39 21 -99
44 -123 18 -21 92 -44 198 -61 37 -6 120 -30 184 -52 116 -40 118 -40 238 -36
109 3 130 7 216 39 52 20 122 41 155 47 33 7 93 22 133 33 53 15 76 18 81 10
23 -38 172 -59 471 -66 163 -4 290 9 290 29 0 18 -41 50 -80 62 -23 7 -100 10
-220 8 -102 -2 -199 -2 -216 1 l-30 5 3 252 c3 235 16 453 28 486 11 30 -8
102 -36 137 -42 53 -41 113 3 159 34 37 64 104 74 170 5 34 1 52 -20 93 -14
28 -26 60 -26 70 0 10 -11 42 -25 70 -14 29 -25 56 -25 61 0 23 -43 59 -77 66
-55 10 -91 32 -108 65 -14 26 -21 30 -58 30 -23 -1 -57 -7 -75 -15z m119 -285
c18 0 9 -69 -13 -104 -13 -19 -26 -35 -30 -36 -10 0 -10 76 -2 119 5 23 11 30
21 27 8 -4 19 -6 24 -6z m27 -412 c10 -22 11 -40 1 -89 -9 -45 -9 -73 -1 -112
6 -29 14 -76 17 -105 3 -30 14 -73 23 -95 14 -35 17 -73 15 -227 -1 -199 -8
-235 -48 -250 -15 -6 -25 -17 -25 -30 0 -26 -13 -26 -25 2 -6 12 -23 29 -40
38 l-30 17 2 174 c3 376 10 645 18 664 22 54 70 61 93 13z m-501 -78 c17 0 33
5 35 10 2 6 16 12 32 13 l28 2 -1 -230 c-2 -252 -8 -291 -49 -302 -21 -5 -31
0 -59 33 -73 86 -78 108 -76 312 2 101 5 188 9 193 4 6 15 2 28 -10 13 -12 36
-21 53 -21z m-493 -738 c8 -15 17 -44 21 -65 7 -35 6 -37 -18 -37 -16 0 -26 7
-30 20 -3 12 -14 20 -26 20 -33 0 -39 30 -10 51 13 11 29 23 34 28 14 14 13
14 29 -17z"/>
<path d="M267 673 c3 -21 11 -57 19 -81 15 -44 20 -222 6 -222 -4 0 -17 26
-28 58 -41 110 -79 189 -107 223 l-29 34 4 -56 c3 -40 12 -65 30 -90 26 -34
78 -154 78 -178 0 -8 -6 -11 -15 -7 -18 6 -20 -16 -5 -45 6 -10 7 -19 2 -19
-12 0 -42 34 -42 48 0 7 -5 12 -10 12 -7 0 -8 -13 -4 -35 7 -40 -2 -46 -17
-13 -7 18 -8 14 -3 -17 3 -22 12 -51 21 -63 8 -13 13 -25 11 -26 -2 -1 -30
-15 -64 -31 -69 -33 -94 -66 -94 -126 l0 -39 195 0 c160 0 193 2 189 14 -9 24
50 70 135 104 69 29 82 37 79 55 -4 28 -48 39 -122 31 -56 -7 -59 -6 -51 12
15 36 17 62 6 81 -10 17 -10 16 -11 -4 0 -23 -24 -53 -42 -53 -5 0 -1 16 11
36 23 38 27 69 11 79 -6 4 -13 -7 -16 -24 -9 -45 -24 -38 -24 11 0 40 -1 41
-16 22 -14 -18 -15 -14 -9 49 3 38 3 103 -1 144 -6 65 -11 81 -36 106 -15 17
-28 34 -28 38 0 5 -6 9 -14 9 -11 0 -13 -9 -9 -37z"/>
<path d="M190 391 c0 -6 5 -13 10 -16 6 -3 10 1 10 9 0 9 -4 16 -10 16 -5 0
-10 -4 -10 -9z"/>
</g>
</svg>
