<?xml version="1.0" standalone="no"?>
<!DOCTYPE svg PUBLIC "-//W3C//DTD SVG 20010904//EN"
 "http://www.w3.org/TR/2001/REC-SVG-20010904/DTD/svg10.dtd">
<svg version="1.0" xmlns="http://www.w3.org/2000/svg"
 width="469.000000pt" height="216.000000pt" viewBox="0 0 469.000000 216.000000"
 preserveAspectRatio="xMidYMid meet">
<metadata>
Created by potrace 1.16, written by Peter Selinger 2001-2019
</metadata>
<g transform="translate(0.000000,216.000000) scale(0.100000,-0.100000)"
fill="#000000" stroke="none">
<path d="M793 2122 c-6 -4 -14 -19 -18 -33 -5 -19 -20 -31 -56 -47 -38 -16
-50 -26 -47 -39 2 -14 14 -19 56 -21 48 -3 52 -5 52 -27 0 -30 36 -101 55
-108 9 -4 15 -42 19 -144 3 -76 7 -151 7 -166 3 -51 -20 -62 -128 -62 -94 0
-98 1 -110 25 -7 14 -23 27 -35 30 -20 5 -23 13 -26 65 -4 76 -13 87 -71 83
-45 -3 -46 -4 -46 -38 0 -28 4 -36 22 -38 26 -4 39 -37 23 -57 -9 -11 -47 -15
-164 -17 l-151 -3 -3 -117 c-3 -135 -10 -126 103 -130 l60 -3 0 -210 0 -210
-38 -3 c-42 -4 -46 -11 -17 -37 26 -24 25 -28 -10 -68 l-30 -35 0 -186 c0
-182 -5 -212 -30 -166 -18 33 -29 14 -19 -31 12 -50 7 -56 -27 -40 -34 15 -41
8 -27 -30 11 -27 9 -31 -10 -38 -77 -30 -99 -132 -42 -194 l26 -27 1298 0
c1126 0 1300 2 1311 15 12 14 19 59 44 265 7 58 15 111 19 117 4 7 2 44 -5 84
-9 60 -9 97 6 218 9 80 18 166 19 191 2 49 26 64 37 23 11 -46 36 -63 93 -63
64 0 85 14 89 60 l3 35 70 2 c113 3 225 24 300 55 95 40 100 41 112 26 6 -7
17 -52 26 -99 8 -48 28 -115 43 -150 23 -51 28 -79 29 -139 0 -65 -4 -84 -33
-143 -19 -38 -56 -91 -83 -118 -51 -51 -64 -91 -33 -103 9 -3 61 -6 115 -6 98
0 100 0 93 22 -4 14 2 39 19 72 14 28 34 80 43 115 10 35 36 93 57 129 30 50
38 71 34 96 -23 144 -28 179 -23 184 15 15 29 -31 57 -193 28 -162 4 -269 -81
-362 -22 -23 -40 -47 -40 -51 0 -13 158 -22 187 -11 14 5 23 17 23 29 0 12 8
37 19 58 10 20 24 69 30 107 11 69 60 215 72 215 8 0 19 -54 19 -94 0 -38 24
-76 38 -61 14 15 41 105 41 140 1 83 10 148 22 155 9 6 10 26 5 74 -5 55 -4
65 8 60 26 -10 36 32 36 145 0 68 4 112 11 117 14 8 3 66 -21 115 -11 20 -24
64 -29 97 -17 107 -43 140 -201 254 -68 50 -142 97 -164 105 -22 7 -82 19
-134 25 -80 11 -108 10 -195 -5 -68 -12 -104 -14 -111 -7 -5 5 -31 10 -57 10
-26 0 -59 4 -73 10 -23 8 -26 15 -26 54 0 52 -20 76 -46 55 -9 -7 -29 -33 -46
-57 -35 -52 -77 -72 -148 -72 -43 0 -55 5 -89 36 -23 20 -47 55 -57 82 -23 62
-29 69 -69 76 -36 7 -105 -15 -105 -33 0 -5 12 -18 27 -29 l27 -19 -25 -31
c-39 -49 -65 -57 -113 -33 -56 26 -114 41 -286 72 -64 11 -363 14 -433 3 -47
-7 -48 -6 -102 45 -68 64 -98 67 -103 9 -3 -35 -5 -37 -28 -28 -14 6 -30 10
-35 10 -14 0 -11 -48 8 -101 15 -41 16 -55 5 -94 -7 -25 -12 -58 -12 -75 0
-37 -44 -160 -81 -226 -45 -80 -35 -135 32 -169 23 -12 29 -22 29 -48 0 -17 5
-69 11 -114 19 -133 -21 -470 -63 -541 -56 -92 -212 -82 -260 18 -42 87 -119
401 -118 485 1 184 6 332 11 340 4 6 1 64 -5 130 -13 122 -34 189 -76 242 -11
14 -20 33 -20 43 0 9 -11 27 -25 40 -37 35 -31 43 25 35 41 -6 51 -4 56 9 8
21 -18 51 -75 84 -27 15 -49 38 -57 58 -12 28 -21 34 -64 43 -59 13 -110 14
-127 3z m1288 -684 c120 -59 200 -142 264 -273 38 -79 64 -115 122 -175 84
-86 110 -140 119 -253 3 -39 13 -105 21 -146 18 -84 13 -193 -11 -239 -8 -16
-30 -40 -48 -54 -39 -29 -44 -30 -383 -52 -121 -8 -285 -20 -365 -27 -193 -17
-303 -15 -544 9 -60 7 -113 9 -117 6 -5 -3 -18 -3 -28 1 -17 5 -19 16 -18 113
1 59 -2 215 -6 347 -5 157 -5 245 2 255 14 21 19 12 35 -71 25 -129 84 -296
119 -336 100 -114 276 -92 349 43 30 58 55 213 68 430 6 99 14 152 25 174 9
17 14 38 11 47 -8 19 60 100 104 123 19 10 62 41 95 69 33 28 70 51 81 51 12
0 59 -19 105 -42z m-1208 -118 c4 -19 11 -159 13 -310 3 -151 8 -358 10 -459
6 -189 2 -231 -19 -231 -43 0 -86 -22 -97 -51 -12 -29 -15 -30 -69 -27 -47 3
-56 6 -59 23 -7 42 -11 48 -27 35 -12 -10 -17 -7 -26 16 l-11 29 -9 -24 c-5
-13 -11 -22 -14 -19 -2 2 -6 95 -9 206 l-4 203 -31 35 c-34 38 -39 61 -16 70
30 12 16 34 -20 34 l-35 0 2 213 3 212 64 3 65 3 83 -83 c80 -79 85 -82 99
-64 13 18 8 26 -66 102 -73 74 -90 101 -75 116 3 3 58 5 122 4 l117 -1 9 -35z
m3205 -80 c3 -45 -1 -87 -11 -118 -8 -26 -18 -62 -22 -79 -3 -18 -11 -35 -16
-38 -14 -9 -10 72 6 140 8 33 15 89 15 125 0 89 23 65 28 -30z"/>
</g>
</svg>
