<?xml version="1.0" standalone="no"?>
<!DOCTYPE svg PUBLIC "-//W3C//DTD SVG 20010904//EN"
 "http://www.w3.org/TR/2001/REC-SVG-20010904/DTD/svg10.dtd">
<svg version="1.0" xmlns="http://www.w3.org/2000/svg"
 width="209.000000pt" height="216.000000pt" viewBox="0 0 209.000000 216.000000"
 preserveAspectRatio="xMidYMid meet">
<metadata>
Created by potrace 1.16, written by Peter Selinger 2001-2019
</metadata>
<g transform="translate(0.000000,216.000000) scale(0.100000,-0.100000)"
fill="#000000" stroke="none">
<path d="M1227 2143 c-4 -3 -7 -27 -7 -51 l0 -45 -23 21 c-30 28 -57 29 -57 1
0 -16 -4 -19 -17 -14 -33 12 -38 10 -41 -23 l-3 -33 -31 26 c-41 35 -53 28
-51 -28 1 -44 0 -46 -19 -36 -27 15 -48 4 -45 -23 2 -19 -5 -24 -48 -33 -45
-10 -50 -14 -48 -37 1 -18 -4 -28 -18 -31 -25 -7 -24 -33 4 -74 28 -42 77 -66
148 -71 46 -3 68 1 120 24 70 32 158 40 167 15 5 -14 -9 -13 -50 4 -13 5 -19
0 -24 -22 -3 -15 -8 -35 -10 -43 -4 -15 -62 -58 -99 -73 -34 -14 -197 -9 -285
9 -176 35 -308 -17 -387 -154 -25 -43 -75 -113 -172 -235 -21 -27 -47 -77 -60
-119 -13 -40 -34 -89 -48 -109 -28 -43 -32 -94 -15 -214 12 -87 26 -135 41
-135 5 0 15 26 21 58 6 31 15 73 19 92 l9 35 1 -30 c1 -17 17 -63 36 -104 37
-78 43 -121 20 -161 -21 -37 -18 -68 12 -119 23 -38 27 -57 26 -108 -2 -56 0
-62 20 -65 16 -2 23 -11 25 -31 6 -47 -12 -57 -97 -57 -101 -1 -131 -25 -131
-109 l0 -41 865 0 865 0 0 50 c0 41 -5 56 -25 75 -23 24 -30 25 -144 25 -98 0
-123 3 -133 16 -7 9 -22 26 -33 38 -73 80 -85 115 -88 251 l-2 69 38 22 c58
32 87 78 87 140 0 145 37 226 155 334 9 8 24 26 34 39 l18 25 46 -18 c30 -11
66 -16 109 -14 72 3 79 14 57 80 -16 48 -31 62 -99 87 -37 14 -72 37 -104 70
-46 47 -48 52 -42 89 5 31 1 45 -15 66 -25 32 -47 33 -53 4 -3 -13 -7 -35 -11
-50 -7 -37 -26 -35 -49 3 -10 17 -28 34 -39 39 -21 8 -21 8 5 19 30 11 53 42
63 84 4 15 10 27 14 28 3 0 16 2 28 3 33 4 63 35 63 65 0 15 9 34 20 44 34 29
24 69 -23 94 -43 22 -122 19 -180 -6 -65 -28 -67 -27 -25 17 64 66 105 186 72
212 -19 17 -31 6 -55 -51 -12 -27 -25 -49 -30 -49 -17 0 -19 21 -4 82 13 55
13 65 0 77 -13 13 -18 11 -45 -14 -30 -28 -30 -28 -30 -6 0 19 -4 22 -24 17
-25 -6 -36 7 -36 45 0 31 -38 24 -46 -8 -3 -16 -7 -32 -9 -38 -1 -5 -13 14
-25 43 -21 48 -37 62 -53 45z m266 -824 c-10 -10 -16 88 -6 104 5 7 9 -11 11
-42 2 -30 0 -57 -5 -62z m-85 15 c13 -25 31 -48 41 -51 17 -4 17 -9 7 -49 -6
-25 -21 -50 -34 -60 -22 -15 -26 -14 -84 16 -54 29 -67 32 -119 27 -35 -3 -59
-1 -59 4 0 17 47 80 71 97 19 13 126 57 150 61 3 1 15 -20 27 -45z m-764 -565
c4 -30 2 -65 -5 -86 l-11 -35 -29 28 c-16 15 -29 37 -29 49 0 22 45 95 59 95
5 0 11 -23 15 -51z m-173 -110 c-9 -22 -10 -22 -10 -3 -1 11 2 24 6 27 12 12
14 0 4 -24z m452 -84 c43 -18 111 -19 170 -3 40 10 48 9 99 -16 54 -27 56 -28
62 -78 5 -37 14 -58 35 -77 41 -39 54 -69 52 -128 -1 -36 3 -53 12 -53 6 0 18
-4 26 -9 12 -8 12 -13 -3 -35 l-16 -26 -171 0 -171 0 -26 32 c-15 17 -42 48
-59 68 -18 21 -33 41 -33 45 0 5 -7 16 -15 25 -8 9 -31 57 -50 105 -38 98 -34
129 10 76 47 -55 74 -28 40 40 -9 16 -13 34 -10 39 8 13 6 13 48 -5z m-483
-28 c0 -47 55 -64 87 -27 10 12 30 20 47 20 16 0 38 8 49 18 22 19 22 24 1
-55 -5 -18 -2 -23 13 -23 10 0 25 6 32 13 10 10 11 3 6 -35 -6 -39 -4 -49 9
-54 11 -4 22 1 31 12 13 18 14 18 34 -6 19 -23 51 -108 51 -135 0 -7 9 -20 20
-30 26 -23 26 -71 1 -85 -11 -5 -84 -10 -165 -10 l-144 0 -31 39 c-17 21 -31
43 -31 49 0 5 -18 45 -40 88 -46 91 -49 120 -15 192 25 55 45 68 45 29z"/>
</g>
</svg>
