<?xml version="1.0" standalone="no"?>
<!DOCTYPE svg PUBLIC "-//W3C//DTD SVG 20010904//EN"
 "http://www.w3.org/TR/2001/REC-SVG-20010904/DTD/svg10.dtd">
<svg version="1.0" xmlns="http://www.w3.org/2000/svg"
 width="408.000000pt" height="465.000000pt" viewBox="0 0 408.000000 465.000000"
 preserveAspectRatio="xMidYMid meet">
<metadata>
Created by potrace 1.16, written by Peter Selinger 2001-2019
</metadata>
<g transform="translate(0.000000,465.000000) scale(0.100000,-0.100000)"
fill="#000000" stroke="none">
<path d="M1891 4000 c-47 -18 -91 -60 -91 -87 0 -9 -16 -31 -36 -49 -35 -33
-44 -73 -13 -65 8 2 21 6 30 8 14 4 16 -2 11 -44 -4 -37 -14 -58 -45 -93 -21
-25 -45 -56 -52 -70 -22 -45 -35 -145 -36 -274 -1 -69 -5 -128 -9 -131 -4 -3
-15 6 -24 20 -17 26 -49 32 -76 15 -12 -7 -12 -13 -1 -33 16 -30 7 -50 -19
-42 -10 3 -36 -4 -59 -16 -34 -17 -51 -20 -100 -14 -80 9 -123 -3 -273 -75
-121 -58 -247 -180 -313 -303 -31 -58 -85 -216 -85 -249 0 -14 -13 -43 -29
-65 -41 -56 -104 -190 -96 -202 11 -19 25 -12 44 20 l20 32 -1 -59 c-2 -70 17
-193 31 -207 13 -13 31 0 31 25 0 11 9 31 20 46 15 19 20 38 19 78 -2 37 3 57
14 69 20 19 22 46 5 63 -8 8 -5 14 15 23 34 16 41 38 39 125 -2 73 17 144 50
194 9 14 22 48 29 75 6 28 13 56 15 63 2 6 10 12 18 12 13 0 15 -17 14 -97 -1
-78 3 -111 20 -160 13 -37 22 -86 22 -120 0 -57 -12 -89 -77 -207 -9 -18 -19
-72 -24 -142 -9 -121 -16 -162 -31 -181 -13 -17 0 -106 23 -159 15 -35 25 -45
58 -55 34 -10 44 -9 66 5 35 23 32 58 -10 105 -32 35 -35 44 -35 99 0 95 53
224 131 319 23 29 59 92 79 140 20 49 42 88 50 88 7 0 22 -13 34 -28 18 -25
21 -42 21 -141 0 -96 3 -116 20 -140 11 -16 25 -36 30 -45 6 -9 13 -18 17 -21
17 -13 119 -176 130 -208 7 -20 25 -53 40 -72 16 -19 28 -47 28 -62 0 -44 25
-60 79 -52 25 4 49 8 54 11 20 12 0 92 -32 128 -10 11 -25 39 -34 62 -9 23
-41 74 -72 114 -41 53 -55 79 -55 104 0 17 -5 46 -11 64 -8 22 -9 78 -4 177 7
141 8 146 32 157 19 9 33 6 76 -12 145 -64 172 -72 290 -87 177 -23 165 -19
177 -65 18 -65 -26 -295 -80 -426 -32 -76 -32 -80 -21 -138 19 -90 23 -95 84
-95 84 0 97 29 47 98 -43 60 -39 88 30 224 33 64 60 127 60 139 0 12 12 58 26
103 15 44 28 87 30 94 4 14 38 16 63 2 10 -5 32 -48 50 -98 21 -58 51 -115 86
-163 54 -74 112 -183 144 -269 29 -80 102 -170 137 -170 24 0 64 31 64 51 0
15 -20 49 -41 73 -10 11 -22 36 -25 55 -3 20 -19 57 -35 82 -16 25 -29 59 -29
75 -1 39 -23 130 -45 179 -43 98 -75 193 -75 222 0 23 10 44 35 71 42 47 55
80 55 137 0 24 5 47 12 51 6 4 38 -23 79 -68 114 -125 265 -198 396 -190 47 3
58 8 105 51 29 26 64 54 76 60 13 7 32 32 43 56 17 39 18 46 4 85 -8 23 -15
58 -15 76 0 19 -11 66 -24 104 -15 43 -26 98 -28 142 -2 59 -7 77 -24 95 -18
18 -21 28 -15 55 9 40 -10 113 -30 113 -7 0 -25 -21 -39 -47 -41 -78 -51 -85
-107 -69 -92 26 -150 32 -363 39 -151 6 -234 4 -280 -4 -181 -33 -220 -29
-220 23 0 27 -83 110 -130 129 -42 18 -50 43 -49 146 1 51 -3 104 -9 118 -5
14 -10 53 -11 87 0 34 -2 68 -3 75 -2 9 7 12 28 10 29 -3 32 -1 38 37 4 27 12
42 26 46 24 7 26 37 5 55 -26 22 -16 32 28 28 41 -3 42 -2 42 26 0 25 -5 31
-40 40 -29 9 -47 23 -68 54 -32 48 -53 52 -126 22z m1011 -1290 c7 -12 40 -34
74 -50 45 -21 64 -37 73 -58 7 -17 23 -40 37 -53 13 -12 24 -31 24 -41 0 -11
5 -29 11 -40 15 -29 -1 -41 -58 -44 -98 -5 -244 65 -338 163 -47 50 -57 80
-27 89 9 2 37 16 62 29 58 31 125 33 142 5z"/>
</g>
</svg>
