<?xml version="1.0" standalone="no"?>
<!DOCTYPE svg PUBLIC "-//W3C//DTD SVG 20010904//EN"
 "http://www.w3.org/TR/2001/REC-SVG-20010904/DTD/svg10.dtd">
<svg version="1.0" xmlns="http://www.w3.org/2000/svg"
 width="280.000000pt" height="201.000000pt" viewBox="0 0 280.000000 201.000000"
 preserveAspectRatio="xMidYMid meet">
<metadata>
Created by potrace 1.16, written by Peter Selinger 2001-2019
</metadata>
<g transform="translate(0.000000,201.000000) scale(0.100000,-0.100000)"
fill="#000000" stroke="none">
<path d="M1798 1932 c-9 -9 -18 -30 -22 -45 -5 -19 -17 -33 -40 -42 -18 -8
-38 -21 -46 -29 -15 -19 -33 -20 -76 -4 -28 10 -37 8 -80 -17 -64 -37 -249
-63 -303 -43 -37 13 -58 1 -65 -37 -6 -29 -15 -39 -54 -58 -37 -17 -52 -32
-70 -70 -28 -59 -57 -75 -110 -59 -33 10 -35 10 -18 -3 31 -24 76 -18 108 12
15 15 28 31 28 36 0 18 51 77 66 77 8 0 37 12 65 27 l51 26 72 -17 c39 -9 89
-16 112 -16 61 0 77 -17 82 -89 4 -58 2 -65 -27 -102 -18 -21 -38 -56 -45 -77
-9 -25 -20 -38 -34 -40 -20 -3 -26 -13 -23 -34 0 -4 -4 -19 -9 -33 -7 -19 -17
-25 -38 -25 -15 0 -33 -5 -39 -11 -9 -9 -20 -9 -44 0 -27 9 -35 8 -51 -6 -17
-15 -22 -15 -72 0 -98 31 -201 14 -250 -42 -24 -26 -84 -28 -164 -5 -36 11
-75 15 -111 11 -67 -6 -198 -57 -220 -85 -9 -11 -34 -28 -56 -37 -42 -17 -85
-52 -85 -68 0 -5 -18 -29 -40 -53 -26 -29 -40 -53 -40 -71 0 -15 -10 -37 -22
-50 -25 -27 -17 -44 10 -20 25 23 53 21 59 -3 8 -29 18 -25 60 25 41 50 48 52
74 29 17 -15 19 -13 44 36 29 58 56 65 65 16 5 -27 7 -24 24 28 23 67 39 84
61 66 11 -9 13 -16 5 -24 -13 -13 -13 -46 -1 -46 17 0 41 43 48 83 7 43 30 59
48 34 17 -24 22 -22 76 28 72 68 124 54 64 -17 -21 -25 -25 -40 -25 -96 0 -87
20 -125 93 -180 85 -64 80 -86 -38 -164 -85 -56 -72 -85 78 -185 95 -63 175
-143 179 -179 2 -20 12 -33 32 -43 43 -20 50 2 19 62 -32 65 -20 80 39 50 24
-12 66 -38 93 -57 28 -20 62 -43 77 -53 14 -10 32 -31 40 -48 9 -21 21 -31 41
-33 28 -3 39 19 16 33 -19 13 -30 56 -17 72 9 12 44 14 190 12 l177 -3 -2 -31
c-2 -24 2 -31 21 -33 13 -2 38 6 57 17 23 13 50 20 83 19 43 -1 56 4 98 37 27
21 68 57 92 79 38 36 42 45 42 87 0 51 -14 67 -109 131 -41 28 -54 61 -31 84
21 21 78 152 84 195 5 37 16 54 53 90 28 27 59 72 80 117 18 39 36 72 39 72 3
0 22 -9 44 -20 69 -35 181 -23 240 27 26 22 37 24 72 19 47 -8 88 13 88 44 0
25 -50 109 -115 193 -47 60 -88 98 -159 146 -12 8 -36 28 -54 45 l-32 30 -16
-23 c-12 -16 -19 -20 -27 -12 -17 17 -25 13 -29 -11 -2 -14 -11 -24 -23 -26
-11 -2 -25 -13 -30 -25 -6 -12 -21 -24 -35 -25 -14 -2 -33 -13 -43 -23 -10
-11 -23 -17 -28 -13 -6 3 -21 -6 -34 -20 -13 -14 -33 -26 -45 -26 -11 0 -23
-7 -26 -15 -7 -17 -40 -20 -49 -5 -4 6 -4 33 0 60 5 38 12 51 28 56 29 9 37
22 37 64 0 33 3 36 68 67 37 17 96 39 132 49 36 9 69 21 74 25 18 16 -2 21
-36 10 -40 -14 -304 -91 -335 -98 -14 -3 -23 -1 -23 6 0 6 -13 11 -30 11 -16
0 -30 3 -30 6 0 3 14 26 30 51 17 24 30 50 30 57 0 18 23 36 57 45 40 11 38
42 -5 53 -26 7 -34 15 -39 39 -6 33 -8 35 -69 43 -32 4 -45 2 -56 -12z m85
-458 c29 -49 29 -66 -4 -131 -10 -21 -19 -43 -19 -49 0 -7 -7 -14 -15 -18 -8
-3 -15 -12 -15 -21 0 -8 -7 -15 -15 -15 -10 0 -15 10 -15 28 0 15 -5 33 -12
40 -9 9 -7 16 6 31 21 23 15 51 -11 51 -30 0 -61 -28 -73 -65 -6 -19 -16 -35
-20 -35 -10 0 -40 93 -40 123 0 15 5 18 24 13 20 -5 31 2 61 37 32 38 60 52
105 56 8 0 28 -19 43 -45z m65 29 c6 -19 -28 -29 -39 -12 -5 8 -9 18 -9 22 0
13 43 3 48 -10z m2 -133 c0 -5 -9 -19 -20 -30 -23 -23 -24 -21 -8 15 11 25 28
34 28 15z m551 -137 c32 -16 59 -34 59 -41 0 -7 -26 -25 -57 -40 -70 -32 -154
-37 -195 -10 -32 21 -28 45 12 88 38 40 98 41 181 3z m-1270 -469 c33 -35 143
-90 223 -110 73 -18 80 -24 93 -74 9 -34 11 -35 64 -41 88 -9 89 -11 89 -95 0
-68 -2 -75 -25 -90 -22 -14 -42 -16 -124 -11 -66 5 -101 3 -108 -4 -9 -9 -18
-6 -38 9 -22 17 -31 19 -51 10 -13 -6 -24 -15 -24 -19 0 -34 -73 5 -157 84
-40 38 -41 62 -8 151 19 49 25 86 25 141 0 41 4 75 8 75 5 0 19 -12 33 -26z
m-205 -166 c-4 -29 -9 -77 -12 -105 -3 -29 -11 -53 -16 -53 -21 0 -110 98
-106 117 2 10 24 27 48 39 25 12 52 29 59 38 25 29 33 18 27 -36z m850 -29 c4
-6 44 -29 90 -50 78 -36 84 -41 84 -68 0 -55 -104 -135 -187 -145 l-53 -7 0
79 c0 65 19 165 37 195 6 11 21 9 29 -4z"/>
</g>
</svg>
