<?xml version="1.0" standalone="no"?>
<!DOCTYPE svg PUBLIC "-//W3C//DTD SVG 20010904//EN"
 "http://www.w3.org/TR/2001/REC-SVG-20010904/DTD/svg10.dtd">
<svg version="1.0" xmlns="http://www.w3.org/2000/svg"
 width="443.000000pt" height="481.000000pt" viewBox="0 0 443.000000 481.000000"
 preserveAspectRatio="xMidYMid meet">
<metadata>
Created by potrace 1.16, written by Peter Selinger 2001-2019
</metadata>
<g transform="translate(0.000000,481.000000) scale(0.100000,-0.100000)"
fill="#000000" stroke="none">
<path d="M2312 4171 c-5 -3 -14 -21 -19 -39 -6 -24 -19 -39 -48 -55 -51 -29
-61 -74 -21 -101 15 -9 26 -22 26 -28 0 -25 -53 -86 -88 -102 -25 -12 -47 -33
-67 -68 -16 -28 -43 -65 -58 -84 -38 -45 -45 -124 -16 -180 56 -104 53 -94 36
-123 -15 -26 -15 -29 8 -57 13 -16 24 -34 25 -40 0 -14 -23 -24 -53 -24 -11 0
-29 -7 -39 -16 -15 -14 -39 -17 -149 -15 -126 2 -133 1 -207 -30 -43 -17 -106
-55 -142 -83 -36 -29 -89 -67 -117 -86 -29 -18 -53 -37 -53 -41 0 -4 -12 -21
-26 -36 -33 -34 -174 -248 -174 -263 0 -5 -11 -20 -25 -32 -31 -27 -32 -61 -4
-80 22 -14 22 -14 -15 -53 -35 -39 -56 -88 -55 -130 1 -11 -9 -63 -21 -115
-12 -52 -24 -105 -27 -117 -9 -39 5 -73 30 -73 59 0 111 80 121 185 7 66 25
114 27 69 0 -10 1 -37 2 -59 2 -32 6 -41 22 -43 27 -4 47 44 44 100 -1 24 -2
60 -1 81 l2 38 31 -23 c38 -28 44 -20 53 71 4 37 13 89 21 116 8 26 15 60 15
75 0 27 34 69 46 57 4 -4 0 -17 -8 -30 -12 -16 -17 -60 -20 -162 -4 -156 -8
-166 -81 -256 -24 -30 -49 -63 -55 -75 -6 -11 -11 -73 -11 -140 0 -65 -5 -146
-10 -179 -6 -33 -11 -112 -11 -175 0 -152 5 -160 102 -160 l70 0 -7 158 c-13
275 18 387 122 456 65 43 150 141 169 195 6 19 17 37 24 39 17 6 3 -193 -15
-222 -24 -37 -28 -89 -10 -136 9 -25 20 -62 25 -83 4 -21 13 -44 19 -50 6 -6
11 -19 11 -29 0 -10 4 -18 8 -18 14 0 32 -114 32 -207 l0 -91 35 -31 c40 -35
52 -37 82 -16 23 16 33 69 36 180 1 51 -3 68 -29 110 -39 64 -47 95 -46 173 1
52 5 68 24 86 29 29 115 127 133 153 8 11 19 41 26 67 17 67 41 80 129 72 127
-13 259 -15 265 -6 11 17 40 11 53 -11 9 -14 13 -56 13 -128 -2 -176 -11 -382
-21 -453 -16 -107 -12 -168 13 -233 l23 -60 55 0 54 0 2 164 c1 89 6 177 12
195 5 17 12 76 15 131 4 55 13 125 21 155 8 30 18 88 21 128 5 55 11 75 23 79
9 3 26 10 38 15 31 15 48 -1 62 -59 10 -38 27 -61 106 -138 52 -50 95 -97 95
-104 0 -6 -6 -22 -14 -34 -7 -12 -19 -44 -25 -72 -18 -79 -32 -105 -62 -121
-16 -8 -29 -19 -29 -25 0 -5 -11 -14 -25 -19 -23 -9 -25 -15 -25 -70 0 -55 2
-61 26 -72 33 -15 70 3 94 47 9 16 35 38 58 50 37 18 43 26 63 90 12 39 35 99
50 134 44 96 40 154 -14 256 -24 44 -51 112 -61 150 -16 65 -17 76 -2 150 8
44 21 103 29 130 13 49 15 50 51 49 20 -1 45 -9 56 -19 26 -24 87 -36 215 -42
182 -8 173 -10 207 25 27 26 31 37 30 77 -1 26 -9 59 -17 75 -8 16 -14 46 -13
67 0 21 -4 65 -10 98 -7 33 -12 86 -12 118 0 69 -30 148 -62 162 -21 10 -29
26 -42 88 -8 35 -38 36 -61 0 l-18 -27 -23 29 c-26 33 -41 27 -46 -20 -3 -27
-8 -31 -59 -45 -31 -8 -63 -21 -72 -28 -9 -8 -20 -11 -25 -8 -4 3 -51 -7 -103
-20 -52 -14 -130 -32 -173 -40 -43 -8 -82 -16 -86 -19 -4 -2 -16 2 -27 10 -27
19 -40 81 -42 195 -2 71 -11 78 -68 58 l-48 -18 -43 48 c-23 26 -49 59 -57 74
-18 33 -57 197 -51 214 3 7 -2 20 -9 31 -19 24 -19 43 1 57 10 8 19 36 23 75
8 66 23 86 53 70 10 -6 23 -7 28 -4 20 12 9 36 -30 63 -22 15 -43 38 -46 52
-13 49 -42 69 -99 69 -29 -1 -57 -4 -63 -8z m-129 -550 c3 -11 -1 -25 -9 -32
-9 -7 -14 -31 -14 -63 l-1 -51 -16 29 c-13 24 -13 36 -4 61 6 17 11 40 11 52
0 38 23 40 33 4z m354 -257 c15 -24 15 -29 2 -53 -16 -28 -47 -37 -39 -11 2 8
4 32 3 53 -1 43 10 47 34 11z m157 -89 c-4 -14 -1 -32 6 -40 26 -31 -9 -56
-54 -39 -13 5 -15 15 -10 43 9 57 12 61 39 61 22 0 25 -3 19 -25z m567 -367
c9 -7 32 -36 53 -65 20 -29 49 -61 64 -72 22 -16 25 -23 16 -38 -15 -25 -168
-32 -193 -9 -9 8 -28 18 -44 21 -31 8 -44 27 -49 69 -3 25 5 34 52 67 59 41
77 46 101 27z"/>
</g>
</svg>
