<?xml version="1.0" standalone="no"?>
<!DOCTYPE svg PUBLIC "-//W3C//DTD SVG 20010904//EN"
 "http://www.w3.org/TR/2001/REC-SVG-20010904/DTD/svg10.dtd">
<svg version="1.0" xmlns="http://www.w3.org/2000/svg"
 width="184.000000pt" height="216.000000pt" viewBox="0 0 184.000000 216.000000"
 preserveAspectRatio="xMidYMid meet">
<metadata>
Created by potrace 1.16, written by Peter Selinger 2001-2019
</metadata>
<g transform="translate(0.000000,216.000000) scale(0.100000,-0.100000)"
fill="#000000" stroke="none">
<path d="M479 2033 c-2 -69 -11 -85 -57 -98 -42 -13 -43 -12 -57 14 -7 15 -21
34 -30 41 -10 8 -21 26 -27 40 -9 24 -10 24 -24 6 -18 -25 -18 -73 -1 -106 7
-14 13 -51 12 -82 0 -51 -4 -61 -35 -93 -34 -35 -34 -36 -32 -121 3 -96 -16
-155 -67 -209 -52 -55 -66 -110 -35 -136 11 -9 14 -22 9 -48 -18 -108 -17
-177 8 -296 14 -66 28 -153 32 -193 6 -69 5 -75 -21 -109 -23 -30 -25 -39 -15
-55 6 -10 9 -23 6 -28 -3 -5 5 -10 17 -12 24 -3 24 -6 11 -70 -3 -18 -1 -28 7
-28 8 0 9 -10 5 -33 -6 -26 -5 -30 6 -20 31 30 34 13 32 -167 l-1 -181 56 3
c56 3 57 4 60 35 2 18 -3 42 -11 55 -12 18 -15 61 -16 181 -1 147 0 161 20
185 16 21 20 39 19 87 -3 78 -3 80 15 65 12 -10 16 -8 25 15 5 14 10 33 10 41
0 8 4 14 9 14 16 0 29 -97 37 -265 10 -239 10 -317 1 -345 -4 -13 -5 -35 -2
-48 5 -21 10 -23 67 -20 82 4 90 17 60 100 -25 70 -30 206 -11 268 6 19 15 82
20 140 5 58 15 132 22 165 l14 60 49 -4 c27 -1 52 -5 55 -7 8 -5 28 -474 26
-609 l-2 -110 56 -3 c70 -4 91 13 82 61 -3 18 -10 40 -14 49 -15 28 -10 208 7
278 11 42 16 102 15 171 -2 83 2 117 17 155 36 94 36 94 44 4 25 -257 16 -595
-16 -658 -22 -43 -20 -52 14 -52 37 0 47 18 60 111 6 40 17 92 25 116 8 24 15
59 15 79 0 19 11 60 24 92 13 31 27 76 31 100 9 58 28 49 37 -19 7 -52 23
-119 67 -274 11 -38 21 -100 21 -137 0 -60 2 -68 19 -68 10 0 23 6 29 12 16
21 25 114 13 150 -10 30 -23 120 -38 255 -3 29 -2 72 1 96 6 38 11 45 34 50
15 3 35 9 44 12 13 5 20 0 28 -20 6 -15 22 -41 35 -57 36 -42 47 -98 49 -233
1 -112 -1 -124 -26 -176 -33 -66 -35 -89 -9 -89 26 0 35 14 64 100 14 41 30
76 35 78 19 6 45 -84 38 -133 -7 -43 -6 -45 18 -45 55 0 64 105 16 197 -28 56
-29 63 -32 221 -2 105 1 161 7 159 6 -2 11 -17 13 -33 4 -44 43 -123 64 -129
22 -8 38 1 33 18 -2 7 -6 31 -9 55 -5 33 -3 42 9 42 19 0 19 18 2 39 -30 35
-50 112 -62 239 -11 116 -15 136 -36 159 -54 58 -134 68 -229 28 -98 -41 -187
-30 -211 27 -7 17 -36 59 -65 93 -76 89 -104 134 -104 166 0 30 -15 45 -41 41
-14 -2 -17 10 -21 76 -5 95 -34 158 -124 270 -34 43 -69 91 -78 109 -12 25
-29 37 -75 53 l-59 22 -4 54 c-7 87 -77 146 -79 67z"/>
</g>
</svg>
