<?xml version="1.0" standalone="no"?>
<!DOCTYPE svg PUBLIC "-//W3C//DTD SVG 20010904//EN"
 "http://www.w3.org/TR/2001/REC-SVG-20010904/DTD/svg10.dtd">
<svg version="1.0" xmlns="http://www.w3.org/2000/svg"
 width="213.000000pt" height="259.000000pt" viewBox="0 0 213.000000 259.000000"
 preserveAspectRatio="xMidYMid meet">
<metadata>
Created by potrace 1.16, written by Peter Selinger 2001-2019
</metadata>
<g transform="translate(0.000000,259.000000) scale(0.100000,-0.100000)"
fill="#000000" stroke="none">
<path d="M1515 2360 c-12 -13 -25 -18 -38 -14 -24 8 -97 -60 -97 -91 0 -11 -4
-26 -9 -34 -11 -18 -41 -7 -41 15 0 8 -6 14 -12 11 -9 -3 -13 -27 -13 -73 0
-78 -15 -99 -28 -41 -10 41 -33 59 -48 36 -5 -8 -6 -44 -2 -81 6 -64 5 -68
-18 -77 -39 -17 -105 -83 -128 -129 -21 -41 -24 -43 -59 -40 -29 2 -36 0 -33
-12 12 -44 11 -67 -1 -76 -7 -6 -48 -23 -91 -39 l-79 -28 -26 20 c-15 11 -31
34 -36 51 -7 26 -3 40 28 94 20 35 54 99 75 143 44 91 51 99 107 117 28 9 39
19 39 33 0 44 -84 33 -147 -20 -54 -46 -62 -13 -23 92 26 69 30 123 8 130 -16
6 -100 -109 -108 -148 -6 -28 -29 -48 -41 -36 -3 3 0 21 7 41 10 27 10 41 1
60 -16 35 -34 25 -66 -34 -15 -27 -31 -52 -36 -55 -5 -3 -14 -22 -21 -43 -15
-49 -37 -72 -66 -72 -31 0 -79 25 -86 45 -7 16 -37 21 -37 6 0 -4 18 -35 40
-67 43 -64 51 -111 24 -138 -20 -21 -19 -21 -65 16 -56 45 -69 26 -24 -38 34
-47 46 -94 25 -94 -6 0 -34 13 -63 30 -30 16 -61 30 -70 30 -29 0 -19 -27 18
-50 19 -11 55 -44 80 -72 37 -41 45 -57 45 -89 0 -36 -2 -39 -27 -39 -19 0
-42 15 -80 55 -29 30 -58 55 -63 55 -16 0 -12 -27 10 -62 25 -41 26 -68 3 -68
-10 0 -58 21 -107 46 -67 34 -91 43 -100 34 -16 -16 51 -73 134 -113 87 -43
201 -48 379 -17 69 12 128 23 132 26 22 13 14 -21 -18 -81 -22 -42 -62 -94
-104 -135 l-69 -67 0 -75 c0 -89 18 -121 66 -120 16 0 65 2 109 3 50 1 87 7
102 16 28 19 43 10 43 -27 0 -38 15 -75 40 -100 15 -15 33 -20 73 -20 28 0 57
-4 63 -8 23 -15 45 -75 54 -151 6 -43 22 -112 36 -152 27 -79 44 -225 44 -385
0 -103 9 -120 59 -109 37 8 40 17 51 135 5 52 14 120 20 150 13 66 15 169 6
227 -7 38 -5 43 11 43 16 0 18 -10 18 -102 1 -168 17 -422 28 -436 12 -16 48
-16 70 1 13 10 18 40 24 162 9 189 10 310 1 356 -7 39 3 66 21 55 7 -5 11 -45
11 -109 0 -56 7 -145 15 -196 9 -52 15 -133 14 -179 -2 -92 6 -106 51 -95 49
11 52 23 62 190 15 247 22 318 33 318 6 0 11 -89 13 -240 2 -148 7 -245 14
-252 16 -19 55 -16 78 7 15 15 20 33 20 78 0 31 7 87 15 124 10 48 14 155 16
375 l2 308 -31 130 c-17 72 -36 168 -41 214 -7 51 -17 91 -27 102 -9 10 -45
25 -81 33 -60 13 -71 20 -147 94 -98 96 -152 126 -212 119 -24 -2 -46 -2 -48
1 -3 3 8 19 24 36 62 65 120 137 146 183 15 26 34 55 41 64 8 10 18 44 23 78
7 49 17 72 57 126 72 99 79 113 67 125 -7 7 -16 4 -29 -10z"/>
</g>
</svg>
