<?xml version="1.0" standalone="no"?>
<!DOCTYPE svg PUBLIC "-//W3C//DTD SVG 20010904//EN"
 "http://www.w3.org/TR/2001/REC-SVG-20010904/DTD/svg10.dtd">
<svg version="1.0" xmlns="http://www.w3.org/2000/svg"
 width="280.000000pt" height="220.000000pt" viewBox="0 0 280.000000 220.000000"
 preserveAspectRatio="xMidYMid meet">
<metadata>
Created by potrace 1.16, written by Peter Selinger 2001-2019
</metadata>
<g transform="translate(0.000000,220.000000) scale(0.100000,-0.100000)"
fill="#000000" stroke="none">
<path d="M1650 2083 c-19 -24 -21 -36 -15 -83 4 -32 17 -71 31 -92 13 -21 24
-42 24 -47 0 -5 23 -34 51 -65 41 -45 53 -67 65 -117 8 -33 11 -65 8 -71 -11
-18 -186 0 -271 27 -116 38 -172 30 -254 -38 -24 -19 -69 -48 -99 -63 l-54
-27 -151 27 c-113 20 -182 26 -282 26 -202 0 -271 -21 -323 -97 -22 -32 -24
-49 -31 -207 -13 -283 -36 -372 -115 -449 l-39 -38 -5 -247 c-7 -281 3 -357
48 -392 29 -24 55 -25 75 -5 13 13 13 20 0 62 -10 34 -13 73 -9 133 10 167 27
324 38 344 6 12 35 47 65 80 30 32 65 76 79 97 13 22 28 39 32 39 19 0 21 -15
6 -37 -8 -14 -27 -55 -41 -91 -37 -100 -25 -148 65 -266 46 -60 101 -175 102
-212 0 -12 7 -27 15 -34 8 -6 25 -31 39 -55 28 -46 70 -70 99 -53 22 12 21 30
-4 70 -116 186 -189 333 -189 384 0 67 9 83 143 258 l23 29 64 -21 c36 -11 83
-23 105 -26 44 -5 149 6 237 25 56 13 58 12 84 -11 38 -36 55 -74 70 -159 21
-117 18 -199 -11 -288 -34 -108 -39 -151 -23 -198 12 -38 15 -40 53 -40 l40 0
6 75 c5 55 16 98 41 155 32 72 36 92 41 201 9 188 27 237 93 250 21 4 37 0 55
-15 29 -22 95 -142 129 -233 12 -32 36 -80 55 -106 33 -49 65 -127 65 -161 0
-9 13 -37 28 -62 16 -24 36 -56 45 -72 14 -22 25 -27 57 -27 55 0 58 32 9 88
-16 18 -29 38 -29 44 0 7 -15 41 -34 77 -59 114 -98 267 -109 424 -9 129 -8
140 12 186 11 28 21 68 21 90 0 55 16 93 37 89 17 -3 26 -23 38 -81 9 -44 34
-46 68 -4 23 29 36 37 63 37 26 0 39 7 61 35 33 41 36 42 70 15 21 -17 41 -20
112 -20 54 0 92 5 99 12 17 17 15 120 -3 166 -12 30 -27 44 -63 61 -125 60
-193 129 -163 165 8 9 23 16 36 16 12 0 40 13 61 28 28 20 56 30 96 35 58 6
115 29 135 56 18 24 17 126 -2 141 -22 19 -39 -1 -38 -45 1 -47 -22 -66 -38
-31 -17 36 -36 33 -53 -8 -11 -25 -24 -37 -53 -46 -21 -7 -44 -17 -51 -23 -25
-20 -35 7 -17 49 12 28 15 53 10 92 -6 49 -4 55 25 88 34 39 37 76 7 82 -17 4
-33 -10 -105 -97 -17 -20 -34 -31 -40 -27 -15 9 -16 85 -1 122 12 33 4 77 -14
72 -7 -3 -23 -21 -36 -41 -23 -34 -26 -36 -42 -21 -10 9 -22 13 -27 10 -17
-10 -40 4 -51 33 -10 23 -17 27 -51 26 -22 0 -42 -4 -46 -8 -4 -4 -18 -7 -31
-7 -17 0 -28 -9 -37 -30 -13 -33 -26 -30 -26 6 0 25 -15 40 -25 24 -10 -15
-35 -12 -35 5 0 8 -5 15 -10 15 -6 0 -20 11 -32 25 -27 31 -32 31 -58 -2z"/>
</g>
</svg>
