<?xml version="1.0" standalone="no"?>
<!DOCTYPE svg PUBLIC "-//W3C//DTD SVG 20010904//EN"
 "http://www.w3.org/TR/2001/REC-SVG-20010904/DTD/svg10.dtd">
<svg version="1.0" xmlns="http://www.w3.org/2000/svg"
 width="400.000000pt" height="300.000000pt" viewBox="0 0 400.000000 300.000000"
 preserveAspectRatio="xMidYMid meet">
<metadata>
Created by potrace 1.16, written by Peter Selinger 2001-2019
</metadata>
<g transform="translate(0.000000,300.000000) scale(0.100000,-0.100000)"
fill="#000000" stroke="none">
<path d="M2104 2715 c-7 -17 -1 -71 11 -97 4 -10 3 -18 -2 -18 -5 0 -17 23
-28 50 -26 66 -45 66 -45 0 0 -94 64 -180 198 -266 98 -63 38 -91 -103 -49
-92 28 -187 25 -262 -8 -34 -15 -78 -38 -98 -51 -61 -42 -132 -51 -239 -30
-127 24 -146 18 -233 -67 -65 -63 -75 -77 -94 -141 -27 -89 -21 -184 16 -258
33 -65 47 -128 33 -154 -6 -12 -23 -34 -38 -51 -34 -37 -57 -100 -65 -180 -6
-56 -51 -170 -81 -205 -7 -8 -24 -39 -39 -67 -28 -57 -27 -98 2 -156 13 -26
18 -28 61 -25 l47 3 -3 35 c-1 19 -5 59 -8 88 -5 47 -3 58 22 95 32 47 54 85
81 137 9 19 19 37 20 39 2 3 10 -2 18 -10 14 -14 34 -180 32 -269 0 -25 7 -62
16 -82 15 -37 18 -38 66 -38 46 0 51 2 51 23 0 12 -6 31 -14 42 -7 11 -16 49
-19 85 -4 36 -11 99 -16 140 -6 41 -10 114 -11 162 l0 87 60 47 c33 25 62 54
65 64 3 9 16 23 29 30 21 11 28 10 56 -10 26 -19 41 -22 102 -19 l71 4 13 -35
c18 -51 17 -209 -1 -265 -9 -25 -39 -92 -66 -149 -48 -99 -50 -106 -39 -145
11 -43 33 -61 74 -61 25 0 44 30 31 50 -11 18 14 149 37 193 11 23 33 60 49
83 20 29 29 58 34 105 7 64 41 218 50 228 14 14 38 -35 55 -114 11 -48 26
-101 35 -117 8 -17 24 -96 36 -177 12 -80 29 -166 38 -191 17 -43 19 -45 63
-48 58 -4 76 14 55 55 -8 15 -17 42 -20 60 -3 17 -16 53 -29 80 -22 46 -23 58
-21 285 l2 236 30 42 c16 23 50 57 74 75 25 19 65 62 89 97 58 83 73 87 62 17
-4 -30 -8 -73 -8 -96 -1 -23 -4 -45 -8 -49 -9 -9 -11 -54 -2 -54 3 0 15 11 26
25 10 13 38 33 61 43 56 25 65 38 75 109 5 34 16 73 25 87 21 31 77 44 123 27
23 -8 39 -9 52 -2 11 6 35 8 55 4 32 -5 37 -2 51 25 26 50 21 106 -13 145 -28
31 -56 46 -173 96 -68 28 -65 51 7 51 92 0 175 41 175 87 0 13 5 34 11 45 10
19 9 20 -17 13 -16 -5 -42 -8 -59 -7 -16 1 -38 -7 -50 -17 -11 -10 -39 -28
-62 -40 -35 -18 -43 -18 -53 -6 -10 12 -7 16 14 25 15 5 26 17 26 28 0 21 29
52 49 52 12 0 31 40 31 67 0 12 -6 13 -27 7 -16 -4 -46 -8 -68 -8 -32 -1 -40
-5 -43 -21 -5 -25 -31 -55 -49 -55 -10 0 -8 9 7 37 28 52 27 83 -3 83 -13 0
-28 5 -35 12 -9 9 -15 9 -23 1 -7 -7 -25 -9 -41 -6 -24 5 -30 2 -35 -15 -7
-29 -40 -24 -65 10 -10 15 -28 28 -38 28 -10 0 -25 12 -35 26 -20 30 -32 22
-37 -24 -3 -32 -3 -32 -26 -16 -21 15 -23 21 -17 65 7 53 -5 65 -27 29 -7 -11
-18 -20 -25 -20 -6 0 -15 9 -18 20 -7 23 -33 27 -41 5z"/>
</g>
</svg>
