<?xml version="1.0" standalone="no"?>
<!DOCTYPE svg PUBLIC "-//W3C//DTD SVG 20010904//EN"
 "http://www.w3.org/TR/2001/REC-SVG-20010904/DTD/svg10.dtd">
<svg version="1.0" xmlns="http://www.w3.org/2000/svg"
 width="351.000000pt" height="181.000000pt" viewBox="0 0 351.000000 181.000000"
 preserveAspectRatio="xMidYMid meet">
<metadata>
Created by potrace 1.16, written by Peter Selinger 2001-2019
</metadata>
<g transform="translate(0.000000,181.000000) scale(0.100000,-0.100000)"
fill="#000000" stroke="none">
<path d="M513 1750 c-4 -14 -14 -20 -36 -20 -29 0 -29 -1 -13 -19 12 -13 14
-21 6 -26 -8 -5 -6 -13 6 -26 15 -17 15 -19 1 -19 -9 0 -21 -9 -27 -20 -6 -11
-20 -20 -32 -20 l-21 0 20 -22 c25 -28 19 -48 -14 -48 -21 0 -24 -4 -19 -20
21 -69 21 -67 -2 -46 -20 17 -22 17 -28 2 -3 -9 -17 -16 -29 -16 -29 0 -42
-18 -20 -26 8 -4 14 -14 13 -23 -2 -13 4 -15 33 -13 43 4 74 -22 38 -31 -12
-3 -29 -2 -38 2 -9 5 -35 11 -59 15 -41 6 -42 5 -32 -14 6 -11 8 -30 5 -40 -5
-15 -2 -20 13 -20 20 0 45 -24 55 -52 4 -11 17 -18 32 -18 15 0 24 -4 20 -9
-3 -6 -44 -7 -97 -4 -82 6 -91 4 -85 -10 3 -9 2 -19 -3 -22 -6 -4 -10 -9 -10
-13 0 -9 64 -32 108 -39 56 -9 48 -25 -12 -22 -31 1 -59 0 -63 -4 -3 -4 -21
-7 -40 -7 -37 0 -44 -15 -13 -25 15 -5 19 -12 15 -26 -5 -15 -1 -19 19 -19 32
0 43 -18 20 -35 -15 -11 -16 -15 -5 -29 7 -9 26 -16 42 -16 28 0 47 -15 34
-28 -3 -4 -38 -7 -77 -7 l-70 0 -3 -36 c-2 -32 2 -37 30 -48 17 -6 41 -11 53
-11 11 0 23 -4 26 -9 7 -10 -17 -21 -45 -21 -11 0 -35 -7 -55 -15 -31 -13 -34
-17 -24 -35 7 -14 21 -20 44 -20 18 0 35 -3 39 -6 13 -13 -7 -34 -32 -34 -33
0 -68 -52 -46 -70 7 -6 25 -8 39 -4 30 7 36 -11 6 -21 -23 -7 -51 -60 -43 -80
3 -8 -2 -18 -11 -21 -43 -16 1 -53 65 -54 25 0 49 -4 55 -9 5 -6 39 -3 85 5
54 10 84 12 103 5 25 -10 26 -13 26 -96 l0 -86 -181 2 -182 3 -24 -28 c-21
-24 -23 -37 -21 -90 l3 -61 1700 0 1700 0 3 64 c5 105 -24 120 -230 125 -74 1
-140 6 -146 10 -18 11 -15 105 3 112 8 3 36 0 62 -6 87 -22 123 -24 123 -7 0
8 -7 20 -15 27 -26 21 0 41 45 34 45 -7 58 12 35 55 -7 15 -11 38 -8 49 3 13
1 22 -6 22 -6 0 -11 8 -11 19 0 15 -10 20 -45 25 -45 7 -63 26 -25 26 11 0 20
7 20 16 0 11 8 14 28 12 20 -2 30 3 40 21 7 13 11 24 10 25 -2 1 -12 6 -24 12
-13 8 -36 9 -65 4 -42 -8 -69 0 -69 21 0 4 18 26 40 48 22 22 40 44 40 50 0 5
-20 13 -45 17 -59 8 -64 20 -19 39 30 12 34 18 25 29 -8 10 -9 16 -1 21 6 3 8
10 5 15 -3 5 -1 11 5 15 15 9 12 25 -5 25 -8 0 -15 7 -15 15 0 19 -9 19 -29 1
-17 -15 -85 -25 -96 -14 -4 4 4 12 17 18 34 18 78 62 72 72 -3 4 -21 8 -41 8
-34 0 -35 1 -20 18 10 10 17 26 17 36 0 12 5 16 18 12 11 -4 21 2 29 19 10 22
9 25 -7 25 -11 0 -21 4 -24 9 -3 4 -17 6 -31 3 -29 -5 -31 4 -10 35 14 20 14
23 -1 31 -10 6 -15 16 -11 26 4 10 1 16 -8 16 -9 0 -15 10 -15 25 0 15 -6 25
-14 25 -7 0 -19 7 -27 16 -11 14 -13 14 -21 0 -5 -9 -15 -16 -22 -16 -8 0 -12
-12 -11 -32 2 -32 -13 -58 -34 -58 -14 0 -14 -17 -1 -25 16 -10 12 -22 -11
-28 -13 -4 -19 -12 -17 -24 3 -18 -30 -43 -58 -43 -8 0 -14 -4 -14 -10 0 -5 5
-10 10 -10 6 0 10 -9 10 -21 0 -18 -4 -20 -26 -15 -22 6 -25 4 -20 -9 3 -9 6
-23 6 -30 0 -8 9 -16 19 -20 11 -3 23 -15 26 -26 4 -10 13 -19 21 -19 8 0 14
-4 14 -8 0 -4 -29 -6 -65 -4 -64 4 -65 4 -65 -21 0 -22 7 -27 50 -38 59 -15
66 -31 13 -29 -21 1 -53 2 -72 1 -32 -1 -33 -2 -18 -19 10 -10 17 -24 17 -30
0 -7 10 -12 22 -12 17 0 19 -3 10 -12 -19 -19 -14 -28 25 -44 46 -20 30 -32
-38 -28 -48 2 -49 1 -49 -26 0 -30 15 -40 57 -40 37 0 23 -24 -18 -31 -51 -8
-61 -16 -48 -40 7 -13 16 -18 29 -14 28 9 35 -14 8 -24 -13 -5 -30 -16 -38
-25 -11 -15 -11 -19 2 -32 13 -13 14 -22 5 -52 -6 -21 -16 -40 -22 -44 -6 -5
-4 -13 7 -24 13 -13 39 -17 135 -18 l118 -1 3 -57 c4 -78 18 -76 -348 -71 -80
2 -154 2 -165 2 -11 0 -71 0 -134 1 l-114 0 -31 34 c-53 57 -100 210 -112 362
-6 66 -3 92 12 133 19 55 29 63 39 31 9 -27 37 -25 65 5 13 14 33 25 45 25 11
0 26 5 31 10 7 7 35 6 87 -2 89 -13 102 -7 112 51 9 56 -14 105 -62 130 -46
23 -83 57 -83 75 0 15 59 43 111 52 79 13 120 64 107 131 -4 23 -46 30 -54 9
-3 -9 -14 -16 -23 -16 -9 0 -28 -13 -43 -30 -30 -35 -65 -42 -48 -11 5 11 10
35 10 54 0 21 7 41 20 52 24 22 23 58 -2 63 -9 2 -32 -11 -52 -29 -42 -36 -54
-33 -36 10 22 53 -8 92 -44 56 -19 -19 -52 -19 -60 0 -3 8 -18 20 -33 26 -22
8 -34 7 -57 -7 -26 -15 -29 -15 -38 0 -5 9 -19 16 -32 16 -13 0 -29 7 -36 15
-17 20 -26 19 -50 -5 -37 -37 -19 -116 49 -210 35 -49 42 -100 13 -100 -9 0
-61 11 -115 24 -109 27 -124 25 -207 -25 -67 -40 -79 -41 -174 -19 -57 13
-122 20 -188 20 -178 0 -220 -40 -232 -218 -9 -118 -34 -199 -80 -255 -36 -44
-36 -45 -36 -136 0 -51 -5 -124 -11 -162 -8 -51 -8 -79 0 -101 20 -57 4 -63
-181 -65 -89 -1 -168 -5 -175 -8 -11 -4 -13 12 -11 78 l3 82 64 -4 c35 -2 81
-11 103 -21 42 -18 88 -15 96 8 2 6 -8 23 -23 36 l-27 25 54 30 c89 50 85 46
70 71 -8 13 -11 33 -7 50 5 23 2 30 -15 35 -17 5 -19 9 -9 21 16 20 11 23 -55
34 -31 5 -61 12 -66 15 -18 11 0 25 31 25 19 0 29 5 29 15 0 11 11 15 40 15
28 0 40 4 40 15 0 8 9 19 20 25 26 14 17 30 -16 30 -13 0 -24 4 -24 10 0 11
-91 7 -110 -5 -18 -11 -62 16 -54 34 3 9 7 23 8 31 2 8 13 16 24 18 12 2 22
10 22 18 0 8 7 14 15 14 14 0 35 29 35 48 0 6 -24 13 -52 17 -84 11 -131 55
-60 55 15 0 38 7 51 16 l23 16 -23 12 c-31 15 -39 40 -9 31 19 -6 21 -4 15 14
-5 16 -1 22 19 27 35 9 33 24 -4 24 -24 0 -31 5 -36 27 l-7 26 -21 -24 c-17
-19 -32 -24 -78 -26 -32 -2 -58 1 -58 5 0 14 24 32 43 32 22 0 103 77 93 88
-4 4 -30 7 -57 7 -52 0 -65 16 -28 35 13 7 19 19 17 33 -3 19 1 22 25 19 18
-2 27 2 27 12 0 8 8 19 18 25 29 16 0 33 -64 36 -33 1 -59 6 -58 11 3 23 17
54 25 54 18 0 9 19 -12 25 -16 5 -19 12 -15 31 6 21 3 24 -21 24 -16 0 -23 3
-16 8 6 4 10 20 10 35 -2 24 -5 27 -24 22 -18 -4 -24 0 -29 20 -7 30 -24 33
-31 5z m2412 -630 c8 -13 -20 -24 -42 -16 -15 6 -15 8 -3 16 20 13 37 12 45 0z
m-1756 -444 c-28 -48 -21 -86 35 -179 24 -40 47 -88 51 -107 4 -19 16 -48 27
-63 23 -33 18 -57 -14 -58 -55 -3 -170 1 -178 6 -5 3 -14 29 -20 59 -9 42 -7
75 5 161 18 121 22 130 72 186 43 47 52 45 22 -5z m395 30 l109 -1 15 -35 c7
-19 16 -66 19 -105 4 -56 1 -82 -17 -130 -12 -33 -25 -82 -28 -110 l-7 -50
-105 -3 c-128 -3 -142 0 -158 35 -6 15 -37 75 -67 132 -73 138 -73 162 9 249
29 32 34 33 76 26 25 -4 94 -8 154 -8z m351 -46 c32 -56 125 -260 125 -273 0
-7 7 -35 16 -61 13 -37 14 -50 4 -56 -12 -7 -264 -3 -287 5 -21 7 -15 69 14
131 17 38 29 85 34 139 8 96 30 148 60 143 11 -2 27 -14 34 -28z"/>
</g>
</svg>
