<?xml version="1.0" standalone="no"?>
<!DOCTYPE svg PUBLIC "-//W3C//DTD SVG 20010904//EN"
 "http://www.w3.org/TR/2001/REC-SVG-20010904/DTD/svg10.dtd">
<svg version="1.0" xmlns="http://www.w3.org/2000/svg"
 width="504.000000pt" height="169.000000pt" viewBox="0 0 504.000000 169.000000"
 preserveAspectRatio="xMidYMid meet">
<metadata>
Created by potrace 1.16, written by Peter Selinger 2001-2019
</metadata>
<g transform="translate(0.000000,169.000000) scale(0.100000,-0.100000)"
fill="#000000" stroke="none">
<path d="M1837 1653 c-17 -3 -32 -14 -39 -29 -6 -13 -26 -33 -45 -44 -35 -20
-41 -38 -21 -58 9 -9 7 -17 -9 -34 -30 -34 -63 -103 -63 -135 0 -15 -4 -33 -8
-38 -11 -16 -62 -46 -63 -38 0 5 0 39 1 76 1 40 -4 74 -11 83 -10 12 -91 14
-524 14 -398 0 -515 -3 -523 -12 -5 -7 -12 -44 -14 -83 -3 -63 -9 -79 -56
-160 -28 -49 -81 -126 -117 -170 -36 -44 -72 -94 -80 -112 -8 -17 -33 -47 -54
-65 -169 -147 -177 -448 -14 -600 15 -14 51 -39 78 -55 79 -46 68 -57 -60 -63
-72 -4 -118 -10 -133 -20 -26 -18 -56 -76 -48 -96 5 -12 343 -14 2481 -14
l2475 0 0 29 c0 39 -31 75 -78 89 -24 7 -109 12 -214 12 -129 0 -178 3 -185
13 -20 24 -23 63 -11 135 l12 72 33 -5 c18 -3 48 -7 67 -10 29 -5 34 -2 40 17
11 43 7 46 -59 53 -36 4 -67 11 -70 15 -5 8 10 37 68 138 34 58 79 119 135
179 l23 24 63 -35 c57 -32 67 -35 95 -25 47 16 51 50 12 104 -17 24 -31 46
-31 50 0 4 -14 26 -31 51 l-32 43 26 34 c36 47 38 69 7 77 -31 8 -66 -8 -105
-50 -36 -39 -117 -100 -165 -125 -49 -25 -218 -67 -265 -66 -22 1 -91 11 -153
22 -126 22 -167 17 -233 -26 -37 -24 -109 -137 -109 -170 0 -16 -11 -17 -112
-10 -134 8 -199 18 -333 51 -103 25 -122 35 -111 53 12 18 39 12 85 -19 24
-17 56 -30 71 -30 28 0 70 32 70 54 0 12 -34 69 -91 153 -16 23 -29 45 -29 50
0 5 11 24 25 43 33 44 32 56 -7 64 -37 7 -51 -1 -133 -81 -33 -32 -87 -74
-120 -93 -56 -32 -66 -34 -150 -34 -70 1 -124 9 -240 38 -227 56 -359 111
-582 244 -106 64 -111 68 -106 96 6 27 5 28 -25 21 -25 -5 -38 -1 -66 20 -19
15 -36 36 -38 48 -3 20 -8 22 -56 19 -64 -3 -69 5 -45 74 20 58 59 108 91 118
27 9 28 26 2 59 -11 14 -20 32 -20 41 0 13 -32 39 -42 35 -2 -1 -16 -4 -31 -6z
m-862 -288 c0 -19 -8 -20 -184 -23 -102 -1 -188 1 -193 6 -5 5 -6 16 -2 26 6
15 25 16 193 14 178 -3 186 -4 186 -23z m530 -10 c0 -19 -8 -20 -186 -23 -154
-2 -188 0 -198 12 -27 32 -2 36 192 34 184 -3 192 -4 192 -23z m-782 -131 l37
-7 0 -99 0 -99 -67 3 -68 3 1 55 c1 30 4 76 8 103 8 51 12 53 89 41z m367 -2
l55 -7 1 -92 c1 -66 -3 -96 -12 -104 -9 -7 -38 -8 -91 -2 l-78 8 -9 87 c-4 48
-6 94 -2 103 6 16 40 18 136 7z m358 -1 c15 -8 16 -23 12 -126 -5 -112 -6
-119 -30 -137 -14 -10 -42 -21 -63 -25 l-38 -6 3 144 3 144 45 6 c25 3 46 7
48 7 2 1 11 -2 20 -7z m432 -57 c0 -30 -15 -31 -31 -3 -8 17 -8 23 2 30 19 11
29 2 29 -27z m244 -64 c138 -90 338 -181 516 -235 l75 -23 -85 2 c-78 1 -89
-1 -131 -28 -53 -33 -119 -135 -119 -183 0 -15 -6 -50 -13 -78 l-13 -50 -164
0 -164 0 -20 50 c-30 71 -72 129 -115 159 -41 28 -138 66 -171 66 -11 0 -20 3
-20 8 0 4 73 50 162 102 201 118 215 129 199 158 -6 12 -15 22 -19 22 -24 1
-32 17 -21 48 6 18 14 32 19 32 4 0 42 -23 84 -50z m-360 -421 c10 -9 -27 -91
-50 -110 -16 -13 -48 18 -78 76 -17 31 -18 38 -5 46 16 11 119 2 133 -12z
m-1507 -9 c23 0 82 -44 73 -54 -8 -7 -142 24 -155 35 -14 14 15 31 40 24 11
-2 30 -5 42 -5z m3075 -29 c88 -29 251 -55 411 -67 l79 -6 -7 -26 c-3 -15 -14
-38 -24 -52 -16 -21 -26 -25 -62 -23 -299 15 -383 23 -390 35 -6 10 -15 10
-42 0 -34 -12 -169 -17 -180 -6 -15 15 86 173 110 174 7 0 54 -13 105 -29z
m-1919 -31 l-27 -40 -158 -2 c-87 -1 -177 -2 -200 -3 -27 0 -43 5 -46 14 -4
11 4 13 34 8 69 -10 244 9 324 37 41 14 80 25 87 26 7 0 0 -18 -14 -40z m157
13 c21 -41 18 -46 -19 -54 -36 -7 -61 -3 -61 11 0 11 50 70 59 70 4 0 14 -12
21 -27z m314 -8 c27 -35 60 -104 53 -111 -9 -9 -111 11 -129 26 l-21 17 29 51
c16 29 32 52 35 52 4 0 19 -16 33 -35z m-1074 -40 c0 -11 -12 -15 -45 -15 -50
0 -57 6 -22 20 35 14 67 12 67 -5z m-564 -20 c70 -8 104 -27 104 -57 0 -24
-105 -138 -127 -138 -19 0 -59 88 -67 146 -6 51 -1 68 19 60 7 -2 38 -7 71
-11z m2454 -50 c0 -10 -10 -15 -30 -15 -31 0 -39 17 -18 38 14 14 48 -2 48
-23z m1467 8 c33 -25 44 -28 114 -27 75 1 78 0 84 -24 3 -14 2 -29 -3 -34 -4
-4 -49 -4 -103 2 -52 5 -122 10 -156 10 -42 0 -63 4 -63 12 0 13 70 86 83 87
5 1 25 -11 44 -26z m-2787 -45 c0 -53 29 -158 52 -192 11 -17 41 -50 67 -72
40 -36 44 -44 32 -58 -12 -15 -55 -16 -430 -14 l-416 3 -3 22 c-2 16 10 31 50
61 30 22 72 66 93 98 22 33 51 71 65 86 14 14 39 41 55 60 l30 33 203 3 202 3
0 -33z m-642 -3 c28 -9 52 -22 52 -29 0 -36 -106 -156 -139 -156 -10 0 -36 52
-62 124 -11 29 -10 40 1 62 13 23 19 26 55 20 22 -3 64 -12 93 -21z m838 -43
c30 -20 33 -48 9 -99 -12 -28 -27 -53 -33 -56 -13 -9 -48 31 -71 83 -33 72
-30 80 32 80 28 0 57 -4 63 -8z m364 -7 c0 -35 -69 -145 -91 -145 -9 0 -44 59
-54 89 -4 14 -1 31 9 46 14 22 24 25 76 25 47 0 60 -3 60 -15z m366 4 c2 -4 0
-19 -6 -33 -6 -17 -6 -27 1 -32 6 -3 9 -19 7 -35 -5 -31 1 -36 21 -16 10 10
16 7 29 -11 l18 -23 18 20 c25 28 37 17 24 -20 -6 -17 -8 -55 -6 -85 l5 -54
-266 0 c-146 0 -272 4 -280 9 -18 11 -1 43 38 70 37 27 89 107 97 152 14 70
10 69 160 67 74 -1 137 -5 140 -9z m616 -16 c7 -16 13 -82 14 -150 l2 -123
-208 0 -207 0 -7 38 c-14 86 1 178 40 240 14 21 19 22 184 22 l170 0 12 -27z
m618 14 c63 -4 138 -10 165 -13 l50 -5 2 -40 c2 -55 10 -76 25 -61 18 18 28
15 28 -8 0 -21 15 -27 25 -10 3 5 14 14 25 20 17 9 18 6 13 -28 -3 -20 -5 -61
-5 -90 l1 -52 -406 2 -407 3 -9 37 c-10 42 15 237 31 247 14 8 321 7 462 -2z
m-3062 -14 c18 -16 52 -119 52 -158 0 -35 -144 -24 -192 14 l-21 17 54 72 c56
75 73 84 107 55z m3750 -38 c85 -7 156 -16 160 -19 3 -3 6 -53 6 -111 l2 -105
-208 0 -207 0 -7 56 c-7 61 1 156 16 184 7 14 18 17 47 14 21 -3 107 -11 191
-19z m-2477 -82 c28 -51 29 -53 10 -63 -24 -12 -111 -13 -129 -1 -11 7 -10 17
8 52 12 24 27 50 33 57 20 25 49 8 78 -45z"/>
</g>
</svg>
