<?xml version="1.0" standalone="no"?>
<!DOCTYPE svg PUBLIC "-//W3C//DTD SVG 20010904//EN"
 "http://www.w3.org/TR/2001/REC-SVG-20010904/DTD/svg10.dtd">
<svg version="1.0" xmlns="http://www.w3.org/2000/svg"
 width="800.000000pt" height="600.000000pt" viewBox="0 0 800.000000 600.000000"
 preserveAspectRatio="xMidYMid meet">
<metadata>
Created by potrace 1.16, written by Peter Selinger 2001-2019
</metadata>
<g transform="translate(0.000000,600.000000) scale(0.100000,-0.100000)"
fill="#000000" stroke="none">
<path d="M6345 2312 c-26 -19 -40 -50 -48 -106 -4 -33 -11 -88 -15 -121 -4
-33 -13 -70 -20 -82 -17 -32 -15 -50 12 -86 13 -18 26 -48 30 -67 3 -19 20
-51 36 -72 30 -36 38 -58 22 -58 -4 0 -12 4 -17 9 -14 12 -147 29 -230 29 -48
1 -95 9 -148 26 -43 14 -83 26 -90 26 -7 0 -48 18 -91 40 -63 32 -89 40 -133
40 -75 0 -139 -30 -189 -88 -66 -77 -74 -115 -61 -271 2 -25 -12 -36 -56 -46
-38 -8 -43 -27 -23 -88 9 -29 22 -72 30 -97 8 -25 23 -65 34 -90 10 -25 22
-66 26 -92 6 -41 4 -48 -14 -58 -11 -6 -55 -10 -97 -9 -83 2 -103 -9 -103 -58
0 -14 -11 -43 -24 -67 -20 -35 -24 -60 -28 -149 -3 -93 -6 -109 -26 -130 -12
-13 -22 -35 -22 -49 0 -20 6 -27 29 -31 17 -4 222 -11 458 -17 235 -6 543 -15
683 -21 480 -19 865 -29 888 -24 12 3 22 9 22 14 0 5 -32 28 -71 51 -49 29
-93 46 -147 57 -42 8 -90 23 -107 33 -37 23 -209 90 -229 90 -22 0 -28 33 -21
105 7 60 5 67 -25 122 -103 185 -103 192 15 239 44 17 96 46 117 63 25 21 47
31 71 31 50 0 68 25 71 104 4 85 14 96 87 96 32 0 69 5 82 11 30 13 57 68 57
114 0 38 28 65 68 65 60 0 131 53 159 119 12 28 12 49 3 125 -6 50 -13 110
-16 134 -4 28 -11 45 -22 50 -9 3 -31 21 -48 39 -38 40 -47 41 -80 8 -14 -14
-27 -25 -31 -25 -3 0 -14 11 -25 25 -22 28 -50 32 -68 10 -10 -12 -10 -18 0
-30 11 -14 16 -54 27 -223 5 -79 4 -85 -23 -123 -25 -37 -31 -40 -61 -35 -113
20 -101 23 -122 -27 -20 -46 -38 -57 -98 -57 -40 0 -61 20 -68 68 -10 57 -12
61 -40 68 -20 5 -31 1 -47 -16 -16 -17 -27 -21 -52 -16 -43 9 -65 42 -64 95 0
38 6 50 40 82 42 40 47 71 13 77 -43 8 -47 21 -44 132 l4 105 -44 3 c-24 2
-53 10 -65 17 -12 8 -26 11 -31 7z m-783 -1010 c69 -22 72 -24 59 -51 -6 -12
-15 -30 -21 -41 -16 -32 -12 -85 15 -166 30 -92 31 -104 6 -104 -41 0 -73 42
-86 115 -8 39 -26 102 -40 142 -28 73 -28 123 -2 123 6 0 38 -8 69 -18z m376
-129 c7 -3 12 -26 12 -62 0 -31 10 -105 22 -166 23 -122 26 -161 11 -176 -16
-16 -61 1 -101 38 -20 19 -49 42 -64 51 -31 18 -52 75 -62 170 -8 71 0 90 60
150 l34 32 37 -16 c21 -9 44 -18 51 -21z m381 -119 c33 -7 168 -130 180 -165
10 -30 6 -87 -11 -131 -13 -34 -64 -52 -121 -44 -23 4 -65 2 -94 -3 -40 -8
-61 -7 -97 5 -51 18 -60 34 -46 84 6 19 15 82 20 139 5 57 15 109 21 117 11
13 77 12 148 -2z"/>
</g>
</svg>
