<?xml version="1.0" standalone="no"?>
<!DOCTYPE svg PUBLIC "-//W3C//DTD SVG 20010904//EN"
 "http://www.w3.org/TR/2001/REC-SVG-20010904/DTD/svg10.dtd">
<svg version="1.0" xmlns="http://www.w3.org/2000/svg"
 width="400.000000pt" height="300.000000pt" viewBox="0 0 400.000000 300.000000"
 preserveAspectRatio="xMidYMid meet">
<metadata>
Created by potrace 1.16, written by Peter Selinger 2001-2019
</metadata>
<g transform="translate(0.000000,300.000000) scale(0.100000,-0.100000)"
fill="#000000" stroke="none">
<path d="M3183 2093 c-13 -8 -23 -22 -23 -30 0 -8 -11 -24 -25 -35 -39 -31
-57 -81 -45 -131 16 -72 15 -77 -29 -77 -34 0 -40 -4 -49 -29 -9 -26 -16 -29
-70 -35 -32 -4 -77 -4 -98 -1 -29 4 -47 1 -69 -13 -30 -19 -77 -102 -89 -154
-13 -57 -90 -77 -161 -42 -34 16 -41 25 -47 61 -8 52 -36 133 -50 151 -9 10
-8 23 1 48 15 41 6 58 -14 30 -8 -10 -16 -22 -17 -27 -6 -15 -319 -75 -343
-65 -8 3 -15 16 -15 29 0 14 -9 36 -21 51 -19 24 -26 26 -95 26 l-75 0 -27
-44 c-25 -40 -30 -43 -59 -39 -38 6 -152 -14 -171 -30 -8 -6 -31 -46 -53 -89
-21 -42 -48 -82 -58 -88 -29 -15 -68 -12 -96 6 -21 14 -25 24 -25 69 0 38 -8
68 -31 114 -29 57 -30 63 -15 80 35 38 1 43 -47 7 -18 -13 -50 -29 -72 -36
-22 -7 -65 -26 -95 -41 -65 -34 -76 -35 -90 -10 -16 32 -12 60 15 87 27 27 25
44 -6 44 -12 0 -19 7 -19 20 0 11 -7 20 -15 20 -18 0 -20 -17 -3 -22 15 -5 1
-28 -16 -28 -8 0 -16 9 -19 20 -7 27 -24 26 -23 -1 1 -35 -18 -32 -34 3 l-13
33 -4 -32 c-5 -41 -34 -44 -68 -7 l-24 25 -11 -22 c-12 -22 -12 -22 -32 10
-11 17 -24 31 -29 31 -17 0 -9 -27 16 -54 31 -33 31 -34 -1 -47 -21 -7 -31 -6
-44 6 -23 21 -33 19 -27 -7 3 -12 2 -29 -4 -39 -6 -12 -5 -20 1 -24 16 -10 2
-25 -23 -25 -39 -1 -120 -53 -157 -103 -65 -85 -127 -270 -98 -288 25 -16 38
-9 38 21 0 17 5 30 11 30 7 0 9 -17 4 -52 -8 -62 -20 -88 -39 -88 -17 0 -29
-27 -16 -35 5 -3 24 2 43 11 28 13 37 25 42 52 9 51 41 109 67 123 19 10 20 9
13 -7 -4 -11 -8 -26 -7 -34 1 -17 27 -119 41 -163 8 -23 6 -28 -12 -32 -12 -2
-31 -3 -42 -3 -11 1 -77 1 -147 0 l-128 -2 0 -55 0 -55 1198 6 c658 3 1235 9
1282 15 47 5 221 9 388 9 l304 0 -7 63 c-6 54 -4 65 14 86 12 13 21 29 21 36
0 7 11 33 25 59 33 61 32 86 -5 121 -30 29 -39 59 -20 70 6 3 10 31 10 61 0
30 2 54 5 54 3 0 23 -9 44 -19 42 -22 164 -26 181 -6 10 13 -4 136 -20 165 -6
10 -10 30 -10 44 0 24 -4 26 -40 26 -42 0 -158 -16 -225 -31 -37 -8 -42 -6
-62 19 -13 15 -23 37 -23 50 0 17 -6 22 -24 22 -22 0 -25 5 -28 43 -2 30 2 48
15 64 17 19 17 25 6 57 -10 29 -18 36 -39 35 -14 0 -35 -7 -47 -16z m401 -412
c49 -52 6 -82 -64 -46 -34 18 -37 31 -13 57 23 26 45 22 77 -11z m-1968 -115
c21 -98 0 -147 -32 -71 -26 63 -29 121 -8 168 l19 42 3 -35 c1 -19 9 -66 18
-104z m-346 64 c22 -22 43 -40 46 -40 4 0 22 -15 40 -34 40 -42 74 -49 114
-25 40 25 65 25 55 2 -14 -34 -18 -103 -6 -103 6 0 11 11 11 25 0 14 5 25 10
25 6 0 10 -7 10 -15 0 -9 9 -15 24 -15 22 0 23 -4 29 -90 4 -68 11 -99 28
-126 11 -19 19 -37 16 -40 -3 -3 -105 -7 -226 -9 -213 -4 -221 -3 -221 16 0
10 -9 36 -20 56 -11 21 -20 48 -20 61 0 12 -13 49 -30 82 -34 68 -36 88 -13
133 32 63 86 137 99 137 8 0 32 -18 54 -40z m1112 -12 c24 -24 55 -51 68 -61
14 -9 36 -25 50 -35 14 -10 50 -19 90 -22 l65 -5 5 -45 c6 -55 33 -64 38 -12
2 23 8 32 21 32 20 0 31 26 31 72 0 49 72 79 84 36 16 -60 1 -117 -44 -176
-13 -16 -20 -50 -25 -117 l-7 -95 -229 0 c-153 0 -229 3 -229 10 0 6 -11 22
-25 36 -39 38 -52 65 -60 114 -4 25 -14 62 -23 84 -13 34 -13 41 0 65 9 14 21
42 27 61 8 24 27 46 59 67 26 18 50 33 54 33 3 0 26 -19 50 -42z m-1886 -106
c11 -43 11 -49 -8 -69 -30 -32 -41 -19 -33 41 13 101 21 106 41 28z m1304 -13
l5 -34 107 0 c126 0 124 4 52 -107 -30 -46 -45 -83 -50 -118 l-7 -50 -106 0
-107 0 4 63 c3 50 -1 74 -18 111 -12 26 -20 49 -18 51 2 2 28 31 58 64 30 33
60 59 65 57 6 -1 12 -18 15 -37z m1301 0 c21 -11 99 -14 169 -7 l25 3 6 -118
c5 -82 12 -125 23 -142 9 -13 16 -27 16 -30 0 -3 -56 -5 -124 -5 l-124 0 -39
48 c-22 26 -45 56 -51 67 -13 24 -4 197 11 206 11 8 53 -3 88 -22z m-2417 5
c9 -4 16 -18 16 -34 0 -47 19 -54 131 -47 74 4 99 2 96 -6 -57 -136 -77 -194
-75 -216 l3 -26 -108 0 c-60 0 -112 2 -116 5 -13 9 -38 83 -45 130 -6 40 -2
54 34 123 23 42 43 77 45 77 2 0 10 -3 19 -6z m1457 -88 c15 -27 35 -74 45
-105 10 -31 28 -67 41 -82 13 -14 23 -28 23 -32 0 -4 -66 -6 -147 -5 l-148 3
-3 35 c-2 25 4 46 22 70 14 19 33 49 42 65 28 51 76 106 88 102 6 -2 23 -25
37 -51z m-1073 -31 c52 -58 103 -178 84 -197 -5 -5 -62 -7 -128 -6 l-119 3 -3
41 c-3 36 5 55 48 128 58 96 61 97 118 31z m1854 2 c3 -28 20 -65 52 -112 l47
-70 -43 -7 c-84 -13 -134 -9 -153 12 -15 17 -16 25 -5 72 8 34 25 67 46 91 19
20 34 42 34 47 0 6 4 10 9 10 4 0 11 -19 13 -43z m486 30 c7 -8 7 -28 0 -62
-11 -54 -29 -81 -47 -71 -12 8 -15 103 -5 130 7 19 37 21 52 3z"/>
</g>
</svg>
