<?xml version="1.0" standalone="no"?>
<!DOCTYPE svg PUBLIC "-//W3C//DTD SVG 20010904//EN"
 "http://www.w3.org/TR/2001/REC-SVG-20010904/DTD/svg10.dtd">
<svg version="1.0" xmlns="http://www.w3.org/2000/svg"
 width="403.000000pt" height="188.000000pt" viewBox="0 0 403.000000 188.000000"
 preserveAspectRatio="xMidYMid meet">
<metadata>
Created by potrace 1.16, written by Peter Selinger 2001-2019
</metadata>
<g transform="translate(0.000000,188.000000) scale(0.100000,-0.100000)"
fill="#000000" stroke="none">
<path d="M3120 1830 c-8 -5 -23 -11 -32 -14 -10 -3 -18 -14 -18 -24 0 -23 -35
-56 -49 -47 -16 9 -71 -55 -71 -82 0 -16 8 -25 25 -29 20 -5 25 -13 25 -36 0
-17 -9 -40 -19 -52 -84 -92 -82 -87 -88 -200 -5 -93 -4 -109 12 -126 19 -21
14 -50 -10 -50 -13 0 -19 12 -16 32 0 4 -11 15 -25 25 -14 10 -34 26 -45 35
-19 18 -40 15 -82 -14 -15 -11 -20 -10 -31 5 -7 9 -18 17 -24 17 -6 0 -16 8
-21 18 -6 9 -11 13 -11 8 0 -5 -9 3 -21 18 -11 14 -17 31 -13 37 4 7 3 9 -3 6
-10 -6 -28 19 -25 35 1 4 -4 5 -11 3 -7 -3 -17 5 -22 17 -6 13 -20 27 -32 33
-13 5 -23 18 -23 27 0 11 -8 18 -19 18 -18 0 -19 3 -9 33 6 17 14 37 19 42 15
20 -7 33 -55 33 -47 0 -76 -14 -76 -37 0 -5 -9 -13 -20 -16 -29 -9 -212 3
-224 15 -6 6 -90 10 -202 10 -118 0 -195 4 -199 10 -3 6 -18 10 -32 10 -52 0
-108 57 -88 90 3 6 -1 7 -9 4 -20 -8 -20 0 0 32 16 23 16 26 -2 39 -23 18 -86
19 -102 3 -7 -7 -12 -24 -12 -39 0 -17 -8 -34 -20 -42 -11 -8 -18 -20 -15 -28
3 -9 -11 -21 -43 -35 -62 -28 -96 -38 -89 -27 3 5 -4 10 -16 10 -17 2 -19 0
-7 -7 10 -7 11 -10 2 -10 -7 0 -16 10 -21 23 -13 33 -81 98 -100 95 -10 -2
-17 -15 -19 -35 -3 -29 -6 -31 -48 -35 -25 -2 -48 0 -50 4 -3 5 -10 8 -17 8
-6 0 -2 -6 9 -14 24 -18 17 -25 -27 -27 -18 -2 -38 -6 -44 -10 -5 -4 -34 -2
-63 3 -55 11 -116 0 -198 -38 -42 -19 -132 -37 -149 -30 -8 3 -14 2 -12 -2 1
-4 -15 -25 -36 -46 -21 -21 -42 -49 -47 -62 -5 -13 -15 -24 -22 -24 -18 0 -23
-51 -22 -208 0 -88 4 -136 12 -144 8 -8 12 -68 12 -199 0 -120 4 -198 12 -216
6 -15 10 -32 9 -36 -1 -5 3 -6 9 -2 17 10 30 -35 38 -129 5 -68 11 -91 25
-100 47 -29 80 51 68 168 -7 76 -1 121 13 98 4 -7 5 -16 2 -20 -3 -5 1 -19 8
-33 21 -42 38 -116 31 -138 -4 -12 -2 -21 4 -21 6 0 11 -11 11 -24 0 -14 5
-28 10 -31 6 -3 10 -15 10 -26 0 -10 5 -19 10 -19 6 0 10 -27 10 -60 0 -66 0
-65 -66 -49 -34 9 -44 15 -39 27 4 11 2 12 -8 4 -7 -6 -22 -9 -34 -6 -11 3
-24 1 -27 -5 -9 -15 -53 -14 -62 1 -4 6 -2 14 4 16 15 5 16 38 2 47 -5 3 -10
15 -10 26 0 10 -5 19 -12 19 -6 0 -9 3 -5 6 6 6 -23 44 -35 44 -3 0 -9 -12
-11 -28 -3 -23 -4 -22 -6 8 0 20 -7 44 -14 55 -7 11 -15 52 -16 90 -6 132 -6
136 -39 167 -18 16 -32 33 -32 38 0 5 -9 14 -21 20 -20 11 -20 10 -13 -52 4
-35 11 -69 17 -76 6 -8 12 -21 13 -30 1 -10 5 -45 9 -78 5 -42 4 -64 -4 -68
-6 -4 -11 -1 -11 8 0 9 -4 16 -10 16 -5 0 -10 6 -10 14 0 17 -31 78 -44 87 -5
4 -7 18 -4 33 3 14 2 23 -2 21 -8 -5 -23 32 -21 48 1 5 -3 6 -8 3 -5 -4 -19 6
-30 21 -17 20 -24 24 -33 15 -9 -9 -9 -15 0 -24 14 -14 16 -54 3 -63 -12 -7 7
-43 41 -76 15 -15 32 -46 38 -70 7 -24 17 -47 22 -50 7 -4 6 -9 -1 -13 -6 -4
-11 -2 -11 3 0 6 -7 11 -16 11 -11 0 -14 -5 -10 -16 3 -9 9 -28 12 -42 4 -21
3 -24 -5 -12 -6 8 -11 23 -11 33 0 9 -4 17 -10 17 -5 0 -10 -7 -10 -16 0 -10
-6 -14 -14 -11 -10 4 -14 -4 -14 -30 0 -20 -6 -40 -14 -45 -10 -8 -9 -9 3 -5
13 4 18 -3 23 -33 3 -22 14 -44 24 -49 15 -9 13 -10 -9 -11 -15 0 -29 -7 -33
-15 -3 -8 -16 -15 -28 -15 -46 -1 -88 -58 -88 -120 l0 -40 2005 0 2005 0 1 25
c1 14 2 34 2 45 2 25 -58 90 -83 90 -10 0 -22 5 -25 10 -3 6 -24 10 -46 10
-21 0 -39 -4 -39 -10 0 -15 -48 -12 -53 3 -2 8 -25 11 -78 9 -41 -2 -113 0
-161 3 l-88 7 0 37 c0 20 4 41 10 47 15 15 14 355 -1 365 -10 6 -10 13 -2 31
11 22 15 52 29 250 l7 86 -35 44 c-19 23 -34 52 -33 63 1 11 2 32 3 48 2 20 7
27 22 27 11 0 20 6 20 14 0 7 7 19 15 26 8 7 15 23 15 35 0 13 4 25 10 27 5 2
15 29 21 61 9 52 8 62 -10 93 -12 19 -21 46 -21 60 0 13 -3 24 -7 24 -8 0 -10
12 -17 83 -1 20 -7 41 -11 45 -5 4 -5 1 -1 -5 4 -8 1 -13 -8 -13 -9 0 -16 9
-16 20 0 29 -2 33 -30 56 -14 12 -41 24 -60 27 -58 8 -97 34 -104 67 -5 29 -8
30 -58 29 -29 0 -60 -4 -68 -9z m97 -316 c5 -13 7 -13 14 -2 6 9 9 7 9 -9 0
-35 -18 -73 -35 -73 -11 0 -15 12 -15 50 0 48 14 67 27 34z m-870 -291 c6 -15
83 -53 106 -53 8 0 20 -7 27 -15 7 -8 16 -12 22 -9 5 3 20 -2 34 -11 13 -9 29
-13 34 -10 6 3 10 1 10 -5 0 -6 9 -20 20 -32 21 -23 27 -82 10 -93 -14 -9 -13
-232 1 -241 6 -3 8 -15 6 -26 -3 -11 -2 -28 2 -37 5 -9 17 -34 27 -55 39 -81
54 -104 84 -130 36 -30 79 -34 115 -10 13 9 28 13 34 10 5 -3 7 2 4 13 -3 10
0 22 6 25 7 5 11 88 11 257 0 159 4 249 10 249 6 0 10 -24 10 -54 0 -30 4 -57
10 -61 5 -3 6 -13 3 -21 -4 -10 1 -17 14 -20 29 -8 35 -96 27 -426 -6 -229
-10 -278 -21 -278 -8 0 -12 4 -9 8 2 4 -21 7 -52 5 -358 -18 -495 -12 -533 23
-18 16 -19 29 -17 142 3 107 5 126 21 133 9 5 25 13 35 18 24 12 27 39 6 62
-13 15 -19 16 -25 7 -10 -16 -80 19 -86 43 -3 9 -14 16 -26 15 -17 -1 -23 -8
-25 -31 -2 -16 -12 -39 -22 -50 -9 -11 -26 -37 -35 -58 -17 -36 -52 -67 -135
-120 -59 -38 -78 -94 -59 -177 3 -12 -12 -16 -85 -18 -49 -2 -97 0 -105 4 -9
3 -39 6 -67 5 -47 -2 -54 0 -73 27 -11 17 -21 35 -21 40 0 6 -10 23 -23 39
-13 15 -27 36 -30 46 -8 20 14 147 24 147 4 0 13 20 20 45 7 25 18 45 24 45 5
0 3 5 -5 10 -10 6 -11 10 -3 10 8 0 11 10 7 28 -4 19 -1 32 10 41 9 8 16 21
16 30 0 10 11 28 24 41 14 12 28 35 31 51 4 16 11 29 16 29 6 0 7 5 4 11 -4 6
-4 26 0 45 5 29 14 39 43 52 60 27 87 54 113 110 19 42 36 62 82 93 33 21 78
44 100 51 23 6 48 16 55 21 35 27 190 34 199 10z m903 -232 c0 -82 4 -151 8
-153 5 -2 12 -22 16 -46 5 -34 4 -42 -6 -36 -7 5 -3 -5 10 -20 13 -17 22 -43
22 -62 0 -19 4 -34 9 -34 11 0 11 -191 0 -205 -4 -6 -9 -49 -11 -95 -2 -68 -6
-85 -18 -85 -8 0 -24 -5 -36 -12 -16 -10 -27 -8 -60 11 l-39 22 2 168 c1 102
6 173 13 180 14 14 13 62 -2 86 -10 16 -10 24 0 40 16 25 16 144 0 170 -10 15
-10 22 0 32 15 15 16 50 1 65 -9 9 -8 21 5 46 9 19 16 41 16 49 0 21 10 28 42
28 l28 0 0 -149z m-508 37 c5 -9 10 -9 21 0 7 7 17 9 20 5 4 -3 7 -2 7 3 0 5
14 10 30 11 l30 2 -1 -217 c-1 -237 -8 -284 -48 -290 -15 -2 -21 0 -17 7 4 6
1 9 -7 5 -9 -3 -22 8 -35 28 -12 18 -31 45 -43 60 -18 22 -23 43 -27 126 -2
55 -1 143 3 195 l7 96 26 -10 c15 -6 30 -15 34 -21z m-2131 -90 c23 -31 24
-57 5 -95 -8 -15 -19 -39 -24 -53 -7 -18 -9 7 -9 89 1 63 3 108 5 100 3 -8 13
-26 23 -41z m354 22 c5 8 12 7 23 -3 10 -8 25 -17 35 -20 9 -4 17 -14 17 -22
0 -9 4 -14 9 -11 9 6 99 -21 118 -36 17 -14 176 -13 181 1 2 6 15 11 28 11 18
0 24 -5 24 -23 0 -32 18 -47 59 -48 29 0 32 -2 16 -9 -18 -8 -18 -9 -2 -9 17
-1 18 -12 14 -160 -2 -99 -8 -165 -15 -173 -6 -8 -14 -34 -17 -58 -4 -25 -8
-56 -11 -70 -4 -20 -2 -22 7 -10 9 12 10 11 6 -7 -4 -16 -1 -20 11 -16 11 5
14 2 9 -11 -4 -10 -3 -15 3 -11 6 4 10 -12 10 -39 0 -40 -3 -46 -21 -46 -15 0
-19 4 -15 16 5 14 4 15 -9 4 -18 -15 -148 -7 -153 10 -3 7 -8 7 -15 1 -7 -5
-77 -12 -157 -15 -80 -3 -160 -8 -177 -12 -29 -5 -33 -4 -33 14 0 11 -16 39
-35 63 -20 23 -34 48 -31 56 4 9 1 11 -6 7 -8 -5 -9 -2 -5 10 4 10 3 15 -3 11
-14 -9 -40 50 -47 106 -3 27 -10 52 -14 55 -13 8 -11 74 2 74 8 0 8 4 0 14 -7
8 -8 17 -3 20 6 3 12 20 15 38 8 47 30 122 39 128 4 3 9 16 11 28 2 12 6 25
10 28 4 4 7 21 7 38 0 60 9 76 40 70 16 -4 31 -1 35 5 5 9 10 9 20 1 10 -8 15
-8 20 0z m1308 -682 c4 -18 9 -43 13 -55 5 -20 3 -23 -19 -23 -19 0 -26 6 -29
23 -2 15 -11 23 -29 25 -35 4 -29 34 9 49 43 17 49 15 55 -19z"/>
<path d="M2926 1667 c3 -10 9 -15 12 -12 3 3 0 11 -7 18 -10 9 -11 8 -5 -6z"/>
</g>
</svg>
