<?xml version="1.0" standalone="no"?>
<!DOCTYPE svg PUBLIC "-//W3C//DTD SVG 20010904//EN"
 "http://www.w3.org/TR/2001/REC-SVG-20010904/DTD/svg10.dtd">
<svg version="1.0" xmlns="http://www.w3.org/2000/svg"
 width="229.000000pt" height="188.000000pt" viewBox="0 0 229.000000 188.000000"
 preserveAspectRatio="xMidYMid meet">
<metadata>
Created by potrace 1.16, written by Peter Selinger 2001-2019
</metadata>
<g transform="translate(0.000000,188.000000) scale(0.100000,-0.100000)"
fill="#000000" stroke="none">
<path d="M350 1697 c0 -8 9 -22 20 -32 11 -10 20 -22 20 -27 0 -17 -28 -7 -55
22 -16 17 -32 30 -37 30 -19 0 -6 -52 22 -83 17 -19 33 -49 36 -67 6 -28 2
-36 -29 -65 -19 -18 -47 -55 -61 -83 -14 -27 -43 -71 -66 -97 -63 -73 -65
-110 -8 -145 38 -23 81 -26 97 -6 6 7 38 23 70 35 32 11 66 30 76 41 33 36 52
25 109 -63 29 -45 73 -105 96 -132 40 -46 110 -174 110 -201 0 -7 11 -26 25
-42 37 -44 60 -175 81 -464 6 -72 4 -92 -10 -112 -9 -14 -16 -32 -16 -40 0
-17 58 -32 72 -18 18 18 28 86 28 195 0 59 4 107 9 107 5 0 18 -31 31 -69 21
-66 23 -103 8 -211 -2 -20 2 -26 23 -28 49 -6 54 15 51 192 -2 118 -7 182 -22
244 -11 46 -20 103 -20 128 0 53 -1 53 135 23 84 -19 102 -20 143 -9 69 19
112 43 170 95 31 28 58 45 67 42 8 -4 23 -24 35 -47 11 -22 43 -65 70 -95 33
-37 51 -66 56 -92 3 -21 15 -54 26 -73 45 -78 61 -226 37 -345 -17 -85 -16
-100 6 -103 44 -6 55 16 67 143 6 66 14 124 18 128 9 10 31 -214 23 -241 -9
-37 55 -52 80 -18 4 6 5 74 1 151 -4 100 -2 136 5 125 6 -8 11 -25 11 -36 0
-12 6 -27 14 -33 18 -15 28 10 20 47 -5 26 -5 26 24 -8 17 -19 34 -32 37 -28
12 12 -3 55 -31 88 -15 17 -24 33 -21 36 2 3 14 -6 25 -20 11 -15 25 -26 31
-26 17 0 13 25 -10 54 -22 28 -21 48 1 21 7 -8 16 -15 21 -15 15 0 10 30 -6
36 -15 6 -75 91 -75 106 0 5 9 6 20 3 24 -8 26 11 4 40 -26 35 -56 156 -63
260 -6 79 -12 108 -28 131 -11 16 -31 53 -43 82 -28 65 -72 105 -167 150 -84
40 -98 40 -353 3 -189 -27 -227 -26 -330 10 -47 17 -120 38 -162 48 -85 21
-132 45 -222 115 -32 25 -67 48 -76 51 -10 3 -29 22 -43 43 -39 59 -141 162
-160 162 -9 0 -17 -6 -17 -13z m1514 -832 c6 -116 19 -237 31 -270 13 -39 -34
28 -51 72 -13 35 -16 67 -12 166 4 109 12 156 24 145 2 -2 6 -53 8 -113z"/>
</g>
</svg>
