<?xml version="1.0" standalone="no"?>
<!DOCTYPE svg PUBLIC "-//W3C//DTD SVG 20010904//EN"
 "http://www.w3.org/TR/2001/REC-SVG-20010904/DTD/svg10.dtd">
<svg version="1.0" xmlns="http://www.w3.org/2000/svg"
 width="368.000000pt" height="270.000000pt" viewBox="0 0 368.000000 270.000000"
 preserveAspectRatio="xMidYMid meet">
<metadata>
Created by potrace 1.16, written by Peter Selinger 2001-2019
</metadata>
<g transform="translate(0.000000,270.000000) scale(0.100000,-0.100000)"
fill="#000000" stroke="none">
<path d="M2857 2405 c-10 -9 -17 -29 -17 -45 0 -34 -19 -43 -60 -28 -17 5 -34
7 -38 4 -11 -12 27 -70 58 -88 39 -22 31 -39 -33 -69 -42 -19 -57 -34 -78 -73
-23 -42 -26 -57 -22 -115 4 -44 11 -73 24 -86 14 -15 16 -30 12 -62 l-6 -43
-98 0 -98 0 -43 -37 c-86 -74 -122 -162 -130 -317 -3 -40 -8 -53 -31 -70 -37
-27 -127 -29 -156 -2 -12 11 -21 14 -21 8 0 -6 11 -19 25 -28 24 -15 37 -16
170 -2 23 2 30 -1 32 -17 2 -11 7 -42 13 -70 38 -208 61 -424 61 -575 0 -47 1
-120 2 -162 l2 -77 -188 3 c-104 2 -215 1 -246 -4 -69 -9 -78 -6 -86 31 -4 16
-24 50 -46 76 -48 58 -56 95 -41 199 7 44 12 98 12 121 0 22 7 57 15 76 8 20
15 53 15 74 0 21 8 50 18 64 78 115 105 164 108 194 3 32 58 155 70 155 3 0
14 -5 25 -11 16 -8 25 -7 41 8 36 33 49 71 47 136 -2 34 0 89 5 123 6 49 5 63
-8 73 -22 18 -20 39 9 93 28 52 32 104 11 133 -20 28 -43 12 -63 -44 -19 -55
-27 -61 -65 -54 -20 4 -32 17 -47 54 -12 27 -27 49 -35 49 -32 0 -47 -94 -24
-156 10 -29 9 -37 -15 -73 -15 -22 -39 -48 -54 -58 -16 -9 -47 -34 -70 -56
-49 -47 -69 -44 -78 10 -19 107 -38 128 -108 118 -29 -4 -47 0 -71 15 -30 18
-44 19 -145 13 -103 -6 -116 -9 -152 -35 -35 -25 -46 -28 -83 -23 -59 9 -81
-12 -70 -69 4 -23 8 -57 8 -76 l1 -35 -83 -8 c-57 -5 -107 -17 -156 -37 -63
-26 -78 -38 -107 -81 -19 -28 -42 -67 -52 -87 -11 -20 -27 -46 -37 -57 -10
-11 -28 -51 -40 -90 -20 -66 -20 -77 -9 -203 10 -112 15 -134 31 -143 10 -5
22 -8 27 -5 4 3 11 49 15 102 4 53 12 108 18 123 5 14 13 55 16 90 4 35 12 66
19 68 6 2 21 -15 32 -39 11 -24 30 -59 41 -78 32 -54 18 -116 -41 -190 -28
-35 -29 -36 -28 -185 0 -121 3 -155 16 -175 9 -14 20 -41 24 -60 4 -19 10 -44
14 -56 6 -18 0 -24 -34 -38 -23 -9 -49 -16 -59 -16 -10 0 -27 -7 -38 -15 -16
-13 -17 -16 -4 -24 17 -12 2666 -8 2677 3 4 4 -6 18 -22 31 -22 17 -43 24 -75
25 -25 0 -61 5 -82 10 -34 10 -36 14 -42 58 -9 66 -9 76 3 183 6 53 18 116 26
139 8 23 15 59 15 80 0 66 19 138 47 181 21 31 28 55 29 98 1 31 11 76 23 101
11 25 21 62 21 82 0 31 5 40 29 52 43 23 53 59 73 255 12 119 12 167 3 229 -6
35 -4 47 13 65 39 43 52 90 36 131 -7 18 -34 22 -34 6 0 -6 -19 -31 -41 -55
-35 -38 -47 -45 -79 -45 -32 0 -44 7 -79 45 -22 24 -41 51 -41 60 0 10 -10 15
-29 15 -16 0 -55 16 -87 35 -85 50 -91 55 -77 61 44 20 78 52 78 74 0 22 -5
25 -42 28 -34 3 -43 7 -43 22 0 28 -21 70 -35 70 -7 0 -26 3 -42 6 -21 4 -35
1 -46 -11z m294 -435 c13 -43 9 -58 -31 -110 -14 -19 -22 -22 -31 -13 -9 9 -7
20 10 46 12 21 21 51 21 76 0 52 16 53 31 1z m-567 -728 c5 -22 6 -53 2 -67
-6 -22 -9 -25 -22 -14 -8 7 -12 19 -9 27 3 8 1 30 -5 48 -6 19 -8 38 -5 44 13
20 30 3 39 -38z m254 -120 c29 -2 54 -7 56 -11 2 -3 0 -62 -5 -131 -5 -80 -5
-159 2 -219 11 -98 -3 -296 -21 -315 -6 -6 -26 -4 -51 3 -34 10 -47 10 -65 0
-31 -16 -54 2 -54 44 0 16 -11 53 -24 81 -46 100 -70 304 -47 398 5 21 22 53
38 70 80 90 89 97 103 91 8 -3 39 -8 68 -11z m-1718 -45 c51 -43 149 -77 224
-77 33 0 104 12 159 26 113 30 116 29 118 -46 1 -25 1 -48 1 -51 -1 -4 -4 -58
-7 -120 -3 -63 -11 -138 -16 -167 -7 -33 -7 -57 -1 -65 5 -7 12 -28 15 -47 4
-19 9 -45 13 -57 6 -22 6 -22 -127 -23 -74 0 -201 -3 -284 -5 -159 -4 -165 -2
-165 44 0 13 -13 40 -29 60 -29 36 -54 116 -67 208 -5 39 0 69 20 135 14 47
26 94 26 103 0 21 60 115 73 115 5 0 26 -15 47 -33z m1960 -73 c0 -47 -5 -95
-11 -106 -13 -24 -31 -233 -32 -361 0 -83 -1 -87 -22 -87 -20 0 -23 7 -31 63
-11 81 -7 177 7 213 7 17 13 85 14 159 1 129 7 157 43 197 25 29 32 11 32 -78z
m-1347 -171 c3 -5 0 -54 -5 -110 l-10 -103 35 -62 c48 -87 54 -108 29 -108
-13 0 -24 11 -32 33 -7 17 -24 49 -38 70 -24 36 -25 41 -18 154 4 64 9 120 12
125 6 10 21 10 27 1z m809 -125 c3 -57 10 -114 15 -128 6 -14 16 -47 22 -74 9
-39 9 -51 -1 -58 -33 -20 -51 2 -54 69 -8 154 -11 289 -7 296 13 21 21 -13 25
-105z m-1662 -25 c1 -44 8 -73 30 -118 17 -33 30 -75 30 -93 0 -48 -24 -36
-31 16 -3 23 -14 55 -26 70 -20 27 -40 152 -28 172 15 24 25 5 25 -47z"/>
</g>
</svg>
