<?xml version="1.0" standalone="no"?>
<!DOCTYPE svg PUBLIC "-//W3C//DTD SVG 20010904//EN"
 "http://www.w3.org/TR/2001/REC-SVG-20010904/DTD/svg10.dtd">
<svg version="1.0" xmlns="http://www.w3.org/2000/svg"
 width="289.000000pt" height="301.000000pt" viewBox="0 0 289.000000 301.000000"
 preserveAspectRatio="xMidYMid meet">
<metadata>
Created by potrace 1.16, written by Peter Selinger 2001-2019
</metadata>
<g transform="translate(0.000000,301.000000) scale(0.100000,-0.100000)"
fill="#000000" stroke="none">
<path d="M1125 2796 c-18 -13 -20 -24 -17 -145 l3 -131 -37 0 -37 0 6 -37 c4
-21 20 -65 37 -99 36 -73 36 -81 8 -111 l-21 -23 19 -57 c41 -122 88 -157 195
-149 105 8 117 -21 38 -94 -44 -41 -52 -53 -56 -93 -8 -69 -33 -88 -149 -116
-126 -31 -226 -25 -419 24 -182 45 -233 45 -375 0 -85 -28 -114 -42 -134 -66
-35 -41 -39 -61 -34 -176 3 -94 5 -102 55 -208 65 -136 71 -164 60 -283 -7
-75 -6 -107 7 -158 10 -41 16 -107 16 -188 0 -145 20 -259 52 -293 23 -25 75
-31 83 -10 3 6 7 102 8 212 3 229 7 244 86 335 26 30 59 73 73 95 41 65 47 68
111 51 31 -8 88 -18 127 -22 50 -5 73 -11 79 -23 4 -9 14 -72 21 -141 6 -69
18 -163 26 -210 8 -47 14 -103 14 -125 0 -54 27 -155 47 -178 9 -10 26 -17 36
-15 19 3 20 16 23 326 2 199 8 330 14 342 15 29 60 37 76 15 19 -25 34 -107
41 -215 3 -52 11 -117 18 -145 8 -27 17 -88 20 -135 8 -102 46 -193 83 -198
16 -3 22 2 22 15 0 10 1 137 2 283 l3 265 27 55 c19 37 43 66 75 90 68 50 93
105 103 230 6 78 12 105 29 126 12 15 21 37 21 49 0 12 11 59 25 105 20 67 25
105 25 193 0 138 16 182 64 173 94 -19 132 -18 184 4 64 28 102 70 102 113 0
43 -9 55 -45 59 -54 6 -39 30 56 93 89 59 197 161 234 220 11 17 47 74 82 127
47 72 63 105 63 132 0 19 -4 38 -10 41 -17 11 -50 -15 -65 -50 -18 -44 -30
-44 -56 0 -33 56 -45 45 -52 -44 -3 -46 -13 -97 -25 -122 -30 -67 -109 -169
-131 -169 -17 0 -19 9 -23 104 -2 85 -6 108 -22 125 -32 35 -44 11 -44 -91 0
-69 -4 -94 -16 -107 -24 -23 -50 -3 -56 45 -6 47 -36 60 -46 19 -10 -40 3 -84
37 -122 27 -32 29 -37 16 -56 -7 -12 -33 -32 -58 -45 -44 -23 -64 -24 -141 -6
-23 5 -29 2 -39 -19 -13 -28 -67 -57 -109 -57 -57 0 -107 28 -124 70 -19 48
-26 52 -63 38 -27 -10 -36 -8 -78 18 -67 41 -72 51 -56 126 9 45 26 83 58 130
44 64 46 70 51 156 2 50 2 102 -2 116 -6 26 -29 35 -41 16 -9 -14 -35 -118
-35 -139 0 -36 -42 -121 -60 -121 -36 0 -44 27 -42 134 3 116 -8 148 -43 122z
m35 -367 c0 -18 -5 -29 -14 -29 -18 0 -28 40 -14 57 15 19 28 6 28 -28z"/>
</g>
</svg>
