<?xml version="1.0" standalone="no"?>
<!DOCTYPE svg PUBLIC "-//W3C//DTD SVG 20010904//EN"
 "http://www.w3.org/TR/2001/REC-SVG-20010904/DTD/svg10.dtd">
<svg version="1.0" xmlns="http://www.w3.org/2000/svg"
 width="228.000000pt" height="170.000000pt" viewBox="0 0 228.000000 170.000000"
 preserveAspectRatio="xMidYMid meet">
<metadata>
Created by potrace 1.16, written by Peter Selinger 2001-2019
</metadata>
<g transform="translate(0.000000,170.000000) scale(0.100000,-0.100000)"
fill="#000000" stroke="none">
<path d="M1752 1656 c-10 -13 -31 -26 -47 -28 -43 -5 -52 -29 -25 -65 12 -17
19 -36 16 -42 -4 -6 -2 -11 4 -11 6 0 8 -5 5 -10 -4 -6 -10 -8 -15 -5 -5 3
-25 -14 -44 -38 -35 -43 -47 -89 -26 -102 6 -4 5 -13 -2 -25 -10 -16 -9 -25 5
-49 9 -16 17 -38 17 -49 0 -18 -8 -20 -76 -24 -76 -3 -76 -4 -115 -48 -41 -47
-67 -115 -72 -187 -3 -54 -36 -93 -77 -93 -34 0 -39 18 -17 60 16 31 21 228 7
245 -7 8 -5 19 7 36 40 55 43 65 25 100 -27 55 -91 45 -92 -13 0 -28 -38 -22
-46 6 -3 14 -3 30 1 35 12 20 -51 12 -70 -9 -15 -16 -16 -30 -10 -84 5 -55 4
-69 -12 -90 -10 -14 -25 -26 -33 -26 -8 0 -29 -14 -47 -32 l-33 -32 0 40 c0
58 -16 74 -82 83 -31 4 -63 13 -70 19 -34 28 -212 6 -233 -29 -4 -5 -11 -9
-16 -9 -6 0 -8 4 -5 8 3 4 -9 7 -26 6 -47 -3 -61 -24 -61 -91 l0 -58 -49 -2
c-29 -2 -76 -15 -112 -32 -62 -28 -97 -66 -136 -147 -8 -17 -20 -37 -26 -45
-29 -38 -41 -308 -14 -317 6 -2 10 -10 10 -19 0 -19 40 -14 51 7 4 8 12 60 18
115 6 55 14 110 18 123 l6 23 18 -28 c11 -16 16 -36 13 -47 -4 -12 -2 -16 5
-12 14 9 14 -3 0 -43 -6 -17 -20 -36 -30 -42 -10 -5 -18 -13 -18 -17 1 -4 0
-11 -1 -17 -6 -29 3 -261 11 -269 14 -16 11 -69 -3 -60 -10 6 -10 5 -1 -7 11
-14 0 -15 -94 -15 -144 1 -153 -5 -153 -115 l0 -79 1121 0 c1283 0 1148 -12
1149 102 0 86 -8 91 -152 92 -58 1 -110 5 -115 9 -15 15 -12 200 3 218 8 8 16
46 18 82 3 37 8 71 11 77 4 6 8 22 11 36 3 14 12 37 21 51 9 14 16 42 15 64
-1 23 7 58 18 81 11 23 20 47 20 53 0 7 11 25 25 41 31 35 32 39 45 194 6 76
6 140 1 163 -7 30 -6 39 5 44 23 9 39 54 36 101 -3 37 -6 42 -28 42 -13 0 -24
-4 -24 -9 0 -5 -17 -25 -37 -45 -38 -37 -70 -48 -60 -22 4 10 1 13 -7 10 -15
-6 -56 40 -56 62 0 20 -19 27 -35 14 -11 -9 -15 -9 -15 -1 0 7 -6 11 -12 9 -7
-1 -25 6 -40 16 l-28 18 26 20 c35 28 31 81 -6 87 -36 5 -59 51 -25 51 8 0 15
5 15 10 0 6 -28 10 -64 10 -56 0 -67 -3 -84 -24z m-489 -821 c38 -19 46 -19
86 1 18 9 34 14 36 13 1 -2 8 -40 15 -84 7 -44 16 -89 20 -100 18 -42 31 -311
22 -417 l-5 -48 -53 0 c-29 0 -56 5 -59 11 -4 6 -13 8 -21 5 -7 -3 -16 0 -20
6 -5 7 -10 6 -15 -4 -6 -12 -28 -15 -89 -15 -71 0 -80 2 -80 18 0 10 -5 21
-10 24 -6 4 -8 10 -5 15 3 4 -6 15 -19 23 -13 9 -26 28 -29 43 -7 40 9 223 22
238 6 7 13 34 15 60 3 37 12 55 50 100 33 39 46 63 46 85 0 18 7 48 16 69 l15
37 16 -32 c8 -18 29 -40 46 -48z m497 -165 l28 0 -4 -137 c-1 -77 1 -142 7
-149 6 -7 5 -30 -1 -63 -5 -29 -9 -55 -9 -59 1 -4 1 -19 0 -34 -1 -25 -3 -27
-51 -25 -46 2 -50 4 -50 26 0 14 -8 33 -17 43 -9 10 -18 28 -19 41 -1 12 -8
58 -14 102 -17 117 -7 171 38 222 20 23 43 40 50 37 8 -2 26 -4 42 -4z m-1188
-62 c43 -15 68 -18 133 -13 44 4 97 11 118 15 l39 8 -6 -136 c-4 -76 -8 -153
-9 -172 -1 -19 1 -51 5 -71 l6 -36 -190 -1 -190 -1 4 24 c4 17 -3 32 -22 50
-19 18 -30 42 -35 71 -3 24 -10 46 -16 49 -15 10 -11 71 6 85 8 7 13 15 11 19
-11 16 25 127 46 144 21 18 23 18 35 1 7 -9 36 -26 65 -36z m1366 -6 c2 -12
-2 -22 -8 -22 -6 0 -9 -8 -5 -18 6 -21 -18 -76 -28 -65 -11 10 -8 43 4 43 6 0
7 5 2 13 -7 12 -5 55 4 70 9 14 28 1 31 -21z m-43 -260 c-6 -39 -9 -43 -16
-25 -4 12 -3 37 4 58 14 48 21 28 12 -33z"/>
</g>
</svg>
