<?xml version="1.0" standalone="no"?>
<!DOCTYPE svg PUBLIC "-//W3C//DTD SVG 20010904//EN"
 "http://www.w3.org/TR/2001/REC-SVG-20010904/DTD/svg10.dtd">
<svg version="1.0" xmlns="http://www.w3.org/2000/svg"
 width="165.000000pt" height="216.000000pt" viewBox="0 0 165.000000 216.000000"
 preserveAspectRatio="xMidYMid meet">
<metadata>
Created by potrace 1.16, written by Peter Selinger 2001-2019
</metadata>
<g transform="translate(0.000000,216.000000) scale(0.100000,-0.100000)"
fill="#000000" stroke="none">
<path d="M699 2061 c-40 -31 -86 -51 -117 -51 -24 0 -32 -6 -42 -32 -6 -18
-15 -40 -20 -48 -11 -20 -66 -17 -91 6 -17 15 -24 16 -62 4 -56 -18 -77 -37
-77 -70 0 -36 -16 -48 -70 -52 -40 -3 -45 -6 -52 -34 -4 -17 -17 -39 -28 -49
-28 -26 -25 -43 15 -81 32 -30 35 -36 29 -73 -8 -52 -25 -65 -82 -66 l-47 0
-7 -75 c-12 -116 -12 -130 0 -142 7 -7 12 -22 12 -35 0 -27 2 -27 54 -9 26 9
43 23 51 42 16 37 51 69 60 55 3 -6 3 -15 0 -21 -11 -18 15 -50 40 -50 20 0
25 -5 25 -24 0 -33 -23 -50 -49 -37 -29 16 -41 13 -41 -8 0 -11 9 -23 20 -26
44 -14 13 -44 -46 -45 -11 0 -33 -14 -49 -30 -16 -17 -34 -29 -39 -29 -39 5
-48 -21 -21 -57 22 -29 39 -94 36 -141 -3 -43 23 -83 53 -83 8 0 18 -9 21 -20
3 -11 15 -25 26 -30 11 -6 19 -21 19 -36 0 -19 8 -28 34 -39 26 -11 35 -22 38
-42 3 -25 7 -28 38 -26 19 1 42 -1 50 -4 8 -4 32 -8 53 -9 43 -3 47 10 17 49
-19 24 -27 67 -14 79 3 3 24 -5 47 -18 23 -13 53 -29 67 -35 14 -6 36 -17 49
-23 13 -6 31 -26 39 -44 15 -30 14 -40 -2 -118 -13 -61 -16 -106 -11 -162 5
-64 -3 -202 -17 -262 -2 -13 25 -16 162 -21 91 -3 168 -4 173 -2 4 2 -4 23
-17 46 -24 42 -37 143 -53 405 -8 126 22 166 124 168 54 1 68 5 82 22 11 14
32 23 68 28 51 6 52 6 92 -35 22 -23 45 -50 51 -61 11 -21 11 -21 40 2 16 13
29 33 29 44 1 12 8 27 16 34 8 7 15 25 15 40 0 42 31 74 71 75 32 0 34 2 37
36 2 23 -2 40 -12 49 -27 22 -20 87 14 130 19 24 30 50 30 69 0 22 7 35 28 48
36 23 43 34 38 57 -3 11 -1 26 5 32 6 7 9 23 7 36 -2 18 -10 24 -38 26 -52 5
-58 17 -26 51 33 34 29 67 -10 77 -31 8 -31 30 1 38 34 9 33 41 -2 58 -24 12
-28 19 -28 58 0 43 -1 45 -32 48 -42 4 -44 30 -3 39 33 6 33 5 32 80 -1 64 -6
73 -38 73 -14 0 -34 10 -43 22 -21 26 -37 18 -46 -22 -7 -34 -10 -35 -48 -17
-28 13 -36 44 -16 64 16 16 -8 100 -31 113 -12 6 -35 3 -71 -9 -59 -21 -79
-18 -55 8 20 22 20 35 1 51 -12 10 -21 10 -41 2 -20 -10 -30 -9 -49 4 -30 19
-58 14 -110 -22 l-39 -26 -16 22 c-14 19 -23 22 -54 16 -34 -7 -37 -5 -42 22
-5 23 -13 31 -36 36 -42 8 -42 8 -69 -13z m331 -196 c0 -3 -7 -17 -16 -31 -9
-13 -20 -39 -23 -56 -7 -33 -31 -51 -31 -24 0 23 48 116 60 116 6 0 10 -2 10
-5z m-390 -63 c0 -4 -20 -27 -45 -51 -35 -34 -49 -41 -57 -33 -7 7 -20 12 -30
12 -10 0 -18 7 -18 15 0 8 7 15 15 15 8 0 23 9 33 20 11 12 26 18 35 14 9 -3
24 -1 34 5 22 13 33 14 33 3z m563 -275 c6 -16 -19 -77 -31 -77 -13 0 -20 56
-10 74 11 19 34 21 41 3z m-715 -239 c-2 -17 -8 -33 -15 -35 -17 -6 -27 35
-13 52 20 24 31 17 28 -17z m226 1 c36 -42 35 -124 0 -101 -20 13 -66 102 -60
117 9 24 32 18 60 -16z m-74 -104 c0 -23 37 -59 71 -70 49 -16 79 -79 79 -166
0 -48 -5 -72 -16 -83 -21 -21 -27 -20 -52 9 -12 13 -38 33 -60 44 -21 11 -43
25 -49 33 -16 20 -26 237 -12 254 13 16 39 2 39 -21z m315 -12 c14 -21 25 -41
25 -45 0 -14 -72 -158 -82 -164 -17 -10 -31 13 -39 63 -4 27 -10 66 -15 87 -7
36 -5 41 27 67 19 16 39 29 46 29 7 0 24 -17 38 -37z m-445 -49 c0 -89 -34
-108 -76 -44 -30 45 -26 70 9 70 14 0 30 7 37 15 19 23 30 8 30 -41z m650 -4
c0 -34 -27 -89 -62 -124 -18 -18 -41 -45 -51 -59 -19 -29 -47 -36 -47 -12 0
30 92 185 119 200 35 19 41 18 41 -5z m-752 -193 c45 -33 49 -43 28 -72 -13
-18 -15 -18 -37 -2 -13 10 -41 28 -61 42 -43 29 -51 62 -15 67 26 5 30 3 85
-35z m852 -40 c0 -21 -38 -51 -112 -91 -45 -24 -68 -32 -68 -23 0 20 38 57 74
73 17 7 45 22 61 34 35 23 45 25 45 7z m-351 -39 c5 -13 5 -30 0 -39 -10 -19
-84 -61 -92 -52 -8 7 14 53 25 53 5 0 14 14 19 30 13 35 36 39 48 8z m-291
-63 c12 -9 22 -26 22 -40 0 -26 -18 -33 -38 -13 -6 6 -33 19 -59 28 -40 14
-48 21 -45 40 1 13 7 29 13 36 10 12 28 4 107 -51z m-254 3 c14 -19 14 -24 2
-36 -19 -20 -36 -6 -36 29 0 35 13 37 34 7z"/>
</g>
</svg>
