<?xml version="1.0" standalone="no"?>
<!DOCTYPE svg PUBLIC "-//W3C//DTD SVG 20010904//EN"
 "http://www.w3.org/TR/2001/REC-SVG-20010904/DTD/svg10.dtd">
<svg version="1.0" xmlns="http://www.w3.org/2000/svg"
 width="171.000000pt" height="163.000000pt" viewBox="0 0 171.000000 163.000000"
 preserveAspectRatio="xMidYMid meet">
<metadata>
Created by potrace 1.16, written by Peter Selinger 2001-2019
</metadata>
<g transform="translate(0.000000,163.000000) scale(0.100000,-0.100000)"
fill="#000000" stroke="none">
<path d="M1410 1573 c-19 -2 -78 -12 -130 -23 -52 -10 -115 -22 -140 -25 -42
-7 -216 -51 -355 -90 -53 -15 -123 -30 -455 -100 -41 -8 -100 -24 -130 -35
-30 -10 -74 -24 -97 -30 -24 -6 -43 -15 -43 -20 0 -14 28 -12 75 5 22 8 46 14
53 15 19 0 15 -208 -9 -428 -19 -171 -20 -203 -9 -275 12 -80 10 -210 -6 -459
l-6 -98 771 0 c507 0 771 3 771 10 0 6 -58 10 -155 10 l-155 0 0 40 0 40 83 0
84 0 -4 82 c-2 46 -8 133 -14 193 -7 70 -9 233 -5 445 5 331 12 450 24 450 13
0 42 -62 42 -88 0 -44 24 -8 25 38 1 29 7 44 23 56 30 21 28 34 -11 72 -35 34
-56 39 -88 22 -14 -8 -27 -7 -48 5 -38 19 -51 19 -51 0 0 -8 7 -15 15 -15 8 0
15 -6 15 -14 0 -10 -11 -14 -38 -12 -60 3 -63 9 -59 94 l4 77 54 10 c64 13 79
21 79 41 0 14 -27 16 -110 7z m-5 -310 c-9 -22 -7 -924 2 -1007 5 -48 3 -58
-8 -54 -12 4 -15 84 -21 464 -7 507 -4 614 19 614 10 0 13 -6 8 -17z m-565
-103 c0 -5 -9 -24 -20 -42 -40 -67 -17 -160 52 -205 53 -36 49 -47 -17 -40
-99 10 -151 57 -162 145 -7 60 3 77 76 124 46 29 71 35 71 18z"/>
</g>
</svg>
