<?xml version="1.0" standalone="no"?>
<!DOCTYPE svg PUBLIC "-//W3C//DTD SVG 20010904//EN"
 "http://www.w3.org/TR/2001/REC-SVG-20010904/DTD/svg10.dtd">
<svg version="1.0" xmlns="http://www.w3.org/2000/svg"
 width="340.000000pt" height="255.000000pt" viewBox="0 0 340.000000 255.000000"
 preserveAspectRatio="xMidYMid meet">
<metadata>
Created by potrace 1.16, written by Peter Selinger 2001-2019
</metadata>
<g transform="translate(0.000000,255.000000) scale(0.100000,-0.100000)"
fill="#000000" stroke="none">
<path d="M770 2104 c-7 -17 -7 -39 0 -65 14 -51 5 -65 -26 -44 -14 9 -29 13
-34 10 -15 -9 -12 -43 4 -52 7 -4 21 -25 31 -45 9 -21 21 -38 25 -38 4 0 19
-12 33 -26 17 -17 32 -24 45 -20 12 4 26 -2 41 -20 21 -24 23 -25 41 -9 21 19
55 16 55 -5 0 -8 -10 -19 -23 -26 -33 -16 -34 -19 -21 -48 15 -31 8 -41 -19
-27 -15 8 -23 6 -37 -9 -21 -24 -12 -40 24 -40 15 0 36 -9 47 -21 27 -30 3
-40 -73 -32 -60 5 -63 5 -63 -16 0 -13 10 -26 25 -33 14 -6 32 -22 40 -35 9
-14 25 -23 40 -23 30 0 33 -20 6 -37 -15 -9 -28 -10 -51 -2 -17 6 -44 9 -59 6
-21 -4 -34 -1 -46 13 -12 13 -26 18 -41 15 -13 -3 -35 -7 -49 -10 -21 -4 -28
1 -45 34 -26 51 -26 50 10 89 34 37 38 63 14 87 -14 13 -29 15 -80 10 -61 -5
-63 -5 -76 22 -9 19 -27 32 -53 41 -22 7 -48 20 -58 30 -23 21 -53 5 -49 -27
3 -17 -2 -21 -22 -21 -14 0 -28 -5 -31 -10 -8 -12 43 -33 63 -25 22 8 43 -14
36 -39 -7 -28 17 -58 57 -71 38 -13 88 -77 89 -113 0 -27 -26 -82 -40 -82 -6
0 -10 -6 -10 -14 0 -8 -9 -18 -20 -21 -11 -3 -20 -13 -20 -21 0 -17 61 -19 91
-3 16 8 25 7 39 -6 25 -23 73 -12 100 23 27 33 92 57 119 42 11 -5 33 -10 49
-10 31 0 58 -22 48 -38 -3 -5 -31 -8 -61 -5 -50 4 -55 3 -55 -16 0 -14 -6 -21
-19 -21 -10 0 -24 -6 -30 -14 -15 -18 8 -37 36 -30 18 5 22 1 25 -22 2 -23 9
-30 34 -35 47 -9 57 -18 42 -36 -8 -11 -24 -14 -51 -10 -30 4 -44 0 -65 -18
-23 -20 -24 -25 -13 -39 7 -9 28 -16 45 -16 17 0 38 -5 46 -10 22 -14 2 -28
-54 -39 -26 -5 -52 -13 -58 -19 -15 -15 0 -34 22 -27 9 3 29 1 44 -5 23 -8 25
-13 16 -30 -6 -11 -21 -20 -35 -20 -24 0 -59 -36 -49 -52 3 -5 15 -8 27 -7 66
6 94 -13 37 -25 -30 -6 -56 -44 -51 -75 1 -8 -3 -17 -10 -22 -10 -6 -10 -11 1
-24 11 -13 23 -15 53 -11 22 4 45 2 52 -4 9 -7 28 -7 62 0 28 6 75 10 104 8
l54 -3 6 -70 c3 -38 5 -74 2 -80 -4 -11 -137 -14 -149 -3 -4 4 -13 3 -21 -3
-9 -8 -17 -8 -26 0 -9 7 -24 8 -47 1 -22 -6 -38 -6 -44 0 -6 6 -16 4 -28 -7
-14 -13 -23 -15 -36 -7 -9 6 -50 9 -89 7 -92 -4 -105 10 -93 102 13 100 28
145 56 157 31 14 30 28 -1 58 -21 20 -30 22 -53 14 -15 -5 -33 -23 -41 -39
-22 -47 -40 -54 -122 -55 -89 0 -99 7 -107 75 -4 38 -7 43 -19 33 -17 -14 -11
-75 10 -108 9 -16 9 -24 -1 -38 -20 -29 -85 -156 -91 -181 -5 -16 -20 -29 -50
-40 -50 -18 -72 -44 -54 -62 8 -8 140 -8 520 1 279 7 1011 15 1625 17 1201 5
1168 4 1123 53 -10 11 -28 20 -39 20 -12 0 -30 7 -40 15 -10 8 -23 12 -28 9
-15 -10 -88 -12 -94 -3 -3 5 -16 6 -28 3 -22 -5 -23 -3 -31 83 -5 48 -7 133
-6 188 2 87 5 103 24 123 19 20 22 35 23 120 1 93 25 226 45 247 5 5 9 26 9
46 0 40 -26 69 -62 69 -9 0 -20 9 -23 20 -3 11 -13 20 -21 20 -10 0 -14 12
-14 41 0 25 -9 55 -21 75 -18 29 -26 34 -60 34 -31 0 -43 -6 -61 -30 -12 -16
-30 -30 -41 -30 -11 0 -17 -5 -14 -12 2 -7 9 -12 15 -11 18 4 37 -26 24 -39
-16 -16 -94 -18 -112 -2 -9 7 -92 18 -220 28 -113 9 -229 19 -259 23 -43 5
-53 3 -49 -8 3 -9 27 -17 68 -21 35 -4 77 -12 93 -18 17 -5 44 -10 61 -10 33
-1 76 -29 76 -51 0 -17 66 -133 85 -149 11 -9 37 -11 99 -5 82 6 85 6 97 -17
18 -33 15 -155 -5 -200 -20 -47 -21 -94 -1 -105 13 -7 12 -20 -4 -103 -19 -92
-19 -95 0 -168 24 -96 24 -109 -3 -118 -12 -3 -30 -16 -39 -28 -14 -17 -21
-19 -36 -10 -18 11 -190 10 -257 -1 -16 -3 -35 0 -42 6 -10 8 -18 9 -27 0 -18
-14 -27 -4 -27 28 0 15 -9 43 -20 63 -11 20 -25 58 -31 83 -10 41 -10 48 8 68
23 25 43 61 43 76 0 21 -18 11 -29 -16 -26 -61 -34 -65 -128 -69 -93 -3 -143
11 -199 55 -23 18 -27 19 -70 4 -52 -17 -53 -33 -3 -46 19 -5 40 -14 48 -20
42 -35 71 -186 42 -221 -16 -19 -101 -22 -119 -4 -9 9 -12 9 -12 0 0 -18 -28
-14 -39 6 -9 16 -11 16 -23 0 -14 -19 -38 -19 -62 1 -13 11 -17 11 -21 -1 -5
-12 -40 -15 -200 -16 -121 -1 -197 3 -201 9 -4 6 -11 6 -20 -2 -8 -7 -29 -9
-49 -6 -19 3 -35 2 -35 -4 0 -14 -46 -11 -58 3 -5 7 -13 39 -16 70 -6 49 -5
58 12 67 24 13 128 3 166 -16 23 -12 34 -12 57 -3 36 15 36 23 4 40 -14 7 -25
19 -25 26 0 14 63 28 91 19 22 -7 49 10 49 32 0 8 -11 25 -24 38 -14 14 -20
27 -15 30 15 10 10 45 -7 45 -10 0 -14 7 -12 23 3 20 -3 23 -60 31 -50 7 -62
12 -60 25 2 9 14 18 28 19 14 2 29 10 33 18 4 8 23 14 42 14 23 0 35 5 35 14
0 8 7 16 15 20 51 19 -22 38 -100 26 -58 -9 -111 10 -101 36 3 9 6 24 6 35 0
12 7 19 19 19 10 0 21 9 24 20 3 12 14 20 26 20 12 0 21 6 21 15 0 8 -9 15
-19 15 -11 0 -23 5 -26 11 -4 6 -19 7 -36 4 -23 -5 -33 -2 -49 17 -27 32 -25
38 13 38 17 0 39 5 47 10 13 9 11 13 -9 29 -26 20 -21 41 8 41 10 0 32 7 47
15 16 8 41 15 55 15 30 0 59 35 59 70 0 26 47 90 66 90 8 0 14 9 14 20 0 16
-7 20 -36 20 l-37 0 6 38 c4 20 9 52 13 70 5 24 3 32 -8 32 -28 0 -51 -28 -73
-86 l-22 -59 -60 -5 c-35 -3 -69 -12 -79 -21 -16 -14 -104 -34 -104 -24 0 12
24 55 31 55 4 0 9 12 11 28 2 19 9 27 23 27 11 0 24 6 29 14 14 23 -23 43 -67
37 -45 -8 -56 9 -36 55 11 27 10 33 -3 40 -9 5 -14 17 -11 27 3 14 -1 19 -19
18 -19 -1 -23 4 -21 24 2 15 -7 36 -22 53 -27 31 -35 33 -35 12 0 -8 -6 -15
-13 -15 -8 0 -14 -12 -14 -30 0 -16 4 -30 9 -30 15 0 8 -31 -9 -37 -10 -4 -23
-14 -29 -22 -10 -13 -17 -12 -52 13 -65 45 -77 62 -63 89 18 34 -2 146 -30
170 -32 26 -68 22 -79 -9z m575 -557 c24 -20 26 -25 14 -50 -12 -27 -29 -37
-29 -17 0 15 -21 12 -34 -4 -6 -7 -39 -16 -73 -20 -58 -5 -63 -4 -63 14 0 21
27 40 57 40 10 0 27 14 36 30 22 37 55 39 92 7z m1384 -76 c14 -10 26 -21 28
-27 4 -12 -83 -48 -102 -41 -13 5 -65 79 -65 92 0 12 117 -8 139 -24z m213
-647 c3 -32 11 -75 17 -94 18 -58 14 -108 -9 -115 -28 -9 -38 0 -50 46 -23 85
-6 236 25 226 5 -2 13 -30 17 -63z m-689 -163 c29 -64 2 -121 -44 -93 -10 7
-24 9 -31 7 -9 -4 -18 11 -28 42 -20 63 -19 66 10 74 59 16 75 11 93 -30z
m-1848 19 c14 -5 23 -15 20 -20 -4 -6 -4 -18 -1 -27 5 -12 9 -13 22 -3 20 17
33 3 40 -42 6 -34 5 -36 -31 -42 -23 -5 -42 -3 -51 5 -10 8 -14 8 -14 0 0 -6
-9 -11 -20 -11 -11 0 -20 4 -20 9 0 5 -9 13 -20 16 -29 9 -25 49 8 91 30 38
30 38 67 24z m-129 -75 c2 -49 -1 -68 -11 -71 -17 -7 -75 26 -75 42 0 15 71
107 77 100 3 -3 7 -35 9 -71z m1834 30 c10 -37 10 -48 -1 -61 -12 -14 -14 -14
-26 2 -14 19 -18 86 -6 97 13 14 21 6 33 -38z m228 -13 c5 -15 6 -35 3 -45 -6
-17 -8 -17 -19 -4 -7 8 -16 31 -19 51 -5 30 -3 35 10 30 9 -3 20 -18 25 -32z"/>
</g>
</svg>
