<?xml version="1.0" standalone="no"?>
<!DOCTYPE svg PUBLIC "-//W3C//DTD SVG 20010904//EN"
 "http://www.w3.org/TR/2001/REC-SVG-20010904/DTD/svg10.dtd">
<svg version="1.0" xmlns="http://www.w3.org/2000/svg"
 width="400.000000pt" height="300.000000pt" viewBox="0 0 400.000000 300.000000"
 preserveAspectRatio="xMidYMid meet">
<metadata>
Created by potrace 1.16, written by Peter Selinger 2001-2019
</metadata>
<g transform="translate(0.000000,300.000000) scale(0.100000,-0.100000)"
fill="#000000" stroke="none">
<path d="M1599 2636 c-2 -3 -70 -14 -149 -25 -80 -11 -174 -29 -209 -41 -83
-28 -229 -101 -269 -135 l-32 -27 -15 35 c-35 83 -141 53 -152 -44 -4 -38 -1
-50 21 -76 14 -17 26 -36 26 -42 0 -17 -36 -31 -79 -31 -43 0 -74 -22 -69 -49
4 -20 87 -28 118 -11 32 17 35 -12 6 -58 -37 -59 -49 -120 -44 -220 5 -106 26
-151 109 -239 33 -34 59 -68 59 -77 0 -8 -9 -31 -19 -50 -26 -45 -28 -63 -12
-118 13 -46 12 -132 -5 -326 l-6 -73 36 -36 c20 -20 36 -40 36 -45 0 -11 147
-10 155 1 3 5 1 12 -5 16 -5 3 -10 14 -10 24 0 10 -9 26 -19 35 -11 10 -28 44
-39 75 -15 45 -17 67 -11 111 5 30 13 81 17 113 8 55 21 76 49 77 15 0 43 -39
43 -60 0 -8 16 -35 35 -59 19 -24 35 -51 35 -60 0 -10 7 -26 15 -37 8 -10 15
-38 15 -62 0 -51 22 -98 50 -107 11 -3 20 -12 20 -19 0 -26 36 -46 83 -46 56
0 69 16 34 42 -16 12 -27 29 -27 43 0 12 -7 25 -15 29 -9 3 -15 18 -15 35 0
16 -20 68 -45 115 -55 106 -59 158 -19 262 35 91 54 168 54 225 0 26 6 51 13
56 7 5 74 7 162 3 142 -5 153 -7 198 -34 46 -27 51 -28 100 -18 104 23 125 25
275 29 201 5 198 7 200 -119 2 -90 5 -116 33 -241 12 -52 11 -66 -5 -125 -29
-104 -31 -129 -10 -160 11 -15 21 -43 24 -62 5 -34 6 -35 56 -38 l52 -3 -5 83
c-4 66 -1 100 17 165 12 45 28 90 35 100 13 17 14 17 37 -5 23 -21 24 -26 16
-93 -9 -75 0 -127 27 -149 8 -7 17 -27 21 -46 3 -19 15 -39 25 -44 23 -13 86
-13 94 -1 3 5 -4 35 -16 66 -23 62 -23 132 0 407 19 232 22 234 296 242 140 4
193 9 240 24 33 11 91 27 129 36 86 20 113 37 132 83 20 47 12 63 -30 63 -114
0 -210 107 -231 255 -8 58 5 73 50 56 30 -11 43 -10 85 4 37 12 50 22 50 36 0
21 -27 37 -116 67 -49 17 -69 19 -97 11 -31 -8 -44 -6 -87 16 -30 15 -103 35
-183 50 -72 14 -181 41 -242 59 -141 44 -241 71 -335 91 -183 38 -229 47 -290
57 -71 11 -462 23 -471 14z m-709 -235 c0 -24 -25 -45 -45 -37 -15 5 -21 37
-8 49 3 4 17 7 30 7 16 0 23 -6 23 -19z"/>
</g>
</svg>
