<?xml version="1.0" standalone="no"?>
<!DOCTYPE svg PUBLIC "-//W3C//DTD SVG 20010904//EN"
 "http://www.w3.org/TR/2001/REC-SVG-20010904/DTD/svg10.dtd">
<svg version="1.0" xmlns="http://www.w3.org/2000/svg"
 width="143.000000pt" height="216.000000pt" viewBox="0 0 143.000000 216.000000"
 preserveAspectRatio="xMidYMid meet">
<metadata>
Created by potrace 1.16, written by Peter Selinger 2001-2019
</metadata>
<g transform="translate(0.000000,216.000000) scale(0.100000,-0.100000)"
fill="#000000" stroke="none">
<path d="M710 2120 c-2 -8 -3 -26 -4 -40 -1 -21 -6 -25 -29 -23 -34 2 -32 -20
1 -25 30 -5 28 -22 -3 -22 -30 0 -33 -20 -5 -27 23 -6 25 -22 7 -48 -10 -12
-16 -14 -21 -7 -11 18 -27 14 -24 -5 2 -14 -3 -17 -19 -15 -28 4 -29 -9 -3
-33 17 -16 18 -20 6 -34 -7 -9 -17 -26 -20 -38 -4 -13 -13 -23 -20 -23 -15 0
-18 -47 -4 -56 11 -7 -10 -34 -27 -34 -7 0 -16 8 -20 18 -6 16 -7 16 -16 0 -6
-10 -19 -18 -29 -18 -11 0 -20 -4 -20 -10 0 -5 9 -10 19 -10 14 0 18 -5 14
-20 -6 -23 0 -25 26 -8 24 15 51 4 51 -20 0 -15 5 -18 26 -14 21 4 25 1 22
-14 -3 -17 -14 -19 -103 -19 -55 0 -105 -3 -112 -8 -17 -11 7 -57 30 -57 33 0
58 -20 55 -43 -2 -16 2 -22 15 -21 9 1 17 -4 17 -11 0 -8 13 -13 35 -12 41 1
52 -7 35 -28 -14 -17 -66 -20 -107 -4 -20 7 -40 7 -73 -2 -51 -13 -72 -29 -52
-36 10 -4 9 -9 -4 -24 -17 -18 -16 -19 22 -19 22 0 44 -4 50 -9 5 -6 29 -11
53 -13 25 -2 46 -8 48 -14 7 -21 -54 -37 -112 -29 -47 5 -61 3 -92 -16 -20
-13 -31 -25 -25 -27 7 -2 12 -13 12 -23 0 -11 4 -18 9 -14 5 3 12 1 16 -5 3
-5 15 -10 26 -10 14 0 19 -7 19 -25 0 -15 -6 -25 -14 -25 -11 0 -26 -20 -26
-35 0 -1 16 -6 35 -9 19 -4 35 -11 35 -16 0 -4 23 -11 50 -15 28 -4 50 -11 50
-15 0 -11 -52 -22 -120 -25 -87 -4 -108 -13 -115 -47 -6 -24 -2 -35 16 -52 13
-12 35 -22 49 -22 14 0 50 -1 80 -2 51 -2 53 -4 36 -17 -11 -8 -31 -15 -45
-15 -42 0 -139 -31 -157 -51 -13 -15 -14 -22 -5 -33 10 -11 30 -14 82 -12 72
3 82 -4 57 -36 -7 -9 -35 -26 -63 -39 -49 -22 -85 -46 -85 -58 0 -3 13 -12 29
-19 25 -11 34 -11 53 1 19 13 33 13 76 4 57 -12 69 -27 21 -27 -53 0 -128 -39
-143 -74 -11 -26 -11 -34 2 -49 14 -16 14 -19 -4 -32 -10 -8 -25 -15 -31 -15
-7 0 -13 -7 -13 -15 0 -22 75 -41 109 -28 21 7 35 7 54 -3 20 -11 35 -11 74
-2 26 6 86 11 133 12 l85 1 11 -111 c6 -60 14 -116 18 -122 9 -14 128 -16 141
-3 6 6 8 46 4 93 -3 46 -2 93 2 105 12 34 44 46 85 33 20 -7 49 -10 65 -6 21
4 46 -2 84 -21 47 -23 59 -25 75 -15 11 6 27 12 36 12 11 0 14 6 9 23 -8 26
-32 47 -56 47 -25 0 -89 29 -89 40 0 13 24 13 71 -2 34 -10 42 -9 59 7 18 16
24 17 59 5 48 -16 75 -8 66 19 -3 11 -1 23 6 26 6 4 7 10 3 14 -5 3 -14 15
-20 26 -6 11 -24 22 -40 25 -35 6 -38 31 -6 45 29 13 28 39 -3 59 -18 12 -24
23 -20 35 7 23 -23 32 -80 24 -71 -9 -116 34 -61 58 16 8 22 17 19 30 -6 20
11 26 22 9 11 -17 25 -11 25 11 0 20 4 21 45 17 34 -4 45 -2 45 8 0 8 5 14 10
14 6 0 10 6 10 14 0 7 10 17 23 22 18 6 14 8 -23 11 -24 3 -48 10 -52 16 -6 9
-12 9 -28 -1 -26 -16 -116 -18 -152 -3 -25 9 -28 15 -28 61 0 47 2 50 35 64
19 8 35 22 35 30 0 9 9 16 19 16 18 0 51 34 51 52 0 12 -28 9 -50 -4 -17 -11
-22 -10 -29 1 -6 9 -18 11 -35 7 -35 -9 -108 4 -103 18 2 6 14 13 28 14 64 10
54 42 -13 42 -27 0 -38 4 -38 15 0 12 12 14 75 8 65 -5 75 -4 75 10 0 10 -16
23 -37 33 -33 13 -36 17 -22 27 8 7 18 20 22 30 3 9 17 17 29 18 13 0 17 3 11
6 -20 7 -15 23 6 23 11 0 23 5 26 10 4 6 -7 10 -25 10 -25 0 -31 4 -28 18 5
31 -16 29 -30 -1 -12 -25 -18 -28 -46 -23 -20 4 -47 0 -69 -9 -44 -18 -84 -5
-93 32 -8 29 2 41 18 25 17 -17 28 -15 28 4 0 11 5 14 18 9 48 -20 52 -19 46
14 -7 32 3 40 24 19 9 -9 12 -7 12 10 0 12 9 26 20 32 58 31 -24 66 -86 36
-38 -18 -64 -21 -64 -8 0 12 30 37 53 45 15 6 16 10 7 27 -9 16 -8 22 5 26 8
3 15 16 15 29 0 28 22 47 44 39 10 -4 16 -1 16 9 0 8 8 18 18 22 13 6 7 11
-27 21 -39 12 -47 12 -73 -4 -26 -15 -31 -15 -55 -2 -34 20 -40 40 -14 47 17
4 19 8 10 19 -9 11 -8 15 5 20 9 3 16 15 16 25 0 12 5 16 15 13 8 -4 15 -2 15
4 0 5 -13 12 -30 16 -29 5 -40 28 -20 41 6 3 10 10 10 16 0 14 -26 11 -40 -6
-19 -23 -33 -18 -26 10 5 19 2 25 -9 25 -12 0 -14 7 -9 28 4 15 12 30 18 34 7
5 7 8 0 8 -5 0 -15 -5 -22 -12 -16 -16 -29 -1 -35 37 -2 17 -5 23 -7 15z"/>
</g>
</svg>
