<?xml version="1.0" standalone="no"?>
<!DOCTYPE svg PUBLIC "-//W3C//DTD SVG 20010904//EN"
 "http://www.w3.org/TR/2001/REC-SVG-20010904/DTD/svg10.dtd">
<svg version="1.0" xmlns="http://www.w3.org/2000/svg"
 width="270.000000pt" height="178.000000pt" viewBox="0 0 270.000000 178.000000"
 preserveAspectRatio="xMidYMid meet">
<metadata>
Created by potrace 1.16, written by Peter Selinger 2001-2019
</metadata>
<g transform="translate(0.000000,178.000000) scale(0.100000,-0.100000)"
fill="#000000" stroke="none">
<path d="M1233 1707 c-2 -4 -18 -5 -35 -2 -26 6 -36 2 -69 -31 -53 -52 -120
-205 -127 -291 -2 -34 -8 -63 -12 -63 -8 0 -6 32 11 180 12 109 11 181 -1 200
-21 30 -37 -18 -49 -143 -7 -67 -14 -135 -16 -152 -1 -16 -3 -49 -4 -72 -2
-89 -22 -47 -76 162 -30 117 -41 145 -55 145 -24 0 -4 -137 40 -271 34 -105
85 -207 139 -278 23 -30 41 -63 41 -73 0 -46 -128 4 -209 82 -50 48 -93 119
-121 200 -18 54 -36 51 -32 -5 6 -86 97 -229 182 -288 25 -18 24 -18 -37 -12
-35 3 -105 22 -155 41 -51 19 -117 37 -145 40 -48 6 -53 5 -53 -12 0 -15 17
-24 83 -43 105 -31 118 -37 94 -47 -12 -4 -66 13 -153 50 -172 72 -236 76
-131 8 l42 -26 -45 -7 c-34 -5 -56 -2 -89 12 -34 15 -47 16 -58 8 -11 -10 -11
-15 4 -31 16 -18 16 -19 -5 -25 -28 -7 -29 -30 -2 -38 15 -5 19 -12 15 -26 -5
-16 -1 -19 22 -19 15 0 46 5 69 10 27 6 53 6 75 -1 19 -5 109 -21 200 -34 173
-26 199 -32 199 -45 0 -19 -24 -20 -156 -6 -76 8 -141 13 -144 11 -3 -2 -59
-11 -125 -20 -115 -16 -165 -33 -165 -57 0 -7 25 -9 83 -5 l82 6 -73 -21 c-66
-19 -73 -24 -69 -44 3 -16 -2 -24 -15 -27 -22 -6 -24 -33 -3 -41 20 -7 211 36
354 80 62 19 116 33 119 30 3 -3 3 -7 1 -9 -2 -1 -17 -11 -34 -23 -16 -11 -93
-63 -170 -114 -150 -100 -285 -207 -285 -226 0 -6 6 -16 13 -22 9 -8 25 1 61
34 27 24 51 42 54 40 2 -3 -14 -26 -37 -52 -22 -26 -41 -53 -41 -60 0 -35 41
-6 115 78 74 85 258 238 271 225 3 -2 -8 -20 -24 -38 -66 -78 -172 -258 -172
-294 0 -26 29 -16 45 16 20 39 32 30 15 -10 -7 -17 -9 -38 -6 -48 12 -31 42
15 101 157 52 127 145 286 153 262 3 -11 -20 -68 -108 -262 -59 -131 -67 -155
-50 -165 16 -10 48 22 55 56 4 16 11 32 17 35 7 4 8 -4 4 -23 -5 -22 -3 -32 8
-36 20 -8 33 11 46 68 18 82 29 86 27 10 -2 -56 1 -70 13 -70 18 0 44 143 61
335 7 81 16 134 27 152 18 30 112 101 158 118 15 6 51 28 79 48 44 32 58 37
123 40 94 5 94 -7 1 -78 -39 -30 -86 -72 -106 -94 -40 -47 -99 -168 -139 -282
-15 -43 -45 -114 -66 -156 -49 -95 -49 -124 0 -83 l33 28 -3 -59 -3 -59 -400
-2 c-397 -2 -400 -2 -417 -24 -24 -28 -23 -91 0 -112 17 -16 116 -17 1272 -15
l1254 3 15 26 c18 33 7 95 -20 110 -13 6 -95 10 -224 9 -211 -1 -241 5 -194
38 48 33 132 118 155 157 13 22 37 74 54 115 36 87 46 100 90 109 27 5 35 14
50 54 l18 47 -41 24 c-23 14 -55 28 -72 32 -34 7 -87 53 -116 101 -11 17 -26
70 -35 117 -18 104 -130 420 -187 531 -25 47 -49 81 -59 83 -26 5 -23 -13 25
-123 50 -114 142 -374 135 -381 -3 -2 -40 49 -82 114 -61 96 -76 127 -76 158
0 43 -24 129 -41 150 -14 17 -31 8 -25 -14 2 -10 7 -39 11 -67 7 -49 7 -50
-13 -32 -15 14 -21 37 -26 106 -12 151 -59 267 -83 204 -4 -9 -15 -25 -25 -35
-14 -14 -18 -34 -18 -98 l0 -81 -37 3 c-57 5 -56 -24 1 -52 26 -12 46 -25 46
-28 1 -4 5 -26 9 -49 5 -25 5 -43 -1 -43 -22 0 -89 55 -94 79 -14 57 -45 109
-102 171 -32 36 -66 79 -74 95 -9 17 -25 39 -37 49 -18 16 -21 17 -27 3 -3 -8
-1 -24 5 -36 6 -11 11 -32 11 -47 0 -15 8 -36 17 -46 9 -11 32 -63 50 -116 51
-150 50 -141 14 -108 -17 17 -31 35 -31 42 0 7 -8 17 -17 23 -14 8 -15 12 -4
25 12 14 11 19 -4 36 -14 16 -15 23 -6 34 17 20 -2 54 -35 62 -21 5 -24 11
-22 38 3 27 0 31 -22 31 -19 0 -26 6 -29 25 -4 30 -19 41 -48 34 -15 -4 -25 0
-32 14 -8 16 -20 20 -61 19 -28 0 -54 -5 -57 -10z m662 -221 c5 -55 4 -67 -7
-64 -9 3 -14 28 -15 84 -3 94 11 82 22 -20z m-788 13 c-19 -11 -23 -44 -7 -54
7 -4 1 -16 -15 -30 -30 -29 -32 -45 -5 -52 22 -6 26 -18 10 -28 -5 -3 -10 -17
-10 -31 0 -17 6 -24 18 -24 28 0 32 -10 15 -36 -21 -33 -10 -58 23 -50 22 6
25 4 24 -16 -3 -38 -1 -44 24 -56 14 -6 23 -18 23 -29 -2 -13 5 -18 25 -18 16
-1 33 -6 40 -13 7 -7 21 -12 33 -12 18 0 58 -18 45 -20 -42 -7 -208 -7 -220 0
-30 16 -69 94 -78 156 -9 58 -1 238 13 279 4 11 14 35 23 53 16 31 17 32 26
11 8 -16 6 -23 -7 -30z m581 -114 c24 -48 35 -105 22 -105 -6 0 -10 6 -10 13
0 7 -16 45 -35 86 -19 40 -35 78 -35 84 1 17 35 -30 58 -78z m224 -81 c2 -19
0 -37 -4 -40 -4 -3 -8 -1 -8 4 0 5 -3 24 -6 41 -4 18 -2 31 4 31 5 0 12 -16
14 -36z m78 -60 c13 -34 13 -47 -2 -42 -15 5 -30 68 -16 68 4 0 13 -12 18 -26z
m-370 -58 c0 -45 18 -111 46 -168 10 -21 15 -41 11 -44 -3 -4 -24 1 -47 10
-22 9 -55 16 -73 16 -78 1 -100 74 -32 107 25 12 35 23 35 40 0 13 7 26 15 29
10 4 15 20 15 48 1 38 2 40 15 22 8 -11 15 -38 15 -60z m200 54 c35 -18 41
-27 60 -89 11 -37 20 -79 20 -93 0 -14 14 -53 31 -87 17 -34 29 -64 27 -67 -3
-2 -25 5 -49 16 -24 11 -56 20 -71 20 -15 0 -39 10 -53 23 l-27 23 10 110 c5
61 8 123 5 137 -6 32 -3 33 47 7z m-145 -26 c17 -41 19 -64 6 -64 -5 0 -12 15
-16 33 -4 17 -9 40 -11 50 -9 31 5 18 21 -19z m308 -94 c-3 -11 -9 -20 -14
-20 -5 0 -9 9 -9 20 0 11 6 20 14 20 9 0 12 -7 9 -20z m130 -113 c39 -39 73
-86 91 -125 38 -80 29 -91 -46 -57 -62 28 -131 107 -141 159 -5 32 10 86 24
86 5 0 37 -28 72 -63z m-1194 -92 c3 -4 -1 -10 -9 -16 -34 -22 -60 -20 -112 6
l-53 26 84 -5 c46 -3 87 -8 90 -11z m589 -7 c69 -23 69 -23 4 -59 -16 -9 -75
-72 -132 -140 -83 -100 -115 -131 -167 -162 -36 -21 -68 -36 -70 -33 -6 5 24
118 48 184 31 86 55 124 106 174 65 63 109 71 211 36z m279 -63 c81 -19 123
-34 123 -46 0 -12 -7 -11 -30 3 -16 10 -24 10 -40 0 -11 -6 -25 -12 -30 -12
-6 0 -27 -16 -47 -35 -20 -19 -43 -34 -52 -33 -11 2 -16 -5 -16 -24 1 -18 -5
-30 -17 -34 -13 -4 -18 -15 -18 -39 0 -28 -3 -32 -20 -28 -14 4 -22 -1 -29
-19 -9 -25 -72 -58 -109 -58 -17 0 -17 5 -4 82 16 94 39 147 79 177 15 12 43
35 60 51 37 34 55 36 150 15z m321 -101 c31 -9 28 -30 -5 -39 -16 -4 -30 -7
-32 -8 -2 -1 -5 10 -5 26 -2 28 4 31 42 21z m-1721 -50 c-7 -8 -149 -35 -154
-30 -5 4 112 33 141 35 11 0 17 -2 13 -5z m1041 -46 c-14 -24 -44 -74 -68
-113 -58 -94 -68 -120 -76 -205 -6 -70 -25 -119 -62 -162 -15 -18 -78 -25 -97
-10 -11 8 -19 202 -9 244 4 21 21 37 72 65 91 50 128 81 197 163 32 39 60 68
63 66 2 -3 -7 -24 -20 -48z m912 7 c28 -14 50 -29 50 -34 0 -5 -17 -21 -37
-37 -21 -15 -60 -52 -87 -82 -61 -67 -207 -167 -218 -149 -14 22 -8 35 17 41
28 7 31 22 10 50 -17 23 -11 36 17 36 18 0 20 4 14 30 -3 17 -2 39 3 48 5 9
15 30 22 46 15 31 95 76 137 76 12 0 45 -11 72 -25z m-1287 -53 c-3 -12 -10
-22 -15 -22 -5 0 -7 3 -5 8 2 4 7 16 11 26 9 25 17 16 9 -12z m37 -81 c-12
-38 -28 -75 -36 -82 -15 -13 -19 -39 -5 -39 5 0 11 -46 14 -102 3 -57 7 -112
9 -123 3 -17 -3 -20 -41 -23 -25 -2 -55 -1 -68 3 -22 5 -23 9 -18 63 16 167
13 156 75 243 33 45 65 97 72 116 22 60 20 16 -2 -56z m-60 35 c0 -2 -7 -9
-15 -16 -13 -11 -14 -10 -9 4 5 14 24 23 24 12z m394 -38 c-4 -7 -14 -21 -22
-30 -8 -10 -12 -24 -9 -31 6 -16 -40 -123 -49 -114 -19 19 50 187 77 187 6 0
7 -6 3 -12z m153 -54 c2 -7 -8 -14 -22 -18 -16 -4 -25 -13 -25 -25 0 -12 -14
-26 -37 -38 -46 -22 -60 -59 -19 -49 16 4 38 0 57 -10 28 -14 31 -19 26 -50
-5 -30 -3 -36 19 -44 14 -6 24 -18 24 -29 0 -11 5 -23 10 -26 28 -17 -14 -25
-135 -25 -84 0 -136 4 -140 11 -12 18 4 75 32 115 14 22 41 68 60 104 19 36
39 70 45 77 18 22 99 27 105 7z m587 -125 c-37 -41 -235 -141 -250 -127 -16
16 20 46 73 61 32 8 87 32 123 51 77 42 79 42 54 15z m101 -2 c-11 -27 -104
-98 -168 -127 -35 -16 -69 -36 -76 -44 -14 -17 -67 -21 -89 -7 -9 5 7 13 50
24 82 21 166 67 231 127 54 50 62 54 52 27z m-380 -137 c-3 -5 -13 -10 -21
-10 -8 0 -14 5 -14 10 0 6 9 10 21 10 11 0 17 -4 14 -10z"/>
</g>
</svg>
