<?xml version="1.0" standalone="no"?>
<!DOCTYPE svg PUBLIC "-//W3C//DTD SVG 20010904//EN"
 "http://www.w3.org/TR/2001/REC-SVG-20010904/DTD/svg10.dtd">
<svg version="1.0" xmlns="http://www.w3.org/2000/svg"
 width="583.000000pt" height="430.000000pt" viewBox="0 0 583.000000 430.000000"
 preserveAspectRatio="xMidYMid meet">
<metadata>
Created by potrace 1.16, written by Peter Selinger 2001-2019
</metadata>
<g transform="translate(0.000000,430.000000) scale(0.100000,-0.100000)"
fill="#000000" stroke="none">
<path d="M910 2506 c0 -8 4 -17 9 -20 18 -12 80 -145 70 -152 -6 -3 -42 27
-80 67 -51 54 -72 70 -80 62 -9 -9 -3 -23 22 -55 48 -61 43 -55 114 -147 36
-46 65 -88 65 -93 0 -25 -44 -1 -91 50 -68 72 -96 95 -108 87 -12 -7 17 -74
42 -99 17 -17 23 -36 11 -36 -11 0 -108 84 -209 182 -90 88 -135 117 -135 88
0 -6 56 -67 125 -134 116 -115 140 -146 115 -146 -9 0 -87 43 -259 143 -44 25
-71 26 -71 1 0 -7 36 -39 80 -71 44 -32 80 -61 80 -65 0 -12 -51 -9 -101 6
-73 22 -133 24 -137 4 -2 -13 12 -20 65 -32 107 -26 162 -41 168 -48 4 -4 -15
-9 -42 -13 -126 -15 -148 -20 -151 -35 -2 -13 20 -15 139 -18 78 -1 144 -4
147 -7 9 -9 -21 -35 -42 -36 -11 0 -64 -15 -116 -32 -70 -24 -96 -37 -98 -51
-4 -17 0 -18 29 -11 62 13 104 23 188 45 62 16 87 18 95 10 8 -8 6 -15 -9 -26
-66 -47 -115 -90 -115 -101 0 -29 26 -21 111 32 49 32 93 54 97 50 4 -3 -1
-12 -11 -19 -19 -15 -23 -41 -7 -51 6 -4 30 8 53 27 85 68 124 83 77 28 -21
-24 -18 -40 6 -40 14 0 62 30 90 56 26 24 111 73 136 79 31 8 78 -1 78 -14 0
-5 -11 -12 -24 -15 -33 -8 -83 -52 -92 -79 -10 -35 -84 -127 -123 -153 -20
-13 -50 -24 -69 -24 -18 0 -47 -7 -64 -16 -49 -25 -138 -14 -304 37 -72 23
-114 24 -114 5 0 -8 31 -22 83 -36 87 -25 142 -48 134 -57 -3 -3 -52 0 -109 6
-157 17 -197 18 -202 4 -8 -21 20 -33 88 -40 36 -3 66 -10 66 -14 0 -11 11 -9
-100 -22 -77 -10 -95 -15 -98 -29 -3 -16 6 -18 86 -18 93 0 152 -8 152 -19 0
-4 -24 -15 -52 -25 -29 -10 -90 -36 -135 -57 -46 -22 -86 -39 -91 -39 -26 0
-111 -32 -115 -43 -14 -36 11 -36 123 3 63 22 124 44 135 49 70 30 126 37 99
12 -5 -5 -49 -30 -98 -56 -50 -26 -101 -55 -114 -65 -13 -10 -38 -24 -57 -30
-36 -12 -48 -29 -35 -50 10 -16 36 -6 150 55 113 60 130 67 130 51 0 -7 -23
-27 -50 -45 -46 -30 -59 -49 -44 -64 9 -9 51 12 122 60 35 24 69 43 76 43 6 0
17 5 24 12 9 9 12 9 12 -2 0 -8 -59 -76 -130 -150 -89 -93 -129 -141 -127
-155 1 -11 7 -20 14 -20 7 0 71 57 142 128 71 70 135 127 141 127 9 0 8 -6 -3
-18 -10 -10 -17 -23 -17 -28 0 -5 -23 -43 -50 -84 -43 -65 -48 -76 -35 -89 13
-13 17 -12 36 5 21 19 54 64 95 130 55 90 106 106 60 19 -15 -26 -26 -54 -26
-62 0 -7 -9 -30 -20 -50 -23 -44 -25 -66 -6 -82 18 -15 24 -7 73 99 22 47 50
96 62 110 l22 25 -6 -114 c-3 -63 -10 -122 -15 -131 -12 -22 -4 -30 32 -30 27
0 28 2 29 53 2 83 4 99 13 160 13 91 34 72 55 -50 9 -51 17 -73 27 -73 23 0
27 25 14 92 -14 73 -29 200 -37 311 -4 66 -3 77 11 77 20 0 42 -35 51 -80 9
-44 38 -76 81 -90 27 -9 36 -19 46 -51 7 -25 26 -53 50 -73 27 -23 43 -48 53
-84 17 -56 45 -84 103 -103 20 -6 54 -27 75 -45 34 -31 42 -34 101 -34 l65 0
42 62 c23 35 63 80 90 101 57 44 102 108 124 174 9 27 24 59 34 73 26 36 39
85 46 175 6 74 4 84 -21 130 -15 29 -30 76 -34 112 -9 79 -23 99 -115 168 -56
42 -75 63 -75 80 0 36 19 49 233 151 42 21 220 62 322 75 50 6 96 16 103 21
19 16 14 55 -10 72 -30 21 -57 20 -163 -9 -49 -14 -154 -41 -232 -61 -200 -49
-304 -99 -399 -191 l-42 -39 -76 8 c-42 4 -87 15 -100 23 -25 17 -66 110 -66
151 0 32 -26 94 -39 94 -6 0 -11 -20 -11 -45 l0 -44 -24 24 c-13 13 -44 62
-70 109 -43 79 -62 104 -71 94 -6 -6 40 -124 66 -168 12 -19 49 -100 49 -106
0 -2 -6 -4 -14 -4 -8 0 -23 19 -35 43 -12 23 -37 62 -56 87 -19 25 -40 54 -45
65 -38 72 -89 140 -108 143 -14 2 -22 -2 -22 -12z m780 -667 c0 -17 -32 -38
-57 -39 -22 0 -32 27 -16 43 11 12 73 8 73 -4z m-336 -28 c15 -16 15 -19 1
-24 -19 -8 -75 3 -75 14 0 9 30 28 46 29 6 0 19 -8 28 -19z m492 -63 c8 -12
-21 -38 -43 -38 -20 0 -16 38 5 43 29 8 31 7 38 -5z m-135 -195 c6 -15 -50
-39 -67 -28 -26 17 -21 30 16 36 36 6 45 5 51 -8z m-111 -188 c0 -10 -11 -15
-35 -15 -39 0 -48 16 -12 23 41 8 47 7 47 -8z m98 -137 c-5 -15 -48 -24 -48
-10 0 14 12 22 33 22 10 0 17 -5 15 -12z"/>
</g>
</svg>
