<?xml version="1.0" standalone="no"?>
<!DOCTYPE svg PUBLIC "-//W3C//DTD SVG 20010904//EN"
 "http://www.w3.org/TR/2001/REC-SVG-20010904/DTD/svg10.dtd">
<svg version="1.0" xmlns="http://www.w3.org/2000/svg"
 width="183.000000pt" height="146.000000pt" viewBox="0 0 183.000000 146.000000"
 preserveAspectRatio="xMidYMid meet">
<metadata>
Created by potrace 1.16, written by Peter Selinger 2001-2019
</metadata>
<g transform="translate(0.000000,146.000000) scale(0.100000,-0.100000)"
fill="#000000" stroke="none">
<path d="M865 1306 c-48 -22 -115 -90 -115 -117 0 -30 26 -69 46 -69 9 0 14
-11 14 -36 0 -19 4 -33 9 -29 6 3 18 -4 29 -15 11 -12 32 -22 48 -23 22 -2 28
-7 26 -22 -1 -11 -4 -57 -5 -103 -2 -45 -8 -86 -13 -91 -7 -8 -109 4 -122 14
-1 1 9 28 23 60 32 72 22 90 -29 51 -20 -15 -40 -36 -46 -46 -8 -15 -21 -20
-53 -20 -52 0 -54 -2 -94 -67 l-32 -52 49 -38 c40 -31 49 -44 50 -70 0 -39 30
-105 44 -100 13 4 24 42 25 88 1 19 7 47 14 63 11 25 16 27 51 21 21 -3 51
-16 66 -28 l26 -22 -29 -27 c-26 -26 -28 -32 -24 -80 3 -29 10 -75 16 -103 5
-27 10 -95 10 -151 l1 -101 -50 -23 c-27 -13 -59 -34 -71 -47 -22 -22 -28 -23
-168 -23 -80 0 -151 4 -157 8 -6 4 -11 86 -12 227 l-2 220 31 20 c40 27 95
102 104 144 7 32 6 34 -16 27 -13 -4 -31 -9 -41 -11 -9 -2 -30 -11 -47 -19
l-30 -16 -3 58 -3 57 -71 3 -72 3 -11 -32 c-6 -18 -11 -56 -11 -85 l0 -52 -73
-37 -73 -36 0 -65 c0 -54 3 -63 16 -59 8 4 28 9 45 12 16 4 40 12 54 19 33 17
44 9 36 -27 -4 -17 -2 -36 5 -44 8 -9 10 -48 7 -122 -7 -149 -14 -182 -43
-193 -27 -11 -44 -39 -44 -74 l0 -26 763 0 762 0 20 33 c10 17 29 49 42 71 28
47 29 90 4 149 -19 45 -19 46 0 59 16 11 17 16 6 37 -6 14 -21 26 -32 28 -83
14 -110 14 -153 0 -26 -8 -74 -20 -107 -26 -33 -7 -71 -14 -84 -17 l-23 -5 4
99 c3 90 6 103 33 143 26 39 30 53 30 114 -1 65 -4 76 -48 151 -26 45 -54 104
-62 131 -21 72 -68 131 -121 155 -25 11 -52 17 -60 14 -8 -3 -31 3 -52 14 -29
16 -39 29 -47 62 -9 33 -20 48 -59 75 -54 37 -59 38 -101 19z m194 -617 c-4
-9 -19 -19 -33 -21 -23 -5 -23 -3 -13 26 17 52 29 61 43 34 8 -14 9 -29 3 -39z
m47 -215 c18 -8 35 -21 38 -30 12 -30 7 -162 -6 -167 -10 -3 -9 -8 4 -18 9 -8
21 -36 27 -64 6 -27 13 -60 17 -72 6 -23 5 -23 -87 -23 l-94 0 0 200 0 200 35
-6 c19 -3 49 -12 66 -20z m499 -280 c8 -4 23 -20 31 -36 26 -50 9 -58 -127
-58 -163 0 -168 17 -18 69 97 34 93 33 114 25z"/>
</g>
</svg>
