<?xml version="1.0" standalone="no"?>
<!DOCTYPE svg PUBLIC "-//W3C//DTD SVG 20010904//EN"
 "http://www.w3.org/TR/2001/REC-SVG-20010904/DTD/svg10.dtd">
<svg version="1.0" xmlns="http://www.w3.org/2000/svg"
 width="276.000000pt" height="171.000000pt" viewBox="0 0 276.000000 171.000000"
 preserveAspectRatio="xMidYMid meet">
<metadata>
Created by potrace 1.16, written by Peter Selinger 2001-2019
</metadata>
<g transform="translate(0.000000,171.000000) scale(0.100000,-0.100000)"
fill="#000000" stroke="none">
<path d="M1203 1664 c-24 -9 -53 -30 -68 -50 -25 -33 -55 -94 -55 -113 0 -5
24 -35 54 -66 30 -32 57 -71 60 -86 4 -21 11 -29 27 -29 11 0 32 -9 46 -20 14
-11 36 -20 49 -20 27 0 29 -8 13 -42 -13 -28 -98 -88 -125 -88 -10 1 -44 14
-74 30 -30 17 -61 30 -67 30 -7 0 -30 7 -52 16 -28 11 -41 23 -46 42 -4 15
-20 38 -37 52 l-30 25 -3 144 c-2 79 -8 148 -13 153 -6 6 -18 8 -28 6 -23 -4
-26 -55 -12 -197 l10 -94 -31 -28 c-35 -32 -41 -82 -17 -140 12 -28 12 -39 0
-72 -8 -22 -14 -65 -14 -96 0 -42 -10 -85 -39 -162 -22 -57 -47 -148 -56 -202
-9 -54 -29 -141 -46 -194 -16 -52 -29 -102 -29 -109 0 -8 -4 -14 -9 -14 -4 0
-11 75 -15 168 -3 92 -9 206 -12 253 l-6 86 70 22 c39 12 73 25 76 29 5 9 -11
143 -18 150 -2 2 -32 -4 -65 -14 -34 -9 -64 -14 -67 -11 -3 2 -7 31 -10 63
-10 110 -3 103 -83 84 -38 -10 -74 -21 -81 -25 -9 -6 -11 -29 -6 -85 5 -56 4
-80 -5 -85 -6 -5 -42 -15 -78 -25 l-66 -16 -3 -82 c-2 -45 1 -82 5 -82 4 0 39
9 77 20 38 11 71 18 73 16 3 -2 8 -93 14 -202 5 -110 11 -212 14 -229 2 -16 1
-35 -3 -41 -8 -12 -127 -71 -182 -90 -124 -43 -220 -102 -220 -134 0 -15 1151
-13 1224 2 45 9 60 8 65 -1 5 -8 29 -11 71 -9 l63 3 14 40 c20 57 27 198 15
280 -8 51 -8 96 0 168 l11 99 26 -7 c14 -3 55 -10 90 -15 34 -5 87 -20 116
-34 80 -36 88 -75 67 -309 -12 -128 -12 -129 13 -178 l25 -49 101 0 c84 0 124
6 236 36 74 19 155 44 179 54 47 20 47 20 44 -22 -3 -49 16 -68 65 -68 37 0
49 5 75 33 32 34 70 121 70 161 0 13 7 38 16 55 17 34 14 115 -5 134 -25 25
-327 -38 -453 -95 -76 -34 -80 -26 -50 89 14 54 27 100 29 102 1 2 15 -1 30
-8 25 -11 29 -10 46 11 16 19 18 33 13 87 -4 35 -13 75 -20 90 -7 14 -11 32
-9 39 3 7 -2 21 -11 30 -9 11 -13 27 -10 39 12 43 -64 133 -112 133 -38 0 -86
52 -184 196 -89 129 -142 186 -234 248 -21 14 -51 26 -66 26 -15 0 -33 7 -40
15 -7 8 -25 15 -40 15 -24 0 -30 5 -35 33 -22 101 -150 168 -252 131z m-149
-609 l59 -38 -38 -12 c-44 -16 -95 -61 -95 -86 0 -19 -27 -45 -37 -36 -9 10
-27 203 -20 222 6 14 10 14 39 2 18 -8 60 -31 92 -52z m446 30 c18 -22 4 -33
-55 -40 -52 -7 -52 -5 -1 33 34 26 40 27 56 7z m-256 -240 l-16 -38 -23 29
c-14 16 -24 34 -25 41 0 12 72 23 78 12 1 -3 -5 -23 -14 -44z m-463 -148 c-8
-8 -11 -4 -11 14 0 33 14 47 18 19 2 -12 -1 -27 -7 -33z m29 -46 c0 -6 -4 -13
-10 -16 -5 -3 -10 1 -10 9 0 9 5 16 10 16 6 0 10 -4 10 -9z m248 -121 c34 -18
55 -21 102 -18 40 3 61 0 64 -8 2 -6 2 -56 -1 -110 l-6 -99 -46 -42 c-28 -27
-59 -45 -81 -49 -19 -3 -48 -10 -65 -16 -26 -9 -37 -6 -82 23 l-52 34 0 125
c0 69 0 140 -1 159 -1 24 6 42 26 62 l28 29 35 -34 c20 -19 55 -44 79 -56z
m-280 49 c11 -17 10 -23 -10 -39 -29 -23 -31 -21 -23 24 8 41 15 44 33 15z
m-39 -132 c-1 -42 -31 -128 -44 -124 -15 3 -10 70 9 121 20 51 36 52 35 3z"/>
</g>
</svg>
