<?xml version="1.0" standalone="no"?>
<!DOCTYPE svg PUBLIC "-//W3C//DTD SVG 20010904//EN"
 "http://www.w3.org/TR/2001/REC-SVG-20010904/DTD/svg10.dtd">
<svg version="1.0" xmlns="http://www.w3.org/2000/svg"
 width="194.000000pt" height="149.000000pt" viewBox="0 0 194.000000 149.000000"
 preserveAspectRatio="xMidYMid meet">
<metadata>
Created by potrace 1.16, written by Peter Selinger 2001-2019
</metadata>
<g transform="translate(0.000000,149.000000) scale(0.100000,-0.100000)"
fill="#000000" stroke="none">
<path d="M949 1340 c-8 -5 -21 -8 -29 -5 -8 2 -35 -13 -59 -34 -32 -28 -44
-46 -46 -69 -2 -25 1 -32 15 -32 22 0 52 -43 44 -63 -8 -23 63 -87 97 -87 21
0 32 -7 44 -30 17 -34 20 -71 4 -87 -7 -7 -4 -21 11 -45 l20 -35 -22 -28 c-21
-26 -24 -27 -85 -21 -36 4 -73 12 -83 18 -18 11 -17 15 12 70 17 33 28 61 25
64 -13 13 -79 -28 -98 -61 -24 -39 -23 -39 -51 -24 -32 17 -61 3 -96 -50 -33
-49 -37 -91 -9 -91 7 0 24 -12 40 -25 21 -19 27 -33 27 -64 0 -43 35 -114 54
-108 6 2 15 28 19 58 22 152 12 142 116 112 59 -16 94 -43 58 -43 -8 0 -27
-15 -42 -32 -30 -36 -30 -51 -4 -263 5 -44 12 -100 15 -125 l6 -46 -64 -29
c-35 -16 -72 -40 -83 -53 -19 -22 -30 -24 -110 -26 -50 -2 -106 -9 -126 -16
-70 -25 -69 -29 -69 238 l0 238 29 17 c35 20 105 112 97 126 -4 5 -2 12 4 16
6 4 8 11 5 16 -10 15 -53 10 -95 -11 l-39 -20 -3 53 c-3 49 -5 53 -39 69 -31
14 -42 15 -70 5 -46 -16 -53 -30 -59 -112 l-5 -70 -84 -41 c-47 -22 -81 -43
-75 -46 5 -4 9 -31 9 -62 -1 -31 2 -56 5 -56 16 1 125 42 136 51 12 10 14 -6
14 -94 0 -60 4 -109 10 -112 12 -7 14 -88 3 -99 -5 -4 -13 -35 -19 -69 -7 -34
-15 -72 -19 -84 l-7 -23 791 0 791 0 0 111 c0 68 -5 119 -12 132 -7 12 -12 47
-13 77 l0 55 -53 9 c-43 7 -60 6 -88 -7 -19 -10 -54 -17 -77 -17 -23 -1 -67
-7 -97 -14 -30 -8 -62 -15 -70 -17 -33 -8 -20 222 16 278 8 12 14 35 14 51 0
28 -41 132 -63 160 -6 7 -11 34 -12 60 -1 26 -11 67 -23 92 -19 43 -121 160
-139 160 -4 0 -24 23 -43 52 -43 63 -110 133 -148 151 -31 17 -82 20 -103 7z
m212 -584 c-9 -11 -7 -12 13 -9 18 4 26 0 31 -16 10 -31 -2 -41 -49 -41 l-43
0 19 40 c11 22 25 40 30 40 7 0 6 -5 -1 -14z m69 -333 c0 -49 5 -128 12 -178
18 -142 19 -139 -22 -143 -19 -2 -59 -1 -87 3 l-53 6 0 194 0 194 38 4 c20 2
54 4 75 5 l37 2 0 -87z m544 -216 c12 -9 17 -23 14 -42 -3 -28 -5 -29 -67 -32
-35 -2 -73 -8 -83 -14 -14 -8 -28 -7 -49 1 -23 10 -35 10 -59 0 -17 -7 -33
-11 -35 -9 -9 10 13 25 60 43 28 10 77 29 110 41 71 28 85 29 109 12z"/>
<path d="M1170 183 c0 -11 38 -49 43 -42 2 2 -7 15 -20 28 -13 13 -23 20 -23
14z"/>
</g>
</svg>
