<?xml version="1.0" standalone="no"?>
<!DOCTYPE svg PUBLIC "-//W3C//DTD SVG 20010904//EN"
 "http://www.w3.org/TR/2001/REC-SVG-20010904/DTD/svg10.dtd">
<svg version="1.0" xmlns="http://www.w3.org/2000/svg"
 width="256.000000pt" height="216.000000pt" viewBox="0 0 256.000000 216.000000"
 preserveAspectRatio="xMidYMid meet">
<metadata>
Created by potrace 1.16, written by Peter Selinger 2001-2019
</metadata>
<g transform="translate(0.000000,216.000000) scale(0.100000,-0.100000)"
fill="#000000" stroke="none">
<path d="M377 2023 c-4 -3 -7 -20 -7 -37 l-1 -31 -27 33 c-15 18 -30 32 -33
32 -3 0 -9 -35 -13 -77 -5 -65 -11 -84 -36 -118 -17 -22 -51 -75 -76 -117 -26
-43 -53 -83 -60 -89 -18 -15 -18 -24 2 -76 15 -39 20 -43 62 -49 39 -6 48 -4
63 14 20 26 59 42 99 42 18 0 44 13 70 35 65 54 97 45 157 -45 17 -25 54 -68
83 -96 l53 -51 9 -104 c12 -144 24 -195 60 -259 17 -30 39 -86 49 -125 11 -38
26 -95 34 -125 22 -78 36 -297 26 -410 -7 -89 -26 -150 -52 -165 -19 -12 -50
-98 -44 -122 5 -20 11 -23 59 -23 65 0 83 17 93 85 3 27 15 64 26 82 15 27 18
50 17 130 -3 204 12 544 23 540 19 -6 36 -84 43 -196 5 -79 12 -119 30 -158
49 -109 56 -266 15 -319 -27 -34 -56 -123 -44 -135 17 -17 117 -16 143 1 11 7
16 30 17 82 2 40 4 96 5 123 1 28 -6 82 -15 120 -9 39 -17 99 -17 135 0 36 -7
106 -15 155 -8 50 -15 120 -15 156 l0 66 113 7 c225 14 339 48 436 131 29 25
56 45 59 45 16 -1 64 -62 120 -156 58 -95 62 -106 76 -205 26 -189 28 -222 11
-305 -17 -78 -60 -176 -101 -226 -27 -33 -40 -94 -23 -114 16 -19 103 -19 119
1 7 8 17 37 21 63 5 26 19 60 31 77 12 16 25 52 29 80 14 91 39 218 44 223 11
11 13 -9 16 -158 2 -121 -1 -166 -14 -208 -23 -75 -17 -84 57 -80 l61 3 7 95
c5 64 4 106 -4 130 -7 21 -10 78 -8 145 8 237 10 221 -45 310 -45 74 -49 85
-49 145 -1 56 4 73 33 124 19 32 37 73 40 90 13 61 26 30 32 -74 4 -69 15
-136 32 -195 16 -53 31 -138 37 -205 9 -105 12 -117 35 -135 14 -12 25 -26 25
-32 0 -6 6 -16 13 -22 11 -8 19 -5 38 15 22 23 24 34 23 112 -2 99 -18 222
-41 302 -10 35 -18 125 -22 245 -7 177 -9 194 -34 248 -51 111 -77 135 -272
244 -102 57 -175 78 -240 69 -25 -4 -104 -28 -177 -52 -236 -81 -314 -92 -388
-54 -22 11 -53 20 -70 20 -36 0 -124 35 -206 83 -33 19 -104 54 -159 78 -55
24 -140 69 -190 101 -68 44 -98 58 -127 58 -29 0 -44 7 -67 33 -17 17 -31 35
-31 40 0 9 -14 9 -23 0z"/>
</g>
</svg>
