<?xml version="1.0" standalone="no"?>
<!DOCTYPE svg PUBLIC "-//W3C//DTD SVG 20010904//EN"
 "http://www.w3.org/TR/2001/REC-SVG-20010904/DTD/svg10.dtd">
<svg version="1.0" xmlns="http://www.w3.org/2000/svg"
 width="91.000000pt" height="125.000000pt" viewBox="0 0 91.000000 125.000000"
 preserveAspectRatio="xMidYMid meet">
<metadata>
Created by potrace 1.16, written by Peter Selinger 2001-2019
</metadata>
<g transform="translate(0.000000,125.000000) scale(0.100000,-0.100000)"
fill="#000000" stroke="none">
<path d="M670 991 c-18 -5 -36 -27 -65 -81 -27 -51 -64 -99 -117 -150 -45 -44
-90 -100 -109 -135 -18 -33 -40 -71 -49 -85 -21 -33 -40 -98 -40 -142 0 -18
-9 -59 -20 -90 -11 -32 -19 -75 -18 -97 1 -22 -4 -47 -11 -55 -8 -9 -10 -24
-6 -33 6 -17 7 -17 19 0 12 15 36 17 239 17 137 0 228 4 232 10 5 8 -7 43 -20
58 -2 2 -13 -1 -24 -8 -13 -7 -21 -7 -21 -1 0 7 -9 7 -25 1 -16 -6 -25 -6 -25
0 0 6 -11 10 -25 10 -22 0 -25 4 -25 39 0 35 5 42 50 75 28 20 50 39 50 44 0
4 20 34 44 66 27 36 48 78 56 111 17 69 9 178 -17 237 l-21 46 37 36 c20 20
42 36 49 36 20 0 -13 55 -47 79 -30 22 -48 24 -91 12z m40 -131 c0 -5 -2 -10
-4 -10 -3 0 -8 5 -11 10 -3 6 -1 10 4 10 6 0 11 -4 11 -10z m-10 -299 c0 -12
-20 -25 -27 -18 -7 7 6 27 18 27 5 0 9 -4 9 -9z m-197 -280 c5 -5 7 -24 5 -42
-2 -27 -7 -34 -25 -34 -12 0 -25 -4 -29 -7 -3 -4 -15 -2 -25 5 -14 9 -21 9
-31 -1 -33 -33 -37 -3 -6 56 23 43 24 43 63 37 22 -3 44 -10 48 -14z"/>
</g>
</svg>
