<?xml version="1.0" standalone="no"?>
<!DOCTYPE svg PUBLIC "-//W3C//DTD SVG 20010904//EN"
 "http://www.w3.org/TR/2001/REC-SVG-20010904/DTD/svg10.dtd">
<svg version="1.0" xmlns="http://www.w3.org/2000/svg"
 width="400.000000pt" height="300.000000pt" viewBox="0 0 400.000000 300.000000"
 preserveAspectRatio="xMidYMid meet">
<metadata>
Created by potrace 1.16, written by Peter Selinger 2001-2019
</metadata>
<g transform="translate(0.000000,300.000000) scale(0.100000,-0.100000)"
fill="#000000" stroke="none">
<path d="M2270 2589 c-30 -18 -52 -22 -157 -23 -95 -2 -126 -5 -140 -18 -10
-9 -29 -19 -43 -23 -14 -4 -40 -19 -58 -32 -31 -23 -33 -29 -27 -62 8 -43 21
-59 98 -118 59 -46 65 -58 45 -86 -11 -15 -22 -16 -85 -8 -47 6 -82 16 -99 30
-29 23 -44 20 -44 -9 0 -23 -17 -29 -50 -20 -182 53 -259 49 -403 -21 -89 -44
-107 -49 -166 -49 -36 0 -84 5 -106 11 -88 23 -82 24 -77 -12 5 -31 4 -32 -27
-26 -38 8 -81 -7 -81 -28 0 -8 -12 -22 -28 -32 -70 -43 -72 -48 -72 -155 0
-80 3 -98 15 -98 19 0 39 32 60 100 18 54 64 110 90 110 7 0 19 -10 28 -22 14
-22 16 -22 32 -6 14 13 23 14 41 6 17 -8 27 -8 39 2 23 19 45 5 45 -30 l0 -31
40 33 c26 22 45 49 56 81 12 35 21 47 36 47 18 0 19 -4 13 -32 -17 -80 -17
-153 1 -222 9 -39 17 -82 16 -95 -1 -14 -24 -48 -55 -80 l-54 -56 -6 -120 c-8
-127 -1 -242 16 -262 13 -17 58 -16 82 0 17 13 17 15 -5 45 -45 61 -34 224 18
266 85 70 145 135 168 183 15 29 30 55 34 58 16 10 58 -36 79 -86 12 -28 26
-82 30 -120 4 -38 9 -70 12 -72 2 -2 29 -22 59 -44 30 -22 79 -65 107 -96 29
-30 61 -57 70 -59 10 -2 24 -17 32 -35 16 -36 30 -42 84 -35 45 5 49 25 7 47
-45 24 -185 165 -209 212 -27 54 -65 234 -57 267 8 32 26 33 107 6 40 -14 100
-23 177 -27 85 -4 127 -11 155 -25 20 -10 37 -23 37 -28 0 -16 57 -40 94 -40
21 0 67 -16 118 -43 l83 -42 0 -132 c0 -107 3 -135 16 -148 31 -31 46 -9 53
78 4 45 11 86 16 91 25 25 76 -13 190 -144 53 -61 74 -74 106 -66 16 4 24 13
24 29 0 28 -9 40 -41 54 -37 16 -147 121 -166 157 -8 17 -31 46 -50 63 -29 27
-34 37 -29 59 19 73 18 80 -9 113 -15 17 -45 41 -66 51 -21 11 -43 28 -48 38
-15 28 11 173 38 210 29 42 141 142 158 142 30 0 118 -54 170 -106 48 -47 60
-54 94 -54 30 0 42 5 55 25 15 23 15 28 -7 82 -13 32 -26 63 -30 68 -4 6 -24
44 -45 85 -20 41 -50 90 -65 108 -16 18 -29 37 -29 41 0 5 -15 12 -32 15 -21
4 -43 19 -61 41 -33 42 -50 45 -45 8 3 -26 3 -27 -64 -26 -57 0 -69 -3 -73
-19 -7 -22 -14 -22 -39 -3 -26 19 -37 10 -29 -25 5 -27 3 -30 -20 -30 -22 0
-26 -5 -29 -32 -3 -31 -6 -33 -46 -36 -54 -4 -86 16 -102 62 -14 44 -7 56 32
56 16 0 42 8 56 19 15 10 36 20 47 22 44 9 21 139 -24 139 -11 0 -25 2 -33 5
-7 3 -29 -5 -48 -16z m-122 -205 c12 -8 22 -24 22 -34 0 -51 41 -90 95 -90 24
0 42 -16 31 -27 -3 -4 -35 -8 -71 -10 -64 -3 -66 -3 -85 29 -11 18 -35 50 -55
70 -36 38 -44 63 -22 71 25 11 63 7 85 -9z m308 -689 c19 -29 11 -44 -14 -29
-19 12 -29 54 -13 54 6 0 18 -11 27 -25z"/>
</g>
</svg>
