<?xml version="1.0" standalone="no"?>
<!DOCTYPE svg PUBLIC "-//W3C//DTD SVG 20010904//EN"
 "http://www.w3.org/TR/2001/REC-SVG-20010904/DTD/svg10.dtd">
<svg version="1.0" xmlns="http://www.w3.org/2000/svg"
 width="400.000000pt" height="300.000000pt" viewBox="0 0 400.000000 300.000000"
 preserveAspectRatio="xMidYMid meet">
<metadata>
Created by potrace 1.16, written by Peter Selinger 2001-2019
</metadata>
<g transform="translate(0.000000,300.000000) scale(0.100000,-0.100000)"
fill="#000000" stroke="none">
<path d="M1055 2491 c-3 -6 -5 -27 -5 -48 2 -79 -14 -126 -69 -193 -29 -36
-61 -82 -72 -102 -10 -20 -28 -43 -40 -52 -19 -13 -21 -21 -15 -62 7 -57 18
-72 61 -80 l32 -6 6 -261 c5 -261 15 -367 59 -622 30 -170 32 -206 14 -267
-21 -74 -67 -134 -121 -160 -50 -24 -60 -44 -17 -33 52 13 76 30 118 85 59 77
81 161 65 244 -64 329 -84 539 -79 834 2 159 6 205 17 211 7 5 37 12 65 15 29
4 67 18 87 32 20 14 53 27 73 31 42 7 61 -7 109 -77 17 -25 56 -73 89 -107
l58 -61 0 -76 c0 -105 16 -168 66 -264 24 -46 44 -96 44 -110 0 -15 10 -47 22
-72 17 -37 22 -77 31 -220 12 -210 2 -303 -36 -335 -32 -27 -71 -100 -64 -119
5 -12 21 -16 66 -16 51 0 62 3 75 22 9 12 16 38 16 57 0 21 7 39 18 47 14 10
18 35 24 131 13 217 26 388 33 431 8 44 20 54 29 25 10 -34 26 -158 26 -211 0
-37 8 -68 26 -105 21 -40 28 -71 32 -137 4 -77 2 -88 -18 -113 -12 -15 -33
-48 -46 -72 l-23 -44 22 -16 c31 -21 37 -20 100 26 48 34 56 44 51 64 -3 13 2
37 11 55 15 30 15 37 -3 118 -20 85 -35 262 -36 412 l-1 75 29 3 c36 4 45 -10
39 -57 -8 -62 40 -88 113 -61 25 10 26 14 21 54 -8 56 4 66 85 73 63 5 217 59
268 93 14 10 40 25 58 34 30 16 34 16 57 -1 14 -10 51 -60 82 -112 65 -108 82
-176 82 -341 1 -106 -21 -189 -65 -247 -13 -17 -24 -36 -24 -42 0 -6 -13 -23
-29 -37 -16 -14 -35 -39 -41 -55 -18 -42 0 -59 59 -59 60 0 91 21 91 63 0 19
9 41 25 57 14 14 31 48 39 76 35 123 50 170 58 179 4 5 8 -46 8 -115 0 -111
-2 -128 -25 -177 -14 -29 -23 -58 -19 -64 4 -7 25 -8 58 -4 71 10 88 21 85 53
-2 15 3 42 11 61 12 29 11 40 -4 86 -21 60 -16 124 15 215 10 30 19 62 19 72
0 17 -73 165 -90 182 -6 6 -10 29 -10 53 0 52 35 125 79 167 l31 30 0 -80 c0
-53 8 -108 25 -169 22 -80 24 -102 19 -191 -7 -98 -6 -102 15 -114 12 -6 26
-22 31 -36 13 -34 33 -30 70 13 l33 37 -6 160 c-4 95 -13 188 -22 226 -13 49
-15 83 -9 140 13 123 10 241 -6 280 -25 60 -78 126 -133 164 -29 20 -55 36
-59 36 -4 0 -40 20 -80 45 -40 24 -106 55 -147 67 -64 19 -79 20 -128 10 -46
-10 -58 -9 -79 5 -20 13 -29 13 -53 3 -37 -15 -51 -7 -51 31 0 34 -22 48 -47
28 -9 -8 -31 -37 -50 -66 -18 -28 -41 -54 -52 -58 -10 -3 -55 5 -100 18 -83
24 -84 25 -130 97 -6 8 -12 27 -16 43 -5 24 -9 27 -50 27 -51 0 -63 -12 -45
-46 10 -18 11 -30 2 -49 -7 -14 -12 -36 -12 -49 0 -13 -7 -29 -15 -36 -12 -10
-42 1 -167 63 -84 42 -191 93 -238 115 -47 22 -125 65 -174 96 -68 43 -98 56
-127 56 -21 0 -43 6 -48 13 -51 64 -71 81 -79 69 -5 -7 -7 -24 -4 -38 7 -36
-15 -30 -39 11 -23 38 -25 40 -34 26z m1060 -1171 c22 -25 10 -42 -30 -42 -34
0 -39 6 -31 37 8 31 36 33 61 5z"/>
</g>
</svg>
