<?xml version="1.0" standalone="no"?>
<!DOCTYPE svg PUBLIC "-//W3C//DTD SVG 20010904//EN"
 "http://www.w3.org/TR/2001/REC-SVG-20010904/DTD/svg10.dtd">
<svg version="1.0" xmlns="http://www.w3.org/2000/svg"
 width="475.000000pt" height="465.000000pt" viewBox="0 0 475.000000 465.000000"
 preserveAspectRatio="xMidYMid meet">
<metadata>
Created by potrace 1.16, written by Peter Selinger 2001-2019
</metadata>
<g transform="translate(0.000000,465.000000) scale(0.100000,-0.100000)"
fill="#000000" stroke="none">
<path d="M2104 4243 c-12 -2 -30 -13 -40 -24 -9 -10 -26 -19 -36 -19 -10 0
-30 -11 -44 -25 -20 -20 -24 -32 -19 -54 5 -23 0 -35 -29 -66 -39 -41 -47 -75
-18 -75 10 0 23 5 29 11 44 44 63 -83 21 -129 -22 -23 -23 -31 -23 -195 0
-159 2 -176 24 -227 13 -30 26 -83 29 -117 l5 -63 -32 0 c-31 0 -31 0 -31 -54
l0 -54 -49 -17 c-41 -13 -52 -22 -61 -48 -6 -19 -28 -44 -53 -61 -147 -103
-260 -220 -304 -316 -19 -41 -38 -84 -44 -95 -5 -11 -15 -42 -22 -70 l-12 -50
-55 -3 c-30 -2 -73 1 -95 7 -62 15 -124 -1 -158 -40 -37 -45 -68 -131 -74
-206 -4 -56 -2 -62 18 -68 16 -6 26 -2 39 15 25 33 32 12 24 -75 -8 -85 3
-113 37 -94 26 13 39 4 39 -29 0 -14 7 -46 16 -69 16 -42 23 -47 79 -55 16 -3
21 -13 26 -52 3 -30 12 -53 23 -61 17 -13 17 -15 0 -42 -10 -15 -38 -46 -63
-69 -54 -49 -49 -64 22 -64 63 0 148 45 171 89 28 54 36 111 20 149 -18 44
-18 42 11 42 20 0 25 6 31 37 8 40 9 36 -77 183 -40 67 -44 80 -44 140 l0 65
32 3 c28 3 41 -6 108 -72 41 -42 87 -79 102 -82 16 -4 33 -11 39 -15 6 -5 35
-13 65 -19 167 -35 248 -93 312 -226 21 -43 44 -90 51 -104 18 -39 61 -54 156
-56 169 -2 167 -2 203 -34 28 -24 44 -30 79 -30 32 0 50 -6 63 -20 15 -17 31
-20 100 -20 61 0 86 4 95 15 16 20 6 56 -26 94 -20 24 -34 31 -61 31 -24 0
-51 12 -89 39 -47 34 -66 41 -142 51 -102 14 -166 39 -182 72 -7 12 -27 41
-45 63 -42 53 -65 124 -65 204 0 36 -7 87 -16 112 -27 75 -22 79 103 78 140
-1 160 4 286 78 27 15 39 9 73 -38 33 -45 64 -57 109 -40 17 6 38 11 47 11 8
0 27 9 40 20 14 10 43 22 64 25 37 6 40 4 62 -32 41 -68 70 -104 109 -133 37
-28 51 -41 96 -88 12 -13 34 -30 48 -37 26 -14 39 -58 39 -136 0 -34 34 -69
67 -69 18 0 29 -13 53 -60 19 -39 41 -65 60 -75 16 -8 36 -28 44 -43 21 -40
35 -49 86 -57 55 -8 83 9 83 49 0 22 -14 41 -59 82 -33 30 -62 54 -65 54 -4 0
-14 20 -23 43 -9 24 -32 62 -50 83 -53 62 -66 126 -62 298 5 183 -1 198 -95
235 -83 34 -93 51 -85 151 5 49 3 101 -4 134 -9 44 -8 69 5 131 16 81 39 135
55 135 5 0 30 -16 55 -35 87 -66 271 -99 344 -61 59 32 118 117 141 205 17 63
19 66 46 63 19 -2 37 4 52 18 18 17 22 31 22 85 l0 64 -72 54 c-40 30 -95 67
-123 82 -88 49 -121 74 -154 119 -31 41 -51 54 -139 87 -20 7 -44 28 -58 50
-26 42 -58 64 -80 55 -17 -6 -20 -107 -4 -137 9 -15 7 -19 -5 -19 -9 0 -26 5
-37 11 -17 9 -24 8 -34 -6 -8 -10 -11 -22 -8 -26 5 -9 -65 -59 -83 -59 -8 0
-22 5 -32 12 -31 19 -53 -6 -45 -50 6 -33 6 -35 -17 -28 -60 19 -69 18 -75 0
-27 -83 -34 -88 -128 -85 -55 2 -63 5 -105 44 -25 23 -66 50 -91 60 -25 10
-72 31 -105 47 -33 16 -67 31 -75 34 -8 4 -33 17 -55 31 -22 13 -56 33 -77 44
-37 21 -108 99 -108 119 0 6 11 37 26 69 14 32 24 69 23 83 -2 45 1 50 41 56
45 7 51 23 19 55 -15 15 -28 19 -49 14 -26 -6 -35 0 -77 44 -27 28 -51 50 -53
50 -3 -1 -15 -4 -26 -6z m262 -677 c43 -27 86 -46 114 -50 25 -4 60 -15 78
-26 18 -11 44 -20 57 -20 35 0 107 -47 103 -67 -2 -9 -24 -22 -52 -31 -42 -14
-51 -22 -68 -59 -23 -52 -48 -58 -48 -10 0 18 -5 38 -12 45 -9 9 -9 18 0 37 7
14 12 37 12 50 0 22 -5 25 -34 25 -39 0 -63 -19 -72 -58 -3 -15 -12 -40 -19
-57 -8 -16 -16 -38 -19 -47 -11 -37 -62 -9 -108 59 -24 34 -27 48 -28 138 -1
55 -2 103 -1 108 2 16 30 5 97 -37z m1093 -275 c13 -9 30 -20 37 -26 8 -6 21
-5 36 2 49 23 228 46 228 29 0 -2 -11 -37 -25 -78 -20 -60 -33 -81 -74 -119
-40 -38 -58 -47 -98 -52 -48 -6 -75 4 -253 93 -9 4 -16 24 -18 47 -2 31 3 45
24 69 60 65 90 72 143 35z m-240 -897 c12 -15 21 -35 21 -45 0 -25 -27 -24
-35 0 -3 11 -12 22 -20 25 -19 7 -20 46 -1 46 8 0 24 -12 35 -26z"/>
</g>
</svg>
