<?xml version="1.0" standalone="no"?>
<!DOCTYPE svg PUBLIC "-//W3C//DTD SVG 20010904//EN"
 "http://www.w3.org/TR/2001/REC-SVG-20010904/DTD/svg10.dtd">
<svg version="1.0" xmlns="http://www.w3.org/2000/svg"
 width="400.000000pt" height="300.000000pt" viewBox="0 0 400.000000 300.000000"
 preserveAspectRatio="xMidYMid meet">
<metadata>
Created by potrace 1.16, written by Peter Selinger 2001-2019
</metadata>
<g transform="translate(0.000000,300.000000) scale(0.100000,-0.100000)"
fill="#000000" stroke="none">
<path d="M1724 1525 c-4 -8 -17 -15 -30 -15 -27 0 -31 -17 -9 -46 20 -26 19
-53 -2 -61 -37 -12 -53 -46 -53 -110 0 -78 -12 -104 -77 -173 -57 -59 -62 -74
-37 -101 15 -17 14 -34 -12 -142 -7 -29 -6 -29 36 -25 41 3 44 1 54 -27 5 -16
12 -93 15 -170 6 -131 7 -140 26 -143 18 -2 21 3 21 40 2 142 27 268 48 247 6
-5 9 -214 5 -249 -5 -34 2 -50 20 -50 16 0 19 12 25 109 4 60 14 121 22 136 8
15 14 38 14 50 0 25 23 39 51 30 31 -10 42 4 25 31 -32 47 -17 89 34 96 43 5
37 41 -19 118 -50 68 -65 120 -41 135 6 3 10 38 10 76 0 61 -3 73 -25 94 -13
14 -29 25 -35 25 -13 0 -13 37 0 45 6 3 10 21 10 38 0 25 -6 35 -27 45 -35 16
-42 15 -49 -3z"/>
</g>
</svg>
