<?xml version="1.0" standalone="no"?>
<!DOCTYPE svg PUBLIC "-//W3C//DTD SVG 20010904//EN"
 "http://www.w3.org/TR/2001/REC-SVG-20010904/DTD/svg10.dtd">
<svg version="1.0" xmlns="http://www.w3.org/2000/svg"
 width="201.000000pt" height="186.000000pt" viewBox="0 0 201.000000 186.000000"
 preserveAspectRatio="xMidYMid meet">
<metadata>
Created by potrace 1.16, written by Peter Selinger 2001-2019
</metadata>
<g transform="translate(0.000000,186.000000) scale(0.100000,-0.100000)"
fill="#000000" stroke="none">
<path d="M246 1818 c-3 -7 -6 -22 -8 -32 -4 -27 -25 -31 -33 -6 -9 28 -31 20
-27 -10 3 -19 0 -22 -18 -17 -19 5 -21 2 -15 -22 5 -23 2 -29 -14 -34 -28 -7
-26 -25 4 -39 30 -14 31 -22 5 -55 -11 -14 -20 -34 -20 -44 0 -20 24 -26 35
-9 8 13 45 13 45 0 0 -5 -5 -21 -12 -35 -9 -20 -8 -37 7 -86 l19 -60 -35 -67
c-33 -65 -34 -70 -34 -182 1 -142 17 -199 85 -303 65 -100 130 -161 210 -198
36 -17 75 -35 88 -41 29 -15 72 -88 79 -136 3 -22 18 -50 36 -69 26 -28 29
-37 24 -75 -17 -122 -41 -178 -77 -178 -28 0 -110 -42 -110 -56 0 -10 42 -12
193 -7 299 8 367 18 317 44 -8 4 -37 11 -64 16 -49 8 -77 33 -37 33 27 0 27
12 0 36 -18 16 -20 29 -19 114 1 52 -2 119 -5 147 -7 51 -6 53 22 64 15 6 70
19 121 30 113 23 130 31 148 74 17 42 28 49 44 30 19 -23 29 -18 47 20 13 27
19 32 30 24 16 -14 43 -4 43 15 0 22 22 66 33 66 6 0 7 -25 2 -65 -6 -62 -6
-65 15 -65 15 0 27 13 42 48 12 26 25 60 28 77 4 24 10 29 35 29 23 0 31 -5
35 -24 5 -22 6 -22 24 -5 10 11 16 27 13 41 -7 37 10 53 22 20 16 -40 35 -27
41 30 l6 49 13 -30 c12 -29 13 -29 27 -11 8 11 14 23 14 28 0 4 5 8 10 8 14 0
12 -32 -5 -73 -13 -31 -13 -36 1 -48 19 -15 36 1 52 49 12 34 3 147 -18 240
-13 54 -13 172 -1 172 5 0 20 -17 33 -37 20 -34 23 -53 27 -166 2 -103 6 -130
18 -134 25 -10 33 18 33 120 0 75 3 98 13 94 24 -8 14 -153 -18 -244 -27 -78
-28 -119 -3 -111 21 7 48 52 73 123 44 124 31 334 -26 434 -27 49 -80 84 -163
110 -85 26 -140 27 -227 1 -123 -37 -202 -120 -255 -268 -38 -107 -50 -118
-127 -114 -136 5 -362 62 -435 109 -26 16 -56 77 -92 187 -31 93 -82 184 -130
227 -49 45 -50 64 -5 79 39 13 45 32 15 53 -16 11 -19 21 -14 45 5 25 3 32 -9
32 -8 0 -20 -7 -27 -15 -17 -21 -30 -9 -30 26 0 37 -19 35 -38 -4 -17 -36 -39
-34 -47 3 -7 33 -23 48 -29 28z m538 -1460 c20 -33 28 -225 9 -243 -27 -27
-83 13 -70 49 5 12 13 15 28 11 17 -6 20 -3 17 12 -2 10 -12 19 -23 19 -11 1
-23 2 -27 3 -4 1 2 22 13 47 14 31 19 57 15 78 -9 49 13 63 38 24z"/>
</g>
</svg>
