<?xml version="1.0" standalone="no"?>
<!DOCTYPE svg PUBLIC "-//W3C//DTD SVG 20010904//EN"
 "http://www.w3.org/TR/2001/REC-SVG-20010904/DTD/svg10.dtd">
<svg version="1.0" xmlns="http://www.w3.org/2000/svg"
 width="400.000000pt" height="300.000000pt" viewBox="0 0 400.000000 300.000000"
 preserveAspectRatio="xMidYMid meet">
<metadata>
Created by potrace 1.16, written by Peter Selinger 2001-2019
</metadata>
<g transform="translate(0.000000,300.000000) scale(0.100000,-0.100000)"
fill="#000000" stroke="none">
<path d="M2043 2722 c-23 -20 -47 -50 -53 -65 -18 -51 -12 -125 17 -190 15
-33 23 -62 18 -64 -6 -2 -20 -9 -31 -16 -12 -6 -40 -22 -63 -35 -22 -12 -75
-55 -116 -95 -74 -71 -75 -73 -75 -124 0 -94 65 -143 190 -143 63 0 70 -2 70
-19 0 -21 -35 -51 -59 -51 -8 0 -30 15 -49 33 l-33 32 -25 -28 c-28 -33 -32
-91 -8 -125 10 -14 13 -30 8 -40 -4 -9 -8 -102 -9 -207 -2 -178 -4 -197 -32
-300 -34 -123 -79 -198 -185 -306 -36 -36 -58 -67 -58 -81 0 -13 -9 -43 -20
-67 -29 -63 -26 -101 13 -149 17 -23 40 -44 50 -47 21 -8 73 11 80 28 8 22
-12 58 -43 75 -17 10 -30 25 -30 36 0 34 59 112 113 150 28 19 64 45 78 57 26
21 86 28 109 14 18 -11 5 -70 -23 -107 -14 -18 -32 -51 -41 -73 -9 -22 -46
-69 -82 -105 -166 -165 -166 -166 -157 -253 l6 -55 151 5 c83 2 189 8 236 14
47 5 110 9 141 9 l56 0 7 88 c4 48 8 103 9 122 1 19 11 49 22 65 11 17 25 38
30 49 6 10 31 29 55 43 57 32 78 50 86 77 4 11 36 51 73 87 122 122 167 180
184 239 27 97 29 155 6 203 -42 90 -60 117 -84 133 -14 9 -25 21 -25 27 0 6
-12 24 -27 40 -27 27 -28 32 -25 120 2 66 7 95 17 103 8 6 28 28 45 49 l30 38
0 148 c0 142 -1 148 -25 177 -47 56 -56 112 -17 112 21 0 42 18 42 37 0 9 -15
13 -45 13 -43 0 -45 1 -45 28 0 37 -28 62 -67 62 -25 0 -36 -7 -53 -34 -13
-22 -26 -33 -36 -29 -22 8 -64 -6 -64 -22 0 -8 12 -26 28 -40 l27 -25 -35 6
c-19 4 -43 11 -52 16 -27 14 -22 60 11 102 34 42 50 115 33 149 -6 12 -13 34
-16 49 -9 39 -41 65 -102 83 -73 21 -84 19 -131 -23z m168 -51 c21 -16 22 -22
11 -42 -6 -13 -16 -44 -21 -69 -6 -24 -15 -46 -21 -48 -6 -2 -25 -20 -44 -39
-40 -43 -66 -39 -92 15 -34 73 -35 148 -2 190 17 20 141 16 169 -7z m-125
-333 c28 -54 83 -116 130 -145 24 -15 44 -32 44 -38 0 -5 -9 -32 -19 -60 -15
-38 -24 -49 -38 -46 -21 4 -53 4 -213 -4 -107 -6 -118 -4 -160 17 -39 20 -45
28 -48 59 -3 30 4 44 35 81 57 67 201 167 240 168 7 0 20 -15 29 -32z m94
-358 c29 -15 25 -114 -7 -157 -28 -38 -56 -55 -77 -47 -22 9 -37 60 -26 90 6
14 10 48 10 75 l0 49 41 0 c22 0 49 -4 59 -10z m90 -1070 c0 -20 -34 -66 -93
-123 -66 -64 -92 -81 -113 -73 -22 8 -17 19 30 69 24 25 49 59 55 75 13 30 61
60 99 61 12 1 22 -4 22 -9z m-254 -48 c-8 -15 -30 -52 -50 -82 -30 -46 -35
-60 -30 -90 10 -53 49 -90 97 -90 35 0 38 -2 32 -22 -4 -13 -11 -27 -15 -32
-11 -11 -302 -25 -314 -15 -11 9 16 47 103 142 33 37 61 71 61 75 0 4 18 26
40 50 22 24 48 54 56 68 22 33 38 30 20 -4z"/>
</g>
</svg>
