<?xml version="1.0" standalone="no"?>
<!DOCTYPE svg PUBLIC "-//W3C//DTD SVG 20010904//EN"
 "http://www.w3.org/TR/2001/REC-SVG-20010904/DTD/svg10.dtd">
<svg version="1.0" xmlns="http://www.w3.org/2000/svg"
 width="198.000000pt" height="209.000000pt" viewBox="0 0 198.000000 209.000000"
 preserveAspectRatio="xMidYMid meet">
<metadata>
Created by potrace 1.16, written by Peter Selinger 2001-2019
</metadata>
<g transform="translate(0.000000,209.000000) scale(0.100000,-0.100000)"
fill="#000000" stroke="none">
<path d="M213 2052 c-20 -15 -22 -21 -13 -54 6 -21 15 -40 20 -43 6 -4 10 -17
10 -29 0 -13 19 -52 42 -86 41 -62 87 -100 121 -100 24 0 21 -27 -9 -80 -31
-53 -54 -130 -54 -183 0 -21 -7 -54 -15 -74 -21 -50 -19 -90 10 -151 30 -65
57 -165 50 -184 -3 -8 -38 -48 -78 -89 -42 -43 -83 -97 -99 -130 -15 -31 -43
-76 -63 -99 -40 -47 -41 -70 -7 -85 12 -5 22 -16 22 -23 0 -16 45 -62 61 -62
8 0 9 16 5 53 -6 47 -4 56 21 88 90 116 142 173 183 199 53 34 110 88 110 104
0 6 -4 28 -9 49 -5 21 -5 39 0 42 12 8 137 -92 144 -114 3 -10 -11 -58 -31
-107 -42 -105 -41 -154 6 -244 16 -30 32 -71 35 -90 8 -51 41 -99 78 -115 35
-15 127 -91 127 -106 0 -5 -11 -14 -24 -19 -38 -14 -59 -53 -51 -92 16 -75 68
-89 121 -33 18 19 37 35 43 35 6 0 22 -20 37 -45 24 -41 29 -45 64 -45 41 0
75 24 63 43 -4 7 -22 31 -39 54 -31 40 -65 146 -51 159 12 13 27 -9 42 -61 10
-33 28 -66 48 -85 18 -17 37 -45 43 -63 9 -26 17 -33 42 -35 55 -6 65 8 68 84
1 38 7 81 13 96 6 17 8 64 5 120 -7 98 7 178 29 178 7 0 21 -6 31 -13 24 -18
25 -173 1 -237 -29 -79 -29 -77 6 -94 18 -9 36 -13 39 -9 17 19 40 116 40 165
0 63 18 95 46 84 18 -7 18 -9 -3 -23 -15 -10 -23 -26 -23 -44 0 -27 22 -59 41
-59 12 0 3 -85 -18 -163 -12 -44 -13 -61 -4 -70 27 -27 44 5 97 180 7 24 32
13 38 -17 4 -24 11 -30 31 -30 21 0 25 5 25 28 0 15 -9 45 -20 66 l-19 39 34
48 c39 53 54 104 64 229 8 90 26 140 52 140 8 0 20 5 27 12 14 14 16 54 3 62
-4 3 -14 40 -21 83 -7 43 -17 84 -23 91 -5 6 -31 12 -57 12 -39 0 -51 -5 -74
-30 l-27 -31 -34 21 c-46 29 -79 24 -83 -12 -2 -16 -9 -28 -15 -28 -29 1 -44
27 -51 89 -4 35 -16 86 -27 113 -10 27 -19 66 -19 86 0 21 -7 62 -16 92 -8 30
-17 91 -19 135 -3 44 -9 121 -15 170 -6 50 -8 123 -4 164 5 60 4 73 -7 69 -8
-2 -20 -16 -27 -31 -12 -24 -17 -26 -67 -24 -36 1 -56 -2 -60 -10 -7 -20 -29
-15 -55 12 -13 14 -27 25 -32 25 -16 0 -8 -48 13 -74 21 -26 21 -35 15 -148
-4 -66 -10 -126 -13 -134 -11 -29 -189 -100 -223 -89 -10 3 -20 19 -24 36 -5
27 -8 30 -38 25 -124 -19 -129 -19 -124 6 14 69 16 101 5 142 -10 41 -9 48 10
72 12 15 21 37 21 48 0 16 11 27 35 39 40 19 68 57 59 81 -5 12 -13 16 -28 11
-44 -13 -50 -11 -58 30 -15 74 -70 87 -122 30 -26 -28 -40 -35 -68 -35 -64 0
-86 -44 -47 -94 27 -34 20 -41 -26 -26 -20 7 -46 9 -58 6 -19 -4 -30 5 -65 57
-24 36 -42 74 -42 90 0 18 -10 37 -27 52 -33 29 -41 30 -70 7z m883 -569 c-4
-16 -14 -34 -23 -40 -19 -15 -166 -17 -198 -3 -25 11 -23 11 45 14 36 2 72 11
105 28 67 35 79 35 71 1z m-257 -47 c28 -23 82 -36 157 -36 43 0 74 -4 74 -10
0 -5 -5 -10 -12 -10 -6 0 -26 -11 -44 -25 -18 -14 -44 -25 -58 -25 -13 0 -37
-4 -51 -10 -22 -8 -26 -15 -23 -41 3 -28 -1 -32 -37 -44 -22 -8 -55 -30 -73
-50 -18 -19 -36 -35 -40 -35 -9 0 -76 62 -88 81 -5 8 -26 28 -46 43 -44 33
-48 58 -15 98 19 24 32 28 94 34 52 5 77 12 89 25 20 22 51 24 73 5z m791
-440 c0 -18 -31 -29 -44 -16 -8 8 -7 14 4 20 22 14 40 12 40 -4z m-682 -363
c12 -31 13 -153 1 -153 -16 0 -55 161 -42 174 14 14 31 4 41 -21z m245 -107
c3 -30 13 -66 22 -79 14 -22 15 -31 4 -66 -13 -45 -20 -49 -40 -25 -14 17 -26
191 -15 219 10 28 23 7 29 -49z"/>
</g>
</svg>
