<?xml version="1.0" standalone="no"?>
<!DOCTYPE svg PUBLIC "-//W3C//DTD SVG 20010904//EN"
 "http://www.w3.org/TR/2001/REC-SVG-20010904/DTD/svg10.dtd">
<svg version="1.0" xmlns="http://www.w3.org/2000/svg"
 width="400.000000pt" height="300.000000pt" viewBox="0 0 400.000000 300.000000"
 preserveAspectRatio="xMidYMid meet">
<metadata>
Created by potrace 1.16, written by Peter Selinger 2001-2019
</metadata>
<g transform="translate(0.000000,300.000000) scale(0.100000,-0.100000)"
fill="#000000" stroke="none">
<path d="M1820 2520 c-11 -11 -20 -26 -20 -34 0 -8 -19 -21 -42 -28 -52 -18
-63 -48 -23 -66 14 -7 35 -12 45 -12 15 0 20 -7 20 -29 0 -21 6 -32 19 -36 11
-3 23 -16 27 -28 4 -12 14 -27 23 -34 14 -10 14 -13 0 -30 -9 -10 -28 -39 -42
-65 -15 -25 -39 -56 -54 -68 -30 -23 -58 -22 -141 6 -63 21 -135 19 -147 -4
-32 -60 -78 -121 -87 -116 -5 4 -23 -3 -38 -15 -16 -11 -31 -17 -35 -12 -3 5
-1 12 5 16 5 3 10 15 10 27 0 16 -5 19 -24 14 -18 -4 -25 -1 -29 14 -7 26 -37
26 -79 0 -49 -30 -62 -27 -54 13 20 92 20 97 -3 97 -19 0 -64 -37 -154 -127
-48 -48 -86 -97 -101 -134 -13 -30 -85 -118 -162 -200 -13 -14 -24 -31 -24
-37 0 -16 43 -106 55 -114 17 -13 75 -9 107 8 28 15 31 14 52 -4 75 -69 138
-78 234 -32 35 17 70 30 77 30 8 0 17 -15 20 -37 15 -93 38 -158 78 -220 37
-58 35 -82 -14 -128 -22 -22 -59 -66 -82 -99 -103 -144 -185 -229 -257 -266
-19 -10 -44 -27 -54 -39 -11 -12 -31 -21 -46 -21 -35 0 -75 -32 -68 -52 4 -8
23 -23 43 -32 42 -20 77 -11 103 25 7 10 24 19 36 19 23 0 65 29 121 84 40 38
154 112 213 138 26 12 81 52 122 90 77 71 116 91 130 68 36 -59 80 -343 65
-428 -3 -22 -17 -55 -30 -73 -14 -17 -22 -36 -19 -40 3 -5 32 -9 64 -9 72 0
72 1 76 155 4 209 17 305 47 362 32 62 55 71 137 55 113 -24 231 -10 395 46
50 17 117 32 149 35 l59 4 81 -74 c45 -40 111 -92 148 -114 131 -80 268 -267
253 -348 -4 -20 -16 -46 -27 -58 -31 -34 -20 -57 29 -61 63 -5 80 9 89 70 4
29 7 68 8 87 l1 33 75 2 c68 1 75 3 78 22 2 11 -7 33 -19 48 -19 24 -26 27
-59 21 -29 -5 -39 -3 -43 9 -4 9 -17 16 -30 16 -23 0 -57 27 -57 45 0 4 -25
47 -55 95 -30 48 -55 94 -55 103 0 8 -18 30 -40 47 -37 30 -40 35 -34 69 13
77 35 131 54 131 14 0 20 -9 22 -37 3 -41 26 -57 35 -24 3 12 9 21 14 21 16 0
21 -72 9 -131 -9 -42 -10 -63 -3 -70 15 -15 50 5 58 31 3 11 12 20 19 20 17 0
26 -45 26 -125 0 -45 4 -66 16 -76 14 -11 18 -10 29 5 13 17 15 16 30 -14 14
-26 21 -31 41 -26 16 4 24 2 25 -6 0 -7 6 0 13 16 14 31 19 28 30 -16 3 -16
11 -28 16 -28 18 0 9 81 -26 222 -11 45 12 32 30 -17 40 -103 47 -4 9 115 -16
48 -26 61 -82 103 -69 52 -131 120 -131 144 0 8 12 24 26 36 111 91 121 105
143 186 42 156 38 165 -172 375 -129 128 -190 181 -240 209 -75 43 -167 77
-205 77 -13 0 -37 8 -53 17 -25 15 -35 16 -71 5 -24 -7 -86 -24 -138 -38 -73
-19 -101 -32 -123 -54 -15 -17 -35 -30 -44 -30 -8 0 -34 21 -56 47 -25 28 -62
55 -94 69 -29 13 -53 28 -53 34 0 5 16 16 36 25 46 19 44 53 -3 75 -21 10 -34
25 -38 42 -12 52 -153 80 -195 38z m945 -307 c122 -50 177 -92 229 -175 30
-50 56 -79 78 -90 86 -41 168 -147 168 -217 0 -61 -31 -134 -76 -177 -75 -73
-94 -76 -134 -22 -35 48 -122 83 -201 81 -44 -2 -91 5 -135 19 -38 11 -100 26
-137 33 -72 13 -83 22 -113 85 -9 19 -29 62 -45 95 -15 33 -55 92 -88 132 -34
39 -61 78 -61 87 0 8 15 24 34 35 38 24 46 39 46 82 0 24 7 32 43 48 37 17 59
19 182 16 126 -4 147 -7 210 -32z m-1198 -209 c31 -9 79 -27 107 -40 66 -31
111 -30 171 2 59 31 65 25 65 -64 0 -38 7 -78 16 -98 17 -36 13 -68 -9 -62 -6
2 -22 24 -35 48 -31 62 -72 76 -72 24 0 -14 -9 -34 -20 -46 -11 -12 -20 -29
-20 -39 0 -27 -28 -45 -48 -31 -10 6 -34 21 -55 32 -21 12 -42 32 -47 45 -5
13 -18 29 -30 35 -14 7 -20 21 -20 45 0 62 -22 80 -69 55 -16 -8 -19 -4 -24
27 -4 25 -1 45 9 60 17 27 12 27 81 7z m754 -116 c13 -18 43 -72 65 -120 52
-106 43 -121 -55 -102 -29 6 -31 9 -31 50 0 38 -4 46 -25 56 -22 10 -25 16
-20 47 3 20 8 51 11 69 3 17 11 32 18 32 7 0 23 -15 37 -32z m-1130 -229 c34
-47 33 -67 -3 -103 -62 -62 -157 -71 -215 -22 -26 23 -25 46 2 46 29 0 121 48
150 79 33 35 41 35 66 0z"/>
</g>
</svg>
