<?xml version="1.0" standalone="no"?>
<!DOCTYPE svg PUBLIC "-//W3C//DTD SVG 20010904//EN"
 "http://www.w3.org/TR/2001/REC-SVG-20010904/DTD/svg10.dtd">
<svg version="1.0" xmlns="http://www.w3.org/2000/svg"
 width="400.000000pt" height="300.000000pt" viewBox="0 0 400.000000 300.000000"
 preserveAspectRatio="xMidYMid meet">
<metadata>
Created by potrace 1.16, written by Peter Selinger 2001-2019
</metadata>
<g transform="translate(0.000000,300.000000) scale(0.100000,-0.100000)"
fill="#000000" stroke="none">
<path d="M3195 2020 c-10 -11 -24 -20 -32 -20 -7 0 -13 -9 -13 -20 0 -10 -9
-24 -20 -30 -11 -6 -29 -29 -41 -52 -18 -35 -19 -46 -10 -84 15 -61 14 -64
-18 -64 -20 0 -36 -9 -51 -27 -26 -34 -118 -56 -162 -41 -45 16 -97 -16 -133
-82 -24 -43 -36 -56 -58 -58 -27 -3 -28 -2 -22 32 6 27 2 41 -14 62 -12 15
-21 34 -21 44 0 10 -10 29 -21 44 -16 20 -19 30 -10 39 15 15 14 34 -2 40 -24
9 -175 -21 -219 -44 -10 -5 -23 -9 -29 -9 -7 0 -34 -13 -61 -30 -60 -37 -75
-38 -96 -1 -22 39 -50 51 -117 51 -47 0 -56 -3 -72 -26 -48 -69 -95 -89 -202
-86 -36 1 -73 0 -83 -4 -22 -7 -48 -54 -48 -87 0 -14 -15 -48 -34 -76 -37 -54
-55 -124 -36 -136 13 -8 60 32 60 51 0 6 6 17 14 23 24 20 56 89 56 120 0 27
21 57 32 46 3 -3 -1 -29 -8 -58 -7 -28 -16 -64 -18 -78 -7 -32 -60 -100 -105
-134 -38 -27 -124 -38 -103 -12 6 6 13 64 16 127 3 63 7 124 8 135 2 13 -3 20
-17 22 -58 6 -77 12 -93 26 -33 30 -147 66 -237 76 -50 5 -60 9 -63 27 -2 11
6 28 18 39 24 22 26 35 5 35 -9 0 -20 11 -25 25 -13 33 -32 33 -24 -1 6 -22 4
-25 -12 -22 -11 2 -20 13 -22 26 -2 13 -9 21 -15 19 -7 -2 -11 -14 -9 -27 5
-30 -21 -22 -28 10 -3 13 -12 26 -19 28 -11 4 -13 -3 -8 -27 6 -28 4 -31 -19
-31 -15 0 -34 10 -45 23 -16 19 -18 19 -19 5 0 -10 -4 -18 -9 -18 -12 0 -41
29 -41 41 0 5 -7 9 -15 9 -23 0 -18 -24 10 -50 14 -13 25 -29 25 -36 0 -17
-40 -28 -53 -15 -19 19 -34 12 -34 -14 0 -18 5 -25 18 -25 11 0 19 -4 19 -10
0 -19 -35 -28 -91 -23 -44 4 -73 1 -116 -15 -32 -11 -70 -23 -85 -26 -33 -7
-108 -78 -108 -103 0 -10 -7 -39 -14 -65 -11 -36 -12 -62 -5 -116 8 -60 7 -79
-9 -129 -11 -32 -22 -88 -25 -126 -4 -59 -2 -69 14 -78 22 -11 1339 -6 2309 9
349 6 713 11 808 11 161 1 172 2 172 20 0 32 -28 44 -118 52 -202 19 -216 24
-172 64 11 10 20 25 20 34 0 9 11 32 24 51 40 59 40 74 5 115 -28 32 -30 39
-20 61 6 14 11 36 11 50 0 14 4 34 10 44 9 17 11 17 50 -2 31 -16 46 -18 67
-10 16 5 42 7 59 5 46 -7 52 9 42 107 -5 47 -10 96 -11 110 -2 22 -6 25 -42
24 -22 -1 -89 -9 -150 -18 -60 -9 -114 -15 -119 -13 -6 2 -15 23 -21 48 -9 35
-16 44 -32 43 -18 0 -22 6 -25 43 -2 33 2 50 15 64 15 16 17 27 10 57 -10 44
-39 54 -68 22z m-2198 -266 c-3 -3 -12 -4 -19 -1 -8 3 -5 6 6 6 11 1 17 -2 13
-5z m1509 -131 c24 -16 47 -38 50 -51 8 -30 51 -62 82 -62 21 0 23 -3 17 -22
-14 -46 -16 -74 -8 -113 9 -43 35 -55 41 -20 2 11 12 28 22 37 10 9 23 40 30
68 9 39 19 54 41 65 28 15 28 15 35 -20 9 -50 -3 -100 -33 -136 -28 -33 -41
-89 -42 -186 l-1 -52 -55 -6 c-35 -5 -66 -3 -83 4 -20 9 -36 9 -56 1 -31 -12
-96 -13 -112 -2 -18 12 -61 85 -77 133 -9 24 -23 62 -32 84 -14 32 -15 46 -6
76 6 20 11 49 11 65 0 37 28 79 82 126 24 21 45 38 47 38 2 0 23 -12 47 -27z
m1033 -12 c12 -16 21 -34 21 -40 0 -16 -73 -14 -95 3 -18 13 -18 14 8 40 33
33 41 33 66 -3z m-3016 -88 c-6 -75 -25 -123 -48 -123 -21 0 -19 48 6 125 29
90 50 88 42 -2z m808 -29 c8 -2 23 -19 32 -37 41 -80 89 -163 104 -179 26 -28
83 -23 129 12 21 16 43 30 48 30 5 0 5 -23 1 -52 -4 -29 -7 -72 -7 -95 1 -38
-2 -44 -26 -50 -30 -7 -216 -9 -386 -3 -74 3 -113 8 -122 18 -28 27 -5 194 26
199 8 2 23 -9 34 -23 18 -26 18 -27 -4 -75 -13 -26 -29 -50 -36 -53 -24 -9
-17 -46 8 -46 25 0 68 36 69 59 0 9 11 39 24 66 26 54 27 45 -21 120 -16 24
-16 27 4 48 11 12 25 35 31 50 11 29 22 31 92 11z m1740 -65 c41 -18 61 -21
113 -15 l63 6 7 -116 c3 -63 10 -124 16 -134 5 -9 6 -20 3 -24 -3 -3 -55 -6
-114 -6 l-107 0 -41 52 c-49 60 -58 90 -42 133 6 17 11 52 11 78 0 56 12 59
91 26z m-2282 -6 c17 -10 36 -31 43 -47 l12 -29 103 6 c103 5 104 5 96 -17 -4
-11 -7 -61 -5 -110 2 -65 -1 -92 -10 -98 -7 -4 -65 -8 -129 -8 l-116 0 -41 44
c-43 47 -58 93 -49 149 7 43 44 127 56 127 5 0 23 -8 40 -17z m1185 -18 c23
-18 140 -20 182 -5 44 17 48 1 24 -101 -12 -52 -25 -112 -28 -134 l-7 -40 -67
-3 c-45 -2 -70 1 -77 10 -6 7 -23 29 -39 48 -52 62 -62 90 -50 140 14 60 29
100 37 100 3 0 15 -7 25 -15z m-1354 -13 c0 -9 -4 -33 -10 -52 -8 -29 -6 -39
14 -70 41 -62 76 -132 70 -141 -6 -10 -233 -12 -258 -3 -23 9 -20 70 6 113 20
35 155 170 171 171 4 0 7 -8 7 -18z m1222 -60 c-4 -42 0 -55 29 -98 18 -27 41
-61 50 -75 10 -15 15 -29 12 -33 -4 -3 -55 -6 -114 -6 -84 0 -111 3 -123 16
-36 35 -4 132 55 170 21 13 48 37 60 53 12 17 25 28 29 26 4 -2 5 -26 2 -53z
m1054 1 c-4 -23 -1 -46 6 -59 7 -12 27 -45 45 -75 17 -29 30 -56 28 -59 -6
-10 -140 -21 -159 -14 -21 8 -29 53 -18 102 8 34 83 142 99 142 3 0 2 -17 -1
-37z m469 18 c10 -16 -29 -116 -45 -116 -15 0 -16 21 -4 93 3 23 10 32 24 32
10 0 21 -4 25 -9z m-1090 -51 c4 -11 17 -33 31 -49 13 -16 31 -48 39 -72 19
-52 12 -59 -62 -59 -45 0 -55 3 -69 26 -17 24 -16 28 5 77 13 29 25 62 28 75
7 27 20 29 28 2z"/>
</g>
</svg>
