<?xml version="1.0" standalone="no"?>
<!DOCTYPE svg PUBLIC "-//W3C//DTD SVG 20010904//EN"
 "http://www.w3.org/TR/2001/REC-SVG-20010904/DTD/svg10.dtd">
<svg version="1.0" xmlns="http://www.w3.org/2000/svg"
 width="310.000000pt" height="201.000000pt" viewBox="0 0 310.000000 201.000000"
 preserveAspectRatio="xMidYMid meet">
<metadata>
Created by potrace 1.16, written by Peter Selinger 2001-2019
</metadata>
<g transform="translate(0.000000,201.000000) scale(0.100000,-0.100000)"
fill="#000000" stroke="none">
<path d="M383 1905 c-3 -9 -3 -33 1 -54 6 -37 3 -42 -62 -112 -85 -92 -129
-136 -175 -175 -33 -28 -37 -36 -37 -78 0 -99 45 -117 161 -63 41 19 97 37
126 40 29 3 63 13 77 22 49 33 81 1 106 -105 7 -30 31 -92 53 -138 36 -75 41
-93 48 -195 4 -62 13 -129 20 -151 12 -36 11 -40 -8 -56 -12 -9 -39 -20 -60
-23 -25 -4 -53 -20 -81 -47 -42 -38 -44 -41 -39 -87 9 -95 35 -201 55 -229 11
-16 23 -47 27 -68 4 -22 15 -51 26 -64 26 -33 24 -67 -6 -118 -28 -47 -24 -74
9 -74 27 0 52 19 59 45 3 11 15 45 27 75 47 121 73 197 82 245 6 28 18 77 28
110 10 33 20 71 22 85 3 23 8 25 63 30 33 3 69 11 80 17 12 6 90 13 190 15
l170 4 115 53 c63 29 131 66 150 81 70 54 83 56 106 15 7 -12 20 -19 33 -18
16 2 27 -6 39 -28 9 -17 27 -44 40 -60 12 -15 34 -60 47 -99 14 -40 39 -88 59
-111 66 -77 72 -184 17 -279 -49 -84 -54 -93 -78 -123 -32 -40 -30 -64 7 -72
40 -9 106 43 120 94 10 39 55 111 69 111 5 0 14 -15 21 -32 26 -71 30 -79 47
-84 10 -3 28 -11 40 -16 16 -8 26 -8 37 1 32 27 24 111 -12 111 -10 0 -26 6
-37 14 -16 12 -17 18 -6 62 7 27 29 85 51 129 61 128 80 176 80 206 0 28 -6
35 -80 82 -59 38 -63 59 -26 136 29 63 31 72 31 189 0 91 3 122 13 122 6 0 30
-18 52 -40 22 -22 49 -40 59 -40 11 0 23 -9 26 -20 3 -11 11 -20 16 -20 17 0
23 32 12 61 -9 22 -8 29 1 29 12 0 46 -60 46 -80 0 -5 5 -21 10 -35 9 -23 13
-25 25 -15 8 7 15 25 15 41 0 16 4 29 9 29 13 0 46 -43 61 -80 13 -32 37 -40
46 -15 3 8 -4 35 -16 60 -22 45 -19 79 4 41 26 -45 55 -67 81 -60 20 5 30 1
46 -20 13 -17 30 -26 49 -26 15 0 33 -7 41 -16 16 -19 63 -44 84 -44 26 0 17
38 -15 62 -37 27 -39 48 -5 48 31 0 32 21 3 39 l-22 13 30 15 c71 37 84 69 24
59 -35 -5 -40 -4 -40 13 0 10 7 24 15 31 45 38 -13 40 -62 3 -41 -32 -88 -35
-144 -11 -29 13 -38 23 -43 52 -6 30 -16 42 -56 67 -26 16 -69 54 -95 84 -64
75 -96 74 -180 -5 -53 -49 -147 -100 -186 -100 -17 0 -46 9 -63 19 -43 27
-175 61 -236 61 -27 0 -111 -16 -187 -35 -109 -28 -157 -35 -228 -34 -85 0
-229 19 -241 32 -10 10 -23 82 -19 102 4 15 -7 29 -40 54 -43 32 -45 35 -29
52 10 11 13 20 8 20 -5 1 -16 3 -24 4 -54 7 -77 19 -87 46 -6 16 -18 29 -27
29 -10 0 -16 9 -16 24 0 28 -19 38 -59 30 -22 -5 -30 -2 -35 12 -4 11 -15 30
-26 43 -19 23 -21 23 -54 7 -43 -20 -66 -20 -66 -1 0 23 -28 30 -57 14 -22
-12 -27 -11 -39 6 -12 16 -18 18 -34 7 -33 -20 -46 -14 -63 28 -16 43 -41 53
-50 20 -3 -11 -10 -20 -15 -20 -6 0 -14 9 -17 20 -8 24 -23 26 -32 5z m311
-1221 c3 -9 6 -53 6 -99 0 -60 -4 -86 -15 -95 -31 -26 -41 -7 -71 147 -4 21
-2 39 6 48 17 20 66 19 74 -1z m1421 -30 c28 -18 33 -55 10 -74 -12 -10 -16
-9 -21 6 -3 11 -12 31 -20 46 -8 14 -14 29 -14 32 0 11 20 6 45 -10z"/>
</g>
</svg>
