<?xml version="1.0" standalone="no"?>
<!DOCTYPE svg PUBLIC "-//W3C//DTD SVG 20010904//EN"
 "http://www.w3.org/TR/2001/REC-SVG-20010904/DTD/svg10.dtd">
<svg version="1.0" xmlns="http://www.w3.org/2000/svg"
 width="343.000000pt" height="216.000000pt" viewBox="0 0 343.000000 216.000000"
 preserveAspectRatio="xMidYMid meet">
<metadata>
Created by potrace 1.16, written by Peter Selinger 2001-2019
</metadata>
<g transform="translate(0.000000,216.000000) scale(0.100000,-0.100000)"
fill="#000000" stroke="none">
<path d="M437 1817 c-20 -46 -49 -52 -88 -20 -39 33 -48 22 -21 -26 12 -21 22
-46 22 -55 0 -9 -20 -58 -44 -109 -25 -50 -50 -114 -57 -142 -6 -27 -29 -85
-50 -129 -22 -43 -39 -89 -39 -102 0 -15 17 -43 41 -69 48 -52 87 -59 120 -22
11 12 49 56 85 97 57 66 114 117 152 136 23 12 41 -5 79 -76 21 -39 57 -101
81 -138 33 -52 42 -74 38 -97 -8 -46 8 -111 38 -153 14 -21 26 -46 26 -55 0
-9 -43 -59 -96 -111 -97 -94 -97 -94 -91 -135 4 -31 17 -54 55 -96 28 -30 55
-70 62 -89 7 -21 19 -36 33 -40 36 -10 98 -7 134 6 27 10 40 10 66 -1 17 -8
59 -17 92 -21 33 -4 84 -18 113 -31 47 -21 57 -22 97 -11 25 7 79 12 120 12
61 0 77 3 82 16 8 21 -24 82 -50 96 -25 13 -66 2 -86 -24 -14 -16 -22 -19 -37
-11 -10 6 -56 13 -101 17 -45 3 -90 9 -98 13 -35 13 -1 70 113 194 l53 57 137
4 c133 3 139 5 222 41 47 21 109 55 138 74 28 20 55 34 58 30 3 -3 8 -80 11
-170 6 -163 6 -164 -18 -188 -35 -35 -61 -88 -69 -145 -9 -60 -60 -174 -96
-217 -16 -19 -24 -39 -22 -56 3 -24 7 -26 63 -29 79 -4 103 12 87 57 -10 29
-9 34 13 53 14 12 31 45 40 73 8 29 21 58 29 64 8 7 31 47 51 89 34 73 40 80
113 127 109 70 192 143 192 169 0 12 -16 41 -35 65 -50 63 -45 144 10 169 60
28 142 172 152 267 7 66 24 81 72 64 17 -6 42 -9 54 -5 13 3 35 -2 53 -13 29
-18 44 -45 78 -143 18 -50 40 -66 63 -46 16 13 18 11 67 -57 12 -18 24 -25 37
-22 14 4 34 -9 68 -44 44 -45 52 -49 95 -49 50 0 51 1 35 32 -18 34 3 42 61
23 58 -19 88 -9 50 18 -52 36 24 51 90 17 22 -11 48 -20 59 -20 23 0 40 22 22
28 -26 9 -81 65 -81 82 0 11 10 20 26 24 45 12 21 31 -38 31 -31 0 -62 6 -71
13 -10 9 -27 11 -47 7 -34 -8 -41 8 -10 25 26 14 26 40 0 40 -10 0 -48 -16
-83 -35 -61 -34 -113 -44 -152 -29 -8 4 -41 40 -71 80 -31 41 -72 87 -92 104
-42 35 -133 66 -214 73 -35 3 -78 17 -115 35 -32 17 -96 48 -143 69 -79 35
-91 38 -169 36 -73 -2 -111 -11 -286 -68 -212 -68 -241 -73 -343 -51 -74 16
-80 20 -64 47 15 23 8 39 -17 39 -31 0 -86 27 -122 61 -19 17 -45 36 -59 41
-14 4 -30 18 -35 31 -6 12 -21 24 -34 25 -14 2 -44 19 -67 39 -37 29 -47 33
-77 28 -32 -6 -36 -4 -39 17 -2 17 -10 24 -33 26 -16 2 -37 13 -46 24 -15 19
-20 20 -66 9 -27 -7 -87 -11 -132 -9 l-83 3 -12 34 c-15 47 -32 49 -49 8z
m1597 -1103 c5 -14 2 -39 -11 -88 -9 -34 -19 -1 -15 52 4 52 14 66 26 36z
m-1004 -26 c0 -23 -49 -173 -63 -192 -11 -15 -17 -17 -35 -7 -15 8 -28 9 -41
2 -10 -6 -35 -7 -55 -4 -29 5 -43 15 -63 45 -55 82 -19 148 80 148 29 0 59 5
67 10 22 14 110 13 110 -2z"/>
</g>
</svg>
