<?xml version="1.0" standalone="no"?>
<!DOCTYPE svg PUBLIC "-//W3C//DTD SVG 20010904//EN"
 "http://www.w3.org/TR/2001/REC-SVG-20010904/DTD/svg10.dtd">
<svg version="1.0" xmlns="http://www.w3.org/2000/svg"
 width="445.000000pt" height="156.000000pt" viewBox="0 0 445.000000 156.000000"
 preserveAspectRatio="xMidYMid meet">
<metadata>
Created by potrace 1.16, written by Peter Selinger 2001-2019
</metadata>
<g transform="translate(0.000000,156.000000) scale(0.100000,-0.100000)"
fill="#000000" stroke="none">
<path d="M3987 1491 c-3 -12 -13 -21 -24 -21 -14 0 -18 -7 -18 -25 1 -14 4
-27 7 -31 8 -8 -37 -54 -52 -54 -9 0 -8 -6 4 -19 21 -23 14 -41 -15 -41 -18 0
-20 -4 -14 -30 6 -26 4 -30 -14 -30 -12 0 -21 -4 -21 -10 0 -5 -11 -10 -25
-10 -26 0 -26 0 -8 -25 14 -19 24 -24 45 -21 30 6 59 -18 33 -28 -8 -3 -21 -4
-27 -2 -7 3 -31 7 -53 10 l-41 6 4 -35 c2 -20 10 -35 17 -35 8 0 23 -13 34
-29 15 -21 27 -28 41 -24 11 3 20 0 20 -6 0 -12 -7 -13 -100 -11 -62 1 -65 0
-66 -23 -2 -22 5 -27 45 -37 70 -18 73 -19 67 -29 -3 -5 -38 -9 -76 -9 -66 1
-101 -9 -72 -19 6 -3 12 -12 12 -22 0 -21 -109 -66 -139 -56 -11 3 -34 26 -50
49 -17 24 -46 57 -65 74 -35 30 -117 62 -161 62 -11 0 -25 4 -30 9 -6 5 -41
26 -80 46 -102 53 -165 57 -317 16 -112 -30 -219 -40 -244 -23 -7 4 -13 16
-15 26 -2 11 -18 24 -36 30 -17 6 -46 24 -63 40 -18 15 -51 41 -75 57 -23 16
-48 35 -55 44 -7 8 -23 15 -36 15 -12 0 -26 4 -29 10 -13 20 -75 41 -116 39
-87 -5 -116 0 -122 21 -9 33 -36 36 -61 6 l-21 -28 -19 21 c-38 42 -60 10 -37
-51 7 -19 1 -40 -28 -100 -20 -41 -44 -93 -54 -114 -10 -21 -25 -48 -32 -58
-14 -19 -15 -19 -36 0 -33 30 -168 27 -238 -6 l-53 -24 -61 22 c-75 27 -182
29 -307 7 -102 -18 -184 -18 -265 -2 -40 9 -60 18 -60 27 0 8 -14 35 -32 59
-18 24 -33 50 -33 57 0 7 -9 18 -20 24 -14 8 -19 17 -15 30 5 14 -4 25 -34 45
-22 15 -42 34 -45 42 -4 10 -14 13 -30 9 -15 -4 -26 -1 -29 8 -3 7 -25 16 -49
20 -23 4 -63 14 -87 22 l-44 15 -44 -43 c-24 -24 -61 -61 -81 -83 -20 -22 -67
-70 -104 -106 -72 -71 -78 -86 -54 -143 17 -42 44 -51 90 -32 19 8 61 21 93
30 32 8 66 18 76 21 14 6 23 -5 46 -56 24 -53 30 -81 34 -166 l5 -103 -46 -38
c-26 -21 -73 -50 -104 -65 -41 -18 -61 -34 -74 -59 -9 -18 -30 -49 -46 -68
-78 -93 -99 -124 -96 -144 3 -18 9 -21 53 -19 56 2 81 24 115 99 22 49 73 94
107 94 13 0 59 18 100 40 42 22 82 40 90 40 18 0 17 -86 -1 -142 -8 -24 -16
-74 -19 -112 -3 -48 -11 -77 -26 -97 -12 -15 -21 -35 -21 -43 0 -17 48 -29 83
-21 26 7 30 18 52 133 4 18 17 52 30 75 13 22 29 72 36 109 15 81 23 91 70 78
95 -27 349 8 457 64 l30 15 48 -57 c54 -65 112 -122 161 -159 44 -34 45 -81 3
-160 -29 -54 -41 -117 -26 -141 8 -13 55 -16 72 -4 19 12 31 45 38 98 3 28 18
84 31 125 33 95 32 113 -10 162 -19 22 -35 44 -35 49 0 21 23 3 65 -52 25 -33
61 -67 78 -76 41 -21 113 -79 155 -126 19 -21 42 -38 51 -38 9 0 35 -10 58
-22 51 -27 79 -17 76 27 -3 36 -20 55 -50 55 -13 0 -26 6 -29 14 -3 8 -16 17
-29 20 -33 8 -91 72 -117 128 -12 25 -33 53 -47 61 -15 9 -39 30 -56 47 -27
28 -30 38 -32 102 -1 39 -7 83 -14 99 -6 17 -9 32 -6 36 3 3 9 -6 13 -21 4
-17 15 -28 32 -33 15 -3 35 -17 45 -30 10 -13 27 -23 37 -23 9 0 23 -7 30 -15
7 -8 22 -14 34 -14 11 0 31 -2 44 -6 17 -6 22 -3 22 11 0 16 2 15 23 -4 24
-23 47 -29 47 -12 0 5 16 12 35 16 19 3 38 10 41 15 9 16 -28 74 -80 123 -36
34 -47 50 -37 54 8 3 40 32 72 64 56 59 104 92 119 83 5 -3 27 -39 49 -81 32
-58 41 -87 41 -123 0 -26 7 -56 15 -67 24 -31 17 -47 -45 -97 -68 -57 -81 -88
-51 -126 12 -14 33 -50 48 -78 29 -56 42 -62 123 -54 32 2 125 -17 170 -35 24
-10 65 -14 135 -12 116 3 125 12 80 80 -23 35 -30 39 -53 33 -74 -19 -172 -17
-172 4 0 13 92 102 114 111 12 4 42 4 68 0 54 -8 197 24 243 54 23 15 26 15
31 1 4 -8 4 -46 2 -83 -3 -54 -10 -75 -35 -112 -17 -25 -34 -61 -38 -80 -10
-45 -31 -89 -60 -120 -49 -53 -35 -90 36 -90 66 0 93 14 85 45 -4 14 0 27 9
35 8 7 15 20 15 30 0 9 8 28 18 41 10 13 27 41 37 62 24 46 35 56 100 92 28
15 67 41 88 57 39 31 42 52 12 88 -33 39 -29 59 24 108 36 32 59 66 76 107
l24 60 43 -3 c45 -3 68 -21 68 -54 0 -28 29 -78 44 -78 8 0 28 -11 44 -25 17
-14 34 -25 38 -25 5 -1 25 -14 44 -30 19 -17 44 -30 57 -30 13 0 29 -11 39
-26 12 -18 23 -24 38 -20 26 6 51 -8 42 -23 -4 -6 -18 -11 -30 -11 -26 0 -61
-43 -50 -61 3 -6 17 -9 30 -6 30 5 42 -9 14 -18 -11 -3 -20 -13 -20 -21 0 -8
-7 -17 -16 -21 -8 -3 -13 -12 -9 -21 3 -8 0 -21 -7 -29 -17 -21 17 -45 62 -42
19 1 43 -2 53 -6 10 -4 42 -2 70 5 29 6 66 10 82 8 l30 -3 7 -85 c8 -91 39
-170 68 -170 30 0 53 64 51 141 -3 91 6 101 73 93 28 -4 64 -13 79 -21 31 -15
87 -9 87 10 0 6 -8 19 -17 29 -15 17 -15 20 -3 28 8 5 31 7 52 4 30 -5 38 -3
48 15 9 17 8 28 -4 53 -9 17 -16 41 -16 53 0 13 -7 25 -15 29 -8 3 -12 12 -9
20 7 18 -5 25 -58 34 -46 8 -65 32 -25 32 14 0 28 7 31 16 4 10 16 14 38 12
26 -2 32 1 30 13 -1 9 8 21 20 26 22 11 22 11 3 18 -11 3 -27 10 -35 14 -8 5
-39 5 -68 1 -62 -8 -85 4 -76 38 4 12 13 22 20 22 8 0 18 8 21 18 4 9 15 23
25 30 31 23 21 39 -29 47 -48 7 -73 20 -73 36 0 5 9 9 21 9 11 0 29 5 41 11
20 11 20 11 -3 35 l-22 24 21 0 c13 0 22 6 22 15 0 7 8 19 18 24 14 9 13 10
-10 11 -21 0 -28 5 -28 20 0 23 -8 25 -29 6 -17 -14 -104 -29 -115 -19 -10 10
15 33 38 34 21 0 84 65 73 75 -3 3 -24 8 -46 11 -43 6 -52 16 -25 27 10 4 14
14 11 26 -4 16 0 20 18 20 13 0 29 10 38 23 15 23 14 24 -18 36 -18 6 -45 9
-59 5 -31 -7 -34 9 -10 44 15 22 15 24 -2 36 -10 8 -15 20 -11 30 4 11 1 16
-11 16 -15 0 -17 7 -14 37 4 32 2 35 -14 29 -13 -5 -23 0 -35 15 l-16 22 -6
-22z m-1664 -930 c-2 -48 -19 -62 -72 -59 -37 2 -48 8 -61 30 -20 37 -5 51 63
59 69 8 72 7 70 -30z"/>
</g>
</svg>
