<?xml version="1.0" standalone="no"?>
<!DOCTYPE svg PUBLIC "-//W3C//DTD SVG 20010904//EN"
 "http://www.w3.org/TR/2001/REC-SVG-20010904/DTD/svg10.dtd">
<svg version="1.0" xmlns="http://www.w3.org/2000/svg"
 width="216.000000pt" height="216.000000pt" viewBox="0 0 216.000000 216.000000"
 preserveAspectRatio="xMidYMid meet">
<metadata>
Created by potrace 1.16, written by Peter Selinger 2001-2019
</metadata>
<g transform="translate(0.000000,216.000000) scale(0.100000,-0.100000)"
fill="#000000" stroke="none">
<path d="M364 2007 c-3 -8 -4 -23 -2 -33 2 -14 -4 -18 -32 -20 -28 -2 -40 3
-61 28 -17 21 -32 29 -43 25 -24 -9 -22 -91 4 -124 24 -30 19 -92 -10 -134
-14 -20 -19 -51 -22 -145 -3 -104 -7 -126 -31 -178 -24 -52 -26 -63 -16 -98
13 -49 50 -88 83 -88 27 0 66 42 66 71 0 10 13 33 29 51 15 18 34 43 40 56 8
16 20 22 34 20 19 -3 24 -15 40 -102 20 -106 22 -93 -28 -225 -18 -49 -13
-105 12 -155 15 -28 14 -29 -32 -70 -175 -154 -187 -176 -161 -300 8 -39 18
-97 21 -129 6 -55 41 -117 66 -117 5 0 32 -11 61 -25 28 -14 60 -25 70 -25 38
0 52 84 19 114 -10 9 -37 20 -61 24 -37 6 -43 11 -56 47 -29 77 -34 100 -34
145 0 65 18 86 82 94 147 17 168 22 196 49 32 31 51 33 92 12 16 -8 46 -19 67
-23 50 -10 51 -24 13 -141 -16 -52 -30 -101 -30 -110 0 -35 40 -80 93 -105 30
-15 62 -35 72 -46 21 -24 62 -26 85 -5 9 8 30 18 47 21 25 5 32 3 35 -12 7
-32 -12 -117 -38 -173 -14 -30 -23 -60 -20 -67 6 -15 63 -19 83 -6 20 13 40
82 53 183 6 52 21 114 32 139 17 39 19 56 11 130 -10 106 -7 173 8 202 16 29
99 142 107 145 4 2 20 -55 35 -125 37 -166 33 -211 -33 -338 -53 -102 -80
-194 -80 -272 0 -39 4 -54 16 -59 29 -11 68 11 89 49 17 33 18 42 7 82 -9 37
-9 49 3 73 8 15 15 36 15 46 0 24 51 118 103 192 l42 60 0 125 c1 106 4 132
22 172 12 26 31 79 43 117 22 76 44 92 54 41 3 -16 9 -44 12 -60 3 -17 21 -53
41 -81 19 -28 37 -66 40 -85 3 -19 10 -34 15 -34 13 0 27 45 21 69 -3 12 -1
21 5 21 11 0 24 -41 37 -114 l7 -39 23 29 24 29 16 -40 c9 -22 20 -50 25 -62
6 -13 18 -23 30 -23 24 0 25 7 5 53 -23 55 -18 62 20 28 20 -17 40 -31 45 -31
21 0 20 23 -4 51 -31 37 -33 65 -5 72 20 5 20 7 -10 51 -17 24 -40 48 -51 51
-32 10 -23 25 10 19 46 -10 40 23 -7 42 -72 28 -73 29 -57 83 7 24 7 24 -17 8
-34 -24 -76 -22 -93 6 -8 12 -24 54 -35 92 -25 85 -62 125 -139 150 -29 9 -74
32 -100 50 -115 82 -138 90 -247 89 -85 -1 -113 -6 -189 -32 l-90 -32 -25 23
c-14 13 -38 31 -54 40 -21 14 -26 23 -21 41 4 16 1 25 -10 29 -9 4 -16 12 -16
20 0 7 -13 21 -30 30 -16 10 -30 24 -30 31 0 7 -18 26 -40 41 -25 17 -39 34
-36 42 6 15 -64 93 -84 93 -19 0 -119 73 -126 92 -3 10 -20 21 -37 26 -27 7
-33 14 -37 42 -5 37 -35 54 -46 27z m653 -1317 c6 -41 21 -97 32 -123 12 -27
21 -51 21 -53 0 -2 -16 -4 -35 -4 -30 0 -39 -5 -57 -35 -21 -37 -29 -38 -88
-11 -36 16 -38 64 -6 113 13 21 34 69 45 106 26 86 28 89 54 85 19 -3 24 -13
34 -78z"/>
</g>
</svg>
