<?xml version="1.0" standalone="no"?>
<!DOCTYPE svg PUBLIC "-//W3C//DTD SVG 20010904//EN"
 "http://www.w3.org/TR/2001/REC-SVG-20010904/DTD/svg10.dtd">
<svg version="1.0" xmlns="http://www.w3.org/2000/svg"
 width="304.000000pt" height="143.000000pt" viewBox="0 0 304.000000 143.000000"
 preserveAspectRatio="xMidYMid meet">
<metadata>
Created by potrace 1.16, written by Peter Selinger 2001-2019
</metadata>
<g transform="translate(0.000000,143.000000) scale(0.100000,-0.100000)"
fill="#000000" stroke="none">
<path d="M2357 1393 c-3 -5 -5 -37 -5 -72 -1 -35 -2 -65 -4 -67 -2 -1 -46 -12
-97 -23 -57 -13 -117 -34 -155 -55 l-61 -34 -180 -3 c-99 -1 -245 1 -325 5
-117 7 -163 5 -240 -9 -52 -9 -117 -18 -145 -21 -118 -11 -160 -31 -259 -125
-84 -80 -98 -89 -157 -104 -66 -17 -129 -49 -129 -66 0 -20 -206 -108 -315
-135 -182 -44 -275 -106 -275 -182 0 -48 59 -87 147 -97 119 -13 252 -6 297
17 22 11 81 31 131 45 96 25 133 46 178 100 37 43 67 43 118 -1 48 -41 150
-91 202 -100 31 -6 37 -11 32 -24 -37 -92 -33 -106 52 -162 108 -71 143 -100
143 -120 0 -20 -19 -30 -56 -30 -27 0 -28 -4 -13 -48 16 -47 87 -65 159 -41
28 10 34 9 42 -5 7 -13 26 -16 103 -16 l95 0 0 29 c0 28 -15 46 -66 77 -18 11
-17 14 16 49 19 20 62 58 95 83 33 26 73 62 89 80 15 17 31 32 35 32 4 0 21
-28 39 -63 17 -34 37 -69 44 -79 27 -38 -54 -75 -127 -58 -63 15 -72 13 -78
-17 -9 -47 16 -90 60 -102 89 -25 143 -10 249 69 67 50 71 73 33 170 -17 41
-33 102 -36 137 -6 61 -5 62 23 74 74 29 118 56 133 82 10 18 41 40 90 63 40
20 84 46 98 60 13 13 37 31 53 39 15 8 38 29 51 47 30 44 48 58 77 58 16 0 39
14 63 40 51 54 75 61 206 65 119 3 135 8 187 60 14 14 31 35 37 47 10 18 8 24
-10 40 -13 9 -39 20 -59 24 -83 14 -116 27 -149 61 -37 36 -85 61 -188 94 -43
14 -68 29 -84 49 -12 17 -39 39 -61 50 -39 20 -95 27 -103 13z m-873 -887 c18
-7 53 -17 77 -21 24 -4 47 -9 51 -11 23 -14 -117 -215 -162 -234 -29 -12 -34
-11 -68 17 -54 43 -67 75 -50 119 12 31 102 144 114 144 3 0 20 -6 38 -14z"/>
</g>
</svg>
