<?xml version="1.0" standalone="no"?>
<!DOCTYPE svg PUBLIC "-//W3C//DTD SVG 20010904//EN"
 "http://www.w3.org/TR/2001/REC-SVG-20010904/DTD/svg10.dtd">
<svg version="1.0" xmlns="http://www.w3.org/2000/svg"
 width="400.000000pt" height="300.000000pt" viewBox="0 0 400.000000 300.000000"
 preserveAspectRatio="xMidYMid meet">
<metadata>
Created by potrace 1.16, written by Peter Selinger 2001-2019
</metadata>
<g transform="translate(0.000000,300.000000) scale(0.100000,-0.100000)"
fill="#000000" stroke="none">
<path d="M2131 2674 c-12 -15 -21 -33 -21 -41 0 -27 -40 -71 -73 -82 -61 -18
-179 -33 -219 -27 -53 9 -95 31 -140 73 -23 22 -42 33 -52 30 -24 -10 -30 -52
-11 -91 24 -51 17 -70 -27 -74 -35 -3 -38 -6 -43 -40 -3 -20 -12 -76 -20 -123
-8 -47 -15 -95 -15 -107 0 -26 45 -62 79 -62 14 0 31 -4 37 -8 7 -4 13 -81 17
-219 3 -125 10 -220 17 -232 11 -22 44 -27 69 -12 27 17 43 122 45 293 1 114
5 171 13 179 9 9 27 9 65 3 l53 -9 3 -201 c3 -233 0 -226 96 -234 l61 -5 0
-45 c-1 -25 -5 -75 -9 -112 -8 -64 -7 -67 18 -83 28 -19 37 -19 146 -8 l75 8
3 39 c2 22 -6 78 -18 126 -19 78 -20 96 -11 183 6 54 8 141 5 196 -9 134 -4
151 45 151 45 0 56 11 64 64 10 64 -60 253 -102 276 -11 5 -22 23 -26 39 -3
15 -20 42 -37 60 -35 35 -32 61 7 61 14 0 28 7 31 15 10 26 -16 45 -61 45 -35
0 -48 -5 -64 -26z m69 -1019 c7 -8 13 -46 14 -87 l1 -73 -53 -3 c-40 -2 -54 1
-58 13 -10 25 17 144 35 155 24 14 47 12 61 -5z"/>
</g>
</svg>
