<?xml version="1.0" standalone="no"?>
<!DOCTYPE svg PUBLIC "-//W3C//DTD SVG 20010904//EN"
 "http://www.w3.org/TR/2001/REC-SVG-20010904/DTD/svg10.dtd">
<svg version="1.0" xmlns="http://www.w3.org/2000/svg"
 width="210.000000pt" height="205.000000pt" viewBox="0 0 210.000000 205.000000"
 preserveAspectRatio="xMidYMid meet">
<metadata>
Created by potrace 1.16, written by Peter Selinger 2001-2019
</metadata>
<g transform="translate(0.000000,205.000000) scale(0.100000,-0.100000)"
fill="#000000" stroke="none">
<path d="M980 1944 c-47 -19 -90 -85 -90 -136 0 -39 20 -85 66 -148 29 -40 28
-47 -9 -165 -14 -44 -39 -128 -57 -187 l-33 -108 -216 0 c-237 0 -231 -1 -273
63 -76 115 -210 119 -285 8 -13 -19 -23 -48 -23 -65 1 -44 32 -107 69 -139 38
-32 102 -36 171 -12 74 26 74 26 277 -119 37 -27 87 -64 109 -82 l41 -33 -13
-43 c-64 -211 -112 -346 -130 -364 -11 -12 -50 -31 -87 -43 -60 -20 -70 -28
-94 -68 -31 -54 -32 -96 -3 -153 39 -77 121 -106 195 -70 69 34 95 78 95 166
0 54 4 77 18 92 18 20 220 172 229 172 3 0 27 18 53 40 26 22 51 40 55 40 4 0
34 -20 66 -45 33 -25 61 -45 64 -45 3 0 161 -116 214 -157 3 -2 7 -43 11 -91
7 -102 28 -140 95 -172 51 -25 76 -25 123 -1 73 38 108 100 96 171 -12 68 -37
93 -119 125 -42 16 -83 37 -90 48 -7 10 -25 58 -40 106 -15 47 -31 95 -36 106
-18 41 -50 177 -45 190 5 13 157 127 264 197 71 47 100 53 147 34 49 -21 112
-20 155 2 25 12 43 33 62 73 27 54 27 57 13 101 -9 25 -31 60 -50 78 -28 27
-44 34 -89 38 -70 6 -127 -24 -163 -86 -14 -23 -33 -47 -43 -52 -11 -6 -111
-10 -227 -10 l-209 0 -16 48 c-65 187 -110 347 -105 371 3 15 21 50 40 78 55
82 57 154 4 212 -46 49 -120 63 -187 35z"/>
</g>
</svg>
