<?xml version="1.0" standalone="no"?>
<!DOCTYPE svg PUBLIC "-//W3C//DTD SVG 20010904//EN"
 "http://www.w3.org/TR/2001/REC-SVG-20010904/DTD/svg10.dtd">
<svg version="1.0" xmlns="http://www.w3.org/2000/svg"
 width="400.000000pt" height="300.000000pt" viewBox="0 0 400.000000 300.000000"
 preserveAspectRatio="xMidYMid meet">
<metadata>
Created by potrace 1.16, written by Peter Selinger 2001-2019
</metadata>
<g transform="translate(0.000000,300.000000) scale(0.100000,-0.100000)"
fill="#000000" stroke="none">
<path d="M2927 1253 c-10 -3 -46 -21 -80 -40 -136 -79 -122 -75 -237 -70 -58
3 -176 11 -262 17 -87 7 -170 9 -185 5 -16 -4 -127 -7 -248 -7 -211 0 -422
-15 -550 -39 -54 -11 -68 -10 -135 11 -41 12 -82 28 -90 35 -39 34 -119 67
-175 72 -51 5 -69 2 -117 -20 -77 -36 -123 -98 -83 -113 9 -4 32 6 53 22 68
52 139 35 280 -68 94 -69 93 -69 385 -65 144 2 274 7 290 12 26 7 27 6 27 -31
0 -23 10 -57 25 -82 13 -23 27 -59 31 -80 3 -20 16 -47 27 -59 14 -16 20 -38
22 -79 3 -84 36 -105 123 -78 8 2 12 25 12 66 0 46 5 71 20 93 11 17 20 44 20
61 0 18 12 57 26 87 19 43 23 61 15 76 -15 28 8 45 43 31 33 -12 495 -13 548
-1 20 5 55 21 77 37 125 89 160 111 198 128 l42 18 47 -26 c57 -32 84 -34 84
-5 0 28 -63 85 -102 93 -34 7 -103 6 -131 -1z"/>
</g>
</svg>
