<?xml version="1.0" standalone="no"?>
<!DOCTYPE svg PUBLIC "-//W3C//DTD SVG 20010904//EN"
 "http://www.w3.org/TR/2001/REC-SVG-20010904/DTD/svg10.dtd">
<svg version="1.0" xmlns="http://www.w3.org/2000/svg"
 width="265.000000pt" height="300.000000pt" viewBox="0 0 265.000000 300.000000"
 preserveAspectRatio="xMidYMid meet">
<metadata>
Created by potrace 1.16, written by Peter Selinger 2001-2019
</metadata>
<g transform="translate(0.000000,300.000000) scale(0.100000,-0.100000)"
fill="#000000" stroke="none">
<path d="M2094 2849 c-3 -6 -7 -59 -8 -118 -5 -227 -95 -359 -276 -400 -50
-12 -61 -11 -117 8 -77 26 -84 26 -106 1 -16 -19 -19 -19 -55 -5 -20 9 -68 35
-107 58 -88 53 -132 56 -194 12 -132 -92 -161 -103 -186 -68 -11 15 -19 15
-104 -2 -181 -35 -326 15 -381 132 -28 60 -50 170 -50 253 0 70 -7 85 -32 75
-20 -8 -65 -108 -78 -173 -13 -70 -13 -247 1 -314 30 -141 150 -274 292 -322
16 -5 17 -15 12 -98 -6 -100 -17 -149 -47 -216 -10 -24 -23 -65 -29 -90 -6
-26 -15 -67 -20 -92 -5 -25 -12 -56 -15 -70 -4 -18 1 -31 15 -44 26 -24 26
-34 0 -62 -12 -13 -32 -63 -46 -116 -37 -136 -39 -157 -17 -172 18 -13 17 -16
-8 -62 -25 -47 -39 -122 -42 -224 -1 -44 0 -45 29 -45 17 -1 38 -5 48 -9 10
-5 23 -4 32 4 21 17 101 158 115 203 6 20 15 37 20 37 5 0 20 -24 35 -54 37
-75 58 -93 89 -76 14 7 31 10 40 7 8 -3 20 1 26 9 19 21 -5 229 -31 272 -23
40 -24 52 -3 52 14 0 16 8 11 43 -15 111 -36 206 -53 240 -18 37 -18 39 0 49
16 9 17 19 11 92 -9 105 -20 148 -45 171 -15 13 -20 30 -20 59 0 23 -2 68 -6
101 l-6 60 78 0 c44 0 91 4 107 9 l27 8 0 -60 c0 -51 -5 -67 -33 -108 -19 -27
-37 -67 -40 -89 -9 -60 26 -269 58 -345 49 -115 66 -229 63 -423 -3 -154 0
-181 20 -252 12 -44 38 -155 56 -247 19 -91 42 -183 51 -203 19 -39 59 -65
100 -65 31 0 75 41 75 69 0 11 5 23 10 26 6 3 10 2 10 -4 0 -5 15 -26 34 -45
40 -43 82 -48 113 -13 32 35 33 40 43 154 11 128 45 346 65 424 19 71 19 145
-1 239 -8 42 -13 98 -10 130 6 74 40 203 71 273 23 53 25 69 25 206 l0 149
-33 40 c-33 39 -63 118 -55 142 2 8 41 12 117 13 l113 2 -7 -55 c-3 -30 -7
-77 -8 -105 -1 -31 -10 -61 -22 -80 -15 -22 -22 -54 -27 -135 -6 -98 -5 -106
14 -121 18 -14 19 -19 7 -40 -7 -13 -18 -64 -25 -114 -7 -49 -16 -109 -20
-133 -5 -35 -3 -45 11 -56 16 -11 16 -15 3 -42 -17 -32 -32 -251 -19 -272 4
-7 18 -12 32 -11 13 0 33 -2 44 -6 27 -8 45 14 75 88 13 31 28 56 33 54 5 -1
17 -23 26 -47 19 -49 105 -168 128 -177 8 -3 19 -1 26 6 6 6 21 11 33 11 42 0
49 24 30 103 -32 132 -36 146 -63 177 l-26 31 22 15 c26 19 26 33 2 92 -11 26
-27 73 -36 104 -8 32 -27 69 -40 84 -23 24 -24 29 -10 44 8 9 15 31 15 48 0
44 -55 230 -74 251 -9 10 -16 29 -16 42 0 14 -6 33 -14 44 -11 16 -30 140 -31
203 0 7 29 27 65 45 100 50 162 141 201 297 29 112 23 332 -10 424 -33 92 -59
124 -77 95z m-778 -631 c-4 -23 -1 -43 11 -65 15 -27 15 -38 5 -66 -15 -42
-15 -92 0 -116 9 -15 8 -26 -3 -52 -16 -39 -14 -175 3 -226 9 -25 8 -38 -4
-63 -11 -22 -13 -43 -7 -73 4 -25 4 -46 -2 -52 -21 -22 -28 25 -26 165 2 114
-1 151 -12 171 -14 24 -13 31 2 65 17 40 18 173 2 272 -8 50 -2 72 21 72 13 0
15 -6 10 -32z m344 -605 c0 -65 -4 -124 -9 -132 -17 -27 -28 0 -30 75 -1 43
-4 81 -7 85 -6 11 26 89 37 89 5 0 9 -53 9 -117z m-657 70 c8 -16 19 -63 26
-106 13 -94 14 -107 2 -107 -14 0 -29 50 -35 115 -3 33 -8 75 -12 93 -8 39 1
41 19 5z m894 -490 c-12 -127 -30 -203 -48 -203 -11 0 -2 120 13 168 5 18 7
43 4 56 -6 25 0 36 22 36 11 0 13 -12 9 -57z m-1097 -21 c0 -26 9 -80 20 -120
24 -86 24 -82 5 -82 -8 0 -17 12 -21 28 -3 15 -14 55 -25 89 -28 90 -25 133 8
133 9 0 13 -15 13 -48z m1212 -44 c10 -29 24 -69 29 -88 6 -19 17 -42 25 -51
18 -20 18 -49 0 -49 -19 0 -30 17 -46 70 -7 25 -17 50 -20 55 -16 23 -31 86
-25 106 9 27 14 21 37 -43z m-1312 13 c0 -11 -4 -23 -10 -26 -5 -3 -10 -23
-10 -43 0 -20 -9 -51 -19 -69 -11 -17 -23 -48 -27 -67 -4 -22 -12 -36 -21 -36
-20 0 -11 53 23 132 13 32 24 70 24 86 0 16 3 32 7 35 13 14 33 6 33 -12z
m777 -203 c6 -18 16 -61 23 -96 13 -63 8 -112 -21 -205 -4 -15 -11 -54 -15
-87 -9 -78 -26 -78 -55 1 -24 65 -63 105 -79 79 -4 -7 -11 -37 -15 -65 -3 -29
-13 -61 -21 -71 -14 -18 -14 -18 -29 0 -8 11 -15 34 -15 50 0 17 -17 82 -37
144 l-37 112 25 73 c14 39 29 72 33 72 5 0 21 -36 36 -80 50 -139 100 -141
135 -7 30 116 51 140 72 80z"/>
</g>
</svg>
