<?xml version="1.0" standalone="no"?>
<!DOCTYPE svg PUBLIC "-//W3C//DTD SVG 20010904//EN"
 "http://www.w3.org/TR/2001/REC-SVG-20010904/DTD/svg10.dtd">
<svg version="1.0" xmlns="http://www.w3.org/2000/svg"
 width="436.000000pt" height="328.000000pt" viewBox="0 0 436.000000 328.000000"
 preserveAspectRatio="xMidYMid meet">
<metadata>
Created by potrace 1.16, written by Peter Selinger 2001-2019
</metadata>
<g transform="translate(0.000000,328.000000) scale(0.100000,-0.100000)"
fill="#000000" stroke="none">
<path d="M2690 2131 c0 -10 -7 -24 -15 -31 -21 -18 -19 -24 19 -62 32 -32 56
-88 56 -132 0 -16 -6 -18 -41 -13 -38 5 -41 3 -50 -22 -11 -30 -38 -48 -79
-53 -16 -2 -26 -10 -28 -23 -7 -46 -288 -194 -506 -266 -109 -36 -130 -40
-150 -29 -19 9 -27 9 -44 -1 -17 -11 -25 -8 -63 22 -24 18 -50 39 -57 46 -6 6
-22 15 -35 19 -12 4 -33 15 -46 25 -13 11 -32 19 -42 19 -12 0 -19 7 -19 20 0
11 -6 20 -13 20 -19 0 -106 -89 -127 -130 -10 -19 -30 -46 -44 -59 -14 -14
-26 -35 -26 -49 0 -23 -2 -24 -52 -17 -47 7 -59 14 -104 61 -59 62 -81 66
-131 28 -41 -31 -58 -32 -143 -9 -62 17 -69 17 -135 0 -38 -9 -95 -15 -125
-13 -51 3 -55 5 -55 27 0 19 -8 27 -33 33 -18 5 -32 15 -32 24 0 8 -10 18 -23
23 -12 5 -31 18 -41 30 -11 11 -25 21 -31 21 -7 0 -18 6 -24 14 -6 7 -39 16
-73 20 -34 3 -69 13 -79 22 -24 22 -45 12 -52 -23 -3 -16 -30 -53 -61 -84 -88
-88 -73 -118 68 -138 93 -13 94 -14 112 -57 31 -73 13 -134 -40 -134 -26 0
-38 -7 -57 -34 -13 -19 -50 -69 -82 -110 -32 -42 -55 -81 -52 -86 13 -22 61
-10 83 20 12 16 22 34 22 39 0 13 49 51 66 51 8 0 37 11 66 25 28 14 56 25 61
25 6 0 7 -30 3 -77 -7 -89 -41 -171 -85 -209 -37 -31 -47 -75 -29 -129 19 -58
40 -65 205 -65 l143 0 32 -29 c31 -27 33 -35 38 -108 l5 -78 88 -9 c112 -11
117 -7 117 90 0 63 3 77 24 101 l24 28 1117 -3 c976 -2 1120 -4 1146 -17 16
-9 29 -17 30 -18 0 -1 6 -42 12 -92 l12 -90 100 0 100 0 5 78 c5 73 7 81 38
108 l32 29 156 0 c155 0 155 0 179 26 33 35 35 112 4 155 -25 35 -19 45 38 70
62 27 146 110 174 172 18 41 23 70 23 137 1 78 -2 90 -34 149 -19 35 -49 75
-68 90 -18 14 -39 37 -47 51 -7 14 -39 57 -69 95 -99 123 -138 196 -144 270
-5 63 -5 65 -36 70 -17 4 -206 5 -419 3 -437 -3 -409 2 -405 -83 2 -43 -1 -50
-17 -53 -31 -4 -48 13 -51 50 -4 48 -18 80 -48 108 -28 27 -33 46 -13 53 7 2
-4 20 -29 45 -46 46 -94 58 -94 23z m631 -203 c18 -28 -4 -33 -155 -33 -85 0
-158 3 -161 7 -4 4 -5 14 -2 22 5 13 32 15 159 15 101 0 155 -4 159 -11z m434
2 c4 -6 2 -17 -4 -23 -8 -10 -48 -12 -158 -10 -143 3 -173 9 -159 32 9 15 312
15 321 1z m-619 -131 c12 -19 16 -226 5 -233 -17 -11 -90 13 -101 34 -14 27
-13 183 2 198 15 15 85 16 94 1z m316 -66 c2 -43 2 -81 0 -85 -2 -5 -39 -8
-83 -8 l-79 0 0 78 c0 43 3 82 7 85 3 4 39 7 79 7 l72 0 4 -77z m266 -10 l3
-83 -56 0 c-37 0 -55 4 -56 13 -2 36 3 143 8 150 3 4 26 7 51 5 l47 -3 3 -82z
m-978 49 c0 -12 -39 -47 -45 -41 -11 12 9 49 26 49 11 0 19 -4 19 -8z m-120
-12 c0 -5 -4 -10 -10 -10 -5 0 -10 5 -10 10 0 6 5 10 10 10 6 0 10 -4 10 -10z
m-30 -44 c0 -24 -16 -36 -51 -36 -10 0 -19 -4 -19 -10 0 -11 173 -129 263
-179 31 -18 57 -37 57 -42 0 -5 -15 -9 -32 -9 -45 -1 -107 -30 -147 -71 -35
-35 -70 -101 -71 -131 0 -10 -6 -18 -13 -18 -17 0 -37 20 -37 37 0 7 -19 32
-42 56 -24 23 -50 56 -60 74 -23 45 -54 62 -144 75 -95 14 -161 15 -231 4 -59
-10 -77 8 -20 19 109 22 388 157 480 232 38 31 67 30 67 -1z m-969 -376 c31
-84 33 -101 18 -111 -17 -11 -540 -2 -552 10 -4 4 -7 30 -5 57 4 58 19 65 93
40 25 -9 57 -13 71 -10 14 4 44 -1 69 -11 51 -19 70 -14 55 16 -6 11 -9 23 -6
28 3 4 38 11 78 15 40 3 87 10 103 15 47 15 55 10 76 -49z m1295 26 c3 -8 -6
-33 -20 -55 -21 -33 -32 -41 -56 -41 -24 0 -33 7 -50 40 -11 21 -20 42 -20 44
0 9 63 24 103 25 24 1 40 -4 43 -13z m1174 -15 c0 -15 -10 -18 -70 -25 l-55
-7 24 21 c24 21 101 29 101 11z m-1335 -52 c28 -53 14 -71 -64 -84 l-44 -7 6
31 c9 43 54 101 73 94 8 -3 21 -18 29 -34z m545 -6 c178 -8 157 -23 -32 -23
-161 0 -167 1 -182 22 -29 41 -19 47 42 25 38 -13 94 -21 172 -24z m-296 12
c22 -34 21 -35 -24 -35 -32 0 -40 4 -40 18 0 21 18 42 36 42 6 0 19 -11 28
-25z m1099 -68 c-2 -26 -12 -66 -23 -88 l-21 -40 -37 31 c-20 16 -48 38 -61
48 -19 15 -23 24 -17 45 5 21 14 27 44 32 20 4 48 10 62 15 46 16 55 9 53 -43z
m-1708 20 c21 -16 13 -37 -15 -37 -22 0 -34 15 -26 35 7 19 17 19 41 2z m1069
-69 c14 -18 34 -41 43 -51 9 -10 29 -38 43 -64 15 -29 44 -60 75 -81 28 -19
50 -41 50 -50 0 -15 -31 -17 -340 -19 -187 -2 -346 1 -353 5 -18 12 -7 34 33
61 41 28 75 94 84 164 l6 52 160 5 c88 3 163 7 167 8 3 1 18 -13 32 -30z m254
13 c-4 -12 -96 -81 -108 -81 -11 0 -36 47 -29 54 4 3 116 33 132 35 5 1 7 -3
5 -8z m-2804 -70 c54 -54 58 -62 52 -93 -3 -18 -17 -51 -29 -73 l-23 -40 -204
-2 c-113 -2 -211 1 -219 6 -18 12 -16 72 3 109 8 16 20 51 26 78 7 27 13 55
16 62 2 9 44 12 161 12 l159 0 58 -59z m654 24 c10 -9 -68 -82 -114 -107 -48
-25 -53 -37 -26 -61 25 -23 49 -10 264 146 29 20 56 37 60 37 4 0 9 -10 12
-22 28 -155 28 -145 5 -189 l-21 -42 -366 7 c-202 4 -371 11 -376 16 -8 8 40
170 51 170 13 0 104 -64 117 -81 14 -20 102 -69 124 -69 7 0 12 12 12 28 0 22
-9 32 -50 54 -48 27 -108 98 -97 115 6 9 396 7 405 -2z m2242 -88 l0 -79 -27
7 c-43 10 -128 59 -128 72 0 7 24 33 54 57 47 39 57 43 77 34 22 -10 24 -17
24 -91z m168 48 c29 -21 52 -42 52 -46 0 -11 -99 -58 -137 -65 l-33 -6 0 74
c0 68 2 76 23 85 25 12 24 12 95 -42z m-1647 -2 c78 -73 97 -124 63 -171 -15
-22 -18 -22 -273 -22 -219 0 -260 2 -271 15 -9 11 -11 40 -6 112 4 54 10 101
12 105 3 4 100 8 215 8 l210 0 50 -47z m119 22 c0 -17 61 -55 89 -55 18 0 21
6 21 40 0 37 16 56 24 28 21 -72 45 -118 83 -156 64 -64 56 -72 -75 -72 -119
0 -134 6 -125 52 4 21 11 28 37 30 25 2 31 7 31 27 0 25 -14 36 -57 46 -29 6
-64 57 -53 75 8 13 25 3 25 -15z m316 -1 c6 -24 -19 -88 -39 -101 -12 -8 -37
17 -58 58 -31 61 -27 69 36 69 50 0 55 -2 61 -26z m276 1 c-5 -28 -61 -105
-76 -105 -8 0 -23 19 -35 42 -19 39 -19 44 -5 66 13 20 22 23 67 20 45 -3 52
-6 49 -23z m-146 -86 c32 -51 24 -61 -50 -63 -73 -1 -85 12 -57 58 37 60 71
61 107 5z"/>
</g>
</svg>
