<?xml version="1.0" standalone="no"?>
<!DOCTYPE svg PUBLIC "-//W3C//DTD SVG 20010904//EN"
 "http://www.w3.org/TR/2001/REC-SVG-20010904/DTD/svg10.dtd">
<svg version="1.0" xmlns="http://www.w3.org/2000/svg"
 width="198.000000pt" height="216.000000pt" viewBox="0 0 198.000000 216.000000"
 preserveAspectRatio="xMidYMid meet">
<metadata>
Created by potrace 1.16, written by Peter Selinger 2001-2019
</metadata>
<g transform="translate(0.000000,216.000000) scale(0.100000,-0.100000)"
fill="#000000" stroke="none">
<path d="M833 2068 c-5 -7 -13 -21 -16 -30 -4 -10 -13 -15 -25 -11 -14 3 -22
-1 -27 -16 -3 -11 -4 -25 -1 -29 3 -5 -8 -19 -24 -31 -17 -12 -30 -28 -30 -36
0 -14 -56 -84 -121 -151 -34 -35 -35 -45 -12 -85 20 -33 39 -37 60 -11 13 15
14 15 9 -10 -9 -41 14 -46 44 -10 26 32 94 82 110 82 17 0 20 -19 11 -59 -10
-46 -68 -121 -94 -121 -10 0 -32 -13 -49 -30 -16 -16 -34 -30 -38 -30 -14 0
-86 78 -117 127 -22 35 -36 46 -70 55 -24 6 -60 23 -80 39 -28 23 -46 29 -82
29 -53 0 -101 -18 -101 -38 0 -20 69 -46 85 -32 49 40 235 -87 239 -163 1 -31
0 -32 -33 -29 -28 2 -40 -4 -66 -33 -18 -19 -40 -47 -49 -61 -21 -31 -18 -88
5 -92 24 -4 77 45 81 74 3 24 8 26 59 30 60 4 79 -7 93 -53 9 -28 30 -29 63
-3 14 11 29 18 33 15 4 -2 5 -36 2 -74 -6 -85 12 -144 62 -204 20 -23 55 -67
79 -97 24 -30 58 -64 75 -75 99 -61 97 -59 95 -101 -1 -21 -11 -61 -22 -87
-26 -60 -27 -107 -2 -138 10 -13 24 -50 31 -82 7 -38 22 -70 41 -91 24 -28 29
-42 29 -87 0 -63 -41 -174 -76 -206 -35 -32 -30 -41 24 -35 51 5 72 16 72 38
0 17 51 125 81 171 20 31 20 33 2 64 -46 81 -52 97 -53 137 0 37 4 45 33 62
46 29 57 26 57 -15 0 -54 33 -107 88 -146 41 -28 52 -43 65 -84 16 -53 13
-181 -4 -199 -19 -21 -7 -27 44 -24 49 3 52 5 49 28 -5 55 -4 118 3 180 7 62
6 68 -19 96 -50 60 -59 128 -30 238 12 44 15 83 10 141 -5 65 -3 85 10 103 13
19 18 21 31 10 15 -12 15 -33 -3 -224 -4 -44 -1 -70 9 -90 8 -16 20 -56 27
-89 11 -54 51 -135 67 -135 3 0 12 8 19 17 12 17 14 17 36 -4 32 -30 42 -29
34 3 -7 25 -6 25 40 18 37 -5 46 -4 42 7 -2 7 -15 16 -29 19 -15 4 -19 9 -12
13 6 4 34 2 62 -5 28 -6 54 -9 57 -5 15 15 -20 35 -71 42 -62 7 -65 24 -5 23
42 0 70 15 70 38 0 17 -22 18 -38 2 -16 -16 -17 5 -1 33 5 11 7 29 4 40 -7 20
-9 19 -35 -13 -28 -32 -29 -32 -56 -18 -43 24 -42 40 3 33 l38 -6 -33 35 -32
34 6 100 c8 116 -4 173 -43 203 -33 27 -94 27 -153 0 l-45 -20 -18 23 c-69 87
-91 107 -167 148 -45 24 -95 60 -111 80 -27 32 -29 41 -27 100 3 55 6 65 20
62 16 -2 16 0 6 23 -14 31 -4 43 23 26 19 -11 20 -10 14 8 -5 18 -2 21 22 21
28 0 53 15 53 33 0 5 -18 6 -40 2 -26 -4 -40 -3 -40 4 0 6 9 11 20 11 12 0 20
7 20 16 0 12 -6 15 -24 10 -27 -7 -60 20 -35 28 43 13 50 17 44 26 -3 6 -17 7
-31 4 -14 -4 -24 -2 -24 5 0 6 11 11 25 11 34 0 95 26 95 40 0 8 -17 10 -47 8
-37 -2 -48 0 -48 12 0 8 11 17 25 20 16 4 26 14 28 28 2 13 14 28 28 34 13 6
24 17 24 24 0 24 -22 26 -46 3 -13 -12 -24 -18 -24 -12 0 5 9 18 20 28 19 18
28 65 12 65 -4 0 -23 -16 -42 -35 -40 -41 -71 -49 -43 -11 10 14 28 30 41 35
25 12 25 36 1 37 -38 1 -79 17 -79 30 0 16 36 19 45 4 9 -14 35 -13 35 2 0 6
-7 19 -16 29 -15 17 -14 19 12 25 59 14 77 50 19 40 -42 -8 -104 19 -86 37 33
33 -6 50 -48 21 -23 -17 -23 -17 -16 16 7 30 5 32 -11 25 -11 -5 -34 -8 -53
-7 -25 2 -45 -6 -72 -28 -45 -36 -49 -37 -49 -7 0 33 -14 51 -27 35z m727
-1325 c-11 -17 -11 -17 -6 0 3 10 7 31 7 45 l2 27 4 -27 c2 -15 -1 -35 -7 -45z
m47 -115 c-3 -8 -6 -5 -6 6 -1 11 2 17 5 13 3 -3 4 -12 1 -19z m-22 -48 c-19
-36 -19 -87 -1 -122 8 -16 11 -28 6 -28 -16 0 -30 37 -30 78 0 45 18 102 31
102 5 0 3 -13 -6 -30z"/>
</g>
</svg>
