<?xml version="1.0" standalone="no"?>
<!DOCTYPE svg PUBLIC "-//W3C//DTD SVG 20010904//EN"
 "http://www.w3.org/TR/2001/REC-SVG-20010904/DTD/svg10.dtd">
<svg version="1.0" xmlns="http://www.w3.org/2000/svg"
 width="219.000000pt" height="165.000000pt" viewBox="0 0 219.000000 165.000000"
 preserveAspectRatio="xMidYMid meet">
<metadata>
Created by potrace 1.16, written by Peter Selinger 2001-2019
</metadata>
<g transform="translate(0.000000,165.000000) scale(0.100000,-0.100000)"
fill="#000000" stroke="none">
<path d="M930 1354 c-56 -11 -158 -48 -205 -75 -97 -54 -204 -180 -255 -299
-18 -42 -24 -79 -28 -161 -5 -124 6 -184 48 -271 45 -93 53 -105 106 -160 138
-141 289 -209 468 -209 272 1 503 172 580 430 21 71 20 252 -1 324 -25 87 -75
169 -143 237 -126 125 -258 181 -435 186 -60 1 -121 0 -135 -2z m245 -140 c17
-4 62 -22 101 -40 125 -59 259 -224 210 -259 -7 -6 -72 -12 -142 -13 -71 -1
-143 -5 -159 -8 -30 -5 -31 -5 -47 58 -9 35 -28 103 -43 152 l-28 90 23 18
c13 10 30 16 39 14 9 -3 30 -8 46 -12z m-155 -9 c7 -8 10 -25 7 -37 -29 -112
-70 -254 -75 -260 -4 -3 -76 -4 -160 -1 -161 6 -182 12 -182 54 0 26 95 135
155 178 94 66 226 101 255 66z m-304 -381 c49 -32 106 -68 127 -81 20 -13 37
-29 37 -36 0 -8 -16 -54 -35 -103 -19 -49 -38 -105 -41 -124 -18 -97 -112 -48
-180 95 -33 68 -63 182 -64 235 0 33 26 70 49 70 10 0 58 -25 107 -56z m819
-70 c0 -87 -4 -106 -28 -158 -31 -67 -107 -162 -138 -171 -29 -10 -44 7 -69
81 -12 36 -35 92 -52 126 -16 33 -27 66 -24 73 3 8 24 24 46 35 23 12 66 38
97 58 117 78 126 82 148 68 18 -12 20 -25 20 -112z m-372 -236 c52 -40 106
-82 121 -93 22 -16 26 -25 21 -45 -5 -23 -16 -28 -107 -49 -82 -19 -117 -22
-179 -17 -98 8 -169 30 -198 60 l-22 24 38 31 c97 78 209 160 220 160 7 1 55
-32 106 -71z"/>
</g>
</svg>
