<?xml version="1.0" standalone="no"?>
<!DOCTYPE svg PUBLIC "-//W3C//DTD SVG 20010904//EN"
 "http://www.w3.org/TR/2001/REC-SVG-20010904/DTD/svg10.dtd">
<svg version="1.0" xmlns="http://www.w3.org/2000/svg"
 width="400.000000pt" height="300.000000pt" viewBox="0 0 400.000000 300.000000"
 preserveAspectRatio="xMidYMid meet">
<metadata>
Created by potrace 1.16, written by Peter Selinger 2001-2019
</metadata>
<g transform="translate(0.000000,300.000000) scale(0.100000,-0.100000)"
fill="#000000" stroke="none">
<path d="M2954 2142 c22 -75 12 -100 -27 -65 -27 24 -95 23 -112 0 -6 -9 -29
-22 -51 -29 -28 -9 -40 -19 -42 -35 -2 -15 -14 -26 -37 -33 -19 -6 -37 -20
-40 -30 -3 -10 -15 -22 -26 -25 -10 -4 -19 -11 -19 -16 0 -5 -9 -9 -20 -9 -13
0 -24 -10 -30 -25 -5 -14 -17 -25 -27 -25 -10 0 -31 -7 -48 -16 -27 -14 -58
-17 -140 -13 -16 1 -52 -4 -79 -11 -55 -14 -269 0 -338 21 -31 10 -53 8 -146
-15 -137 -33 -177 -33 -224 -1 -40 27 -97 33 -156 16 -24 -7 -40 -6 -60 5 -41
21 -105 18 -127 -6 -10 -11 -25 -20 -33 -20 -8 0 -25 -11 -38 -25 -14 -15 -34
-25 -51 -25 -36 0 -47 -8 -67 -47 -15 -31 -15 -33 3 -43 11 -5 36 -10 55 -10
20 0 36 -5 36 -11 0 -16 -68 -40 -104 -37 -25 2 -35 11 -51 44 -11 23 -28 51
-38 61 -15 18 -16 24 -3 59 7 21 11 53 9 71 -4 25 -1 32 16 38 27 8 27 23 -1
34 -13 5 -31 18 -41 29 -10 11 -32 26 -48 32 -56 23 -139 -35 -139 -97 0 -10
11 -41 24 -69 21 -46 23 -61 19 -137 -5 -80 -4 -90 22 -141 16 -31 36 -63 47
-72 10 -10 18 -26 18 -36 0 -27 26 -74 45 -81 8 -4 15 -13 15 -21 0 -17 55
-24 145 -16 l65 5 0 -43 c0 -32 -4 -44 -17 -48 -86 -27 -150 -81 -179 -150
-16 -39 -18 -114 -4 -166 12 -41 88 -132 131 -153 17 -9 57 -15 102 -15 68 0
79 3 123 33 59 41 99 96 116 160 10 40 10 57 -3 105 -9 31 -19 64 -23 73 -10
23 67 69 141 85 34 7 79 24 100 38 21 14 44 26 51 26 19 0 93 39 125 66 16 13
34 24 41 24 21 0 78 -98 106 -184 26 -78 29 -83 91 -129 76 -57 152 -129 187
-177 14 -19 31 -40 36 -45 6 -6 18 -24 26 -40 14 -26 22 -30 64 -33 61 -4 75
8 51 45 -19 30 -79 95 -135 146 -91 83 -138 137 -163 187 -25 49 -27 64 -27
168 0 62 3 112 8 110 163 -81 186 -90 297 -113 160 -33 178 -42 194 -96 7 -24
19 -54 27 -67 22 -34 9 -45 -45 -37 -70 11 -110 31 -122 62 -18 48 -39 63 -84
63 -27 0 -47 -6 -56 -16 -12 -14 -8 -20 26 -47 22 -17 56 -48 76 -69 20 -21
44 -38 55 -38 10 0 51 -11 89 -25 82 -29 126 -31 160 -9 32 21 33 79 5 143
-36 79 -26 96 66 106 l60 7 65 -50 c90 -70 233 -197 292 -259 29 -31 59 -53
71 -53 12 -1 38 -16 60 -34 35 -30 42 -32 72 -23 37 11 79 50 70 65 -3 5 -28
12 -55 15 -27 3 -67 15 -88 25 -47 24 -134 115 -161 168 -11 21 -43 59 -71 82
-28 24 -60 60 -70 80 -10 20 -31 50 -47 67 -33 36 -43 81 -44 201 l0 92 35 31
c25 22 47 31 73 32 82 4 179 -2 222 -12 66 -16 115 7 125 57 6 35 3 40 -48 93
-29 31 -70 79 -91 108 -43 61 -85 98 -132 118 -19 8 -49 29 -67 48 -38 41 -71
56 -63 29z m-1423 -540 c-13 -34 -27 -52 -52 -64 -44 -23 -72 -23 -148 3 l-63
21 -84 -27 c-47 -15 -87 -26 -89 -23 -3 2 15 15 40 27 25 12 45 26 45 31 0 9
46 26 140 53 77 22 73 22 155 24 l74 2 -18 -47z m-71 -223 c0 -5 -14 -28 -32
-50 -24 -30 -38 -39 -61 -39 -23 0 -40 -11 -71 -44 -39 -43 -42 -44 -68 -30
-28 15 -44 59 -33 93 12 40 265 107 265 70z m-359 -258 c-2 -41 -9 -74 -23
-97 -18 -30 -19 -38 -8 -65 33 -78 140 -59 140 24 0 25 8 42 33 64 17 17 37
39 43 49 10 18 13 16 33 -16 49 -81 16 -208 -68 -262 -42 -27 -52 -29 -123
-26 -78 3 -78 3 -124 50 -38 37 -48 55 -54 95 -11 64 1 124 34 173 24 37 90
82 110 76 5 -1 8 -30 7 -65z"/>
</g>
</svg>
