<?xml version="1.0" standalone="no"?>
<!DOCTYPE svg PUBLIC "-//W3C//DTD SVG 20010904//EN"
 "http://www.w3.org/TR/2001/REC-SVG-20010904/DTD/svg10.dtd">
<svg version="1.0" xmlns="http://www.w3.org/2000/svg"
 width="408.000000pt" height="311.000000pt" viewBox="0 0 408.000000 311.000000"
 preserveAspectRatio="xMidYMid meet">
<metadata>
Created by potrace 1.16, written by Peter Selinger 2001-2019
</metadata>
<g transform="translate(0.000000,311.000000) scale(0.100000,-0.100000)"
fill="#000000" stroke="none">
<path d="M1935 2551 c-74 -45 -91 -108 -56 -201 23 -59 23 -60 -38 -86 -91
-41 -181 -133 -181 -186 0 -13 14 -46 31 -73 24 -38 32 -63 34 -106 1 -32 6
-62 10 -68 12 -20 -15 -81 -43 -95 -40 -20 -148 -36 -246 -36 -64 0 -93 -4
-112 -16 -21 -15 -28 -15 -50 -4 -22 12 -27 11 -46 -7 -20 -20 -22 -21 -54 -5
-30 14 -47 14 -131 4 -92 -11 -100 -10 -125 8 -60 44 -65 12 -8 -53 51 -57 68
-128 51 -206 -29 -138 2 -171 109 -115 31 16 57 23 70 19 31 -10 89 -85 116
-151 26 -64 29 -85 15 -112 -5 -9 -15 -55 -21 -102 -6 -47 -18 -100 -25 -117
-15 -35 -9 -34 -135 -38 -41 -1 -76 -18 -90 -45 -15 -28 -12 -77 5 -84 9 -3
194 -1 413 4 218 6 736 14 1149 19 414 5 757 12 763 16 28 17 -6 100 -48 116
-16 6 -124 9 -275 8 -136 -1 -249 0 -252 3 -3 3 3 25 14 50 23 54 119 155 181
190 25 15 59 41 76 60 16 18 51 50 76 70 25 20 48 47 51 60 9 39 54 139 76
169 32 43 44 152 29 271 -11 94 -11 99 12 147 26 57 52 85 92 100 33 12 68 77
68 125 0 28 -8 43 -42 76 -59 56 -112 91 -150 99 -26 6 -33 12 -33 31 -1 42
-15 70 -40 76 -15 4 -31 21 -42 42 -15 31 -24 37 -55 40 -32 3 -40 -2 -65 -33
-15 -20 -43 -42 -60 -50 -33 -14 -46 -45 -19 -45 35 0 75 -97 47 -114 -4 -3
-11 -43 -13 -90 -5 -71 -11 -93 -38 -140 -37 -65 -46 -71 -121 -80 -63 -8
-116 -39 -172 -102 -33 -37 -43 -42 -94 -47 -64 -6 -177 -48 -209 -78 -41 -38
-54 -20 -54 73 0 57 3 63 40 104 l40 44 0 112 c0 103 -2 117 -25 153 -31 50
-31 51 1 80 29 27 25 45 -11 45 -16 0 -28 9 -37 28 -19 40 -57 40 -118 1 -28
-18 -50 -36 -50 -41 0 -4 -7 -8 -15 -8 -17 0 -22 59 -6 75 19 21 31 81 22 111
-5 16 -12 42 -16 57 -4 21 -17 33 -48 47 -53 25 -84 25 -122 1z m105 -40 c31
-8 36 -30 20 -87 -14 -48 -78 -111 -104 -101 -39 15 -60 133 -30 175 16 23 60
28 114 13z m-81 -289 c10 -21 42 -59 71 -86 49 -46 51 -50 45 -88 -8 -44 -20
-53 -57 -39 -14 5 -41 6 -59 2 -19 -4 -76 -5 -126 -1 -142 10 -166 48 -85 134
43 45 149 116 174 116 10 0 26 -16 37 -38z m-85 -271 c10 -15 -4 -39 -27 -45
-25 -6 -47 10 -47 35 0 15 7 19 34 19 19 0 37 -4 40 -9z m154 -3 c7 -7 12 -33
12 -58 0 -38 -5 -51 -28 -73 -53 -51 -89 -22 -77 62 10 76 13 81 49 81 17 0
37 -5 44 -12z m542 -258 c0 -23 -43 -94 -71 -117 -16 -14 -34 -36 -41 -51 -9
-19 -21 -27 -38 -27 -20 0 -31 11 -54 54 l-29 54 24 18 c33 25 159 78 187 79
12 0 22 -5 22 -10z m-61 -309 c21 -14 5 -78 -24 -97 -14 -9 -29 -33 -35 -53
-13 -49 -82 -121 -115 -121 -18 0 -31 -9 -45 -32 -27 -45 -25 -73 6 -95 l26
-19 -25 -55 c-14 -30 -27 -61 -30 -69 -4 -12 -25 -16 -98 -18 -52 -2 -105 -4
-119 -5 -23 -2 -25 2 -28 44 -3 40 2 54 29 93 18 25 42 49 53 52 19 6 147 131
237 231 20 22 42 58 49 79 22 68 28 74 68 74 20 0 43 -4 51 -9z m208 -167 c6
-17 -91 -128 -134 -154 -45 -27 -81 -100 -65 -134 25 -55 105 -43 115 17 3 20
14 48 23 63 18 27 89 84 106 84 19 0 5 -37 -34 -88 -40 -51 -59 -80 -90 -142
-6 -14 -14 -27 -15 -29 -7 -9 -253 -10 -258 -1 -10 16 63 149 100 184 19 18
44 53 54 77 19 42 55 82 113 126 30 22 76 20 85 -3z m-1176 6 c26 -14 24 -38
-5 -61 -13 -10 -27 -33 -30 -51 -14 -73 -68 -99 -82 -41 -11 40 21 125 53 145
33 21 38 21 64 8z m246 -56 c7 -19 -9 -79 -22 -79 -11 0 -26 64 -20 83 6 17
34 15 42 -4z m-117 -46 c0 -7 10 -36 22 -65 18 -43 19 -55 8 -68 -7 -8 -19
-15 -26 -15 -7 0 -23 -18 -33 -39 -11 -21 -36 -48 -55 -60 -18 -12 -36 -30
-39 -40 -4 -16 -19 -19 -111 -25 -58 -4 -110 -5 -115 -1 -26 15 24 195 54 195
7 0 31 -18 52 -41 59 -61 153 -75 153 -23 0 8 -11 24 -25 36 -14 12 -25 28
-25 37 0 23 50 90 79 106 32 18 61 19 61 3z m400 -22 c0 -18 -85 -122 -110
-136 -25 -13 -50 -13 -50 1 0 6 18 34 40 61 22 28 40 55 40 60 0 10 37 26 63
27 9 1 17 -5 17 -13z m-264 -155 c8 -37 51 -78 85 -83 23 -3 25 -6 18 -25 -8
-21 -12 -22 -126 -18 -104 4 -118 6 -121 22 -3 19 107 133 127 133 6 0 14 -13
17 -29z"/>
</g>
</svg>
