<?xml version="1.0" standalone="no"?>
<!DOCTYPE svg PUBLIC "-//W3C//DTD SVG 20010904//EN"
 "http://www.w3.org/TR/2001/REC-SVG-20010904/DTD/svg10.dtd">
<svg version="1.0" xmlns="http://www.w3.org/2000/svg"
 width="400.000000pt" height="300.000000pt" viewBox="0 0 400.000000 300.000000"
 preserveAspectRatio="xMidYMid meet">
<metadata>
Created by potrace 1.16, written by Peter Selinger 2001-2019
</metadata>
<g transform="translate(0.000000,300.000000) scale(0.100000,-0.100000)"
fill="#000000" stroke="none">
<path d="M2950 1732 c-34 -23 -41 -34 -29 -48 7 -9 5 -20 -5 -37 -19 -28 -12
-110 10 -128 19 -16 17 -37 -3 -47 -10 -5 -88 -15 -173 -22 -85 -6 -175 -16
-200 -22 -25 -5 -117 -11 -204 -13 -88 -2 -162 -8 -165 -13 -3 -4 -47 -9 -97
-10 -55 -1 -105 -8 -127 -17 -25 -10 -71 -15 -144 -15 -91 0 -113 -3 -138 -20
-16 -11 -38 -20 -47 -20 -10 0 -33 -16 -53 -35 -22 -22 -40 -33 -48 -29 -77
47 -216 159 -221 178 -3 13 -16 26 -28 30 -13 3 -45 27 -72 53 -30 29 -51 43
-53 36 -12 -34 -76 12 -102 73 -11 24 -26 47 -33 49 -7 3 -42 -6 -78 -20 -68
-27 -95 -31 -85 -14 7 10 -30 49 -46 49 -4 0 -19 -15 -34 -33 -22 -31 -25 -41
-21 -101 3 -39 11 -75 19 -84 8 -10 17 -31 20 -48 7 -35 6 -35 -125 -117 -48
-30 -59 -43 -69 -79 -7 -24 -21 -54 -31 -67 -10 -13 -18 -31 -18 -40 0 -63
-44 -131 -84 -131 -13 0 -29 -7 -36 -14 -6 -8 -30 -16 -53 -18 -34 -2 -42 -7
-42 -23 0 -20 7 -20 485 -22 576 -3 2639 14 2725 22 83 8 88 11 75 35 -10 19
-21 20 -165 20 -142 0 -155 2 -165 19 -5 11 -10 31 -10 45 0 14 -7 41 -16 60
-24 50 -13 70 34 62 87 -15 91 -18 128 -67 26 -35 42 -49 60 -49 13 0 24 6 24
13 -1 23 -108 125 -157 151 -49 24 -50 26 -56 78 -12 92 -12 91 32 83 67 -11
151 23 151 62 0 12 -40 58 -117 136 -37 37 -70 50 -60 22 6 -14 -5 -25 -92
-88 -24 -18 -49 -36 -56 -41 -14 -11 -75 31 -75 51 0 20 45 33 94 27 51 -7 83
7 92 40 15 60 -41 85 -96 45 -19 -15 -36 -20 -53 -15 -34 8 -87 54 -87 75 0
16 -33 52 -48 50 -4 0 -18 -8 -32 -17z m126 -138 c31 -8 30 -18 -1 -32 -21
-10 -27 -8 -40 11 -19 28 -19 41 1 33 9 -3 27 -9 40 -12z m-2076 -53 c0 -9 9
-27 20 -41 26 -33 25 -39 -12 -77 -34 -35 -72 -43 -82 -18 -3 8 -12 15 -21 15
-10 0 -15 10 -15 29 0 16 -3 43 -6 60 -6 28 -4 31 18 31 13 0 35 11 49 26 22
23 24 24 36 8 7 -10 13 -25 13 -33z m48 -6 c3 -25 2 -27 -12 -16 -19 16 -22
55 -3 49 6 -3 14 -17 15 -33z m52 -21 c0 -9 -5 -14 -12 -12 -18 6 -21 28 -4
28 9 0 16 -7 16 -16z m2280 -89 l25 -14 -37 -1 c-36 0 -54 10 -41 24 10 9 25
7 53 -9z m-2160 -25 c0 -5 -11 -10 -25 -10 -14 0 -25 5 -25 10 0 6 11 10 25
10 14 0 25 -4 25 -10z m1419 -32 c-77 -62 -106 -94 -128 -144 -18 -39 -24 -44
-53 -44 -23 -1 -38 -8 -50 -24 -17 -23 -17 -25 7 -40 19 -13 30 -14 45 -6 11
6 25 8 31 4 6 -3 18 1 27 9 9 8 27 18 39 21 21 7 71 69 98 120 14 27 35 32 35
8 0 -31 -26 -85 -55 -112 -14 -13 -30 -43 -36 -66 -7 -28 -18 -45 -35 -53 -16
-7 -24 -19 -24 -35 0 -22 -5 -24 -62 -30 -35 -4 -193 -6 -351 -5 l-289 3 -28
37 c-16 20 -27 38 -24 41 8 8 66 -15 101 -39 40 -29 51 -29 63 2 6 17 20 27
40 31 28 6 47 34 36 53 -10 15 5 41 23 41 10 0 26 -6 37 -14 16 -13 17 -18 7
-35 -19 -30 -16 -51 6 -51 25 0 38 17 46 63 6 33 4 40 -19 58 -32 25 -32 36
-4 66 25 27 42 28 93 7 29 -12 44 -13 62 -5 28 13 29 24 2 60 -11 16 -21 44
-22 62 l-2 34 160 7 c88 4 171 9 185 11 14 2 40 5 59 6 l34 1 -54 -42z m-1268
-34 c41 -30 95 -69 122 -86 26 -16 47 -34 47 -39 0 -5 5 -9 11 -9 7 0 31 -12
55 -27 42 -27 43 -28 37 -70 -7 -49 10 -59 29 -18 14 31 29 28 39 -8 4 -14 17
-40 29 -58 19 -25 20 -33 9 -40 -8 -5 -125 -9 -261 -9 l-246 0 -36 58 -35 57
20 21 c31 33 22 76 -17 87 l-31 9 1 82 1 81 41 -3 c28 -2 45 2 53 12 23 27 55
18 132 -40z m268 -66 c-1 -13 3 -35 9 -50 15 -37 -1 -44 -38 -18 -35 25 -36
32 -14 65 20 31 44 33 43 3z m1432 -78 l98 0 30 -62 c16 -35 32 -79 35 -99 l7
-37 -173 -4 -173 -5 -32 35 c-32 34 -44 84 -24 96 5 3 12 18 16 33 11 47 25
56 74 49 24 -3 88 -6 142 -6z m-291 -20 c0 -6 -7 -24 -16 -41 -15 -30 -11 -69
7 -69 8 0 43 -70 37 -75 -5 -4 -238 -13 -238 -10 0 10 193 205 203 205 4 0 7
-5 7 -10z m-1711 -37 c35 -31 37 -40 16 -63 -13 -14 -13 -19 -1 -36 12 -16 18
-17 34 -7 17 10 21 8 31 -14 7 -14 9 -28 6 -32 -4 -3 -44 -8 -90 -9 -75 -4
-85 -2 -105 18 -14 14 -41 25 -76 29 -30 4 -57 10 -60 14 -4 3 -2 28 2 54 l9
48 79 7 c43 4 84 9 90 12 23 9 35 5 65 -21z m906 -13 c4 -12 5 -22 3 -24 -1
-1 -20 -10 -42 -19 -35 -16 -40 -16 -62 -2 -21 14 -32 44 -20 56 2 2 29 5 59
7 49 3 56 1 62 -18z m-1290 -62 c20 -2 36 -14 52 -37 13 -19 21 -36 18 -39 -3
-3 -33 -5 -68 -5 -47 1 -61 4 -58 15 2 7 3 31 2 52 -2 31 1 37 11 29 7 -6 26
-13 43 -15z"/>
</g>
</svg>
