<?xml version="1.0" standalone="no"?>
<!DOCTYPE svg PUBLIC "-//W3C//DTD SVG 20010904//EN"
 "http://www.w3.org/TR/2001/REC-SVG-20010904/DTD/svg10.dtd">
<svg version="1.0" xmlns="http://www.w3.org/2000/svg"
 width="331.000000pt" height="253.000000pt" viewBox="0 0 331.000000 253.000000"
 preserveAspectRatio="xMidYMid meet">
<metadata>
Created by potrace 1.16, written by Peter Selinger 2001-2019
</metadata>
<g transform="translate(0.000000,253.000000) scale(0.100000,-0.100000)"
fill="#000000" stroke="none">
<path d="M1305 2078 c-2 -7 -11 -152 -19 -322 -9 -170 -18 -312 -21 -316 -2
-4 -99 -5 -215 -2 -229 5 -233 4 -182 -49 15 -16 43 -47 62 -69 19 -22 47 -53
61 -68 28 -30 64 -101 75 -147 7 -32 66 -94 108 -113 15 -6 29 -19 32 -27 4
-8 13 -15 21 -15 16 0 63 47 63 64 1 16 31 49 62 70 21 13 31 15 47 7 11 -6
29 -11 41 -11 36 0 119 -79 176 -167 30 -46 54 -87 54 -91 0 -5 14 -21 30 -37
17 -16 30 -34 30 -42 0 -7 8 -17 19 -22 12 -7 20 -26 24 -53 3 -23 10 -44 15
-46 6 -2 22 -28 37 -58 22 -45 31 -54 53 -54 15 0 38 -9 52 -20 18 -14 41 -20
84 -20 51 0 57 2 51 18 -4 9 -12 49 -19 89 -7 40 -19 80 -27 89 -11 14 -10 19
8 33 11 10 24 27 27 39 4 12 16 27 27 32 10 6 19 20 19 30 0 11 14 33 31 49
23 22 29 35 24 50 -7 24 13 28 45 11 15 -8 31 -4 74 20 55 31 76 63 76 116 0
38 23 52 79 46 47 -4 51 -3 60 21 6 15 11 46 11 69 0 24 1 54 2 68 5 76 -2
100 -49 157 -47 58 -47 58 -53 148 -3 50 -8 95 -13 102 -4 6 -31 23 -60 36
-43 20 -62 23 -102 17 -28 -4 -62 -13 -76 -20 -23 -10 -35 -9 -85 10 -44 16
-71 20 -104 16 -39 -5 -47 -3 -58 15 -10 16 -20 19 -38 15 -15 -4 -42 1 -71
14 -25 11 -58 20 -73 20 -49 0 -60 32 -60 173 l0 124 -127 6 c-185 10 -223 9
-228 -5z"/>
</g>
</svg>
