<?xml version="1.0" standalone="no"?>
<!DOCTYPE svg PUBLIC "-//W3C//DTD SVG 20010904//EN"
 "http://www.w3.org/TR/2001/REC-SVG-20010904/DTD/svg10.dtd">
<svg version="1.0" xmlns="http://www.w3.org/2000/svg"
 width="400.000000pt" height="300.000000pt" viewBox="0 0 400.000000 300.000000"
 preserveAspectRatio="xMidYMid meet">
<metadata>
Created by potrace 1.16, written by Peter Selinger 2001-2019
</metadata>
<g transform="translate(0.000000,300.000000) scale(0.100000,-0.100000)"
fill="#000000" stroke="none">
<path d="M1140 2710 c0 -17 -4 -19 -26 -14 -25 7 -27 5 -20 -22 4 -16 19 -41
33 -56 l26 -27 -27 -64 c-20 -48 -28 -84 -30 -143 -2 -60 -10 -95 -31 -144
-38 -87 -38 -131 0 -171 27 -27 35 -30 72 -26 52 5 73 21 73 53 0 28 44 119
73 152 30 33 51 29 44 -8 -4 -16 -9 -60 -13 -97 -3 -37 -15 -92 -25 -121 -22
-60 -24 -96 -8 -141 6 -18 8 -35 5 -39 -9 -8 -135 26 -165 45 -35 23 -129 19
-156 -7 -11 -10 -55 -35 -97 -55 -43 -19 -82 -44 -88 -55 -5 -10 -10 -39 -10
-65 0 -25 -7 -59 -15 -74 -10 -21 -12 -47 -8 -100 3 -39 8 -71 10 -71 3 0 24
12 49 26 48 28 58 60 29 101 -13 19 -13 23 5 46 11 14 20 36 21 49 1 39 12 55
59 87 59 40 109 41 181 3 106 -55 174 -99 206 -130 36 -37 64 -40 100 -12 14
11 32 20 39 20 8 0 37 -24 66 -54 39 -39 65 -57 98 -66 82 -22 87 -25 94 -70
4 -23 16 -60 27 -82 28 -55 44 -114 64 -234 19 -119 11 -152 -49 -200 -20 -16
-36 -34 -36 -41 0 -7 -14 -29 -32 -49 -31 -35 -31 -37 -13 -50 24 -18 76 -18
119 0 24 10 37 25 50 57 22 55 188 218 298 292 74 49 79 55 94 107 9 30 29 74
45 97 16 23 29 46 29 53 0 10 175 190 185 190 3 0 12 -14 21 -31 45 -88 119
-138 261 -179 67 -19 78 -26 145 -96 43 -45 102 -92 148 -119 95 -56 250 -203
250 -236 0 -29 34 -87 55 -95 24 -10 43 13 53 63 12 55 1 93 -27 93 -13 0 -23
11 -31 35 -6 20 -26 45 -43 58 -52 36 -191 187 -230 249 -27 43 -48 63 -81 78
-24 12 -62 37 -84 56 -48 41 -127 133 -120 140 3 3 32 -18 64 -46 63 -54 139
-94 247 -129 74 -25 146 -25 249 -1 54 13 61 13 113 -9 60 -25 77 -22 57 9
-11 19 -9 20 29 20 33 0 40 3 37 18 -2 12 -14 18 -40 20 -26 2 -37 9 -41 23
-3 10 -12 19 -21 19 -9 0 -16 6 -16 14 0 8 -17 15 -50 19 -28 3 -60 13 -72 22
-15 10 -45 15 -89 15 -57 0 -72 4 -97 25 -19 16 -50 28 -91 34 -66 11 -91 24
-91 48 0 8 -20 34 -45 59 -25 24 -45 50 -45 59 0 18 -91 115 -107 115 -23 0
-63 44 -75 82 -9 31 -24 50 -61 76 -30 22 -57 52 -73 83 -29 59 -61 83 -99 73
-34 -9 -68 -78 -63 -132 l3 -36 -195 0 -195 -1 -62 39 c-50 31 -69 37 -93 33
-30 -6 -30 -6 -30 37 0 30 -6 48 -20 61 -13 12 -17 25 -14 44 4 20 -1 36 -20
58 -30 36 -31 42 -11 57 14 10 11 17 -20 51 -37 42 -43 60 -22 69 22 9 -32 46
-69 46 -18 0 -63 10 -99 22 -63 20 -68 20 -101 5 -46 -22 -47 -22 -39 13 6 29
5 30 -28 30 -41 0 -49 -7 -36 -32 17 -31 1 -35 -41 -10 -21 12 -51 22 -65 22
-17 0 -40 15 -69 45 -50 51 -56 53 -56 25z m974 -1157 c-5 -21 -9 -77 -9 -124
0 -67 -4 -91 -17 -106 -9 -10 -21 -37 -26 -61 -8 -32 -26 -58 -80 -112 -38
-38 -77 -70 -85 -70 -18 0 -20 16 -38 276 -7 94 -9 179 -6 188 5 12 19 16 54
16 26 1 75 7 108 14 33 8 71 14 84 15 22 1 23 -1 15 -36z"/>
</g>
</svg>
