<?xml version="1.0" standalone="no"?>
<!DOCTYPE svg PUBLIC "-//W3C//DTD SVG 20010904//EN"
 "http://www.w3.org/TR/2001/REC-SVG-20010904/DTD/svg10.dtd">
<svg version="1.0" xmlns="http://www.w3.org/2000/svg"
 width="219.000000pt" height="178.000000pt" viewBox="0 0 219.000000 178.000000"
 preserveAspectRatio="xMidYMid meet">
<metadata>
Created by potrace 1.16, written by Peter Selinger 2001-2019
</metadata>
<g transform="translate(0.000000,178.000000) scale(0.100000,-0.100000)"
fill="#000000" stroke="none">
<path d="M718 1753 c-20 -5 -34 -126 -23 -199 5 -34 2 -52 -9 -70 -13 -18 -18
-65 -23 -209 -4 -121 -10 -186 -17 -187 -6 -1 -31 -2 -56 -4 -25 -1 -73 -7
-107 -14 -42 -7 -68 -8 -80 -2 -12 7 -25 6 -43 -2 -14 -7 -53 -16 -88 -19
-120 -13 -127 -25 -96 -182 13 -66 26 -143 30 -172 6 -47 4 -52 -17 -64 -34
-18 -99 -71 -99 -81 0 -4 -9 -17 -20 -28 -11 -11 -20 -28 -20 -38 0 -10 -5
-23 -10 -28 -15 -15 -24 -170 -11 -179 6 -3 11 -14 11 -23 0 -56 92 -161 170
-194 50 -22 168 -35 197 -23 10 4 27 10 37 12 11 2 27 10 36 18 9 8 21 15 26
15 15 0 84 64 84 78 0 6 4 12 8 12 18 0 54 99 56 153 1 31 6 61 11 66 6 5 68
12 138 16 l129 7 -8 -48 c-4 -27 -13 -53 -20 -57 -8 -4 -14 -15 -14 -22 0 -11
13 -15 49 -15 51 0 72 13 52 33 -6 6 -11 35 -11 64 0 47 3 53 23 57 57 12 88
12 98 -1 7 -7 31 -13 55 -13 38 0 46 -4 54 -25 5 -14 14 -25 20 -25 5 0 10
-15 10 -34 0 -21 9 -42 25 -60 14 -15 25 -32 25 -39 1 -17 95 -107 112 -107 8
0 25 -11 38 -25 13 -14 31 -24 40 -23 8 1 27 -6 42 -16 15 -10 37 -16 50 -15
13 2 28 0 34 -4 6 -3 24 -6 40 -6 16 0 52 -1 81 -1 28 -1 54 4 58 10 3 5 22
10 41 10 23 0 38 6 46 20 8 12 24 20 40 20 25 0 58 22 58 39 0 3 13 12 30 18
16 6 34 22 39 35 5 12 21 33 35 45 14 13 26 30 26 40 0 9 7 25 16 34 17 19 34
80 39 139 1 19 6 52 10 73 5 25 3 43 -4 50 -6 6 -11 30 -11 54 0 24 -4 43 -9
43 -5 0 -11 18 -15 40 -4 25 -14 43 -26 50 -11 6 -20 17 -20 26 0 21 -30 65
-41 59 -4 -3 -19 10 -31 29 -13 20 -30 36 -39 36 -29 0 -40 26 -37 82 l3 53
43 9 c39 9 42 12 42 44 0 25 -5 35 -19 39 -14 3 -19 13 -18 31 2 21 -3 28 -22
30 -21 3 -23 1 -19 -27 3 -21 0 -31 -9 -31 -19 0 -23 28 -32 205 -8 160 -4
185 25 185 24 0 15 27 -17 55 l-32 26 -333 -3 -334 -3 -27 -28 -28 -28 23 -6
c22 -5 23 -9 17 -57 -4 -28 -15 -94 -25 -146 -10 -52 -21 -120 -25 -150 -12
-92 -10 -91 -133 -88 l-107 3 -3 209 c-1 133 1 213 8 220 5 5 10 46 10 91 0
48 5 86 12 93 15 15 -36 35 -72 27 l-26 -6 4 -89 c4 -85 3 -90 -16 -90 -16 0
-21 9 -27 46 -4 29 -16 56 -31 71 -27 27 -31 58 -8 67 8 3 12 10 9 16 -6 10
-17 11 -47 3z m59 -164 c7 -53 18 -69 49 -69 l24 0 -2 -212 -3 -213 -40 0 -40
0 -3 193 c-1 116 -6 192 -12 192 -11 0 -13 56 -4 124 8 56 23 48 31 -15z m611
-220 c2 -90 0 -179 -3 -196 l-6 -33 -99 0 c-82 0 -100 3 -100 15 0 8 11 92 25
187 14 95 25 175 25 180 0 6 115 16 145 13 6 -1 11 -66 13 -166z m456 145 c3
-9 6 -66 6 -128 0 -98 -2 -115 -19 -130 -11 -10 -29 -40 -40 -67 l-22 -49
-162 0 c-102 0 -157 4 -148 9 12 8 13 14 3 36 -13 28 -17 326 -5 338 3 4 91 7
194 7 161 0 188 -2 193 -16z m-994 -624 c0 -11 -4 -20 -10 -20 -5 0 -10 2 -10
4 0 2 -3 11 -6 20 -4 11 -1 16 10 16 9 0 16 -8 16 -20z m80 -4 c0 -14 -4 -28
-10 -31 -6 -4 -10 7 -10 24 0 17 5 31 10 31 6 0 10 -11 10 -24z m130 -6 c0
-11 -4 -20 -10 -20 -5 0 -10 9 -10 20 0 11 5 20 10 20 6 0 10 -9 10 -20z
m-290 -16 c0 -16 -26 -19 -35 -4 -3 6 -4 14 0 20 8 13 35 1 35 -16z m120 -306
c0 -6 7 -19 16 -29 29 -33 11 -46 -73 -53 -43 -3 -103 -9 -134 -12 -52 -6 -57
-4 -64 15 -7 24 9 51 30 51 7 0 15 7 18 15 5 10 27 15 84 18 43 1 88 4 101 5
12 1 22 -3 22 -10z m185 -41 c29 -22 10 -35 -42 -29 -56 6 -57 6 -50 27 8 19
66 20 92 2z"/>
</g>
</svg>
