<?xml version="1.0" standalone="no"?>
<!DOCTYPE svg PUBLIC "-//W3C//DTD SVG 20010904//EN"
 "http://www.w3.org/TR/2001/REC-SVG-20010904/DTD/svg10.dtd">
<svg version="1.0" xmlns="http://www.w3.org/2000/svg"
 width="290.000000pt" height="275.000000pt" viewBox="0 0 290.000000 275.000000"
 preserveAspectRatio="xMidYMid meet">
<metadata>
Created by potrace 1.16, written by Peter Selinger 2001-2019
</metadata>
<g transform="translate(0.000000,275.000000) scale(0.100000,-0.100000)"
fill="#000000" stroke="none">
<path d="M921 2503 c-5 -11 -5 -50 -1 -93 6 -64 5 -80 -11 -108 -16 -27 -19
-54 -19 -146 0 -79 -4 -117 -12 -124 -8 -6 -108 -11 -245 -13 l-233 -4 -27
-28 -28 -27 -3 -378 c-2 -306 0 -381 11 -396 9 -12 31 -20 65 -24 64 -6 68
-25 17 -85 -68 -79 -80 -118 -79 -252 0 -107 3 -126 26 -176 32 -69 86 -131
147 -167 40 -24 56 -27 131 -27 103 1 147 20 227 101 74 73 106 147 111 248 6
106 -11 173 -60 246 -39 58 -39 61 -24 85 15 23 23 25 94 25 127 0 147 7 208
66 l55 54 162 0 c149 0 165 -2 202 -23 55 -30 86 -95 92 -190 3 -40 11 -81 18
-92 6 -11 14 -53 17 -94 4 -57 10 -78 24 -88 10 -7 28 -42 39 -76 18 -53 26
-64 58 -79 20 -10 43 -31 52 -48 21 -41 57 -63 89 -54 20 5 34 -1 61 -25 37
-32 81 -41 103 -19 7 7 36 10 72 9 52 -2 63 1 82 22 13 13 40 27 62 31 44 8
86 45 86 76 0 11 4 20 10 20 17 0 90 71 90 88 0 8 12 36 27 61 15 25 31 71 37
101 18 105 4 307 -25 348 -13 18 -15 38 -12 86 4 50 1 70 -16 104 -29 57 -119
146 -163 162 -49 18 -55 37 -21 72 27 29 76 145 67 160 -11 17 -42 6 -124 -43
-47 -28 -107 -65 -134 -81 -44 -26 -58 -29 -155 -32 -69 -2 -124 -9 -158 -20
-29 -10 -59 -16 -67 -13 -8 3 -18 26 -21 52 -6 38 -4 51 16 79 124 177 154
216 167 216 8 0 30 -13 49 -30 35 -32 63 -39 63 -17 0 16 -202 217 -218 217
-26 0 -20 -21 18 -64 35 -42 38 -49 29 -74 -6 -15 -21 -38 -33 -52 -13 -14
-51 -67 -85 -117 -35 -51 -68 -93 -74 -93 -27 0 -373 125 -384 138 -7 9 -13
29 -13 44 0 36 -40 78 -74 78 -14 0 -37 5 -51 12 -20 9 -31 9 -45 0 -20 -12
-161 -19 -179 -8 -7 5 -11 47 -11 119 0 90 -4 121 -20 156 -14 30 -20 65 -20
116 0 76 -6 105 -21 105 -4 0 -12 -8 -18 -17z m-203 -698 c68 -9 131 -14 140
-11 23 7 50 -10 37 -23 -6 -5 -76 -11 -157 -13 -133 -3 -149 -5 -177 -25 -17
-13 -33 -23 -37 -23 -8 0 2 95 11 110 3 5 18 7 33 5 15 -3 82 -12 150 -20z
m414 -78 c11 -17 10 -31 -6 -52 -13 -18 -14 -18 -50 4 -30 19 -36 28 -36 56
l0 33 42 -15 c24 -8 46 -20 50 -26z"/>
</g>
</svg>
