<?xml version="1.0" standalone="no"?>
<!DOCTYPE svg PUBLIC "-//W3C//DTD SVG 20010904//EN"
 "http://www.w3.org/TR/2001/REC-SVG-20010904/DTD/svg10.dtd">
<svg version="1.0" xmlns="http://www.w3.org/2000/svg"
 width="400.000000pt" height="300.000000pt" viewBox="0 0 400.000000 300.000000"
 preserveAspectRatio="xMidYMid meet">
<metadata>
Created by potrace 1.16, written by Peter Selinger 2001-2019
</metadata>
<g transform="translate(0.000000,300.000000) scale(0.100000,-0.100000)"
fill="#000000" stroke="none">
<path d="M1087 2258 c-4 -29 -7 -98 -8 -153 -1 -55 -4 -129 -8 -165 l-6 -65
-105 -12 c-111 -13 -161 -9 -197 14 -19 12 -25 12 -52 -1 -49 -26 -68 -86 -26
-86 9 0 15 -9 15 -22 0 -80 -23 -371 -37 -463 -9 -60 -17 -130 -18 -155 -2
-42 -5 -46 -42 -60 -107 -41 -187 -113 -230 -207 -31 -67 -45 -170 -32 -238
18 -99 128 -217 228 -247 25 -7 82 -13 126 -13 68 0 89 5 138 30 87 43 143 97
185 179 35 68 37 75 37 176 0 98 -2 109 -30 159 -38 68 -126 143 -188 161 -26
7 -47 16 -47 19 0 4 138 7 308 9 169 1 354 4 412 7 l105 5 184 -62 c165 -57
186 -66 201 -93 14 -25 24 -31 59 -33 33 -2 49 2 65 17 24 23 123 71 147 71 8
0 25 -14 37 -30 13 -17 29 -30 37 -30 10 0 15 -11 15 -34 0 -42 16 -87 36
-102 8 -7 27 -36 42 -65 15 -30 37 -58 50 -64 12 -5 22 -13 22 -18 0 -17 94
-107 111 -107 10 0 22 -6 26 -14 13 -22 84 -66 107 -66 12 0 48 -14 81 -30 32
-17 66 -28 74 -25 9 4 44 1 79 -6 48 -10 68 -10 82 -2 11 7 39 10 74 6 48 -5
62 -3 86 16 16 11 37 21 47 21 40 0 92 21 98 40 4 12 19 22 41 26 38 7 84 39
84 58 0 7 23 32 50 55 33 28 50 50 50 65 0 13 9 31 21 42 33 29 51 72 44 103
-4 19 0 35 13 52 16 20 19 42 20 137 1 61 -3 112 -8 112 -4 0 -11 33 -15 74
-5 49 -12 77 -21 80 -8 3 -14 16 -14 29 0 34 -26 94 -46 105 -9 5 -28 31 -43
57 -14 27 -38 56 -52 64 -15 9 -43 35 -64 59 -24 27 -46 42 -61 42 -13 0 -24
4 -24 9 0 14 -78 61 -102 61 -13 0 -45 11 -73 25 -36 19 -58 24 -79 19 l-30
-6 17 26 c14 20 15 31 7 46 -17 32 -57 23 -108 -23 -17 -16 -42 -23 -93 -28
-43 -4 -76 -12 -87 -23 -10 -9 -34 -16 -53 -16 -49 0 -78 -10 -84 -29 -3 -9
-29 -25 -57 -36 -32 -12 -57 -29 -64 -43 -6 -13 -30 -35 -53 -50 -24 -16 -44
-38 -48 -52 -3 -14 -21 -42 -39 -63 -19 -20 -34 -42 -34 -47 0 -25 -20 -6 -29
28 -10 39 -37 490 -29 497 2 2 24 5 48 7 42 3 44 2 54 -32 6 -19 14 -39 17
-45 4 -5 10 -25 14 -42 5 -23 12 -33 26 -33 26 0 25 30 -8 204 -28 152 -39
179 -59 151 -8 -11 -11 -40 -7 -89 l6 -73 -56 -7 c-31 -4 -61 -5 -67 -1 -5 3
-16 3 -22 -2 -13 -8 -53 -13 -463 -57 -132 -14 -271 -30 -310 -35 -38 -5 -111
-12 -162 -16 l-92 -7 4 118 c3 66 7 156 10 202 l4 83 -37 -3 -37 -3 0 -130
c-1 -238 -4 -287 -17 -283 -10 4 -13 57 -13 214 l0 209 -26 3 c-25 3 -26 0
-32 -50z m1164 -448 c4 -85 10 -203 13 -262 5 -73 4 -108 -3 -108 -6 0 -11 12
-11 27 0 17 -9 35 -25 48 -24 19 -25 27 -32 159 l-8 140 -100 3 c-55 2 -114 8
-131 12 -17 5 -37 5 -45 1 -8 -5 -162 -10 -344 -12 -327 -3 -330 -3 -333 18
-3 23 22 27 333 59 83 8 175 19 205 24 30 6 136 18 235 26 99 9 182 19 185 21
2 3 16 4 30 2 l25 -3 6 -155z m-1081 20 c0 -21 -15 -27 -25 -10 -7 12 2 30 16
30 5 0 9 -9 9 -20z m-110 -11 c0 -21 -3 -22 -83 -15 -127 10 -126 11 -144
-200 -8 -93 -17 -214 -21 -269 -6 -79 -10 -100 -22 -100 -8 0 -13 7 -11 15 2
8 6 135 9 283 5 265 5 267 26 267 12 0 28 6 34 13 7 7 51 15 100 18 48 3 93 6
100 7 6 1 12 -8 12 -19z m638 -231 c-3 -9 -40 -14 -128 -16 -128 -3 -156 1
-145 18 10 16 278 13 273 -2z m417 2 c-4 -6 -72 -10 -170 -10 -98 0 -166 4
-170 10 -4 7 55 10 170 10 115 0 174 -3 170 -10z m-1045 -20 c0 -5 -7 -10 -15
-10 -8 0 -15 5 -15 10 0 6 7 10 15 10 8 0 15 -4 15 -10z m180 -25 c0 -8 -4
-15 -10 -15 -5 0 -10 7 -10 15 0 8 5 15 10 15 6 0 10 -7 10 -15z m170 -27 c0
-12 -108 -10 -115 2 -4 6 -4 17 -2 24 5 11 15 11 61 -2 31 -8 56 -19 56 -24z
m1534 -29 c3 -40 5 -73 4 -74 -2 -1 -26 3 -55 9 -44 9 -56 17 -78 50 -14 21
-23 42 -18 47 8 7 105 36 129 38 7 1 14 -28 18 -70z m145 57 c30 -7 56 -17 58
-22 2 -5 -22 -59 -52 -119 -30 -60 -55 -115 -55 -122 0 -7 -7 -13 -16 -13 -13
0 -15 7 -11 36 3 20 2 59 -3 87 -4 29 -11 78 -14 110 -7 66 -6 67 93 43z
m-1031 -8 c-5 -14 -116 -23 -156 -13 -47 12 -8 25 74 25 64 0 85 -3 82 -12z
m1206 -89 c31 -28 56 -55 56 -60 0 -5 -15 -16 -32 -25 -18 -9 -70 -41 -116
-71 -46 -31 -85 -53 -88 -51 -2 3 20 55 51 116 30 61 55 118 55 126 0 26 15
19 74 -35z m-1209 16 c0 -12 -8 -21 -20 -23 -11 -2 -28 -11 -37 -19 -16 -14
-20 -14 -43 1 -14 9 -25 25 -25 36 0 15 9 20 48 23 69 5 77 4 77 -18z m690 -7
c-8 -20 -52 -40 -60 -28 -8 13 47 61 58 51 4 -4 5 -15 2 -23z m-1231 16 c38
-15 -3 -24 -105 -24 -136 0 -146 18 -11 23 53 1 98 4 99 5 1 1 8 -1 17 -4z
m299 -9 c-4 -15 -26 -12 -31 3 -3 9 2 13 14 10 11 -2 18 -8 17 -13z m-573 -5
c0 -5 -4 -10 -10 -10 -5 0 -10 5 -10 10 0 6 5 10 10 10 6 0 10 -4 10 -10z
m-180 -115 l0 -105 -40 0 c-45 0 -51 13 -18 40 19 15 23 30 26 94 3 56 8 76
18 76 11 0 14 -22 14 -105z m358 33 c18 -25 37 -23 61 10 28 37 37 20 33 -67
l-4 -71 -137 0 c-76 0 -166 -3 -200 -6 l-62 -7 3 74 3 74 53 6 c29 4 56 9 58
12 3 3 44 2 92 -1 69 -4 90 -9 100 -24z m1978 -126 c9 -30 14 -55 12 -57 -6
-5 -288 -11 -288 -5 1 3 53 37 118 76 133 80 131 80 158 -14z m-433 66 c5 -17
-3 -48 -13 -48 -12 0 -23 38 -15 50 9 14 22 13 28 -2z m461 -237 c-1 -28 -7
-65 -14 -81 l-12 -30 -32 19 c-17 10 -77 42 -133 71 -57 28 -103 56 -103 61 0
7 244 18 285 13 6 -1 9 -24 9 -53z m-96 -134 c23 -11 42 -27 42 -34 0 -17 -79
-103 -94 -103 -7 0 -45 50 -86 110 -40 61 -79 115 -87 121 -7 6 -10 15 -7 20
2 5 46 -14 97 -42 51 -27 111 -60 135 -72z m-194 -41 c64 -95 84 -132 76 -141
-14 -16 -127 -48 -141 -39 -6 3 -9 18 -6 32 3 14 0 52 -6 84 -8 43 -7 64 2 84
10 22 9 30 -4 44 -8 9 -15 29 -15 45 0 16 2 26 3 24 2 -2 43 -62 91 -133z
m-2358 29 c13 -10 15 -17 8 -22 -6 -5 -16 -18 -23 -30 -18 -34 -31 -28 -31 15
0 54 11 63 46 37z m-136 -27 l0 -32 -21 21 c-22 22 -19 43 7 43 9 0 14 -11 14
-32z m2208 -4 c3 -2 -41 -93 -55 -113 -4 -6 -77 47 -107 78 -16 16 -26 33 -23
38 5 8 176 6 185 -3z m140 4 c8 -8 12 -45 12 -100 0 -85 -1 -88 -23 -88 -26 0
-117 28 -131 40 -4 5 4 25 18 46 14 21 26 44 26 50 0 6 9 23 21 38 22 27 57
34 77 14z m-2135 -33 c22 -30 16 -41 -26 -54 -18 -5 -40 -12 -49 -16 -24 -9
-23 9 1 32 10 10 24 28 30 41 15 28 22 27 44 -3z m-254 -30 c19 -27 27 -45 19
-45 -16 0 -85 24 -94 32 -6 7 25 58 35 58 4 0 22 -20 40 -45z m-42 -71 c46
-18 56 -34 23 -34 -12 0 -35 -7 -51 -16 -17 -8 -33 -13 -36 -11 -6 7 8 77 15
77 4 0 26 -7 49 -16z m329 0 c-3 -9 -6 -26 -6 -39 l0 -24 -47 16 c-68 22 -71
29 -21 46 58 21 82 21 74 1z m-61 -88 c40 -17 41 -22 16 -53 -19 -23 -41 -31
-41 -14 0 4 -11 25 -25 45 -23 34 -24 36 -4 36 11 0 35 -7 54 -14z m-247 -40
c-35 -47 -54 -46 -60 3 -3 26 18 38 70 40 22 1 22 0 -10 -43z m76 -38 c-4 -29
-8 -54 -9 -56 -6 -7 -55 11 -55 20 0 13 53 88 63 88 4 0 5 -24 1 -52z m94 11
c26 -44 23 -54 -22 -65 -28 -7 -29 -6 -23 26 4 18 7 43 7 56 0 35 12 29 38
-17z"/>
</g>
</svg>
