<?xml version="1.0" standalone="no"?>
<!DOCTYPE svg PUBLIC "-//W3C//DTD SVG 20010904//EN"
 "http://www.w3.org/TR/2001/REC-SVG-20010904/DTD/svg10.dtd">
<svg version="1.0" xmlns="http://www.w3.org/2000/svg"
 width="301.000000pt" height="194.000000pt" viewBox="0 0 301.000000 194.000000"
 preserveAspectRatio="xMidYMid meet">
<metadata>
Created by potrace 1.16, written by Peter Selinger 2001-2019
</metadata>
<g transform="translate(0.000000,194.000000) scale(0.100000,-0.100000)"
fill="#000000" stroke="none">
<path d="M2310 1863 c0 -10 9 -38 20 -62 26 -56 25 -77 -2 -94 -37 -22 -527
-287 -713 -385 -424 -223 -504 -262 -537 -262 -18 1 -71 -2 -118 -6 -83 -6
-87 -5 -118 21 -31 26 -32 30 -32 100 0 68 3 80 50 171 46 90 50 103 50 168 0
39 -4 77 -8 84 -20 30 -64 34 -514 44 -120 3 -139 1 -155 -14 -15 -15 -18 -50
-26 -250 -4 -128 -7 -290 -5 -360 4 -124 4 -128 42 -203 l39 -76 -26 -57 c-34
-75 -39 -109 -27 -193 13 -87 36 -133 95 -188 70 -65 123 -84 211 -79 123 8
227 77 271 178 18 43 13 188 -10 239 -13 30 -13 41 1 90 8 31 20 62 26 69 10
10 53 10 211 2 110 -6 294 -14 408 -18 233 -8 227 -6 227 -84 0 -38 6 -54 30
-82 23 -25 34 -53 44 -104 16 -84 18 -88 59 -101 27 -9 38 -23 61 -72 34 -75
57 -99 96 -99 21 0 43 -12 73 -39 57 -52 79 -62 135 -61 26 0 91 -2 144 -6
l98 -6 29 31 c23 25 39 32 87 37 76 8 121 29 128 60 4 14 21 31 45 43 49 25
91 75 91 108 0 14 18 53 40 86 36 54 40 65 34 102 -4 31 -1 52 12 76 22 43 22
109 1 140 -25 35 -21 64 15 105 23 26 32 45 31 70 -1 46 -56 137 -126 211 -66
69 -70 93 -20 104 18 3 44 14 58 23 33 22 81 114 66 129 -8 8 -54 0 -159 -26
-82 -20 -156 -37 -165 -37 -10 0 -46 10 -80 22 -34 12 -98 26 -142 32 l-80 11
-3 65 c-4 88 1 102 48 129 50 28 78 22 105 -21 23 -36 50 -56 62 -45 4 4 -13
47 -37 94 -25 47 -53 102 -63 122 -21 40 -56 81 -69 81 -4 0 -8 -8 -8 -17z
m-104 -339 c4 -15 3 -38 -2 -52 -8 -22 -20 -28 -89 -43 -154 -33 -273 -96
-372 -196 -61 -63 -133 -170 -133 -199 0 -8 -7 -17 -15 -20 -24 -10 -386 18
-383 28 2 5 98 58 213 117 458 234 701 361 720 375 31 23 54 19 61 -10z
m-1528 -79 c4 -49 -6 -105 -19 -105 -5 0 -14 12 -20 27 -13 34 -26 43 -62 43
-30 0 -54 36 -43 65 5 13 19 15 73 13 l68 -3 3 -40z m-222 0 c8 -21 -48 -100
-71 -100 -17 0 -20 6 -17 45 1 25 4 51 7 58 6 17 74 16 81 -3z m562 -534 c-5
-23 -158 -30 -158 -6 0 18 13 19 39 3 15 -9 26 -7 57 9 42 22 67 20 62 -6z
m429 -11 c103 -7 191 -15 195 -19 4 -3 4 -12 0 -18 -6 -9 -44 -10 -162 -2 -85
5 -169 7 -186 4 -38 -7 -84 9 -84 29 0 16 19 26 37 21 6 -2 96 -9 200 -15z"/>
</g>
</svg>
