<?xml version="1.0" standalone="no"?>
<!DOCTYPE svg PUBLIC "-//W3C//DTD SVG 20010904//EN"
 "http://www.w3.org/TR/2001/REC-SVG-20010904/DTD/svg10.dtd">
<svg version="1.0" xmlns="http://www.w3.org/2000/svg"
 width="320.000000pt" height="216.000000pt" viewBox="0 0 320.000000 216.000000"
 preserveAspectRatio="xMidYMid meet">
<metadata>
Created by potrace 1.16, written by Peter Selinger 2001-2019
</metadata>
<g transform="translate(0.000000,216.000000) scale(0.100000,-0.100000)"
fill="#000000" stroke="none">
<path d="M2616 2088 c-9 -12 -16 -28 -16 -35 0 -17 -19 -26 -65 -33 -35 -4
-40 -8 -40 -30 0 -22 5 -25 43 -28 39 -3 42 -5 36 -27 -5 -20 -1 -27 20 -35
35 -13 33 -43 -5 -71 -30 -21 -31 -24 -25 -78 7 -63 -8 -181 -23 -190 -5 -4
-14 -26 -20 -50 -5 -23 -12 -46 -16 -49 -4 -4 -37 -12 -73 -18 -154 -26 -232
-61 -232 -105 0 -10 -10 -29 -22 -42 -19 -20 -42 -27 -125 -40 -106 -17 -222
-64 -271 -110 -23 -22 -44 -33 -164 -94 -138 -70 -274 -113 -354 -113 -34 0
-34 0 -34 48 0 51 -39 174 -64 201 -9 10 -16 29 -16 42 0 14 -6 34 -14 45 -13
17 -17 18 -48 5 -18 -7 -57 -17 -86 -22 -30 -5 -65 -17 -80 -27 -22 -14 -51
-17 -177 -17 -82 0 -156 -4 -163 -8 -8 -6 -15 0 -22 17 -13 36 -37 32 -61 -9
-12 -19 -25 -35 -30 -35 -6 0 -28 9 -51 21 -31 16 -51 19 -82 14 -23 -3 -74
-7 -114 -8 -68 -2 -75 0 -99 25 -26 27 -73 38 -73 18 0 -32 44 -91 90 -121 51
-33 54 -43 30 -88 -4 -8 -4 -26 2 -40 11 -31 4 -75 -26 -158 -18 -49 -12 -99
15 -113 39 -21 94 -11 143 26 31 23 53 33 65 29 31 -10 120 -126 127 -165 3
-19 15 -54 27 -77 l21 -42 -22 -30 c-18 -25 -22 -43 -22 -111 0 -60 -5 -91
-19 -118 -11 -21 -22 -58 -26 -84 -6 -41 -10 -47 -34 -50 -24 -3 -26 -7 -29
-56 l-3 -52 1175 0 1176 0 0 20 c0 12 -7 34 -15 50 l-16 30 -204 0 c-191 0
-204 1 -197 17 22 55 98 176 117 189 13 8 34 31 47 50 13 21 46 48 78 64 64
34 92 57 109 88 7 12 29 33 50 46 61 39 101 84 101 115 0 16 11 45 25 65 14
20 25 46 25 57 0 23 14 51 37 79 33 39 45 94 47 215 1 66 -2 136 -7 155 -19
73 -19 96 -3 109 9 8 16 22 16 33 0 10 11 41 25 68 21 42 30 50 53 50 34 0 54
15 75 55 36 71 39 89 21 144 -9 28 -25 56 -35 62 -10 5 -31 21 -46 35 -16 14
-35 32 -44 40 -10 9 -37 21 -60 29 -92 28 -100 33 -88 53 19 31 2 70 -41 97
-22 14 -40 33 -40 43 0 24 -54 52 -100 52 -29 0 -43 -6 -54 -22z m-526 -898
c0 -26 -61 -114 -93 -136 -25 -17 -40 -36 -47 -64 l-11 -39 -62 -3 c-53 -3
-62 -6 -65 -23 -2 -16 9 -25 50 -44 29 -14 60 -33 69 -44 10 -12 33 -21 62
-24 31 -4 47 -10 47 -20 0 -25 -38 -90 -64 -106 -16 -11 -27 -30 -32 -54 -9
-50 -21 -73 -39 -73 -9 0 -24 -15 -35 -33 -16 -26 -27 -33 -62 -37 -37 -4 -46
-10 -60 -39 -9 -19 -22 -39 -27 -44 -20 -20 -12 -65 15 -86 15 -12 33 -21 40
-21 21 0 17 -28 -6 -40 -11 -6 -20 -21 -20 -34 0 -13 -9 -35 -20 -49 -11 -14
-20 -37 -20 -52 l0 -27 -547 6 c-660 9 -616 -2 -580 138 8 32 22 70 32 85 l18
27 16 -23 c9 -13 33 -41 54 -62 31 -32 45 -39 75 -39 21 0 46 6 56 13 17 12
17 16 3 43 -9 17 -27 35 -41 42 -15 6 -31 23 -36 37 -5 14 -21 30 -34 35 -43
16 -43 111 -1 181 6 9 30 26 54 38 l43 22 19 -20 c22 -23 23 -24 68 -15 21 4
31 12 31 25 0 30 22 34 43 8 17 -21 18 -33 12 -110 -4 -51 -3 -94 3 -105 5
-11 14 -32 18 -48 13 -41 36 -54 69 -36 25 13 26 18 19 55 -10 49 -11 253 -1
278 5 14 11 16 27 7 28 -15 28 -96 -1 -152 -21 -41 -21 -50 1 -138 14 -57 40
-77 81 -60 l29 13 -6 91 c-6 83 -4 99 20 168 35 102 34 143 -2 174 -25 22 -28
30 -23 67 6 41 7 42 51 48 127 17 182 32 255 69 44 22 85 40 92 40 6 0 81 36
165 79 138 72 203 100 263 114 33 8 35 7 35 -3z m178 -598 c2 -13 -3 -29 -10
-35 -8 -7 -36 -38 -63 -70 -27 -32 -65 -66 -84 -75 -21 -10 -43 -31 -53 -51
-9 -18 -26 -43 -37 -55 -32 -34 -26 -60 22 -96 35 -26 48 -30 77 -25 57 11 88
53 60 81 -7 7 -4 23 12 51 26 46 65 81 123 111 22 11 52 32 67 46 28 27 38 32
38 19 0 -5 -16 -18 -36 -31 -19 -13 -42 -39 -50 -59 -9 -20 -42 -67 -75 -105
-32 -38 -59 -74 -59 -81 0 -7 -11 -29 -25 -49 -14 -20 -25 -44 -25 -52 0 -18
-17 -19 -187 -9 -121 7 -125 8 -99 60 8 15 22 48 32 71 10 24 42 69 71 100 29
32 53 62 53 68 1 45 117 184 154 184 7 0 17 7 20 16 4 10 16 14 38 12 26 -2
34 -8 36 -26z"/>
</g>
</svg>
