<?xml version="1.0" standalone="no"?>
<!DOCTYPE svg PUBLIC "-//W3C//DTD SVG 20010904//EN"
 "http://www.w3.org/TR/2001/REC-SVG-20010904/DTD/svg10.dtd">
<svg version="1.0" xmlns="http://www.w3.org/2000/svg"
 width="226.000000pt" height="185.000000pt" viewBox="0 0 226.000000 185.000000"
 preserveAspectRatio="xMidYMid meet">
<metadata>
Created by potrace 1.16, written by Peter Selinger 2001-2019
</metadata>
<g transform="translate(0.000000,185.000000) scale(0.100000,-0.100000)"
fill="#000000" stroke="none">
<path d="M270 1761 c-77 -15 -77 -30 0 -92 101 -82 64 -127 -40 -49 -62 46
-85 51 -74 18 21 -70 113 -163 222 -227 84 -49 98 -67 107 -139 11 -82 41
-101 96 -60 l30 23 55 -29 c70 -37 89 -62 102 -135 17 -94 59 -144 103 -120
19 10 21 17 15 60 -7 54 -1 75 17 61 19 -15 165 -60 237 -73 123 -23 210 -76
210 -128 0 -13 9 -54 20 -90 11 -36 22 -79 25 -94 12 -58 57 -39 89 38 9 21
16 48 16 61 0 35 26 30 51 -8 17 -28 20 -46 17 -125 -4 -87 -6 -94 -42 -147
-50 -73 -110 -104 -166 -87 -50 15 -57 25 -75 109 -20 96 -36 132 -80 181 -40
44 -107 73 -126 54 -7 -7 -7 -43 1 -114 11 -117 11 -311 -1 -331 -7 -11 -12
-11 -30 0 -29 18 -43 3 -29 -33 9 -22 7 -31 -6 -47 -17 -18 -16 -20 16 -53 38
-39 60 -43 116 -19 34 14 49 15 115 4 71 -11 79 -10 127 10 50 22 54 22 121 7
80 -18 155 -11 243 24 42 16 70 20 138 17 47 -1 118 -2 158 0 l72 2 0 90 c0
102 -12 120 -55 80 -20 -19 -31 -21 -69 -16 -27 4 -47 3 -51 -4 -11 -18 -35
-11 -46 14 -6 13 -21 28 -34 34 -28 13 -95 -1 -107 -22 -5 -9 -15 -16 -23 -16
-8 0 -18 -7 -23 -16 -5 -10 -15 -14 -21 -9 -8 4 4 24 37 58 60 65 116 159 138
234 30 102 5 262 -53 345 -15 23 -33 57 -38 77 -8 28 -21 42 -59 62 -26 14
-84 62 -129 106 -100 97 -163 143 -252 183 -64 29 -67 32 -62 58 3 16 0 51 -7
78 l-12 49 -135 6 c-115 5 -143 9 -195 32 -90 38 -287 94 -377 106 -86 12
-222 13 -277 2z m280 -101 c0 -5 -7 -10 -16 -10 -8 0 -12 5 -9 10 3 6 10 10
16 10 5 0 9 -4 9 -10z m90 -227 c-21 -27 -68 -63 -82 -63 -14 0 -9 30 5 30 6
1 30 14 52 30 50 36 51 36 25 3z"/>
</g>
</svg>
