<?xml version="1.0" standalone="no"?>
<!DOCTYPE svg PUBLIC "-//W3C//DTD SVG 20010904//EN"
 "http://www.w3.org/TR/2001/REC-SVG-20010904/DTD/svg10.dtd">
<svg version="1.0" xmlns="http://www.w3.org/2000/svg"
 width="309.000000pt" height="234.000000pt" viewBox="0 0 309.000000 234.000000"
 preserveAspectRatio="xMidYMid meet">
<metadata>
Created by potrace 1.16, written by Peter Selinger 2001-2019
</metadata>
<g transform="translate(0.000000,234.000000) scale(0.100000,-0.100000)"
fill="#000000" stroke="none">
<path d="M2205 2210 c-11 -5 -34 -9 -51 -9 -17 -1 -41 -10 -54 -21 -27 -23
-32 -24 -47 -9 -22 22 -56 6 -66 -30 -5 -19 -22 -55 -39 -79 -24 -35 -30 -54
-29 -92 0 -42 -4 -55 -34 -90 -33 -39 -55 -93 -55 -135 0 -38 -14 -46 -60 -39
-33 5 -46 14 -59 35 -9 16 -28 33 -43 38 -20 7 -28 17 -28 34 0 29 -15 43 -55
52 -17 4 -37 16 -46 27 -13 17 -20 18 -37 9 -17 -9 -24 -8 -41 10 -15 16 -27
20 -46 15 -14 -4 -34 -2 -45 4 -15 8 -29 7 -55 -6 -34 -16 -37 -16 -56 2 -15
13 -24 16 -36 8 -19 -12 -21 -15 -61 -105 -26 -59 -34 -68 -78 -88 -27 -13
-66 -36 -86 -52 -20 -16 -43 -29 -51 -29 -22 0 -57 44 -57 72 0 23 26 58 44
58 5 0 23 7 42 16 43 21 66 63 68 126 1 45 -2 53 -36 84 -35 31 -43 34 -102
34 -61 0 -65 -2 -95 -35 -17 -20 -31 -40 -31 -45 0 -5 -19 -21 -42 -37 -54
-37 -62 -58 -18 -48 23 5 35 3 41 -6 13 -21 12 -24 -26 -69 -19 -23 -39 -59
-45 -80 -6 -22 -26 -53 -46 -72 -20 -18 -42 -46 -50 -61 -8 -15 -37 -52 -64
-82 -64 -71 -76 -111 -72 -258 2 -97 -1 -130 -19 -187 -15 -50 -19 -83 -15
-113 4 -23 9 -83 12 -133 5 -79 3 -98 -15 -140 -12 -26 -24 -64 -27 -86 -8
-45 6 -50 48 -15 21 17 31 42 48 114 24 103 28 160 15 250 -11 85 9 84 64 -1
52 -80 148 -179 199 -205 20 -10 63 -24 94 -30 59 -11 127 -40 145 -63 16 -20
53 -176 53 -225 0 -45 -16 -63 -70 -78 -55 -16 -90 -38 -90 -56 0 -24 41 -25
123 -2 57 16 60 16 103 -5 91 -44 118 -15 53 55 -40 44 -41 47 -36 97 6 58 69
204 92 212 51 20 96 -34 142 -172 33 -101 82 -154 163 -177 33 -10 65 -27 78
-42 28 -32 55 -32 81 0 15 20 18 35 14 62 l-6 36 36 -7 c31 -6 38 -3 57 24 14
19 30 30 46 30 14 0 27 7 30 15 3 8 21 19 40 25 25 8 36 19 40 38 3 15 14 45
25 67 21 40 21 41 2 98 -17 53 -24 61 -68 85 -89 49 -88 93 3 102 28 3 57 11
64 18 21 21 45 13 67 -23 37 -63 91 -41 91 37 0 54 13 65 45 39 33 -25 58 -27
79 -5 36 36 16 74 -77 151 -33 26 -36 68 -7 83 23 13 47 2 98 -42 43 -37 72
-34 91 9 8 18 21 33 29 33 8 0 35 -18 59 -41 33 -30 51 -39 71 -37 33 4 42 40
17 68 -20 22 -14 50 11 50 9 0 32 -10 51 -21 29 -18 39 -20 59 -10 14 6 36 11
49 11 37 0 41 33 9 76 l-28 36 34 28 35 29 0 118 c0 104 -3 123 -23 163 -22
40 -23 48 -11 83 11 33 10 42 -4 67 -9 15 -17 38 -17 49 0 14 -12 29 -35 42
-26 16 -35 28 -35 48 0 47 -42 115 -75 121 -27 5 -38 16 -49 53 -4 12 -16 17
-39 17 -30 0 -34 3 -43 38 -8 34 -12 37 -49 40 -22 2 -44 8 -49 13 -6 5 -20 9
-31 9 -12 0 -30 9 -40 20 -20 22 -29 23 -60 10z"/>
</g>
</svg>
