<?xml version="1.0" standalone="no"?>
<!DOCTYPE svg PUBLIC "-//W3C//DTD SVG 20010904//EN"
 "http://www.w3.org/TR/2001/REC-SVG-20010904/DTD/svg10.dtd">
<svg version="1.0" xmlns="http://www.w3.org/2000/svg"
 width="374.000000pt" height="164.000000pt" viewBox="0 0 374.000000 164.000000"
 preserveAspectRatio="xMidYMid meet">
<metadata>
Created by potrace 1.16, written by Peter Selinger 2001-2019
</metadata>
<g transform="translate(0.000000,164.000000) scale(0.100000,-0.100000)"
fill="#000000" stroke="none">
<path d="M506 1575 c-14 -13 -41 -27 -59 -30 -25 -5 -36 -14 -44 -36 -13 -33
-45 -39 -73 -14 -28 25 -74 9 -101 -36 -15 -25 -34 -42 -51 -45 -14 -4 -29
-14 -32 -23 -3 -9 -16 -29 -28 -44 l-23 -29 28 -20 c20 -15 27 -28 27 -53 0
-40 -12 -50 -57 -47 -18 2 -33 -1 -34 -5 -6 -42 -10 -97 -10 -140 -1 -47 3
-54 37 -85 32 -30 35 -37 25 -56 -6 -12 -21 -22 -32 -22 -30 0 -32 -22 -5 -76
16 -33 23 -58 19 -77 -5 -23 0 -34 24 -56 17 -15 38 -40 49 -57 10 -16 24 -33
31 -37 7 -4 13 -16 13 -26 0 -15 10 -20 48 -24 26 -3 57 -9 70 -12 28 -9 29 7
1 47 -31 43 -13 56 43 30 23 -11 51 -23 61 -26 29 -9 36 -47 26 -132 -6 -43
-8 -97 -5 -119 8 -62 -8 -173 -27 -193 -13 -12 -40 -18 -99 -22 -57 -4 -83 -9
-86 -19 -4 -11 3 -12 34 -5 61 13 97 9 155 -16 37 -15 81 -24 140 -28 80 -4
87 -3 101 17 17 24 13 57 -16 123 -10 25 -16 67 -16 125 -1 48 -5 108 -9 132
-10 47 1 102 24 125 10 10 27 12 55 9 28 -4 46 -1 58 10 28 24 77 31 96 12 42
-42 46 -67 40 -232 -8 -246 -6 -267 21 -256 10 3 15 20 15 47 1 71 32 186 51
186 5 0 9 -10 9 -22 1 -13 8 -41 16 -63 9 -22 18 -65 22 -95 6 -46 10 -55 27
-55 23 0 23 9 5 125 -13 80 -9 151 11 218 12 41 13 42 56 42 37 0 45 -4 53
-24 13 -36 32 -224 25 -256 -3 -16 -2 -31 4 -35 15 -8 14 -48 -1 -63 -9 -9 -9
-12 0 -12 7 0 12 -11 12 -25 0 -33 24 -42 95 -35 47 4 58 9 74 34 18 26 18 31
4 65 -12 28 -14 56 -9 126 12 158 25 212 62 258 19 23 43 62 55 87 35 75 42
87 93 160 40 58 52 86 69 162 23 106 40 138 72 138 31 0 49 20 71 75 16 43 16
47 1 62 -20 20 -47 10 -98 -35 -29 -24 -45 -30 -104 -35 l-70 -5 -47 44 c-48
45 -92 64 -110 46 -12 -12 -2 -83 15 -106 7 -9 30 -23 51 -30 21 -7 45 -24 53
-37 13 -21 12 -29 -6 -72 -12 -28 -30 -51 -43 -56 -31 -12 -366 -46 -375 -37
-4 3 5 19 19 34 33 34 48 99 24 107 -53 17 -50 14 -32 33 20 23 20 32 -1 48
-15 10 -16 15 -5 25 16 17 15 44 -3 59 -8 7 -15 24 -15 37 0 17 -7 27 -21 30
-21 6 -21 7 -4 19 11 9 18 28 19 59 2 40 -1 48 -20 55 -12 5 -25 14 -29 19
-10 17 -23 13 -30 -10 -5 -14 -14 -19 -28 -17 -18 3 -22 9 -19 38 1 19 -3 47
-9 63 -10 23 -17 28 -36 23 -80 -20 -76 -21 -64 3 16 28 5 44 -27 38 -14 -3
-34 0 -44 6 -14 9 -25 8 -54 -8 -29 -15 -39 -17 -55 -7 -10 7 -28 12 -39 12
-11 0 -24 8 -27 18 -14 38 -40 41 -77 7z m230 -186 c42 -29 44 -32 30 -48 -9
-10 -16 -29 -16 -44 0 -38 -13 -40 -44 -8 -23 24 -26 32 -17 49 8 15 7 23 -3
31 -12 10 -11 51 1 51 2 0 25 -14 49 -31z m-378 -171 c-2 -13 3 -28 11 -34 8
-6 11 -18 8 -28 -9 -23 -63 -21 -77 3 -14 27 -13 34 10 59 28 29 52 29 48 0z
m188 -105 c14 -19 19 -63 7 -63 -16 0 -43 35 -43 57 0 27 17 30 36 6z m238
-103 c18 -44 9 -87 -25 -111 l-29 -20 -1 38 c0 21 -4 47 -9 58 -5 14 -2 26 13
43 27 29 35 28 51 -8z m-374 -102 c32 -4 55 -66 43 -115 l-8 -33 -52 37 c-52
36 -53 37 -53 88 0 61 8 73 30 46 8 -11 26 -21 40 -23z m922 -553 c3 -72 9
-156 13 -188 6 -56 6 -57 -20 -57 -18 0 -28 7 -36 27 -12 32 -17 323 -6 341 5
7 16 12 25 10 14 -3 18 -23 24 -133z m28 -270 c0 -9 -9 -15 -25 -15 -26 0 -34
15 -12 23 23 10 37 7 37 -8z"/>
<path d="M2362 1559 c-11 -25 -23 -65 -26 -89 -14 -91 -17 -100 -36 -100 -30
0 -45 26 -31 56 15 34 14 64 -3 64 -13 0 -32 -36 -38 -75 -2 -11 -11 -21 -21
-23 -13 -3 -17 3 -17 28 0 35 -23 38 -28 4 -5 -41 21 -67 85 -85 67 -18 123
-52 123 -73 0 -7 -16 -29 -35 -49 -19 -20 -35 -43 -35 -51 0 -9 -18 -27 -40
-41 -27 -17 -40 -32 -40 -48 0 -42 15 -52 81 -52 49 0 64 -4 73 -18 9 -15 6
-22 -17 -42 l-28 -25 -187 7 -187 6 -70 -28 c-74 -29 -118 -62 -141 -107 -20
-38 -18 -52 22 -158 31 -82 35 -102 30 -149 -4 -29 -14 -65 -24 -80 -15 -21
-18 -46 -17 -139 1 -70 6 -117 13 -124 7 -7 12 -22 12 -35 0 -18 6 -23 26 -23
25 0 26 2 18 33 -12 45 -9 134 5 182 6 22 24 56 40 75 l29 34 7 -118 c4 -66
14 -130 21 -145 8 -14 14 -34 14 -43 0 -13 8 -18 26 -18 22 0 25 3 21 23 -28
113 -28 116 -13 174 8 32 32 87 52 121 36 60 40 63 69 58 16 -3 55 -9 86 -12
l56 -7 12 -86 c6 -47 13 -111 15 -141 9 -118 27 -156 63 -132 10 6 9 24 -4 85
-15 72 -15 84 0 180 16 100 30 127 63 127 25 0 46 -94 54 -239 4 -78 12 -147
17 -152 4 -4 18 -6 30 -3 20 6 21 10 16 105 -8 131 11 266 48 351 16 36 29 84
29 105 0 39 40 183 51 183 11 0 30 -54 36 -105 5 -41 13 -57 45 -89 21 -21 38
-44 38 -52 0 -20 19 -27 36 -13 11 9 18 9 26 1 11 -11 65 -6 84 9 6 5 26 1 47
-10 20 -10 48 -22 62 -25 27 -7 50 -49 39 -68 -6 -10 -14 -200 -13 -316 0 -65
-10 -72 -110 -72 -83 0 -293 -24 -312 -36 -15 -9 -10 -33 9 -43 39 -21 216
-31 550 -31 l352 0 0 44 c0 24 -6 48 -13 54 -7 6 -64 13 -127 14 l-114 3 -20
34 c-15 26 -21 63 -27 155 -5 66 -11 135 -15 152 -3 18 0 45 10 67 15 36 16
37 67 37 31 0 59 6 68 14 9 8 30 17 47 20 29 6 35 3 60 -33 16 -22 34 -41 40
-41 15 0 40 30 49 60 17 60 38 91 58 88 32 -5 43 24 27 71 -12 38 -12 45 8 80
12 21 22 48 22 60 0 11 8 25 18 30 18 10 46 86 37 102 -4 5 -15 9 -25 9 -26 0
-33 15 -15 30 20 16 19 30 -2 46 -15 10 -16 15 -5 25 17 18 15 37 -7 66 -11
13 -18 30 -15 38 3 8 -4 16 -17 20 -21 7 -21 9 -6 20 24 18 24 103 0 112 -10
4 -23 13 -29 21 -9 12 -13 12 -26 -2 -9 -8 -18 -21 -21 -28 -3 -10 -10 -8 -26
6 -15 14 -18 22 -10 32 7 9 7 25 -1 54 -12 46 -6 44 -89 23 -21 -5 -22 -4 -12
16 16 29 4 44 -30 37 -15 -3 -31 -1 -34 4 -9 15 -40 12 -75 -7 -25 -14 -34
-15 -37 -5 -3 6 -17 12 -32 12 -20 0 -31 7 -39 25 -14 30 -42 32 -66 6 -18
-20 -59 -35 -86 -33 -8 1 -22 -13 -30 -31 -17 -37 -44 -46 -70 -22 -33 30 -82
5 -115 -60 -6 -11 -23 -21 -38 -23 -15 -2 -27 -9 -27 -18 0 -8 -9 -22 -20 -31
-26 -22 -26 -55 1 -71 15 -10 19 -21 17 -50 -3 -35 -5 -37 -40 -37 -20 0 -40
-3 -44 -8 -4 -4 -9 -44 -10 -90 -2 -45 -3 -86 -4 -90 0 -5 -4 -5 -10 -2 -5 3
-10 24 -10 46 0 30 -9 53 -32 85 -27 38 -30 48 -20 62 23 32 42 81 42 110 0
15 4 32 10 38 19 19 50 128 50 175 0 89 -29 114 -31 27 -2 -94 -30 -144 -44
-76 -8 43 -46 128 -57 128 -12 0 -10 -15 8 -71 25 -74 15 -85 -45 -54 -30 15
-52 21 -56 15 -10 -17 3 -28 70 -59 36 -17 65 -37 65 -44 0 -21 -42 -55 -47
-39 -6 17 -33 15 -33 -2 0 -8 -11 -28 -25 -43 l-26 -28 7 38 c6 37 -10 54 -22
22 -8 -19 -19 -19 -39 2 -18 17 -15 83 7 191 8 39 8 56 0 64 -8 8 -16 0 -30
-33z m695 -155 c3 -9 1 -25 -6 -36 -10 -15 -10 -23 0 -34 10 -12 7 -20 -16
-44 -31 -33 -45 -31 -45 6 0 13 -6 33 -12 45 -12 18 -9 23 22 49 41 34 48 36
57 14z m373 -184 c23 -23 24 -33 10 -61 -7 -12 -21 -19 -41 -19 -32 0 -49 24
-30 43 6 6 11 21 11 34 0 29 23 30 50 3z m-200 -114 c0 -14 -10 -32 -22 -41
-28 -19 -35 -5 -18 36 15 35 40 39 40 5z m-454 -92 c24 -6 32 -28 14 -39 -5
-3 -18 -1 -29 5 -26 13 -38 -5 -18 -28 20 -24 11 -43 -18 -36 -17 4 -27 0 -37
-15 -7 -12 -23 -21 -35 -21 -21 0 -23 5 -23 48 0 46 2 49 34 62 19 7 45 27 58
44 22 30 23 30 26 9 2 -15 13 -25 28 -29z m227 9 c12 -14 14 -32 10 -80 -3
-35 -9 -63 -12 -63 -3 0 -17 9 -31 20 -20 15 -25 28 -25 63 0 40 17 77 35 77
4 0 14 -8 23 -17z m394 -189 c-58 -42 -106 -71 -111 -67 -12 12 -6 84 9 113 9
18 24 30 35 30 11 0 28 12 37 27 l18 27 7 -64 c4 -35 6 -65 5 -66z"/>
</g>
</svg>
