<?xml version="1.0" standalone="no"?>
<!DOCTYPE svg PUBLIC "-//W3C//DTD SVG 20010904//EN"
 "http://www.w3.org/TR/2001/REC-SVG-20010904/DTD/svg10.dtd">
<svg version="1.0" xmlns="http://www.w3.org/2000/svg"
 width="246.000000pt" height="251.000000pt" viewBox="0 0 246.000000 251.000000"
 preserveAspectRatio="xMidYMid meet">
<metadata>
Created by potrace 1.16, written by Peter Selinger 2001-2019
</metadata>
<g transform="translate(0.000000,251.000000) scale(0.100000,-0.100000)"
fill="#000000" stroke="none">
<path d="M2195 2427 c-46 -46 -74 -85 -96 -134 -29 -64 -31 -78 -38 -225 -5
-122 -10 -161 -22 -173 -9 -9 -54 -21 -105 -29 -157 -23 -268 -81 -444 -231
-85 -72 -158 -111 -265 -141 -27 -8 -69 -23 -92 -34 -24 -11 -53 -20 -65 -20
-13 -1 -50 -7 -83 -15 -107 -26 -135 -22 -185 31 -25 25 -57 52 -72 60 -16 8
-28 18 -28 23 0 4 23 22 50 40 71 46 84 69 76 135 -5 40 -3 62 8 83 12 24 13
51 5 159 -9 140 -26 208 -64 266 -25 38 -58 50 -68 26 -2 -7 4 -38 14 -68 10
-30 18 -81 18 -113 1 -49 -2 -58 -16 -55 -10 2 -26 31 -43 83 -34 102 -64 160
-92 179 -57 40 -65 9 -22 -89 59 -132 33 -220 -36 -121 -23 35 -37 46 -57 46
-21 0 -25 -4 -20 -22 2 -13 8 -32 12 -42 7 -17 5 -18 -16 -12 -42 14 -71 12
-82 -6 -9 -14 -7 -22 11 -41 42 -44 110 -70 204 -77 73 -5 92 -10 113 -30 27
-26 32 -49 13 -68 -20 -20 -36 -14 -40 16 -5 41 -43 43 -66 3 -9 -17 -25 -31
-34 -31 -9 0 -24 -3 -33 -6 -13 -5 -15 -2 -10 18 4 16 1 29 -10 38 -13 11 -20
10 -45 -8 -35 -26 -58 -27 -87 -4 -33 25 -45 105 -38 247 7 130 -1 175 -33
175 -10 0 -27 -9 -38 -21 -17 -19 -19 -40 -22 -183 -2 -88 -8 -165 -13 -171
-15 -15 -29 14 -29 62 0 24 -11 72 -25 109 -14 36 -25 83 -25 104 0 51 -8 70
-31 70 -44 0 -48 -72 -12 -208 11 -43 13 -66 6 -73 -7 -7 -14 5 -22 37 -19 74
-39 106 -64 102 -25 -3 -25 -5 -8 -131 18 -138 83 -194 268 -232 70 -14 92
-26 93 -47 0 -12 -52 -68 -63 -68 -6 0 -30 -19 -52 -42 -23 -24 -78 -74 -123
-111 -95 -78 -99 -92 -50 -162 37 -53 53 -60 107 -45 44 11 115 4 130 -14 5
-6 22 -42 37 -81 40 -102 111 -220 157 -261 22 -20 72 -52 112 -70 52 -24 82
-46 109 -79 42 -50 42 -69 0 -79 -38 -10 -79 -46 -134 -119 -76 -99 -180 -206
-221 -228 -38 -19 -89 -84 -89 -113 0 -31 26 -38 101 -27 65 9 77 14 104 44
16 19 38 37 47 41 10 3 26 18 35 34 27 43 117 152 126 152 9 0 7 -2 -28 -60
-12 -19 -32 -64 -44 -100 -26 -79 -50 -120 -119 -200 -28 -33 -52 -68 -52 -76
0 -11 21 -14 110 -14 l110 0 0 28 c0 15 11 43 24 61 14 19 28 48 32 65 13 65
67 147 132 202 81 69 101 94 148 179 47 89 59 102 108 124 23 10 71 39 108 64
69 48 205 107 246 107 46 0 91 28 119 74 15 26 31 46 35 46 5 0 8 -35 8 -78 0
-75 1 -79 40 -131 22 -29 40 -57 40 -62 0 -5 11 -9 26 -9 41 0 55 49 48 169
l-7 98 48 68 c26 37 55 69 64 72 9 2 40 13 69 25 29 11 55 19 57 16 5 -4 -43
-56 -103 -111 -38 -35 -42 -43 -42 -87 0 -28 6 -52 14 -59 8 -6 19 -31 25 -54
9 -37 17 -46 70 -75 66 -36 83 -39 100 -18 15 18 0 82 -29 119 -24 31 -26 60
-4 78 9 8 28 31 41 52 13 21 49 54 81 74 68 42 82 58 122 140 17 35 40 68 51
74 26 13 59 68 59 97 0 37 -33 62 -74 55 -41 -6 -42 -2 -24 58 14 47 -2 154
-32 220 -25 56 -25 103 0 144 20 32 20 39 9 196 -10 153 -12 257 -6 404 2 56
0 60 -21 63 -17 3 -39 -13 -87 -61z"/>
</g>
</svg>
