<?xml version="1.0" standalone="no"?>
<!DOCTYPE svg PUBLIC "-//W3C//DTD SVG 20010904//EN"
 "http://www.w3.org/TR/2001/REC-SVG-20010904/DTD/svg10.dtd">
<svg version="1.0" xmlns="http://www.w3.org/2000/svg"
 width="400.000000pt" height="300.000000pt" viewBox="0 0 400.000000 300.000000"
 preserveAspectRatio="xMidYMid meet">
<metadata>
Created by potrace 1.16, written by Peter Selinger 2001-2019
</metadata>
<g transform="translate(0.000000,300.000000) scale(0.100000,-0.100000)"
fill="#000000" stroke="none">
<path d="M2557 1822 c-8 -20 -18 -63 -22 -95 -4 -31 -11 -59 -15 -62 -4 -3
-18 3 -31 13 -19 16 -21 22 -11 49 6 17 8 34 5 37 -9 9 -33 -14 -33 -31 0 -8
-5 -23 -11 -34 -8 -16 -13 -18 -25 -8 -8 6 -14 20 -14 31 0 11 -4 16 -11 12
-14 -8 -2 -55 19 -70 9 -7 33 -16 53 -19 56 -10 99 -40 99 -70 0 -14 -7 -28
-15 -31 -8 -4 -24 -23 -36 -44 -12 -21 -32 -43 -45 -49 -26 -11 -31 -39 -14
-72 8 -14 21 -19 55 -19 40 0 45 -3 51 -26 10 -38 -10 -45 -96 -39 -41 3 -122
6 -180 7 -97 2 -110 0 -168 -26 -77 -36 -122 -83 -122 -130 0 -19 13 -66 30
-104 35 -84 38 -133 9 -187 -19 -35 -21 -52 -17 -166 l4 -126 -141 -7 c-77 -3
-190 -6 -252 -6 -100 0 -113 2 -122 19 -14 26 -15 81 -2 186 6 50 11 91 11 92
0 1 20 25 45 55 25 29 48 63 52 76 6 26 58 109 98 158 31 39 55 105 55 152 0
31 8 44 54 87 30 28 60 63 65 78 15 39 14 77 -3 83 -18 7 -76 -22 -97 -48 -13
-16 -30 -21 -81 -23 -61 -3 -67 -2 -86 24 -21 29 -77 61 -106 61 -12 0 -16
-10 -16 -35 0 -50 33 -109 75 -134 31 -18 35 -24 29 -48 -12 -50 -32 -63 -93
-63 -31 0 -91 -7 -134 -15 -43 -8 -112 -15 -152 -15 -72 0 -73 0 -123 -45 -61
-55 -76 -89 -67 -152 7 -50 8 -159 2 -253 -2 -30 -5 -97 -5 -148 l-2 -92 -172
2 -173 3 -9 49 c-11 61 6 80 57 65 42 -12 127 7 146 34 11 15 22 18 52 14 30
-4 42 0 58 17 25 27 26 34 5 58 -10 10 -21 41 -25 70 -10 61 -27 78 -80 78
-59 0 -55 18 7 36 131 38 121 100 -15 92 -43 -2 -56 1 -65 15 -9 15 -4 24 37
60 26 24 47 48 47 54 0 6 -23 15 -52 20 -50 8 -80 33 -40 33 30 0 48 27 34 50
-9 14 -8 21 3 30 21 17 19 54 -4 74 -15 14 -20 14 -24 3 -3 -9 -23 -14 -56
-15 -30 0 -49 3 -46 9 4 5 14 9 24 9 22 0 65 56 57 76 -3 8 -19 14 -36 14 -19
0 -30 5 -30 14 0 8 -2 21 -5 28 -4 9 4 19 20 26 34 16 34 52 1 52 -34 0 -40
15 -20 45 15 23 15 27 2 43 -9 9 -13 23 -11 30 3 6 -2 12 -11 12 -11 0 -16 9
-16 30 0 19 -5 30 -14 30 -8 0 -17 7 -20 16 -5 14 -10 13 -32 -10 -20 -20 -25
-32 -21 -54 5 -23 1 -30 -23 -41 -25 -10 -28 -17 -24 -40 5 -23 2 -29 -16 -34
-16 -4 -20 -12 -18 -33 2 -20 -2 -29 -12 -29 -24 -1 -60 -16 -60 -24 0 -16 30
-33 50 -28 10 3 24 -1 31 -9 16 -20 -10 -28 -71 -22 -48 5 -50 4 -50 -19 0
-16 7 -27 20 -30 10 -3 26 -16 35 -29 8 -13 22 -24 30 -24 8 0 15 -5 15 -10 0
-18 -28 -22 -65 -10 -45 15 -85 6 -85 -19 0 -25 21 -41 64 -48 54 -9 43 -20
-25 -26 -78 -7 -94 -21 -56 -51 19 -15 26 -28 21 -39 -8 -22 12 -47 38 -47 11
0 18 -5 16 -12 -3 -8 -27 -14 -62 -16 l-57 -3 3 -32 c3 -28 8 -33 41 -41 48
-12 42 -29 -13 -38 -24 -4 -47 -13 -51 -20 -11 -18 9 -38 38 -38 37 0 25 -30
-17 -44 -46 -15 -52 -44 -11 -52 30 -6 30 -6 10 -27 -10 -11 -21 -30 -25 -41
-3 -12 -10 -31 -16 -44 -18 -36 0 -43 108 -42 148 1 165 0 175 -6 5 -3 9 -36
9 -75 l0 -69 -75 0 c-69 0 -75 -2 -79 -22 -24 -113 -31 -249 -14 -259 38 -25
76 1 89 61 6 24 15 50 21 57 8 10 78 13 312 13 l301 0 17 -36 c10 -19 18 -41
18 -49 0 -7 14 -17 32 -20 26 -6 35 -3 50 15 10 12 18 32 18 45 0 45 10 46
334 43 328 -3 325 -3 326 -54 0 -11 6 -28 13 -37 28 -40 107 24 92 74 -6 18 4
19 303 19 339 0 316 4 352 -63 15 -28 23 -32 64 -35 39 -3 46 0 46 15 0 11 -5
24 -12 31 -9 9 -8 12 5 12 10 0 17 8 17 19 0 25 65 31 345 31 l221 0 23 -40
c27 -49 47 -60 105 -60 49 0 60 16 30 41 -32 26 -54 87 -54 148 l0 60 -72 3
-73 3 -9 53 c-6 36 -6 56 2 64 6 6 43 11 83 10 65 0 75 2 92 24 14 18 28 24
57 24 55 0 69 21 44 68 -10 19 -18 42 -16 50 2 8 -4 29 -12 47 -13 28 -23 34
-61 39 -53 8 -57 19 -15 41 17 9 30 20 30 24 0 5 3 16 6 24 4 11 -5 16 -33 22
-61 11 -74 22 -67 53 4 15 20 38 36 51 15 13 28 30 28 37 0 13 -31 19 -67 15
-7 -1 -17 7 -22 18 -9 16 -6 21 19 30 32 11 37 20 18 39 -9 9 -9 17 1 35 10
18 9 28 -2 50 -11 21 -17 25 -25 14 -6 -7 -31 -13 -56 -15 -47 -2 -62 12 -26
23 23 7 60 51 60 71 0 9 -12 14 -35 14 l-36 0 16 28 c8 15 25 39 37 54 26 33
21 40 -29 43 -36 3 -38 5 -38 36 0 37 -42 128 -62 136 -7 3 -13 11 -13 19 0 8
-3 14 -7 14 -16 -1 -54 -50 -53 -67 4 -38 -1 -52 -20 -58 -15 -5 -18 -12 -14
-34 4 -20 1 -30 -9 -34 -10 -4 -13 -13 -10 -26 4 -16 1 -21 -15 -21 -31 0 -47
-26 -34 -55 11 -24 10 -25 -18 -25 -27 0 -30 -3 -30 -34 0 -19 7 -41 15 -50
22 -22 18 -36 -9 -36 -26 0 -56 -23 -56 -43 0 -7 5 -19 10 -27 7 -11 2 -20
-17 -36 l-26 -20 27 -49 c31 -59 32 -75 7 -75 -10 0 -23 -6 -28 -12 -15 -19
-26 -175 -13 -183 7 -4 7 -12 0 -25 -6 -11 -10 -38 -9 -62 1 -24 -2 -66 -6
-94 -5 -37 -4 -53 5 -59 7 -4 66 -8 131 -8 100 0 121 -2 128 -16 8 -15 15 -61
12 -87 -1 -7 -70 -13 -213 -18 -211 -8 -213 -7 -230 14 -12 14 -18 39 -18 69
0 90 21 226 41 269 11 23 25 71 30 106 5 35 14 77 21 92 7 18 12 78 12 155 -1
112 -3 131 -22 164 -15 23 -20 46 -17 63 3 15 7 49 10 76 2 27 9 52 15 56 17
10 30 70 30 137 0 93 -12 110 -25 33 -11 -72 -25 -83 -38 -30 -4 20 -19 49
-33 65 -25 29 -25 30 -19 5 21 -82 24 -95 20 -98 -2 -3 -23 3 -46 12 -23 9
-44 14 -47 11 -9 -9 16 -29 61 -46 32 -12 43 -22 45 -41 3 -28 -22 -45 -42
-29 -13 10 -76 2 -76 -10 0 -14 -40 -10 -41 4 -3 65 0 139 9 169 10 35 7 48
-9 48 -4 0 -14 -17 -22 -38z m100 -214 c-3 -8 -6 -5 -6 6 -1 11 2 17 5 13 3
-3 4 -12 1 -19z m-1360 -754 c6 -9 14 -59 17 -112 4 -53 11 -114 17 -136 7
-24 7 -42 1 -48 -5 -5 -36 -8 -68 -6 l-59 3 -18 85 c-16 73 -17 93 -6 144 15
72 39 100 77 91 15 -3 32 -13 39 -21z m1324 -19 c14 -32 22 -75 25 -140 2 -52
4 -98 5 -102 5 -27 -4 -33 -50 -33 l-50 0 -7 57 c-7 58 1 237 11 254 4 5 15 9
26 9 14 0 26 -13 40 -45z m-209 19 l44 -6 16 -77 c9 -42 19 -106 21 -143 l5
-66 -127 -4 c-94 -3 -130 0 -141 10 -11 9 -15 34 -15 96 0 75 3 87 29 127 49
73 62 77 168 63z m-988 -71 c3 -38 7 -104 8 -148 3 -75 2 -80 -19 -83 -31 -5
-44 46 -42 169 1 117 4 129 29 129 15 0 19 -11 24 -67z m721 -5 c3 -13 10 -54
15 -93 6 -38 13 -85 16 -102 6 -33 6 -33 -34 -33 -54 0 -72 25 -72 102 0 61
12 102 37 130 21 24 32 23 38 -4z m-998 -148 c14 -68 9 -80 -32 -80 -60 0 -64
22 -28 150 l15 55 17 -36 c10 -20 22 -60 28 -89z"/>
</g>
</svg>
