<?xml version="1.0" standalone="no"?>
<!DOCTYPE svg PUBLIC "-//W3C//DTD SVG 20010904//EN"
 "http://www.w3.org/TR/2001/REC-SVG-20010904/DTD/svg10.dtd">
<svg version="1.0" xmlns="http://www.w3.org/2000/svg"
 width="164.000000pt" height="243.000000pt" viewBox="0 0 164.000000 243.000000"
 preserveAspectRatio="xMidYMid meet">
<metadata>
Created by potrace 1.16, written by Peter Selinger 2001-2019
</metadata>
<g transform="translate(0.000000,243.000000) scale(0.100000,-0.100000)"
fill="#000000" stroke="none">
<path d="M1550 2410 c-10 -6 -17 -37 -22 -106 -3 -53 -11 -101 -15 -105 -6 -6
-16 13 -26 43 -26 85 -77 162 -108 166 -40 5 -45 -33 -13 -102 26 -57 42 -126
29 -126 -3 0 -37 14 -75 30 -38 17 -82 30 -99 30 -26 0 -31 -4 -31 -24 0 -40
62 -83 213 -144 32 -14 34 -32 6 -58 -16 -15 -23 -16 -37 -6 -37 26 -45 26
-72 -7 l-27 -32 -16 25 c-20 29 -49 25 -67 -10 -17 -30 -25 -30 -46 1 -14 22
-15 38 -5 140 6 64 20 139 31 168 24 63 25 81 4 97 -11 10 -23 11 -41 4 -33
-11 -76 -111 -98 -228 -9 -45 -18 -91 -21 -103 -5 -26 -22 -29 -48 -10 -17 12
-17 16 -1 77 18 71 10 110 -24 110 -30 0 -47 -23 -71 -95 -12 -36 -25 -65 -30
-65 -5 0 -12 21 -16 46 -7 48 -25 64 -52 47 -37 -23 -34 -110 6 -161 12 -15
57 -36 137 -63 125 -43 175 -70 175 -96 0 -8 -19 -32 -41 -53 -23 -21 -52 -58
-64 -81 -12 -25 -36 -53 -55 -64 -18 -11 -46 -33 -63 -48 -27 -25 -29 -32 -24
-75 4 -34 12 -52 33 -70 25 -22 33 -23 90 -17 34 3 78 3 98 -1 30 -5 37 -10
34 -27 -2 -12 -19 -32 -38 -45 -35 -24 -37 -24 -190 -16 -85 5 -231 9 -325 9
l-170 0 -104 -44 c-130 -56 -195 -106 -227 -174 -29 -64 -30 -111 -3 -156 11
-19 37 -79 57 -135 30 -82 37 -115 37 -177 0 -69 -3 -81 -34 -130 l-34 -54 0
-177 c1 -162 3 -181 23 -223 25 -52 48 -67 93 -63 36 3 33 -15 21 158 -7 92
15 182 59 243 l31 42 13 -85 c6 -47 12 -118 13 -158 0 -56 6 -86 25 -127 35
-77 98 -105 134 -61 9 10 6 26 -10 62 -18 42 -20 63 -17 149 5 104 19 148 73
220 13 17 32 49 44 72 29 59 50 68 109 47 26 -9 77 -19 115 -22 37 -2 70 -9
73 -14 12 -19 44 -266 44 -338 0 -133 54 -227 117 -204 25 9 28 14 25 49 -18
272 -9 470 24 522 9 15 24 23 42 23 25 0 29 -6 50 -78 24 -80 46 -297 36 -362
-15 -96 86 -193 150 -145 15 11 17 20 10 47 -13 55 -7 326 10 453 15 106 22
128 62 202 43 78 46 88 53 191 7 85 14 118 34 159 46 90 60 246 31 343 -9 30
-17 78 -18 107 -2 44 -9 63 -49 120 -26 38 -47 74 -47 81 0 7 12 29 26 47 27
36 54 112 54 152 0 13 16 57 35 96 60 126 78 234 54 337 -13 55 -29 69 -59 50z"/>
</g>
</svg>
