<?xml version="1.0" standalone="no"?>
<!DOCTYPE svg PUBLIC "-//W3C//DTD SVG 20010904//EN"
 "http://www.w3.org/TR/2001/REC-SVG-20010904/DTD/svg10.dtd">
<svg version="1.0" xmlns="http://www.w3.org/2000/svg"
 width="168.000000pt" height="224.000000pt" viewBox="0 0 168.000000 224.000000"
 preserveAspectRatio="xMidYMid meet">
<metadata>
Created by potrace 1.16, written by Peter Selinger 2001-2019
</metadata>
<g transform="translate(0.000000,224.000000) scale(0.100000,-0.100000)"
fill="#000000" stroke="none">
<path d="M628 2119 c-25 -10 -28 -16 -28 -57 l-1 -47 -20 38 c-29 55 -78 46
-105 -20 -16 -36 -11 -51 26 -80 28 -21 3 -24 -31 -4 -41 25 -65 27 -77 4 -9
-15 -17 -14 -92 16 -45 18 -89 31 -98 29 -14 -3 -17 -19 -20 -99 -4 -127 -2
-128 121 -107 94 16 147 18 147 6 0 -4 -12 -8 -27 -10 -44 -5 -39 -32 15 -88
34 -35 54 -49 65 -44 13 5 17 0 17 -21 0 -21 7 -29 30 -38 46 -17 36 -30 -18
-23 -33 4 -54 2 -67 -7 -31 -23 -8 -37 61 -37 62 0 74 -6 55 -26 -5 -5 -12
-31 -14 -59 -9 -78 -36 -274 -47 -335 -15 -87 -30 -182 -35 -220 -11 -78 -56
-358 -65 -400 -21 -99 -61 -361 -58 -382 2 -15 10 -23 23 -23 23 0 41 52 51
155 l7 70 92 0 93 0 7 -50 c4 -28 5 -79 3 -113 l-3 -62 31 -3 31 -3 6 112 c4
62 8 113 9 114 2 2 41 5 88 7 l85 4 -3 -106 c-3 -80 0 -109 10 -117 8 -7 114
-12 303 -14 l290 -4 3 100 c1 55 -2 107 -8 115 -8 12 -53 16 -272 20 -225 4
-263 7 -263 20 0 11 9 14 30 13 71 -6 66 30 -5 42 -45 8 -47 11 -75 170 -9 50
-22 122 -30 160 -8 39 -39 201 -70 360 -31 160 -60 312 -65 338 -6 26 -10 64
-10 82 l0 35 53 0 c66 0 85 11 62 34 -11 11 -34 16 -71 16 -51 0 -54 1 -54 25
0 23 2 24 20 13 17 -11 27 -9 66 12 25 14 51 36 57 49 10 20 8 26 -18 48 l-30
24 26 -6 c33 -8 66 23 75 71 12 64 7 69 -76 67 l-75 -2 55 22 c44 18 56 27 58
47 3 27 -52 120 -71 120 -6 0 -22 -10 -35 -22 l-24 -23 7 36 c5 25 2 39 -8 48
-21 17 -77 22 -109 10z m82 -159 c0 -5 -5 -10 -11 -10 -5 0 -7 5 -4 10 3 6 8
10 11 10 2 0 4 -4 4 -10z m-15 -552 c34 -195 57 -316 69 -372 8 -34 11 -65 7
-69 -5 -5 -27 -11 -50 -14 l-41 -6 0 159 c0 88 -3 211 -6 274 -7 127 2 139 21
28z m-60 -445 c0 -1 -20 -5 -43 -9 -39 -6 -42 -5 -42 17 0 13 7 58 15 100 7
42 19 116 24 165 6 49 16 116 23 149 12 56 13 46 19 -180 3 -132 5 -241 4
-242z m5 -98 c0 -30 -2 -55 -4 -55 -10 0 -65 93 -60 101 3 5 18 9 35 9 29 0
29 -1 29 -55z m84 8 c-41 -71 -44 -72 -44 -10 l0 57 35 0 36 0 -27 -47z m-136
-63 c24 -39 42 -75 40 -82 -4 -16 -150 -259 -153 -256 -1 2 6 57 16 123 10 66
24 157 30 203 7 45 15 82 18 82 3 -1 25 -32 49 -70z m215 28 c3 -18 19 -111
37 -207 17 -96 28 -177 24 -180 -4 -3 -8 -1 -10 4 -3 6 -40 65 -84 132 -44 67
-80 126 -80 133 0 6 13 30 29 53 15 23 36 57 45 75 20 38 31 35 39 -10z m-167
-475 c-7 -17 -156 -19 -156 -1 0 6 35 70 78 143 l77 131 3 -130 c1 -72 0 -136
-2 -143z m128 164 c36 -55 66 -103 66 -108 0 -5 -16 -9 -35 -9 -24 0 -45 9
-69 30 -33 30 -35 34 -38 110 -2 44 0 79 4 78 4 -2 36 -47 72 -101z m-23 -137
c18 -6 48 -10 66 -10 61 0 46 -20 -16 -22 -34 -1 -69 -2 -78 -2 -13 -1 -19 8
-21 34 -2 22 1 30 6 22 5 -7 24 -17 43 -22z"/>
</g>
</svg>
