<?xml version="1.0" standalone="no"?>
<!DOCTYPE svg PUBLIC "-//W3C//DTD SVG 20010904//EN"
 "http://www.w3.org/TR/2001/REC-SVG-20010904/DTD/svg10.dtd">
<svg version="1.0" xmlns="http://www.w3.org/2000/svg"
 width="304.000000pt" height="285.000000pt" viewBox="0 0 304.000000 285.000000"
 preserveAspectRatio="xMidYMid meet">
<metadata>
Created by potrace 1.16, written by Peter Selinger 2001-2019
</metadata>
<g transform="translate(0.000000,285.000000) scale(0.100000,-0.100000)"
fill="#000000" stroke="none">
<path d="M2831 2505 c-18 -8 -56 -34 -84 -57 -49 -42 -53 -43 -121 -43 -68 -1
-77 -4 -204 -70 -74 -39 -141 -75 -150 -80 -9 -6 -33 -21 -52 -33 -21 -13 -51
-22 -76 -22 -26 0 -53 -8 -75 -23 -29 -20 -34 -28 -31 -59 2 -34 -1 -39 -51
-72 -30 -20 -58 -36 -62 -36 -14 0 -96 -41 -158 -79 -49 -29 -72 -36 -140 -42
-45 -4 -127 -12 -182 -18 -55 -5 -163 -15 -240 -20 -77 -6 -157 -16 -178 -23
-30 -9 -42 -8 -63 2 -21 12 -30 12 -57 1 -18 -8 -70 -18 -117 -23 -102 -12
-172 -42 -319 -139 -57 -38 -109 -69 -115 -69 -23 -1 -67 -49 -129 -141 -92
-138 -115 -192 -123 -297 -3 -48 -13 -114 -21 -147 -8 -33 -19 -80 -24 -105
-11 -50 -3 -290 11 -330 5 -14 11 -36 14 -50 3 -14 19 -36 36 -48 27 -20 35
-22 65 -12 48 16 115 91 115 130 0 17 11 46 24 63 18 25 25 50 29 107 3 41 12
92 19 114 l14 38 13 -42 c16 -54 6 -130 -25 -191 -45 -89 -69 -322 -48 -469 9
-60 19 -83 80 -187 l19 -33 118 0 117 0 -24 49 c-15 29 -39 58 -60 70 -33 21
-34 24 -41 104 -5 64 -3 94 9 130 28 82 74 175 105 214 17 21 39 49 50 63 11
14 23 22 27 18 4 -4 2 -13 -3 -20 -6 -7 -22 -41 -36 -75 l-24 -62 22 -68 c13
-37 31 -95 40 -128 23 -82 71 -173 112 -214 18 -19 36 -45 39 -58 6 -22 10
-23 116 -23 l109 0 -3 46 c-2 34 -8 50 -23 58 -87 49 -90 52 -114 121 -22 60
-23 78 -18 180 6 123 0 108 114 295 15 25 44 77 64 115 31 60 41 71 72 79 28
7 41 5 68 -11 20 -12 62 -24 99 -28 36 -4 88 -13 115 -20 28 -7 77 -20 110
-27 l60 -14 8 -89 c4 -50 15 -110 23 -135 9 -25 20 -101 25 -170 10 -142 42
-279 77 -330 13 -19 21 -42 19 -52 -5 -17 5 -18 122 -18 l128 0 -7 43 c-11 63
-19 75 -55 89 -19 6 -44 25 -55 41 -18 24 -21 37 -15 75 3 26 9 110 13 187 4
81 12 149 20 162 6 12 12 49 12 82 0 33 4 70 9 83 5 13 12 35 15 50 10 43 51
83 133 127 43 23 100 56 127 74 67 44 311 291 332 336 9 20 41 64 71 99 29 35
53 71 53 81 0 19 83 227 118 296 11 22 24 60 27 85 8 51 48 145 72 172 9 10
21 27 27 37 6 10 18 29 27 42 9 13 19 39 23 58 5 30 2 38 -31 68 -31 30 -35
38 -25 54 21 33 14 92 -15 137 -30 46 -41 49 -92 27z"/>
</g>
</svg>
