<?xml version="1.0" standalone="no"?>
<!DOCTYPE svg PUBLIC "-//W3C//DTD SVG 20010904//EN"
 "http://www.w3.org/TR/2001/REC-SVG-20010904/DTD/svg10.dtd">
<svg version="1.0" xmlns="http://www.w3.org/2000/svg"
 width="124.000000pt" height="206.000000pt" viewBox="0 0 124.000000 206.000000"
 preserveAspectRatio="xMidYMid meet">
<metadata>
Created by potrace 1.16, written by Peter Selinger 2001-2019
</metadata>
<g transform="translate(0.000000,206.000000) scale(0.100000,-0.100000)"
fill="#000000" stroke="none">
<path d="M845 2009 c-16 -5 -39 -6 -51 -3 -30 8 -101 -13 -108 -32 -3 -9 -6
-26 -6 -40 0 -17 -7 -25 -26 -30 -17 -4 -31 -18 -40 -41 -8 -19 -35 -59 -59
-89 -25 -30 -45 -60 -45 -66 0 -6 20 -46 45 -89 l45 -79 -10 -64 c-6 -36 -7
-97 -4 -135 6 -62 5 -71 -11 -77 -10 -4 -29 0 -44 10 -41 27 -89 46 -137 55
-25 5 -47 11 -50 13 -2 3 0 28 6 56 15 66 1 115 -44 165 -41 43 -60 45 -124
13 -62 -32 -92 -65 -91 -101 1 -47 -13 -139 -22 -150 -4 -6 -4 -17 1 -25 16
-25 11 -71 -11 -107 -17 -27 -19 -36 -9 -48 18 -21 36 -19 62 10 l23 24 0
-108 0 -109 -52 -60 c-29 -33 -53 -65 -53 -71 0 -19 65 -71 98 -77 38 -7 48
-20 32 -39 -14 -17 -3 -39 35 -75 34 -32 93 -129 101 -166 3 -16 21 -47 39
-68 52 -62 72 -39 68 77 -1 16 -9 37 -19 48 -17 19 -17 20 4 35 12 8 22 26 22
39 0 35 -39 133 -56 143 -13 7 -11 16 15 54 36 54 61 77 61 58 0 -8 -8 -22
-17 -32 -15 -17 -15 -20 4 -46 11 -15 23 -39 26 -53 4 -15 15 -37 25 -49 16
-19 21 -21 38 -10 17 11 25 10 47 -5 30 -19 32 -27 16 -56 -7 -15 -7 -24 1
-34 10 -12 51 -271 52 -325 0 -14 -3 -38 -7 -53 -4 -16 -3 -38 2 -50 6 -12 14
-35 19 -51 12 -39 68 -74 90 -56 11 10 13 26 8 74 -4 34 -10 66 -14 71 -14 19
-19 140 -10 230 12 121 20 155 36 155 7 0 43 -25 79 -56 73 -62 73 -65 29
-136 -13 -21 -24 -41 -24 -44 0 -4 -12 -22 -26 -41 -33 -44 -30 -79 9 -76 29
2 33 -7 16 -39 -13 -24 1 -38 38 -38 21 0 149 100 228 178 22 21 54 47 72 56
47 24 48 34 6 52 l-38 17 30 6 c46 9 47 46 1 62 -41 15 -45 24 -16 39 29 15
25 27 -17 48 l-37 19 28 18 c27 18 27 19 7 26 -12 5 -18 14 -15 23 3 8 -4 20
-16 29 -12 9 -18 20 -14 30 4 12 -2 18 -20 23 -25 6 -38 34 -16 34 6 0 10 5
10 10 0 6 -7 10 -15 10 -8 0 -15 8 -15 19 0 10 -7 24 -16 31 -22 19 -41 71
-49 134 -8 61 -16 69 -33 31 -14 -30 -28 -32 -42 -6 -13 25 0 56 24 56 10 0
24 8 30 18 9 15 6 23 -21 45 -39 33 -53 87 -62 232 -3 58 -10 110 -14 116 -7
12 12 24 38 24 32 0 102 89 107 136 3 25 -2 32 -34 47 -65 32 -100 32 -136 2
-29 -24 -32 -25 -32 -8 0 29 -11 35 -31 17 -11 -10 -19 -12 -24 -5 -12 21 -25
11 -25 -19 0 -36 -9 -38 -39 -6 -31 33 -22 70 22 92 17 9 75 51 127 93 52 42
101 81 110 88 13 10 13 13 -3 31 -23 25 -44 31 -82 21z m-605 -683 c0 -7 -20
-34 -45 -58 -25 -25 -45 -42 -45 -37 0 4 4 10 9 14 5 3 15 22 21 43 17 53 60
80 60 38z"/>
</g>
</svg>
